<svg width="32" height="32" viewBox="0 0 32 32" fill="none" xmlns="http://www.w3.org/2000/svg">
<path d="M29.92 10.23C29.8929 9.06851 29.6733 7.91957 29.27 6.83C28.9076 5.90003 28.3561 5.05544 27.6503 4.34969C26.9446 3.64394 26.1 3.0924 25.17 2.73C24.0804 2.32672 22.9315 2.10707 21.77 2.08C20.28 2 19.8 2 16 2C12.2 2 11.72 2 10.23 2.08C9.06851 2.10707 7.91957 2.32672 6.83 2.73C5.90003 3.0924 5.05544 3.64394 4.34969 4.34969C3.64394 5.05544 3.0924 5.90003 2.73 6.83C2.32672 7.91957 2.10707 9.06851 2.08 10.23C2 11.72 2 12.2 2 16C2 19.8 2 20.28 2.08 21.77C2.10707 22.9315 2.32672 24.0804 2.73 25.17C3.0924 26.1 3.64394 26.9446 4.34969 27.6503C5.05544 28.3561 5.90003 28.9076 6.83 29.27C7.91957 29.6733 9.06851 29.8929 10.23 29.92C11.72 29.98 12.23 30 16 30C19.77 30 20.28 30 21.77 29.92C22.9315 29.8929 24.0804 29.6733 25.17 29.27C26.1 28.9076 26.9446 28.3561 27.6503 27.6503C28.3561 26.9446 28.9076 26.1 29.27 25.17C29.6733 24.0804 29.8929 22.9315 29.92 21.77C30 20.28 30 19.8 30 16C30 12.2 30 11.72 29.92 10.23ZM27.4 21.66C27.3869 22.5483 27.2212 23.4278 26.91 24.26C26.6812 24.8642 26.3267 25.413 25.8698 25.8698C25.413 26.3267 24.8642 26.6812 24.26 26.91C23.4278 27.2212 22.5483 27.3869 21.66 27.4C20.18 27.46 19.74 27.48 16 27.48C12.26 27.48 11.82 27.48 10.34 27.4C9.45165 27.3869 8.57217 27.2212 7.74 26.91C7.13576 26.6812 6.58704 26.3267 6.13018 25.8698C5.67332 25.413 5.31877 24.8642 5.09 24.26C4.77885 23.4278 4.6131 22.5483 4.6 21.66C4.54 20.18 4.52 19.74 4.52 16C4.52 12.26 4.52 11.82 4.6 10.34C4.6131 9.45165 4.77885 8.57217 5.09 7.74C5.31877 7.13576 5.67332 6.58704 6.13018 6.13018C6.58704 5.67332 7.13576 5.31877 7.74 5.09C8.57217 4.77885 9.45165 4.6131 10.34 4.6C11.82 4.54 12.26 4.52 16 4.52C19.74 4.52 20.18 4.52 21.66 4.6C22.5483 4.6131 23.4278 4.77885 24.26 5.09C24.8642 5.31877 25.413 5.67332 25.8698 6.13018C26.3267 6.58704 26.6812 7.13576 26.91 7.74C27.2212 8.57217 27.3869 9.45165 27.4 10.34C27.46 11.82 27.48 12.26 27.48 16C27.48 19.74 27.46 20.18 27.4 21.66Z" fill="#191919"/>
<path d="M16 8.81C14.578 8.81 13.1878 9.23169 12.0055 10.0217C10.8231 10.8118 9.9015 11.9347 9.35731 13.2485C8.81311 14.5623 8.67073 16.008 8.94815 17.4027C9.22558 18.7974 9.91036 20.0786 10.9159 21.0841C11.9214 22.0896 13.2026 22.7744 14.5973 23.0518C15.992 23.3293 17.4377 23.1869 18.7515 22.6427C20.0653 22.0985 21.1882 21.1769 21.9783 19.9946C22.7683 18.8122 23.19 17.422 23.19 16C23.19 14.0931 22.4325 12.2643 21.0841 10.9159C19.7357 9.56752 17.9069 8.81 16 8.81ZM16 20.67C15.0764 20.67 14.1735 20.3961 13.4055 19.883C12.6375 19.3698 12.0389 18.6405 11.6855 17.7871C11.332 16.9338 11.2395 15.9948 11.4197 15.0889C11.5999 14.183 12.0447 13.3509 12.6978 12.6978C13.3509 12.0447 14.183 11.5999 15.0889 11.4197C15.9948 11.2395 16.9338 11.332 17.7871 11.6855C18.6405 12.0389 19.3698 12.6375 19.883 13.4055C20.3961 14.1735 20.67 15.0764 20.67 16C20.67 17.2386 20.178 18.4264 19.3022 19.3022C18.4264 20.178 17.2386 20.67 16 20.67ZM23.47 6.85C23.1377 6.85 22.8129 6.94853 22.5366 7.13313C22.2604 7.31773 22.045 7.58011 21.9179 7.88709C21.7907 8.19407 21.7575 8.53186 21.8223 8.85775C21.8871 9.18364 22.0471 9.48299 22.2821 9.71794C22.517 9.95289 22.8164 10.1129 23.1422 10.1777C23.4681 10.2425 23.8059 10.2093 24.1129 10.0821C24.4199 9.95496 24.6823 9.73963 24.8669 9.46336C25.0515 9.18708 25.15 8.86227 25.15 8.53C25.15 8.08444 24.973 7.65712 24.6579 7.34206C24.3429 7.027 23.9156 6.85 23.47 6.85Z" fill="#191919"/>
</svg>
