<svg width="32" height="32" viewBox="0 0 32 32" fill="none" xmlns="http://www.w3.org/2000/svg">
<path d="M27.0002 26V18C27.0002 14 26.1502 11 21.5302 11C20.6643 10.9663 19.8055 11.1691 19.0462 11.5866C18.2868 12.0042 17.6556 12.6207 17.2202 13.37H17.1602V11.37H12.7902V26H17.3402V18.72C17.3402 16.81 17.7002 14.96 20.0702 14.96C22.4402 14.96 22.4402 17.15 22.4402 18.85V26H27.0002ZM7.64022 4.00002C7.11567 4.00002 6.60293 4.1557 6.16692 4.44733C5.73092 4.73896 5.39127 5.15342 5.19099 5.63823C4.99072 6.12304 4.93883 6.65638 5.04189 7.1707C5.14496 7.68502 5.39834 8.15718 5.76995 8.52739C6.14156 8.8976 6.61468 9.1492 7.12938 9.25031C7.64409 9.35143 8.17723 9.29752 8.66128 9.09542C9.14532 8.89331 9.5585 8.5521 9.84848 8.115C10.1385 7.67789 10.2922 7.16456 10.2902 6.64002C10.2902 6.29249 10.2216 5.94837 10.0883 5.62742C9.95501 5.30647 9.75965 5.01499 9.51345 4.76971C9.26724 4.52444 8.97503 4.33018 8.65357 4.1981C8.33212 4.06602 7.98775 3.9987 7.64022 4.00002ZM5.36022 11.31H9.92022V25.98H5.36022V11.31Z" fill="#191919"/>
</svg>
