<svg width="32" height="32" viewBox="0 0 32 32" fill="none" xmlns="http://www.w3.org/2000/svg">
<path d="M5.73047 20.71C5.73047 22.6434 6.49852 24.4977 7.86566 25.8648C9.2328 27.2319 11.087 28 13.0205 28C14.9539 28 16.8081 27.2319 18.1753 25.8648C19.5424 24.4977 20.3105 22.6434 20.3105 20.71V10.84C20.8946 11.731 21.6914 12.4626 22.6288 12.9689C23.5663 13.4752 24.615 13.7402 25.6805 13.74H26.2705V9.74C24.7697 9.62807 23.3561 8.99163 22.2774 7.94218C21.1987 6.89272 20.5236 5.49717 20.3705 4H16.9305V20.76C16.894 21.7671 16.4599 22.7188 15.7234 23.4066C14.9868 24.0944 14.0077 24.4624 13.0005 24.43C12.0485 24.3806 11.1519 23.9676 10.4955 23.2764C9.8392 22.5851 9.47328 21.6682 9.47328 20.715C9.47328 19.7618 9.8392 18.8449 10.4955 18.1536C11.1519 17.4624 12.0485 17.0494 13.0005 17C13.1605 17 13.3005 17 13.4505 17V13.44H13.0005C11.074 13.4453 9.22788 14.2129 7.86563 15.5752C6.50339 16.9374 5.73575 18.7835 5.73047 20.71Z" fill="#191919"/>
</svg>
