<?xml version="1.0" encoding="utf-8"?>
<!-- Generator: Adobe Illustrator 28.0.0, SVG Export Plug-In . SVG Version: 6.00 Build 0)  -->
<svg version="1.1" id="Õ_xBA__x2264__x201E__x5F_1"
	 xmlns="http://www.w3.org/2000/svg" xmlns:xlink="http://www.w3.org/1999/xlink" x="0px" y="0px" viewBox="0 0 6000 3277.7"
	 style="enable-background:new 0 0 6000 3277.7;" xml:space="preserve">
<style type="text/css">
	.st0{fill:#82D2F5;}
</style>
<g>
	<polygon class="st0" points="177.1,919.5 185.5,927.9 198.6,927.9 221.1,905.4 221.1,886.5 210.1,886.5 	"/>
	<polygon class="st0" points="509.6,998.1 509.6,1018.7 524.3,1033.4 536.5,1033.4 536.5,1006.6 527.9,998.1 	"/>
	<polygon class="st0" points="-22.5,836 -30.6,844.1 -30.6,851.9 -10.9,851.9 -3.2,844.2 -11.4,836 	"/>
	<polygon class="st0" points="4587.3,1586.7 4587.3,1604.5 4598.5,1615.7 4620.6,1593.6 4620.6,1565.5 4608.5,1565.5 	"/>
	<polygon class="st0" points="4455.6,1687.1 4455.6,1672.5 4430.8,1672.5 4415.7,1687.6 4415.7,1702.7 4421.4,1708.4 4434.3,1708.4 
			"/>
	<polygon class="st0" points="2423.7,672.8 2316.6,672.8 2288.7,700.8 2346.8,758.9 2402.9,758.9 2456.3,705.5 	"/>
	<polygon class="st0" points="4357.5,2025.9 4338.1,2025.9 4201.2,1889 4201.2,1936 4230.7,1965.5 4230.7,1985.5 4334.5,2089.3 
		4357.5,2089.3 	"/>
	<polygon class="st0" points="4649.8,2138.4 4643.6,2132.1 4491.2,2132.1 4471.2,2112.2 4436.2,2112.2 4356.8,2112.2 4389.1,2144.4 
		4643.7,2144.4 	"/>
	<polygon class="st0" points="2577.9,1016.2 2577.9,957.1 2549.1,957.1 2517.9,988.2 2517.9,1043.6 2550.5,1043.6 	"/>
	<polygon class="st0" points="4544.8,1852.6 4549.7,1857.4 4578.9,1828.2 4578.9,1811.3 4544.8,1845.3 	"/>
	<polygon class="st0" points="4458.6,2059.5 4524,2059.5 4541.3,2042.2 4541.3,1942.7 4573.9,1910.1 4573.9,1893 4554.1,1893 
		4534.8,1873.6 4403.8,2004.7 	"/>
	<polygon class="st0" points="5447.3,2638.5 5461.3,2652.4 5461.3,2719.1 5474.4,2732.2 5522.9,2683.8 5447.3,2608.2 	"/>
	<polygon class="st0" points="2806.6,1250.2 2806.6,1290 2823.9,1307.3 2839.2,1292 2839.2,1244.9 2825.6,1231.3 	"/>
	<polygon class="st0" points="3060.1,1365.4 3052.7,1372.8 3059.3,1379.4 3083.5,1379.4 3089.4,1373.5 3081.3,1365.4 	"/>
	<polygon class="st0" points="3955,1841.7 3955,1882.8 3972.7,1900.5 3987.6,1885.6 3987.6,1853.2 3965.6,1831.2 	"/>
	<polygon class="st0" points="4988.1,2761.3 5001.8,2775.1 5024.1,2775.1 5039.9,2759.4 5039.9,2721.5 4988.1,2721.5 	"/>
	<polygon class="st0" points="5084.3,2090.2 5044.8,2090.2 5044.8,2097.5 5050.4,2103.2 5088.7,2103.2 5124.7,2067.1 5116.1,2058.5 
			"/>
	<polygon class="st0" points="5148.1,2090.4 5148.1,2101.6 5160.5,2114.1 5170,2114.1 5174.3,2109.7 5174.3,2104.3 5160.4,2090.4 	
		"/>
	<polygon class="st0" points="5343,2369 5320,2346 5309.6,2346 5309.6,2355.3 5331.5,2377.2 5343,2377.2 	"/>
	<polygon class="st0" points="4645.4,2161.4 4645.4,2172.9 4653.6,2172.9 4693.5,2133 4673.8,2133 	"/>
	<polygon class="st0" points="5007.8,2142.7 5038,2172.9 5080,2172.9 4944.5,2037.4 4821.5,2037.4 4797.5,2013.4 4767.2,2013.4 
		4767.2,2039.5 4797.2,2069.5 4850.5,2069.5 4885.9,2104.8 4885.9,2142.7 	"/>
	<polygon class="st0" points="4714.3,2052.2 4722.2,2060.1 4750.1,2060.1 4759.9,2050.4 4752.9,2043.4 4723.1,2043.4 	"/>
	<polygon class="st0" points="4573.7,2166.4 4580.1,2172.9 4598.2,2172.9 4606.1,2164.9 4600.5,2159.2 4580.8,2159.2 	"/>
	<polygon class="st0" points="4705.1,1965.3 4705.1,1980.9 4725.6,2001.4 4735.9,1991 4735.9,1982.5 4718.7,1965.3 	"/>
	<polygon class="st0" points="5049.6,415.4 5019.7,385.6 4960.3,385.6 4866.9,385.6 4866.9,397.7 4884.6,415.4 	"/>
	<polygon class="st0" points="2945.9,348.7 2982.1,312.5 3033.4,312.5 3106.6,239.3 2843.6,239.3 2843.6,285.8 2906.5,348.7 	"/>
	<polygon class="st0" points="3590.5,546.2 3567.4,523.1 3567.4,502.2 3675.6,394 3747.9,394 3774.4,367.5 3647.6,367.5 
		3499.9,515.2 3530.9,546.2 	"/>
	<polygon class="st0" points="5335.3,2824.7 5347,2836.5 5374,2836.5 5453.5,2757 5453.5,2727.7 5432.4,2727.7 	"/>
	<polygon class="st0" points="3364.9,2423.8 3407.6,2423.8 3444.6,2386.7 3444.6,2311.8 3471.7,2284.8 3471.7,2184.6 3364.9,2291.4 
			"/>
	<polygon class="st0" points="1502.2,1687.9 1559.8,1687.9 1574.9,1672.8 1564.2,1662.1 1528.7,1662.1 1508.5,1641.8 1445,1641.8 
		1402.7,1599.5 1321.6,1599.5 1300.5,1620.6 1358.2,1620.6 1388.3,1620.6 1427.8,1660.1 1474.4,1660.1 	"/>
	<polygon class="st0" points="1406.6,1686.6 1411.3,1691.4 1439.6,1691.4 1439.6,1686.7 1433.8,1680.9 1406.6,1680.9 	"/>
	<polygon class="st0" points="1587,1684.7 1593.7,1691.4 1614.5,1691.4 1614.5,1684.8 1606.3,1676.5 1587,1676.5 	"/>
	<polygon class="st0" points="1340.6,716.1 1323.9,716.1 1303.7,695.8 1263,736.5 1287,760.5 1310.6,760.5 1319.5,751.7 
		1376.2,751.7 	"/>
	<polygon class="st0" points="794.8,410.1 962.5,410.1 962.5,389.7 953.4,380.6 943.4,380.6 921.6,358.9 894.6,385.9 876.8,385.9 
		855.5,364.5 826.3,364.5 794.8,396.1 	"/>
	<polygon class="st0" points="1167.3,365.7 1183.4,381.9 1183.4,412.4 1198.4,427.4 1368,427.4 1389.1,406.3 1378.7,395.9 
		1237,395.9 1181.2,340.2 1111.9,340.2 1111.9,352.7 1124.9,365.7 	"/>
	<polygon class="st0" points="909.8,308.8 909.8,287.9 865.4,287.9 843.6,309.7 843.6,335.5 883.1,335.5 	"/>
	<polygon class="st0" points="802.7,337.5 802.7,322.9 765.6,322.9 702.9,385.6 754.6,385.6 	"/>
	<polygon class="st0" points="1455.7,651 1455.7,629.5 1448.4,622.2 1429.2,622.2 1418.8,632.6 1418.8,643.6 1426.2,651 	"/>
	<polygon class="st0" points="1072.8,310.1 1072.8,300.2 1057.1,284.6 1020.6,284.6 992.8,256.8 976.6,256.8 959.3,274 995.5,310.1 
			"/>
	<polygon class="st0" points="1153.1,422.5 1161.5,414 1161.5,406.2 1156.6,401.3 1122.4,401.3 1111.3,412.4 1121.4,422.5 	"/>
	<polygon class="st0" points="2315.6,466.4 2347.9,434.1 2347.9,308.7 2483.1,173.5 2465.6,155.9 1720.1,155.9 1622.7,253.3 
		1548.1,253.3 1498.2,303.2 1572.9,377.9 1720.1,377.9 1806.4,464.2 1806.4,705.4 1955.1,854 2189.8,619.3 2261.1,619.3 
		2315.6,564.8 	"/>
	<polygon class="st0" points="1639,1084.9 1653.3,1099.2 1674.1,1099.2 1653.9,1079 1639,1079 	"/>
	<polygon class="st0" points="1003.4,349.6 997.1,355.9 997.1,370.3 1019.3,392.5 1031.2,392.5 1047.2,408.4 1081,408.4 1090,399.5 
		1090,367 1020.7,367 	"/>
	<polygon class="st0" points="1384.9,363.9 1570.1,178.8 1643.6,178.8 1682.8,139.6 1657.5,114.3 1377.1,114.3 1337.1,154.3 
		1198.4,154.3 1118.9,233.9 1248.9,363.9 	"/>
	<polygon class="st0" points="4972.5,1016.9 4962.7,1007 4952.1,1017.6 4952.1,1081.3 4945,1088.3 4945,1120.7 4972.5,1093.2 	"/>
	<polygon class="st0" points="3207.7,1385.7 3217.3,1376.1 3212.9,1371.7 3191.7,1371.7 3184.3,1379.1 3190.9,1385.7 	"/>
	<polygon class="st0" points="4916.6,1295.8 4840.7,1371.6 4795.8,1371.6 4746.1,1421.4 4746.1,1443.9 4765.4,1463.2 4816.9,1411.7 
		4865.7,1411.7 4937.8,1339.7 4937.8,1266.9 5005.4,1199.2 4954.8,1199.2 4916.6,1237.5 	"/>
	<polygon class="st0" points="4945,1157.1 4960.3,1157.1 4960.3,1147.3 4945,1132 	"/>
	<polygon class="st0" points="1319.5,786.5 1334,786.5 1351.8,768.7 1328.5,768.7 1319.5,777.8 	"/>
	<polygon class="st0" points="4563.9,2061.3 4594.1,2091.5 4611.7,2073.8 4611.7,2012.9 4628.5,1990 4648.9,1990 4664.8,1974.2 
		4608.8,1974.2 4563.9,2019.1 	"/>
	<polygon class="st0" points="4620.6,1737.3 4620.6,1678.9 4589.3,1678.9 4589.3,1761.5 4628.3,1800.5 4628.3,1869.2 4665.4,1906.4 
		4686.8,1885 4686.8,1803.5 4673.4,1790.1 	"/>
	<polygon class="st0" points="1390.8,782.6 1385.2,782.6 1376.1,791.6 1376.1,800.3 1390.8,800.3 	"/>
	<polygon class="st0" points="771,528.5 810.5,567.9 1026,567.9 971.5,513.4 971.5,477.4 827.2,477.4 792.7,442.9 702.6,442.9 
		655.2,490.2 693.4,528.5 	"/>
	<polygon class="st0" points="1058.7,440.9 1018.7,480.9 1072.7,534.8 1104.4,503.1 1104.4,459 1086.3,440.9 	"/>
	<path class="st0" d="M5682.5,648.4h-52.7l-62.6-62.6h-308l-64.4-64.4h-444.5l-72.2-72.2h-802.3l-139.2,139.2h-152.2l-40.6,40.6
		h-110.4l-114,114H3254l-54.8-54.8v-35.7h36.8l30.4,30.4h36.2l25.4-25.4l-87.5-87.5h-248.9l-228.5,228.5v57.7L2804,897l41.7-41.7
		l32.3,32.3v64h28.9l44.6-44.6V803.3l117-117v47l-51.9,51.9v150.6l-42.3,42.3l-102.4,0.5l-40.5-40.5l-155.6,155.6h-55.2l-19.8,19.8
		l51.9,51.9v52.7h-126.1v95.2l50.9,50.9v31.1l-169.7,169.7v218.5l130.7,130.7h284.4v110l60.5,60.5v241.3l41,41V2537l68.6,68.6
		l23.5-23.5h77.1l120.6-120.6v-117.8l88.1-88.1v-204.1l160.4-160.4v-29.7l26.8-26.8v-35.3H3438l-13.6,13.6h-60.6v-33.2l-101.1-101.1
		v-73.1l-46.4-46.4v-47.2l85.3,85.3v50.5l64.1,64.1v65.3h56.5l40.8-40.8h62.9l112.4-112.4l-73.9-73.9l-37,37l-80.9-80.9v-54.9
		l78.8,78.8h56.3l29.4,29.4h123.7l104.7,104.7v69.7l42,42v44.6l38.4,38.4l40.6-40.6v-68.2l122.9-122.9h39.3l56.8,56.8v28l55.6,55.6
		v92.6l30,30v24.8l51.1,51.1v-61.5l-57-57v-55.2l21.3-21.3l75.9,75.9l55.1-55.1v-55.2l-48.5-48.5v-27.3l16.1-16.1h89l29.6-29.6h27.2
		l62.3-62.3v-42.1l16.9-16.9v-72.2l-31.4-31.4l49.1-49.1v-5.9h-47.2l-19.5-19.5l25.1-25.1h63l50,50v80.6l47.3-47.3v-44.8l-31-31
		l70.9-70.9h27.6l108.2-108.2v-70.5l15-15v-27.2l-22.2-22.2H4860l-18-18l107.9-107.9h188.7l53.7-53.7h106.3L5172.3,931v132.3
		l96.7-96.7v-83l53.2-53.2h119.5l91.2-91.2v-29.4l31.6-31.6h27.2l43.3,43.3h51.3l34.8-34.8L5682.5,648.4z M3241.1,1416.4l-26.1,26.1
		h-315.2l-76.9-76.9l-199.4-0.2l161.4-161.4h49.3l95.2,95.2v12.7l-7.3,7.3h-48.7l36.8,36.8l12.4-12.4v-15.9l24.4-24.4v-19.9h24.2
		l-92-92v-20.3h15.7l64.6,64.6h10.9l13.1,13.1v35.8l57.8,57.8l20.7-20.7v-14.5l-22.8-22.8l20.2-20.2l91.2,91.2h90.7V1416.4z
		 M3344.5,1258.1h-84.2l-19.3-19.3h-58.8l-33.6,33.6l-37.1-37.1v-30.2l39.8-39.8h123.8l69.4,69.4V1258.1z M3550.7,1318.6l-45.2,45.2
		l-47.6-47.6v-62.4l-41.3-41.3v-47.2h103.6l-40.8,40.8l71.2,71.2V1318.6z"/>
	<polygon class="st0" points="2618.6,989.2 2595,1012.7 2595,1065.4 2673.5,1065.4 2700.1,1038.7 2700.1,1005.8 2646.5,952.2 
		2646.5,888 2575.1,888 2575.1,925.3 2618.6,968.8 	"/>
	<polygon class="st0" points="4240.6,271.3 4267.8,298.5 4318.1,298.5 4344.9,271.8 4329.1,256 4270.8,256 4227.1,212.3 
		4153.6,212.3 4153.6,244.1 4180.8,271.3 	"/>
	<polygon class="st0" points="4990.2,2240 4939.1,2188.9 4926,2202 4926,2263.6 4897.2,2292.5 4847.8,2243.1 4847.8,2196.3 
		4738.1,2196.3 4602.1,2332.3 4544.3,2332.3 4484.7,2391.8 4484.7,2591.7 4634.2,2591.7 4676.1,2549.7 4805.7,2549.7 4911.7,2655.7 
		4930.5,2674.5 5023,2674.5 5118.7,2578.7 5118.7,2430.2 4990.2,2301.7 	"/>
	<polygon class="st0" points="1961.9,2042.1 1810.4,1890.5 1746,1890.5 1662.2,1806.6 1462.4,1806.6 1434,1835 1348,1835 
		1322.1,1809.1 1322.1,1723.6 1252.2,1723.6 1252.2,1690.5 1268.8,1673.9 1268.8,1624.4 1235.5,1624.4 1187.1,1672.8 1141.4,1672.8 
		1097.1,1628.4 1097.1,1526.6 1147.6,1476 1322.1,1476 1335.6,1489.5 1335.6,1532 1368.3,1564.8 1378.4,1554.7 1378.4,1513.8 
		1362.5,1497.9 1362.5,1441.7 1451.8,1352.4 1451.8,1324.4 1601.9,1174.3 1601.9,1212.3 1643.2,1212.3 1699.6,1155.9 1699.6,1130.2 
		1664,1165.8 1647.2,1165.8 1630.5,1149.1 1630.5,1106.9 1561.1,1106.9 1597.5,1070.6 1741.8,1070.6 1716.5,1095.9 1716.5,1130 
		1826.4,1130 1771.4,1075 1773.6,1002.8 1618.2,847.4 1588.7,876.9 1488.5,776.7 1417.8,776.7 1417.8,949.4 1387.8,979.4 
		1387.8,1031.2 1297.9,941.3 1235.3,941.3 1153.1,859.1 1153.1,818.3 1294.3,677.1 1323.4,677.1 1353.2,647.3 1353.2,564.3 
		1415.7,564.3 1502.5,651.1 1455.6,698.1 1422.6,698.1 1404.4,716.3 1420.6,732.5 1502.5,732.5 1564,794.1 1617.6,794.1 
		1617.6,728.6 1585.8,696.8 1585.8,668.9 1595.6,668.9 1629.2,702.5 1663.4,702.5 1663.4,661.8 1549.6,547.9 1513.2,547.9 
		1482.9,517.7 1422.8,457.5 1250.4,457.5 1223.2,484.7 1223.2,517.1 1293.4,587.3 1293.4,606.1 1264.3,635.2 1168.6,539.5 
		1168.6,497.5 1210.3,455.8 1210.3,441.6 1133.8,441.6 1125.2,450.2 1125.2,561.3 1092.6,594 302.8,594 251.3,542.6 64.4,542.6 
		-9.8,616.7 -9.8,733 75.6,733 45.5,763 15,763 -9.8,787.7 -9.8,806.5 100,916.2 38.8,977.4 101.9,977.4 227.4,852 406.2,852 
		665.4,1111.2 665.4,1317.6 793.1,1445.2 793.1,1500.2 897.1,1604.2 905,1604.2 905,1578.7 825.4,1499 825.4,1456.7 967.7,1599 
		967.7,1635.8 1057.1,1725.2 1181.3,1725.2 1324.3,1868.2 1362.9,1868.2 1386.4,1847.6 1409.4,1847.6 1416.2,1854.3 1416.2,2040.9 
		1397.9,2059.3 1357,2059.3 1357,2093.1 1405.3,2141.5 1405.3,2177.7 1510.1,2282.5 1510.1,2606.9 1476.2,2640.9 1476.2,2984.1 
		1520.4,3028.4 1603.8,3028.4 1619.1,3013.1 1614.7,3008.6 1594.7,3008.6 1567.6,2981.4 1567.6,2893.4 1608.4,2852.6 1608.4,2772.7 
		1891,2490.1 1891,2445.8 2045.2,2291.6 2045.2,2210.6 2111.7,2144.1 2111.7,2112.2 2041.6,2042.1 	"/>
</g>
</svg>
