<?xml version="1.0" encoding="utf-8"?>
<!-- Generator: Adobe Illustrator 28.0.0, SVG Export Plug-In . SVG Version: 6.00 Build 0)  -->
<svg version="1.1" id="Layer_1" xmlns="http://www.w3.org/2000/svg" xmlns:xlink="http://www.w3.org/1999/xlink" x="0px" y="0px"
	 viewBox="0 0 1000 800" style="enable-background:new 0 0 1000 800;" xml:space="preserve">
<style type="text/css">
	.st0{fill:#FFFFFF;}
</style>
<g>
	<g>
		<g>
			<g>
				<path class="st0" d="M798.4,523.8c25.7-15.2,49.7-33.9,71-55.2c19.1-34.4,32.5-71.8,37.9-110.7c3.5-24.7,3.6-48.7,0.8-71.6
					c-0.1,12.5-1,25.3-2.8,38.2C894.5,400.4,854.5,470.8,798.4,523.8z"/>
				<path class="st0" d="M797,30.7c-16.8-7.4-54.4-3.7-59.7-3.4C684.1,30.4,632.2,49,586.5,78.6c26.4-9.3,53.9-15,81.7-16.6
					c73-4.2,137.8,20.3,182.5,68.8c26.1,28.4,43.6,63,51.9,101.5c14.3,38.2,18.7,81.4,12.3,126.9c-4.3,30.8-13.6,60.8-26.6,89.1
					c40.7-47.5,69.2-105.4,77.9-166.9c4.4-31.5,3.5-61.9-2.6-90C929,120,870,62.3,797,30.7z"/>
				<path class="st0" d="M594.3,650.1c103.3-6,201.7-69.3,260.4-157.4c-25.1,21.7-52.9,39.8-82.5,53.7
					c-52.7,41.2-116,67.7-181.2,71.6c-5.4,0.3-10.8,0.5-16,0.5c-66.3,0-125-24.3-166.5-69.3c-14.2-15.5-25.9-32.8-35-51.6l0,0
					c8.2,27.1,72.9,127.7,152.1,147.4C547.1,650.3,570.3,651.4,594.3,650.1z"/>
				<path class="st0" d="M689.9,98.6c-5.2,0-10.6,0.2-15.9,0.5c-68.7,4-135.2,33.4-189.4,78.5c-28.1,40.9-47.5,87.5-54.4,136.3
					c-10.4,73,8.3,139.6,52.5,187.7c43.1,46.9,105.8,70.4,176.4,66.4c37.7-2.2,74.6-12.1,109.1-28.2
					c67.7-53.2,117.3-131.3,129.4-216.2c4.4-31.2,3.5-61.3-2.4-89.3c-9.5-25-23.3-47.9-41.4-67.5C813.1,122.5,755.3,98.6,689.9,98.6
					z M661.7,508c-93.7,0-170-76.3-170-170s76.3-170,170-170s170,76.3,170,170S755.4,508,661.7,508z"/>
				<path class="st0" d="M351.4,408.2c-0.9-17.2-0.1-35,2.5-53.2C370,241.2,452.2,139.4,555.7,91.1c52.7-41.2,116-67.7,181.2-71.6
					c10.7-0.6,21.2-0.5,31.5,0.1C734.9,8.4,699,2.3,661.7,2.3C476.3,2.3,326,152.5,326,338c0,47.6,9.9,92.8,27.7,133.7
					C350.4,451.3,349.7,430.1,351.4,408.2z"/>
				<path class="st0" d="M975.6,218.9c1.8,20.4,1.3,41.6-1.7,63.4c-10.2,71.9-46.8,139-98.4,190.9
					c-57.4,102.3-166.1,177.9-280.8,184.5c-5.5,0.3-11,0.5-16.3,0.5c-6.9,0-13.5-0.3-20.2-0.8c32.6,10.6,67.3,16.2,103.5,16.2
					c185.4,0,335.7-150.3,335.7-335.7C997.4,296,989.6,255.9,975.6,218.9z"/>
				<path class="st0" d="M590.4,610.2c53.3-3.1,105.2-21.8,150.9-51.3c-26.4,9.3-53.9,15-81.7,16.6c-5.4,0.3-10.8,0.5-16,0.5
					c-66.3,0-125-24.3-166.4-69.3c-45.9-49.8-65.2-118.7-54.5-194c5.8-40.9,20.3-80.3,41.1-116.3c-53.8,52.3-92.2,120.9-102.6,194.7
					c-0.8,5.7-1.4,11.5-1.8,17.2c2.7,52.2,21.6,99.1,54.9,135.4C457.2,590.6,519.9,614.2,590.4,610.2z"/>
				<path class="st0" d="M684.3,69c-5.1,0-10.4,0.1-15.6,0.5c-37.6,2.2-74.6,12.1-109.1,28.2c-21.3,16.7-40.8,36-57.9,57
					c51-36.5,110.6-59.9,171.9-63.4c74.3-4.3,140.3,20.6,185.8,70.1c7.4,8,13.9,16.4,20,25.4c-8.8-18.6-20.3-35.7-34.3-51
					C805.1,92.5,748.5,69,684.3,69z"/>
				<path class="st0" d="M363.5,344.3c20-66.6,61.7-126.9,115.4-171.9c14.7-21.3,31.7-41,50.6-58.9
					C445.8,163.1,381,248.8,363.5,344.3z"/>
			</g>
		</g>
		<g>
			<path class="st0" d="M270.4,52.5C126.8,52.5,2.5,158.1,2.5,366.9c0,167.7,89.3,256.2,205.8,256.2c103.3,0,194.1-71.5,194.1-183.2
				c0-114.9-79.2-186.3-184.8-186.3c-77.6,0-140.5,38.8-169.2,105.6c3.1-137.5,73.8-262.4,219.7-262.4c38.5,0,68.8,8.3,90.9,19.2
				c8.1-12.2,16.8-24,26.4-35.1C359,64.8,318.9,52.5,270.4,52.5z M210.6,296.2c78.4,0,142.9,54.3,142.9,142.9
				c0,85.4-65.2,142.1-144.4,142.1c-76.1,0-144.4-56.6-144.4-142.1C64.7,357.6,131.4,296.2,210.6,296.2z"/>
		</g>
	</g>
	<g>
		<path class="st0" d="M74.5,797.7c-3.1,0-6-0.5-8.7-1.6c-2.7-1.1-5-2.5-7.1-4.5c-2-1.9-3.5-4.2-4.7-7.1c-1.2-2.7-1.7-5.7-1.7-9.2
			c0-3.4,0.6-6.3,1.8-9.2c1.2-2.7,2.8-5.1,4.8-7.1s4.3-3.4,7.1-4.5c2.7-1.1,5.5-1.6,8.5-1.6c3.2,0,6,0.5,8.4,1.4
			c2.3,0.9,4.3,2.1,5.9,3.5s2.8,3,3.7,4.6c0.9,1.7,1.5,3.3,1.9,4.8l-9,2.8c-0.2-0.7-0.5-1.5-0.9-2.5c-0.5-0.9-1.1-1.8-2-2.6
			c-0.8-0.8-1.9-1.5-3.2-2c-1.3-0.5-2.9-0.8-4.8-0.8c-1.4,0-2.9,0.3-4.3,0.8s-2.7,1.3-3.9,2.4c-1.2,1.1-2.1,2.4-2.8,4
			s-1.1,3.6-1.1,5.8c0,2,0.3,3.8,1,5.3c0.7,1.6,1.6,2.9,2.7,4s2.4,1.9,3.9,2.5s3,0.8,4.6,0.8c1.8,0,3.4-0.3,4.7-0.8
			c1.3-0.5,2.4-1.2,3.3-2s1.6-1.7,2.1-2.6c0.5-0.9,0.8-1.8,1-2.5l9.2,2.6c-0.4,1.5-1,3.1-1.9,4.8s-2.2,3.3-3.8,4.8
			c-1.6,1.5-3.6,2.7-6,3.7C80.6,797.2,77.8,797.7,74.5,797.7z"/>
		<path class="st0" d="M104,796.8V754h27.1v9h-17.6v8.2h15.9v8.4h-15.9v8.3h17.6v9.1H104V796.8z"/>
		<path class="st0" d="M142.1,796.8V754h9.6v33.8h18.5v9.2h-28.1V796.8z"/>
		<path class="st0" d="M179,796.8V754h27.1v9h-17.5v8.2h15.9v8.4h-15.9v8.3h17.6v9.1H179V796.8z"/>
		<path class="st0" d="M233.2,753.9c2.1,0,3.9,0.3,5.6,0.9c1.7,0.6,3,1.4,4.2,2.4c1.1,1,2,2.2,2.6,3.6c0.6,1.4,0.9,2.9,0.9,4.5
			c0,2.2-0.6,4.1-1.8,5.8s-2.7,2.8-4.4,3.3c1,0.2,1.9,0.6,2.8,1.2c0.9,0.6,1.7,1.2,2.4,2.1c0.7,0.8,1.3,1.8,1.7,3
			c0.4,1.1,0.6,2.4,0.6,3.7c0,1.8-0.3,3.4-1,4.8c-0.6,1.5-1.5,2.7-2.7,3.8s-2.6,1.9-4.2,2.5c-1.6,0.6-3.5,0.9-5.5,0.9h-17.3v-42.8
			h16.1V753.9z M231.7,771.1c1.7,0,3-0.4,4-1.2s1.5-1.9,1.5-3.4c0-1.4-0.5-2.5-1.4-3.3s-2.3-1.2-4.2-1.2h-5v9.3h5.1L231.7,771.1
			L231.7,771.1z M232.4,789c1.8,0,3.3-0.4,4.3-1.3c1-0.9,1.6-2.1,1.6-3.6s-0.5-2.7-1.5-3.6c-1-0.9-2.5-1.4-4.3-1.4h-5.9v10.1h5.8
			L232.4,789L232.4,789z"/>
		<path class="st0" d="M271.1,780.8h-3.4v15.9h-9.6v-42.8h17c2.1,0,4,0.3,5.7,1s3.1,1.6,4.3,2.8s2.1,2.6,2.8,4.2
			c0.7,1.6,1,3.4,1,5.2c0,2.9-0.7,5.4-2.2,7.6c-1.5,2.1-3.5,3.6-6.2,4.5l8.7,17.3h-10.5L271.1,780.8z M273.3,772.6
			c2,0,3.4-0.5,4.5-1.4c1-1,1.5-2.2,1.5-3.7c0-1.6-0.5-2.9-1.5-3.8c-1-0.9-2.5-1.4-4.5-1.4h-5.6v10.4L273.3,772.6L273.3,772.6z"/>
		<path class="st0" d="M324.3,788.1h-16.5l-3.1,8.7h-10.1l16.1-42.8h11.1l15.9,42.8h-10.4L324.3,788.1z M310.9,779.4h10.4l-5.1-14.8
			L310.9,779.4z"/>
		<path class="st0" d="M361,763.1v33.8h-9.6v-33.8h-13.2v-9.2h36v9.2H361z"/>
		<path class="st0" d="M383,796.8V754h9.7v42.8H383z"/>
		<path class="st0" d="M432.5,796.8l-17.6-28.2v28.2h-9.5V754H417l16.1,26.1V754h9.6v42.8H432.5z"/>
		<path class="st0" d="M487.2,796.8l-0.6-4.3c-0.9,1.4-2.4,2.6-4.4,3.6c-2,1.1-4.5,1.6-7.7,1.6c-3,0-5.7-0.5-8.5-1.6
			c-2.6-1-4.9-2.5-6.9-4.5c-1.9-1.9-3.5-4.3-4.6-7.1s-1.7-5.8-1.7-9.2s0.6-6.4,1.8-9.2c1.2-2.7,2.8-5,4.8-7.1c2-1.9,4.4-3.4,7.1-4.5
			s5.5-1.6,8.6-1.6c3,0,5.7,0.4,8,1.2s4.2,1.9,5.8,3.1c1.6,1.3,2.8,2.7,3.8,4.2c1,1.6,1.7,3.1,2.2,4.6l-9.2,3.2
			c-0.2-0.6-0.5-1.4-0.9-2.2c-0.5-0.9-1.1-1.7-2-2.5c-0.8-0.8-1.9-1.4-3.1-2c-1.3-0.5-2.8-0.8-4.5-0.8c-1.4,0-2.9,0.3-4.4,0.8
			s-2.8,1.3-4,2.4s-2.2,2.5-3,4.1c-0.8,1.7-1.1,3.7-1.1,6.1c0,2.2,0.3,4.2,1,5.9s1.6,3.1,2.8,4.2c1.2,1.1,2.5,2,4.1,2.5
			c1.5,0.6,3.2,0.9,4.9,0.9c1.8,0,3.3-0.3,4.5-0.8c1.3-0.5,2.3-1.1,3.2-1.8c0.8-0.7,1.5-1.5,1.9-2.3c0.5-0.8,0.8-1.5,0.9-2.1h-12.9
			v-8.1h21.8v22.9h-7.8v0.4H487.2z"/>
		<path class="st0" d="M552.7,766.9c-0.1-0.5-0.3-1-0.5-1.6c-0.3-0.6-0.7-1.2-1.2-1.7s-1.3-1-2.1-1.4c-0.9-0.4-2-0.6-3.2-0.6
			c-1.8,0-3.2,0.5-4.2,1.4c-1.1,0.9-1.6,2-1.6,3.1c0,1,0.3,1.9,1,2.6c0.7,0.7,1.7,1.2,3.2,1.5l5.7,1.1c2,0.4,3.8,0.9,5.3,1.8
			c1.5,0.9,2.8,1.8,3.8,2.9c1,1.1,1.8,2.4,2.3,3.7c0.5,1.4,0.8,2.8,0.8,4.3c0,1.7-0.3,3.3-1,4.9c-0.7,1.6-1.7,3-3,4.3
			s-3,2.3-4.9,3.1c-2,0.8-4.2,1.2-6.8,1.2c-3,0-5.5-0.4-7.7-1.3c-2.1-0.9-3.9-2-5.3-3.3c-1.4-1.3-2.5-2.8-3.2-4.4
			c-0.7-1.6-1.2-3.2-1.3-4.7l8.8-2.1c0.1,1,0.3,1.9,0.7,2.8c0.4,0.9,0.9,1.7,1.6,2.3c0.7,0.7,1.6,1.2,2.7,1.6
			c1.1,0.4,2.3,0.6,3.8,0.6c1.9,0,3.3-0.4,4.4-1.2c1.1-0.8,1.6-1.9,1.6-3.2c0-1.1-0.4-2-1.2-2.7s-1.9-1.2-3.3-1.5l-5.8-1.1
			c-3.6-0.7-6.6-2.1-8.6-4.4c-2-2.2-3.1-4.9-3.1-8.2c0-2,0.4-3.8,1.2-5.5s1.9-3.1,3.3-4.3c1.4-1.2,3-2.1,4.9-2.8
			c1.8-0.7,3.8-1,5.8-1c2.6,0,4.9,0.4,6.9,1.1c1.9,0.7,3.4,1.6,4.6,2.7c1.2,1.1,2.2,2.3,2.8,3.7c0.6,1.3,1.1,2.6,1.3,3.9
			L552.7,766.9z"/>
		<path class="st0" d="M572.2,796.8V754h9.7v42.8H572.2z"/>
		<path class="st0" d="M615.9,775.5l13.9,21.4h-11.6l-8.5-13.9l-8.4,13.9H590l13.8-21.5L590.1,754h11.5l8.5,13.9l8.5-13.9h11.2
			L615.9,775.5z"/>
		<path class="st0" d="M657,763.1v33.8h-9.6v-33.8h-13.2v-9.2h36v9.2H657z"/>
		<path class="st0" d="M674.8,753.9H686l8.8,15.9l8.9-15.9h10.7l-15.1,25v17.9h-9.6v-17.9L674.8,753.9z"/>
		<path class="st0" d="M739.8,753.9H751l8.8,15.9l8.9-15.9h10.7l-15.1,25v17.9h-9.6v-17.9L739.8,753.9z"/>
		<path class="st0" d="M787.6,796.8V754h27.1v9H797v8.2h16v8.4h-16v8.3h17.6v9.1h-27V796.8z"/>
		<path class="st0" d="M851.1,788.1h-16.5l-3.1,8.7h-10.1l16.1-42.8h11.1l15.9,42.8h-10.4L851.1,788.1z M837.6,779.4H848l-5.1-14.8
			L837.6,779.4z"/>
		<path class="st0" d="M885.7,780.8h-3.4v15.9h-9.5v-42.8h17c2.1,0,4,0.3,5.7,1s3.1,1.6,4.3,2.8s2.1,2.6,2.8,4.2
			c0.7,1.6,1,3.4,1,5.2c0,2.9-0.7,5.4-2.2,7.6c-1.5,2.1-3.5,3.6-6.2,4.5l8.7,17.3h-10.5L885.7,780.8z M888.1,772.6
			c2,0,3.4-0.5,4.5-1.4c1-1,1.5-2.2,1.5-3.7c0-1.6-0.5-2.9-1.5-3.8c-1-0.9-2.5-1.4-4.5-1.4h-5.6v10.4L888.1,772.6L888.1,772.6z"/>
		<path class="st0" d="M935.3,766.9c-0.1-0.5-0.3-1-0.5-1.6s-0.7-1.2-1.2-1.7s-1.3-1-2.1-1.4c-0.9-0.4-2-0.6-3.2-0.6
			c-1.8,0-3.2,0.5-4.2,1.4c-1.1,0.9-1.6,2-1.6,3.1c0,1,0.3,1.9,1,2.6c0.7,0.7,1.7,1.2,3.2,1.5l5.7,1.1c2,0.4,3.8,0.9,5.3,1.8
			c1.5,0.9,2.8,1.8,3.8,2.9c1,1.1,1.8,2.4,2.3,3.7c0.5,1.4,0.8,2.8,0.8,4.3c0,1.7-0.3,3.3-1,4.9c-0.7,1.6-1.7,3-3,4.3
			s-3,2.3-4.9,3.1c-2,0.8-4.2,1.2-6.8,1.2c-3,0-5.5-0.4-7.7-1.3c-2.1-0.9-3.9-2-5.3-3.3c-1.4-1.3-2.5-2.8-3.2-4.4
			c-0.7-1.6-1.2-3.2-1.3-4.7l8.8-2.1c0.1,1,0.3,1.9,0.7,2.8c0.4,0.9,0.9,1.7,1.6,2.3c0.7,0.7,1.6,1.2,2.7,1.6
			c1.1,0.4,2.3,0.6,3.8,0.6c1.9,0,3.3-0.4,4.4-1.2c1.1-0.8,1.6-1.9,1.6-3.2c0-1.1-0.4-2-1.2-2.7s-1.9-1.2-3.3-1.5l-5.8-1.1
			c-3.6-0.7-6.6-2.1-8.6-4.4c-2-2.2-3.1-4.9-3.1-8.2c0-2,0.4-3.8,1.2-5.5s1.9-3.1,3.3-4.3c1.4-1.2,3-2.1,4.9-2.8
			c1.8-0.7,3.8-1,5.8-1c2.6,0,4.9,0.4,6.9,1.1c1.9,0.7,3.4,1.6,4.6,2.7c1.2,1.1,2.2,2.3,2.8,3.7c0.6,1.3,1.1,2.6,1.3,3.9
			L935.3,766.9z"/>
	</g>
</g>
</svg>
