<svg width="438" height="316" viewBox="0 0 438 316" fill="none" xmlns="http://www.w3.org/2000/svg">
<path d="M0 315.625V297.923H11.2172V301.641H3.94964V305.013H10.5439V308.481H3.94964V311.88H11.245V315.625H0Z" fill="white"/>
<path d="M19.5195 315.625V297.923H30.9381V301.669H23.4692V305.415H30.0426V309.008H23.4969V315.625H19.5265H19.5195Z" fill="white"/>
<path d="M57.3017 316C56.0175 316 54.8167 315.778 53.7061 315.341C52.5955 314.904 51.6167 314.28 50.7976 313.482C49.9716 312.684 49.3191 311.72 48.8332 310.583C48.3473 309.452 48.1113 308.196 48.1113 306.809C48.1113 305.422 48.3543 304.166 48.8471 303.029C49.34 301.891 49.9994 300.913 50.8323 300.108C51.6653 299.304 52.6371 298.673 53.7408 298.222C54.8514 297.771 56.0175 297.549 57.2531 297.549C58.5858 297.549 59.7381 297.743 60.703 298.125C61.6678 298.506 62.4869 298.992 63.1533 299.588C63.8196 300.178 64.3402 300.823 64.7151 301.523C65.0899 302.224 65.3537 302.89 65.4994 303.521L61.7789 304.693C61.7095 304.395 61.5845 304.055 61.3902 303.667C61.1958 303.285 60.9251 302.925 60.578 302.578C60.2309 302.238 59.7798 301.954 59.2383 301.732C58.6969 301.51 58.0375 301.392 57.2531 301.392C56.6561 301.392 56.0522 301.503 55.4553 301.718C54.8583 301.933 54.3169 302.266 53.831 302.703C53.3451 303.147 52.9564 303.708 52.6579 304.388C52.3594 305.068 52.2067 305.88 52.2067 306.809C52.2067 307.641 52.3456 308.384 52.6302 309.029C52.9148 309.681 53.2896 310.229 53.7685 310.68C54.2406 311.131 54.782 311.47 55.3928 311.706C56.0037 311.942 56.6353 312.053 57.3017 312.053C58.0652 312.053 58.7247 311.942 59.273 311.713C59.8214 311.484 60.2795 311.207 60.6474 310.867C61.0153 310.527 61.2999 310.166 61.5082 309.778C61.7164 309.396 61.8622 309.043 61.9455 308.731L65.7216 309.806C65.5689 310.423 65.312 311.089 64.9372 311.803C64.5624 312.518 64.0348 313.191 63.3615 313.815C62.6882 314.439 61.8483 314.96 60.8487 315.376C59.8492 315.792 58.6691 316 57.3017 316Z" fill="white"/>
<path d="M73.2452 315.625V297.923H84.4625V301.641H77.1879V305.013H83.7822V308.481H77.1879V311.88H84.4833V315.625H73.2383H73.2452Z" fill="white"/>
<path d="M92.7578 315.625V297.923H96.7074V311.859H104.357V315.632H92.7648L92.7578 315.625Z" fill="white"/>
<path d="M111.749 315.625V297.923H122.966V301.641H115.692V305.013H122.286V308.481H115.692V311.88H122.987V315.625H111.742H111.749Z" fill="white"/>
<path d="M137.89 297.923C138.757 297.923 139.535 298.041 140.229 298.284C140.923 298.527 141.499 298.86 141.964 299.283C142.429 299.706 142.79 300.206 143.04 300.781C143.29 301.357 143.415 301.981 143.415 302.668C143.415 303.584 143.165 304.388 142.665 305.075C142.166 305.769 141.548 306.226 140.819 306.462C141.221 306.559 141.603 306.726 141.978 306.948C142.353 307.17 142.693 307.461 142.992 307.808C143.29 308.155 143.526 308.571 143.706 309.043C143.88 309.514 143.97 310.035 143.97 310.603C143.97 311.339 143.838 312.005 143.568 312.615C143.297 313.225 142.929 313.753 142.443 314.203C141.957 314.654 141.374 315.001 140.694 315.251C140.014 315.501 139.25 315.625 138.417 315.625H131.268V297.923H137.89ZM137.265 305.013C137.966 305.013 138.521 304.839 138.924 304.499C139.333 304.159 139.535 303.688 139.535 303.091C139.535 302.495 139.34 302.044 138.959 301.704C138.577 301.364 137.994 301.191 137.209 301.191H135.113V305.013H137.265ZM137.591 312.407C138.355 312.407 138.959 312.22 139.389 311.845C139.819 311.47 140.041 310.964 140.041 310.333C140.041 309.702 139.826 309.216 139.403 308.835C138.979 308.453 138.376 308.259 137.591 308.259H135.12V312.407H137.591Z" fill="white"/>
<path d="M157.332 309.036H155.93V315.625H151.98V297.923H159.005C159.873 297.923 160.657 298.069 161.365 298.347C162.073 298.631 162.677 299.019 163.177 299.519C163.677 300.018 164.065 300.608 164.336 301.281C164.614 301.954 164.746 302.682 164.746 303.466C164.746 304.666 164.44 305.699 163.822 306.573C163.205 307.447 162.351 308.078 161.247 308.46L164.843 315.625H160.498L157.325 309.036H157.332ZM158.255 305.637C159.075 305.637 159.692 305.436 160.116 305.04C160.539 304.638 160.754 304.125 160.754 303.493C160.754 302.828 160.539 302.3 160.116 301.919C159.692 301.537 159.068 301.343 158.255 301.343H155.93V305.637H158.255Z" fill="white"/>
<path d="M183.071 312.032H176.227L174.95 315.625H170.799L177.469 297.923H182.044L188.638 315.625H184.341L183.064 312.032H183.071ZM177.525 308.439H181.822L179.698 302.321L177.525 308.439Z" fill="white"/>
<path d="M201.959 301.69V315.625H198.01V301.69H192.561V297.916H207.429V301.69H201.959Z" fill="white"/>
<path d="M214.855 315.625V297.923H218.854V315.625H214.855Z" fill="white"/>
<path d="M239.067 315.625L231.771 303.986V315.625H227.85V297.923H232.646L239.296 308.689V297.923H243.246V315.625H239.074H239.067Z" fill="white"/>
<path d="M265.402 315.625L265.152 313.829C264.77 314.398 264.16 314.897 263.327 315.341C262.494 315.785 261.446 316 260.175 316C258.905 316 257.78 315.785 256.691 315.348C255.601 314.918 254.65 314.294 253.845 313.489C253.04 312.684 252.394 311.713 251.922 310.583C251.45 309.452 251.207 308.183 251.207 306.788C251.207 305.394 251.45 304.125 251.943 302.994C252.436 301.863 253.102 300.892 253.942 300.088C254.782 299.283 255.761 298.659 256.878 298.215C257.996 297.771 259.176 297.556 260.425 297.556C261.675 297.556 262.792 297.729 263.736 298.069C264.68 298.409 265.478 298.846 266.138 299.366C266.797 299.886 267.325 300.476 267.727 301.128C268.13 301.78 268.429 302.411 268.63 303.029L264.833 304.354C264.764 304.09 264.639 303.778 264.444 303.417C264.25 303.056 263.979 302.717 263.632 302.391C263.285 302.065 262.848 301.794 262.32 301.579C261.793 301.364 261.168 301.253 260.432 301.253C259.835 301.253 259.224 301.357 258.607 301.565C257.989 301.773 257.426 302.099 256.92 302.55C256.413 303.001 255.997 303.577 255.684 304.27C255.365 304.971 255.212 305.81 255.212 306.795C255.212 307.78 255.351 308.543 255.636 309.244C255.92 309.944 256.309 310.527 256.795 310.992C257.288 311.457 257.85 311.81 258.495 312.053C259.134 312.296 259.814 312.414 260.529 312.414C261.244 312.414 261.89 312.31 262.417 312.102C262.945 311.894 263.382 311.637 263.729 311.339C264.076 311.04 264.347 310.721 264.541 310.388C264.736 310.055 264.854 309.764 264.902 309.514H259.578V306.171H268.602V315.632H265.402V315.625Z" fill="white"/>
<path d="M298.889 301.544C298.521 301.364 298.118 301.211 297.674 301.093C297.23 300.976 296.73 300.92 296.161 300.92C294.71 300.92 293.509 301.322 292.551 302.134C291.594 302.939 290.983 304.125 290.712 305.692C291.059 305.193 291.573 304.77 292.246 304.43C292.919 304.09 293.752 303.917 294.731 303.917C295.599 303.917 296.383 304.055 297.077 304.34C297.778 304.624 298.375 305.019 298.861 305.526C299.354 306.032 299.729 306.65 300 307.371C300.263 308.092 300.402 308.897 300.402 309.778C300.402 310.659 300.229 311.533 299.888 312.289C299.548 313.045 299.076 313.697 298.486 314.252C297.896 314.807 297.195 315.23 296.39 315.535C295.578 315.84 294.703 316 293.752 316C292.801 316 291.906 315.82 291.066 315.466C290.226 315.105 289.483 314.585 288.845 313.905C288.206 313.225 287.699 312.372 287.332 311.359C286.964 310.347 286.783 309.188 286.783 307.891C286.783 306.275 287.012 304.832 287.484 303.556C287.949 302.28 288.602 301.197 289.449 300.31C290.289 299.422 291.295 298.735 292.475 298.263C293.648 297.792 294.946 297.549 296.362 297.549C297.161 297.549 297.869 297.625 298.486 297.771C299.104 297.923 299.583 298.111 299.937 298.347L298.889 301.544ZM290.99 309.91C290.99 310.34 291.066 310.728 291.212 311.068C291.365 311.408 291.566 311.699 291.823 311.942C292.079 312.185 292.371 312.365 292.697 312.49C293.024 312.615 293.357 312.677 293.711 312.677C294.065 312.677 294.433 312.615 294.773 312.49C295.113 312.365 295.411 312.185 295.675 311.956C295.932 311.72 296.14 311.436 296.286 311.096C296.439 310.756 296.508 310.361 296.508 309.91C296.508 309.459 296.432 309.063 296.286 308.71C296.14 308.356 295.932 308.072 295.675 307.836C295.418 307.607 295.12 307.426 294.773 307.302C294.433 307.177 294.079 307.114 293.711 307.114C293.343 307.114 293.017 307.177 292.683 307.302C292.35 307.426 292.059 307.607 291.809 307.836C291.559 308.072 291.358 308.363 291.212 308.71C291.059 309.057 290.99 309.459 290.99 309.91Z" fill="white"/>
<path d="M307.439 306.761C307.439 305.547 307.571 304.381 307.828 303.265C308.085 302.148 308.508 301.17 309.092 300.317C309.675 299.47 310.431 298.79 311.354 298.291C312.278 297.792 313.409 297.542 314.742 297.542C316.075 297.542 317.206 297.792 318.129 298.291C319.052 298.79 319.809 299.463 320.392 300.317C320.975 301.163 321.399 302.148 321.655 303.265C321.912 304.381 322.044 305.547 322.044 306.761C322.044 307.974 321.912 309.14 321.655 310.257C321.399 311.373 320.975 312.351 320.392 313.205C319.809 314.051 319.052 314.731 318.129 315.237C317.206 315.743 316.075 316 314.742 316C313.409 316 312.278 315.743 311.354 315.237C310.431 314.731 309.675 314.051 309.092 313.205C308.508 312.358 308.085 311.373 307.828 310.257C307.571 309.14 307.439 307.974 307.439 306.761ZM311.41 306.761C311.41 307.641 311.465 308.446 311.583 309.168C311.701 309.889 311.889 310.506 312.16 311.013C312.43 311.519 312.77 311.914 313.194 312.199C313.617 312.483 314.131 312.622 314.728 312.622C315.325 312.622 315.838 312.483 316.262 312.199C316.685 311.914 317.032 311.519 317.296 311.013C317.56 310.506 317.754 309.889 317.872 309.168C317.99 308.446 318.046 307.641 318.046 306.761C318.046 305.88 317.99 305.082 317.872 304.361C317.754 303.646 317.567 303.029 317.296 302.515C317.032 302.002 316.685 301.607 316.262 301.329C315.838 301.052 315.325 300.92 314.728 300.92C314.131 300.92 313.617 301.059 313.194 301.329C312.77 301.607 312.423 302.002 312.16 302.515C311.896 303.029 311.701 303.646 311.583 304.361C311.465 305.075 311.41 305.873 311.41 306.761Z" fill="white"/>
<path d="M338.322 297.923H342.945L346.569 304.492L350.241 297.923H354.641L348.422 308.238V315.632H344.472V308.238L338.322 297.923Z" fill="white"/>
<path d="M361.839 315.625V297.923H373.056V301.641H365.782V305.013H372.376V308.481H365.782V311.88H373.077V315.625H361.832H361.839Z" fill="white"/>
<path d="M391.798 312.032H384.954L383.676 315.625H379.525L386.196 297.923H390.77L397.365 315.625H393.068L391.791 312.032H391.798ZM386.252 308.439H390.548L388.424 302.321L386.252 308.439Z" fill="white"/>
<path d="M409.914 309.036H408.512V315.625H404.562V297.923H411.587C412.455 297.923 413.239 298.069 413.947 298.347C414.655 298.631 415.259 299.019 415.759 299.519C416.259 300.018 416.647 300.608 416.918 301.281C417.196 301.954 417.328 302.682 417.328 303.466C417.328 304.666 417.022 305.699 416.404 306.573C415.787 307.447 414.933 308.078 413.829 308.46L417.425 315.625H413.08L409.907 309.036H409.914ZM410.837 305.637C411.657 305.637 412.274 305.436 412.698 305.04C413.121 304.638 413.336 304.125 413.336 303.493C413.336 302.828 413.121 302.3 412.698 301.919C412.274 301.537 411.65 301.343 410.837 301.343H408.512V305.637H410.837Z" fill="white"/>
<path d="M434.127 303.265C434.093 303.063 434.023 302.834 433.912 302.578C433.801 302.321 433.634 302.078 433.412 301.856C433.19 301.634 432.892 301.44 432.524 301.281C432.156 301.121 431.705 301.045 431.177 301.045C430.441 301.045 429.858 301.239 429.414 301.634C428.97 302.023 428.755 302.46 428.755 302.945C428.755 303.376 428.894 303.743 429.164 304.035C429.442 304.326 429.886 304.527 430.504 304.645L432.878 305.096C433.725 305.248 434.467 305.491 435.099 305.831C435.731 306.171 436.265 306.573 436.696 307.045C437.126 307.51 437.452 308.03 437.667 308.606C437.883 309.181 437.994 309.785 437.994 310.416C437.994 311.117 437.848 311.796 437.57 312.462C437.286 313.128 436.869 313.725 436.307 314.245C435.745 314.765 435.064 315.195 434.245 315.521C433.426 315.847 432.496 316.007 431.448 316.007C430.212 316.007 429.157 315.827 428.276 315.473C427.394 315.112 426.658 314.661 426.075 314.113C425.492 313.565 425.048 312.955 424.75 312.289C424.451 311.623 424.264 310.971 424.201 310.34L427.825 309.466C427.859 309.868 427.956 310.25 428.109 310.624C428.269 310.999 428.498 311.325 428.796 311.595C429.095 311.873 429.47 312.088 429.921 312.254C430.372 312.421 430.893 312.504 431.497 312.504C432.281 312.504 432.892 312.331 433.336 311.991C433.78 311.651 433.995 311.207 433.995 310.652C433.995 310.201 433.822 309.826 433.482 309.514C433.142 309.209 432.677 308.994 432.093 308.876L429.671 308.425C428.158 308.141 426.971 307.537 426.124 306.601C425.277 305.672 424.847 304.548 424.847 303.23C424.847 302.397 425.02 301.634 425.36 300.934C425.7 300.233 426.166 299.637 426.749 299.137C427.332 298.638 428.005 298.249 428.776 297.965C429.539 297.681 430.351 297.542 431.198 297.542C432.295 297.542 433.239 297.695 434.023 297.993C434.808 298.291 435.453 298.673 435.96 299.13C436.467 299.588 436.855 300.095 437.119 300.656C437.383 301.211 437.57 301.752 437.667 302.266L434.12 303.265H434.127Z" fill="white"/>
<path d="M349.797 201.86C359.758 195.957 369.038 188.75 377.299 180.495C384.719 167.191 389.849 152.707 391.986 137.683C393.347 128.111 393.409 118.829 392.285 109.985C392.257 114.827 391.91 119.766 391.202 124.781C387.037 154.095 371.53 181.376 349.804 201.86H349.797Z" fill="white"/>
<path d="M349.277 11.0082C343.772 10.0094 338.066 9.48914 332.194 9.48914C330.195 9.48914 328.182 9.54463 326.148 9.66255C305.518 10.8556 285.416 18.0765 267.736 29.501C277.982 25.9148 288.616 23.6813 299.396 23.057C327.64 21.4061 352.747 30.8883 370.08 49.714C380.2 60.7084 386.975 74.1097 390.175 88.9955C395.728 103.784 397.436 120.494 394.937 138.106C393.243 150.03 389.682 161.621 384.636 172.574C400.42 154.185 411.443 131.78 414.817 107.995C416.552 95.8002 416.17 84.0636 413.817 73.1594C400.379 45.559 377.452 23.4385 349.27 11.0082H349.277Z" fill="white"/>
<path d="M270.756 250.727C310.773 248.411 348.868 223.925 371.614 189.804C361.903 198.176 351.11 205.217 339.642 210.579C319.242 226.526 294.732 236.806 269.444 238.269C267.355 238.387 265.273 238.45 263.218 238.45C237.514 238.45 214.809 229.044 198.754 211.612C189.931 202.033 183.649 190.622 180.061 177.998C180.72 183.304 181.831 188.437 183.358 193.383C197.046 217.779 218.384 237.312 244.122 248.73C252.542 250.554 261.469 251.255 270.749 250.72L270.756 250.727Z" fill="white"/>
<path d="M307.781 37.2976C305.747 37.2976 303.693 37.3601 301.617 37.478C274.99 39.0179 249.231 50.3938 228.261 67.8669C217.377 83.696 209.859 101.717 207.173 120.605C203.161 148.837 210.394 174.634 227.525 193.231C244.24 211.383 268.5 220.505 295.842 218.93C310.419 218.084 324.739 214.234 338.122 208.019C364.353 187.404 383.574 157.188 388.239 124.351C389.953 112.261 389.592 100.628 387.295 89.8071C383.63 80.1237 378.264 71.2935 371.239 63.6633C355.468 46.5371 333.11 37.2976 307.774 37.2976H307.781ZM296.835 195.742C260.525 195.742 230.982 166.22 230.982 129.935C230.982 93.6499 260.525 64.1281 296.835 64.1281C333.145 64.1281 362.687 93.6499 362.687 129.935C362.687 166.22 333.145 195.742 296.835 195.742Z" fill="white"/>
<path d="M176.679 157.133C176.346 150.46 176.645 143.586 177.644 136.559C183.891 92.5401 215.717 53.1129 255.783 34.3912C276.184 18.4442 300.694 8.16426 325.981 6.70066C330.125 6.45788 334.186 6.48563 338.177 6.72147C325.19 2.37227 311.293 0.013855 296.834 0.013855C225.026 0.013855 166.809 58.1904 166.809 129.949C166.809 148.351 170.647 165.859 177.554 181.723C176.29 173.857 175.999 165.623 176.679 157.14V157.133Z" fill="white"/>
<path d="M418.447 83.8694C419.162 91.7701 418.974 99.9829 417.774 108.411C413.824 136.219 399.671 162.197 379.679 182.285C357.439 221.865 315.34 251.13 270.915 253.703C268.784 253.828 266.667 253.89 264.578 253.89C261.933 253.89 259.337 253.766 256.762 253.571C269.388 257.657 282.847 259.87 296.834 259.87C368.643 259.87 426.86 201.693 426.86 129.935C426.86 113.71 423.875 98.1864 418.44 83.8694H418.447Z" fill="white"/>
<path d="M269.27 235.301C289.9 234.107 310.002 226.887 327.682 215.469C317.436 219.055 306.802 221.289 296.022 221.913C293.933 222.031 291.85 222.093 289.796 222.093C264.092 222.093 241.387 212.687 225.331 195.256C207.582 175.979 200.086 149.322 204.223 120.189C206.472 104.339 212.066 89.0926 220.139 75.178C199.287 95.4187 184.433 121.999 180.386 150.529C180.067 152.77 179.845 154.99 179.664 157.195C180.733 177.401 188.008 195.554 200.946 209.601C217.661 227.754 241.928 236.882 269.263 235.301H269.27Z" fill="white"/>
<path d="M305.622 25.8593C303.623 25.8593 301.61 25.9148 299.577 26.0327C285 26.879 270.687 30.7288 257.297 36.9369C249.043 43.4226 241.498 50.8585 234.869 59.0297C254.617 44.9001 277.697 35.8756 301.451 34.4953C330.209 32.8236 355.788 42.4723 373.44 61.6379C376.279 64.7246 378.833 68.0125 381.151 71.4461C377.75 64.246 373.322 57.6216 367.886 51.7187C352.414 34.9115 330.473 25.8454 305.616 25.8454L305.622 25.8593Z" fill="white"/>
<path d="M181.364 132.404C189.111 106.635 205.243 83.3145 226.046 65.8761C231.745 57.6424 238.325 49.9845 245.621 43.1035C213.246 62.276 188.167 95.4395 181.357 132.404H181.364Z" fill="white"/>
<path d="M53.5239 131.718C62.159 113.863 86.5787 95.71 117.259 95.71C155.978 95.71 181.884 120.411 181.884 157.015C181.884 206.417 142.276 237.368 101.176 237.368C60.0765 237.368 32.082 209.094 32.082 161.773C32.082 95.1066 75.8612 20.4072 151.807 20.4072C173.249 20.4072 191.713 26.0605 202.735 34.6895L194.989 49.2701C185.458 42.722 170.868 36.7705 150.613 36.7705C98.1985 36.7705 63.0544 80.8173 53.5239 131.711V131.718ZM52.0315 172.192C52.0315 201.062 74.0703 221.296 102.662 221.296C133.037 221.296 162.823 197.49 162.823 159.394C162.823 131.121 142.568 111.775 113.088 111.775C80.623 111.775 52.0385 138.557 52.0385 172.192H52.0315Z" fill="white"/>
</svg>
