<?xml version="1.0" encoding="utf-8"?>
<!-- Generator: Adobe Illustrator 28.0.0, SVG Export Plug-In . SVG Version: 6.00 Build 0)  -->
<svg version="1.1" id="Layer_1" xmlns="http://www.w3.org/2000/svg" xmlns:xlink="http://www.w3.org/1999/xlink" x="0px" y="0px"
	 viewBox="0 0 1000 1000" style="enable-background:new 0 0 1000 1000;" xml:space="preserve">
<style type="text/css">
	.st0{fill-rule:evenodd;clip-rule:evenodd;fill:#D0103A;}
	.st1{fill-rule:evenodd;clip-rule:evenodd;fill:#0018A8;}
	.st2{fill-rule:evenodd;clip-rule:evenodd;fill:#FEDF00;}
	.st3{fill-rule:evenodd;clip-rule:evenodd;fill:#C7B37F;}
	.st4{fill-rule:evenodd;clip-rule:evenodd;fill:#703D29;}
	.st5{fill-rule:evenodd;clip-rule:evenodd;fill:#D52B1D;}
	.st6{fill-rule:evenodd;clip-rule:evenodd;fill:#C2AC78;}
	.st7{fill-rule:evenodd;clip-rule:evenodd;fill:#FEFEFE;}
	.st8{fill-rule:evenodd;clip-rule:evenodd;fill:#77472F;}
	.st9{fill-rule:evenodd;clip-rule:evenodd;fill:#825439;}
	.st10{fill-rule:evenodd;clip-rule:evenodd;fill:#AF3122;}
	.st11{fill-rule:evenodd;clip-rule:evenodd;fill:#0365BB;}
</style>
<g>
	<path class="st0" d="M814.3,111.8v776.3C927.3,796.6,999.5,656.7,999.5,500S927.3,203.4,814.3,111.8L814.3,111.8z"/>
	<path class="st1" d="M187.8,889.9V110.1C73.6,201.6,0.5,342.3,0.5,500S73.6,798.4,187.8,889.9L187.8,889.9z"/>
	<path class="st2" d="M620,305.4c-6.4-2.5-12.6-7.7-9.9-16.8c1.5-5,6.6-8.7,11.3-9.8c4-0.9,2.8,0.2,5.1-2.4c4.6-5,11.6-9.4,19.3-3.6
		c4.4,3.4,3.8-0.4,10.3-0.4c6.1,0,6.9,3.1,10.2,5c5.4-2,8.4-3.9,14.9-1.3c4.2,1.6,7.9,5.3,9.5,9.5c14.4,0.5,13.2,10.5,18.2,12.5
		c3.7,1.5,4.2,1.7,6.7,4.1c4.2,4,5.9,8.3,4.9,16c-0.9,6.7-3.3,10-6.5,14.5c-6.5,9.1-13.3,14.7-20,22.1c-5.4,5.9-15.4,15.5-12.5,27.7
		c1.8-1.9,1.7-3.9,4.3-5.3c4.1-2.3,14.5-2.5,13.7,12.9c30.7-12.3,56,11.2,61.2,37.8c4.2,21.4,0,45.5-16.7,58.7
		c-6,4.7-11.1,5-17.8,8.6c4,5,11,10.3,5.9,20.3c-1.7,3.3-3.9,5.6-8.8,6.3c-6.6,0.9-7.9-1.5-11.6-3.4c-16.6,22.8-4.6,51.2,5.7,55.7
		c2.9-5.6,9.9-9.8,17.3-4.5c3.6,2.6,2.9,4.1,5.1,7.8c0.9,1.4,2,2.1,2.9,3.9c1.3,2.4,0.7,3.1,1.3,5.6c0.6,2.7,3.1,4.2,4.3,8.6
		c2.8,10.7-4.6,19.1-20.6,17.7c2.6,1.7,7.7,7.7,9.8,10.7c13.7,18.9,10.6,45.5-1.3,65.1c-8.1,13.4-21.4,22.2-35.4,28.5
		c-32.2,14.3-82.4,9.1-111.7,15.4c-9.4,2-24.2,8.7-27.3,15.1c5.4,3.3,10.2,7.9,10.5,16.7c0.5,16.7-16.3,16.8-19.8,20.5
		c-10.7,11.4-23,3.2-30.3-1.2c-3.3,3-13.7,15.1-20.5,15.6c-6.2,0.4-19.2-12.3-20.9-15.6c-3.5,1.8-4.6,3.5-8.8,5
		c-3.7,1.3-8.6,2.1-12.9,1.3c-4-0.8-6.9-2.8-9.2-5.2c-3-3-6-2.5-9.8-4.4c-5-2.6-11-8.7-11-16.9c0-10.5,5.3-13.3,11.3-17.2
		c-3.6-2.9-3.9-4.7-11.4-8.5c-30-15.2-92.3-4.2-126.7-20.8c-21.1-10.2-33.8-20.3-42.7-41.5c-4-9.5-5.9-25.7-3.2-36.5
		c3.6-14.7,10.9-19.4,15.6-26c-10.9,1-20.6-7.4-19.1-17.4c0.7-5,2.8-6.1,4-9c1.8-4.5-0.5-4.5,3.6-9.3c1.3-1.6,4.7-13,15.3-9.7
		c3.7,1.1,4.9,3.9,7.2,6.1c12.7-6.8,21.5-36.1,8-55.2c-3.7,1.7-4.8,4.1-11.3,3.2c-4.4-0.6-8-3.4-9.7-6c-7.8-11.9,3.2-19.4,4.8-21.2
		c-12.1-7.5-17.8-8-27.1-24.5c-17.9-31.7,0.2-76.3,31.9-82.3c10.8-2.1,13.4-0.3,21.9,2.9c-0.6-6,0.6-10.8,4.7-13
		c8.2-4.5,9.4,2.2,12.8,3.3c3.2-25.1-33.1-39.3-38.1-62.4c-4-18.7,11.9-19.4,14.1-22.2c1.5-2,1.3-3.5,5.9-7.1
		c2.9-2.2,6.5-2.5,8.4-3.9c3.8-2.8,5.4-15.1,24.9-7.7c13.4-10.5,13.7,0.1,20-4.5c3.1-2.3,6.1-3.6,10.8-2.5c2,0.5,3.5,1.3,5.1,2.4
		c6.1,4.1,0.1,3.9,8.5,5.9c14.5,3.4,20.3,23.7,2.6,27.1c7,8.4,34.2,12.5,47.8,4.4c8.3-5,8.2-11.3,3.6-21c-3.2-6.7-7.2-15.1-7.8-23.4
		c-1.4-20.3,10.6-33.4,31.3-28c16.7,4.3,25.2,17.1,45.4,16.5c19.5-0.5,27.6-13.5,45-17c20.4-4.1,31.6,9.7,30.9,29.1
		c-0.8,20.2-20.7,35-5,44C585.6,318.6,610.6,314.8,620,305.4L620,305.4z M500,0.5c119.1,0,228.5,41.7,314.3,111.3v776.3
		C728.5,957.8,619.1,999.5,500,999.5c-118.1,0-226.6-41-312.1-109.6V110.1C273.4,41.5,381.9,0.5,500,0.5L500,0.5z"/>
	<path class="st3" d="M506.9,500.1l144,0.1c1.3,9.1,0.2,27.5,0.2,37.6c0,13.2,1.1,65.6-1.2,74.7c-8.8,34.7-46.4,36-77.5,32.9
		c-12-1.2-23.4-3-35.8-1.9c-11.2,0.9-20.1,4.8-30.1,7.2L506.9,500.1L506.9,500.1z M492.9,650.7c-5.6-0.7-16.3-6-30.9-7.1
		c-27.7-2-72.1,12.7-98.2-8.5c-18.9-15.3-15.4-37-15.4-59.9c0-11.5-0.7-68.8,0.2-75.2l144.3,0.1L492.9,650.7L492.9,650.7z
		 M506.6,342l144.5,0.3l0,143.8l-2.5,0.2l-139.4,0l-2.6-0.2V342L506.6,342z M348.4,342l144.5,0.1l0,144l-2.3,0.1l-139.7,0.1
		l-2.5-0.3V342L348.4,342z M333.1,365.9v235.2c0,38.7,31.6,61.2,71.5,61.2c27.6,0,59.6-10.6,86.4,5.4c3,1.8,6.2,4.2,8.8,5.5
		c1.9-0.8,8.2-6,18.1-9.8c7.4-2.9,15.3-4.2,24-4.5c18.1-0.7,34.8,3.4,53.7,3.4c35.8,0,63.5-18.3,69.7-47.9
		c2.7-13.1,1.2-43.2,1.1-58.2V326.8H333.1L333.1,365.9L333.1,365.9z"/>
	<path class="st4" d="M481.4,781.2c0.8-1.8,2.1-3.5,3.2-5.6c1.8-3.6,2-2.5,5.7-3.8c5-1.7,7.9-4.6,10.4-8.7c3.5,3.5,4.5,5.4,10.6,7.3
		c4.7,1.5,2.7-0.1,4.6,4.3c1.1,2.6,2.5,3.8,3.5,5.8c-3.9,5.1-12.3,14.1-18.4,15.4c-3,0.6-9-3.9-10.9-5.5
		C487,787.8,483.5,785,481.4,781.2L481.4,781.2z M339.5,632.5c2,2.3,3.4,5,5.3,7.2c46.8,54.4,113.6-1.7,156.4,37.9
		c6.4-7.2,23.4-14.2,37.2-15.3c30.8-2.4,86.9,16.7,117.7-21.1c1.4-1.7,1.9-2.1,3-3.8l3.1-4.1c1.4,11.7,10.9,24.6,23.5,23.8
		c12.7-0.8,15.7-14.3,9.8-20.2c-3-3-3.9-2.7-6.7-3.5l-1.6-0.6c7.7-2.6,11.6-2.6,16.8,2.4c13.4,12.5,12.6,34.6,0.6,50.3
		c-18.4,24.3-69.7,21.1-98.9,21.1c-32.3,0.1-90.1,7.2-105.4,41.2c-1.6-1.8-3.7-5.8-7.9-10.5c-25.4-28.9-76.2-30.7-113.1-30.3
		c-33.3,0.3-92.1,0.6-92.1-46.2c0-8.4,3.2-16.2,7-21.2c4.7-6.1,9.3-9.1,19.3-6.6c-1.2,0.6-12.6,1.1-10.7,12.4
		c2.1,12.4,18.7,16.3,29.6,4.6C337,645.2,337.8,640.3,339.5,632.5L339.5,632.5z M488.1,768.4c1.5-14.7-4.1-24.4-15.8-33.2
		c-7.9-5.9-18.9-10.5-28.5-14.3c-6.2-2.4-4.7-0.5-5-0.2c1.9,1.4,10.5,4.2,13.3,5.6c11.6,5.4,26.3,12.5,31.5,25.5
		c4,10.1,0.1,23-5.6,28.7c-2.7,2.7-7.4,5.6-12.7,6.3c-7.4,1.1-9.8-0.9-14.7-3.4c1.2-1.1,0-0.3,1.6-1c0.3-0.1,1.3-0.5,1.6-0.5
		c3.9-1.1,4.8-1.2,8.6-4.2c10.2-7.9,11.4-24.2,0.1-35.3c-41.2-40.1-121.9-12.3-164.4-42.3c-42.2-29.8-25.8-75.1,5-81.8
		c24.3-5.3,36.4,21.6,22.2,32.4c-7.8,6-20.2,2.9-20.4-7.6c-0.3-11.9,18.4-10.7,13.2,3.5c1.8-0.9,0.7,0.1,1.7-1.4
		c5.1-7.4-10-26.7-26.2-10.6c-8.3,8.3-12.2,26.3-6.4,40.3c11.4,27.2,36.3,31.8,71.6,33.5c35.5,1.7,64-2.6,96.9,8.7
		c13.2,4.5,26.5,11.1,33.2,19.1c3.3,3.9,9.1,8.9,9.9,16.5C499.8,761.7,495.3,766.8,488.1,768.4L488.1,768.4z M682.5,645.1
		c1.2-1.9-0.4-3,0.4-7.1c9.1-8.4,16.5,6.3,8.9,13c-14.6,12.8-35.8-15-13.6-29.9c17.2-11.5,53.7,6.3,48.4,43.7
		c-2.5,18.1-17.2,30.9-28.7,37.9c-42.1,25.6-122.5,1.4-160.2,39.7c-10,10.1-10.9,23.2,0.4,34.4c4.8,4.8,5.4,3.2,11.2,5.8
		c-8.6,10.8-36.7,2.9-34.7-23.8c1.2-15.8,16.7-24.6,28.7-30.5c2.7-1.3,4.4-1.2,5.3-3.7c-6.8,0.8-20.1,9.4-25.6,14.8
		c-7.9,7.7-11.5,14.5-9.6,29.5c-28.7-4.8-10.3-54,73.9-59.5c37.3-2.4,108,9.6,125.3-33.9c5.9-14.9,2.7-31.2-6.3-40.5
		C688.6,616.5,674.6,640,682.5,645.1L682.5,645.1z M333.1,326.8h333.3v229.4c0,15,1.6,45.1-1.1,58.2c-6.2,29.6-33.9,47.9-69.7,47.9
		c-18.9,0-35.7-4.1-53.7-3.4c-8.7,0.3-16.6,1.7-24,4.5c-9.9,3.8-16.2,9-18.1,9.8c-2.6-1.3-5.8-3.8-8.8-5.5
		c-26.8-16-58.8-5.4-86.4-5.4c-39.9,0-71.5-22.5-71.5-61.2V365.9L333.1,326.8L333.1,326.8z M681.4,606.6c2.9-4,13.3-5.8,19.5-4.8
		c6.5,1.1,12.4,4.3,17.2,7.2c10.3,6.2,17.8,13.8,22.5,27.1c4.6,13.1,2.3,30-3.1,41.6c-6.3,13.5-11.8,19.7-22.5,27.2
		c-36.8,25.9-88.6,16.4-125.2,23.7c-13.5,2.7-26.8,9.3-32.1,17.4c-17-0.3-17.7,14.4-12.9,20.5c2.6,3.3,9.4,5.5,13.3,1.8
		c4.1-4,1.2-11.2-2.8-12.2c0.3,3.8,2.2,4.4,1.1,8.3c-6.7,8.8-19-5.8-8.4-14.4c8.7-7,19.5,1.9,20.7,11c1.4,10.7-6.9,18.1-16.8,18.7
		c-20.3,1.2-38.5-34.4,15.3-52.7c49.6-16.9,110.8,3.2,146.1-34.7c6.5-6.9,10.9-11.4,13.9-22.8c6-23.2-6.1-41.8-20.4-49.4
		c-13.8-7.3-29.5-6-37.7,8.4c-3.3,5.8-1.9,8.8-2,15c-12.4-29,12.7-39.8,32.1-34.8c3.1,0.8,6.9,2.1,9.6,3.4c2.5,1.1,6.7,4.3,8.3,4.2
		c0.4-1.2,0.8-1.1-1.7-2.6l-12.7-5.8C694.8,605.2,689.9,605.7,681.4,606.6L681.4,606.6z M282.3,616.6c6.9-2.5,21.4-14.1,39-7
		c22.4,9.1,12.4,30.2,12.3,31.9c-0.9-9.5-1.6-16.1-12.6-22.8c-8.3-5-21.2-2.5-28.9,1.8c-17.2,9.7-24.6,29.3-19.8,48.9
		c4.4,18,20.1,30.4,34.3,37.8c40.8,21.2,103.2-0.2,148.7,31.4c21.5,14.9,12.4,40.9-5.9,41.2c-10.2,0.2-19.4-7-18.6-17.7
		c0.7-9.3,10.4-19.3,20.2-12.5c9.2,6.4,3.4,23-7.7,15.3c-0.6-3.5,0.6-5.1,0-6.8c-0.1,0-2.7-1.2-2.3,4.8c0.2,2.5,1.2,4.1,2.6,5.1
		c11.1,7.7,21.7-11.5,8.3-19.9c-5.8-3.7-7.3-0.2-10.8-3.4c-2.9-2.7-4-4.3-7.9-7c-27.8-19.2-82.2-6.8-125.5-21.4
		c-27.3-9.2-51.9-30.8-51-66.9c1-41.7,53.4-58.8,63.6-42.1c-9.3-1.7-12.7-2.3-22.1,0.4C293.7,608.8,284.1,613,282.3,616.6
		L282.3,616.6z M723,590.7c-7.6-16.1,16.2-22.1,17.8-5.6c-3.7-1.1-7.7-2.8-11.8-0.9C725.6,585.8,725.2,587.8,723,590.7L723,590.7z
		 M259.1,585.1c0.9-14.9,24.1-12.2,18.2,5.1c-2.8-1.6-3.1-4.9-7-6.4C266.1,582.2,262.6,583.6,259.1,585.1L259.1,585.1z M719.6,582.6
		c-6.1-12.8,12.3-19.1,15.9-8.2c-3.6-0.9-6.8-1.1-10.1,0.8C721.9,577.1,721.5,579,719.6,582.6L719.6,582.6z M264.2,574.3
		c3.5-9.4,20.1-6.3,16.5,7.7c-2.8-3.4-2.1-5-6.2-7.1C270.3,572.7,268.4,573.8,264.2,574.3L264.2,574.3z M327.4,513.1
		c2-2,2.1-3,3.9-4.6l-0.1,22.7l-2.1-3.6c-1.5-3.1-4-8.1-6.2-9.9L327.4,513.1L327.4,513.1z M278.4,593.2c3.9-6.8,1.2-5.1,4.6-7.6
		c5.1-3.8,11.5-8.6,13.3-15.6c-1.9,1.7-3.9,4.6-5.8,6.8c-2.4,2.8-3.6,4-7,6.2l0-7.1c7.5-7.2,14.9-16,15.9-31
		c0.4-6.6-0.7-13.9-2.9-19.4c-1.2-3-2.9-5.3-4-7.6c-1-2.2,0.4-6,0.4-9.4c10.2,9.2,18.2,33.4,13.2,51.9c-2.4,9-6.4,16.2-11.1,22.2
		c-3.7,4.7-11.4,12.8-18.1,14.9C277.6,595.2,277.2,595.2,278.4,593.2L278.4,593.2z M669.8,508.5c3.2,3.8,3.8,4.6,7.9,7.7
		c-0.9,1.9-4.5,6.6-7.9,13.4L669.8,508.5L669.8,508.5z M723.8,598.3c-2.6-0.8-8.2-4.9-10.3-6.4c-8.4-6.4-16.9-20.4-19.4-31.6
		c-2.3-10-0.8-19.9,1.8-29.5c2.8-10.2,6.9-15.6,11.7-22.3l0.4,1.1c1.8,5.6,1.5,5.3-0.7,8.1c-9.6,12.5-9.7,34.8,1.2,50
		c2.6,3.7,3,3.7,6.1,6.8c2.8,2.8,1.3,2,3.4,9.7c-3.8-1.3-5.8-4.4-8.3-6.9l-5.3-6.3c-4.1-3.5,0.5,6.1,9.2,12.6c4.4,3.2,6.9,4.7,9,10
		C723.3,594.9,723.5,597,723.8,598.3L723.8,598.3z M737.3,593.5c-2.9,1.1-0.8-0.8-2,3.2c-0.6,2-0.1,1.9-1.8,2.9
		c-6.9,3.8-12.7-7.1-5.4-12.9c8.1-6.4,19.5,4.5,17.2,13.9c-2.5,10.3-15.3,10.2-25.2,6.4c-57.5-22.2-41-105.1-8-111.6
		c5.7-1.1,11.9-0.2,14.7,2.9c2.7,2.9,4.7,8.6,2.7,13.8c-4.2,10.8-22.5,6.7-19.2-4.7c0.7-2.4,3.2-3.8,6-3.3c3.4,0.6,2.6,3,4.7,4
		c2.5,1.1-0.4-6.7-7-5.9c-15.3,1.9-34.8,44.2-14.7,76c6,9.6,20.1,23.1,30.2,24.3C735.5,603.1,738.8,598.9,737.3,593.5L737.3,593.5z
		 M278.7,508.4c1.9-2.4,2.2-5.4,7.3-4.2c9.8,2.4-0.5,21.3-12.3,12.4c-9.8-7.4-3.1-26.5,15.7-20.5c27.6,8.8,41.6,65.6,11.6,97.3
		c-4.5,4.8-20.7,15.4-30.5,16.4c-18.2,1.9-20.6-20.1-7.9-24.2c13.4-4.3,16.9,15.8,5.4,15c-4-0.3-4-3.2-5.3-6.3
		c-1.5,16.5,19.8,3.7,28.1-4.3c38.4-37,7.1-92.3-8-87.6C280.4,503.1,277.8,505.7,278.7,508.4L278.7,508.4z M703.2,403.7
		c8.4-8.6,23.8-2.6,29.8,3.5c17.2,17.3,18.4,61.3-5.4,72.3c-4.7,2.2-12.6,3.8-16.9,1.2l2-1.1c7.5-3.3,13.2-4.7,18.6-13.4
		c8.1-13.1,7.4-40-4.7-53.4C722.5,408.3,712.5,402.1,703.2,403.7L703.2,403.7z M291.6,480.5c-21.5,8-35.3-17.8-35.7-39.2
		c-0.5-23.6,17-44.2,37.4-38.3c-2.3,0.3-3.8,1.1-5.6,2.4c-2.7,1.8-2.9,1.5-6.2,2.7c-21.7,7.7-24.2,41.5-11.9,60.1
		c1.8,2.7,5.8,7.3,9.4,8.3c3.7,1.1,4.6-0.2,7.4,1.5C288.6,479.2,288.8,479.4,291.6,480.5L291.6,480.5z M300.4,599.5
		c-2.8-0.3-1.2-0.1-2.3-0.7c5.7-2.4,13.2-12.8,16.4-19.8c12.8-27.5,7.7-65.6-19.9-83.1c6.7-2.6,10.2-4.6,13-10.2
		c2.9-5.7,1.6-13.1-1.3-17.6c-7.3-11.3-24.7-10.2-22.1,7.1c-21.6,0-27.7-54.4-1.3-63.6c-1.3,22.3,24.3,23.9,29.9,6.5
		c2.4-7.5,0.4-10.9-1.6-17.3c8.6,1.8,8.3,1.6,15.1-1.9c18.7,18.5-17.5,49.9-36.4,37.1c0.2,1.9,0.8,2.3,5.3,3.6
		c15.5,4.4,24.3-3.7,32.8-11.8c1.1-1.1-0.2-0.2,1.3-1.1c1.4,3.3,2.9,5.7,1,10.4c-3.1,7.8-13.6,14.7-22.7,16.1
		c-23.3,3.7-29.5-15.5-31.7-18.4c-1.8,3.6,6.9,17.5,21.1,20.5c15,3.2,23.6-4.1,31.2-9.9c6.3,6.8,2.3,22.4-8.8,29.8
		c-0.5,0.3-1.7,1.2-2,1.4c-0.1,0.1-0.3,0.2-0.4,0.3l5.3-0.6c1.9,3.1,4,3.6,6.3,7.9c5.7,10.8,0.7,27.1-7.9,30.1
		c-3.1-2.3-2.7-3.8-6.8-6.2c1.1,2.4,4.1,5.6,6.1,8.3c7.2,9.9,11,17.6,11,31.3c0,25.8-14,31.2-13.6,37.3c6.4-2.5,11.5-15.9,13.7-18.4
		c0,21.5-0.7,26.8,1.2,47.9l-7.6-5.4c-2.5-1.7-2.9-4.1-6.4-6.5C311,597.8,303.3,599.8,300.4,599.5L300.4,599.5z M710.7,436.3
		c-3.7,0.8-5.2,2.6-9.8,2.9c-3.3,0.2-6.8-0.7-9.7-1.7c-10.3-3.4-21.3-12.1-22.5-23.6c-1-9,2.3-12.2,6.1-16.5c3.8,3,8.3,4.8,14.6,3.2
		c-1,3.1-2.2,5.3-2.2,9.4c0,11,7.7,20,18.3,18.8c11.2-1.3,15-12.3,9.3-21.6c24.4,6.9,29.4,60.1,1,69.4c6.9-15.6-16.3-21.9-22.5-6.9
		c-5.5,13.4,4.4,22.4,14.6,24.7c-4.8,3.7-7.9,4.2-11.7,8.7c-24.4,29-20.4,77,8.1,97.1c-9.1-1.1-13.6-1.7-21.5,2.5L669.4,613
		c0.3-10.8-0.2-40.5,0.7-46.1c0.3,2.5,7.7,16.1,12,17.9c-1-5.9-15.5-14.5-13.5-41.3c1.8-22.8,18.4-31.9,16.5-36
		c-2.8,1.8-3.7,5.1-6.6,7.1c-19.7-14.8-5.5-37.7-1.4-38.1c1.5-0.1,4.8,3.1,7.6,1.5c-1.4-1.5-3-1.4-4.7-2.3c-4.1-2-6.8-6.1-8.7-10.3
		c-3.6-7.8-3-13.4,0.5-20c2.5,1,3.8,2.7,6.6,4.2c29.8,16.3,48.9-9.8,45.7-15c-1.8,1.3-1.1,1.4-2.4,4.3c-0.6,1.4-1.4,2.5-2.3,3.8
		c-5.7,8.2-17,12-27.7,9.9c-25.5-4.9-24.6-22.4-19.9-25.9c4.9,5.3,8.3,8.9,16.7,12.2C694.6,441.4,708.6,443.3,710.7,436.3
		L710.7,436.3z M295.8,470.7c3,10.9-11.5,9.7-10.2-0.7c1.1-8.9,11.5-8.8,16.6-3.7c5,5,5.2,14.7,0.3,20.5
		c-10.8,12.7-39.8,6.9-53.4-17.7c-7-12.7-8.7-30.7-3.9-45.7c2.5-8,5.6-12.2,9.8-18.1c3.7-5.2,8.7-9.3,15.4-12.6
		c15.5-7.6,32.3-4.1,38.2,8.8c9,20-13.2,33-21.8,20.4c-4.5-6.7-1.7-15.6,6.1-16.9c4.2-0.7,7.4,2.1,7.5,5.8c0.1,6.3-6,4-7.3,4.7
		c3.9,6.5,14.7-3.2,6.3-11c-5-4.7-14.4-5.2-21.8-2.5c-28.4,10.2-29.5,55-10.4,74.1C284.3,493.1,304.5,477.9,295.8,470.7L295.8,470.7
		z M706.6,415.4c-1.7-0.6-2.8,0.9-5.2-0.4c-1.4-0.7-2.1-2.6-1.7-4.8c0.8-3.5,4.4-6,8.5-5c6.9,1.8,9.1,11.8,4.2,17.6
		c-4.7,5.7-15.1,4.3-19.4-1c-10.3-12.7-0.6-28.7,12.6-32.3c7.8-2.1,16,0,22.6,2.5c29.7,11.4,35.1,49.9,25.8,74.4
		c-13.2,34.8-66.8,34.4-59.8,5.5c1.6-6.7,9.4-11.9,16.9-7.7c6.7,3.8,6.1,15.2-5.1,13.6c-4.7-6.5-0.3-4.3-1.8-7.4
		c-1.4,0.6-1.2-0.7-2.1,2.1c-1.8,5.7,5.5,10.9,13.6,11c25.9,0.3,35-29.4,30.7-52c-2.8-14.8-11.5-28.9-23.8-32.6
		c-8.2-2.5-18.2-1.1-22.1,4.5C692,415.9,706.1,420.7,706.6,415.4L706.6,415.4z M439.8,324.9c3.5-1.8,9.6-3.6,13.7-5.3
		c4.5-1.9,9-4.8,13.2-6.3c0,5.8,0.8,7.9,4.3,11.6L439.8,324.9L439.8,324.9z M310,389c2.8,1.9,1.1,0.7,2.2,0.8c0.2,0,1.6-0.1,1.8-0.2
		c3.3-0.8,5.4-4.9,6.4-8c5-16.7-17.6-34.3-23.9-41.5c-2.9-3.2-10.3-12.9-12.1-16.5c-5.5-11.2-1.7-22.4,8.9-24.3
		c-3.6,24.1,12.9,34.5,27,51.6c22.6,27.6,6.1,50.9-7.4,47.5c-6.2-1.6-11.8-7.1-9.5-15c2.5-8.6,15.3-6.7,11.9,2.3
		C313.9,388.2,311.8,387.1,310,389L310,389z M688.8,389c-1.3-2.4,0.2-0.3-2-1.5c-0.3-0.2-4.7-1.4-2.2-6.5c1.6-3.1,6.2-3.8,9.3-1.3
		c12.4,9.6-10.8,29.9-21.7,12.2c-10.6-17.3,1.7-34.7,12.7-47.4c2.2-2.5,4.6-4.3,6.9-6.7c10.2-11,19.5-20.7,16.3-37.7
		c9.8,2.6,10.5,17,5.5,26.2c-4.5,8.3-11.5,14.6-17.1,20.2c-7.1,7-23.4,23.3-17.9,35.6C680.4,386,685,391.1,688.8,389L688.8,389z
		 M531.5,325.1c2.8-5.4,4.3-6.7,1.7-14.2c3.7,1.1,11.9,5.9,16.3,7.9c5.8,2.6,12.4,3.8,17.7,6.3L531.5,325.1L531.5,325.1z
		 M627.6,278.3c1.6-3.5,7.8-8.1,14.4-5.7c9.6,3.6,13.2,18.7,8.1,29.5c-3.8,8.1-8.3,6.8-9.2,11.7c6.2-1.8,11.5-8.5,13.2-15.8
		c3-13.2-3.3-18.2-4.3-22.4c11.6-3.5,17.1,3.1,18.8,13.9c2.4,15.4-8.7,21.8-9.6,24.5c2.6,0.3,2.3-0.3,4.3-2.1
		c4.1-3.6,5.9-6.3,7.4-12.3c2.3-8.9-0.3-14.4-3.5-20.5c21-9.9,30.9,18.4,19.9,34.8c-1.7,2.5-3.3,4.4-5.4,6.2c-1.7,1.4-4.7,3.3-5.7,5
		c2.5,1.5,7-3.1,8.6-4.8c10.9-10.7,10.5-19.3,7.5-32.6c7.3,1.9,13.5,8.5,13.9,17.6c0.5,12.7-8.4,23.4-15.9,31.4l-7.5,8.1
		c-10.4,11.9-8,11.5-12.9,17.7l-0.4-37.4l-61.1-0.2c2.5-1.5,5.8-2.2,8.7-3.6c11.6-5.8,30-17.9,23.7-33.2
		C638.4,282.2,634.4,279.8,627.6,278.3L627.6,278.3z M347.5,290.4c0-7.8,3.3-13.3,7.9-16.6c7.8-5.6,12.6,1,16.8,3.3
		c-1.6,1.9-0.2,0.8-4.3,2.3c-9.9,3.5-13,16.9-3.4,27.3c13.2,14.3,22.6,14.3,30.2,18.3l-63.3,0.2l-0.3,39.8c-5.6-8-5-11.4-16.6-23.4
		c-1.5-1.6-2.7-2.4-4.1-4c-8-9.1-15.8-17.3-16-31.6c-0.1-9.6,5.8-17.1,13.7-18.4c-1.9,8.2-2.7,16.7,1.1,23.9
		c3,5.7,8.1,10.9,14.4,13.5c-1.5-3-17.3-10.1-15.4-29.8c0.6-6.5,3.5-12,7.1-15.2c5.5-4.9,10.9-3.6,17.2-1.3
		c-2.1,7.6-5.3,10.7-2.6,20.8c1.8,6.9,5.4,11,10.6,13.9c-1-1.8-2.6-2.9-4.1-4.7c-12.6-15-2.3-41.5,13.5-32.7
		c-1.2,3.7-4.2,7-4.2,12.9c0,12,4.1,19.9,13.4,23.9C357.2,308.9,347.5,307.1,347.5,290.4L347.5,290.4z M453.1,303.1
		c0.3-14.3-2.8-16.2-8.8-25.9c-4.9-7.8-7.9-21.7,2.8-24.5c7.9-2,19.5,6.6,25.6,9.6c45.4,22.2,66.3-12.9,82.5-9.7
		c11.2,2.2,4.5,17.9,0.9,24.2c-6.5,11.4-9.4,10.9-7.3,27.1c-9.7-3.1-22.2-11.8-33.2-5.7c-3.6,2-8.2,6.2-8.4,12.7
		c-0.3,8.4,5.9,12.4,7.2,14.3l-25.6,0c3.1-3.8,6.6-7.8,4.7-16.1c-1-4.4-5.8-9.6-9-11.4C475.7,292.8,460.3,299.5,453.1,303.1
		L453.1,303.1z M379.4,293.7c2.7-4.6-5.9-8.1-9.2-3.7c-5.9,8.1,8.4,17.6,14.1,20.7c4,2.2,8.5,3.6,13.7,4.7c10.7,2.1,23,1.4,31.4-3.5
		c20.3-12-7-29.9-2.9-55.2c1.6-10.2,8.2-17.3,18.8-18c20.7-1.4,31.3,18.2,55.8,17.6c22.8-0.6,36.1-21.2,56.2-17.2
		c9.8,1.9,15.2,9.3,16.3,20.3c2.3,24.1-24.1,42.7-1.6,53.3c9.7,4.6,20.7,4.7,31.8,2.3c8.1-1.8,12.6-4.3,18.8-9
		c1.8-1.3,3.6-2.3,5.2-3.6c7.4-6.1,2.4-17.3-5.2-14.1c-2.2,0.9-3.8,2.9-2.6,5.3c0.1-0.1,0.3-0.3,0.3-0.4l1.8-2.5
		c1.2-1,2.1-1.3,3.9-0.8c2.3,0.6,3.2,3,2.7,6.1c-0.6,4.2-5.6,7.9-10.7,6.2c-8.7-2.9-9.6-15.6,1.6-20.7c13.3-6.1,35.9,12,2.3,34.3
		c-15.8,10.5-39.4,12.3-59.7,6.2c-16.7-5-33.5-17.2-38.6-16.2c-5.1,1-6.2,9.2-0.9,10.2c-0.9-3-3.4-5-0.3-7.9
		c8.5-5.2,12.3,12.7,2.9,16.6c-8.4,3.5-17.1-5.9-16.2-14.2c0.4-4.4,3.8-8,6.5-9.8c11.2-7.4,30.4,6,36,6.8
		c-3.4-16.1-2.2-16.5,5.5-28.5c4.9-7.7,9.9-20.3,1.3-27.3c-8.2-6.6-20.9,2.7-27.7,6.3c-22.3,11.9-39.1,11.5-61.1,0.3
		c-7-3.6-18.7-12.7-27.8-7c-9.3,5.8-4.6,19.3,0.5,27.5c2.5,4,5.3,7.9,6.8,12.9c2.2,7.3-0.5,9.8-1.2,16.1c8.7-3.2,26.6-14.4,36.5-7.2
		c12.7,9.1,2.3,29.8-10.4,24.1c-7.5-3.3-8.1-19.4,3-16.7c2.8,1.8,0.5,6.4,0.4,6.7c-0.5,1.6,0.8,2.7,2.4,0.6c1.9-2.4,1.6-8.1-2.8-9.4
		c-6.1-1.8-20.3,10-38.8,15.9c-20.6,6.5-43.9,4.4-60.3-5.7c-5.6-3.4-16-11.6-17.4-19.3c-2-11.3,8.2-19.7,19.2-15.1
		c11.9,4.9,10.5,18.8,1.1,20.9c-10.2,2.3-14.3-12.9-6.3-12.5C377.9,289.8,377.8,291.9,379.4,293.7L379.4,293.7z M739.9,577.2
		c-2.2-3.7-1.5-5.2-5.1-7.8c-7.4-5.3-14.4-1.1-17.3,4.5c-10.3-4.5-22.2-32.9-5.7-55.7c3.7,2,5,4.3,11.6,3.4c4.9-0.7,7.1-3,8.8-6.3
		c5.1-10-1.9-15.3-5.9-20.3c6.7-3.5,11.8-3.8,17.8-8.6c16.6-13.1,20.9-37.3,16.7-58.7c-5.2-26.5-30.5-50-61.2-37.8
		c0.8-15.4-9.6-15.2-13.7-12.9c-2.6,1.4-2.5,3.4-4.3,5.3c-3-12.1,7.1-21.7,12.5-27.7c6.7-7.4,13.5-13,20-22.1
		c3.2-4.5,5.6-7.8,6.5-14.5c1-7.7-0.6-11.9-4.9-16c-2.6-2.4-3-2.7-6.7-4.1c-5-2-3.8-11.9-18.2-12.5c-1.7-4.1-5.3-7.8-9.5-9.5
		c-6.5-2.5-9.5-0.7-14.9,1.3c-3.3-1.9-4.1-5-10.2-5c-6.4,0-5.8,3.7-10.3,0.4c-7.7-5.8-14.7-1.4-19.3,3.6c-2.3,2.6-1.1,1.5-5.1,2.4
		c-4.7,1.1-9.8,4.8-11.3,9.8c-2.7,9.1,3.5,14.3,9.9,16.8c-9.4,9.4-34.4,13.1-48,5.2c-15.6-9,4.2-23.8,5-44
		c0.8-19.4-10.5-33.3-30.9-29.1c-17.4,3.5-25.5,16.5-45,17c-20.2,0.6-28.8-12.2-45.4-16.5c-20.7-5.3-32.7,7.8-31.3,28
		c0.6,8.3,4.6,16.6,7.8,23.4c4.6,9.7,4.7,16-3.6,21c-13.5,8.1-40.7,4-47.8-4.4c17.8-3.4,12-23.7-2.6-27.1c-8.3-1.9-2.3-1.8-8.5-5.9
		c-1.6-1-3.1-1.9-5.1-2.4c-4.7-1.1-7.8,0.2-10.8,2.5c-6.3,4.6-6.5-6-20,4.5c-19.5-7.4-21.1,5-24.9,7.7c-1.8,1.3-5.5,1.6-8.4,3.9
		c-4.5,3.6-4.3,5.1-5.9,7.1c-2.1,2.8-18.1,3.5-14.1,22.2c5,23.1,41.3,37.3,38.1,62.4c-3.4-1.2-4.6-7.8-12.8-3.3
		c-4.1,2.3-5.3,7.1-4.7,13c-8.5-3.2-11.1-4.9-21.9-2.9c-31.7,6-49.7,50.6-31.9,82.3c9.3,16.5,15,17,27.1,24.5
		c-1.5,1.8-12.6,9.3-4.8,21.2c1.7,2.6,5.3,5.4,9.7,6c6.5,0.9,7.6-1.5,11.3-3.2c13.5,19.2,4.7,48.4-8,55.2c-2.3-2.2-3.6-4.9-7.2-6.1
		c-10.6-3.2-13.9,8.2-15.3,9.7c-4.1,4.8-1.7,4.8-3.6,9.3c-1.2,2.9-3.3,4-4,9c-1.5,10,8.2,18.4,19.1,17.4c-4.7,6.6-12,11.3-15.6,26
		c-2.7,10.9-0.8,27,3.2,36.5c8.9,21.3,21.7,31.3,42.7,41.5c34.4,16.7,96.7,5.7,126.7,20.8c7.5,3.8,7.8,5.6,11.4,8.5
		c-6,3.9-11.4,6.7-11.3,17.2c0,8.2,6,14.3,11,16.9c3.8,2,6.8,1.5,9.8,4.4c2.4,2.3,5.2,4.4,9.2,5.2c4.3,0.8,9.2,0.1,12.9-1.3
		c4.2-1.5,5.3-3.2,8.8-5c1.7,3.3,14.7,16,20.9,15.6c6.7-0.5,17.2-12.6,20.5-15.6c7.3,4.3,19.6,12.5,30.3,1.2
		c3.5-3.7,20.3-3.8,19.8-20.5c-0.3-8.8-5.1-13.4-10.5-16.7c3.2-6.4,17.9-13.1,27.3-15.1c29.3-6.3,79.5-1.1,111.7-15.4
		c14.1-6.3,27.3-15.1,35.4-28.5c11.9-19.6,15-46.2,1.3-65.1c-2.1-3-7.3-9-9.8-10.7c16,1.4,23.4-7,20.6-17.7
		c-1.1-4.3-3.6-5.9-4.3-8.6c-0.6-2.5,0-3.2-1.3-5.6C741.8,579.2,740.7,578.6,739.9,577.2L739.9,577.2z"/>
	<path class="st3" d="M518,709.2c0.8-2.1,1.6-2.9,2.7-6.2c1.4-4.3,4.3-16,6.3-18.1l9.1,17.2c2.1,4.6,3.3,4.2,3.8,5.1l-8.4-0.2
		c1.2-2.3,1.7-2.5-0.7-6.5c-5.4-1.1-8.7-0.2-8.2,5.7l3,2.3L518,709.2L518,709.2z M563.1,693.5c-2.4-16.3,17.9-19.2,20.4-4.7
		C586.3,705.5,565.2,708.3,563.1,693.5L563.1,693.5z M499.7,692.3c0.3-7.4-2.7-6.2,19.2-6.2c0.2,2,0.7,3.3-0.1,5l-1.7-3l-5.5,0.1
		c-2.2,21.2,2.5,18.5,3.5,20.7l-10.2,0.2c1.5-4.1,3.2,3.2,3.1-10l-0.3-10.3C499.9,686.9,503.6,689.5,499.7,692.3L499.7,692.3z
		 M489,686.2l8.6,0c-1.3,3.4-1.8-2-2,9.3c-0.1,3.9-0.3,7.7,0.2,11.6l2.8,2.1l-8.8-0.2c3.2-3.8,2.1-5.9,2.1-11.4c0-1.8,0.2-5.3,0-6.9
		c-0.4-2.7-0.5-2-2-3.6C489.2,686.4,489.8,687.1,489,686.2L489,686.2z M443.5,684.2l8.2,0.6c-1.3,2.2-2.9,0.2-0.4,8.9
		c1.7,6,1.4,6.7,3.1,8.9c1.2-2.7,5.8-10.9,5.9-13.2c0.1-3.4-0.6-1.9-2.5-3.8c12.5-0.9,12.7,1.1,15.8,4.9c1.7,2.1,7.9,10.3,9.7,11.2
		c0-3.2,0.2-6.4,0.2-9.5c0-4.4-0.6-3.3-3.2-5.8c-0.1-0.1-0.3-0.2-0.4-0.4l7.4,0.3c-4.2,3.6-2.4,12.2-2.7,22.8
		c-3.4-1.2-11.4-14.5-15.7-17.4c-0.9,15.2-0.4,13.3,3.4,17l-7.8,0.1c3.4-4.2,2.7-2.7,2.9-9.6c0.1-3.7,0.9-9.2-1.7-11.6
		c-4.1-0.2-5.7,6.5-7.3,9.7c-1.7,3.4-3.9,9.4-6.2,11.3C448.7,701.2,448.4,690,443.5,684.2L443.5,684.2z M552.4,684.4l0.8,7.8
		c5.5,0.8,3.8-0.7,6.2-3.2l1.5,7.9c-2.9-1.5-0.5-2-3.6-2.7c-6.2-1.4-3.4,8-1.3,9.6l2.1,1.3l-8.8,1.2c0.1-0.1,0.2-0.5,0.3-0.4
		c0,0.1,0.2-0.3,0.2-0.4l-1.1-19.8l-3.4-2l15.4-2l0.8,4.9C559.7,685.9,558.9,681.9,552.4,684.4L552.4,684.4z M419.7,701.6
		c-0.1-2.5-0.6-5,0.7-6.6c1.2,3.3,2.2,10.2,8.1,6.9c6.8-5.2-5.9-8.3-6.9-13.2c-1.1-5.7,2.4-10.2,11.4-5.8c1.6,0.8,0.2-0.3,1.4,0.8
		c-0.2,0.8-0.2,1.6-0.4,2.5c-0.6,3.3,0.5-1.5-0.3,1.2l-0.6,1.6c-0.2-0.3-2.6-9.4-7.5-6.2c-4.8,3.2,2.7,7.3,4.4,8.5
		C436.6,696,431.1,709.3,419.7,701.6L419.7,701.6z M582.1,678.6c5-1.9,15.8-5.4,17.3,1.6c0.9,3.8-1,4.1-1.9,6.9
		c2.4,1.6,3.4,4.3,5.8,6.2l3.1,1.7c-6.3,7.5-8.8-7.8-14-6.3c-1.1,1.3-0.8,0.2-0.8,2.6c0.2,5.6,3.6,6.5,4.4,7
		c-1.7,1.1-6.1,2.1-8.3,1.8c2.7-3.2-0.1-11.1-1.8-17.4C584.9,678.7,583.8,680.2,582.1,678.6L582.1,678.6z M405.9,700.8
		c-2.2-2.7-2.3-9.1-3.1-13.1c-0.4-2.2-0.7-4.5-1.3-6.9c-0.9-4-1.2-2.3-2.4-4.8l8.1,1.3l-1,1.5c-1.3,2.2-0.9,2.5-0.1,7
		c0.5,2.6,0.8,7.2,1.8,9.4c1.9-1.5,4-5.8,5.4-7.9c4.7-7.2,1-6.8,0.3-8.6l6.8,1c-1.3,2.1-2.5,2.9-4,5.2c-1.1,1.7-2.3,3.7-3.4,5.4
		C411.7,692.6,407.3,699.7,405.9,700.8L405.9,700.8z M641.5,662.1c12.3-3,18.1,19.2,4.8,22.9c-7.2,2-11.6-3-13-8.8
		C631.4,668,635.1,663.7,641.5,662.1L641.5,662.1z M379,677.4l1.6-5.8l17.9,4l-0.4,5c-1.9-0.8,0.6-4-6.9-4.6l-4.1,16.2
		c0,3.6,1.1,2,2.6,4.6l-10.1-2.4l3.4-1.3c1-3.9,4-14,4-18l-4.9-1.4L379,677.4L379,677.4z M618.8,669.6c0.5,2.2,1.1,2.6,1.4,5
		c-2.2-1.2-1.6-4-8.4-1.2l4.7,17.7l3.7,1.1c-0.4,0.3-0.3,0.4-1.4,0.8c-0.2,0.1-0.8,0.3-1,0.4c-0.6,0.2-2,0.5-2.7,0.7
		c-2.5,0.7-2.3,1.1-4.9,0.5c3.8-2.7,2.2-4.4,1-9.2c-0.9-3.5-1.9-7.1-3-11l-5.3,1.3l-1,3.7c0-0.1-0.1,0.3-0.5,0.5l-0.8-5.7
		L618.8,669.6L618.8,669.6z M628.6,666.7c-2,4.3,0,7.6,1.3,12.3c2.5,9.3,0.9,6.2,5.6,9.4l-8.3,2.1c2-4.1,0.2-6.8-1.2-11.7
		c-0.5-1.7-1.2-5-1.7-6.4c-1.3-3.4-2.1-1.7-4.2-3.5L628.6,666.7L628.6,666.7z M357.3,687.9c2.5-1.7,2.4-0.6,3.6-4.1
		c2.6-7.7,5.4-13.7,1.9-17.2c2.8-0.3,11,2.4,12.9,4.1c6.3,5.5-3,10.5-3.1,10.6c1.6,10.5,1.3,7,3.6,11.8l-4.3-0.4
		c-1.6-2.5-1.7-3.5-2.3-7.2c-0.5-3.7-0.1-4.6-3.2-5.6c-0.9,0.7-0.2,0-0.9,1.1c-3.9,6.7-0.2,9.2-0.1,9.4
		C363.2,690.3,359,689.2,357.3,687.9L357.3,687.9z M661.3,668c-0.1,0.5-0.3-0.5-0.1,1.5l1.5,4.5c1.1,2.5,0.3,1.3,1.8,2.2l1.9,0.9
		c0.1-0.1,0.3,0.1,0.5,0.2l-7.9,3c0.4-6.5,1-3.5-2.3-11.9c-5.2-12.9-2.6-5.6-6.7-9.2c2.3-0.9,10.4-4.3,12.9-4.1
		c8.2,0.7,3.8,10.7,3.8,10.7c5.3,3,4.3,4.3,8.3,6c0.1,0.1,0.4,0.1,0.5,0.2l1,0.4C670.1,679.9,667.8,666,661.3,668L661.3,668z
		 M334.4,680.6c-1.8-5.9,1.3-16.5-1.8-25.1l7.7,2.5c-2.2,2.9-1.6-0.3-2.5,3.5l-0.3,14.4c1.5-0.8,5.6-5.2,6.9-6.7
		c4.2-4.9,3.5-4.8,2.9-6.6l-1.2-2l15,4.9l-5.2,10.4c-1.5,5.1-3.7,7.3-0.2,11.5l-8.1-2.8c4-2.7,3.6-5.6,5.2-10.5
		c2.7-8.2,3.1-7.2,0.3-10.7C347,665.7,336.9,681.4,334.4,680.6L334.4,680.6z M339.5,632.5c-1.7,7.8-2.5,12.7-6.9,17.5
		c-10.8,11.8-27.5,7.8-29.6-4.6c-1.9-11.2,9.5-11.8,10.7-12.4c-10-2.5-14.6,0.5-19.3,6.6c-3.8,4.9-7,12.8-7,21.2
		c0,46.8,58.8,46.6,92.1,46.2c36.9-0.4,87.7,1.4,113.1,30.3c4.1,4.7,6.2,8.6,7.9,10.5c15.3-33.9,73.1-41.1,105.4-41.2
		c29.2-0.1,80.5,3.2,98.9-21.1c11.9-15.7,12.8-37.8-0.6-50.3c-5.2-4.9-9.2-4.9-16.8-2.4l1.6,0.6c2.8,0.8,3.7,0.5,6.7,3.5
		c5.9,5.9,2.9,19.3-9.8,20.2c-12.6,0.8-22-12.1-23.5-23.8l-3.1,4.1c-1.1,1.7-1.6,2.1-3,3.8c-30.8,37.8-86.9,18.6-117.7,21.1
		c-13.9,1.1-30.8,8.2-37.2,15.3c-42.8-39.6-109.6,16.4-156.4-37.9C342.9,637.6,341.5,634.8,339.5,632.5L339.5,632.5z"/>
	<path class="st2" d="M600.5,631.4c-0.6,1.3,0.4,1.4-2.8,1.6c-0.7,0.1-3.2-0.1-3.8-0.4c-1.9-1,0.8-3.1,2.2-3.5l1.6-0.9
		c1.4-0.8,0.3-0.1,1.4-0.8c6.1-4.2,6.5-15.9,15.1-12.4c-0.7,3.7-4.4,5.1-6.9,8.4c-1.4,1.8-1.6,3.4-2.7,4.8
		C602.3,631.4,602.5,628.4,600.5,631.4L600.5,631.4z M603.8,618.5c-3.7-1.4,0.6-1.9-2.9-2.4c-4-0.5,0.4,0.9-3.3,2.4
		c-2.5-3.2,1-1.7-3.8-4.9c4.1-1.3,8.3-4,12.1-4.4l3.5,4.1C603.4,615.7,606.2,615.2,603.8,618.5L603.8,618.5z M547.8,607l-6.1-1.5
		c0.1-0.3,0.3-0.7,0.4-0.6c0.6,1.3,0.6-0.9,0.7-0.9c0.3-0.5,0.6-1.1,1-1.8c0.9-2,0.2-1.4,1.6-3l3,0.2L547.8,607L547.8,607z
		 M542.6,576.8c2.8-0.3,3.7,0,5.9,1c0.6-0.5,1.4,1,0.8-3.3c-0.4-3-0.5-3.2,0.6-5.4c2.1,1.6,0.4,0.3,2.6,5.1c1.2,2.7,1.1,2.9,0.3,5.9
		c2-1,3.6-1.9,6.5-1.1c-0.2,2.6-2.2,3.4-3.2,5.7l2.6,1.1c5,0.2,9.5-0.4,14-1.4c5.4-1.2,7.9,0,13.4-0.1c8.3,0,33.2-5.8,37.8,2.9
		c2.1,4,0.1,8.2-3,10c-9,5.2-13.3-3.6-24.2,3c-3.5-1,2.6,1.5-0.8-0.7c-1.3-0.9-1-0.7-4.3-0.2c-0.1-0.1-0.1-0.4-0.1-0.4l-0.7-1.3
		c-0.7-0.7-0.6-0.4-1.6-0.9c4.7-1.3,4.6-2.5,10.5-2.2c3.8,0.2,7.5,1.1,11.5,1.5c13.8,1.4,10.5-7.9,7.9-8.8c-3.2-1.1-2.1,0-2.6,0.3
		c0.1,0.1,0.4,0.1,0.5,0.3l1.4,0.9c2.5,2.1,1.7,4-0.6,5c-6,2.7-21-5.2-32.8,2.6c1.9,2.2,2.6,1.3,2.8,2.9c0.3,1.8-0.9-1.3-0.1,1.2
		c1.9,0.4,2.3,0.2,3.9,0.4c3.7,0.6-1.4,0.2,3,1.4c4.3-1.2,7.3-3.5,11.3-3.1c5.8,0.6,7,2.1,13.6,0.7c0.3,4.1-0.8,7.5,1.1,10.5
		c4.3,6.8,1.8,1.3-0.2,18c-0.5,4.5-1,3.3-1.7,4.4c-1.4,2.1-0.5,5-6.5,3.7c-1.9-0.4-1.1-0.3-1.7-0.6c-0.3-3.6,3.9-2.3,5.5-7.8
		c1-3.5,0.9-9.7-0.2-12.9c-0.9-2.4-2.4-1.7-8-6.3c-2.5-2.1-5.3-5.1-9.8-3.9c1.6,3.4-0.2-0.3,3.8,1.7c1.6,0.8,0.7,0.2,1.6,1.4
		c-5.7,1.9-16.2,7.2-24.6,5.8c-4.1-0.7,1.9,0.6-1.1-0.3c-3.6-1,2.3-6.9,0.4-10.4c-1.9,1.2-1.1,0.8-2.6,6.1c-2.1,7.7-3.3,15.4-2.2,23
		l-2,1.9c-2.2,2.7-1.3,3-8.2,2.2c1.1-6,7.4-2.2,4.2-15.7c-0.7-2.8,0-5.2-0.4-8.4c-0.2-1.6-0.4-3.2-0.9-4.6c-1-2.9-0.5-2.4-2.7-2.5
		c0.4,3.4,2.1,4.9,1.7,9.1c-3.3-0.8-4.4-0.3-5.6-2.7c-1.4-2.9,0-5.3-3.5-5.8l2.6,8.4c-1.5,1.7-2,1.6-2.6,3.9
		c0.7,0.8,2.8,2.8,3.1,3.4c2,3.6-3.1,1.5,0.7,3.7c0,3.1-0.1,4.8-1.9,7c-1.7-0.6-0.2,0.8-1.7-1c-0.5-0.6-0.7-1.3-1-2.2
		c-2.3-13.4-10-9-0.8-19c-1-3.2-5-5.1-4.2-10.5l-3.4-2.1c-3.8-0.2-3.6-0.3-6.7-1.8c-3-1.5-3.6-1.1-7.2-1.7l-2.5-5
		c2.4-1.7,5.4-2.6,7.8-6.9c0.9-1.6,0.6-1.3,1.7-2.8c-1.8-3.5-1.2-5.9-1.8-9.8C542,570.9,540.6,573.1,542.6,576.8L542.6,576.8z
		 M592.9,568.9c1.3-6.8,2,1.2,10.5-10.3c1.8-2.4,1.9-4.3,4.2-6.1c3.3-2.5,3.7-2.8,6.5-0.4c-1.3,4.4-4.5,2.4-8.6,10.6
		c-2.7,5.3-1.3,1.5-4.5,4.9C600.9,567.6,600.3,571.6,592.9,568.9L592.9,568.9z M603.8,554.8c-3.6-1.5,0.4-1.9-2.9-2.4
		c-3.7-0.6,0.4,0.6-3.2,2.6l-0.5-1c-1.4-3.3-0.4-1.9-2.8-3.9c2.1-1.5,5.3-2.4,7.9-3.6c3.5-1.5,5.6-0.3,6.8,2.9
		c-1.4,1.2-2.4,1.3-3.3,2C603.5,553.3,605.6,552.3,603.8,554.8L603.8,554.8z M548.1,543.3l-6.2-1.5c0.7-1.9,2.3-5.9,4.8-6.5
		C550.1,537.3,547.4,538.4,548.1,543.3L548.1,543.3z M542.7,512.7l6,1.2c1.8-1.1,0.8-1.7,0.6-4c-0.1-2.2,0.2-3.3,1-4.6
		c2,2.3,3.6,7.6,2.6,10.8c2.1-1.2,3.7-2,6.1-1c0,0.1,0,0.2,0,0.4c-0.1,2-1.8,4-3.2,5.1l2.7,0.9c3,1.2,9.9,0,13.3-0.8
		c6.3-1.5,7.8-0.3,14.3-0.3c10.9,0,18.1-3.4,29.7-1.5c12.3,2,11,13.5,1.9,15.7c-5.9,1.4-9.5-1.5-14.6-1c-5.1,0.5-3,3.2-7.9,1.9
		l-3.6-0.1c-1.6-2.4,2.6-0.9-2.5-2.1c11.9-6.6,26.8,3.2,31.5-3.2c1.6-2.2,0.7-6-1.6-6.8c-2.4-0.8-1.9,0-2.5,0.2
		c1.7,2.4,3.6,1,2.9,5.6c-5.2,2.8-10.8,0.8-17.3,0.1c-9-1-9.9,1.4-17.4,2.8c1,1.8,1.7,1.5,2.5,2.5c1.8,2.2-0.5-0.4,0.2,2.3
		c1.6,0.1,3.2,0,4.6,0.5l1.4,0.6c4,1.3,5.7-1.6,8.9-2.4c4.6-1.2,10.5,2.7,16.9,0.5c0.8,3.7-0.5,7,0.9,9.9c1.9,3.8,3.5,2,2,7.9
		c-1.4,5.5-1.6,12-2.9,14.2c-1.4,2.4-1.3,0.5-1.5,4.4c-1.6,0.2-2.8,0.5-4.1,0.5c-3.2,0-3.4-1.5-3.5-1.6c2.7-3.7,0-0.9,3.2-3.2
		c4.9-3.4,3.1-15.6,2.1-17.6l-12.6-9.3c-3.8-1.8-4.4-0.1-4.9,0.4l5.2,1.3c-2.1,4.5-20.4,8-26.8,6.5c0.4-3.2,3-7.9,1.9-10.4
		c-2.8,1.9-3.4,9.9-4.1,13.5c-2.4,12.1-1.9,2.8-0.9,16.2c-4.3,2.7-2.2,5.3-9.5,3.7c-0.6-1.3-0.5,0.3-0.3-1.5
		c0.3-2.3,1.8-2.3,3.8-3.3l-0.8-21.4c-0.5-2.7-1-4.2-2.8-5.4c-0.7,1.4,1.2,6.2,1.3,9.3c-10.3-1.4-3.7-6.9-9.1-8.7l2.5,8.6
		c-5.2,4.9-2.4,3.5,0.2,6.7c2.6,3.2-0.4,0.4,0,4.4c1.6,0.9,0.6-0.4,0.9,1.4c0.1,0.5-0.2,1.8-0.3,2.2c-0.5,1.7-1.1,2.7-1.8,3.7
		c-1.2-1.2-1.7-1.5-2.5-3.4c-1.2-6.6-2-5.8-4.5-10.4c-2.3-4.2,1.8-6.8,3.6-9.1c-1.5-3.5-5-5.2-4.1-10.1c-0.9-0.3-1-0.2-1.9-0.8
		c-1.5-0.9-0.8-0.4-1.5-1.3c-7.4-0.4-2.6-1.7-14.1-3.6l-2.5-5.3c7.9-3.7,5.1-4.3,9.9-9.5c-2.8-3.3-1-5.5-2.4-9.7
		C542.5,506.9,539.8,508.4,542.7,512.7L542.7,512.7z M508,648.6c4.3-0.7,9.4-2.8,14.3-3.9c5-1.1,10.3-2.4,15.5-2.8
		c27.3-1.7,72.1,12.3,96.7-8c17.7-14.6,15.1-31.1,15.1-58.7c0-14.8,0.7-63-0.1-73.7l-141.2,0L508,648.6L508,648.6z"/>
	<path class="st5" d="M451.5,386.6c2,3.9,10.8,12.4,10.9,16c0.1,3-4.5,16.6-5.7,20.2c-4.4,13.1-9.2,25.1-14.5,37.1l-6.3-2.3
		c0.5,4.9,2.6,10.2,5.5,12.2c4,2.9,8.6,2,11.5-1.2c5.3-5.7,6.6-17.4,12-22.7c7.2-7.1,18.7-4.2,21.9,5c3.2,9.2-4.8,19.8-12.4,19.3
		c-1.8-1.2-3.5-3.7-4.7-5.8l2.8-2.1c10.5-6.7,3.4-15.7-3.8-10.6c-5.1,3.6-6.9,15.9-11,22.4c-8.8,14.2-31.6,6.7-32.7-19.2l-8.6,0.4
		c-1.6,6.8-2.2,20.3-15.2,24.9c-11.6,4.1-19.9-5.5-21.8-15.4c-1.9,1.2-6,5.8-7.6,7.7c-2.4,2.9-5.4,6.1-8,8.3l-5.3-4.5l5.1-6.8
		c-8.5-2.7-13.8-15-6.4-23.2c7.8-8.5,19.1-3.4,22.9,5.4c2.4-1.3,3.7-3.5,5.5-5.6c1.7-2,3.8-3.6,5.2-5.6c-3.6-8-6.8-18.4-9.3-27.1
		c-1.5-4.9-4-10.7-1.4-14.3l24.1-30.9c5.3-7,11-13.6,16.1-20.6c3.2,2.5,21.9,27.4,25.9,32.5c2.3-1.2,7.5-7.1,8.8-10.9l-1-0.3
		c-2.7-0.7-1,0.4-2.6-0.7c-1.4-1-0.9-1.3-1.1-3.3l5.1-1.4l0.4-4.3l-5.1,0.3l0.9-4.2c5.6-0.8,5.5,0.3,8.9-3.1
		c4.6-4.7,12.3-5.6,18-2.9c2.5,1.2,5.2,3.2,6.4,5.1c9.9,14.6-7.2,29-16.5,19.5l3.2-6.5c6.7,1.8,10.8-1.7,7.4-8.4
		c-2.7-5.2-9.7-5.5-13.6-0.5c-3.9,4.9-1.2,11.4-4.2,16.9C459.4,378.4,453.8,383.7,451.5,386.6L451.5,386.6z M349.9,484.8l141.5-0.3
		l-0.1-140.9l-2.4-0.2l-136.6-0.1l-2.4,0.3L349.9,484.8L349.9,484.8z"/>
	<path class="st3" d="M379.4,293.7c-1.6-1.8-1.5-4-4.8-4.1c-7.9-0.4-3.9,14.9,6.3,12.5c9.3-2.1,10.7-16.1-1.1-20.9
		c-11-4.5-21.2,3.9-19.2,15.1c1.4,7.8,11.8,15.9,17.4,19.3c16.4,10.1,39.7,12.2,60.3,5.7c18.5-5.8,32.7-17.6,38.8-15.9
		c4.4,1.3,4.7,7,2.8,9.4c-1.6,2.1-2.9,1-2.4-0.6c0.1-0.3,2.4-4.9-0.4-6.7c-11.1-2.7-10.5,13.4-3,16.7c12.8,5.7,23.1-15,10.4-24.1
		c-9.9-7.1-27.8,4-36.5,7.2c0.7-6.4,3.4-8.8,1.2-16.1c-1.5-5-4.3-8.8-6.8-12.9c-5.2-8.2-9.9-21.7-0.5-27.5c9.1-5.6,20.8,3.5,27.8,7
		c22.1,11.2,38.9,11.6,61.1-0.3c6.8-3.6,19.5-12.9,27.7-6.3c8.6,6.9,3.6,19.5-1.3,27.3c-7.7,12-8.9,12.4-5.5,28.5
		c-5.6-0.8-24.9-14.3-36-6.8c-2.8,1.8-6.1,5.5-6.5,9.8c-0.8,8.3,7.8,17.6,16.2,14.2c9.4-3.8,5.6-21.8-2.9-16.6
		c-3.2,2.9-0.6,4.9,0.3,7.9c-5.3-1-4.2-9.2,0.9-10.2c5.1-1,21.9,11.2,38.6,16.2c20.3,6.1,43.9,4.3,59.7-6.2
		c33.5-22.3,11-40.4-2.3-34.3c-11.3,5.2-10.3,17.9-1.6,20.7c5.1,1.7,10.1-2,10.7-6.2c0.5-3.1-0.4-5.5-2.7-6.1
		c-1.8-0.4-2.7-0.2-3.9,0.8l-1.8,2.5c-0.1,0.1-0.2,0.3-0.3,0.4c-1.2-2.4,0.3-4.3,2.6-5.3c7.6-3.2,12.6,8.1,5.2,14.1
		c-1.6,1.3-3.5,2.3-5.2,3.6c-6.2,4.7-10.7,7.3-18.8,9c-11.1,2.4-22.1,2.3-31.8-2.3c-22.5-10.6,3.9-29.2,1.6-53.3
		c-1.1-11-6.5-18.4-16.3-20.3c-20.1-4-33.4,16.6-56.2,17.2c-24.5,0.6-35.1-19.1-55.8-17.6c-10.6,0.7-17.2,7.8-18.8,18
		c-4.1,25.3,23.2,43.3,2.9,55.2c-8.4,4.9-20.7,5.6-31.4,3.5c-5.2-1-9.6-2.5-13.7-4.7c-5.6-3-20-12.6-14.1-20.7
		C373.5,285.6,382.2,289.1,379.4,293.7L379.4,293.7z"/>
	<path class="st3" d="M710.7,436.3c-2.1,7-16,5-22.2,2.6c-8.4-3.4-11.8-6.9-16.7-12.2c-4.6,3.5-5.6,21,19.9,25.9
		c10.7,2.1,22-1.7,27.7-9.9c0.9-1.3,1.7-2.4,2.3-3.8c1.3-2.9,0.6-3,2.4-4.3c3.2,5.2-15.9,31.3-45.7,15c-2.7-1.5-4.1-3.2-6.6-4.2
		c-3.5,6.6-4.1,12.3-0.5,20c2,4.2,4.7,8.3,8.7,10.3c1.7,0.8,3.3,0.7,4.7,2.3c-2.8,1.6-6.1-1.7-7.6-1.5c-4.2,0.4-18.4,23.3,1.4,38.1
		c2.9-2,3.8-5.3,6.6-7.1c2,4.1-14.7,13.1-16.5,36c-2.1,26.8,12.4,35.4,13.5,41.3c-4.3-1.8-11.7-15.5-12-17.9
		c-0.9,5.6-0.4,35.3-0.7,46.1l13.4-10.3c7.8-4.1,12.3-3.5,21.5-2.5c-28.6-20.1-32.5-68.1-8.1-97.1c3.8-4.5,6.9-5,11.7-8.7
		c-10.2-2.3-20.1-11.4-14.6-24.7c6.2-15,29.4-8.7,22.5,6.9c28.4-9.3,23.4-62.4-1-69.4c5.7,9.3,1.9,20.4-9.3,21.6
		c-10.6,1.2-18.3-7.9-18.3-18.8c0-4.1,1.1-6.3,2.2-9.4c-6.3,1.6-10.8-0.2-14.6-3.2c-3.8,4.4-7.1,7.5-6.1,16.5
		c1.2,11.4,12.2,20.2,22.5,23.6c2.9,1,6.4,1.8,9.7,1.7C705.4,439,707,437.1,710.7,436.3L710.7,436.3z"/>
	<path class="st3" d="M311.3,401c2,6.3,3.9,9.8,1.6,17.3c-5.6,17.4-31.2,15.8-29.9-6.5c-26.4,9.2-20.3,63.5,1.3,63.6
		c-2.7-17.3,14.7-18.3,22.1-7.1c2.9,4.4,4.1,11.9,1.3,17.6c-2.8,5.6-6.3,7.6-13,10.2c27.6,17.4,32.6,55.6,19.9,83.1
		c-3.2,7-10.7,17.4-16.4,19.8c1.1,0.6-0.5,0.4,2.3,0.7c2.9,0.3,10.6-1.7,18.1,3.4c3.5,2.4,3.9,4.8,6.4,6.5l7.6,5.4
		c-1.9-21-1.2-26.4-1.2-47.9c-2.2,2.5-7.3,15.9-13.7,18.4c-0.4-6,13.6-11.4,13.6-37.3c0-13.7-3.8-21.4-11-31.3c-2-2.8-5-5.9-6.1-8.3
		c4.1,2.3,3.7,3.8,6.8,6.2c8.6-3.1,13.5-19.3,7.9-30.1c-2.3-4.3-4.3-4.8-6.3-7.9l-5.3,0.6c0.1-0.1,0.3-0.2,0.4-0.3
		c0.3-0.2,1.5-1.1,2-1.4c11-7.4,15.1-23,8.8-29.8c-7.6,5.8-16.2,13.2-31.2,9.9c-14.2-3.1-22.9-17-21.1-20.5
		c2.3,2.9,8.4,22.1,31.7,18.4c9.1-1.5,19.5-8.3,22.7-16.1c1.9-4.6,0.4-7.1-1-10.4c-1.5,1-0.2,0.1-1.3,1.1
		c-8.5,8.1-17.3,16.3-32.8,11.8c-4.5-1.3-5.1-1.7-5.3-3.6c18.9,12.8,55.1-18.6,36.4-37.1C319.5,402.6,319.9,402.8,311.3,401
		L311.3,401z"/>
	<path class="st5" d="M397.4,645.1c4.4,0.3,13.1,1.1,17,0.3l0-144l14.9,0.1v142.4l16.6-2l0.1-140.2h-48.4L397.4,645.1L397.4,645.1z"
		/>
	<path class="st3" d="M682.5,645.1c-7.9-5,6.2-28.6,24-10.1c9,9.3,12.3,25.5,6.3,40.5c-17.3,43.5-88,31.4-125.3,33.9
		c-84.3,5.5-102.7,54.8-73.9,59.5c-1.9-15,1.7-21.8,9.6-29.5c5.4-5.4,18.8-13.9,25.6-14.8c-1,2.6-2.6,2.4-5.3,3.7
		c-12,5.9-27.5,14.7-28.7,30.5c-2,26.7,26.1,34.6,34.7,23.8c-5.8-2.5-6.4-1-11.2-5.8c-11.3-11.2-10.4-24.3-0.4-34.4
		c37.7-38.3,118.1-14.1,160.2-39.7c11.5-7,26.1-19.8,28.7-37.9c5.3-37.5-31.1-55.2-48.4-43.7c-22.3,14.8-1,42.7,13.6,29.9
		c7.7-6.7,0.2-21.4-8.9-13C682.1,642.1,683.6,643.2,682.5,645.1L682.5,645.1z"/>
	<path class="st3" d="M488.1,768.4c7.1-1.7,11.7-6.7,10.7-15.6c-0.9-7.6-6.6-12.6-9.9-16.5c-6.7-8-20-14.6-33.2-19.1
		c-33-11.3-61.4-6.9-96.9-8.7c-35.3-1.7-60.2-6.3-71.6-33.5c-5.9-14-1.9-32,6.4-40.3c16.2-16.1,31.3,3.2,26.2,10.6
		c-1,1.5,0.1,0.4-1.7,1.4c5.2-14.3-13.5-15.5-13.2-3.5c0.3,10.5,12.6,13.6,20.4,7.6c14.2-10.8,2.1-37.7-22.2-32.4
		c-30.7,6.7-47.2,52-5,81.8c42.4,30,123.2,2.2,164.4,42.3c11.4,11.1,10.1,27.4-0.1,35.3c-3.8,2.9-4.7,3-8.6,4.2
		c-0.3,0.1-1.3,0.4-1.6,0.5c-1.5,0.7-0.4-0.1-1.6,1c4.9,2.5,7.3,4.5,14.7,3.4c5.3-0.8,10-3.6,12.7-6.3c5.7-5.7,9.6-18.6,5.6-28.7
		c-5.2-13.1-19.9-20.1-31.5-25.5c-2.8-1.3-11.4-4.1-13.3-5.6c0.3-0.3-1.2-2.2,5,0.2c9.7,3.8,20.7,8.4,28.5,14.3
		C484.1,744,489.6,753.7,488.1,768.4L488.1,768.4z"/>
	<path class="st6" d="M453.1,303.1c7.2-3.6,22.6-10.3,31.3-5.5c3.2,1.8,7.9,7,9,11.4c2,8.2-1.6,12.2-4.7,16.1l25.6,0
		c-1.2-1.9-7.4-5.9-7.2-14.3c0.2-6.5,4.8-10.7,8.4-12.7c11-6.1,23.5,2.6,33.2,5.7c-2-16.2,0.8-15.6,7.3-27.1
		c3.6-6.3,10.3-22-0.9-24.2c-16.2-3.2-37,31.9-82.5,9.7c-6.2-3-17.7-11.6-25.6-9.6c-10.7,2.8-7.7,16.6-2.8,24.5
		C450.3,286.9,453.4,288.7,453.1,303.1L453.1,303.1z"/>
	<path class="st3" d="M558.3,768.3c-3.9,3.7-10.7,1.5-13.3-1.8c-4.8-6.1-4.2-20.8,12.9-20.5c5.3-8.1,18.6-14.7,32.1-17.4
		c36.6-7.3,88.3,2.1,125.2-23.7c10.7-7.5,16.2-13.6,22.5-27.2c5.4-11.6,7.7-28.5,3.1-41.6c-4.7-13.4-12.2-20.9-22.5-27.1
		c-4.9-2.9-10.8-6.1-17.2-7.2c-6.3-1-16.6,0.8-19.5,4.8c8.5-0.9,13.5-1.4,21.6,1.3l12.7,5.8c2.6,1.5,2.2,1.4,1.7,2.6
		c-1.6,0.1-5.8-3-8.3-4.2c-2.7-1.2-6.5-2.6-9.6-3.4c-19.3-5-44.5,5.8-32.1,34.8c0.1-6.2-1.4-9.2,2-15c8.1-14.4,23.9-15.6,37.7-8.4
		c14.3,7.6,26.4,26.2,20.4,49.4c-3,11.4-7.4,15.9-13.9,22.8c-35.3,37.9-96.6,17.8-146.1,34.7c-53.8,18.3-35.6,53.9-15.3,52.7
		c9.9-0.6,18.3-8.1,16.8-18.7c-1.2-9.1-12.1-18.1-20.7-11c-10.7,8.7,1.7,23.2,8.4,14.4c1.1-3.9-0.8-4.5-1.1-8.3
		C559.5,757.1,562.4,764.4,558.3,768.3L558.3,768.3z"/>
	<path class="st3" d="M282.3,616.6c1.8-3.5,11.4-7.8,15.9-9c9.4-2.6,12.9-2,22.1-0.4c-10.1-16.7-62.5,0.4-63.6,42.1
		c-0.9,36.1,23.6,57.7,51,66.9c43.3,14.6,97.7,2.2,125.5,21.4c3.9,2.7,5.1,4.3,7.9,7c3.5,3.3,5-0.2,10.8,3.4
		c13.4,8.4,2.8,27.6-8.3,19.9c-1.4-1-2.5-2.6-2.6-5.1c-0.4-6,2.1-4.7,2.3-4.8c0.6,1.7-0.5,3.3,0,6.8c11.1,7.8,17-8.9,7.7-15.3
		c-9.8-6.8-19.5,3.2-20.2,12.5c-0.8,10.7,8.3,17.9,18.6,17.7c18.3-0.3,27.4-26.3,5.9-41.2c-45.5-31.6-108-10.3-148.7-31.4
		c-14.2-7.3-29.8-19.8-34.3-37.8c-4.8-19.6,2.6-39.2,19.8-48.9c7.7-4.3,20.6-6.8,28.9-1.8c11.1,6.7,11.7,13.2,12.6,22.8
		c0.1-1.8,10.1-22.9-12.3-31.9C303.7,602.5,289.2,614.1,282.3,616.6L282.3,616.6z"/>
	<path class="st7" d="M438.6,449.1l-13.7-2.4l-0.1-80.4l27.8,35.2c2.2,3.1,0.9,4.9-1.3,12.3C448.1,423.8,439.5,444.9,438.6,449.1
		L438.6,449.1z M416.5,366.2l0,75.9c0,4.9-0.3,4.7-3.1,5.2l-10.2,1.8c-3.2-4.5-11-27.3-13.1-34.7c-3.5-12.4-3.7-9.7,1.8-16.9
		l17.5-22.6C412,371.7,414,368.6,416.5,366.2L416.5,366.2z M390.8,440.5l3,7.9l5,11.2l6.3-2c0,6.3-3.8,13-9.8,13.8
		c-6.4,0.8-9.7-6.2-11.7-11.2c-2.4,1.2-2.7,2.3-4.3,4.6c1.9,9.9,10.2,19.4,21.8,15.4c13-4.6,13.6-18,15.2-24.9l8.6-0.4
		c1.1,25.8,23.8,33.4,32.7,19.2c4-6.5,5.9-18.8,11-22.4c7.2-5.1,14.3,3.9,3.8,10.6l-2.8,2.1c1.3,2,3,4.5,4.7,5.8
		c7.6,0.6,15.6-10.1,12.4-19.3c-3.2-9.2-14.7-12.1-21.9-5c-5.4,5.3-6.7,16.9-12,22.7c-2.9,3.2-7.6,4-11.5,1.2
		c-2.9-2.1-5-7.3-5.5-12.2l6.3,2.3c5.3-11.9,10.2-23.9,14.5-37.1c1.2-3.6,5.7-17.3,5.7-20.2c-0.1-3.6-8.9-12.1-10.9-16
		c-1.5-1.1-3.9-4.9-5.4-6.4c-3.9-5.1-22.6-30.1-25.9-32.5c-5.1,7-10.8,13.6-16.1,20.6l-24.1,30.9c-2.6,3.6-0.1,9.4,1.4,14.3
		C384,422.1,387.2,432.5,390.8,440.5L390.8,440.5z"/>
	<path class="st3" d="M347.5,290.4c0,16.7,9.7,18.5,11.7,22.5c-9.3-4-13.4-11.9-13.4-23.9c0-5.9,3-9.2,4.2-12.9
		c-15.8-8.8-26.1,17.7-13.5,32.7c1.5,1.8,3.2,2.9,4.1,4.7c-5.1-3-8.7-7-10.6-13.9c-2.7-10.1,0.5-13.2,2.6-20.8
		c-6.3-2.3-11.7-3.7-17.2,1.3c-3.6,3.2-6.5,8.7-7.1,15.2c-1.9,19.7,13.9,26.9,15.4,29.8c-6.3-2.6-11.4-7.9-14.4-13.5
		c-3.8-7.2-3.1-15.7-1.1-23.9c-7.9,1.2-13.9,8.8-13.7,18.4c0.2,14.3,8,22.5,16,31.6c1.4,1.6,2.7,2.4,4.1,4
		c11.5,12.1,11,15.4,16.6,23.4l0.3-39.8l63.3-0.2c-7.6-4-17.1-4-30.2-18.3c-9.6-10.4-6.5-23.8,3.4-27.3c4.1-1.5,2.8-0.4,4.3-2.3
		c-4.1-2.3-8.9-8.9-16.8-3.3C350.8,277.1,347.5,282.6,347.5,290.4L347.5,290.4z"/>
	<path class="st3" d="M627.6,278.3c6.8,1.5,10.8,4,13.2,9.8c6.3,15.4-12.1,27.4-23.7,33.2c-2.9,1.4-6.2,2.1-8.7,3.6l61.1,0.2
		l0.4,37.4c4.8-6.1,2.5-5.7,12.9-17.7l7.5-8.1c7.5-7.9,16.4-18.7,15.9-31.4c-0.4-9.1-6.6-15.7-13.9-17.6c3,13.3,3.4,21.8-7.5,32.6
		c-1.7,1.6-6.1,6.3-8.6,4.8c1-1.7,4-3.5,5.7-5c2.1-1.8,3.7-3.7,5.4-6.2c11-16.4,1.1-44.7-19.9-34.8c3.2,6.2,5.8,11.6,3.5,20.5
		c-1.5,6-3.4,8.7-7.4,12.3c-2,1.7-1.7,2.4-4.3,2.1c0.9-2.7,12-9.1,9.6-24.5c-1.7-10.9-7.2-17.4-18.8-13.9c1,4.2,7.3,9.2,4.3,22.4
		c-1.7,7.4-7,14-13.2,15.8c0.9-4.9,5.4-3.6,9.2-11.7c5-10.8,1.5-25.9-8.1-29.5C635.4,270.2,629.2,274.7,627.6,278.3L627.6,278.3z"/>
	<polygon class="st5" points="568.3,484.8 589.6,484.8 589.6,343.5 568.2,343.5 568.3,484.8 	"/>
	<polygon class="st5" points="609.1,484.8 630.4,484.7 630.4,343.5 609.2,343.5 609.1,484.8 	"/>
	<polygon class="st5" points="527.4,484.7 548.7,484.8 548.7,343.5 527.4,343.5 527.4,484.7 	"/>
	<polygon class="st2" points="548.7,484.8 568.3,484.8 568.2,343.5 548.7,343.5 548.7,484.8 	"/>
	<polygon class="st2" points="589.6,484.8 609.1,484.8 609.2,343.5 589.6,343.5 589.6,484.8 	"/>
	<polygon class="st2" points="527.4,484.7 527.4,343.5 508.2,343.5 508.2,484.6 527.4,484.7 	"/>
	<polygon class="st2" points="630.4,484.7 649.7,484.8 649.7,343.8 630.4,343.5 630.4,484.7 	"/>
	<path class="st3" d="M295.8,470.7c8.8,7.2-11.4,22.4-28.6,5.4c-19.1-19.1-18.1-63.9,10.4-74.1c7.4-2.7,16.7-2.2,21.8,2.5
		c8.3,7.8-2.4,17.5-6.3,11c1.3-0.6,7.4,1.7,7.3-4.7c-0.1-3.8-3.3-6.5-7.5-5.8c-7.8,1.3-10.7,10.3-6.1,16.9
		c8.6,12.6,30.9-0.4,21.8-20.4c-5.8-12.9-22.7-16.4-38.2-8.8c-6.7,3.3-11.6,7.4-15.4,12.6c-4.2,5.9-7.3,10.1-9.8,18.1
		c-4.8,15.1-3.1,33.1,3.9,45.7c13.6,24.6,42.6,30.4,53.4,17.7c4.9-5.7,4.7-15.4-0.3-20.5c-5.1-5.1-15.4-5.2-16.6,3.7
		C284.2,480.4,298.8,481.6,295.8,470.7L295.8,470.7z"/>
	<path class="st3" d="M706.6,415.4c-0.5,5.2-14.7,0.5-6-11.8c3.9-5.6,13.9-7,22.1-4.5c12.3,3.7,21,17.7,23.8,32.6
		c4.3,22.7-4.8,52.3-30.7,52c-8.1-0.1-15.4-5.3-13.6-11c0.9-2.8,0.6-1.6,2.1-2.1c1.4,3.1-2.9,0.8,1.8,7.4
		c11.2,1.5,11.8-9.9,5.1-13.6c-7.5-4.2-15.3,1-16.9,7.7c-7,29,46.6,29.3,59.8-5.5c9.3-24.5,3.9-63-25.8-74.4
		c-6.6-2.5-14.8-4.7-22.6-2.5c-13.2,3.6-22.9,19.6-12.6,32.3c4.2,5.2,14.6,6.7,19.4,1c4.9-5.9,2.7-15.9-4.2-17.6
		c-4.1-1.1-7.7,1.5-8.5,5c-0.5,2.2,0.3,4.1,1.7,4.8C703.9,416.4,704.9,414.8,706.6,415.4L706.6,415.4z"/>
	<path class="st5" d="M461.1,641.8c5.9,0.4,11.9,1.7,17.2,3.1l-0.4-143.4h-16.9L461.1,641.8L461.1,641.8z"/>
	<path class="st5" d="M365.9,634.3c4.3,3.9,10.7,5.9,16.8,8.1l0-141l-17.3,0.1C367.2,508.6,364.4,616.6,365.9,634.3L365.9,634.3z"/>
	<polygon class="st2" points="414.5,645.4 429.4,643.9 429.4,501.5 414.5,501.4 414.5,645.4 	"/>
	<polygon class="st2" points="382.7,642.5 397.4,645.1 397.7,501.7 382.7,501.4 382.7,642.5 	"/>
	<polygon class="st2" points="446,641.9 461.1,641.8 461.1,501.6 446.1,501.7 446,641.9 	"/>
	<path class="st5" d="M558.4,521.6c-0.4,3.7-1.3,6.5-2.9,8.9c-1.5,2.4-2.9,4.2-5.7,5.4c-1,4.9,2.6,6.6,4.1,10.1
		c-1.8,2.2-5.8,4.9-3.6,9.1c2.5,4.6,3.2,3.8,4.5,10.4c0.1-0.1,0.3-0.5,0.4-0.4l3.3-3.4c-0.4-4,2.6-1.2,0-4.4
		c-2.6-3.2-5.4-1.8-0.2-6.7l-2.5-8.6c5.4,1.7-1.2,7.2,9.1,8.7c-0.1-3.1-2.1-7.9-1.3-9.3c1.7,1.1,2.3,2.7,2.8,5.4l0.8,21.4
		c-2,1-3.6,1-3.8,3.3c-0.2,1.8-0.3,0.2,0.3,1.5c7.3,1.6,5.2-1,9.5-3.7c-1-13.4-1.6-4.1,0.9-16.2c0.7-3.7,1.3-11.6,4.1-13.5
		c1.2,2.5-1.5,7.2-1.9,10.4c6.4,1.5,24.7-2,26.8-6.5l-5.2-1.3c0.5-0.5,1.1-2.2,4.9-0.4l12.6,9.3c1.1,2,2.8,14.1-2.1,17.6
		c-3.2,2.2-0.5-0.6-3.2,3.2c0.1,0.1,0.3,1.6,3.5,1.6c1.3,0,2.6-0.3,4.1-0.5c0.1-3.9,0.1-2,1.5-4.4c1.3-2.2,1.5-8.8,2.9-14.2
		c1.5-5.9-0.1-4.1-2-7.9c-1.5-2.9-0.2-6.2-0.9-9.9c-6.4,2.2-12.3-1.7-16.9-0.5c-3.2,0.8-4.9,3.7-8.9,2.4l-1.4-0.6
		c-1.4-0.4-3-0.4-4.6-0.5c-0.7-2.7,1.7-0.1-0.2-2.3c-0.8-1-1.4-0.8-2.5-2.5c7.5-1.5,8.5-3.8,17.4-2.8c6.6,0.7,12.1,2.7,17.3-0.1
		c0.7-4.6-1.2-3.2-2.9-5.6c0.6-0.3,0-1,2.5-0.2c2.3,0.8,3.2,4.5,1.6,6.8c-4.7,6.4-19.6-3.3-31.5,3.2c5.1,1.3,1-0.3,2.5,2.1l3.6,0.1
		c5,1.3,2.8-1.4,7.9-1.9c5.1-0.5,8.7,2.5,14.6,1c9.1-2.2,10.4-13.7-1.9-15.7c-11.6-1.9-18.8,1.5-29.7,1.5c-6.5,0-8-1.2-14.3,0.3
		C568.3,521.6,561.4,522.8,558.4,521.6L558.4,521.6z"/>
	<path class="st5" d="M558.7,585.7c-1.9,6.2-3.5,11.9-8.8,14c-0.8,5.4,3.3,7.3,4.2,10.5c-9.3,9.9-1.6,5.6,0.8,19
		c2.3-2.7,1.8-3,4.6-3.9c-3.7-2.2,1.3-0.1-0.7-3.7c-0.3-0.6-2.4-2.6-3.1-3.4c0.6-2.3,1.1-2.3,2.6-3.9l-2.6-8.4
		c3.5,0.5,2.1,2.9,3.5,5.8c1.2,2.4,2.3,1.9,5.6,2.7c0.4-4.2-1.3-5.7-1.7-9.1c2.2,0.1,1.7-0.4,2.7,2.5c0.5,1.4,0.7,3,0.9,4.6
		c0.4,3.2-0.3,5.6,0.4,8.4c3.3,13.5-3,9.7-4.2,15.7c6.9,0.8,6,0.5,8.2-2.2l2-1.9c-1.1-7.7,0.1-15.3,2.2-23c1.5-5.3,0.7-4.9,2.6-6.1
		c1.8,3.5-4,9.3-0.4,10.4c3,0.9-3-0.4,1.1,0.3c8.4,1.4,18.8-3.9,24.6-5.8c-0.9-1.2,0-0.6-1.6-1.4c-4.1-2-2.2,1.7-3.8-1.7
		c4.5-1.2,7.3,1.8,9.8,3.9c5.5,4.6,7.1,3.9,8,6.3c1.1,3.2,1.2,9.4,0.2,12.9c-1.5,5.4-5.8,4.2-5.5,7.8c0.6,0.3-0.2,0.2,1.7,0.6
		c6,1.3,5.1-1.6,6.5-3.7c0.7-1.1,1.1,0.1,1.7-4.4c2-16.7,4.5-11.3,0.2-18c-1.8-2.9-0.8-6.4-1.1-10.5c-6.6,1.5-7.8,0-13.6-0.7
		c-4-0.4-7,1.9-11.3,3.1c-4.4-1.2,0.7-0.8-3-1.4c-1.6-0.2-2,0-3.9-0.4c-0.8-2.5,0.4,0.6,0.1-1.2c-0.3-1.6-0.9-0.7-2.8-2.9
		c11.9-7.7,26.8,0.1,32.8-2.6c2.3-1,3.1-2.9,0.6-5l-1.4-0.9c-0.1-0.2-0.3-0.2-0.5-0.3c0.5-0.3-0.6-1.4,2.6-0.3
		c2.6,0.9,5.9,10.2-7.9,8.8c-3.9-0.4-7.6-1.3-11.5-1.5c-5.9-0.3-5.8,0.9-10.5,2.2c1,0.5,0.9,0.2,1.6,0.9l0.7,1.3
		c0-0.1,0.1,0.2,0.1,0.4c3.4-0.5,3-0.6,4.3,0.2c3.4,2.2-2.7-0.3,0.8,0.7c10.8-6.5,15.2,2.2,24.2-3c3.1-1.8,5.1-6,3-10
		c-4.5-8.7-29.5-3-37.8-2.9c-5.5,0-8-1.2-13.4,0.1C568.2,585.3,563.6,585.8,558.7,585.7L558.7,585.7z"/>
	<path class="st2" d="M365.9,634.3c-1.6-17.8,1.3-125.8-0.5-132.8l-15.5,0c-0.9,10.7-0.1,59.6-0.1,74.4c0,10-1,27.1,1.1,35.9
		C352.8,619.7,359.8,631.8,365.9,634.3L365.9,634.3z"/>
	<path class="st2" d="M478.3,645l13.1,3.6l0-146.4l-6.6-0.6c-2.3,0-4.6,0-6.9,0.1L478.3,645L478.3,645z"/>
	<path class="st3" d="M278.7,508.4c-0.9-2.6,1.7-5.3,4.1-6c15.2-4.7,46.4,50.6,8,87.6c-8.3,8-29.6,20.8-28.1,4.3
		c1.3,3.2,1.3,6,5.3,6.3c11.5,0.8,8-19.3-5.4-15c-12.7,4.1-10.3,26,7.9,24.2c9.8-1,26-11.6,30.5-16.4c30-31.8,16-88.5-11.6-97.3
		c-18.8-6-25.5,13.1-15.7,20.5c11.8,8.9,22.1-10,12.3-12.4C280.9,502.9,280.6,506,278.7,508.4L278.7,508.4z"/>
	<path class="st3" d="M737.3,593.5c1.5,5.4-1.8,9.6-7.7,8.9c-10.1-1.1-24.2-14.7-30.2-24.3c-20-31.9-0.5-74.2,14.7-76
		c6.6-0.8,9.5,7,7,5.9c-2.2-0.9-1.4-3.4-4.7-4c-2.8-0.5-5.3,0.9-6,3.3c-3.3,11.4,14.9,15.6,19.2,4.7c2-5.2,0-10.9-2.7-13.8
		c-2.9-3.1-9.1-4-14.7-2.9c-33.1,6.5-49.5,89.5,8,111.6c9.9,3.8,22.7,3.8,25.2-6.4c2.2-9.4-9.1-20.2-17.2-13.9
		c-7.3,5.7-1.5,16.6,5.4,12.9c1.7-0.9,1.2-0.8,1.8-2.9C736.5,592.7,734.4,594.6,737.3,593.5L737.3,593.5z"/>
	<path class="st2" d="M416.5,366.2c-2.5,2.4-4.5,5.4-7,8.6l-17.5,22.6c-5.6,7.2-5.4,4.5-1.8,16.9c2.1,7.4,10,30.2,13.1,34.7
		l10.2-1.8c2.8-0.6,3.1-0.3,3.1-5.2L416.5,366.2L416.5,366.2z"/>
	<path class="st2" d="M438.6,449.1c1-4.2,9.6-25.3,12.7-35.3c2.3-7.4,3.5-9.2,1.3-12.3l-27.8-35.2l0.1,80.4L438.6,449.1L438.6,449.1
		z"/>
	<path class="st3" d="M310,389c1.8-1.9,3.9-0.8,5.2-3.1c3.4-9-9.4-10.9-11.9-2.3c-2.3,7.9,3.3,13.4,9.5,15
		c13.4,3.4,30-19.9,7.4-47.5c-14-17.1-30.5-27.5-27-51.6c-10.6,1.9-14.4,13-8.9,24.3c1.7,3.5,9.2,13.2,12.1,16.5
		c6.3,7.1,28.9,24.7,23.9,41.5c-0.9,3.1-3,7.2-6.4,8c-0.2,0.1-1.6,0.2-1.8,0.2C311.1,389.6,312.7,390.9,310,389L310,389z"/>
	<path class="st3" d="M688.8,389c-3.8,2.1-8.4-2.9-10.2-6.9c-5.5-12.3,10.8-28.6,17.9-35.6c5.7-5.6,12.7-11.9,17.1-20.2
		c5-9.2,4.3-23.6-5.5-26.2c3.2,17-6.1,26.7-16.3,37.7c-2.3,2.4-4.6,4.2-6.9,6.7c-11,12.6-23.3,30.1-12.7,47.4
		c10.9,17.7,34.1-2.6,21.7-12.2c-3.2-2.5-7.8-1.8-9.3,1.3c-2.6,5.1,1.8,6.3,2.2,6.5C689,388.7,687.5,386.6,688.8,389L688.8,389z"/>
	<path class="st3" d="M703.2,403.7c9.3-1.6,19.3,4.6,23.5,9.2c12.1,13.4,12.9,40.2,4.7,53.4c-5.4,8.7-11.1,10.1-18.6,13.4l-2,1.1
		c4.3,2.6,12.1,1,16.9-1.2c23.8-11,22.6-54.9,5.4-72.3C726.9,401.1,711.6,395.1,703.2,403.7L703.2,403.7z"/>
	<path class="st8" d="M365.4,501.5l17.3-0.1l15,0.3h48.4l14.9-0.1h16.9c2.3,0,4.6,0,6.9-0.1l6.6,0.6l0,146.4l-13.1-3.6
		c-5.2-1.4-11.2-2.7-17.2-3.1l-15.1,0l-16.6,2l-14.9,1.5c-3.9,0.7-12.6,0-17-0.3l-14.7-2.6c-6.1-2.2-12.5-4.2-16.8-8.1
		c-6.1-2.6-13.1-14.7-15-22.5c-2.1-8.8-1.1-25.9-1.1-35.9c0-14.8-0.7-63.6,0.1-74.4L365.4,501.5L365.4,501.5z M492.9,650.7l0-150.5
		l-144.3-0.1c-0.9,6.4-0.2,63.6-0.2,75.2c0,22.9-3.5,44.5,15.4,59.9c26.1,21.2,70.5,6.4,98.2,8.5C476.5,644.7,487.2,650,492.9,650.7
		L492.9,650.7z"/>
	<path class="st8" d="M349.8,343.7l2.4-0.3l136.6,0.1l2.4,0.2l0.1,140.9l-141.5,0.3L349.8,343.7L349.8,343.7z M348.4,486l2.5,0.3
		l139.7-0.1l2.3-0.1l0-144L348.4,342V486L348.4,486z"/>
	<path class="st8" d="M527.4,343.5l21.3,0l19.5,0l21.4,0l19.6,0l21.3,0l19.2,0.2l0,141l-19.2,0l-21.4,0h-19.5h-21.3l-19.6,0l-21.3,0
		l-19.3-0.2V343.5L527.4,343.5L527.4,343.5z M506.6,486.1l2.6,0.2l139.4,0l2.5-0.2l0-143.8L506.6,342V486.1L506.6,486.1z"/>
	<path class="st8" d="M508.3,501.5l141.2,0c0.9,10.7,0.1,58.9,0.1,73.7c0,27.5,2.7,44.1-15.1,58.7c-24.7,20.3-69.4,6.3-96.7,8
		c-5.3,0.3-10.6,1.6-15.5,2.8c-4.9,1.1-10,3.2-14.3,3.9L508.3,501.5L508.3,501.5z M506.5,650.7c9.9-2.4,18.9-6.3,30.1-7.2
		c12.4-1.1,23.8,0.8,35.8,1.9c31.1,3,68.7,1.7,77.5-32.9c2.3-9,1.2-61.5,1.2-74.7c0-10.1,1.1-28.5-0.2-37.6l-144-0.1L506.5,650.7
		L506.5,650.7z"/>
	<path class="st3" d="M283.6,575.9l0,7.1c3.3-2.2,4.6-3.4,7-6.2c1.9-2.2,3.9-5.1,5.8-6.8c-1.8,7-8.3,11.8-13.3,15.6
		c-3.4,2.5-0.7,0.8-4.6,7.6c-1.2,2.1-0.8,2-1.4,4.4c6.7-2.2,14.4-10.2,18.1-14.9c4.8-6,8.7-13.2,11.1-22.2c5-18.5-3-42.7-13.2-51.9
		c-0.1,3.4-1.5,7.1-0.4,9.4c1.1,2.3,2.8,4.5,4,7.6c2.2,5.5,3.3,12.8,2.9,19.4C298.5,560,291.1,568.8,283.6,575.9L283.6,575.9z"/>
	<path class="st3" d="M481.4,781.2c2.1,3.8,5.6,6.6,8.5,9.2c1.9,1.7,7.9,6.1,10.9,5.5c6.2-1.2,14.5-10.3,18.4-15.4
		c-0.9-2-2.3-3.3-3.5-5.8c-1.9-4.4,0.1-2.8-4.6-4.3c-6.1-1.9-7-3.9-10.6-7.3c-2.4,4.1-5.4,6.9-10.4,8.7c-3.7,1.3-3.9,0.2-5.7,3.8
		C483.5,777.7,482.3,779.4,481.4,781.2L481.4,781.2z"/>
	<path class="st3" d="M723.8,598.3c-0.3-1.3-0.6-3.3-1.1-4.7c-2-5.3-4.6-6.8-9-10c-8.8-6.5-13.3-16.1-9.2-12.6l5.3,6.3
		c2.5,2.5,4.4,5.6,8.3,6.9c-2.2-7.7-0.6-6.9-3.4-9.7c-3.2-3.1-3.5-3.1-6.1-6.8c-10.9-15.2-10.8-37.5-1.2-50c2.2-2.9,2.5-2.6,0.7-8.1
		l-0.4-1.1c-4.8,6.7-8.9,12.1-11.7,22.3c-2.6,9.6-4.1,19.5-1.8,29.5c2.6,11.2,11.1,25.1,19.4,31.6
		C715.6,593.4,721.3,597.4,723.8,598.3L723.8,598.3z"/>
	<path class="st2" d="M446.2,380.2c1.5,1.6,3.8,5.3,5.4,6.4c2.3-2.9,7.9-8.2,9.5-11.2c3-5.5,0.3-12,4.2-16.9
		c3.9-4.9,10.9-4.7,13.6,0.5c3.5,6.7-0.6,10.2-7.4,8.4l-3.2,6.5c9.2,9.5,26.4-4.9,16.5-19.5c-1.2-1.8-4-3.9-6.4-5.1
		c-5.7-2.7-13.4-1.7-18,2.9c-3.4,3.4-3.3,2.3-8.9,3.1l-0.9,4.2l5.1-0.3l-0.4,4.3l-5.1,1.4c0.1,1.9-0.3,2.3,1.1,3.3
		c1.6,1.1-0.1,0,2.6,0.7l1,0.3C453.6,373.1,448.5,379,446.2,380.2L446.2,380.2z"/>
	<path class="st3" d="M291.6,480.5c-2.8-1.1-3-1.4-5.2-2.6c-2.8-1.7-3.7-0.4-7.4-1.5c-3.6-1-7.6-5.6-9.4-8.3
		c-12.4-18.6-9.8-52.4,11.9-60.1c3.3-1.2,3.5-0.8,6.2-2.7c1.9-1.3,3.3-2.1,5.6-2.4c-20.5-5.9-37.9,14.7-37.4,38.3
		C256.3,462.7,270.1,488.5,291.6,480.5L291.6,480.5z"/>
	<path class="st7" d="M363.5,469.4c2.7-1.5,4.5-4.1,6.2-6.5c-14.1-7.4-1-20.7,6.3-6.8c1.3-1.1,3.4-2.5,4-4.4
		c-3.8-8.8-15.1-14-22.9-5.4C349.7,454.4,355,466.7,363.5,469.4L363.5,469.4z"/>
	<path class="st2" d="M380,451.7c-0.6,1.9-2.7,3.3-4,4.4c-1.8,3.3-3.6,4.2-6.3,6.8c-1.7,2.4-3.5,5-6.2,6.5l-5.1,6.8l5.3,4.5
		c2.7-2.1,5.7-5.4,8-8.3c1.6-1.9,5.7-6.5,7.6-7.7c1.5-2.3,1.9-3.4,4.3-4.6c1.5-3.1,8.1-8.6,10.1-11.7l-3-7.9
		c-1.4,1.9-3.5,3.5-5.2,5.6C383.8,448.2,382.5,450.4,380,451.7L380,451.7z"/>
	<path class="st5" d="M540,515.5c-4.8,5.2-2,5.8-9.9,9.5l2.5,5.3c11.5,1.9,6.6,3.2,14.1,3.6c3.5-1.9,5.9-5.3,7.2-9.2
		c0.2-0.6,0.4-1.5,0.7-2.1c0.9-1.8,0.4-0.9,1.3-1.8c1.4-1.1,3.1-3.1,3.2-5.1c0-0.2,0-0.3,0-0.4c-2.4-1-4-0.2-6.1,1
		c-2.8,2-5.1,1.7-4.2-2.2l-6-1.2C542,515.2,542.5,514.4,540,515.5L540,515.5z"/>
	<path class="st5" d="M539.6,579.3c-1.1,1.5-0.8,1.2-1.7,2.8c-2.4,4.3-5.4,5.2-7.8,6.9l2.5,5c3.5,0.6,4.2,0.2,7.2,1.7
		c3.1,1.6,2.9,1.7,6.7,1.8c3.3-2,5.8-5.2,7.2-9.1c1-2.8,0.5-3,2.3-3.8c1.1-2.2,3-3.1,3.2-5.7c-2.9-0.8-4.5,0-6.5,1.1
		c-2.4,1.2-5.7,1.6-4.3-2.2c-2.2-1.1-3.1-1.4-5.9-1C541.4,578.9,541.7,578.5,539.6,579.3L539.6,579.3z"/>
	<path class="st4" d="M443.5,684.2c4.9,5.8,5.2,17,8.7,24.2c2.4-1.9,4.6-7.9,6.2-11.3c1.6-3.2,3.2-9.9,7.3-9.7
		c2.6,2.4,1.7,7.8,1.7,11.6c-0.1,6.9,0.5,5.5-2.9,9.6l7.8-0.1c-3.8-3.7-4.3-1.8-3.4-17c4.3,2.9,12.3,16.2,15.7,17.4
		c0.4-10.7-1.5-19.2,2.7-22.8l-7.4-0.3c0.1,0.2,0.3,0.3,0.4,0.4c2.6,2.5,3.2,1.4,3.2,5.8c0,3.1-0.2,6.3-0.2,9.5
		c-1.8-0.9-8-9.1-9.7-11.2c-3.1-3.8-3.3-5.9-15.8-4.9c1.9,1.9,2.6,0.4,2.5,3.8c-0.1,2.4-4.6,10.5-5.9,13.2c-1.7-2.2-1.4-2.9-3.1-8.9
		c-2.5-8.7-0.9-6.7,0.4-8.9L443.5,684.2L443.5,684.2z"/>
	<path class="st5" d="M383.7,460.2c2,5.1,5.3,12,11.7,11.2c6-0.7,9.8-7.4,9.8-13.8l-6.3,2l-5-11.2
		C391.8,451.6,385.2,457.1,383.7,460.2L383.7,460.2z"/>
	<path class="st4" d="M334.4,680.6c2.5,0.8,12.6-14.9,18.6-17.1c2.8,3.5,2.4,2.5-0.3,10.7c-1.6,4.9-1.3,7.8-5.2,10.5l8.1,2.8
		c-3.4-4.2-1.3-6.3,0.2-11.5l5.2-10.4l-15-4.9l1.2,2c0.6,1.8,1.4,1.7-2.9,6.6c-1.3,1.5-5.3,5.9-6.9,6.7l0.3-14.4
		c0.9-3.9,0.3-0.6,2.5-3.5l-7.7-2.5C335.7,664.1,332.6,674.7,334.4,680.6L334.4,680.6z"/>
	<path class="st3" d="M639.5,664.4c-2.5,1.1-3.5,0.9-3.8,4.7c-0.5,6,4.5,16.9,11.9,14C655.4,680.1,648.4,660.4,639.5,664.4
		L639.5,664.4z"/>
	<path class="st3" d="M569.6,681.7c-7.8,3.6-1.5,23.5,7.4,19.1C584.7,697.2,578.8,677.5,569.6,681.7L569.6,681.7z"/>
	<path class="st3" d="M531.5,325.1l35.7,0c-5.2-2.4-11.9-3.6-17.7-6.3c-4.4-2-12.6-6.8-16.3-7.9
		C535.8,318.4,534.3,319.7,531.5,325.1L531.5,325.1z"/>
	<path class="st4" d="M664.8,664.3c-1.3,0.9-2.4,1.8-4.7,2.1C651.1,654.8,665.8,654.2,664.8,664.3L664.8,664.3z M650,659.3
		c4.1,3.5,1.5-3.8,6.7,9.2c3.4,8.4,2.8,5.4,2.3,11.9l7.9-3c-0.1-0.1-0.4-0.3-0.5-0.2l-1.9-0.9c-1.6-1-0.7,0.3-1.8-2.2l-1.5-4.5
		c-0.2-2,0-1,0.1-1.5c6.5-2,8.8,11.9,15.2,4.4l-1-0.4c-0.1,0-0.4-0.1-0.5-0.2c-4-1.6-3-3-8.3-6c0,0,4.4-10-3.8-10.7
		C660.4,655,652.3,658.4,650,659.3L650,659.3z"/>
	<path class="st4" d="M596.1,685.3c-1.5,0.9-2.9,1.7-5.3,1.5c-1.2-2.7-3.4-8.3,0-8.9C595.1,677.1,596.8,681.2,596.1,685.3
		L596.1,685.3z M596,698.3c-0.7-0.5-4.2-1.4-4.4-7c-0.1-2.4-0.3-1.3,0.8-2.6c5.3-1.5,7.7,13.7,14,6.3l-3.1-1.7
		c-2.4-1.8-3.3-4.6-5.8-6.2c0.9-2.8,2.8-3.1,1.9-6.9c-1.6-7-12.3-3.5-17.3-1.6c1.6,1.7,2.7,0.2,3.8,4.2c1.7,6.3,4.5,14.2,1.8,17.4
		C589.9,700.4,594.3,699.4,596,698.3L596,698.3z"/>
	<path class="st4" d="M366.9,678.2c-0.4-2.2,1.2-6.4,2-8.5c6.2,0.7,5.5,4.4,4,9.1C370,679.4,369.4,679.3,366.9,678.2L366.9,678.2z
		 M357.3,687.9c1.7,1.2,5.8,2.3,8.2,2.5c-0.1-0.2-3.8-2.7,0.1-9.4c0.7-1.1,0-0.4,0.9-1.1c3.1,0.9,2.7,1.9,3.2,5.6
		c0.6,3.7,0.6,4.7,2.3,7.2l4.3,0.4c-2.3-4.9-2-1.3-3.6-11.8c0,0,9.4-5.1,3.1-10.6c-1.9-1.7-10.2-4.4-12.9-4.1
		c3.5,3.5,0.7,9.5-1.9,17.2C359.7,687.3,359.8,686.2,357.3,687.9L357.3,687.9z"/>
	<path class="st9" d="M518,709.2l7.6-0.7l-3-2.3c-0.6-5.9,2.8-6.8,8.2-5.7c2.4,4,1.8,4.2,0.7,6.5l8.4,0.2c-0.5-0.9-1.6-0.5-3.8-5.1
		l-9.1-17.2c-2,2.1-4.9,13.8-6.3,18.1C519.6,706.2,518.8,707.1,518,709.2L518,709.2z"/>
	<path class="st4" d="M569.6,681.7c9.1-4.2,15.1,15.4,7.4,19.1C568.1,705.2,561.8,685.3,569.6,681.7L569.6,681.7z M563.1,693.5
		c2.1,14.8,23.2,12,20.4-4.7C581,674.4,560.7,677.2,563.1,693.5L563.1,693.5z"/>
	<path class="st4" d="M639.5,664.4c8.9-4,15.8,15.7,8.1,18.7c-7.4,2.8-12.4-8-11.9-14C636,665.3,637,665.5,639.5,664.4L639.5,664.4z
		 M641.5,662.1c-6.3,1.5-10.1,5.9-8.2,14.1c1.4,5.8,5.7,10.8,13,8.8C659.6,681.4,653.8,659.1,641.5,662.1L641.5,662.1z"/>
	<path class="st3" d="M439.8,324.9l31.1,0c-3.5-3.7-4.3-5.8-4.3-11.6c-4.2,1.5-8.7,4.5-13.2,6.3
		C449.4,321.3,443.3,323.1,439.8,324.9L439.8,324.9z"/>
	<path class="st3" d="M723,590.7c2.3-2.9,2.7-4.9,6-6.5c4.1-1.9,8-0.2,11.8,0.9C739.1,568.6,715.4,574.6,723,590.7L723,590.7z"/>
	<path class="st4" d="M552.4,684.4c6.5-2.5,7.3,1.5,9.1,2.3l-0.8-4.9l-15.4,2l3.4,2l1.1,19.8c0,0.1-0.2,0.5-0.2,0.4
		c0-0.1-0.2,0.2-0.3,0.4l8.8-1.2l-2.1-1.3c-2.1-1.6-4.9-11.1,1.3-9.6c3.1,0.7,0.8,1.2,3.6,2.7l-1.5-7.9c-2.4,2.5-0.8,4-6.2,3.2
		L552.4,684.4L552.4,684.4z"/>
	<path class="st3" d="M259.1,585.1c3.5-1.5,7-2.9,11.2-1.3c3.9,1.5,4.2,4.8,7,6.4C283.2,572.9,260,570.1,259.1,585.1L259.1,585.1z"
		/>
	<path class="st4" d="M499.7,692.3c3.9-2.8,0.1-5.4,7.9-3.6l0.3,10.3c0.2,13.2-1.6,5.9-3.1,10l10.2-0.2c-0.9-2.2-5.7,0.6-3.5-20.7
		l5.5-0.1l1.7,3c0.8-1.7,0.3-3,0.1-5C497,686,500,684.9,499.7,692.3L499.7,692.3z"/>
	<path class="st4" d="M600.7,674.2l0.8,5.7c0.4-0.2,0.5-0.6,0.5-0.5l1-3.7l5.3-1.3c1.1,3.9,2.1,7.5,3,11c1.2,4.8,2.7,6.5-1,9.2
		c2.6,0.6,2.4,0.1,4.9-0.5c0.7-0.2,2.1-0.5,2.7-0.7c0.2-0.1,0.8-0.3,1-0.4c1-0.5,1-0.5,1.4-0.8l-3.7-1.1l-4.7-17.7
		c6.8-2.8,6.2,0,8.4,1.2c-0.4-2.4-0.9-2.8-1.4-5L600.7,674.2L600.7,674.2z"/>
	<path class="st4" d="M382.1,673.8l4.9,1.4c0,4-3,14.1-4,18l-3.4,1.3l10.1,2.4c-1.5-2.7-2.6-1-2.6-4.6l4.1-16.2
		c7.5,0.6,5,3.8,6.9,4.6l0.4-5l-17.9-4l-1.6,5.8L382.1,673.8L382.1,673.8z"/>
	<path class="st4" d="M405.9,700.8c1.3-1.2,5.7-8.2,7.1-10.4c1.1-1.8,2.3-3.8,3.4-5.4c1.5-2.3,2.7-3.1,4-5.2l-6.8-1
		c0.8,1.8,4.5,1.5-0.3,8.6c-1.4,2.1-3.6,6.4-5.4,7.9c-1.1-2.2-1.4-6.8-1.8-9.4c-0.8-4.5-1.2-4.8,0.1-7l1-1.5l-8.1-1.3
		c1.2,2.5,1.5,0.8,2.4,4.8c0.5,2.4,0.8,4.7,1.3,6.9C403.6,691.8,403.7,698.2,405.9,700.8L405.9,700.8z"/>
	<path class="st4" d="M419.7,701.6c11.4,7.7,16.8-5.6,10.3-10.4c-1.7-1.2-9.3-5.3-4.4-8.5c4.9-3.2,7.3,5.9,7.5,6.2l0.6-1.6
		c0.8-2.7-0.4,2.1,0.3-1.2c0.2-0.9,0.1-1.7,0.4-2.5c-1.2-1,0.3,0-1.4-0.8c-9-4.3-12.5,0.1-11.4,5.8c1,4.9,13.7,8.1,6.9,13.2
		c-5.9,3.3-6.9-3.5-8.1-6.9C419.1,696.6,419.7,699.1,419.7,701.6L419.7,701.6z"/>
	<path class="st10" d="M592.9,568.9c7.4,2.7,8-1.3,8-1.3c3.2-3.3,1.8,0.4,4.5-4.9c4.1-8.2,7.3-6.2,8.6-10.6c-2.7-2.4-3.2-2-6.5,0.4
		c-2.3,1.7-2.4,3.7-4.2,6.1C595,570,594.2,562,592.9,568.9L592.9,568.9z"/>
	<path class="st5" d="M369.7,463c2.7-2.7,4.5-3.6,6.3-6.8C368.8,442.3,355.6,455.5,369.7,463L369.7,463z"/>
	<path class="st4" d="M489,686.2c0.7,0.9,0.1,0.2,0.8,0.9c1.6,1.6,1.7,0.9,2,3.6c0.2,1.6,0,5.1,0,6.9c0,5.5,1.1,7.6-2.1,11.4
		l8.8,0.2l-2.8-2.1c-0.4-3.9-0.2-7.7-0.2-11.6c0.2-11.3,0.7-5.9,2-9.3L489,686.2L489,686.2z"/>
	<path class="st4" d="M620.1,668.9c2.1,1.8,2.9,0,4.2,3.5c0.6,1.5,1.2,4.7,1.7,6.4c1.4,4.9,3.2,7.6,1.2,11.7l8.3-2.1
		c-4.8-3.2-3.1-0.1-5.6-9.4c-1.3-4.7-3.3-8-1.3-12.3L620.1,668.9L620.1,668.9z"/>
	<path class="st3" d="M719.6,582.6c1.9-3.6,2.4-5.5,5.8-7.5c3.3-1.9,6.5-1.7,10.1-0.8C731.8,563.5,713.5,569.8,719.6,582.6
		L719.6,582.6z"/>
	<path class="st5" d="M596.1,629.2l4.4,2.2c2-3,1.8,0,4-3.1c1.1-1.4,1.3-3.1,2.7-4.8c2.5-3.3,6.2-4.6,6.9-8.4
		c-8.6-3.6-9.1,8.1-15.1,12.4c-1,0.7,0,0-1.4,0.8L596.1,629.2L596.1,629.2z"/>
	<path class="st3" d="M322.9,517.7c2.3,1.8,4.8,6.8,6.2,9.9l2.1,3.6l0.1-22.7c-1.8,1.6-1.9,2.6-3.9,4.6L322.9,517.7L322.9,517.7z"/>
	<path class="st3" d="M264.2,574.3c4.2-0.6,6.1-1.6,10.3,0.5c4.2,2.2,3.4,3.7,6.2,7.1C284.3,568,267.6,565,264.2,574.3L264.2,574.3z
		"/>
	<path class="st3" d="M669.8,529.6c3.4-6.8,7.1-11.5,7.9-13.4c-4.1-3.1-4.7-3.9-7.9-7.7L669.8,529.6L669.8,529.6z"/>
	<path class="st5" d="M603.8,618.5c2.5-3.3-0.4-2.8,5.7-5.2l-3.5-4.1c-3.8,0.4-8.1,3.1-12.1,4.4c4.8,3.2,1.3,1.7,3.8,4.9
		c3.7-1.5-0.8-2.9,3.3-2.4C604.4,616.6,600,617.1,603.8,618.5L603.8,618.5z"/>
	<path class="st5" d="M603.8,554.8c1.8-2.5-0.2-1.5,2-3.4c0.9-0.8,1.9-0.9,3.3-2c-1.2-3.2-3.4-4.4-6.8-2.9c-2.6,1.1-5.8,2.1-7.9,3.6
		c2.3,2,1.4,0.6,2.8,3.9l0.5,1c3.6-1.9-0.5-3.1,3.2-2.6C604.2,552.9,600.1,553.3,603.8,554.8L603.8,554.8z"/>
	<path class="st11" d="M546.5,533.8c0.8,0.9,0,0.4,1.5,1.3c0.9,0.6,1,0.4,1.9,0.8c2.7-1.2,4.1-3,5.7-5.4c1.5-2.4,2.5-5.2,2.9-8.9
		l-2.7-0.9c-0.9,0.9-0.4,0-1.3,1.8c-0.3,0.6-0.5,1.4-0.7,2.1C552.4,528.5,550,531.9,546.5,533.8L546.5,533.8z"/>
	<path class="st11" d="M546.5,597.5l3.4,2.1c5.3-2.1,6.9-7.8,8.8-14l-2.6-1.1c-1.8,0.8-1.3,1-2.3,3.8
		C552.3,592.3,549.8,595.5,546.5,597.5L546.5,597.5z"/>
	<path class="st3" d="M366.9,678.2c2.5,1.1,3.1,1.2,6,0.5c1.6-4.7,2.2-8.4-4-9.1C368.1,671.8,366.5,676,366.9,678.2L366.9,678.2z"/>
	<path class="st3" d="M660.2,666.4c2.3-0.4,3.4-1.2,4.7-2.1C665.8,654.2,651.1,654.8,660.2,666.4L660.2,666.4z"/>
	<path class="st3" d="M590.8,686.7c2.4,0.2,3.8-0.5,5.3-1.5c0.7-4.1-1-8.2-5.2-7.4C587.5,678.4,589.7,684,590.8,686.7L590.8,686.7z"
		/>
	<path class="st11" d="M548.5,577.8c-1.4,3.8,1.9,3.4,4.3,2.2c0.8-3,1-3.2-0.3-5.9c-2.2-4.8-0.5-3.4-2.6-5.1c-1.1,2.3-1,2.5-0.6,5.4
		C549.9,578.9,549.1,577.3,548.5,577.8L548.5,577.8z"/>
	<path class="st11" d="M548.6,514c-0.9,3.9,1.4,4.2,4.2,2.2c1-3.2-0.6-8.5-2.6-10.8c-0.8,1.3-1.1,2.4-1,4.6
		C549.4,512.3,550.4,512.9,548.6,514L548.6,514z"/>
	<path class="st11" d="M548.1,543.3c-0.7-4.9,2-6-1.4-8c-2.5,0.7-4.1,4.6-4.8,6.5L548.1,543.3L548.1,543.3z"/>
	<path class="st11" d="M548.3,599.4l-3-0.2c-1.4,1.6-0.7,1-1.6,3c-0.3,0.7-0.6,1.3-1,1.8c0,0,0,2.2-0.7,0.9
		c-0.1-0.1-0.2,0.3-0.4,0.6l6.1,1.5L548.3,599.4L548.3,599.4z"/>
	<path class="st11" d="M540,515.5c2.5-1,2-0.3,2.7-2.7c-2.9-4.3-0.1-5.8-5.1-7C538.9,510,537.1,512.1,540,515.5L540,515.5z"/>
	<path class="st11" d="M539.6,579.3c2-0.8,1.8-0.4,3-2.5c-2-3.7-0.6-5.9-4.8-7.3C538.4,573.5,537.8,575.8,539.6,579.3L539.6,579.3z"
		/>
	<path class="st11" d="M554.8,629.2c0.3,0.9,0.5,1.6,1,2.2c1.5,1.8-0.1,0.4,1.7,1c1.8-2.2,1.9-3.9,1.9-7
		C556.7,626.1,557.2,626.4,554.8,629.2L554.8,629.2z"/>
	<path class="st11" d="M600.5,631.4l-4.4-2.2c-1.4,0.4-4.2,2.4-2.2,3.5c0.6,0.3,3.1,0.5,3.8,0.4
		C600.9,632.8,599.8,632.8,600.5,631.4L600.5,631.4z"/>
	<path class="st11" d="M554.9,565.5c0.7,2,1.3,2.2,2.5,3.4c0.7-1,1.3-2,1.8-3.7c0.1-0.4,0.4-1.7,0.3-2.2c-0.3-1.8,0.7-0.5-0.9-1.4
		l-3.3,3.4C555.2,565,555,565.4,554.9,565.5L554.9,565.5z"/>
</g>
</svg>
