<?xml version="1.0" encoding="utf-8"?>
<!-- Generator: Adobe Illustrator 28.0.0, SVG Export Plug-In . SVG Version: 6.00 Build 0)  -->
<svg version="1.1" xmlns="http://www.w3.org/2000/svg" xmlns:xlink="http://www.w3.org/1999/xlink" x="0px" y="0px"
	 viewBox="0 0 1000 1000" style="enable-background:new 0 0 1000 1000;" xml:space="preserve">
<style type="text/css">
	.st0{clip-path:url(#SVGID_00000143610493011357860290000010107020381800836009_);fill:#82D2F5;}
	.st1{clip-path:url(#SVGID_00000143610493011357860290000010107020381800836009_);fill:#EFEFEF;}
	.st2{display:none;}
	.st3{display:inline;}
	.st4{fill:#67D3F9;}
	.st5{fill:#BBF2FF;}
	.st6{fill:#00A2E2;}
</style>
<g id="Layer_3">
</g>
<g id="Layer_1">
	<g>
		<defs>
			<circle id="SVGID_1_" cx="500" cy="500" r="499.5"/>
		</defs>
		<clipPath id="SVGID_00000131362293422769706970000009213842610030552980_">
			<use xlink:href="#SVGID_1_"  style="overflow:visible;"/>
		</clipPath>
		
			<rect x="-11.6" y="491.2" style="clip-path:url(#SVGID_00000131362293422769706970000009213842610030552980_);fill:#82D2F5;" width="1067.9" height="537.3"/>
		
			<rect x="-11.6" y="-6.7" style="clip-path:url(#SVGID_00000131362293422769706970000009213842610030552980_);fill:#EFEFEF;" width="1067.9" height="498"/>
	</g>
</g>
<g id="Layer_2" class="st2">
	<path class="st3" d="M925,482.9H792L660.4,250c-2.2-4-6.4-6.5-10.9-6.5c-4.5-0.1-8.8,2.2-11.2,6l-31.6,51.1l-99.3-154.1
		c-0.3-0.3-0.5-0.4-0.6-0.5h0c-0.9-1.3-2.1-2.4-3.5-3.3c-0.5-0.3-1-0.5-1.5-0.7c-1.3-0.6-2.8-1-4.2-1.2c-0.4,0-0.6-0.3-1-0.3
		c-0.4,0-0.8,0.1-1.2,0.1h-0.5c-0.1,0-0.4,0.1-0.5,0.1c-1.5,0.3-3,0.8-4.3,1.5c-0.1,0-0.3,0.1-0.4,0.3v0c-1.1,0.7-2.1,1.6-3,2.5
		c-0.1,0.4-0.4,0.5-0.6,0.9c-0.1,0.1-0.3,0.4-0.4,0.5l-138,222.9L326.5,344c-2.6-3-6.4-4.7-10.4-4.5c-4,0.1-7.7,2.1-10,5.4
		l-97.3,138H75c-7.1,0-12.9,5.7-12.9,12.9c0,7.1,5.8,12.8,12.9,12.8h130.4L273,785.9c1.3,5.3,5.9,9.3,11.3,9.8
		c5.5,0.4,10.6-2.7,12.9-7.6l42.6-93.3L372.4,849c1.1,5.4,5.6,9.5,11,10.2c5.5,0.7,10.8-2.2,13.1-7.2l25.9-53.6l41.8,207.1v0
		c1.2,5.8,6.2,10.1,12.1,10.3h0.5c5.6,0,10.6-3.7,12.3-9.1L557,780.9l6.2,10.2l0,0c2.2,3.7,6.1,6,10.4,6.3c4.4,0.3,8.6-1.8,11-5.4
		l206.5-283.3H925c7.1,0,12.9-5.8,12.9-12.9C937.9,488.7,932.1,482.9,925,482.9L925,482.9z M240.2,482.9l77.2-109.5l21.9,26.3
		c2.6,3.2,6.6,4.8,10.7,4.5c4.1-0.2,8-2.4,10.1-6l128.5-207.5l8.6,62.5l-62,149.2c-1.7,3.9-1.3,8.5,1.1,12c2.4,3.6,6.4,5.8,10.6,5.8
		h46l23.5,62.8L240.2,482.9z"/>
</g>
<g id="Layer_4">
	<polygon class="st4" points="186.9,491.5 299.5,333.4 339.4,386.1 496.8,127.5 617.2,312 662.8,229.4 813.5,491.5 	"/>
	<polygon class="st5" points="496.8,127.5 513.2,247.9 434.8,418.9 503.2,418.9 534.6,491.5 186.9,491.5 299.5,333.4 339.4,386.1 	
		"/>
	<polygon class="st6" points="186.9,491.5 266.7,791.8 329.4,667.9 376.4,871.2 423.4,775.6 480.4,988.4 558.8,770.2 584.4,801.7 
		813.5,491.5 	"/>
</g>
</svg>
