<?xml version="1.0" encoding="utf-8"?>
<!-- Generator: Adobe Illustrator 28.0.0, SVG Export Plug-In . SVG Version: 6.00 Build 0)  -->
<svg version="1.1" id="Layer_1" xmlns="http://www.w3.org/2000/svg" xmlns:xlink="http://www.w3.org/1999/xlink" x="0px" y="0px"
	 viewBox="0 0 1000 1000" style="enable-background:new 0 0 1000 1000;" xml:space="preserve">
<style type="text/css">
	.st0{clip-path:url(#SVGID_00000180329786218156667240000014716693359534120340_);}
	.st1{fill:#FFFFFF;}
	.st2{fill:#FFD100;}
	.st3{fill:#005EB8;}
	.st4{fill:#EF3340;}
</style>
<g>
	<defs>
		<path id="SVGID_1_" d="M500,999.5L500,999.5C224.1,999.5,0.5,775.9,0.5,500v0C0.5,224.1,224.1,0.5,500,0.5h0
			c275.9,0,499.5,223.6,499.5,499.5v0C999.5,775.9,775.9,999.5,500,999.5z"/>
	</defs>
	<clipPath id="SVGID_00000054236617039871119140000014058558937092248486_">
		<use xlink:href="#SVGID_1_"  style="overflow:visible;"/>
	</clipPath>
	<g style="clip-path:url(#SVGID_00000054236617039871119140000014058558937092248486_);">
		<polygon class="st1" points="206.8,608.6 500,999.5 793.2,608.6 		"/>
		<polygon points="174.2,391.4 340.3,359.6 199,266.8 364.6,300.9 269.7,161.1 409.5,256 375.3,90.4 468.2,231.7 500,65.7 
			531.8,231.7 624.7,90.4 590.5,256 730.3,161.1 635.4,300.9 801,266.8 659.7,359.6 825.8,391.4 956.1,391.4 1249.2,0.5 -249.2,0.5 
			43.9,391.4 		"/>
		<polygon class="st2" points="659.7,359.6 801,266.8 635.4,300.9 730.3,161.1 590.5,256 624.7,90.4 531.8,231.7 500,65.7 
			468.2,231.7 375.3,90.4 409.5,256 269.7,161.1 364.6,300.9 199,266.8 340.3,359.6 174.2,391.4 825.8,391.4 		"/>
		<polygon class="st3" points="174.2,391.4 43.9,391.4 206.8,608.6 793.2,608.6 956.1,391.4 825.8,391.4 		"/>
		<path class="st4" d="M1249.2,0.5v390.9V500v108.6v390.9H500l293.2-390.9l162.9-217.2L1249.2,0.5z M43.9,391.4L-249.2,0.5v390.9
			V500v108.6v390.9H500L206.8,608.6L43.9,391.4z"/>
	</g>
</g>
</svg>
