<svg width="74" height="74" viewBox="0 0 74 74" fill="none" xmlns="http://www.w3.org/2000/svg">
<g filter="url(#filter0_d_1258_5554)">
<circle cx="37" cy="37" r="31" fill="white"/>
</g>
<g clip-path="url(#clip0_1258_5554)">
<path d="M48.7821 31.9673L48.2496 31.4348C48.1795 31.3653 48.0964 31.3103 48.005 31.273C47.9137 31.2356 47.8158 31.2167 47.7171 31.2173C47.5204 31.2181 47.3318 31.2962 47.1921 31.4348L36.9996 41.6273L26.8071 31.4423C26.6666 31.3026 26.4765 31.2242 26.2784 31.2242C26.0802 31.2242 25.8901 31.3026 25.7496 31.4423L25.2171 31.9748C25.0774 32.1153 24.999 32.3054 24.999 32.5035C24.999 32.7017 25.0774 32.8918 25.2171 33.0323L36.4671 44.2823C36.5384 44.3506 36.6226 44.4041 36.7146 44.4398C36.8044 44.4795 36.9015 44.5 36.9996 44.5C37.0978 44.5 37.1948 44.4795 37.2846 44.4398C37.3521 44.4123 37.4133 44.3715 37.4646 44.3198L37.5246 44.2823L48.7821 33.0248C48.9218 32.8843 49.0002 32.6942 49.0002 32.496C49.0002 32.2979 48.9218 32.1078 48.7821 31.9673Z" fill="#191919"/>
</g>
<defs>
<filter id="filter0_d_1258_5554" x="0" y="0" width="74" height="74" filterUnits="userSpaceOnUse" color-interpolation-filters="sRGB">
<feFlood flood-opacity="0" result="BackgroundImageFix"/>
<feColorMatrix in="SourceAlpha" type="matrix" values="0 0 0 0 0 0 0 0 0 0 0 0 0 0 0 0 0 0 127 0" result="hardAlpha"/>
<feMorphology radius="2" operator="dilate" in="SourceAlpha" result="effect1_dropShadow_1258_5554"/>
<feOffset/>
<feGaussianBlur stdDeviation="2"/>
<feComposite in2="hardAlpha" operator="out"/>
<feColorMatrix type="matrix" values="0 0 0 0 0 0 0 0 0 0 0 0 0 0 0 0 0 0 0.15 0"/>
<feBlend mode="normal" in2="BackgroundImageFix" result="effect1_dropShadow_1258_5554"/>
<feBlend mode="normal" in="SourceGraphic" in2="effect1_dropShadow_1258_5554" result="shape"/>
</filter>
<clipPath id="clip0_1258_5554">
<rect width="24" height="24" fill="white" transform="translate(25 25)"/>
</clipPath>
</defs>
</svg>
