<?xml version="1.0" encoding="utf-8"?>
<!-- Generator: Adobe Illustrator 28.0.0, SVG Export Plug-In . SVG Version: 6.00 Build 0)  -->
<svg version="1.1" id="Layer_1" xmlns="http://www.w3.org/2000/svg" xmlns:xlink="http://www.w3.org/1999/xlink" x="0px" y="0px"
	 viewBox="0 0 1000 1000" style="enable-background:new 0 0 1000 1000;" xml:space="preserve">
<style type="text/css">
	.st0{fill:#FF329B;}
	.st1{fill:#FFFFFF;}
</style>
<g>
	<path class="st0" d="M500,999.5c275.9,0,499.5-223.6,499.5-499.5C999.5,224.1,775.9,0.5,500,0.5C224.1,0.5,0.5,224.1,0.5,500
		C0.5,775.9,224.1,999.5,500,999.5z"/>
	<path class="st1" d="M223.4,427.6V230.2h124.9v41.6h-80.8v37.6h73.6v38.8h-73.6v38h81.2V428H223.4V427.6z"/>
	<path class="st1" d="M643.7,427.6V230.2H771v41.6h-83.2v41.6H761v40h-72.8v73.6h-44.4V427.6z"/>
	<path class="st1" d="M500.8,859.8c-46,0-90.9-9.2-132.9-26.8c-40.8-17.2-77.2-41.6-108.5-73.2c-31.2-31.2-56-68-73.2-108.5
		c-18-42-26.8-86.9-26.8-132.9h37.2c0,81.2,31.6,157.7,89.3,215.3c57.6,57.6,134.1,89.3,215.3,89.3s157.7-31.6,215.3-89.3
		c57.6-57.6,89.3-134.1,89.3-215.3H843c0,46-9.2,90.9-26.8,132.9c-17.2,40.8-41.6,77.2-73.2,108.5c-31.2,31.2-68,56-108.5,73.2
		c-42,18-86.9,26.8-132.9,26.8H500.8z"/>
	<path class="st1" d="M475.2,608.1h-38L514,229.8l38,0.4L475.2,608.1z"/>
</g>
</svg>
