<?xml version="1.0" encoding="utf-8"?>
<!-- Generator: Adobe Illustrator 28.0.0, SVG Export Plug-In . SVG Version: 6.00 Build 0)  -->
<svg version="1.1" id="_x31_" xmlns="http://www.w3.org/2000/svg" xmlns:xlink="http://www.w3.org/1999/xlink" x="0px" y="0px"
	 viewBox="0 0 5000 5000" style="enable-background:new 0 0 5000 5000;" xml:space="preserve">
<style type="text/css">
	.st0{fill:#D90F19;}
	.st1{fill:#171696;}
	.st2{fill:#FFFFFF;}
	.st3{fill:#66FF66;}
	.st4{fill:none;stroke:#006600;stroke-width:3;}
	.st5{fill:none;}
	.st6{fill:#D67C59;stroke:#000000;stroke-width:3;}
	.st7{fill:#338A00;stroke:#003300;stroke-width:3;}
	.st8{fill:none;stroke:#004B00;stroke-width:3;}
	.st9{fill:#358B03;stroke:#006600;stroke-width:3;}
	.st10{fill:#FFE682;}
	.st11{fill:none;stroke:#000000;stroke-width:3;}
	.st12{fill:none;stroke:#000000;stroke-width:3;stroke-linejoin:round;}
	.st13{fill:none;stroke:#FFFFFF;stroke-width:3;}
	.st14{stroke:#000000;stroke-width:3;stroke-linejoin:round;}
	.st15{fill:#9DC9E2;}
	.st16{fill:#FFFFFF;stroke:#000000;stroke-width:3;}
	.st17{fill:#FFE682;stroke:#000000;stroke-width:3;}
	.st18{fill:none;stroke:#000000;stroke-width:3;stroke-linecap:round;}
	.st19{fill:#D90F19;stroke:#000000;stroke-width:3;stroke-linejoin:round;}
	.st20{fill:#FFFFFF;stroke:#000000;stroke-width:3;stroke-linejoin:round;}
	.st21{fill:#FFFFFF;stroke:#000000;stroke-width:3;stroke-linecap:round;stroke-linejoin:round;}
	.st22{fill:#006AC8;}
	.st23{fill:#006AC8;stroke:#000000;stroke-width:3;}
	.st24{fill:#E8E8E6;stroke:#000000;stroke-width:3;}
	.st25{fill:#4D4D4D;}
	.st26{fill:none;stroke:#4D4D4D;stroke-width:3;}
	.st27{fill:#CCB8C8;}
	.st28{fill:none;stroke:#4D4D4D;stroke-width:3;stroke-linecap:square;}
	.st29{fill:#653024;stroke:#000000;stroke-width:3;}
	.st30{stroke:#000000;stroke-width:3;}
	.st31{fill:#653024;stroke:#000000;stroke-width:3;stroke-linecap:round;}
	.st32{fill:#653024;stroke:#000000;stroke-width:3;stroke-linecap:round;stroke-linejoin:round;}
	.st33{fill:#653024;}
	.st34{fill:#338A00;stroke:#075400;stroke-width:3;}
	.st35{fill:#AD7D5A;stroke:#000000;stroke-width:3;}
	.st36{fill:none;stroke:#4D4B4D;stroke-width:3;}
	.st37{fill:#AD7C59;fill-opacity:0.99;stroke:#000000;stroke-width:3;}
	.st38{fill:#FFFFFF;stroke:#FFFFFF;stroke-width:3;}
	.st39{fill:#AD7C59;stroke:#000000;stroke-width:3;stroke-linecap:round;stroke-linejoin:round;}
	.st40{fill:#AD7C59;stroke:#000000;stroke-width:3;stroke-linecap:round;}
	.st41{fill:#5AC800;}
</style>
<path id="_x31__4_" class="st0" d="M0,0h5000v5000H0V0z"/>
<path id="_x31__3_" class="st1" d="M0,500h5000v4000H0V500z"/>
<g id="_x31__2_">
	<circle id="_x31__13_" class="st2" cx="2499.2" cy="2500" r="1458.3"/>
	<g id="_x31__11_" transform="translate(0 .006)">
		<path id="_x31__26_" class="st3" d="M2762.5,1527.2c0,0-9.5-0.8-18.2-7.1L2762.5,1527.2"/>
		<path id="_x31__24_" class="st4" d="M2762.5,1527.2c0,0-9.5-0.8-18.2-7.1"/>
		<path id="_x31__25_" class="st5" d="M2557.6,1683.9l10.3,6.3l11.1,1.6c0,0,11.9,11.1,25.3,21.4c10.3,8.7,10.3-1.6,10.3-1.6
			l6.3,25.3h8.7c0,0-2.4,16.6-2.4,25.3l15-12.7l17.4,15c0,0,12.7-11.1,19-11.1c6.3,0,8.7-6.4,8.7-6.4h0.8
			c-41.9-19.8-60.1-40.4-47.5-61.7c20.6-35.6,54.6-12.7,65.7-7.9l153.5,82.3c0,0,10.3-6.3,3.1-12.7c-7.9-6.3-11.1-22.1-8.7-28.5
			c2.4-6.3,19.8,19.8,28.5,22.1c8.7,2.4,28.5,5.6,28.5,5.6l-0.8-7.9c0,0,25.3,17.4,25.3,26.1c0,0,18.2-9.5,11.9-15.1
			c-6.3-5.5,27.7,13.5,30.1,23.8l7.1-8c-0.8,0,2.4-25.3,11.1-37.2c7.9-11.9,16.6-15,16.6-15s7.9-13.5,15.8-13.5
			c0,0-7.9-5.5-11.1-11.9c-3.9-6.3-13.4-9.5-13.4-9.5s11.8-8.7,15-12.7c3.2-4.7,6.3-5.5,6.3-5.5s-18.2-15-30.9-17.4
			c0,0-0.8-20.5-16.6-22.1h7.1c0,0-11.9-22.1-22.9-22.9c0,0,7.1-7.9,13.5-8.7c0,0-13.5-17.4-31.7-11.1l11.9-4.7
			c0,0-8.7-9.5-35.6-4.8c0,0,2.4-11.1-9.5-19.8c0,0-10.3,0.8-10.3,8.7c0,0-9.5-8.7-21.4-8.7c-11.9,0,4,12.7,4,12.7
			s-15.8-10.3-25.3-7.1c0,0,3.9-18.2-6.3-27.7c0,0-11.9,6.3-15,14.3l-3.2-7.9c0,0-15.8,19-19,13.4c-2.4-3.1-4.8-16.6-4.8-16.6
			l-9.5,14.2l1.6-19.8c0,0-11.1,6.3-19.8,26.9c0,0-11.1,10.3-11.1,19.8c0,0-8.7-10.3-16.6,0c-7.1,11.1,0,8.7,0,8.7s-3.2,4-11.1,5.5
			l1.6,6.3c0,0-10.3-5.5-18.2-3.1l3.9,9.5c0,0-20.6,1.6-21.4-15c0,0-17.4-8.7-19.8,0.8c0,0-14.2,0-12.7,7.9c0,0-4-7.9-11.1-9.5
			c-7.9-2.4-1.6,10.3-1.6,10.3s-2.4-9.5-11.8-14.2c-9.5-3.9-1.6,8.7-1.6,8.7s-12.6-10.3-6.3-18.2c0,0-11.9,11.1-6.3,21.4l-7.9,5.5
			c0,0-3.9-3.9-3.2-7.1c0.8-3.2-13.5,9.5-13.5,9.5s-8.7-20.6,0-20.6c0.8,0-15-0.8-17.4,17.4c-2.4,17.4,0,0,0,0s-10.3,0.8-19.8,3.9
			c-10.3,3.2,7.1,10.3,7.1,10.3s-15-3.2-23.7,1.6l5.6,7.1c0,0-5.5-5.5-19-0.8c-14.3,4,3.2,6.3,3.2,6.3s-14.2-3.2-21.3,0
			c-7.1,3.2,2.3,8.7,2.3,8.7s-26.1-7.9-30.1-5.5c-3.9,2.4,8.7,15,8.7,15s-15.8,4-19,15.8l14.2,5.5c0,0-6.3,3.2-9.5,9.5
			c-3.1,6.4,9.5,3.2,9.5,3.2s-17.4,12.7-17.4,22.2c0,0,12.7,3.9,22.2-5.6c9.5-9.5,3.2-6.3,3.2-6.3l0.8,6.3c0,0,18.2-7.9,18.2-12.7
			c0-3.9-3.1,6.3-3.1,6.3l18.2-9.5L2557.6,1683.9"/>
		<path id="_x31__23_" class="st5" d="M2542.5,1437l-4-17.4c0,0,21.4,0,40.4,4.7l7.1-16.6c0,0,19,8.7,25.3,15c0,0,37.2-9.5,48.3-5.5
			l-4.7,17.4c0,0,34,2.4,45.1,6.3c10.3,4-4.8,12.7-4.8,12.7s38.8,4.7,55.4,15c17.4,10.3,17.4,19,8.7,21.4l21.4,34
			c0,0-34,4-40.4,12.7c-6.3,8.7-12.7-8.7-12.7-8.7l-6.3,23.7c0,0-21.4-11.1-30.1-19c0,0-10.3,12.7-4,19c0,0-27.7,0-38.8-25.3
			c0,0-16.6-2.4-16.6,12.7c0,0-19-21.4-23.7-27.7l-21.4,6.3c0,0-6.3-8.7-14.2-11.1c-8.7-1.6-2.4,11.1-2.4,11.1l-12.7-15l-12.6-15.1
			c0,0-11.1,15-19.8,15c-7.9,0-7.9-10.3-6.4-17.4c2.4-6.3-25.3-7.9-27.7,0c0,0-7.9-31.6,21.3-40.4L2542.5,1437"/>
		<path id="_x31__22_" class="st6" d="M2739.6,1537.5c0,0,4.8-11.1,13.5-4.7c7.9,6.3,10.3,34,10.3,34l-12.7,6.3
			C2750.6,1573.1,2757.8,1562.9,2739.6,1537.5z M2667.6,1786c0,0,6.3-8.7-2.4-27.7l12.7-4c0,0,4.7,15-1.6,31.7L2667.6,1786
			 M2886.8,1742.5l-30.1,18.2l15,7.1l36.4-21.4L2886.8,1742.5 M2484,1860.4c-7.9,6.3-8.7,17.4-13.4,23.8c-3.9,6.3-15.8,15-16.6,24.5
			c-1.6,9.5-2.4,15.8,1.6,28.5c4.7,12.6,24.5,68.8,16.6,111.6c-8.7,42.7-5.5,60.9-2.4,67.3c3.1,6.3,12.7,23.7,18.2,23.7
			c12.7-1.6,7.1-5.5,11.9-13.4c11.9-20.6,0-179.7-5.5-224c-3.9-34-19.8-64.9-21.4-68.1c-1.6-4-4.7-14.2-7.1-20.6
			c-11.9-28.5-26.1-53-26.1-112.4c0,0-38.8,8.7-72-66.5c-17.4-38-42.7-34-72.8-46.7l13.5-8.7c0,0,25.3,12.7,38,12.7
			c12.7,0,8.7-25.3,8.7-25.3l12.7-12.7v55.4c0,25.3,34.8,60.1,55.4,70.4c12.7,6.3,29.3-19.8,25.3-45.1c-4-25.3,0-59.3,0-59.3
			l17.4,10.3c0,0-6.3,11.1-4.8,17.4c2.4,6.3,11.1-6.3,17.4-12.7c0,0,1.6,1.6,7.9,1.6c0,0-12.7,21.4-19,32.5
			c-6.3,10.3-6.3,50.7-6.3,65.7c0,15,5.5,49.8,5.5,60.9c0,7.9,15,40.4,26.9,60.2c3.9,7.9,13.4,28.5,13.4,28.5
			c9.5,15,10.3,25.3,15.8,38c3.2,6.3,8.7,24.5,12.7,56.2c1.6,7.9,3.2,38,5.5,57.7c2.4,19,18.2,4,37.2-9.5c19-14.2,19-48.3,19-48.3
			s15-12.7,12.7-5.5c-1.6,7.9,7.9,15.8,7.9,15.8c-11.9,26.9-4.8,23.7,7.1,22.9c11.9-1.6,53-32.5,53-32.5c5.5-1.6,30.1-1.6,26.1,0
			c-4.8,2.4-11.1,14.2-11.1,14.2l26.9-3.2c-9.5,7.1-45.1,27.7-53,32.5c-8.7,5.5-51.4,26.1-69.6,33.2c-18.2,7.9-53.8,25.3-55.4,43.5
			c-0.8,18.2,2.4,67.3,0,83.1c-1.6,15.8-7.9,86.3-7.9,86.3h-84.7c0,0,16.6-61.7-0.8-78.3c-16.6-17.4-55.4-68.1-80.7-85.5
			c-25.3-16.6,16.6-3.9,16.6-3.9v-17.4l38.8,46.7c0,0,67.3-59.4,0-140.1c-21.4-25.3-42.7-64.1-59.4-68.1c-17.4-4.8-26.1-8.7-55.4,0
			c-30.1,8.7-102.1,8.7-132.1-38.8l25.3-3.9l21.3-8.7c0,0-8.7,30.1,51.4,30.1c59.4,0,68.1,0,63.3-55.4l17.4-8.7l12.7,12.7
			c0,0-8.7,30.1-4,42.7c4,12.7,25.3,21.4,41.9,34c7.1,5.6,12.7,6.3,17.4,6.3c7.1-0.8,8.7-0.8,18.2-10.3c14.2-15.8,11.1-15,25.3-27.7
			c0,0,7.1-11.1,8.7-12.7L2484,1860.4L2484,1860.4z"/>
		<path id="_x31__21_" class="st6" d="M2496.7,1818.5c3.2-3.1,9.5-15,15-25.3c9.5-15.8,20.6-25.3,33.2-45.1
			c11.9-18.2,16.6-45.1,11.9-64.1l11.1,6.3l0.8,30.1c0,0,15-12.7,21.4-15.8l6.3,3.1c0,0-47.5,49.1-91.8,128.2L2496.7,1818.5
			L2496.7,1818.5z M2080.5,1653.9c6.3,11.1,12.7,32.5,31.6,49.1l12.7-4c0,0-29.3-34-29.3-49L2080.5,1653.9 M2154.8,1634.8
			c0,0,4,40.4-6.3,55.4l12.7-6.3c0,0,8.7-27.7,6.3-42.7L2154.8,1634.8L2154.8,1634.8z M2571.9,1507.4c0,0-2.4,57,8.7,91.8l15-4.7
			c0,0-2.3-10.3,10.3-15.1c12.7-4,42.7-16.6,57.8-29.3l-4.7-12.7c0,0-22.9,18.2-34,22.9c-10.3,4-16.6,8.7-25.3,6.3
			c-8.7-2.4-19-16.6-12.7-49.1L2571.9,1507.4z M2739.6,1773.3c0,0-3.9,40.4-1.6,57.8l13.5,3.2c0,0-3.1-48.3,5.5-52.2L2739.6,1773.3
			 M2799.8,1803.4c0,0-15,26.1-32.4,28.5l27.7-5.5c0,0,7.9-4,19.8-16.6L2799.8,1803.4"/>
		<path id="_x31__20_" class="st7" d="M2557.6,1683.9l10.3,6.3l11.1,1.6c0,0,11.9,11.1,25.3,21.3c10.3,8.7,10.3-1.6,10.3-1.6
			l6.3,25.3h8.7c0,0-2.4,16.6-2.4,25.3l15-12.7l17.4,15c0,0,12.7-11.1,19-11.1c6.3,0,8.7-6.3,8.7-6.3h0.8
			c-41.9-19.8-60.1-40.4-47.5-61.7c20.6-35.6,54.6-12.7,65.7-7.9l153.5,82.3c0,0,10.3-6.3,3.2-12.7c-7.9-6.3-11.1-22.1-8.7-28.5
			c2.4-6.3,19.8,19.8,28.5,22.2c8.7,2.4,28.5,5.6,28.5,5.6l-0.8-7.9c0,0,25.3,17.4,25.3,26.1c0,0,18.2-9.5,11.9-15
			c-6.3-5.5,27.7,13.5,30.1,23.8l7.1-7.9c-0.8,0,2.4-25.3,11.1-37.2c7.9-11.8,16.6-15,16.6-15s7.9-13.5,15.8-13.5
			c0,0-7.9-5.5-11.1-11.9c-4-6.4-13.5-9.5-13.5-9.5s11.9-8.7,15-12.7c3.2-4.7,6.3-5.6,6.3-5.6s-18.2-15-30.9-17.4
			c0,0-0.8-20.6-16.6-22.2h7.1c0,0-11.9-22.2-22.9-22.9c0,0,7.1-7.9,13.5-8.7c0,0-13.5-17.4-31.6-11.1l11.9-4.7
			c0,0-8.7-9.5-35.6-4.8c0,0,2.4-11.1-9.5-19.8c0,0-10.3,0.8-10.3,8.7c0,0-9.5-8.7-21.4-8.7c-11.9,0,4,12.7,4,12.7
			s-15.8-10.3-25.3-7.1c0,0,4-18.2-6.3-27.7c0,0-11.8,6.3-15,14.2l-3.1-7.9c0,0-15.8,19-19,13.4c-2.4-3.2-4.7-16.6-4.7-16.6
			l-9.5,14.2l1.6-19.8c0,0-11.1,6.3-19.8,26.9c0,0-11.1,10.3-11.1,19.8c0,0-8.7-10.3-16.6,0c-7.1,11.1,0,8.7,0,8.7
			s-3.2,3.9-11.1,5.5l1.6,6.3c0,0-10.3-5.5-18.2-3.1l3.9,9.5c0,0-20.6,1.6-21.3-15c0,0-17.4-8.7-19.8,0.8l-12.7,7.9
			c0,0-4-7.9-11.1-9.5c-7.9-2.4-1.6,10.3-1.6,10.3s-2.4-9.5-11.9-14.3c-9.5-3.9-1.6,8.7-1.6,8.7s-12.7-10.3-6.3-18.2
			c0,0-11.8,11.1-6.3,21.4l-7.9,5.5c0,0-4-3.9-3.2-7.1c0.8-3.2-13.4,9.5-13.4,9.5s-8.7-20.6,0-20.6c0.8,0-15-0.8-17.4,17.4
			c0,0-10.3,0.8-19.8,3.9c-10.3,3.2,7.1,10.3,7.1,10.3s-15-3.2-23.7,1.6l5.5,7.1c0,0-5.5-5.5-19-0.8c-14.2,4,3.2,6.3,3.2,6.3
			s-14.2-3.2-21.4,0c-7.1,3.2,2.4,8.7,2.4,8.7s-26.1-7.9-30.1-5.5c-3.9,2.3,8.7,15,8.7,15s-15.8,3.9-19,15.8l14.2,5.5
			c0,0-6.3,3.2-9.5,9.5c-3.1,6.3,9.5,3.1,9.5,3.1s-17.4,12.7-17.4,22.2c0,0,12.7,3.9,22.2-5.5c9.5-9.5,3.1-6.3,3.1-6.3l0.8,6.3
			c0,0,18.2-7.9,18.2-12.6c0-4-3.1,6.3-3.1,6.3l18.2-9.5L2557.6,1683.9L2557.6,1683.9L2557.6,1683.9z"/>
		<path id="_x31__19_" class="st7" d="M2542.5,1437l-4-17.4l40.4,4.7l7.1-16.6c0,0,19,8.7,25.3,15c0,0,37.2-9.5,48.3-5.5l-4.8,17.4
			c0,0,34,2.4,45.1,6.3c10.3,4-4.7,12.7-4.7,12.7s38.8,4.7,55.4,15c17.4,10.3,17.4,19,8.7,21.4l21.3,34c0,0-34,4-40.3,12.6
			c-6.3,8.7-12.7-8.7-12.7-8.7l-6.3,23.7c0,0-21.4-11.1-30.1-19c0,0-10.3,12.7-3.9,19l-38.8-25.3c0,0-16.6-2.4-16.6,12.7
			c0,0-19-21.4-23.7-27.7l-21.4,6.3c0,0-6.3-8.7-14.2-11.1c-8.7-1.5-2.4,11.1-2.4,11.1l-12.7-15l-12.7-15c0,0-11.1,15-19.8,15
			c-7.9,0-7.9-10.3-6.3-17.4c2.4-6.3-25.3-7.9-27.7,0c0,0-7.9-31.7,21.3-40.3L2542.5,1437L2542.5,1437z M2389.1,1545.4l-13.5,12.7
			l-7.9-4l-15.8,17.4l-3.2-9.5l-8.7,14.2l-13.4-4.7l-6.3,10.3l-11.8-2.4c0,0-10.3,9.5-16.6,11.9c-6.3,1.6,0-14.2,0-14.2
			s-9.5,15.8-16.6,15.8c-6.3,0-3.9-7.1-3.9-7.1s-4,10.3-11.9,11.9c-7.1,0.8-4-7.9-4-7.9l-12.7,9.5v-7.9l-5.5-2.4
			c0,0,3.2-14.2,8.7-17.4c5.5-3.2-5.5-12.6-5.5-12.6l5.5-6.3c0,0-15.8-4-15.8-0.8c0,0,7.9-21.4,19-25.4l0.8-23.7
			c0,0,11.1-9.5,21.4-10.3c11.1-1.6-3.2-18.2-3.2-18.2l25.3-15l3.2-18.2l38.8,3.1l7.9-16.6l30.9,7.9l26.1-13.5l19,22.2l28.5,2.4
			c0,0-0.8,19.8-0.8,25.3c0,0,34,10.3,38,13.5c0,0-6.3,20.6-6.3,24.5c0,0,23.8-6.3,30.9-4.7c0,0,2.4,22.2,3.1,27.7
			c0,0,40.4,12.7,42.7,19.8c0,0-8.7,5.5-13.5,12.6c0,0,4.8,24.6,4.8,32.5l-3.2,4.7c0,0-11.9-11.1-21.4-12.7l-7.9,17.4l-14.2-9.5
			l-8.7,0.8c0,0-7.1-8.7-12.7-8.7l-0.8-7.9l-11.1,7.1c0,0-17.4-8.7-17.4-14.2c0-4.8,0.8-12.7,0.8-12.7l-18.2,12.7
			c0,0-4-9.5-3.2-13.5c0.8-4-7.1,9.5-7.1,9.5s-9.5-16.6-8.7-19.8l-2.4,13.5C2410.4,1564.4,2391.5,1558.1,2389.1,1545.4
			L2389.1,1545.4L2389.1,1545.4z"/>
		<path id="_x31__18_" class="st7" d="M2135.9,1623c0,0,33.2,16.6,33.2,24.5c0,0,8.7-17.4,4-23.8l12.7,8.7c0,0,3.9-15.8-0.8-20.6
			c-4-4,28.5-17.4,35.6,4c0,0,19.8-20.6-18.2-38c0,0-3.1-12.7,19.8-9.5c0,0-1.6-7.9-7.1-11.1h22.2c0,0-13.5-11.1-33.2-14.2
			c-19-3.2-7.1-5.5-7.9-9.5c-1.6-4,0-18.2,0-18.2s-11.1-4-19.8,0.8l3.2-4c0,0-20.6-5.5-28.5-0.8c0,0-11.9-4.8-10.3-17.4
			c0,0-11.9-0.8-17.4,11.9c0,0-11.1,12.7-26.1,12.7c-3.1,0-14.2-6.4-14.2-6.4l-9.5,22.2l-15-0.8l4.8,8.7c0,0-22.9-6.3-30.1,0
			c0,0,8.7,13.5,6.3,22.9c0,0-18.2,3.2-22.2,6.3c-4.8,3.1,6.3,5.5,6.3,5.5s-20.6,6.3-25.3,12.7l7.9,6.3l-9.5,12.7l7.9,1.6
			c0,0-13.5,4-20.6,6.3c-7.1,2.4,12.7,4,12.7,4l-9.5,8.7l15,2.4c0,0-11.9,31.7-12.7,46.7c0,0,18.2-22.2,22.9-23.7l-14.2,23.7
			c0,0,26.9-8.7,29.3-12.7c2.3-4.7,4.7-8.7,4.7-8.7l0.8,13.5c0,0,10.3-14.2,11.9-19.8c0.8-5.5,16.6,5.5,16.6,5.5v-7.9
			c0,0,14.3,4.7,19,5.6c5.5,0.8,6.3-2.4,6.3-2.4l13.5-1.6l-2.4,11.1c0,0,9.5-6.3,11.8-12.7c1.6-6.3,6.3,0,6.3,0l6.3-25.3
			L2135.9,1623L2135.9,1623z M2027.4,1735.4l12.7,26.1c-10.3,0.8-25.3,12.7-25.3,12.7c2.4,43.5-8.7,41.2-8.7,41.2
			c3.1,7.9-2,22.6-2,22.6l62.9-37.6l0.8-4l74.4-34.8l2.3,4l21.4-11.9l15,39.6l-15,8.7c0.8,13.5,16.6,37.2,16.6,37.2l19.8-4.7
			l21.4-7.9c0,0,0.8,11.9,0.8,7.9c0-3.2,22.9-11.1,22.9-11.1l10.3,10.3c7.9-0.8,22.2-19.8,22.2-19.8l16.6,6.4c0,0,5.5-9.5,5.5-16.6
			c0-6.3,20.6-6.3,20.6-6.3l14.2,10.3l18.2-15c0,0,5.5,11.1,12.7,12.6c7.9,0.8,27.7,15.8,27.7,12.7s8.7-20.6,8.7-20.6l33.2,13.5
			c-4.7-15-15.8-33.2-15.8-33.2s15.8-12.6,12.7-15.8c-3.2-3.2-12.7,0-12.7,0l9.5-19h-12.7l3.9-4.7l-20.6-8.7l11.1-22.2
			c-4.7-5.6-59.3-16.7-59.3-16.7l12.7-11.9c0,0-6.3-9.5-12.7-9.5c-6.3,0-39.6,0.8-41.1-2.3c-0.8-3.2-14.3-15.1-14.3-15.1l-20.6,15.1
			l-10.3-3.2l-18.2,7.1c0,0,0,10.3-2.4,3.2c-2.4-6.4-19-23-19-23c-3.1,5.5-24.5,30.9-24.5,30.9s-3.2,13.5-10.3,4
			c-7.9-9.5-24.5-19.8-26.9-11.9c-2.4,8.7-17.4,16.6-20.6,14.3c-3.1-2.4-20.6-0.8-22.2,4c-0.8,5.5-19.8,19.8-19.8,19.8
			c-11.9-5.5-30.9-2.3-30.9-2.3s-5.5,8.7-6.3,15.8L2027.4,1735.4L2027.4,1735.4L2027.4,1735.4L2027.4,1735.4z M2385.1,2055.9v-16.6
			l19,12.7l11.1-12.7l14.2,14.2l8.7-14.2v23l21.4-19l12.6,5.5v-18.2c0,0,15.1-25.3,8.7-30.1l12.7-4c0,0-21.4-21.4-27.7-25.3
			c-6.3-4.7-15-4.7-15-4.7s-16.6-16.6-27.7-21.4c-10.3-4-16.7,4.7-16.7,4.7s-6.3-12.6-17.4-15c-10.3-2.4-10.3,8.7-10.3,8.7
			s-7.9-7.9-18.2-11.9c-10.3-4.7-3.2,9.5-3.2,9.5l-36.4-11l4.7,11l-34-8.7l3.9,12.7l-23.7-4l-1.6,10.3l-34,6.3l6.3,11.1l-21.4-8.7
			v15.1l-23.8,8.7l8.7,7.9c0,0-31.7,15-38,19.8c-6.3,3.9,12.7,12.6,12.7,12.6l-34-4.8l12.7,11.1l-30.1,27.7l21.4,15l-12.7,19
			l31.7,6.3l12.7,21.4l26.1-4.8v23.7l38-30.1c0,0,27.7,24.5,30.1,17.4c1.6-6.3,1.6-27.7,1.6-27.7h13.5v-21.4l10.3,8.7l17.4-25.3
			l22.9,31.7l17.4-40.3L2385.1,2055.9L2385.1,2055.9z M2540.2,1960.2l-3.9-36.4l-11.1,11.1l4.7-34l-17.4-3.2l6.3-33.2l-12.6-6.3
			l3.1-15.8l12.7-9.5l22.9-22.2l53,0.8l6.3-17.4l38,6.3c6.3,7.1,26.1-14.2,26.1-14.2h7.9l8.7,16.6c0,0,27.7-4,40.3,4.7l-15,20.6
			l27.7,2.4l19,4l19.8-6.3l25.3-1.6l6.3,10.3h23.7l-7.9,9.5l30.9,14.2l-6.3,6.4c0,0,17.4,6.3,30.1,6.3h6.3c0,0,6.3,15-2.4,21.4
			c0,0,8.7,21.4,27.7,25.3c19,4,19,4,21.4,8.7c2.4,4,0,25.4-21.4,25.4v21.4c0,0-16.6,15-19,21.3l-12.7-8.7c0,0-11,12.7-11,21.4
			c0,0-27.7-36.4-38-38c-11.1-2.4-8.7,20.6-8.7,20.6l-30.1-25.3l-4,17.4l-25.3-21.4l-15,10.2l-26.9-27.7l-26.1,3.2l10.3-13.5h-31.6
			l-6.3-27.7l-4.8,22.9l-19-12.7l-24.5,26.9c0,0-3.2-3.2-7.1-15.8c-3.9-12.7-15,15-15,15l-8.7-19.8l-10.3,19.8c0,0-8.7-15-17.4-19.8
			C2551.3,1919.8,2542.6,1947.4,2540.2,1960.2L2540.2,1960.2z M2545,2043.2l1.6-12.6l45.1-17.4l38-14.2l19-8.7l8.7,15l11.1-21.4
			l17.4,22.1l9.5-11.9l15,11.1h12.7l2.4,16.6c0,0,31.7,2.4,34-3.9c2.4-6.3,6.3,21.3,6.3,21.3l30.1,4l6.3,34c0,0,15,31.7,10.3,44.3
			c-4,13.5-16.6-16.6-16.6-16.6s-2.4,23.7-4.7,30.1c-1.6,6.3-40.3-6.3-40.3-6.3l-16.6,31.7c0,0-17.4-25.3-25.3-25.3
			c-8.7,0-8.7,25.3-8.7,25.3s-25.3-30.1-36.4-42.8c-10.3-12.6-12.7,12.7-12.7,12.7s-16.6-27.7-16.6-35.6c0-8.7-15-17.4-15-17.4
			s-26.1,30.1-45.1,38c0,0,2.4-19-4-25.3c-6.3-6.3-25.3,12.7-25.3,12.7S2531.4,2073.3,2545,2043.2L2545,2043.2z"/>
		<path id="_x31__17_" class="st8" d="M2753.9,1571.5l4,15.8c0,0,14.2-3.2,23.7-2.4c0,0-2.4,12.7-5.5,18.2c0,0,19-3.2,27.7,2.4
			l-3.9,9.5l22.2,9.5l-20.6,16.6c0,0,33.2,11.9,39.6,21.4c0,0-21.4,15-24.5,14.2c-3.2-1.6-0.8,6.3,4.8,13.4l-18.2-0.8
			c0,0,7.1,16.6,6.3,22.9c-0.8,6.3-30.1,4.7-30.1,4.7 M2893.1,1674.4c0,0,5.5-31.7-3.1-39.6c0,0,20.6,17.4,34,18.2
			c14.3,0.8-0.8-26.1-0.8-26.1s19.8,10.3,29.3,12.7c9.5,1.6-7.1-19.8-7.1-19.8s5.5-10.3,21.4-0.8 M2598.8,1493.2
			c0,0,0.8-7.1-2.4-11.1c-19-26.1,19.8,19.8,27.7,21.4 M2660.5,1503.5c0,0,12.7,9.5,19,9.5c6.3,0-4-25.3-7.1-28.5
			c-3.2-3.2,22.9,10.3,32.5,11.9c9.5,2.4,11.1-15.8,11.1-15.8s29.3,4.7,35.6,8.7 M2548.1,1483.7c0,0-2.4-16.6-3.1-23.7
			 M2348.7,1562.9c-1.6-3.2,7.9-17.4,4-23.7c0,0,5.5,4.7,11.1,5.5c4.8,0.8,3.2-18.2,3.2-18.2l6.3,2.4c0,0,16.6-7.9,13.5-14.3
			c-3.2-6.3,11.1,9.5,11.1,9.5s9.5-9.5,9.5-13.4c0-4,11.1,9.5,11.1,9.5s11.9-2.4,11.9-9.5s15,2.4,15,2.4s6.3-8.7,5.5-14.2
			 M2290.9,1577.9c0,0,7.1-16.6-0.8-27.7 M2098.7,1630.1c0.8-7.9,4.7-29.3,0.8-32.4c-3.9-3.1,7.9,3.2,17.4,5.6 M2192,1600.1
			c-9.5-9.5-15-14.2-30-14.2 M2031.4,1653c2.4-5.5,6.3-19,4-26.9 M2237.9,2045.6l10.3-21.4l12.7,30.1l8.7-19l3.2,6.3l19-20.6
			l20.6,30.9 M2642.3,1918.2l13.5-26.9l18.2,9.5l8.7-26.1l19,11.9l11.1-24.5l21.4,5.5l1.6-17.4c0,0,15,8.7,19,15
			c4.7,6.4,0-21.3,0-21.3l17.4,7.9c0,0,12.7-12.7-4.8-19.8"/>
		<path id="_x31__14_" class="st8" d="M2695.3,1884.2l19,27.7l15.8-18.2l14.2,30.8l18.2-11.1l26.1,15l11.9-9.5l28.5,20.6l11.9-24.5
			l25.3,7.9l16.6-28.5 M2199.2,1820.1c0,0,11.1-19,7.1-27.7c-4.7-8.7,22.9,15,22.9,15s6.3-19,2.4-27.7c-4.7-8.7,31.6,25.3,31.6,25.3
			s6.3-29.3,0-35.6c-6.3-6.3,34.8,8.7,34.8,8.7s16.6-4.7,10.3-13.5c-6.3-8.7,27.7,12.7,27.7,12.7s7.9-21.4,0-29.3
			c-8.7-8.7,25.3,10.3,25.3,10.3l-12.7-23l27.7,1.6l-2.4-25.3 M2619.3,2077.2l18.2-8.7l15.8,15.8l17.4-27.7l21.4,20.6l3.2-20.6
			l22.9,9.5l4.7-12.7l25.3,13.5l2.4-19l12.7,4l2.4-12.7"/>
	</g>
	<path id="_x31__12_" class="st9" d="M1669.8,3020.7c11.9,5.5,0-38.8,3.9-55.4c4.7-17.4,38.8,42.7,55.4,50.7
		c17.4,8.7,123.4-42,123.4-42l25.3-47.5l13.5,38.8c0,0,29.3-34,38-46.7c8.7-12.7,0,25.3-8.7,38c-8.7,12.7,25.3,17.4,21.3,42.7
		c-4,25.3,34-17.4,34-17.4l98.1,8.7c0,0,16.6-59.4,42.7-93.4l7.9,38l40.3-41.2c45.1,118.7,140.1,247.7,334.7,318.1
		c182.8-66.5,277-184.4,326-296.8l54.6,56.2c0,0,42.7-12.7,50.6-17.4c8.7-4,100.5,32.5,100.5,32.5s16.6,6.3,25.3,12.7
		c8.7,6.3,2.4-27.7,2.4-27.7s46.7,8.7,42.7,34c0,0,10.3-23.7,19-27.7c8.7-4,29.3,21.4,34,30.1c3.9,7.9,104.5,20.6,118.7,29.3
		c0,0,11.1,12.7,11.1,21.4c0,0,21.4-2.4,38-2.4c0,0-12.7,6.3-12.7,19.8c0,12.7-6.3,23-19,29.3c-12.7,6.3,0,11.1,16.6,12.7
		c17.4,2.4,0,23.7-34,36.4c0,0-7.9,19,6.3,25.3c0,0-29.3,2.4-34-6.3c0,0-10.3,19.8-10.3,30.1c0,0-31.7-10.3-40.4-15
		c0,0-12.7,12.6-4,19c0,0-57.7-6.3-68.8-27.7c0,0-20.6,6.3-16.6,13.5c0,0-40.4-27.7-53-27.7l-8.7,14.2c0,0-27.7-16.6-36.4-16.6
		c-7.9,0-1.6,12.7-1.6,12.7l-38.7-23.7l-15,23.7c0,0-31.7-15.1-40.4-21.4c-7.9-6.3-10.3,12.6-16.6,15c0,0-12.7-17.4-30.1-15
		c0,0-6.3,21.3-3.9,27.7c0,0-49.1-10.3-57.7-12.7c-8.7-2.4-4,10.3,0,19c0,0-36.4-10.3-44.3-16.6l-2.4,16.6c0,0-30-2.4-36.4-8.7
		l-19,26.1H2674l-6.3,22.9c0,0-47.8-17.6-52.2-5.6c-4,8.7-3.1,20.6-3.1,20.6l-39.3-2.6l-12.1,21.2c0,0-53.1-20.3-65.8-12.4
		c0,0-25.1,16-36.2,19.9c-14-14.1-24.6-19.2-38.2-23.7c-13.9-2.2-44.3,16.6-55.4,10.3c0,0,0-15.1-8.7-19c-7.9-4-22.9-4-29.3,6.3
		c0,0-6.3-8.7-17.4-25.3c-10.3-17.4-25.3,1.6-25.3,1.6l-2.4-20.6l-29.3-2.4c-17.4-2.4-21.4-17.4-21.4-17.4s-45.1,4.7-51.4,2.4
		l11.1-10.3c0,0-61.7,12.7-74.4,7.9c-13.5-4,14.2-21.4,14.2-21.4s-57-14.2-68.1-16.6c-10.3-2.4-72,10.3-80.7,10.3
		c-8.7,0-12.7-14.2-12.7-14.2s-15,12.7-27.7,16.6c0,0-10.3-25.3-3.9-27.7c0,0-40.4,11.1-42.7,21.4c0,0-10.3-16.6-8.7-23.7
		c0,0-19,30.1-27.7,36.4c-8.7,6.3-1.6-15-1.6-15s-23.7,30.1-32.4,32.5v-21.4c0,0-68,36.4-87,31.7c0,0,0-15.1,6.3-19l-42.7-2.4
		c-10.3-1.6-22.9-6.3-34-8.7c-10.3-1.6,15-12.7,32.5-7.9c0,0-47.5-17.4-61.7-8.7c0,0-6.3-17.4,19-23.7c0,0-32.4-31.6-51.4-29.3
		c0,0,21.4-12.6,38.8-6.3c0,0-19.8-53.8-32.5-60.1C1612.1,3022.2,1657.2,3014.3,1669.8,3020.7L1669.8,3020.7z"/>
	<g id="_x31__10_" transform="translate(0 .006)">
		<path class="st10" d="M2499.8,3494.7c178,1.6,283.3-63.3,341.1-102.1c135.3-91,163.8-94.2,186-92.6c25.3,2.4,62.5,11.1,64.1,33.3
			c2.4,34-53,49.1-84.7,49.1c-32.4,0-117.1-21.4-117.1-21.4L2867,3376c15,7.1,188.3,64.9,221.6,10.3c34-55.4,68-144.8,68-144.8
			s-38-68.1-122.7-68.1c-85.5,0-168.5,53.8-223.9,94.2c-55.4,40.4-125,95.8-310.2,95.8c-185.2,0-255.6-55.4-311-95.8
			c-55.4-40.3-138.5-94.2-223.1-94.2c-85.4,0-123.4,68.1-123.4,68.1s34,89.4,68,144.8c33.2,54.6,206.5-3.2,221.5-10.3l-21.4-15
			c0,0-85.4,21.4-117.1,21.4c-32.4,0-87.8-15-85.5-49c1.6-22.2,38.8-30.9,64.1-33.3c22.2-1.6,50.7,1.6,186,92.6
			C2215.8,3431.4,2321,3493.9,2499.8,3494.7"/>
		<path class="st10" d="M2213.4,3285c0,0,0-15.1-2.4-37.2c-3.2-28.5-19.8-35.6-33.2-31.7c-8.7,3.1-26.1,24.5-26.1,24.5v0.8
			c-7.9-5.5-16.1-10.5-24.5-15c6.3-7.1,42.7-29.3,51.4-29.3c7.9,0,117.1,44.3,151.9,74.4c8.7,7.9,15,57,10.3,72.8
			c-58.6-15-96.5-37.2-127.4-58.6L2213.4,3285 M2161.1,3395.8c0,0-23.7,23.7-24.5,67.3c-0.8,51.4,36.4,53.8,60.9,53
			c29.3-0.8,53-17.4,52.2-72C2249.8,3444.1,2201.5,3423.5,2161.1,3395.8 M2785.5,3285c0,0,0.8-15.1,3.2-37.2
			c3.1-28.5,19-35.6,32.4-31.7c8.7,3.1,26.1,24.5,26.1,24.5v0.8c7.9-5.5,16.1-10.5,24.5-15c-6.3-7.1-42.7-29.3-50.6-29.3
			c-8.7,0-117.9,44.3-152.7,74.4c-7.9,7.9-14.3,57-10.3,72.8c59.3-15,96.5-37.2,127.4-58.6L2785.5,3285 M2837.7,3395.8
			c0,0,23.7,23.7,24.5,67.3c1.6,51.4-36.4,53.8-60.9,53c-29.3-0.8-52.2-17.4-52.2-72C2749.1,3444.1,2797.4,3423.5,2837.7,3395.8"/>
		<path class="st1" d="M2109.7,3361c0,0-84.7,21.4-116.3,21.4c-32.4,0-87.8-15-85.5-49.1c1.6-22.2,38.8-30.9,64.1-33.2
			C1991,3298.4,2015.6,3300.8,2109.7,3361 M2889.2,3361c0,0,84.7,21.4,117.1,21.4c31.7,0,87-15,84.7-49.1
			c-1.6-22.2-38.8-30.9-64.1-33.2C3007.9,3298.4,2983.4,3300.8,2889.2,3361 M2213.4,3285.7c-8.6-6.1-17-12.5-25.3-19
			c-11.9-8.7-23.7-16.6-36.4-25.3c0,0,17.4-22.2,26.1-24.5c13.5-4.8,30.1,2.4,33.2,30.9C2213.4,3269.9,2213.4,3285.8,2213.4,3285.7
			 M2155.6,3509c15.1,8.7,31.6,7.9,41.9,7.1c29.3-0.8,53-17.4,52.2-72c0,0,36.4,18.2,95.7,32.4c0,0,9.5,11.9,11.1,35.6
			c2.4,19.8-11.1,41.2-26.9,39.6c0,0-83.1-15-133.7-23.7C2166.7,3522.5,2155.6,3509,2155.6,3509 M2785.5,3285.7
			c8.7-6.3,17.4-12.7,26.1-19c11.1-8.7,22.9-16.6,35.6-25.3c0,0-17.4-22.2-26.1-24.5c-13.5-4.8-29.3,2.4-32.4,30.9
			C2787.3,3260.4,2786.3,3273.1,2785.5,3285.7 M2843.2,3509c-15,8.7-31.7,7.9-42,7.1c-29.3-0.8-52.2-17.4-52.2-72
			c0,0-36.4,18.2-95,32.4c0,0-10.3,11.9-11.9,35.6c-1.6,19.8,11.9,41.2,26.9,39.6c0,0,83.9-15,133.7-23.7
			C2832.2,3522.5,2843.2,3509,2843.2,3509"/>
		<path class="st11" d="M2499.8,3494.7c178.1,1.6,283.3-63.3,341.1-102.1c135.3-91,163.8-94.2,186-92.6
			c25.3,2.4,62.5,11.1,64.1,33.2c2.4,34-53,49-84.7,49c-32.4,0-117.1-21.3-117.1-21.3l-22.2,15c15,7.1,188.3,64.9,221.6,10.3
			c34-55.4,68-144.8,68-144.8s-38-68.1-122.7-68.1c-85.4,0-168.5,53.8-223.9,94.2c-55.4,40.4-125,95.8-310.2,95.8
			c-185.2,0-255.6-55.4-311-95.8c-55.4-40.4-138.5-94.2-223.1-94.2c-85.4,0-123.4,68.1-123.4,68.1s34,89.4,68,144.8
			c33.2,54.6,206.5-3.2,221.6-10.3l-21.3-15c0,0-85.5,21.3-117.1,21.3c-32.5,0-87.8-15-85.5-49c1.6-22.2,38.8-30.9,64.1-33.3
			c22.1-1.6,50.6,1.6,185.9,92.6C2215.8,3431.4,2321,3493.9,2499.8,3494.7L2499.8,3494.7z"/>
		<path class="st12" d="M2109.7,3361c0,0-84.7,21.4-116.3,21.4c-32.4,0-87.8-15-85.5-49.1c1.6-22.2,38.8-30.9,64.1-33.2
			C1991,3298.4,2015.5,3300.8,2109.7,3361L2109.7,3361z M2889.1,3361c0,0,84.7,21.4,117.1,21.4c31.6,0,87-15,84.7-49.1
			c-1.6-22.2-38.8-30.9-64.1-33.2C3007.9,3298.4,2983.3,3300.8,2889.1,3361L2889.1,3361z M2213.4,3285.7c-8.6-6.1-17-12.5-25.3-19
			c-11.8-8.7-23.7-16.6-36.4-25.3c0,0,17.4-22.2,26.1-24.5c13.5-4.8,30.1,2.4,33.2,30.9C2213.4,3269.9,2213.4,3285.8,2213.4,3285.7
			L2213.4,3285.7z"/>
		<path class="st11" d="M2213.4,3285c0,0,0-15-2.4-37.2c-3.1-28.5-19.8-35.6-33.2-31.7c-8.7,3.2-26.1,24.5-26.1,24.5v0.8
			c-7.9-5.5-16.1-10.5-24.5-15c6.3-7.1,42.7-29.3,51.4-29.3c7.9,0,117.1,44.3,151.9,74.4c8.7,7.9,15,57,10.3,72.8
			c-58.6-15.1-96.5-37.2-127.4-58.6 M2161.1,3395.8c0,0-23.7,23.7-24.5,67.3c-0.8,51.4,36.4,53.8,60.9,53c29.3-0.8,53-17.4,52.3-72
			C2249.8,3444,2201.5,3423.5,2161.1,3395.8L2161.1,3395.8z"/>
		<path class="st11" d="M2181,3407.6c0,0-19,19.8-22.1,52.2c-1.6,25.3,15,39.6,36.4,38c30.1-1.6,42-42.7,27.7-65.7L2181,3407.6z"/>
		<path class="st12" d="M2155.6,3509c15,8.7,31.6,7.9,41.9,7.1c29.3-0.8,53-17.4,52.2-72c0,0,36.4,18.2,95.8,32.4
			c0,0,9.5,11.9,11.1,35.6c2.4,19.8-11.1,41.1-26.9,39.6c0,0-83.1-15-133.7-23.7C2166.7,3522.4,2155.6,3509,2155.6,3509L2155.6,3509
			z M2785.5,3285.7c8.7-6.3,17.4-12.7,26.1-19c11.1-8.7,22.9-16.7,35.6-25.3c0,0-17.4-22.2-26.1-24.5c-13.5-4.8-29.3,2.3-32.4,30.9
			C2787.3,3260.4,2786.3,3273.1,2785.5,3285.7L2785.5,3285.7L2785.5,3285.7z"/>
		<path class="st11" d="M2785.5,3285c0,0,0.8-15,3.2-37.2c3.1-28.5,19-35.6,32.4-31.7c8.7,3.2,26.1,24.5,26.1,24.5v0.8
			c7.9-5.5,16.1-10.5,24.5-15c-6.3-7.1-42.7-29.3-50.7-29.3c-8.7,0-117.9,44.3-152.7,74.4c-7.9,7.9-14.2,57-10.3,72.8
			c59.3-15.1,96.5-37.2,127.4-58.6 M2837.7,3395.8c0,0,23.7,23.7,24.5,67.3c1.6,51.4-36.4,53.8-60.9,53c-29.3-0.8-52.2-17.4-52.2-72
			C2749.1,3444,2797.4,3423.5,2837.7,3395.8L2837.7,3395.8z"/>
		<path class="st11" d="M2818,3407.6c0,0,19,19.8,22.2,52.2c2.4,25.3-15.1,39.6-36.4,38c-30.1-1.6-41.2-42.7-27.7-65.7L2818,3407.6z
			"/>
		<path id="_x31__29_" class="st11" d="M2843.2,3509c-15,8.7-31.7,7.9-42,7.1c-29.3-0.8-52.2-17.4-52.2-72c0,0-36.4,18.2-94.9,32.4
			c0,0-10.3,11.9-11.9,35.6c-1.6,19.8,11.9,41.1,26.9,39.6c0,0,83.9-15,133.7-23.7C2832.2,3522.4,2843.2,3509,2843.2,3509
			L2843.2,3509z"/>
		<path id="_x31__28_" class="st13" d="M2339.2,3490.8c0,0,26.1,19-5.5,42.8 M2260.9,3478.1l79.9,34.8 M2274.3,3496.3l58.5,25.3
			 M2294.9,3481.3l44.3,19.8 M2660.5,3490.8c0,0-26.9,19,4.8,42.8 M2738,3478.1l-79.9,34.8 M2725.3,3496.3l-58.6,25.3 M2704,3481.3
			l-43.5,19.8"/>
		<path id="_x31__27_" class="st14" d="M2026.3,3247.3c1.1,1.8,1.9,3.8,2.2,5.7c0.3,2,0.2,4.2-0.2,6.7c-1,5.6-4.4,10.5-9.4,13.3
			c-5.1,3-11,3.8-17.5,2.6c-3.1-0.6-6.1-1.6-8.8-3.1c-2.6-1.3-5-2.9-7.2-4.8c-0.9,1-1.8,2-2.7,3.1l-3.8-0.7c1.2-7.7,2.4-15.3,3.7-23
			c1.3,0.2,2.5,0.5,3.8,0.7c0.2,3,0.7,5.7,1.4,8.1c0.6,2.5,1.6,4.8,3,7.2c1.3,2.1,2.9,4,5,5.5c2,1.5,4.4,2.6,7.3,3.1
			c2.2,0.4,4.1,0.5,5.9,0.2c1.6-0.2,3.1-0.8,4.4-1.6c1.2-0.9,2.2-1.9,3-3.2c0.7-1.3,1.3-2.8,1.6-4.7c0.5-2.7,0.2-5.4-0.9-7.9
			c-1-2.6-3.1-4.8-5.8-6.5c-2.2-1.4-4.4-2.7-6.6-4.1c-2.2-1.3-4.3-2.6-6.4-4.1c-3.5-2.4-6-5.1-7.6-8.3c-1.6-3.1-2-6.9-1.2-11.3
			c0.5-2.4,1.5-4.7,2.9-6.8c1.5-2,3.4-3.8,5.6-5c2.2-1.3,4.7-2.2,7.3-2.6c2.7-0.4,5.4-0.4,8.1,0.1c3.1,0.6,5.8,1.6,8.1,3
			c2.2,1.4,4.3,2.9,6.1,4.6l2.6-2.8c1.3,0.2,2.5,0.5,3.8,0.7l-3.8,22.2c-1.3-0.3-2.6-0.5-3.9-0.7c-0.2-2.6-0.5-5.2-0.9-7.7
			c-0.4-2.4-1.2-4.7-2.2-6.9c-1-2.1-2.4-3.9-4.2-5.3c-1.7-1.5-4.1-2.4-7-3c-2.8-0.6-5.8-0.1-8.3,1.4c-2.5,1.5-4,3.6-4.5,6.4
			c-0.5,2.9-0.3,5.4,0.7,7.5c1,2.2,2.7,4.1,5.1,5.8c2.1,1.6,4.2,2.9,6.3,4.1c2.1,1.2,4,2.5,6,3.8c1.7,1.2,3.5,2.4,5,3.8
			C2024,3244.2,2025.3,3245.7,2026.3,3247.3 M2123.4,3260.9c-1.2-0.6-2.5-1-3.8-1.4c-1.4-0.5-3-0.8-4.5-0.7
			c-1.3,0.1-2.7,1.1-4.2,2.9c-1.8,2.2-3.3,4.6-4.6,7.1c-4.8,8.6-9.5,17.2-14.3,25.8c-1.8,3.3-4.1,5.8-6.8,7.4
			c-2.7,1.6-5.7,2.7-8.8,3c-3.1,0.3-6,0.1-8.9-0.6c-2.7-0.7-5.2-1.7-7.6-3c-3.6-2-6.6-4.2-8.9-6.7c-2.3-2.5-4.1-5.1-5-7.7
			c-1-2.5-1.4-5.2-1.3-7.9c0.2-2.5,0.9-5,2.1-7.2l19.4-35.2c0.5-0.8,0.8-1.8,0.9-2.8c0-0.8-0.4-1.8-1-2.9c-0.6-0.9-1.4-1.8-2.2-2.5
			c-1-0.8-1.8-1.5-2.5-1.9l1.6-3c8.4,4.6,16.7,9.2,25.1,13.9l-1.6,3c-1-0.5-2.1-0.9-3.2-1.3c-1-0.4-2-0.7-3-0.8
			c-1.1-0.2-2.1,0-2.8,0.7c-0.8,0.6-1.4,1.4-1.9,2.2l-18.1,32.9c-0.9,1.7-1.6,3.5-2.2,5.3c-0.6,1.9-0.9,4-0.6,6
			c0.2,2.2,1.1,4.2,2.4,6.2c1.4,2,3.7,3.9,7,5.7c3.1,1.7,6,2.7,8.6,2.9c4.5,0.4,9-1.2,12.2-4.5c1.4-1.3,2.5-2.9,3.5-4.6l13.5-24.4
			c1.7-3.1,2.9-5.8,3.5-8c0.7-2.2,0.7-3.8,0.2-4.9c-0.6-1.3-1.7-2.6-3.1-3.9c-1.1-1-2.3-2-3.6-2.9l1.6-2.9c8.2,4.5,16.4,9,24.7,13.6
			L2123.4,3260.9z M2158.3,3321.4c1,2.2,1.7,4.5,1.7,7c0,2.5-0.7,5.2-2.2,7.9c-1.6,2.7-3.5,4.7-5.9,6.1c-2.3,1.3-4.9,2.1-7.6,2.3
			c-2.7,0.2-5.4,0-8-0.7c-2.8-0.7-5.4-1.8-7.9-3.2l-28.2-16.3l1.7-3c0.7,0.4,1.7,0.8,3.1,1.3c1.4,0.6,2.4,0.9,3.1,1
			c1,0.1,1.9,0,2.8-0.5c0.8-0.5,1.5-1.3,2-2.2c8.1-14.1,16.3-28.2,24.4-42.3c0.5-0.9,0.8-1.8,1-2.8c0-1-0.3-2-0.9-2.8
			c-0.6-1-1.4-1.8-2.3-2.6c-0.9-0.8-1.7-1.5-2.4-1.9c0.5-1,1.1-2,1.7-2.9c9.2,5.3,18.3,10.6,27.5,15.9c2.1,1.2,4,2.6,5.8,4.1
			c1.7,1.6,3.1,3.4,4.3,5.4c2.4,4.1,2.4,9.2-0.1,13.3c-2.1,3.7-5.7,6.4-9.9,7.2c-2,0.4-4,0.4-6,0.2c-2.2-0.2-4.3-0.6-6.4-1.4
			l-0.2,0.4c1.6,1.2,3.3,2.7,5,4.6C2156,3317.3,2157.4,3319.3,2158.3,3321.4L2158.3,3321.4z M2153.3,3306.6c1.8-0.6,3.2-1.5,4.4-2.6
			c1.4-1.4,2.6-3,3.5-4.7c1.9-3.2,2.4-6.3,1.7-9.2c-0.7-2.9-3-5.5-6.9-7.7c-0.9-0.5-2-1.1-3.4-1.9c-1.1-0.6-2.3-1.2-3.4-1.8
			l-13.1,22.6c1.8,1,3.5,2,5.3,3c2.3,1.3,4.4,2.2,6.4,2.5C2149.8,3307.3,2151.6,3307.2,2153.3,3306.6L2153.3,3306.6z M2148.3,3328.8
			c2-3.2,2.5-7,1.4-10.6c-1.1-3.6-3.8-6.7-8.3-9.2c-1.5-0.9-3-1.7-4.6-2.6c-1.2-0.7-2.2-1.1-2.8-1.5c-4,7-8,13.9-11.9,20.8
			c-1,1.6-1.1,3.5-0.2,5.2c0.9,1.7,2.6,3.3,5.2,4.8c4.2,2.4,8,3.1,11.6,1.9C2142.5,3336.3,2145.6,3333.5,2148.3,3328.8
			L2148.3,3328.8z M2301.5,3363.8c-1.3-0.4-2.6-0.8-3.9-1c-1.5-0.4-3-0.5-4.6-0.2c-1.3,0.2-2.6,1.4-3.9,3.3
			c-1.5,2.4-2.8,4.9-3.9,7.5l-11.6,27.1c-1.5,3.4-3.5,6.2-6,8.1c-2.5,1.9-5.4,3.2-8.5,3.8c-2.9,0.6-5.9,0.7-8.9,0.2
			c-2.7-0.4-5.4-1.1-7.9-2.2c-3.5-1.4-6.7-3.4-9.5-5.8c-2.6-2.3-4.5-4.7-5.8-7.2c-1.2-2.4-1.9-5-2-7.7c-0.1-2.5,0.4-5.1,1.4-7.4
			l15.8-36.9c0.4-0.9,0.6-1.8,0.6-2.8c-0.2-1-0.6-2-1.3-2.8c-0.7-0.9-1.5-1.6-2.4-2.3c-1.1-0.7-1.9-1.3-2.7-1.7
			c0.4-1,0.9-2.1,1.3-3.1l26.4,11.3c-0.5,1-0.9,2.1-1.4,3.1c-1.1-0.4-2.2-0.7-3.3-0.9c-1-0.3-2-0.4-3.1-0.5
			c-1.2-0.1-2.1,0.2-2.8,0.9c-0.7,0.7-1.3,1.5-1.7,2.4c-4.9,11.5-9.8,23-14.7,34.5c-0.7,1.8-1.3,3.6-1.7,5.4c-1,4.3,0.1,8.8,3,12
			c1.6,1.9,4.1,3.6,7.6,5c3.3,1.4,6.2,2.1,8.9,2c2.6-0.1,4.9-0.6,6.9-1.8c1.9-1.1,3.5-2.3,4.7-3.8c1.2-1.5,2.2-3.1,3-4.9l11-25.6
			c1.4-3.3,2.3-6,2.7-8.3c0.4-2.3,0.3-3.9-0.4-4.9c-0.7-1.2-1.9-2.4-3.5-3.5c-1.2-0.9-2.5-1.8-3.8-2.5l1.3-3.1l25.9,11.1
			C2302.4,3361.7,2302,3362.7,2301.5,3363.8 M2375.9,3451.2l-29.2-8.5l0.9-3.3c1.1,0.3,2.5,0.5,4.2,0.9c1.7,0.3,2.9,0.3,3.6,0.2
			c1-0.3,1.9-0.7,2.7-1.4c0.7-0.7,1.2-1.6,1.5-2.6l13.7-47.5c-0.2-0.1-0.5-0.1-0.7-0.2c-12.8,16.4-25.9,32.6-38.6,49.1
			c-0.8-0.2-1.5-0.5-2.3-0.7c-1.6-21-3.5-42-5.1-62.9c-0.2-0.1-0.4-0.1-0.6-0.2c-3.8,13-7.5,26-11.3,39c-1.1,3.7-1.7,6.6-1.8,8.8
			c-0.1,2.1,0.3,3.7,1,4.9c0.5,0.9,1.7,1.8,3.7,3.1c2,1.2,3.3,1.9,3.9,2.1l-1,3.3l-26.7-7.7l1-3.3c1.4,0.3,3,0.5,4.6,0.6
			c1.4,0.2,2.7,0,4-0.5c1.3-0.6,2.4-1.6,3.4-3.3c0.9-1.7,2-4.5,3.2-8.7l9.6-33.4c0.6-1.9,0.8-3.6,0.7-4.9c-0.1-1.3-0.5-2.5-1.1-3.6
			c-0.8-1.2-1.8-2.1-3-2.8c-1.2-0.8-2.6-1.5-4-1.9l0.9-3.3l22.5,6.5c1.5,18.2,3.4,36.3,4.8,54.5c9.3-12.2,18.8-24.1,28-36.3
			c1.1-1.4,2-2.8,2.9-4.3c0.6-1,1.2-2,1.6-3.1c7.2,2.1,14.4,4.2,21.5,6.2l-0.9,3.2c-1.1-0.2-2.3-0.4-3.4-0.5
			c-1.1-0.2-2.1-0.2-3.2-0.2c-1,0-2,0.5-2.7,1.3c-0.6,0.8-1.1,1.7-1.4,2.6l-13.6,47.1c-0.3,0.9-0.4,1.9-0.2,2.8
			c0.3,1,0.8,1.9,1.6,2.5c0.5,0.5,1.4,1,2.8,1.7c1.4,0.7,2.4,1.1,3.3,1.4L2375.9,3451.2z M2446.7,3429.7c1.8,1.6,3.3,3.5,4.3,5.9
			c1,2.3,1.4,5,1,8.1c-0.3,2.9-1.4,5.6-3.1,7.9c-1.7,2.1-3.7,3.8-6.1,5c-2.4,1.2-5,2.1-7.7,2.4c-2.8,0.4-5.7,0.4-8.6,0.1
			c-10.8-1.4-21.5-2.7-32.3-4.1l0.4-3.4c0.8,0.1,1.9,0.1,3.4,0c1.1,0,2.2-0.1,3.3-0.3c0.9-0.2,1.8-0.8,2.3-1.6
			c0.6-0.8,0.9-1.8,1-2.8c2-16.1,4-32.3,6.1-48.4c0.1-1,0.1-2-0.2-2.9c-0.4-1-1.1-1.8-2-2.3c-1-0.6-2-1.1-3.1-1.5
			c-1.2-0.4-2.1-0.7-2.9-0.9l0.4-3.4l31.5,4c2.4,0.3,4.7,0.8,6.9,1.6c2.1,0.8,4.2,1.8,6,3.3c1.7,1.4,3.2,3.1,4.1,5.1
			c0.9,2.1,1.3,4.4,0.9,7.2c-0.4,4.3-2.7,8.1-6.3,10.5c-1.7,1.1-3.5,1.9-5.5,2.5c-2.1,0.7-4.3,1.1-6.5,1.3l-0.1,0.4
			c1.9,0.5,4.1,1.2,6.4,2.2C2442.9,3426.8,2445,3428.1,2446.7,3429.7L2446.7,3429.7z M2436.3,3418.1c1.4-1.2,2.4-2.6,3.1-4.2
			c0.7-1.8,1.2-3.7,1.4-5.7c0.5-3.7-0.2-6.7-2-9.1c-1.8-2.4-4.9-3.8-9.3-4.4c-1.3-0.2-2.5-0.3-3.8-0.4l-4-0.4
			c-1.1,8.6-2.2,17.3-3.3,25.9l6.1,0.8c2.3,0.3,4.6,0.3,6.9-0.1C2433.3,3420.1,2435,3419.3,2436.3,3418.1L2436.3,3418.1z
			 M2440.3,3440.4c0.5-4-0.5-7.4-2.8-10.3c-2.4-2.9-6.1-4.7-11.2-5.3c-2.8-0.4-5.6-0.7-8.4-0.9c-1,8-2,15.9-3,23.8
			c-0.3,1.8,0.4,3.7,1.9,4.8c1.5,1.2,3.7,2,6.7,2.4c4.7,0.6,8.6-0.3,11.5-2.7C2437.8,3449.7,2439.6,3445.8,2440.3,3440.4
			L2440.3,3440.4z M2532.9,3461.8h-18.6c-4-6.4-7.8-11.8-11.1-16.5c-3.3-4.6-7-9.3-10.8-14.3h-7v21.5c0,1.1,0.2,2.1,0.5,2.9
			c0.4,0.9,1.1,1.5,2.3,2c0.6,0.2,1.6,0.4,3.1,0.6c1.5,0.2,2.7,0.3,3.7,0.3v3.4h-29.1v-3.4c0.8,0,1.9-0.2,3.4-0.3
			c1-0.1,2.1-0.3,3.1-0.6c0.9-0.3,1.6-1,2.1-1.8c0.5-0.9,0.7-2,0.6-3.1v-49.1c0-1.1-0.1-2.1-0.5-3c-0.3-0.8-1.1-1.5-2.3-2
			c-1-0.4-2.1-0.6-3.2-0.8c-1.1-0.2-2.2-0.4-3.3-0.4v-3.4h31.8c2.9,0,5.6,0.2,8.2,0.8c2.6,0.6,4.9,1.6,6.9,2.9c2,1.3,3.6,2.9,4.8,5
			c1.2,2.1,1.8,4.5,1.8,7.5c0,2.6-0.4,4.9-1.2,6.9c-0.8,2-2,3.8-3.6,5.2c-1.5,1.5-3.3,2.7-5.2,3.6c-2.2,1.1-4.4,1.9-6.7,2.6
			c3.3,4.5,6.2,8.1,8.5,11.2c2.2,3,5,6.7,8.3,11c1.9,2.7,4.4,4.9,7.3,6.5c0.8,0.5,1.9,0.7,3.1,0.9c1.3,0.2,2.3,0.3,3.2,0.4
			C2532.9,3459.5,2532.9,3460.7,2532.9,3461.8L2532.9,3461.8z M2507.4,3411.2c0-4.1-1.3-7.3-3.6-9.8c-2.4-2.4-5.8-3.6-10.1-3.6h-8.2
			v29.1h6.4c4.5,0,8.2-1.3,11.2-4.2C2505.9,3419.9,2507.4,3416.1,2507.4,3411.2L2507.4,3411.2z M2612.2,3456.8l-28.5,2.2l-0.2-3.4
			c2.5-0.3,4.6-0.8,6.2-1.4c1.6-0.6,2.4-1.3,2.3-2c0-0.3-0.1-0.6-0.2-1c-0.1-0.4-0.2-0.7-0.4-1.1c-2.2-4.9-4.6-9.8-6.9-14.7
			l-24.1,1.8c-0.7,2-1.2,4-1.8,6c-0.4,1.7-0.9,3.3-1.2,4.7c-0.3,1.1-0.5,2.2-0.6,3.4c-0.1,0.7-0.1,1.4-0.1,2.1
			c0.1,1.3,1.2,2.1,3.3,2.7c2.1,0.6,4.4,0.8,7,0.7l0.3,3.4l-25.8,2c-0.1-1.1-0.2-2.3-0.3-3.4c1.1-0.2,2.1-0.4,3.1-0.8
			c1.1-0.3,2.1-0.8,3-1.5c1.2-1,2.2-1.9,2.8-3c0.8-1.2,1.4-2.6,1.8-4c2.7-8.8,6-18.6,9.2-29.5c3.3-10.9,6.4-20.6,9-29.1l3.9-0.3
			c9,19,18.3,37.7,27.3,56.6c0.6,1.2,1.2,2.1,1.9,2.9c0.7,0.7,1.6,1.4,2.8,2c0.8,0.4,1.8,0.7,3,0.9c1.2,0.2,2.2,0.3,3,0.3
			C2612,3454.5,2612.1,3455.7,2612.2,3456.8L2612.2,3456.8z M2582.5,3431.2c-4.1-8.5-8.3-16.9-12.4-25.4c-2.7,9-5.6,18-8.3,27
			L2582.5,3431.2z M2709.8,3377.6l-3.5,0.9c-1.3-2.3-3.4-4.4-6.2-6.7c-2.8-2.2-5.3-3.2-7.2-3c-1.2,0.2-2.3,0.4-3.5,0.7
			c-1.4,0.3-2.8,0.7-4.6,1.1l-11.1,3c2.4,8.8,4.8,17.6,7.1,26.3c2.5-0.7,5.1-1.4,7.6-2.1c2.3-0.6,4.1-1.3,5.2-2.2
			c1.1-0.8,2-1.8,2.7-3.1c0.5-1.2,0.8-2.4,0.9-3.7c0.1-1.6,0.1-3.3-0.2-4.8l3.5-1c2.4,8.6,4.7,17.2,7,25.8c-1.1,0.3-2.3,0.6-3.5,1
			c-0.6-1.5-1.3-3-2.2-4.4c-1.1-1.6-2-2.6-2.8-3.2c-1.2-0.9-2.6-1.4-4.1-1.4c-1.8,0-3.6,0.3-5.3,0.8l-7.6,2.1l6.1,22.6
			c0.2,1,0.7,1.8,1.4,2.6c0.6,0.7,1.5,1.1,2.6,1.3c0.6,0.1,1.6,0.1,3.3-0.1c1.2-0.1,2.5-0.2,3.7-0.5l0.9,3.3l-28.8,7.8l-0.9-3.3
			c0.9-0.3,2.2-0.8,3.7-1.3c1.5-0.6,2.5-1,2.9-1.4c0.8-0.6,1.3-1.4,1.6-2.3c0.2-1,0.1-2-0.1-3l-12.8-47.3c-0.3-0.9-0.7-1.8-1.3-2.6
			c-0.5-0.7-1.5-1.1-2.7-1.3c-1.2-0.2-2.4-0.2-3.6-0.2c-1.2,0-2.4,0.2-3.6,0.4l-0.9-3.3l52.1-14.1L2709.8,3377.6z M2786.5,3371.8
			c2.5,6.3,5,12.6,7.5,18.8l-48.5,23.4l-1.5-3.1c0.7-0.4,1.6-1,2.9-1.8c1.2-0.8,2.1-1.4,2.5-1.9c0.7-0.7,1.1-1.6,1.1-2.6
			c0-1-0.3-2.1-0.8-3c-7-14.6-14.1-29.2-21.1-43.8c-0.4-0.9-1-1.7-1.7-2.4c-0.8-0.6-1.9-0.9-2.9-0.8c-1.1,0-2.2,0.1-3.3,0.3
			c-1.1,0.2-2.2,0.5-3.3,0.9c-0.5-1-1-2.1-1.5-3.1l26.1-12.6l1.5,3.1c-1,0.6-2,1.2-2.9,1.9c-0.9,0.6-1.7,1.3-2.5,2.1
			c-0.8,0.7-1.2,1.7-1.2,2.7c0,1,0.3,2,0.7,2.9l19.8,41.1c0.9,1.9,1.7,3.3,2.4,4.2c0.6,0.9,1.5,1.5,2.5,1.8c0.9,0.2,2,0.1,3.4-0.5
			c1.4-0.5,3.3-1.3,5.7-2.4c1.1-0.5,2.2-1.1,3.3-1.7c1.1-0.6,2.2-1.3,3.1-1.9c0.9-0.7,1.7-1.4,2.5-2.1c0.6-0.6,1.1-1.3,1.3-2
			c0.7-2.6,1.1-5.3,1.3-8.1c0.2-3.4,0.4-6.1,0.2-8.1L2786.5,3371.8z M2822.7,3304.5c4.3,1.2,8.3,3.3,11.9,6.1
			c3.9,3.2,7.2,7,9.7,11.3c2.8,4.7,4.4,9.3,5.2,14c0.7,4.5,0.5,9-0.5,13.4c-1,4.1-2.9,8-5.4,11.4c-2.6,3.5-5.9,6.4-9.7,8.6
			c-4.1,2.4-8.4,4-12.8,4.4c-4.4,0.5-8.7,0.2-12.8-1.1c-4.3-1.3-8.2-3.4-11.6-6.2c-3.7-3.1-6.9-6.7-9.4-10.9
			c-2.6-4.3-4.4-9.1-5.3-14.1c-0.7-4.4-0.5-9,0.5-13.3c1-4.2,2.9-8.1,5.5-11.5c2.6-3.5,5.8-6.4,9.6-8.6c4-2.3,8.1-3.8,12.4-4.4
			C2814.3,3303.1,2818.6,3303.3,2822.7,3304.5L2822.7,3304.5z M2841,3349.6c0.1-3.6-0.5-7.1-1.6-10.5c-1.3-3.9-3-7.7-5.2-11.2
			c-2.2-3.7-4.8-7.2-7.7-10.4c-2.5-2.6-5.4-4.8-8.6-6.5c-2.8-1.4-5.9-2.1-9-2.1c-3,0-6.1,1-9.1,2.7c-3.3,2-5.7,4.4-7.1,7.3
			c-1.4,2.9-2.2,6.2-2.1,9.4c0.1,3.3,0.7,6.7,1.9,10.3c1.3,3.7,2.9,7.3,5,10.8c2.1,3.6,4.6,7,7.4,10.1c2.6,2.8,5.4,4.9,8.4,6.5
			c3,1.6,5.9,2.2,9,2.3c3.1,0,6.2-0.9,9.4-2.8c2.8-1.6,5.2-4,6.8-6.8C2840.1,3356,2840.9,3352.9,2841,3349.6L2841,3349.6z
			 M2926.3,3303.3c-5,3.6-10.1,7.2-15.2,10.7c-7-2.9-13.2-5.1-18.5-7c-5.4-1.9-11.1-3.6-17.1-5.4c-2,1.4-3.8,2.7-5.8,4.1l12.5,17.6
			c0.6,0.9,1.4,1.5,2.1,2c0.8,0.5,1.8,0.6,3,0.3c1-0.3,2-0.7,2.9-1.3c1.3-0.7,2.3-1.3,3.2-1.9l2,2.8c-7.9,5.6-15.8,11.2-23.7,16.8
			c-0.7-0.9-1.3-1.8-2-2.8c0.9-0.7,1.7-1.5,2.6-2.2c0.8-0.7,1.5-1.4,2.1-2.3c0.5-0.8,0.8-1.7,0.6-2.7c-0.2-1-0.6-2-1.2-2.8
			c-9.5-13.4-18.9-26.7-28.4-40.1c-0.6-0.8-1.3-1.5-2.1-2.1c-0.8-0.5-1.8-0.6-3-0.3c-2.1,0.6-4.1,1.6-6,2.7l-2-2.8
			c8.6-6.1,17.3-12.2,25.9-18.4c2.2-1.6,4.6-3,7.2-4c2.3-1,4.8-1.5,7.3-1.7c2.3-0.1,4.6,0.3,6.8,1.3c2.2,1,4.1,2.7,5.8,5.1
			c1.4,1.9,2.5,4.1,3,6.4c0.5,2.1,0.5,4.2,0.1,6.3c-0.4,2.1-1.2,4.1-2.2,5.9c-1.2,2.1-2.5,4.1-4,6c5.3,1.7,9.8,3,13.4,4.2
			c3.5,1.2,8,2.5,13.1,4.3c3.1,1.1,6.4,1.5,9.7,1.1c1.1-0.2,2.1-0.5,3.1-1c1.2-0.5,2.1-1.1,2.8-1.5
			C2925,3301.5,2925.7,3302.4,2926.3,3303.3L2926.3,3303.3z M2876.3,3276.8c-2.4-3.4-5.3-5.3-8.6-5.9c-3.3-0.6-6.8,0.4-10.4,2.9
			l-6.7,4.8l16.8,23.8l5.2-3.7c3.6-2.6,5.9-5.9,6.6-9.9C2880,3284.7,2879.1,3280.7,2876.3,3276.8L2876.3,3276.8z M2983,3260.5
			c1.9,6.4,3.8,12.8,5.7,19.2l-53.6,19.9c-0.4-1-0.8-2.1-1.2-3.2c0.9-0.4,2.1-1,3.5-1.7c1.4-0.8,2.4-1.3,2.8-1.7
			c0.7-0.7,1.2-1.5,1.4-2.5c0.1-1,0-2-0.4-3c-5.7-15.3-11.3-30.5-17-45.8c-0.3-0.9-0.8-1.7-1.5-2.5c-0.6-0.6-1.6-0.9-2.8-1.1
			c-1-0.1-2.2,0-3.6,0.2c-1.2,0.1-2.4,0.3-3.5,0.7c-0.4-1-0.8-2.1-1.2-3.2l49.9-18.5l5.7,15.4c-1.1,0.4-2.3,0.9-3.4,1.3
			c-1.4-2.1-3.7-4-6.6-5.8c-3-1.9-5.4-2.5-7.4-2.1c-1.2,0.3-2.3,0.6-3.4,1c-1.4,0.5-2.8,1-4.5,1.6c-3.4,1.2-6.8,2.5-10.1,3.8
			c3.1,8.4,6.3,16.9,9.4,25.3l7.3-2.7c2.3-0.9,4-1.7,4.9-2.6c0.9-0.9,1.6-2,2-3.2c0.4-1.4,0.5-2.8,0.4-4.2c-0.1-1.5-0.3-3-0.6-4.4
			l3.4-1.3l9.3,25c-1.2,0.4-2.3,0.9-3.4,1.3c-0.7-1.5-1.6-2.9-2.7-4.3c-1.1-1.4-2.1-2.3-3-2.8c-1.2-0.8-2.6-1.1-4-1.1
			c-1.7,0.2-3.4,0.6-5,1.2l-7.3,2.7c2.4,6.4,4.7,12.8,7.1,19.1c0.7,1.9,1.4,3.3,2.1,4.4c0.6,0.9,1.5,1.6,2.5,1.9
			c1,0.3,2.2,0.2,3.6-0.1c2-0.6,4-1.2,5.9-1.9c1-0.4,2.3-0.9,4-1.5c1.6-0.6,3-1.1,4.1-1.7c1.1-0.6,2.3-1.2,3.4-2
			c1.1-0.8,1.8-1.5,2.1-2.3c0.9-1.9,1.6-4.7,2-8.2c0.4-3.5,0.7-6,0.5-7.5L2983,3260.5z M3040.6,3213.4c3.5,2.8,6.4,6.3,8.6,10.3
			c2.2,4.2,3.8,8.9,4.5,14.3c0.7,5,0.5,10-0.7,14.9c-1.1,4.4-3,8.5-5.7,12.1c-2.5,3.4-5.7,6.2-9.5,8.4c-3.8,2.2-7.9,3.6-12.3,4.1
			c-4.8,0.6-9.3,0.4-13.5-0.9c-4.2-1.2-8-3.2-11.4-6c-3.4-2.8-6.2-6.3-8.3-10.3c-2.3-4.3-3.8-8.9-4.4-13.7c-0.7-5-0.5-10.1,0.7-15
			c1.1-4.4,3-8.4,5.7-12.1c5.3-7,13.1-11.5,21.8-12.6c4.4-0.6,8.8-0.3,13.1,0.8C3033.4,3208.8,3037.2,3210.8,3040.6,3213.4
			L3040.6,3213.4z M3039.7,3262.1c1.5-3.3,2.4-6.7,2.7-10.3c0.3-4.1,0.1-8.2-0.4-12.3c-0.5-4.3-1.5-8.5-3-12.5
			c-1.2-3.4-3-6.5-5.3-9.3c-2-2.4-4.6-4.2-7.5-5.4c-3-1.2-6.2-1.5-9.4-1.1c-3.9,0.5-7,1.8-9.5,3.9c-2.5,2.1-4.4,4.8-5.7,7.8
			c-1.2,3-2,6.4-2.3,10.2c-0.3,4-0.2,8,0.3,12c0.6,4.5,1.6,8.6,2.9,12.1c1.2,3.6,3.1,6.6,5.2,9.2c2.1,2.6,4.5,4.4,7.4,5.7
			c2.8,1.2,6.1,1.6,9.8,1.1c3.2-0.4,6.3-1.6,8.9-3.6C3036.4,3267.6,3038.4,3265,3039.7,3262.1L3039.7,3262.1z"/>
	</g>
	<g id="_x31__9_" transform="translate(0 .006)">
		<path class="st15" d="M2205.5,2977.9c-19.6-33.3-35.8-68.6-48.3-105.2l342.6-301.5l342.6,300.7c-11.9,34.8-27.7,72-49.9,107.6
			l-2.7,4.4c-8.6-3.3-17.2-6.6-25.8-9.9c0,0-11.1,10.3-19.8,11.1c-11.9,1.6-22.2-10.3-22.2-10.3s-15,12.7-30.1,10.3
			c-15-1.6-21.4-11.1-21.4-11.1s-15.8,12.7-26.9,10.3c-10.3-2.4-17.4-9.5-17.4-9.5s-9.5,11.9-22.9,9.5c-12.6-2.4-24.5-9.5-24.5-9.5
			s-19.8,8.7-32.4,10.3c-12.7,2.4-23.8-11.1-23.8-11.1s-16.6,11.1-22.9,11.1c-6.3,0-30.1-11.1-30.1-11.1s-24.5,7.9-33.2,7.9
			c-7.9,0-32.4-10.3-32.4-10.3s-22.9,6.3-33.2,6.3c-11.1,0-26.9-6.3-26.9-6.3s-19,8.7-29.3,6.3c-6.8-1.4-13.4-3.6-19.8-6.3
			c0,0-20.6,8.7-34,6.3c-12.7-2.3-27.7-11-27.7-11s-2.4,6.3-26.9,11L2205.5,2977.9"/>
		<path class="st16" d="M2499.8,2224.5v346.6l-342.6,303.1c-33.2-96.5-35.6-182.8-35.6-220v-429.7L2499.8,2224.5"/>
		<path class="st17" d="M2499.8,2224.5v346.6l341.8,303.1c33.2-96.5,35.6-182.8,35.6-220v-429.7L2499.8,2224.5"/>
		<g>
			<path class="st6" d="M2278.8,2905.9c25.7,14,17,9.6,70.4,28.5c43.5,15.1,94.1,22.2,167.7,22.2c64.4,0,100.6-5.1,121-10.7
				c21.2-6.1,26.2-14.6,26.2-14.6l-53,53.8c0,0-213.1,11.5-251.6-13.5C2344.5,2963.6,2312,2937.5,2278.8,2905.9L2278.8,2905.9z"/>
			<path class="st18" d="M2591.4,2805.4c0,0,68,38.8,0,113.2 M2285.2,2909.8l98.1-93.4l-11.1,125.1 M2423.6,2950.9v-207.2
				 M2591.4,2952.5V2731 M2506.7,2956.5v-238.2"/>
			<path class="st19" d="M2423.6,2754.8l-44.3,14.2l44.3,4.8L2423.6,2754.8 M2506.7,2722.2l-46.7,17.4l46.7,1.6V2722.2z
				 M2591.4,2734.9l-46.7,17.4l46.7,2.4V2734.9L2591.4,2734.9z M2619.1,2835.5c-2.4-9.5,27.7-8.7,27.7-8.7s8.7,31.6,0,51.4
				l-25.3-4.7C2621.5,2873.5,2623.8,2852.1,2619.1,2835.5L2619.1,2835.5z"/>
			<path class="st20" d="M2300.2,2897.2l83.1-80.7l-4,48.3c0,0-42.7,27.7-42.7,47.5L2300.2,2897.2 M2344.4,2913.8
				c0,0,8.7-25.3,32.4-38l-2.4,50.7L2344.4,2913.8L2344.4,2913.8z M2464,2773.7c0,0,34-4.7,59.3,0c0,0-4,34,0,40.4
				c0,0-46.7-11.1-65.7,6.3C2457.7,2820.4,2451.3,2788.7,2464,2773.7L2464,2773.7z M2392,2782.4c0,0,34-4.7,59.3,0
				c0,0-6.3,38-2.4,44.3c0,0-38-21.4-57-4C2392,2822.8,2379.3,2796.7,2392,2782.4L2392,2782.4z"/>
			<path class="st21" d="M2389.6,2826.7c0,0,34-3.9,59.3,0c0,0-3.9,34,0,40.4c0,0-44.3-10.3-63.3,6.3
				C2385.6,2873.4,2376.9,2841.7,2389.6,2826.7z M2457.6,2820.4c0,0,49.1-6.3,74.4-2.4c0,0-10.3,27.7,2.4,46.7c0,0-53-14.3-72.8,2.4
				C2461.6,2867.1,2445,2835.4,2457.6,2820.4L2457.6,2820.4z M2385.7,2873.4l65.7,4.7c0,0-6.3,48.3-2.4,54.6c0,0-53-12.7-63.3,4.7
				C2385.6,2937.5,2368.2,2893.2,2385.7,2873.4L2385.7,2873.4L2385.7,2873.4z M2460,2873.4c0,0,56.9-4,83.1,0
				c0,0-15.1,36.4,1.6,68.1c0,0-74.4-21.3-84.7-4C2460,2937.5,2442.6,2893.2,2460,2873.4L2460,2873.4z M2547.1,2773.7
				c0,0,34-4.7,59.3,0c0,0-3.9,34,0,40.4c0,0-46.7-11.1-65.7,6.3C2540.7,2820.4,2534.4,2788.7,2547.1,2773.7L2547.1,2773.7z
				 M2547.1,2820.4c0,0,34-3.9,59.3,0c0,0-3.9,34,0,40.4c0,0-46.7-10.3-65.7,6.3C2540.8,2867.1,2534.4,2835.4,2547.1,2820.4
				L2547.1,2820.4z M2551,2869.5c0,0,34-4.7,60.1,0c0,0-8.7,53-4.8,59.3c0,0-38.7-18.2-57-2.3
				C2549.5,2926.5,2538.4,2884.5,2551,2869.5z"/>
			<path class="st16" d="M2621.4,2873.4c0,0,11.1,40.3,25.3,45.1l-19,22.9c0,0-22.9-16.6-25.3-35.6
				C2602.4,2905.9,2617.5,2888.5,2621.4,2873.4L2621.4,2873.4z"/>
			<path class="st22" d="M2791,2982.6c-54.6,91-144,176.5-291.2,229.5c-149.6-53.8-240.6-143.2-294.4-233.5l0.8-0.8
				c24.5-4.8,26.9-11.1,26.9-11.1s15,8.7,27.7,11.1c13.5,2.4,34-6.3,34-6.3s8.7,4,19.8,6.3c10.3,2.4,29.3-6.3,29.3-6.3
				s15.8,6.3,26.9,6.3c10.3,0,33.2-6.3,33.2-6.3s24.5,10.3,32.4,10.3c8.7,0,33.2-7.9,33.2-7.9s23.7,11.1,30.1,11.1
				c6.3,0,22.9-11.1,22.9-11.1s11.1,13.5,23.7,11.1c12.7-1.6,32.5-10.3,32.5-10.3s11.9,7.1,24.5,9.5c13.4,2.4,22.9-9.5,22.9-9.5
				s7.1,7.1,17.4,9.5c11.1,2.4,26.9-10.3,26.9-10.3s6.3,9.5,21.4,11.1c15,2.4,30.1-10.3,30.1-10.3s10.3,11.9,22.1,10.3
				c8.7-0.8,19.8-11.1,19.8-11.1S2783.9,2980.3,2791,2982.6"/>
			<path class="st11" d="M2777.6,3003.2c-11.9,0.8-13.5-7.1-13.5-7.1s-15.8,13.5-30.9,11.1c-15.8-2.4-22.9-12.6-22.9-12.6
				s-16.6,13.4-27.7,11.1c-11.1-1.6-19-9.5-19-9.5s-10.3,11.9-23.7,9.5c-13.5-1.6-25.3-9.5-25.3-9.5s-21.4,8.7-34.8,11.1
				c-13.5,2.4-24.5-12.7-24.5-12.7s-30.9,10.3-37.2,10.3c-7.1,0-29.3-10.3-29.3-10.3s-15,9.5-23.7,9.5c-9.5,0-34.8-11.1-34.8-11.1
				s-23.8,6.3-34.8,6.3s-27.7-6.3-27.7-6.3s-20.6,8.7-31.7,6.3c-11.1-2.4-19.8-6.3-19.8-6.3s-22.2,8.7-35.6,6.3
				c-13.5-2.4-29.3-11.1-29.3-11.1s-2.4,5.5-28.5,11.1h-0.8"/>
			<path class="st23" d="M2263.4,3045.3c-0.4,0-5.6,1.2-5.6,1.2c1.9-0.3,3.5-0.6,5.1-1c-1.9,0.7-3.9,1.4-5.8,2
				c23.3,33.7,58.3,64.3,94.7,88.8c36.4,24.5,78.3,53.8,149.6,74.7c74.9-29.2,94.9-40.4,143.9-73.2c49-35.8,74.5-58.1,101.8-94.8
				c-21.4,12.2-18.3,12.3-29.4,10.7c-11.1-2.4-19.2-10.4-19.2-10.4s-10.1,12.1-23.6,10.4c-13.5-2.4-25.3-10.4-25.3-10.4
				s-17.6,11.9-35,11.2c-13.5-0.8-24.6-12.6-24.6-12.6s-30.9,10.2-37.2,10.2c-7.1,0-29.2-10.2-29.2-10.2s-15.1,9.5-23.8,9.5
				c-9.5,0-34.8-11.2-34.8-11.2s-23.7,6.3-34.7,6.3c-11.1,0-27.7-6.3-27.7-6.3s-19.8,8.7-31.6,6.3c-6.8-1.5-13.5-3.6-19.9-6.3
				c0,0-22,8.7-35.5,6.3c-13.5-2.4-29.4-11-29.4-11S2284,3040.7,2263.4,3045.3L2263.4,3045.3z"/>
			<path class="st23" d="M2501.3,3211.1c77.4-32.2,91.4-41,138.2-69.6c-8.2,0.2-31.9-7.5-23.3-9.9c0,0-9.5,8.6-19,8.6
				c-8.7,0-34-11.1-34-11.1s-23.7,6.3-34.8,6.3s-27.7-6.3-27.7-6.3s-20.6,8.7-31.7,6.3c-6.8-1.4-13.4-3.6-19.8-6.3
				c0,0-22.9,8.7-35.6,6.3c-13.4-2.3-29.3-11.1-29.3-11.1s-19.5,10.3-31.7,11.5C2390.1,3163.2,2429.4,3190,2501.3,3211.1
				L2501.3,3211.1z"/>
		</g>
		<g>
			<path class="st6" d="M2849.9,2614.8c-7.1,5.6-19.2,7-19.2,7c-13.4-15.8-24.5-32.5-43.5-53l-206.5-254l21.4-20.6l185.9,217.6
				c5.5,5.5,38,39.6,68.9,79.9C2856.7,2591.7,2859.4,2607.5,2849.9,2614.8L2849.9,2614.8z"/>
			<path class="st24" d="M2651,2347.1l-33.2-39.6c0,0-25.3,3.1-30.1,16.6c0,0-18.2,30.1-66.5,33.2c0,0,13.4,56.2,69.6,86.3
				c0,0,20.6-57.8,40.3-68.1C2631.2,2375.6,2651.7,2360.6,2651,2347.1L2651,2347.1z"/>
			<path class="st6" d="M2567.9,2522.8c-4.8-1.6-9.5,0-16.6,4c-6.3,4-14.2,2.4-13.5-5.6c0.8-7.1,0-6.3,8.7-11.8
				c12.7-7.1,29.3-7.9,39.6-4L2567.9,2522.8 M2793.4,2298c-1.6-5.5-3.1-11.1,2.4-18.2c5.5-6.3,5.5-17.4-7.9-11.9
				c-13.4,5.6-18.2,20.6-7.1,43.5L2793.4,2298L2793.4,2298z"/>
			<path class="st24" d="M2563.2,2527.6l234.2-232.7l57.7,61.7c0,0-11.9-4.8-16.6-1.6c-4,3.2,4.7,15,4.7,15s-11.1-4-15.8-0.8
				c-5.5,3.1,0,16.6,0,16.6s-9.5-7.1-14.2-4c-3.9,3.2,0,18.2,0,18.2s-12.6-3.9-15.8-0.8c-3.2,3.2,0,16.6,0,16.6s-12.7-6.3-19,0
				c-6.3,6.3,3.2,15,3.2,15s-15.8-6.3-22.2,3.1c-6.3,9.5,0.8,18.2,0.8,18.2s-12.7-6.3-15.8-3.2c-3.2,3.2,0,18.2,0,18.2
				s-11.1-6.3-18.2,1.6c-7.1,8.7,0.8,15.8,0.8,15.8s-10.3-6.4-15.8-3.2c-5.5,3.2,1.6,18.2,1.6,18.2s-10.3-7.1-17.4,0
				c-7.1,7.9,0,15.8,0,15.8s-8.7-7.9-17.4,0c-7.9,8.7,0,17.4,0,17.4s-12.6-6.3-17.4,0c-5.5,6.3,1.6,15.1,1.6,15.1s-9.5-5.6-15.8-2.4
				c-6.3,3.2,0,17.4,0,17.4s-9.5-10.3-13.4-4.7c-4.8,5.5,0.8,19,0.8,19s-8.7-10.3-13.5-4.7c-5.5,4.8,3.2,16.6,3.2,16.6
				s-15.8-7.1-11.9-7.1L2563.2,2527.6z"/>
			<path class="st25" d="M2783.9,2313.9l-18.2,18.2l4,62.5c0,0,4-18.2,9.5-5.6c0,0,1.6-15,5.6-12.6
				C2781.5,2374.8,2783.9,2313.9,2783.9,2313.9 M2749.9,2347.9l-13.5,12.7l4.8,62.5c0,0,4-23.8,9.5-4.7c0,0-0.8-15.8-0.8-21.4
				C2749.9,2400.9,2749.9,2347.9,2749.9,2347.9 M2608.3,2488l-12.7,13.4l3.2,38c0,0,4-24.5,9.5-5.6c0,0-1.6-15.8-1.6-21.4
				C2606.7,2516.5,2608.3,2488,2608.3,2488"/>
			<path class="st26" d="M2592.4,2331.3c8.7,8.7,33.2,40.3,33.2,40.3 M2603.5,2348.8c-1.6,4.7-4.7,18.2-11.8,25.3 M2607.4,2351.9
				c-0.8,3.2-0.8,13.4-11.8,23.8 M2611.4,2356.7c-1.6,5.5-2.4,9.5-6.3,13.4 M2613.8,2361.4c0,4-2.4,4.7-3.1,7.1 M2584.6,2346.3
				c-3.2,3.2-26.1,18.2-38.8,22.9 M2578.2,2355c-3.2,3.2-17.4,14.2-25.3,17.4 M2575.9,2364.5c-4.8,3.2-12.7,11.1-19,13.5
				 M2571.1,2374c-3.2,4-7.9,7.1-11.9,9.5"/>
		</g>
		<g id="_x31__31_">
			<path class="st6" d="M2180.4,2253.9c-5.5-0.1-12.1,3.1-22.2,12.3c-16,14.4-21.7,29.3-0.7,47.2l103.9,94.5
				c15.2,14.7,36.4,17.4,45.3,25.1l105.6,108c13.3,11.5,19.7,19.6,12.2,29.5c-8.3,16.2,0.6,18.3,2.5,18.8c14.5,3.3,6.6-5.8,8.5-10.5
				c2.5-9.9,13.3-18.4,21-22.5c5-1.9,7.7-0.9,9,1.8c4.5,1.8,9.4-5,2.7-12.2c-5.8-8-14.8,5-25,2c0,0-15.4-9.5-19.6-16.3
				c-9-10-20.5-18.9-27.1-27.5c-7-7.9-33.5-43-73.8-83.3c-11.6-7.6-9-36.2-17.3-45.1c-0.7-6.2-80.6-85.2-109.1-113.9
				C2190.3,2257.6,2185.9,2254.1,2180.4,2253.9z"/>
			<path class="st11" d="M2185.5,2296.5l108.6,107.3"/>
			<path class="st24" d="M2332.5,2345.5c1.7-3.2,5.3-11.5,9.2-20.4c1.5-3.5,30.7-50.1,45.3-51.5c0,0,90.8,66.1,90.9,67
				c0.3,3.6-39.4,62.9-42.9,58.4C2435,2398.9,2328.6,2354.3,2332.5,2345.5L2332.5,2345.5z"/>
			<path class="st27" d="M2390.3,2361c-12.5-9.7-33-19.1-49.6-30.1l-7.5,15.6c6,6.7,81.6,41.8,94,48.6
				C2427.3,2395.1,2412.9,2378.6,2390.3,2361L2390.3,2361z"/>
			<path class="st11" d="M2340.7,2328.9c9.7,6.8,28.2,18.5,39.9,25.3c22.4,15.6,36.5,32.7,52.5,41.8"/>
			<path id="_x31__33_" class="st6" d="M2156.7,2612l206.8-255.9c3.9-3.6,23.1-3.7,25.7,16.1L2193.3,2639
				C2193.3,2639,2171,2636.8,2156.7,2612L2156.7,2612z"/>
			<path id="_x31__32_" class="st28" d="M2433.7,2382.7c2.6-4.8,7.1-14.1,13-22.7c7.5-10.9,10.7-12.7,14.6-16.5"/>
		</g>
		<path id="_x31__30_" class="st11" d="M2238.4,2224.5h522.7 M2803.8,2224.5h73.5v429.7c0,85.5-11.9,425.8-377.5,558
			c-366.4-132.2-378.2-472.5-378.2-558v-429.7h74"/>
	</g>
	<g id="_x31__8_" transform="translate(0 .006)">
		<path class="st6" d="M2673.2,1657.7c-10.5,1.3-20,8.5-30.7,26.7c-18.7,35.7-14.1,55.2,42.3,79.6h0l211.6,103.6
			c42.4,20.6,57.7,1.5,81.6,11.9l417.6,212.7c35.8,15.7,55.9,20.7,50.7,39.2c-0.7,23.9,7.7,27.2,13.5,28.3c9,3.8,16,5.9,17.9-4.5
			c1.4-2.1-1.1-5.4-3.8-9.8c-2.7-4.4-5.5-9.8-4.8-16c0.7-6.2,1.2-9.1,3.2-12.4c2.1-3.3,5.7-6.9,12.6-14.4c3.4-3.8,6.7-5.5,9.8-5.7
			c3.1-0.3,6,0.7,8.8,2.4c3.9,2.3,7.2,4.9,10.7,7.3c13.9-1.1,1.5-20.9-8.1-28.4c-21-9.9-23.4,12.5-45.5,10.1c0,0-39.6-15-53.8-25.3
			c-26.2-14.3-62.9-31.2-71.2-40.5c-26.7-5-227.4-117.9-341.1-174.6c-12.2-10.2-18.8-48-42.8-60.6c-7-10.2-161-80.5-241.5-120.7
			C2695.3,1661.1,2683.8,1656.5,2673.2,1657.7L2673.2,1657.7z"/>
		<path class="st29" d="M3003.1,1846.9c5.5-2.4,4,4.8,4.8,7.1c2.4,10.3,2.4,21.4,6.3,30.9c4.7,8.7,6.3,11.9,14.2,15.8
			c12.6,7.1,49.8,27.7,76,11.1c1.6-0.8,3.9-2.4,5.5-3.9c0,0-9.5,32.4,22.9,48.3c40.6,21.4,81.2,42.8,121.9,64.1
			c0,0,11.9,21.4,4.7,50.6c-1.6,4.7-3.2,8.7,1.6,11.9c7.9,5.5,20.6,21.4,29.3,46.7c0,0,22.9-10.3,22.9-25.3c0-15-9.5-22.9-11.9-34
			c-1.5-10.3-7.9-36.4-4.7-44.3c3.1-8.7,16.6-11.9,22.1-15.1c5.6-3.2,11.9,3.1,10.3,10.3c-0.8,7.9-6.3,6.4-12.7,7.9
			c0,0,7.9,15,6.3,26.1l72.8,37.2c0,0-9.5,12.7-12.7,18.2c-4,5.6-11.1,79.1-32.4,114c-21.4,34.8-28.5,25.3-32.4,30.1
			c-4.7,3.9-11.1,10.3-16.6,15c-4.7,4-29.3,6.3-34.8-7.1c-5.5-12.7-9.5-20.6-24.5-32.5c-15-11.8-45.9-41.9-45.9-55.4
			c0,0-18.2,52.3-15.8,95.8c0,0-65.7,13.5-125.8,15.1c-59.4,0.8-89.4-11.9-89.4-11.9s-7.9-49.9-4.8-59.4c0,0-9.5,32.4-15.8,43.5
			c-8.7,13.4-17.4,41.1-34,42.7c-17.4,0.8-30.9-16.6-33.2-23.7v-52.2H2810c0-0.8-29.3,11.1-39.6,9.5c-9.5-0.8-14.2-9.5-6.3-12.7
			l3.2-2.4c-8.7,0-19.8,5.5-19.8,5.5h-33.2c0-0.8,0.8-3.2,0.8-4c2.4-9.5,19.8-17.4,33.2-22.9c12.7-4.7,26.1-10.3,35.6-11.1
			c15-1.6,25.3-0.8,48.3,3.2c6.3,0.8,30.9,3.2,45.1,10.3c3.9,2.4,8.7,3.1,6.3-7.1c-2.4-11.1-9.5-43.5,2.4-64.9
			c7.9-15,7.1-27.7,6.3-40.4c-1.6-13.4-8.7-43.5-8.7-57c0-44.3,34-62.5,64.1-72c33.2-10.3,55.4-21.4,53.8-41.1
			C3000.7,1896.8,3006.2,1862.7,3003.1,1846.9"/>
		<path class="st29" d="M3136.9,1757.5c7.1,26.1,8.7,32.4,8.7,41.2c0,9.5-4,11.1-0.8,21.4c5.5,19-5.5,39.6-19,61.7
			c-6.3,10.3-11.1,23.7-21.4,30.1c-26.1,16.6-57.8-3.2-74.4-10.3c-8.7-3.9-13.5-10.3-15.8-16.6c-3.2-9.5-4-18.2-6.3-30.9
			c0-2.4,0.8-9.5-4.8-7.1c-9.5-11.1-7.9-15.8-11.8-23.7c-4-8,7.1-16.6,15.8-15c-4.8-15-7.1-31.7-2.4-45.9c1.6-4.7-4-17.4,4-14.2
			c35.6,14.2,77.5,11.1,115.5,11.1c3.1,0,5.5-6.3,10.3-5.5C3135.3,1753.6,3136.1,1756,3136.9,1757.5"/>
		<path class="st30" d="M3140,1770.9c4-3.2,1.6-18.2-2.4-34c-1.6-7.9-7.9-11.1-16.6-19.8c-8.7-8.7-11.9-8.7-17.4-11.1
			c-4.8-1.6-15.8-1.6-21.4-4c-4.7-2.4-17.4-0.8-29.3,0.8c-15.8,2.4-24.5,1.6-36.4,7.9c-11.9,6.3-21.3,13.5-25.3,25.3
			c-3.2,8.7-8.7,19.8-6.3,53c1.6,33.2,7.9,26.9,7.9,26.9s8.7-12.7,14.2-4.8c0,0-0.8-17.4-2.4-27.7c-0.8-9.5,0-21.4,4-35.6
			c0,0,36.4,13.5,70.4,13.5c23.7,0,54.6-2.4,55.4-7.9L3140,1770.9L3140,1770.9z"/>
		<path class="st11" d="M3091,1808.2c4.8,13.5,0.8,9.5,3.2,18.2 M3014.2,1842.2c0,6.3-4.7,4.7-7.9,4.7"/>
		<path class="st11" d="M3140.8,1797.9c-7.1-5.6-20.6-1.6-26.9,0.8c-11.9,5.5-5.5,17.4-1.6,28.5c1.6,5.5,7.9,13.4,4,19
			c-3.1,6.3-5.5,3.2-12.7,4c0.8-2.4-6.3,0-8.7,0c-4.7-0.8-7.1,3.1-11.1,1.6c-4.7-2.4-3.9-9.5-2.4-13.5 M3082.3,1803.4
			c0-3.1-10.3-6.3-21.3-7.1c-17.4-0.8-19,0.8-32.5,10.3 M3117.9,1876.2c-3.1-4.7-7.9-7.1-16.6-3.2c0-1.6-11.8-3.2-11.8-3.2
			c-6.3,0-10.3,2.4-16.6,5.5 M3116.2,1880.2c-7.1-4.7-25.3-1.5-43.5-1.5 M3074.3,1885c13.5,4,26.9,6.3,40.3,0"/>
		<path class="st21" d="M3137.6,1808.2c-5.5-0.8-7.9-7.1-24.5,2.4c-8.7,4.7,14.2,11.1,11.1,10.3c9.5,1.6,12.7-3.9,13.5-8.7
			C3137.6,1810.6,3139.2,1808.2,3137.6,1808.2L3137.6,1808.2z M3072.8,1814.5c0-6.4-14.2-8.7-22.1-6.4c-7.9,2.4-4.7,0.8-11.9,4.8
			c7.9,1.6,5.5,2.4,11.9,5.5c7.1,3.2,8.7,6.3,18.2,1.6c2.4-0.8,5.5-4,6.3-7.1C3074.4,1813.7,3073.6,1814.5,3072.8,1814.5z"/>
		<path class="st30" d="M3127.4,1817.7c-3.5,0-6.3-2.7-6.3-6.1c0-0.1,0-0.1,0-0.2c0-4,2.4-7.1,6.3-7.1c3.1,0,5.5,3.2,5.5,7.1
			C3132.9,1814.5,3130.5,1817.7,3127.4,1817.7z M3059.3,1819.2c-3.2,0-5.5-3.1-5.5-7.1c0-4,3.1-6.3,6.3-6.3c3.2,0,5.5,2.3,5.5,6.3
			C3065.6,1816.1,3063.3,1819.2,3059.3,1819.2z"/>
		<path class="st11" d="M2721.7,2224.4c4.7-5.6,7.9-7.9,14.2-10.3c4.7-2.4,11.1-5.5,15.8-7.9c5.5-3.2,13.5-4,18.2-7.1
			 M2766.8,2219.7c2.4-1.6,4-2.4,6.3-4c2.4-0.8,5.5-0.8,7.9-1.6c0.8,0,0.8-1.6,1.6-1.6c7.1-0.8,14.3-4,19-10.3 M3289.9,2129.5
			c-7.1,5.5-24.5,17.4-26.1,40.4c-1.6,11.9-7.9,23.7-7.9,23.7 M3357.9,2132.7c-4,13.4-4.7,57.8-46.7,104.5 M3350,2070.9
			c3.2,8.7,7.1,16.6-1.6,23 M3236,2177c-8.7-19.8-35.6-18.2-35.6-37.2"/>
		<path class="st11" d="M3196.5,2174.6c2.4-22.2,7.1-34.8,3.1-67.3c-1.6-9.5-3.1-45.9,0-63.3c0,0-12.7,60.9,28.5,72.8
			 M2960.6,2214.2c0-30.9-7.1-48.3-7.1-48.3c-9.5-43.5,8.7-60.1,1.6-71.2c-6.3-9.5-15.8-29.3-3.2-68.9c0,0-22.2,81.5,34.8,81.5
			c57.7,0,55.4-21.4,55.4-21.4"/>
		<path class="st11" d="M3199.6,2044c0,16.6,0,65.7-70.4,65.7c-21.3,0-44.3-15-57-25.3 M3054.8,2063c2.4-15,2.4-34,2.4-53.8
			 M3163.2,1982.3c-19-2.4-34-4.7-69.7-4.7 M3091.2,1928.4c-4,17.4,2.4,45.1-30.1,49.1 M3027.1,1922.1c4.7,12.7,4.7,25.3,6.3,34
			 M3031.9,1977.6c-13.5,0-38.8-8.7-70.4-2.4 M2950.4,2152.4c-6.3,12.7-7.9,29.3-27.7,48.3 M3169.5,2112c-1.6,10.3,13.5,44.3,2.4,72
			c-10.3,27.7-8.7,59.4,8.7,86.3 M3129.2,2122.4c6.3,12.7,17.4,25.3,19.8,36.4 M3097.6,2146.1c0,7.9,21.3,68.1,36.4,84.7
			c0,0-27.7,11.1-23.7,51.4 M3053.3,2118.4c0,10.3,1.6,12.7-7.1,19 M3027.1,2137.4c-10.3,12.7-42.7,50.7-35.6,72 M3048.5,2158.8
			c-2.4,7.9-2.4,49.1,4.8,69.6 M3069.8,2226.8c8.7,0,21.4,6.3,23.7,21.4 M3025.6,2224.4c-8.7-2.4-26.1,12.6-26.1,55.4
			 M2877.6,2199.9c16.6,4.7,23.7,13.5,19,8.7c5.3,4.3,10.8,8.3,16.6,11.9"/>
		<path class="st30" d="M3157.7,2102.6c-4.7,0-8.7-3.2-8.7-7.1c0-3.2,3.9-6.3,8.7-6.3c4,0,7.9,3.1,7.9,6.3
			C3165.7,2099.4,3161.7,2102.6,3157.7,2102.6L3157.7,2102.6z M2978,2105c-4,0-7.9-3.2-7.9-7.1c0-3.9,4-6.3,7.9-6.3
			c4.7,0,8.7,2.4,8.7,6.3C2986.7,2101.8,2982.8,2105,2978,2105z"/>
		<path class="st24" d="M3229.7,2427.8c-9.5-61.7-38.8-113.2-39.6-117.9c0,0-30.1,6.4-82.3,11.1c-51.4,5.5-65.7,3.2-89.4,1.6
			c-17.7-1.9-35.4-4-53-6.3c0,0-9.5,19-10.3,38c-2.4,40.4-17.4,215.3-19,262c0,0-6.3,27.7-6.3,95.7c0,74.4-20.6,225.6-20.6,306.3
			l20.6,4c0,0,112.4,8.7,112.4-6.3c0-16.6,6.3-210.5-10.3-327.6c0,0,3.9-22.9,10.3-42.7c6.3-19,34-78.4,34-91
			c0,0,44.3,125,46.7,146.4c2.4,19.8,8.7,298.3,12.7,321.3c0,0,64.1,49.1,72.8,53.8c8.7,4,70.4-26.1,72-34
			c2.4-8.7-6.3-102.9-35.6-258c-11.1-55.4-4.8-65.6-4.8-80.7C3240,2688.2,3239.2,2489.6,3229.7,2427.8L3229.7,2427.8z"/>
		<path class="st11" d="M3122.9,2700.9c4.8,17.4,12.7,34,27.7,45.1 M3172,2328.9c2.4,10.3,17.4,57,55.4,84.7 M3116.6,2337.6
			c8.7,27.7,42.7,176.5,49.1,353 M3168,2746c1.6,16.6,10.3,140.1,12.7,161.4 M3187,2931.2c4,8.7,21.4,80.7,21.4,144.8
			 M2957.5,2796.7c1.6,15,7.9,121.9-27.7,217.6 M3073.8,2345.5c2.4,17.4,6.3,129.8,6.3,138.5c0,8.7-12.7,21.4-19,23.7
			c0,0,12.7,4,15,46.7 M3107.9,2454c2.4,13.4,15,66.5,23.7,87.8 M3029.5,2344c0,0-38,7.9-40.3,0c0,0-12.7,229.5-30.1,356.9
			 M3046.1,2373.2c0,15.1,4.8,128.2,4.8,128.2 M3031.9,2518c0,0-15,21.4-11.1,31.6 M3159.3,2331.3c-12.7,4-23.7,6.3-23.7,6.3
			 M3095.2,2350.3c2.4,6.3,4.7,35.6,4.7,35.6 M3031.9,2688.2c-4.8,6.3-11.1,15.1-6.3,34"/>
		<path class="st6" d="M3195.7,2308.4c0,0,0-25.3-9.5-38c0,0-26.9,5.6-64.9,9.5c-38.8,4-69.6,7.1-98.1,4
			c-28.5-3.1-57.8-10.3-57.8-10.3s-7.9,37.2-3.9,42.7c0,0,30.9,6.3,64.9,7.9c34.8,2.4,92.6-3.2,112.4-6.3
			C3164.8,2314.7,3187.8,2310,3195.7,2308.4L3195.7,2308.4z"/>
		<path class="st16" d="M3171.2,2311.5l-4.7-38l-7.9,0.8l1.6,39.6L3171.2,2311.5z M2999.4,2279.8l-0.8,42.7l-9.5-1.6l0.8-43.5
			L2999.4,2279.8z M3121.3,2279.8l3.2,41.1h-5.6l-5.5-41.1H3121.3z"/>
		<path class="st29" d="M3259,3057.8c2.4,10.3,6.3,24.5,7.9,42.7c0,3.9,3.9,25.3-7.9,26.1c-8.7,0.8-11.1-22.2-11.1-22.2
			s7.9,25.3-2.4,28.5c-14.2,3.1-15.8-27.7-15.8-27.7c1.6,8.7,11.1,30.9-2.4,33.2c-14.2,2.4-18.2-30.1-18.2-30.1s11.9,32.5-2.4,33.3
			c-13.5,0.8-13.5-31.6-13.5-31.6s7.1,38.8-11.9,35.6c-10.3-1.6-12.7-15.1-15-23c-3.2-11.8-10.3-26.9-1.6-51.4
			c6.3-18.2,3.9-22.9,3.9-22.9s22.2,16.6,39.6,27.7C3216.3,3080.8,3259,3057.8,3259,3057.8L3259,3057.8z M3027.9,3023.8
			c3.9-2.4,3.2,14.3,4.8,22.1c0.8,7.9-1.6,25.3-28.5,23.8c-26.1-2.4-52.2-7.9-68.8-4c-16.6,4.8-41.2,5.5-54.6,5.5s-22.2-1.6-28.5-4
			c-5.5-2.4-17.4,3.2-22.9,3.2c-5.5,0-14.3-8.7-13.5-14.2c0.8-10.3,10.3-10.3,23.7-11.1c12.7-1.6,30.1-4,38.8-7.1
			c8.7-3.2,24.5-11.9,44.3-15.8c0,0,38,1.6,45.9,1.6C2976.5,3023.8,3023.1,3026.1,3027.9,3023.8z"/>
		<path class="st31" d="M3411.4,2067.7c3.9,1.6,15-15.8,3.9-23.7c0,0-3.9-15-16.6-15.8c0,0-10.3-15-25.3-12.7
			c0,0-16.6-11.9-22.9-11.1c-7.1,1.6-22.9,17.4-23.8,22.9c-0.8,4.7,0,14.2,4,19c4.7,4,7.9-0.8,8.7-7.9c0,0-3.2,11.9,6.3,17.4
			c9.5,5.5,8.7,0.8,9.5-5.5c0,0,2.4,12.6,8.7,15c6.3,2.4,10.3-3.2,15-3.2c0,0-7.9,6.3-2.4,10.3c5.5,4.7,11.9,2.4,15.8-0.8
			C3397.2,2068.5,3394.8,2058.2,3411.4,2067.7L3411.4,2067.7z"/>
		<path class="st32" d="M3340.2,2038.5c3.9-13.5,17.4-24.5,31.6-22.2 M3355.3,2050.4c1.6-3.2,2.4-6.3,4.8-9.5
			c7.1-11.9,22.9-11.9,35.6-14.2 M3375.8,2061.4c4.7-3.2,6.3-8.7,11.1-11.1c7.9-4,16.6-7.1,25.3-5.6"/>
		<path class="st33" d="M3338.8,2015.3c-7,5.6-14.3,14-14.8,17.7c-0.8,4.8-0.1,14.2,3.9,19c4.3,3.6,7.4-0.1,8.5-6.1
			c-0.5,3.6-0.6,11.4,6.6,15.6c9.5,5.5,8.7,0.7,9.5-5.6c0,0,2.4,12.7,8.8,15.1c6.3,2.4,10.3-3.2,15.1-3.2c0,0-8,6.3-2.4,10.2
			c5.5,4.7,11.8,2.4,15.8-0.7c4.7-3.2,2.3-13.4,19-3.9c2.1,0.8,6.2-3.5,8-9l-59.8-43L3338.8,2015.3z"/>
		<path class="st29" d="M3326.2,2026.4c-11.7,20.1,3.9,32.1,9,20.4c-1.5,18.5,12.5,17.8,17.8,11.9c5.1,19.5,14.2,10.9,22.6,9.1
			c-9.5,17.8,11.5,12.5,16.5,8.4c7.2-10.6,10.5-2.2,15.8-3.2l9-9.7 M3354.9,2018.9c-13.1,7-19.5,16.6-19.7,28.8 M3373.1,2030.6
			c-13.1,7-19.5,16.6-19.7,28.8 M3395.4,2045.7c-13.1,7-13.7,13.4-19.4,22"/>
	</g>
	<path id="_x31__7_" class="st34" d="M3187.1,1414c-72.4-45.7-149.3-84-229.4-114.3c12.2-70.7-38-205.1-175.7-137.2
		c85.7,6.4,95.5,74.4,116.2,116.3c-106.1-34.3-216.3-54.5-327.6-60.1c-11.1-48.3-58.6-112-120.8-111.5
		c-28.4,0.2-59.7,13.8-91.9,48.4v0c77.5-22.8,111.7,28.6,144,61.4c-93.9,0.1-187.5,10.5-279.1,31c-30-66.3-135.9-146.9-218.2-24.8
		c75-35.4,117.1,13.7,155,40.7c-76.8,21.4-151.5,50-223,85.4c-0.3-0.5-0.4-1.2-0.7-1.7c-30.9-59.1-191.8-131.2-229.7,31.9
		c79.3-82.3,158.2,8.7,205.2-17.5c-71.9,37.6-140,81.9-203.6,132.3c-0.3-0.4-0.6-1-1-1.4c-43-51.1-215.8-87.1-217.4,80.2
		c58.4-95.4,152.4-28.2,194.1-59.1c-67.8,56.5-129.5,119.8-184.4,188.9c-1-1.1-1.9-2.4-2.9-3.4c-47.9-46.6-223.5-65.2-208.2,101.5
		c49.8-103.4,154.5-39.7,190.3-80.9c-5.5,6.3-8.3,14.2-9.8,23.1c-50.8,69.4-94.5,143.8-130.4,222c-59.1-31.7-232.5-2.3-172.4,153.7
		l0,0c19.7-113,137.9-79.7,161.1-129c-0.3,0.5-0.3,1.1-0.5,1.6c-36,83.4-63,170.5-80.5,259.6c-72.9,1.8-191.7,70.8-105.5,192.9
		c-6.2-82.4,55.6-103.5,94.6-128.9c-8.8,60.9-13.2,122.4-13.2,183.9c0,18.5,0.5,36.9,1.2,55.2c-65.8,28.6-152.2,148.2-15.8,222.6
		c-38.6-65.2-3.4-109.2,21.2-146.8c8.1,79.9,23.8,158.9,46.8,235.9c-61.6,39.6-124.4,150.5,5.1,215.6
		c-41.3-64.6-6.3-110.1,16.9-148.8c27.9,77.4,63.1,151.9,105.3,222.6c-49.4,53.4-82.1,184.4,65.2,209.1
		c-60.1-50.6-38.1-105.7-27.7-149.9c48.5,71.9,104.2,138.8,166.2,199.5c-46.5,55.5-72.2,191,77.9,205.9
		c-72.3-53.1-38.2-119.2-35.5-166.1c73,65.4,153.2,122.3,239.1,169.5c-13.1,71.7,25.8,193.8,162.4,143.9
		c-73.9-13.7-85-67.7-97.2-110.5c85.4,40.8,175.1,71.9,267.4,92.7c-1.3,72.6,47.9,174.5,172.9,119.1c-76-8.8-89.9-63.7-105.4-105.8
		c71.5,12.2,143.9,18.3,216.4,18.3c14,0,28-0.3,41.9-0.8c15.8,71.1,100.2,169.3,206.5,69.6c-80.7,18-110.8-38.6-141.5-73.3
		c95-7.8,188.8-26.2,279.7-54.9c43.9,58.4,150.5,110.9,212.6-13.5c-60.4,38.8-104.8,11.2-142.2-11.1c74-28.2,145.2-63.3,212.6-104.7
		c54.8,44.6,208.7,63.9,206.5-93.8c-40,68.9-99.7,55.9-145.8,54.1c73.7-51.2,141.8-109.9,203.3-175.3
		c64.5,34.5,197.3,34.6,188.4-111.6c-36.7,70.5-96.9,60.4-142.9,60.6c57.9-68.4,108.4-142.6,150.9-221.5
		c71.8,12.2,202.9-33.5,140.6-170c-8.7,76.9-65.8,90.1-108.5,106c39.9-85.2,70.1-174.6,90.3-266.6c71.7-15.5,170.8-98.7,71.2-204.6
		c14.7,66.9-22.9,98.5-56.2,124.7c9.9-64.8,14.9-130.2,14.9-195.8c0-9.1-0.2-18.3-0.4-27.4c69.8-22.3,160.8-115.1,50.7-210.8
		c24,73.1-21.8,108.6-54,140.5c-5.5-72.3-17.1-144-34.7-214.4c61.6-36.7,131.8-166.1-12.9-222.8c49.6,63.7,13.3,114-5.8,155.9
		c-23.1-74.8-53.1-147.2-89.6-216.5c52-50.5,91.6-183.1-56.6-212.8c59,53,34.2,107.9,22.6,152c-39.1-65.6-84.1-127.5-134.2-185.1
		c27.6-67.5,14.8-194.5-129-173.8c60.8,25,67.8,70.4,70.7,111.1c-51-51.3-106.2-98.2-165.1-140.2c19.9-68.8-16.2-209.2-160.7-155
		C3164.2,1313.6,3173.9,1370.8,3187.1,1414L3187.1,1414z M2504.2,1249c6.4,0,12.7,0.1,19,0.2c-43.1,25.8-80.2,110.9-172.8,87.2
		c99.8,112.8,209.4-15.8,221.5-85.6c109.2,5.8,217.2,25.9,321.2,59.9c-48.2,14.8-109.8,69.4-182.8,18.1
		c52.2,138.6,197.4,61.3,236.2,0.7c87.3,33,170.6,75.8,248.4,127.4c-50.3,2.8-122.5,64.4-195.5,1.4
		c37.7,142.2,188.3,81.4,234.2,25.3c67.7,48.7,130.4,104.1,187.1,165.2c2.8,7.8,6.9,14.6,13.4,19.6
		c-43.4-33.3-145.3,40.6-211.9-48.5c6.3,155.6,185.7,115.8,232.1,66.5c51.7,60.4,97.6,125.6,136.9,194.6
		c-43.7-24.8-139.1-9.8-167.4-102.3c-45.2,143.8,123.7,169.4,189.5,142.9c38,72.8,68.7,149.2,91.6,228.1
		c-41-29-131.1-34.1-142.2-126.7c-68,129.8,82.7,185.2,155.1,175c19.6,79.2,31.4,160.2,35.2,241.7c-16.1-48.1-121.9-79.9-98.6-181
		c-114.9,105.8,31.7,215.1,99.7,218.2c0.1,7.5,0.3,15,0.3,22.5c0,80.1-7.6,158.4-22,234.3c-2.8,5.1-4.7,10.5-5,16.4
		c2.8-54.3-116.5-95.2-80.8-200.4c-124.8,93.8,9.4,216.8,76.9,227c-21.9,96.6-55.2,190.2-99.4,278.9c-3-49.9-74.4-119-14.3-197.2
		c-144.2,47.6-66.1,199-5.9,236.3c-45.1,83.1-99.5,160.8-162.1,231.7c16.3-47.3-27-138.2,58-190.5
		c-155.5-6.7-132.3,170.8-87.3,222.6c-65,68.7-137.6,129.9-216.3,182.3c10.8-48.9-17.7-132.6,63.7-177.6
		c-143.7-12.8-141.2,139.7-106.2,204.8c-73.6,44.8-151.8,81.9-233.1,110.6c-7.6-1.8-14.9-2.1-22.2,0.2
		c52.2-16.5,48.8-141.7,160.5-145.5c-133.9-84-202.9,89.2-186.7,153.8c0.6,2.2,1.6,4.6,2.5,6.9c-91.5,28.3-186,46-281.5,52.6
		c45-22.5,87.8-105.9,179.1-75.9c-95.3-123.6-219.1,11.6-228.4,78.4c-13.2,0.4-26.5,0.7-39.9,0.7c-80.2,0-158.6-7.6-234.6-22
		c-4.2-4.8-9-8.7-15-11.1c50.8,20.3,128.6-78.4,217.1-10.7c-49.3-149.4-213.7-59.5-242.6,0.5c-1.7,3.6-3.2,7.6-4.4,11.9
		c-105.1-24-206.6-61.6-302-111.8c-0.2-0.1-0.3-0.3-0.5-0.3c49.4,23.6,133.6-69.6,217.4,3.9c-38.8-151.4-207-74.7-241.3-16.8
		c-78.6-43.6-152.2-95.5-219.7-154.9c49.2,9.6,123.2,2,155.5,79c30.7-147.8-140.8-156.4-203.3-123.3
		c-68.2-66.5-128.6-140.6-180.1-220.8c42.9,26.2,141.6,5.1,173.6,98.9c41.1-146.9-133.2-165.9-196.3-135.8
		c-48-80.9-86.6-166.9-115.2-256.5c17.6,50.8,141.9,49.4,144.7,159.6c85.7-132-87.6-202-153-186.6c-24.8-84.5-40.7-171.3-47.2-259.1
		c34.5,36.4,129.4,50.6,128.6,147c83.8-119.9-57.8-193.8-131.1-193c-0.7-16.2-1-32.3-1-48.5c0-65.6,5.1-130,14.8-192.9
		c18.1,46.6,90.4,100.2,48.2,183.4c133.6-73.7,26.7-209.2-39.3-233.7c13.5-68.3,32.6-135.4,57.3-200.5c15.9,44,37.3,96.8-9.2,150.2
		c131.7-35,89.7-164.1,37.9-219.7c29.6-65.7,64.8-128.6,105.2-188.2c3,44,3.7,94.2-50.5,129.8c133,1.7,131.2-127.2,98.9-196.2
		c46.2-59.2,97.5-114.2,153.5-164.2c-2.1,48.2,2.5,109.9-64.4,144.9c134.6,15.2,143.9-118.3,116.8-189.3
		c50.8-40.7,104.7-77.4,161.2-109.7c-12.4,46.5-21.6,107.3-94.1,127c128.1,43.5,166-84.6,155.1-159.7
		c75.5-37.8,154.6-67.7,236.1-89.4c-37.8,33-61.5,120.8-155.8,111.9c119.3,98.3,208.7-55.4,205.2-124
		C2320.6,1259,2412.3,1249,2504.2,1249L2504.2,1249z"/>
	<g id="_x31__6_" transform="translate(0 .006)">
		<path class="st35" d="M1740.1,3057.9c-2.4,10.3-6.3,24.5-7.9,42.7c0,3.9-3.9,25.3,7.9,26.1c8.7,0.8,11.1-22.2,11.1-22.2
			s-7.9,25.3,2.4,28.5c14.3,3.1,15.8-27.7,15.8-27.7c-1.6,8.7-11.1,30.9,2.4,33.2c14.2,2.4,18.2-30.1,18.2-30.1s-11.9,32.5,2.4,33.2
			c13.5,0.8,13.5-31.6,13.5-31.6s-7.1,38.8,11.9,35.6c10.3-1.6,12.7-15.1,15-23c3.2-11.9,10.3-26.9,1.6-51.4
			c-6.3-18.2-3.9-23-3.9-23s-22.2,16.6-39.6,27.7C1782.9,3080.8,1740.1,3057.8,1740.1,3057.9L1740.1,3057.9z M1971.2,3023.8
			c-4-2.4-3.2,14.2-4.8,22.1c-0.8,7.9,1.6,25.3,28.5,23.8c26.1-2.4,52.2-7.9,68.8-4c16.6,4.8,41.1,5.5,54.6,5.5
			c13.5,0,22.2-1.6,28.5-4c5.5-2.3,17.4,3.2,22.9,3.2c5.6,0,14.3-8.7,13.5-14.2c-0.8-10.3-10.3-10.3-23.7-11.1
			c-12.7-1.6-30.1-4-38.8-7.1c-8.7-3.2-24.5-11.9-44.3-15.8c0,0-38,1.6-45.9,1.6C2022.7,3023.8,1976,3026.1,1971.2,3023.8z"/>
		<path class="st6" d="M1604.1,2092.3l576.1-298.4c2.8-15.4-6-27.5-15-39.6c-164.7,80.8-314.7,178.8-497.7,238.2
			c-10.3,4-101.3,41.9-148,98.1c-14.8,14.8-15.9,36.7-15.9,36.7s1.1,25.1,6.4,31.9c0,0,1.4,6.9,10,12.4c-0.1,0,5.3,2.6,9.1,1.3
			c4.2,0.8,11,0.7,20.5-15.9C1559,2141.4,1589.8,2105,1604.1,2092.3L1604.1,2092.3z"/>
		<path class="st24" d="M2067.8,1797.1l74.4-35.6c0,0,25.3,19,22.9,40.4c0,0,5.5,49.1,66.5,83.1c0,0-51.5,64.1-141.6,69.6
			c0,0,10.4-84.6-8.6-109.1c0,0-3.2,3-1.8-1.2c2.7-8.2-1.8-36.5-13.4-42.7C2064.7,1800.9,2067.1,1798.6,2067.8,1797.1L2067.8,1797.1
			z"/>
		<path class="st36" d="M2154.8,1807.4c-15.8,6.3-67.2,33.2-67.2,33.2 M2130.3,1823.2c-0.8,7.9-5.5,26.9,0,40.4 M2123.2,1825.6
			c0,3.9-6.3,18.2,0.8,37.2 M2115.3,1829.6c-1.6,7.9-3.2,12.7,0,21.4 M2108.9,1834.3c-1.6,4.7,0,7.1,0,10.3 M2155.6,1831.9
			c2.4,6.3,23.7,39.6,36.4,53 M2158.8,1846.9c2.4,6.3,14.3,29.3,23,38 M2157.2,1860.4c3.2,7.9,9.5,22.2,15.8,30.1 M2157.2,1876.2
			c1.6,6.3,4.8,14.2,9.5,19.8"/>
		<path class="st37" d="M1996.5,1846.9c-1.6,4.8-5.5,1.6-5.5,3.2c-3.2,16.6-2.4,25.3-6.3,34.8c-5.5,11.1-25.3,21.4-24.5,20.6
			c-15.8,4.7-34.8,23.7-65.6,6.3c-1.6-0.8-3.2-2.4-4.7-4c0,0,8.7,32.4-22.9,48.2c-11.1,5.6-122.7,64.1-122.7,64.1s-11.9,21.4-4,50.6
			c0.8,4.8,2.4,8.7-2.4,11.9c-7.1,5.5-20.6,21.4-28.5,46.7c0,0-23.7-10.3-23.7-25.3c0-15,9.5-22.9,11.9-34
			c2.4-10.3,8.7-36.4,5.5-44.3c-3.2-8.7-17.4-11.9-22.9-15c-4.8-3.2-11.1,3.1-10.3,10.3c0.8,7.9,6.3,6.3,12.7,7.9
			c0,0-7.1,15-6.3,26.1l-72,37.2c0,0,9.5,12.7,12.7,18.2c3.1,5.5,10.3,79.1,31.7,114c21.4,34.8,28.5,25.3,33.2,30.1
			c4,3.9,10.3,10.3,15.8,15c5.5,4,30.1,6.3,34.8-7.1c5.5-12.7,9.5-20.6,24.5-32.5c15-11.8,45.9-41.9,45.9-55.4
			c0,0,18.2,52.2,15.8,95.8c0,0,66.5,13.5,125.8,15c59.4,0.8,89.4-11.8,89.4-11.8s7.9-49.9,4.7-59.4c0,0,9.5,32.4,16.6,43.5
			c7.9,13.4,16.6,41.1,34,42.7c16.6,0.8,30.9-16.6,32.4-23.7v-52.2h67.3c0-0.8,30.1,11.1,39.6,9.5c9.5-0.8,15-9.5,6.3-12.7l-3.1-2.3
			c8.7,0,19.8,5.5,19.8,5.5h33.2c0.8-0.8,0-3.2-0.8-4c-2.4-9.5-19.8-17.4-32.4-22.9c-12.7-4.7-26.9-10.3-36.4-11.1
			c-15-1.6-25.3-0.8-48.3,3.2c-6.3,0.8-30.1,3.2-45.1,10.3c-4,2.4-7.9,3.2-6.3-7.1c2.4-11.1,1.6-60.9-10.3-82.3
			c-8.7-15-7.9-27.7-6.3-40.3c0.8-12.7,1.6-56.2,0-68.9c-2.4-12.7-19.8-30.1-51.4-34c-30.1-4-55.4-28.5-57-48.3
			C1987.9,1899.1,1993.4,1862.7,1996.5,1846.9"/>
		<path class="st35" d="M1862.1,1757.6c-5.5,25.3-5.5,47.5-4.7,72c0.8,16.6,8.7,35.6,15.8,52.2c4.7,11.1,11.1,23.7,21.4,30.1
			c27.7,18.2,53.8-1.6,68.9-7.9c7.1-2.4,18.2-12.7,21.4-19c4-9.5,2.4-16.6,6.3-34.8c-0.8,0.8,6.3-3.2,5.5-3.2
			c7.1-11.9,5.5-15.8,9.5-23.8c4-7.9-4.7-16.6-14.2-15c4.7-15,7.9-31.7,3.1-45.9c-1.6-4.7,4-17.4-4.7-14.2
			c-35.6,14.2-77.5,11.1-115.5,11.1c-3.2,0-5.5-6.3-10.3-5.5C1863.7,1753.6,1862.9,1756,1862.1,1757.6"/>
		<path class="st30" d="M1858.9,1770.9c-3.9-3.2-4.7-10.3,0-25.3c5.5-15,0-15.8,8.7-24.5c8.7-8.7,6.3-12.7,11.9-15
			c5.5-1.6,22.2-1.6,27.7-4c4.8-2.4,11.9-5.6,22.9-7.1c11.9-2.4,35.6-1.6,46.7,4.7c11.9,6.3,19.8,22.2,26.9,27.7
			c7.9,5.5,12.7,28.5,11.1,61.8c-2.4,33.2-8.7,26.9-8.7,26.9s-9.5-15.8-17.4-2.4c0,0,0-12.7,1.6-22.2c0.8-9.5-4.8-26.9,0.8-38.8
			c0,0-45.1,14.2-68.1,13.5c-23.7-1.6-57-7.1-58.5-12.7L1858.9,1770.9"/>
		<path class="st38" d="M1881.8,1743.3c-2.4-4.8-14.2-22.2-4.8-27.7c8.7-4.8,3.2,21.3,15.1,26.9
			C1892.1,1742.5,1888.2,1754.4,1881.8,1743.3L1881.8,1743.3z"/>
		<path class="st11" d="M1908,1808.2c-3.9,13.5-5.5,16.6-7.1,24.5 M1983.2,1845.4c1.6,4.7,3.1,2.3,7.1,3.1 M1993.4,1817.7
			c4-4.7,9.5-2.4,6.3,9.5"/>
		<path class="st11" d="M1862.1,1789.2c7.1,2.4,14.2,4.7,21.4,7.9c11.9,4.7,4.7,22.1,1.6,33.2c-1.6,5.6-7.9,15-4.7,19.8
			c4,6.3,8.7,2.4,15.8,3.1c0-2.4,4.8-4,6.3-4c5.5-0.8,8.7,3.9,12.7,2.4c4.8-2.4,4-9.5,2.4-13.5 M1916.7,1803.4
			c0.8-3.1,7.9-6.3,11.9-7.1c16.6-3.1,28.5-5.5,41.9,4 M1926.2,1886.5c-13.5,3.2-27.7,5.5-40.3-1.6 M1885.8,1878.7
			c6.3-3.2,8.7-6.3,16.6-2.4c0-0.8,8.7-3.2,8.7-3.2c6.3,0,10.3,2.4,16.6,6.3 M1885,1881.8c7.1-2.4,26.1-2.4,42,0.8"/>
		<path class="st21" d="M1861.3,1808.2c5.5-0.8,11.9-7.1,24.5,2.4c8.7,5.5-14.2,11.1-10.3,10.3c-10.3,1.6-13.5-4-14.2-8.7
			C1861.3,1810.6,1859.7,1808.2,1861.3,1808.2L1861.3,1808.2z M1926.2,1814.5c5.6-11.1,14.3-8.7,22.2-6.3c7.9,2.4,5.6,0.8,12.7,4.8
			c-8.7,1.6-6.3,2.4-12.7,5.5c-7.1,3.2-13.4,4.8-18.2,1.6c-1.6-1.6-5.5-4-5.5-7.1C1924.6,1813.7,1925.4,1814.5,1926.2,1814.5
			L1926.2,1814.5z"/>
		<path class="st30" d="M1872.3,1817.7c3.2,0,5.5-3.2,5.5-6.3c0-4-2.4-7.1-5.5-7.1c-3.9,0-6.3,3.2-6.3,7.1
			C1866,1814.5,1868.4,1817.7,1872.3,1817.7z M1939.6,1819.2c3.2,0,5.5-3.1,5.5-7.1c0-3.4-2.7-6.3-6.1-6.3c-0.1,0-0.1,0-0.2,0
			c-3.1,0-5.5,2.3-5.5,6.3C1933.3,1816.1,1936.5,1819.2,1939.6,1819.2L1939.6,1819.2z"/>
		<path class="st11" d="M2277.5,2224.5c-4.7-5.6-7.9-7.9-14.2-10.3c-4.7-2.4-11.1-5.5-15.8-7.9c-5.5-3.2-13.5-3.9-18.2-7.1
			 M2232.4,2219.7c-2.4-1.6-3.9-2.4-6.3-4c-2.4-0.8-5.5-0.8-7.9-1.6c-0.8,0-0.8-1.6-1.6-1.6c-7.1-0.8-14.2-4-19-10.3 M1709.3,2129.5
			c7.1,5.5,24.5,17.4,26.1,40.4c1.6,11.9,7.9,23.7,7.9,23.7 M1641.3,2132.7c4,13.4,4.8,57.8,46.7,104.5 M1649.2,2070.9
			c-3.2,8.7-7.1,16.6,1.6,22.9 M1763.1,2177c8.7-19.8,35.6-18.2,35.6-37.2"/>
		<path class="st11" d="M1802.7,2174.6c-2.4-22.2-7.1-34.8-3.1-67.3c1.6-9.5,3.1-45.9,0-63.3c0,0,12.7,60.9-28.5,72.8
			 M2038.5,2214.2c0-30.9,7.1-48.3,7.1-48.3c9.5-43.5-8.7-60.1-1.6-71.2c6.3-9.5,15.8-29.3,3.2-68.9c0,0,22.1,81.5-34.8,81.5
			c-57.7,0-55.4-21.4-55.4-21.4"/>
		<path class="st11" d="M1799.5,2044c0,16.6,0,65.7,70.4,65.7c21.4,0,44.3-15,57-25.3 M1944.4,2063c-2.4-15.1-2.4-34-2.4-53.8
			 M1835.9,1982.3c19-2.4,34-4.7,69.6-4.7 M1908,1928.4c4,17.4-2.4,45.1,30.1,49.1 M1972,1922.1c-4.8,12.7-4.8,25.3-6.3,34
			 M1967.3,1977.6c13.5,0,38.8-8.7,70.4-2.4 M2048.8,2152.4c6.3,12.7,7.9,29.3,27.7,48.3 M1829.6,2112.1c1.6,10.3-13.5,44.3-2.4,72
			c10.3,27.7,8.7,59.3-8.7,86.2 M1870,2122.4c-6.3,12.7-17.4,25.3-19.8,36.4 M1901.6,2146.1c0,7.9-21.3,68.1-36.4,84.7
			c0,0,27.7,11.1,23.7,51.4 M1945.9,2118.4c0,10.3-1.6,12.7,7.1,19 M1972,2137.4c10.3,12.7,42.7,50.7,35.6,72 M1950.7,2158.8
			c2.4,7.9,2.4,49.1-4.7,69.6 M1929.3,2226.9c-12.1,0.4-22.1,9.4-23.7,21.4 M1973.6,2224.5c8.7-2.4,26.1,12.6,26.1,55.4
			 M2121.6,2200c-16.6,4.7-23.7,13.5-19,8.7c-8.7,7.1-16.6,11.9-16.6,11.9"/>
		<path class="st30" d="M1841.5,2102.6c4.7,0,8.7-3.2,8.7-7.1c0-3.2-3.9-6.3-8.7-6.3c-4,0-7.9,3.1-7.9,6.3
			C1833.5,2099.4,1837.5,2102.6,1841.5,2102.6L1841.5,2102.6z M2021.1,2105c4,0,7.9-3.1,7.9-7.1c0-3.9-3.9-6.3-7.9-6.3
			c-4.7,0-8.7,2.4-8.7,6.3C2012.4,2101.9,2016.4,2105,2021.1,2105L2021.1,2105z"/>
		<path class="st24" d="M1769.5,2427.9c9.5-61.7,38.8-113.2,39.6-117.9c0,0,30.1,6.3,82.3,11.1c51.4,5.5,65.7,3.2,89.4,1.6
			c22.9-2.4,53-6.3,53-6.3s9.5,19,10.3,38c2.4,40.4,17.4,215.3,19,262c0,0,6.3,27.7,6.3,95.8c0,74.4,20.6,225.6,20.6,306.3l-20.6,4
			c0,0-112.4,8.7-112.4-6.3c0-16.6-6.3-210.5,10.3-327.6c0,0-3.9-22.9-10.3-42.7c-6.3-19-34-78.4-34-91c0,0-44.3,125-46.7,146.4
			c-2.4,19.8-8.7,298.3-12.7,321.3c0,0-64.1,49.1-72.8,53.8c-8.7,4-70.4-26.1-72-34c-2.4-8.7,6.3-102.9,35.6-258
			c11.1-55.4,4.7-65.6,4.7-80.7C1759.2,2688.3,1760,2489.6,1769.5,2427.9L1769.5,2427.9z"/>
		<path class="st11" d="M1876.3,2700.9c-4.7,17.4-12.7,34-27.7,45.1 M1827.2,2328.9c-2.4,10.3-17.4,57-55.4,84.7 M1882.6,2337.6
			c-8.7,27.7-42.7,176.5-49.1,353 M1831.2,2746c-1.6,16.6-10.3,140.1-12.7,161.4 M1812.2,2931.2c-4,8.7-21.4,80.7-21.4,144.8
			 M2041.7,2796.7c-1.6,15-7.9,121.9,27.7,217.6 M1925.4,2345.6c-2.4,17.4-6.3,129.8-6.3,138.5c0,8.7,12.7,21.4,19,23.8
			c0,0-12.7,4-15,46.7 M1891.3,2454c-2.4,13.4-15,66.5-23.7,87.9 M1969.6,2344c0,0,38,7.9,40.4,0c0,0,12.7,229.5,30.1,356.9
			 M1953.1,2373.3c0,15-4.7,128.2-4.7,128.2 M1967.3,2518.1c0,0,15,21.4,11.1,31.6 M1839.9,2331.3c12.7,4,23.8,6.3,23.8,6.3
			 M1904,2350.3c-2.4,6.3-4.8,35.6-4.8,35.6 M1967.3,2688.3c4.8,6.3,11.1,15.1,6.3,34"/>
		<path class="st6" d="M1803.5,2308.4c0,0,0-25.3,9.5-38c0,0,26.9,5.6,64.9,9.5c38.8,4,69.6,7.1,98.1,4
			c28.5-3.1,57.8-10.3,57.8-10.3s7.9,37.2,3.9,42.7c0,0-30.9,6.3-64.9,7.9c-34.8,2.4-92.6-3.2-112.4-6.3
			C1834.3,2314.7,1811.4,2310,1803.5,2308.4L1803.5,2308.4z"/>
		<path class="st16" d="M1828,2311.5l4.7-38l7.9,0.8l-1.6,39.6L1828,2311.5z M1999.7,2279.8l0.8,42.7l9.5-1.6l-0.8-43.5
			L1999.7,2279.8z M1877.9,2279.8l-3.2,41.2h5.5l5.5-41.2H1877.9z"/>
		<path class="st39" d="M1576.4,2039.3c-3.9,2.4-8.7-15.8,3.2-22.9c0,0,3.2-15,15.8-16.6c0,0,10.3-14.2,25.3-12.6
			c0,0,17.4-11.9,23.7-10.3c6.3,0.8,22.2,16.6,22.9,22.2c1.6,5.5,0,15-4,19c-4.8,4.7-7.9-0.8-8.7-7.1c0,0,3.2,11.9-6.3,16.6
			c-9.5,5.6-8.7,1.6-9.5-4.7c0,0-2.4,12.7-8.7,14.3c-6.3,2.4-10.3-3.2-15-3.2c0,0,7.9,6.3,2.4,11.1c-5.5,4-11.9,2.4-15.8-0.8
			C1597.7,2040.1,1593,2029.8,1576.4,2039.3L1576.4,2039.3z"/>
		<path class="st40" d="M1653.9,2010c-4-12.7-16.6-23.8-31.7-22.2 M1639.7,2021.8c-2.4-3.2-3.2-6.3-5.5-9.5
			c-7.1-11.9-22.2-11.1-34.8-14.3 M1618.3,2033.7c-4.7-3.2-6.3-9.5-11.1-11.8c-7.9-3.2-15.8-7.1-25.3-5.6"/>
		<path id="_x31__1_" class="st35" d="M1740.2,3057.9c-2.4,10.3-6.3,24.5-7.9,42.7c0,3.9-3.9,25.3,7.9,26.1
			c8.7,0.8,11.1-22.2,11.1-22.2s-7.9,25.3,2.4,28.5c14.2,3.1,15.8-27.7,15.8-27.7c-1.6,8.7-11.1,30.9,2.4,33.2
			c14.2,2.4,18.2-30.1,18.2-30.1s-11.9,32.5,2.4,33.2c13.4,0.8,13.4-31.6,13.4-31.6s-7.1,38.8,11.9,35.6c10.3-1.6,12.7-15.1,15-23
			c3.2-11.9,10.3-26.9,1.6-51.4c-6.3-18.2-3.9-23-3.9-23s-22.2,16.6-39.6,27.7C1782.9,3080.8,1740.2,3057.8,1740.2,3057.9
			L1740.2,3057.9z M1971.3,3023.8c-3.9-2.4-3.2,14.2-4.7,22.1c-0.8,7.9,1.6,25.3,28.5,23.8c26.1-2.4,52.2-7.9,68.8-4
			c16.6,4.8,41.2,5.5,54.6,5.5c13.5,0,22.2-1.6,28.5-4c5.6-2.3,17.4,3.2,22.9,3.2c5.5,0,14.3-8.7,13.5-14.2
			c-0.8-10.3-10.3-10.3-23.7-11.1c-12.7-1.6-30.1-4-38.8-7.1c-8.7-3.2-24.5-11.9-44.3-15.8c0,0-38,1.6-45.9,1.6
			C2022.7,3023.8,1976,3026.1,1971.3,3023.8z"/>
	</g>
	<g id="_x31__5_" transform="translate(0 .006)">
		<path id="_x31__16_" class="st41" d="M1843.9,3080l-1.6-36.4l15,12.7l4-27.7c6.3-1.6,16.6,11.1,16.6,11.1l-1.6-27.7l22.9,25.3
			c0,0-1.6-21.4,6.3-34c0,0,17.4,15.1,17.4,32.5c0,15.1,15-21.4,15-21.4c4,12.7,12.7,40.4,12.7,40.4l10.3-15l8.7,31.7l19-27.7
			l15,32.5l34-2.4l4,19l15-16.6l19.8,12.7c0,0,16.6-4.8,25.3-4.8s19,11.1,19,11.1s6.3-11.1,12.7-15.1c6.3-3.9,15,6.4,17.4,12.7
			l12.7-22.9c0,0,16.6,16.6,19,22.9c0,0,2.4-19,6.3-25.3c4-6.3,10.3,2.4,15,10.3l10.2-34c0,0,11.1,2.3,19,15c8.7,12.7,8.7-19,8.7-19
			s19,25.3,23.7,42.7c0,0-131,45-223.4,32.7c-108.8-14.5-198.3-35.1-198.3-35.1 M2742,3076.1c0,0,6.3-17.4,15.1-26.1
			c0,0,16.6,19.8,16.6,26.1c0,0,4.7-2.4,13.5-8.7l12.7,12.7l15-10.3l14.2,12.6l26.1-11.1l10.3,11.1l40.3-4.7l15,6.3l14.2-18.2
			l13.5,14.2l21.4-21.4c0,0,10.3,8.7,12.7,15c0,0,17.4-8.7,21.4-15c0,0,16.6-6.3,19,4c0,0,10.3-7.9,9.5-16.6
			c-0.8-8.7,11.9-2.4,15.8,8.7c0,0,4.7-17.4,17.4-19c0,0,8.7,10.2,6.3,29.3c0,0,19-15.1,27.7-16.7c0,0,4,21.4-2.4,40.4
			c0,0,19.8-32.5,23.7-21.4c1.6,6.3,6.3,27.7,1.6,42.7l17.4-11.1l6.3,21.4l19-4c0,0-112.3,17.2-218.2,7.1
			C2841.3,3113.4,2741.9,3076.1,2742,3076.1 M2663.7,3154.6c5.1-3.2-35.4,83.3-133.5,87.9c-136.6,6.4-253.4-61.8-253.4-61.8
			s14.2-23.7,22.9-30.1c0,0,19,15,25.3,34c0,0,2.4-12.7,8.7-23.7c0,0,23.7,11,27.7,26.1c0,0,8.7-15,15.1-19
			c6.3-4.8,12.7,16.6,12.7,29.3c0,0,15-15.9,23.7-16.7c0,0,16.6,7.9,21.4,35.6c0,0,15.8-15,21.4-12.7c0,0,19,12.7,14.2,30.1
			c-2.4,9.5,19-11,45.1-17.4l22.9,17.4c0,0,21.4-28.5,27.7-38c0,0,17.4,6.3,17.4,16.7c0,0,7.9-30.1,14.2-33.2
			c6.3-3.9,15,9.5,15,18.2c0,0,2.4-23,15-27.7c0,0,12.7,8.7,12.7,17.4C2640,3187.1,2653.4,3161,2663.7,3154.6L2663.7,3154.6z"/>
		<path id="_x31__15_" class="st4" d="M1843.9,3080l-1.6-36.4l15,12.7l4-27.7c6.3-1.6,16.6,11.1,16.6,11.1l-1.6-27.7l22.9,25.3
			c0,0-1.6-21.4,6.3-34c0,0,17.4,15,17.4,32.4c0,15.1,15-21.4,15-21.4c4,12.7,12.7,40.4,12.7,40.4l10.3-15.1l8.7,31.6l19-27.7
			l15,32.4l34-2.4l4,19l15-16.6l19.8,12.7c0,0,16.6-4.8,25.3-4.8c8.7,0,19,11.1,19,11.1s6.3-11.1,12.7-15c6.3-4,15,6.3,17.4,12.6
			l12.7-22.9c0,0,16.6,16.6,19,22.9c0,0,2.4-19,6.3-25.3c4-6.3,10.3,2.4,15,10.3l10.3-34c0,0,11.1,2.3,19,15c8.7,12.6,8.7-19,8.7-19
			s19,25.3,23.8,42.7 M2742,3076.1c0,0,6.3-17.4,15-26.1c0,0,16.6,19.8,16.6,26.1c0,0,4.8-2.4,13.5-8.7l12.7,12.6l15-10.3l14.2,12.7
			l26.1-11.1l10.3,11.1l40.3-4.7l15.1,6.3l14.2-18.2l13.5,14.2l21.4-21.4c0,0,10.3,8.7,12.7,15c0,0,17.4-8.7,21.4-15
			c0,0,16.6-6.3,19,3.9c0,0,10.3-7.9,9.5-16.6c-0.8-8.7,11.8-2.4,15.8,8.7c0,0,4.8-17.4,17.4-19c0,0,8.7,10.3,6.3,29.3
			c0,0,19-15,27.7-16.6c0,0,4,21.4-2.4,40.4c0,0,19.8-32.5,23.8-21.4c1.6,6.3,6.3,27.7,1.6,42.7l17.4-11.1l6.3,21.4l19-4
			 M2276.2,3180.9c0,0,14.2-23.7,22.9-30.1c0,0,19,15.1,25.3,34c0,0,2.4-12.6,8.7-23.7c0,0,23.7,11,27.7,26.1c0,0,8.7-15,15-19
			c6.3-4.8,12.7,16.6,12.7,29.3c0,0,15-15.8,23.7-16.6c0,0,16.6,7.9,21.4,35.6c0,0,15.8-15,21.4-12.7c0,0,19,12.7,14.2,30.1
			c-2.4,9.5,19-11.1,45.1-17.4l22.9,17.4c0,0,21.4-28.5,27.7-38c0,0,17.4,6.3,17.4,16.6c0,0,7.9-30.1,14.2-33.2
			c6.3-3.9,15,9.5,15,18.2c0,0,2.4-22.9,15-27.7c0,0,12.7,8.7,12.7,17.4c0,0,13.5-26.1,23.7-32.5"/>
	</g>
</g>
<path id="_x31__37_" class="st2" d="M2500,5000h2500V2500C5000,3880.7,3880.7,5000,2500,5000z"/>
<path id="_x31__36_" class="st2" d="M2500,0c1380.7,0,2500,1119.3,2500,2500V0H2500z"/>
<path id="_x31__35_" class="st2" d="M0,2500v2500h2500C1119.3,5000,0,3880.7,0,2500z"/>
<path id="_x31__34_" class="st2" d="M2500,0H0v2500C0,1119.3,1119.3,0,2500,0z"/>
</svg>
