<?xml version="1.0" encoding="UTF-8"?>
<svg id="Layer_1" data-name="Layer 1" xmlns="http://www.w3.org/2000/svg" xmlns:xlink="http://www.w3.org/1999/xlink" version="1.1" viewBox="0 0 1000 1000">
  <defs>
    <style>
      .cls-1 {
        fill: #f7e017;
      }

      .cls-1, .cls-2, .cls-3, .cls-4, .cls-5 {
        stroke-width: 0px;
      }

      .cls-6 {
        clip-path: url(#clippath);
      }

      .cls-2 {
        fill: none;
      }

      .cls-3 {
        fill: #000;
      }

      .cls-4 {
        fill: #cf1126;
      }

      .cls-5 {
        fill: #fff;
      }
    </style>
    <clipPath id="clippath">
      <circle class="cls-2" cx="500" cy="500" r="500"/>
    </clipPath>
  </defs>
  <g class="cls-6">
    <g>
      <rect class="cls-1" x="-517.7" y="-8.9" width="2035.4" height="1017.7"/>
      <path class="cls-5" d="M-517.7,61.8v452.3l2035.4,212v-240.3L-517.7,61.8Z"/>
      <path class="cls-3" d="M-517.7,302.1v212l2035.4,424v-212L-517.7,302.1Z"/>
      <g>
        <path class="cls-4" d="M465.7,796.4c-27.4-3.6-52.5-12.3-69.9-24.3-3.4-2.3-6.6-4.2-7.1-4.2s-.9,2.6-.9,5.8c0,9-3.6,13.5-12.7,15.9-8.7,2.3-22-2.3-32.8-11.2-11.2-9.3-24-16.3-34.9-19.2-9-2.3-20.9-2-29.5.9-4,1.3-8.6,3.2-10.1,4.2-1.6,1-3.3,1.8-3.9,1.8-1.5,0-1.3-9.7.3-12.8,2.1-4.1,7.3-8.1,13.3-10.3,3.1-1.1,5.6-2.5,5.6-3.2s-1-3-2.3-5.2c-4.1-7.2-2.4-14.1,4.7-19.6,7.3-5.6,19.7-6.6,30.7-2.4,2.8,1,5.3,1.9,5.7,1.9,1.4,0,.6-2-3.4-7.8-4.6-6.7-5.5-10-4.9-18,.7-10.1,9-18.3,19-19.1,8.2-.6,13.3,2.2,25.5,13.7,36.3,34.6,75.7,53.6,121.7,58.8,11.6,1.3,35,.6,48.7-1.5,41.4-6.2,83.1-27,115.6-57.7,9-8.5,13.4-10.7,20.7-10.8,6.4,0,10.9,2,15.5,7.1,4.2,4.7,5.6,9.1,5.2,16.2-.3,4.5-1,6.8-3.7,11.2-4,6.5-3.3,7.1,4.6,4,10.7-4.2,23.8-2.2,30.9,4.5,6.2,5.9,6.8,11.8,2,19.9-1.8,2.9-3.2,5.7-3.2,6.1,0,.8,1.3,1.2,7.8,2.2,8.5,1.4,13.3,7.6,13.3,17.3s-.4,5.2-.8,5.2-3.6-1.2-7.1-2.6c-9.9-4.1-15.5-5.1-27-5-8.8,0-11.8.5-17.9,2.5-9.4,3.1-19.4,9-27.6,16.3-9,8-14.7,10.6-23.4,10.5-8.1,0-13.7-2.4-16.7-7.1-1.6-2.5-1.8-4-1.4-9.6.3-3.7.2-6.7,0-6.7s-3.5,2-7.1,4.5c-9.4,6.4-15.4,9.6-26.1,13.9-32.8,13-80,18.6-116.2,13.8h0Z"/>
        <path class="cls-4" d="M480.7,733.5c-54.5-5.2-106.7-33.6-138.4-78.7-34.4-47-45.3-109-34.8-165.7,5.6-25.8,16.9-51.7,36.1-70-15.3,32.5-20.5,69.8-12.3,105,12.7,70.3,72.1,129.9,143.2,140.2,28.1,8.1,57.2-.5,84.1-9.2,59.3-20.9,104.4-77.2,109.9-140,4.7-34-.5-69.4-15.8-100.2,8.7,4.6,19.8,22.7,26.3,34.9,22.6,43.8,23.7,96.3,10.3,143.1-18.1,59.5-63.6,111.6-123.7,130.6-27.3,8.9-56.3,11.6-84.9,10.1h0Z"/>
        <g id="hand">
          <path class="cls-4" d="M206,655.3c-3.6-.6-7.5,3-6.2,6.6,2.6,3.7,7,5.5,11,7.3,9.6,3.8,20,5.3,30.3,5.1-3.6,0,1.2,0,2.5,0,8.2,0,16.3-1.4,23.9-4.2,4.3-1.5,9.7-2.9,11.5-7.6,1.7-3.1-1.4-6.1-4.5-5.5-4.3.9-8.4,2.9-12.7,4-9.3,2.6-19.1,3.6-28.7,2.8-7-.9-13.9-3.1-20.4-5.9-2.3-1-4.4-2.4-6.9-2.8h0Z"/>
          <path class="cls-4" d="M210,640.7c-3.6-.5-6.7,3.6-5.2,6.9,2.8,4,7.4,6.2,11.8,8.1,7.6,3,15.8,4.3,24,4.1-3.1,0,1.1,0,2.2,0,6.9,0,13.8-1.4,20.2-4,3.9-1.5,8.7-3,10.4-7.3,1.3-2.4.3-5.8-2.7-6-2.7-.1-5.1,1.6-7.6,2.4-9.2,3.8-19.3,5.4-29.1,4.5-6.2-.8-12-3.1-17.6-5.7-2.1-1-4-2.6-6.3-3h0Z"/>
          <path class="cls-4" d="M214.9,626.6c-3.1-.4-5.2,3.1-4.7,5.9.5,2.5,2.7,4.1,4.5,5.6,7.5,5.5,17.1,7.9,26.3,7.5-3.6,0,4.8,0,2.3,0,5.9,0,11.6-1.5,16.9-4,3.5-1.5,7.6-3.3,8.8-7.3.6-1.9.9-4.6-1.2-5.6-2.2-1.2-4.4.7-6.4,1.4-6.8,3.4-14.3,5.4-21.9,5.3-6.6.2-12.8-2.5-18.5-5.5-2.1-1.1-3.8-2.9-6.1-3.4h0Z"/>
          <path class="cls-4" d="M162.9,419c-4.6,4.6-1.1,13.1-1.3,19.1,2.4,18.6,5.3,37.4,12.3,54.9,8.5,17.1,26.6,26.3,37.5,41.4,3.9,7.3,2.5,16.1,3.3,24,.6,21.7.4,43.5,0,65.2,9.8,4.9,20.5,9.9,31.7,8,6.7-1.6,19.1-2.6,20.5-9.2-.5-37.5-.9-74.9-1.4-112.4-3.8-11.5-15.5-17.4-24.2-24.8-7.2-7.1-13.9-14.7-20.1-22.8-3.7-6.2-18.2-8.5-12.9,2.4,3.1,9.4,10.9,16.4,12.9,26.3.4,5.4,6.9,15.4,1.4,18.5-3.5-6-8.6-11-15.1-14.1-6.3-4.7-16.6-6.6-18.9-14.9-1.7-11.7-7.7-22.3-15.4-31.1,2-10.5,0-23.7-9.1-30.4l-1.3-.3h0s0,0,0,0Z"/>
          <path class="cls-4" d="M176.9,421.1c-4.2.7-4,6-2.1,8.8,2.1,6.1,2.6,12.6,1.5,19,7.4,8.7,13.2,19.1,14.9,30.6,0,4.3,4.6,5.7,7.5,7.9,6.9,4.4,14.6,7.6,20.8,13.1,1.3,1.4,2.3,2.9,1.4,0-1-3.6-1.4-7.6-4.3-10.3-3.9-4.2-8.7-7.9-14.3-9.1-.5-5.8-3.2-11.2-5.8-16.3-2.8-4.9-5.8-10.2-10.7-13.4.2-8.6,0-17.7-3.7-25.6-1.1-2-2.7-4.5-5.3-4.6h0Z"/>
          <path class="cls-4" d="M188.7,424.5c-2.9.9-2.4,4.5-1.4,6.7,1.4,6.1,1.6,12.4,1.5,18.6,5.4,4.2,8.7,10.4,11.8,16.4,1.9,4,3.7,8.1,4.5,12.5,4.3,1.4,8.2,4.2,11.5,7.2-1.3-4.1-4.3-7.2-6.4-10.9-2.2-3.9-4.3-7.9-5.2-12.3-4.2-4.5-6.5-10.8-5.6-16.9.2-6.8-2-13.7-6.5-18.8-1.1-1.1-2.5-2.4-4.2-2.4h0Z"/>
          <path class="cls-4" d="M202,426.5c-1.6.3-2.6,1.8-3.4,3-.3,1.2,1.2,2.6,1.4,3.9,1.9,4.7,2.6,9.8,2,14.7-.1,3.5,1.1,7,2.9,10,.5-2.2,2.6-3.8,4.8-4,.8-.1,2,.3,1.5-1-.6-6.8-1.6-13.6-4-20-.9-2.3-2-4.7-3.9-6.2-.4-.3-.9-.5-1.4-.5h0Z"/>
        </g>
        <g>
          <path class="cls-4" d="M794,655.3c3.6-.6,7.5,3,6.2,6.6-2.6,3.7-7,5.5-11,7.3-9.6,3.8-20,5.3-30.3,5.1,3.6,0-1.2,0-2.5,0-8.2,0-16.3-1.4-23.9-4.2-4.3-1.5-9.7-2.9-11.5-7.6-1.7-3.1,1.4-6.1,4.5-5.5,4.3.9,8.4,2.9,12.7,4,9.3,2.6,19.1,3.6,28.7,2.8,7-.9,13.9-3.1,20.4-5.9,2.3-1,4.4-2.4,6.9-2.8h0Z"/>
          <path class="cls-4" d="M790,640.7c3.6-.5,6.7,3.6,5.2,6.9-2.8,4-7.4,6.2-11.8,8.1-7.6,3-15.8,4.3-24,4.1,3.1,0-1.1,0-2.2,0-6.9,0-13.8-1.4-20.2-4-3.9-1.5-8.7-3-10.4-7.3-1.3-2.4-.3-5.8,2.7-6,2.7-.1,5.1,1.6,7.6,2.4,9.2,3.8,19.3,5.4,29.1,4.5,6.2-.8,12-3.1,17.6-5.7,2.1-1,4-2.6,6.3-3h0Z"/>
          <path class="cls-4" d="M785.1,626.6c3.1-.4,5.2,3.1,4.7,5.9-.5,2.5-2.7,4.1-4.5,5.6-7.5,5.5-17.1,7.9-26.3,7.5,3.6,0-4.8,0-2.3,0-5.9,0-11.6-1.5-16.9-4-3.5-1.5-7.6-3.3-8.8-7.3-.6-1.9-.9-4.6,1.2-5.6,2.2-1.2,4.4.7,6.4,1.4,6.8,3.4,14.3,5.4,21.9,5.3,6.6.2,12.8-2.5,18.5-5.5,2.1-1.1,3.8-2.9,6.1-3.4h0Z"/>
          <path class="cls-4" d="M837.1,419c4.6,4.6,1.1,13.1,1.3,19.1-2.4,18.6-5.3,37.4-12.3,54.9-8.5,17.1-26.6,26.3-37.5,41.4-3.9,7.3-2.5,16.1-3.3,24-.6,21.7-.4,43.5,0,65.2-9.8,4.9-20.5,9.9-31.7,8-6.7-1.6-19.1-2.6-20.5-9.2.5-37.5.9-74.9,1.4-112.4,3.8-11.5,15.5-17.4,24.2-24.8,7.2-7.1,13.9-14.7,20.1-22.8,3.7-6.2,18.2-8.5,12.9,2.4-3.1,9.4-10.9,16.4-12.9,26.3-.4,5.4-6.9,15.4-1.4,18.5,3.5-6,8.6-11,15.1-14.1,6.3-4.7,16.6-6.6,18.9-14.9,1.7-11.7,7.7-22.3,15.4-31.1-2-10.5,0-23.7,9.1-30.4l1.3-.3h0s0,0,0,0Z"/>
          <path class="cls-4" d="M823.1,421.1c4.2.7,4,6,2.1,8.8-2.1,6.1-2.6,12.6-1.5,19-7.4,8.7-13.2,19.1-14.9,30.6,0,4.3-4.6,5.7-7.5,7.9-6.9,4.4-14.6,7.6-20.8,13.1-1.3,1.4-2.3,2.9-1.4,0,1-3.6,1.4-7.6,4.3-10.3,3.9-4.2,8.7-7.9,14.3-9.1.5-5.8,3.2-11.2,5.8-16.3,2.8-4.9,5.8-10.2,10.7-13.4-.2-8.6,0-17.7,3.7-25.6,1.1-2,2.7-4.5,5.3-4.6h0Z"/>
          <path class="cls-4" d="M811.3,424.5c2.9.9,2.4,4.5,1.4,6.7-1.4,6.1-1.6,12.4-1.5,18.6-5.4,4.2-8.7,10.4-11.8,16.4-1.9,4-3.7,8.1-4.5,12.5-4.3,1.4-8.2,4.2-11.5,7.2,1.3-4.1,4.3-7.2,6.4-10.9,2.2-3.9,4.3-7.9,5.2-12.3,4.2-4.5,6.5-10.8,5.6-16.9-.2-6.8,2-13.7,6.5-18.8,1.1-1.1,2.5-2.4,4.2-2.4h0Z"/>
          <path class="cls-4" d="M798,426.5c1.6.3,2.6,1.8,3.4,3,.3,1.2-1.2,2.6-1.4,3.9-1.9,4.7-2.6,9.8-2,14.7.1,3.5-1.1,7-2.9,10-.5-2.2-2.6-3.8-4.8-4-.8-.1-2,.3-1.5-1,.6-6.8,1.6-13.6,4-20,.9-2.3,2-4.7,3.9-6.2.4-.3.9-.5,1.4-.5h0Z"/>
        </g>
        <path class="cls-4" d="M493.9,663.9c-19.1-1.8-36.3-15.7-42.2-33.9.3-3.1,4.2,1.8,6.1,2.1,3.5,1.9,7.2,3.5,11.2,3.8,5,2.2,8.1,7.1,12.9,9.7,2.2,1.7,10.1,5.1,8.6-.4-1.8-2.9-3.1-6.5-1.5-9.8,2.7-5.9,6.8-11,10.9-15.9,3-1,5.1,5,7.3,7,3,4.6,6.6,10.3,4.9,16-1.7,2.1-2.9,8.5,1.8,6.4,5.7-2.5,10.3-6.7,15.1-10.6,4.1-2.9,9.4-3.1,13.7-5.6,2-.5,6.2-4.5,7-2.3-2.4,6.3-6.3,12-10.6,17.3-6.9,7.8-16.2,13.7-26.6,15.4-6.1,1.1-12.4,1.4-18.7.9h0Z"/>
        <path class="cls-4" d="M516.3,641.7c.4-3.8-.5-7.7-2.4-11.2-3-6.1-7.2-11.5-11.4-16.9-3.9-2.3-6.1,5.2-8.7,7.3-4,6-9.1,12.2-9.4,19.8-2.3,3.5-6.5-2.9-8.3-5-3.5-4.9-6.1-10.8-5.7-16.9-.4-9.9,1.5-19.8,5.1-29.1,2.7-7.9,7.2-15.6,6.7-24.2.3-6.5-1-13.7-6.3-18-5-3.9,3.2-4.8,5.9-2.7,4.5.3,6.9,7.7,11,5.9,1.6-3.9,2-8.5,5.3-11.5,3.3-4.5,6.7,1.9,7.9,4.9,2.3,2.6-.1,9.2,3.6,9.4,4.5-3.2,7.8-8.5,13.6-9.7,2.3-1.3,6.4-.2,3.3,2.5-4.3,4-8,9-8.7,15-1.3,7.5.6,15.1,3.8,21.9,6.3,13.3,11.1,28.3,8,43-1.5,6.6-5.9,12.2-11.4,16-.7.4-1.8.4-2-.6h0Z"/>
        <path class="cls-4" d="M509.5,541.9c-2.1-3.7-4.6-7.4-8-9.9-3.4,0-5.4,4.2-7.7,6.5-1.6,3-3.6,8-7.5,4.1-6.3-3.7-7.4-11.7-7.4-18.3-.4-10.7,3.9-20.7,7.8-30.5,2.4-6.1,1.8-13,.4-19.3-1.9-7.2-7.7-12.2-12.1-17.8.3-2.2,6-1,8.1-.6,4.7,1.2,7.6,5.4,11.1,8.4,2.5-.8,1.5-5.9,2.7-8.2,0-3.4,4.6-7.8,6.4-3,2.8,3.1,0,9.1,3.5,11,3.4-1.3,5.1-5,8.3-6.7,3.2-2.1,7.6-2.4,11-.7,1.2,3.1-3.7,5.7-5.2,8.4-5.7,7.1-7.7,16.8-5.3,25.6,1.9,6.9,5.4,13.3,6.6,20.4,1.4,8,1.4,16.4-.7,24.3-1.2,4.8-5.4,8-9.6,10-1.1-1-1.6-2.4-2.3-3.7h0Z"/>
        <path class="cls-4" d="M488.1,453.2c-4.7-3.5-6.3-6.8-6.3-13.4s.6-5.2,2.8-8.2c3.3-4.5,2.7-6-2-4.6-7.4,2.1-11,.2-11.2-6.1-.1-3.1.5-4.4,4.7-9.4,3.3-4,4.6-6.1,3.9-6.8-.7-.7-4.6,2.8-12.7,11-6.5,6.6-13.7,13.3-16.1,14.9-13.9,9.4-27.2,10.8-33.3,3.6-3.1-3.7-2.9-5.8.7-8,1.7-1,4.4-3.4,6.2-5.2,4.2-4.3,16.6-13.3,22.8-16.4,5-2.5,6.2-4.2,2.9-4.2s-17.7,8.8-28,18.2c-3,2.8-7.4,5.9-9.6,6.9-5.1,2.3-15.2,3.1-19.6,1.6-3.2-1-8.9-6.5-8.9-8.4s1.3-1.6,2.9-2.5c1.6-.8,4.5-2.9,6.4-4.6,8.2-7.2,23.7-14.6,36.1-17.2,3.9-.8,2.5-2.8-1.9-2.6-8.5.4-25.3,8.2-35.3,16.5-11.8,9.7-29.5,8.8-35.2-1.8-1-1.8-1.6-3.5-1.3-3.8.3-.3,3.8-1.3,7.8-2.3,4.3-1.1,12.9-4.6,21.1-8.7,12.9-6.4,16.7-7.8,25.6-9.2,4-.6,4.2-2.6.3-3-5-.6-12.6,1.9-26.1,8.6-17.4,8.5-22.2,10-31.4,9.5-8.3-.5-13-2.6-19.8-9-4.4-4.2-10.7-14.9-9.5-16.1.3-.3,2.3,0,4.5.6,2.4.7,9.4,1.2,17.8,1.2,11.7,0,14.9-.3,21.1-2.1,10.5-3,24.4-10.1,33.9-17.2,18.2-13.6,33.1-19.1,52-19.2,17.5,0,28.6,4,38.5,14,3.3,3.4,6.2,5.6,6.6,5.1s.9-6.3,1.1-13.1c0,0,5.1-.5,6.2.9,0,11,.1,11.9,1.7,11.9s2.2-1.1,2.9-2.7c1.5-3.6,7-8.5,13-11.5,12.8-6.5,34.9-6.7,52.7-.5,7.5,2.6,15.8,7.3,23.7,13.4,7.9,6.1,24.2,14.3,33.8,17,9.7,2.8,26.8,3.4,35.6,1.5,3.6-.8,7-1.5,7.5-1.5,3.2,0-2.3,10.8-8.7,17.1-11.8,11.6-27.2,11.5-48.9-.2-13.5-7.3-29.6-11.2-29.6-7.3s.8,1.4,2.1,1.4c4.7,0,13.8,3.2,26.4,9.1,13.7,6.5,21.3,9.2,25.9,9.2s3.4,2,.3,6.6c-3.3,4.8-8.8,7.2-16.6,7.2-7.5,0-11.6-1.7-18.3-7.2-11.2-9.3-39-19.7-38-14.1.2,1.1,1.6,1.8,4.4,2.2,9.7,1.5,21.1,6.9,32.7,15.6,3.6,2.7,7.3,5.4,8.3,5.9,1.6.9,1.6,1.2.4,3.6-2.1,3.9-7.4,6.9-13.1,7.5-7.4.8-13.8-1.4-20.5-7-14-11.8-27.3-20.3-31.5-20.3s-1.9,1.9,4.2,5.1c8,4.3,16.3,10,22.4,15.6,2.9,2.7,6.1,5.3,7.2,5.9,2.5,1.4,2.4,3.3-.4,7-2.9,3.7-7.6,5.4-13.7,4.7-12.2-1.3-21.7-7.2-36.7-22.7-5.9-6.1-11.1-11-11.6-11-2,0-.8,2.7,3,7,4.8,5.3,5.7,8.4,3.9,12.7-1.6,3.8-4.3,4.7-9.7,3.3-5.6-1.5-6.5-.1-2.8,4.4,5.5,6.8,4.7,15.1-2,20.8-2.1,1.8-4.3,3.2-4.8,3.2s-2-1.5-3.3-3.4c-4.3-6.5-8.1-6.5-12.3.1-1.5,2.3-2.7,4.2-2.7,4.2,0,0-2-1.4-4.4-3.2h0Z"/>
        <path class="cls-4" d="M509.4,320.5l-7.3,5.7-6.5-4.9v39.2l13.8.2v-40.2Z"/>
        <path class="cls-4" d="M464.5,279.9c-1.4,18.5-6.1,31.5-12.7,45.7l15.7-14.5,10.9,13,11.8-13.2,12.1,11.1,11.6-11.6,12,14.1,10.5-11.6,17.7,12.7c-6.4-14.3-15.1-26.3-14-46.4-17.2,12.8-58,15.1-75.6.7h0Z"/>
        <path class="cls-4" d="M495.7,270.4c-6.3.1-12.9.2-18.9,1.4-4.1.8-7.9,2.2-11,4.4.5,12.1,58,17.1,73.4.2-3.2-2.4-7.2-3.8-11.5-4.6-5.8-1.1-12.1-1.2-18.1-1.3,0,3.3,0,6.6,0,10h-13.7v-10h0Z"/>
        <path class="cls-4" d="M506.9,208.8h-8.9v69.9h9.1s-.2-69.9-.2-69.9Z"/>
        <path class="cls-4" d="M506.9,210.6l-3.4,33.4,34.4,16.8-17.4-23.3,23.8-7.7-37.3-19.2Z"/>
        <path class="cls-4" d="M503.1,201.9c-5.2,0-9.1,2-9.1,4.3s3.9,4.3,9.1,4.3,9-2,9-4.3-3.8-4.3-9-4.3Z"/>
      </g>
      <g>
        <path class="cls-1" d="M487.3,788.1c5.6-1.9,8.8-5.3,11.2-11.9,1.1-3.3,1.9-6.7,1.7-7.6-.5-2.1-2.9-2-5.6.2-1.8,1.5-2.1,2.3-1.5,5.5,1.3,7.9-1.5,9.9-16.5,11.5-1.5.2-5.8,0-9.6-.6-7.1-.9-9.7-.2-7.1,2,.8.7,2.8,1.5,4.4,1.9,4,1,18.7.3,23-1.1h0Z"/>
        <path class="cls-1" d="M518.4,786.8c.8-.8,3.8-2.1,6.5-3,3.6-1.2,5.5-2.4,7-4.7,4.4-6.5,3.6-12.2-2.9-19.8-3.5-4.1-5.1-4-7.9.6-2.4,4-2.4,4.2,1.1,5.1,1.8.5,3.6,1.8,4.5,3.5,3.8,6.6,2.7,10.6-2.9,10.7-5.1,0-6.5.8-7.9,4.1-.7,1.7-1.3,3.5-1.3,4.1,0,1.4,1.9,1.1,3.7-.5h0Z"/>
        <path class="cls-1" d="M508.2,779.4c1-2.6,1.3-7.3,1.2-16.8,0-7.3-.4-13.4-.6-13.7-.8-.8-5,1.9-5.6,3.6-.3.9.2,3,1,4.6,1.3,2.5,1.5,4.9,1.1,14.8-.5,12.5.3,14.6,2.9,7.5h0Z"/>
        <path class="cls-1" d="M484.3,773.4c.5-2.3,1.2-7.1,1.5-10.6s1-7.9,1.6-9.8c1.4-4.9,0-6.2-3.9-3.4l-2.9,2,.6,7c.6,6.3-.5,18.1-1.9,22.7-.4,1.2.2.9,1.8-1,1.3-1.5,2.8-4.7,3.3-7Z"/>
        <path class="cls-1" d="M463.1,776.8c5.2-4.3,4.6-11.7,5.7-17.7-.1-4,2.5-8.8.8-12.3-4.8.9-7.8,5.4-5.3,10,.2,5.3,0,11-2.7,15.7-2.2,3.1-9.2,2.3-8.9-2,1.8-6.5-6-3.3-9.1-1.6-2.4,1.6-7.3,1.8-5.6-2.3-1.1-5.5-8.2-2-12-2.1-3.6,0-.3-7.3-5.5-6-9.6-.8-20.2,0-28.6-5.7-4.9-2.3-4.2-8.2-1.6-12,3-5.2,3.9-11.7,8.7-15.7,4.8-4.6-4.5-2.6-6.6-1.1-4.6,2.5-.3,9.1-4.1,12.7-2.2,3.8-5.1,9-10.3,8.2-7.4-1.4-11.7-8.3-17-12.9-4.5-.9-2,7.4.4,9.1,4.6,3.5,10.1,6,15.7,7.5,5.6-.9,5.8,6.4,10.5,7.6,8.7,4.1,18.5,5.3,28,5.8,3.7.3,1.6,7,6.6,5.7,2.8.7,9-1,9.3,2.2-4.2,5,4,4.8,7,4,3.9-.6,8.8-2.1,9.9,3.2,3.2,3.4,9.2,2.9,13.1,1,.6-.3,1.1-.7,1.5-1.1h0Z"/>
        <path class="cls-1" d="M378.6,734c1.6-2,3.9-6,5.2-9,1.3-3,3.2-6.3,4.3-7.4,2.5-2.7,1.1-4.3-2.9-3.4-2.1.5-3,1.2-3.3,3.1-1.2,6-3.4,12.1-5.3,15-3.5,5.2-3.6,5.4-2.1,5.4s2.6-1.6,4.2-3.6h0Z"/>
        <path class="cls-1" d="M325.7,700.8c-4,0-4.1,2.5-.3,3.8,1.9.7,3.4,2.2,4.7,4.8,3.8,7.5,6,8.8,15.9,9.7l6.4.6.3,3.9c.2,2.1.7,3.9,1.2,3.9s3-1.1,5.5-2.3c4.7-2.4,9.1-7.9,9.1-11.4s-3.7-4.7-7.2-4.7-4.4,1.2-6.7,2.9c-7.1,5.2-14.7,4.1-18.9-2.6-3.4-5.5-7-8.6-10.1-8.6h0ZM360.2,714.6c1.9,0,2.4,1.4,1.3,4.1-.7,1.8-3,1.9-3.7,0-.8-2.1.3-4.2,2.4-4.2h0Z"/>
        <path class="cls-1" d="M628.4,705.9c-2.6,0-3.3.7-5,3.1-2.7,4-3,12.6-.5,15.7,1.5,1.9,1.8,1.9,5,.6,4.6-1.9,5.3-1.8,5.3.6,0,6.2-9,18.3-18.4,24.7-2.5,1.7-4.8,3.6-5,4.3-.7,1.8,2.8,1.4,7.1-.8,5.8-3,13.5-10.8,16.6-16.9,2.5-4.9,2.8-6.6,3.1-15.2.3-7.9,0-10.2-1.3-12.8-1.5-3-2-3.2-5.7-3.2s-.9,0-1.2,0h0ZM628.7,711.4c2,0,2.3.4,2.5,3.2.2,2.3-.2,3.7-1.5,4.9-1.8,1.6-1.9,1.6-3.4-.8-2.2-3.3-.8-7.3,2.4-7.3h0Z"/>
        <path class="cls-1" d="M585.8,771.8c8.3-4.1,13.1-8.7,16.3-15.3,1.5-3.2,2.7-6.1,2.7-6.6,0-1.1-4.1-3-6.5-3s-2.9-1.7-1.9-6.3c1-4.5-.2-10.2-2.2-10.2s-2,1.1-2.8,2.3c-1.3,2-1.4,2.8-.4,5.7,1.4,4.3.3,7.5-3.5,10.2-1.8,1.3-2.8,2.8-2.8,4.3s.2,2.2.3,2.2,2.2-1,4.5-2.3l4.1-2.3,2.4,1.9c1.3,1,2.4,2.8,2.4,3.8,0,5-14.3,13.5-24.2,14.3-5.2.4-6.1.2-8-1.6-1.5-1.5-1.9-2.7-1.5-4.5.3-1.3.8-3.8,1.1-5.4.9-4.4-1-3.8-4.2,1.3-2.7,4.2-3.5,8.7-2,11.1,1.2,1.9,9.4,3.8,15.2,3.4,3.6-.2,7.2-1.2,11-3.1h0Z"/>
        <path class="cls-1" d="M641,741c5.2-5.2,7.4-11.5,7.4-21.3v-7.3s4.3-2,4.3-2c5.6-2.7,10.9-7.9,10.9-10.9s-1.3-2.9-3.8.4c-1.8,2.4-4.1,3.8-12.8,7.8-2.2,1-2.3,1.5-2.8,10.7-.6,10.5-2,14.5-7.9,21.7-3.6,4.4-3.7,5-1.2,5s3.7-1.8,5.9-4Z"/>
        <path class="cls-1" d="M584.3,735.1c.5-1.5-2.4-2.6-3.6-1.4-.5.5-.7,1.4-.3,2,.8,1.3,3.4.9,3.9-.7h0Z"/>
        <path class="cls-1" d="M662.5,714.9c.5-1.5-2.4-2.6-3.6-1.4s-.7,1.4-.3,2c.8,1.3,3.4.9,3.9-.7h0Z"/>
        <path class="cls-1" d="M568.4,660.1c-2,1-3.1,3.1-4.5,4.8-1,.7-.2,1.3.4,2,3.6,3.8,5.1,9,6.8,13.9,1.7,5.7,3.8,11.8,2,17.8-.7,2.3-2.5,4.6-5.2,3.9-4.3-.3-8.5-1.4-12.8-1.4-3.8.2-6.8,3.7-10.7,3.3-2.5.2-2.4-5.1-4.7-3.7-1.1,2.8-.6,5.8-.7,8.7.4.4,1.6,0,2.4.2h7.7c.5,2.7.5,5.7,2.4,7.8,2.7,1,5.7.1,8.2-.9,2.7-1.3,3.1-4.5,3.9-7.1.8-2.7,4.4-2,6.5-3.1,5.2-1.5,8.6-6.9,8.3-12.2-.3-8.1-3.4-15.7-5.8-23.4-1.2-3.4-2-6.9-3.4-10.2-.2-.3-.5-.5-.8-.5h0ZM555.6,706.4c2.9-.2,4.1,3.3,3.5,5.7-1.1,3.2-5,1.1-5.8-1.2-1.5-2.1-.6-4.8,2.3-4.5h0Z"/>
        <path class="cls-1" d="M449,679.8c-1.3,0-2.7.5-4.2,1.5-7.5,5.3-9.4,11.5-4.3,13.9,3.7,1.8,2.8,3.9-3.1,6.9-8.4,4.2-15.9,3.7-30-2.2-3.5-1.4-4.4-.9-3.6,2.3.8,3.1,3.6,4.8,10.7,6.4,7.6,1.8,16.9,1.2,22.8-1.4,2.9-1.2,6.3-3.9,9.2-7l4.6-5,5.3.7c6.6.8,6.7.9,6.7,4s.1,2.6,6.2,3.1c3.4.3,7.9.6,10,.6,2.7,0,4.2.5,5.1,1.7,1.2,1.7,1.9,1.7,11.8.8,9.3-.8,11.1-.8,15.3.7,3,1,6.3,1.4,8.7,1.2,7.1-.8,16.9-6.6,18.4-10.9.2-.5,2.8-1.4,5.7-2,7.2-1.4,7.5-3,.8-3.8-2.9-.4-7.3-1.4-9.7-2.4-2.4-1-5.8-1.8-7.4-1.8-3.6,0-7,2.3-7,4.6s.5,1.7,4.8,1.2c4-.4,5.2-.2,7.3,1.5,1.4,1.1,2.3,2.4,2,2.9-.9,1.5-9.4,5.4-13.1,6-2.5.4-4.5.1-6.4-.9-3.3-1.7-8.1-2-9-.5-.4.6-1.4.2-2.8-1.1l-2.2-2.1-5,2.1c-5.1,2.1-6.9,2-6.9-.4s-1.5-1.2-9-.7c-8.2.5-9.1.4-10.6-1.3-1.4-1.6-1.5-2.1-.4-3.8.9-1.5.9-2.1,0-3-.9-.9-2-.9-5.3,0-8.2,2.2-10.5,1-10.5-5.4s-2.2-6.2-5-6.2h0ZM447,685.7c.4,0,.8.3,1.4.8.7.7,1.1,2,.8,2.8-.7,1.9-4.2,1.8-4.9,0-.4-.9,0-2,1.1-2.7.7-.5,1.2-.8,1.6-.8h0Z"/>
        <path class="cls-1" d="M432.3,691.7c5-3.2,4.9-2.9,5.6-11.7.5-6.2.4-6.7-1.3-6.7-2.4,0-3.7,2.7-3.7,7.8s-.5,4.7-2.3,6.5c-4.2,4.2-14.5,2.3-15.8-2.9-.4-1.8.1-3.4,2.3-6.4,4.5-6.4,3.5-8-2-3.1-3.8,3.3-4.5,3.4-3.8.6.7-2.6-.7-3.7-3.8-2.9-1.6.4-2.4,1.4-2.8,3.3-.4,1.9-1.2,2.9-2.7,3.3-2.5.6-6.8-1.7-6.8-3.8s6.4-9.3,14.6-17.8c3.1-3.2,5.6-6.2,5.6-6.7s-1.7-.8-3.7-.8c-3,0-3.7.3-3.7,1.7s-4.1,6.3-9.2,12c-10.5,11.9-11.4,14.3-6.2,17.5,4.2,2.6,9.6,2.4,13.8-.5l3.4-2.3v4.2c0,5.4,1.1,7.3,5.3,9.6,5.3,2.8,11.8,2.5,17.1-.9h0Z"/>
        <path class="cls-1" d="M653.6,618.3c-3.9,2.3-.9,7.2-.3,10.5-1.6,4.4-7.3,5.6-11.5,6.5-5.9,1-10.1,5.9-12.3,11.2-1.2,3.4-4.2,8.7-7.3,3.5-2.8-2.8-7.9-5.1-11.2-1.8-2.5,2.4-3.1,5.9-4.1,9-1.5-2.4-2.1-6.1-5.3-6.8-5,.7-3.2,7-.8,9.6,2.1,3,4.2,7,2.1,10.6-1.8,4.3-8.2,7.2-12,3.5-3.5-1.8-1.2-8.4-4.6-8.8-1.7,1.2-1.8,8.1-4.6,4.4-2-3.2-.9-7.6-3.3-10.4-2.8.4-5.1,5.2-4.2,7.9,3.8,5.1,5.3,11.5,6.8,17.6.9,2.4-.1,7.4,2.1,8.4,1.6-3.9.1-8.4,1.4-12.3,3.7-.5,7.8,1.2,11.7.3,5.6-.7,9.8-5.4,11.8-10.4.6-3.8-.1-7.6-.2-11.3,4.4.7,8.9.7,13.2,2.1,2.1,3.2-.7,7.7-1.2,11.2-2.2,7.1-7.8,12.3-13.2,17.1-2.3,1.3-2.6,4.9.8,3,7.3-3.1,12.8-9.7,15.9-16.9,2.3-5.5.4-11.7,1.9-17.3,2.2-4.2,7.5-3.3,11.5-3.3,4.1-.2,7.5-4.9,6.2-8.9-1.3-4.6,3.6-6.8,6.9-8.4,4.4-2.2,7.8-6.7,7.4-11.8-.2-2.6,0-7.5-3.6-7.8h0ZM638,644.8c4.7,1.3-.9,10.3-3.4,4.5-.8-2.2,1.1-4.6,3.4-4.5ZM616.1,651.2c6.1-.4,3.9,8.6-1.3,4.5-2.7-1.3-1.8-4.7,1.3-4.5Z"/>
        <path class="cls-1" d="M394.1,685.8c.2-.9-.3-1.5-1.1-1.5-1.7,0-2.7,1.5-1.9,2.8.8,1.3,2.7.6,3-1.3h0Z"/>
        <path class="cls-1" d="M466,677.8c0-1.3-.5-1.8-1.6-1.6-2.4.5-2.7,3.5-.3,3.5s1.9-.6,1.9-1.9Z"/>
        <path class="cls-1" d="M377.1,634.7c-2.9-.6-4.7,1.8-5.7,4.2-2.1,3.6-4.8,7.3-8.6,9.2-2.8.8-5.8-.3-8.2-1.7-2.8-1.4-2.2-4.8-3.4-7.2-2.1-1.6-5.7.7-5.6,3.2-.2,3.4,2.9,5.3,5.5,6.6,2.2,1.4,5.5,2.1,6.3,4.9,0,2.3.9,5,3.7,4.1,3.2,0,4,3.8,2.7,6.2-1.3,2.6-2.2,5.7-1.6,8.6,1.5,1.3,3.1-2.2,4.2-3.1.8-1,1.5-2,2.3-3,5.7.3,11.3,1,17,.8,4,0,7.5-2.6,10-5.5,3.6-3.8,6.6-8.2,10.7-11.5,2.9-.7,1.4-6.3-1.7-4.7-2.8,1-3.6,4.2-5.6,6.2-3.3,4-6.6,8-10.7,11.1-3,1.2-6.5.7-9.5,0-1.3-1.1,2.6-2,3.1-3.3,1.8-1.8,3.9-3.4,4.9-5.8-1-2.1-4-2.3-6.1-2.4-5.2.6-9.2,5-14.4,5.4-4,.1-1.9-4.2-.1-5.7,3.5-4.2,7.3-8.1,11-12.2,1-1.3,4.8-2.4,2.4-4.2-.8-.3-1.8-.3-2.6-.3h0ZM379.6,655.8c2.6,1.5-1.7,3.9-3.5,3.6-2.4.7-2.4-1.7-.3-2.2,1.2-.6,2.4-1.3,3.8-1.4h0ZM371.5,661.4c1.5,0,4.6,1.4,1.7,2.3-2,1.6-4.4-1.6-1.7-2.3Z"/>
        <path class="cls-1" d="M435.2,665c0-2-3.6-1.7-4,.3-.3,1.3.2,1.6,1.8,1.4,1.2-.2,2.1-.9,2.1-1.7Z"/>
        <path class="cls-1" d="M593.6,651c.4-1.9-2.3-3.2-3.7-1.8-1.4,1.4-.1,4.1,1.8,3.7.9-.2,1.7-1,1.9-1.9h0Z"/>
        <path class="cls-1" d="M347.1,631.6c2.5-2.1,2.5-2.3,1.4-7-1.5-6.6-1.4-7.3,1.1-7.9,3.2-.8,11.2,3.5,13,7,1.4,2.7,1.3,2.9-1,5-2.5,2.3-2.5,5.1,0,5.1s7.9-5.5,7.9-7.4-6.4-9.2-11.5-11.5c-3.1-1.5-6.3-2.1-9.9-2.2-6.5,0-7.4,1.4-5.6,9,2.1,8.9-.7,10.1-7.9,3.4-5.3-5-7.4-10.1-7.4-18.2,0-8.7,3.3-13,10.9-14,5-.7,4.9-1.8-.3-2.6-7.5-1.1-13.8,3.9-16.2,12.8-2.7,9.9,3.4,22,14.3,28.2,5.7,3.3,7.9,3.3,11.2.5Z"/>
        <path class="cls-1" d="M642.3,620.7c.6-.6,1.1-2,1.1-3s1-3.3,2.3-5c1.3-1.7,2.3-3.5,2.3-3.9,0-1.7-2.9-1.7-5.1.1-2.3,1.8-4.1,1.9-4.1,0s1.1-1.3,2.5-2c3.4-1.6,3.6-3.3.8-4.6-3.6-1.7-7.3,1.4-7.7,6.4-.2,3.3,0,3.9,2.6,5.4,2.3,1.4,2.8,2.1,2.4,4.1-.7,3.4.7,4.6,2.9,2.5h0Z"/>
        <path class="cls-1" d="M670,617.6c2-1.8,3.7-3.9,3.7-4.6s1.8-2.5,3.9-4.1c6.1-4.4,7.4-8.8,4.7-15.6-1.1-2.7-4.4-6.4-11.6-12.9-5.6-5-10.7-9.1-11.4-9.1-2,0-1.6,7.3.4,7.9,3.6,1.2,5.8,2.6,11.5,7.8,6.6,6,9.7,11.6,8,14.7-1.6,3-3.7,2.1-9.6-4.2-3.1-3.3-6.1-6-6.7-6-.7,0-1.2,1.2-1.2,2.9s1.1,4.1,4.1,7.4c4.9,5.5,5.4,8.8,1.7,11.7-1.3,1-2.7,1.9-3,1.9s-1.4-1.6-2.4-3.6c-2.1-4.2-14.7-17.5-16.6-17.5s-1.3,1.1-1.3,3.2.5,3.5,2.5,4.5c2.5,1.3,8.7,7.5,14.9,15.1,1.8,2.1,3.5,3.9,3.9,3.9.4,0,2.3-1.5,4.4-3.3h0Z"/>
        <path class="cls-1" d="M682.4,582.1c-.8-2.6-17.8-20.1-19.5-20.1s-1.2,1.1-1,3.8c.2,3.4.6,3.9,2.9,4.6,1.4.4,5.9,3.9,9.9,7.8,4,3.9,7.5,6.8,7.8,6.5.3-.3.2-1.5-.1-2.6h0Z"/>
        <path class="cls-1" d="M581.3,778.3c0,1.3-1.1,2.3-2.5,2.3s-2.5-1-2.5-2.3,1.1-2.3,2.5-2.3,2.5,1,2.5,2.3Z"/>
        <path class="cls-1" d="M590.2,775.3c0,1.3-1.1,2.3-2.5,2.3s-2.5-1-2.5-2.3,1.1-2.3,2.5-2.3,2.5,1,2.5,2.3Z"/>
      </g>
    </g>
  </g>
</svg>