<?xml version="1.0" encoding="utf-8"?>
<!-- Generator: Adobe Illustrator 28.0.0, SVG Export Plug-In . SVG Version: 6.00 Build 0)  -->
<svg version="1.1" id="_x31_" xmlns="http://www.w3.org/2000/svg" xmlns:xlink="http://www.w3.org/1999/xlink" x="0px" y="0px"
	 viewBox="0 0 1000 1000" style="enable-background:new 0 0 1000 1000;" xml:space="preserve">
<style type="text/css">
	.st0{clip-path:url(#SVGID_00000157266487541308008660000004433661140435890351_);fill:#003F9B;}
	.st1{clip-path:url(#SVGID_00000157266487541308008660000004433661140435890351_);fill:#FFFFFF;}
	.st2{clip-path:url(#SVGID_00000157266487541308008660000004433661140435890351_);fill:#D3202E;}
	.st3{clip-path:url(#SVGID_00000157266487541308008660000004433661140435890351_);fill:#F7D116;}
</style>
<g>
	<defs>
		<circle id="SVGID_1_" cx="500" cy="500" r="494.5"/>
	</defs>
	<clipPath id="SVGID_00000151501293999439278680000012525768489442113981_">
		<use xlink:href="#SVGID_1_"  style="overflow:visible;"/>
	</clipPath>
	
		<rect id="_x31__7_" x="-6.9" y="-6.9" style="clip-path:url(#SVGID_00000151501293999439278680000012525768489442113981_);fill:#003F9B;" width="1013.8" height="1013.8"/>
	
		<rect id="_x31__6_" x="-6.9" y="500" style="clip-path:url(#SVGID_00000151501293999439278680000012525768489442113981_);fill:#FFFFFF;" width="1013.8" height="253.5"/>
	<path id="_x31__8_" style="clip-path:url(#SVGID_00000151501293999439278680000012525768489442113981_);fill:#D3202E;" d="
		M-6.9,584.5h1013.8V669H-6.9V584.5z"/>
	<polygon id="_x31__5_" style="clip-path:url(#SVGID_00000151501293999439278680000012525768489442113981_);fill:#F7D116;" points="
		422,322.6 410.7,357.6 373.8,357.6 403.6,379.3 392.2,414.3 422,392.6 451.8,414.3 440.5,379.3 470.2,357.6 433.4,357.6 	"/>
	
		<polygon id="_x31__13_" style="clip-path:url(#SVGID_00000151501293999439278680000012525768489442113981_);fill:#F7D116;" points="
		571.1,371 559.7,406 522.9,406 552.7,427.6 541.3,462.7 571.1,441 600.9,462.7 589.5,427.6 619.3,406 582.4,406 	"/>
	<polygon id="_x31__4_" style="clip-path:url(#SVGID_00000151501293999439278680000012525768489442113981_);fill:#F7D116;" points="
		273,371 261.6,406 224.8,406 254.6,427.6 243.2,462.7 273,441 302.8,462.7 291.4,427.6 321.2,406 284.4,406 	"/>
	<polygon id="_x31__9_" style="clip-path:url(#SVGID_00000151501293999439278680000012525768489442113981_);fill:#F7D116;" points="
		433.4,864.5 422,829.5 410.7,864.5 373.8,864.5 403.6,886.2 392.2,921.2 422,899.5 451.8,921.2 440.5,886.2 470.2,864.5 	"/>
	
		<polygon id="_x31__11_" style="clip-path:url(#SVGID_00000151501293999439278680000012525768489442113981_);fill:#F7D116;" points="
		199.4,554.4 229.2,532.7 192.4,532.7 181,497.7 169.6,532.7 132.8,532.7 162.6,554.4 151.2,589.4 181,567.8 210.8,589.4 	"/>
	
		<polygon id="_x31__10_" style="clip-path:url(#SVGID_00000151501293999439278680000012525768489442113981_);fill:#F7D116;" points="
		681.5,554.4 711.3,532.7 674.5,532.7 663.1,497.7 651.7,532.7 614.9,532.7 644.7,554.4 633.3,589.4 663.1,567.8 692.9,589.4 	"/>
	<polygon id="_x31__3_" style="clip-path:url(#SVGID_00000151501293999439278680000012525768489442113981_);fill:#F7D116;" points="
		192.4,689.4 181,654.4 169.6,689.4 132.8,689.4 162.6,711 151.2,746.1 181,724.4 210.8,746.1 199.4,711 229.2,689.4 	"/>
	
		<polygon id="_x31__12_" style="clip-path:url(#SVGID_00000151501293999439278680000012525768489442113981_);fill:#F7D116;" points="
		674.7,689.4 663.3,654.4 651.9,689.4 615.1,689.4 644.9,711 633.5,746.1 663.3,724.4 693.1,746.1 681.7,711 711.5,689.4 	"/>
	<polygon id="_x31__2_" style="clip-path:url(#SVGID_00000151501293999439278680000012525768489442113981_);fill:#F7D116;" points="
		582.4,816.1 571,781.1 559.6,816.1 522.8,816.1 552.6,837.8 541.2,872.8 571,851.1 600.8,872.8 589.4,837.8 619.2,816.1 	"/>
	<polygon id="_x31__1_" style="clip-path:url(#SVGID_00000151501293999439278680000012525768489442113981_);fill:#F7D116;" points="
		284.5,816.1 273.1,781.1 261.8,816.1 224.9,816.1 254.7,837.8 243.3,872.8 273.1,851.1 302.9,872.8 291.6,837.8 321.3,816.1 	"/>
</g>
</svg>
