<?xml version="1.0" encoding="utf-8"?>
<!-- Generator: Adobe Illustrator 28.0.0, SVG Export Plug-In . SVG Version: 6.00 Build 0)  -->
<svg version="1.1" id="Layer_1" xmlns="http://www.w3.org/2000/svg" xmlns:xlink="http://www.w3.org/1999/xlink" x="0px" y="0px"
	 viewBox="0 0 1000 1000" style="enable-background:new 0 0 1000 1000;" xml:space="preserve">
<style type="text/css">
	.st0{fill:#002590;}
	.st1{fill:#EFEFEF;}
	.st2{fill:#CC0D0D;}
</style>
<g>
	<path class="st0" d="M169.3,873.6c88.1,78.1,204.1,125.6,331.2,125.6c158,0,298.8-73.4,390.4-187.9H277.6L169.3,873.6z"/>
	<path class="st0" d="M820.1,499.3L632.6,607.1h355.8c7.6-34.6,11.6-70.6,11.6-107.5c0-33.8-3.4-66.9-9.8-98.8H648.9L820.1,499.3z"
		/>
	<path class="st0" d="M897.6,196.7C806.4,77.2,662.4,0.1,500.5,0.1c-126.8,0-242.6,47.3-330.7,125.1L294,196.7H897.6z"/>
	<path class="st1" d="M648.9,400.8h341.3c-15.2-75.6-47.4-145.1-92.6-204.1H294L648.9,400.8z"/>
	<path class="st1" d="M277.6,811.3h613.2c46.9-58.7,80.9-128.2,97.5-204.1H632.6L277.6,811.3z"/>
	<path class="st2" d="M1,499.6c0,148.8,65.1,282.4,168.3,373.9l108.3-62.3h-112l139.4-204.1h4.8l-54.8-36.6l-99.9,68.8l36.2-115.1
		l-98.5-71.7H216L253.6,335L292,451.9l121.6,1.4L318,525l24.7,82.2h289.8l187.5-107.9l-171.2-98.5H305.1l-51.8-204.1H294
		l-124.2-71.4C66.3,216.8,1,350.6,1,499.6z"/>
	<polygon class="st2" points="253.3,196.7 305.1,400.8 648.9,400.8 294,196.7 	"/>
	<polygon class="st2" points="342.7,607.1 350.9,634.5 309.9,607.1 305.1,607.1 165.7,811.3 277.6,811.3 632.6,607.1 	"/>
	<polygon class="st1" points="318,525 413.6,453.3 292,451.9 253.6,335 216,452.6 92.9,452.6 191.4,524.3 155.2,639.4 255.1,570.6 
		309.9,607.1 342.7,607.1 	"/>
	<polygon class="st1" points="342.7,607.1 309.9,607.1 350.9,634.5 	"/>
</g>
</svg>
