<?xml version="1.0" encoding="utf-8"?>
<!-- Generator: Adobe Illustrator 28.0.0, SVG Export Plug-In . SVG Version: 6.00 Build 0)  -->
<svg version="1.1" id="Layer_1" xmlns="http://www.w3.org/2000/svg" xmlns:xlink="http://www.w3.org/1999/xlink" x="0px" y="0px"
	 viewBox="0 0 1000 1000" style="enable-background:new 0 0 1000 1000;" xml:space="preserve">
<style type="text/css">
	.st0{clip-path:url(#SVGID_00000097467879449145486630000005402451938142313407_);}
	.st1{fill:#012B81;}
	.st2{fill:#F9E814;}
	.st3{fill:#FEFEFE;}
</style>
<g>
	<defs>
		<circle id="SVGID_1_" cx="499.7" cy="500.6" r="495"/>
	</defs>
	<clipPath id="SVGID_00000162318730147873012090000012739239296667179415_">
		<use xlink:href="#SVGID_1_"  style="overflow:visible;"/>
	</clipPath>
	<g style="clip-path:url(#SVGID_00000162318730147873012090000012739239296667179415_);">
		<path class="st1" d="M499.7,4.6c-273.9,0-496,222.1-496,496c0,42,5.2,82.8,15.1,121.7c0,0.2,0.2,0.3,0.3,0.3l961.3-0.3l0,0h0
			c0.2,0,0.3-0.1,0.3-0.3c9.8-38.9,15-79.5,15-121.4C995.7,226.7,773.7,4.6,499.7,4.6L499.7,4.6z M499.7,4.6"/>
		<path class="st1" d="M69.7,746.8L69.7,746.8l0,0.3L69.7,746.8L69.7,746.8z M929.8,746.8l-860.2,0.1h0c0,0,0,0,0,0h0
			c-0.2,0-0.3,0.2-0.3,0.4c0,0.1,0,0.2,0.1,0.2h0C155,896.3,315.6,996.6,499.7,996.6c184.1,0,344.8-100.3,430.4-249.3
			c0.1-0.1,0.1-0.2,0-0.4C930.1,746.8,930,746.8,929.8,746.8L929.8,746.8z M929.8,746.8"/>
		<path class="st2" d="M66.8,743.8l866.3-0.1c0.9,0,1.7,0.8,1.7,1.7c0,0.9-0.8,1.7-1.7,1.7l-866.3,0.1c-0.9,0-1.7-0.8-1.7-1.7
			C65.1,744.5,65.8,743.8,66.8,743.8L66.8,743.8z M66.8,743.8"/>
		<path class="st2" d="M17.2,622.3l964.4-0.3c0.9,0,1.7,0.8,1.7,1.7c0,0.9-0.8,1.7-1.7,1.7l-964.4,0.3c-0.9,0-1.7-0.8-1.7-1.7
			C15.5,623,16.3,622.3,17.2,622.3L17.2,622.3z M17.2,622.3"/>
		<path class="st2" d="M979.6,625L20,625.3c0,0,0,0,0,0c0,0,0,0,0,0h0c-0.2,0-0.3,0.2-0.3,0.4c0,0.1,0,0.1,0,0.1h0
			c10.9,41.8,27,81.4,47.8,118.2c0.1,0.1,0.2,0.2,0.3,0.2c0,0,0,0,0,0h0l864-0.1l0,0h0c0.1,0,0.2-0.1,0.3-0.2
			c20.8-36.8,37-76.6,47.8-118.5c0-0.1,0-0.2-0.1-0.3C979.8,625,979.7,625,979.6,625L979.6,625z M979.6,625"/>
		<path class="st3" d="M313.2,425.7l22-69l-58.4-43.1l72.7,0.2l22.4-68.4l22.6,68.1l71.5,0.4l-57.1,42.7l20.9,68.1l-58.4-41
			L313.2,425.7z M313.2,425.7"/>
		<path class="st3" d="M177.7,256.1l16.5-51.7L150.4,172l54.5,0.1l16.8-51.3l17,51.1l53.6,0.3l-42.9,32l15.7,51.1l-43.8-30.8
			L177.7,256.1z M177.7,256.1"/>
	</g>
</g>
</svg>
