<?xml version="1.0" encoding="utf-8"?>
<!-- Generator: Adobe Illustrator 28.0.0, SVG Export Plug-In . SVG Version: 6.00 Build 0)  -->
<svg version="1.1" id="Layer_1" xmlns="http://www.w3.org/2000/svg" xmlns:xlink="http://www.w3.org/1999/xlink" x="0px" y="0px"
	 viewBox="0 0 1000 1000" style="enable-background:new 0 0 1000 1000;" xml:space="preserve">
<style type="text/css">
	.st0{fill-rule:evenodd;clip-rule:evenodd;fill:#EC1C24;}
	.st1{fill-rule:evenodd;clip-rule:evenodd;fill:#EFEFEF;}
</style>
<g>
	<g>
		<g>
			<polygon class="st0" points="490.8,387.6 531.4,445 598.4,423.8 556.4,480.2 597.3,537.4 530.7,514.8 488.9,571.4 489.8,501.1 
				423.1,478.8 490.2,457.9 			"/>
			<path class="st0" d="M246.4,265.8c64.6-18,130.4-6.5,183.2,26.4c-38.7-14-82-16.6-124.7-4.7c-109.3,30.4-173.3,143.6-142.9,252.9
				c30.4,109.3,143.6,173.3,252.9,142.9c10.2-2.8,20.1-6.4,29.5-10.6c-21.9,16.1-47,28.6-74.7,36.3c-122.4,34-249.1-37.6-283.1-160
				C52.4,426.6,124,299.8,246.4,265.8z"/>
		</g>
		<path class="st0" d="M114.9,181.9h770.2c-27.1-32.8-58.3-62.1-92.9-87H207.8C173.2,119.8,142,149.1,114.9,181.9z"/>
		<path class="st0" d="M885.1,818.2H114.9c27.1,32.8,58.4,62.1,92.9,87h584.3C826.7,880.2,857.9,851,885.1,818.2z"/>
	</g>
	<g>
		<path class="st1" d="M207.8,94.9h584.4C710.1,35.5,609.1,0.5,500,0.5S289.9,35.5,207.8,94.9z"/>
		<path class="st1" d="M792.2,905.2H207.8c82.2,59.3,183.1,94.3,292.2,94.3C609.1,999.5,710,964.5,792.2,905.2z"/>
		<path class="st1" d="M114.9,818.2h770.1c71.5-86.4,114.4-197.3,114.4-318.2c0-120.9-42.9-231.7-114.4-318.1H114.9
			C43.4,268.3,0.5,379.1,0.5,500C0.5,620.9,43.5,731.8,114.9,818.2L114.9,818.2z M490.8,387.6l40.6,57.4l67-21.2l-42,56.4l40.8,57.2
			l-66.6-22.5l-41.8,56.5l0.8-70.3l-66.7-22.3l67.1-20.9L490.8,387.6L490.8,387.6z M246.4,265.8c64.6-18,130.4-6.5,183.2,26.4
			c-38.7-14-82-16.6-124.7-4.7c-109.3,30.4-173.3,143.6-142.9,252.9c30.4,109.3,143.6,173.3,252.9,142.9
			c10.2-2.8,20.1-6.4,29.5-10.6c-21.9,16.1-47,28.6-74.7,36.3c-122.4,34-249.1-37.6-283.1-160C52.4,426.6,124,299.8,246.4,265.8z"/>
	</g>
</g>
</svg>
