<?xml version="1.0" encoding="utf-8"?>
<!-- Generator: Adobe Illustrator 28.0.0, SVG Export Plug-In . SVG Version: 6.00 Build 0)  -->
<svg version="1.1" id="Layer_1" xmlns="http://www.w3.org/2000/svg" xmlns:xlink="http://www.w3.org/1999/xlink" x="0px" y="0px"
	 viewBox="0 0 1000 1000" style="enable-background:new 0 0 1000 1000;" xml:space="preserve">
<style type="text/css">
	.st0{clip-path:url(#SVGID_00000078760121968499735080000007694798034516645565_);}
	.st1{fill:#006B3F;}
	.st2{fill:#EFEFEF;}
	.st3{fill:#FCD116;}
	.st4{fill:#D41C30;}
	.st5{fill:#006B3F;stroke:#000000;}
	.st6{fill:#009543;}
	.st7{fill:#9C4A00;stroke:#000000;}
	.st8{fill:#FCD116;stroke:#000000;}
	.st9{fill:#009543;stroke:#000000;}
	.st10{fill:#9461C9;stroke:#000000;}
	.st11{fill:#D41C30;stroke:#000000;}
</style>
<g>
	<defs>
		<circle id="SVGID_1_" cx="500" cy="500" r="499.5"/>
	</defs>
	<clipPath id="SVGID_00000034070690667413469910000002534480883631393193_">
		<use xlink:href="#SVGID_1_"  style="overflow:visible;"/>
	</clipPath>
	<g style="clip-path:url(#SVGID_00000034070690667413469910000002534480883631393193_);">
		<rect id="_x39_5" x="-495.8" y="-2.1" class="st1" width="2012.8" height="1006.4"/>
		<rect id="_x39_4" x="-495.8" y="543" class="st2" width="2012.8" height="83.9"/>
		<rect id="_x39_3" x="-495.8" y="459.2" width="2012.8" height="83.9"/>
		<rect id="_x39_2" x="-495.8" y="375.3" class="st3" width="2012.8" height="83.9"/>
		<rect id="_x39_1" x="384.8" y="-2.1" class="st3" width="83.9" height="1006.4"/>
		<rect id="_x39_0" x="468.7" y="-2.1" width="83.9" height="1006.4"/>
		<rect id="_x38_9" x="552.5" y="-2.1" class="st2" width="83.9" height="1006.4"/>
		<path id="_x38_8" class="st4" d="M762.2,501.1c1.1,139-110.6,252.5-249.5,253.6C373.7,755.9,260.1,644.2,259,505.2
			c0-1.4,0-2.7,0-4.1c-1.1-139,110.6-252.5,249.5-253.6c138.9-1.1,252.5,110.6,253.6,249.5C762.2,498.4,762.2,499.7,762.2,501.1z"/>
		<path id="_x38_7" class="st5" d="M502.5,302.5c0-0.4,8.1-23,8.1-23l7.3,22.6c0,0,24.6,0.7,24.6,0.4c0-0.4-19.4,14.8-19.4,14.8
			s9.2,26,8.8,25.2c-0.4-0.7-21.3-15.6-21.3-15.6s-21.3,14.8-20.9,14.8c0.4,0,8.1-24.5,8.1-24.5l-19.1-14.5L502.5,302.5z"/>
		<path id="_x38_6" class="st5" d="M518.7,700.3c0,0.4-8.1,23-8.1,23l-7.3-22.6c0,0-24.6-0.7-24.6-0.4s19.4-14.8,19.4-14.8
			s-9.2-26-8.8-25.2c0.4,0.7,21.3,15.6,21.3,15.6s21.3-14.9,20.9-14.9c-0.4,0-8.1,24.5-8.1,24.5l19.1,14.5L518.7,700.3z"/>
		<path id="_x38_5" class="st5" d="M627.5,359.3c0,0.4-8.1,23-8.1,23l-7.3-22.6c0,0-24.6-0.7-24.6-0.4c0,0.4,19.4-14.8,19.4-14.8
			s-9.2-26-8.8-25.2c0.4,0.7,21.3,15.6,21.3,15.6s21.3-14.8,20.9-14.8c-0.4,0-8.1,24.5-8.1,24.5l19.1,14.5L627.5,359.3z"/>
		<path id="_x38_4" class="st5" d="M698.1,565.7c0,0.4-8.1,23-8.1,23l-7.3-22.6c0,0-24.6-0.7-24.6-0.4c0,0.4,19.4-14.8,19.4-14.8
			s-9.2-26-8.8-25.2c0.4,0.7,21.3,15.6,21.3,15.6s21.3-14.8,20.9-14.8c-0.4,0-8.1,24.5-8.1,24.5l19.1,14.5L698.1,565.7z"/>
		<path id="_x38_3" class="st5" d="M339.2,571.6c0,0.4-8.1,23-8.1,23l-7.3-22.6c0,0-24.6-0.8-24.6-0.4c0,0.4,19.4-14.9,19.4-14.9
			s-9.2-26-8.8-25.2c0.4,0.7,21.3,15.6,21.3,15.6s21.3-14.8,20.9-14.8c-0.4,0-8.1,24.5-8.1,24.5l19.1,14.5L339.2,571.6z"/>
		<path id="_x38_2" class="st5" d="M404.3,361.7c0,0.4-8.1,23-8.1,23l-7.3-22.6c0,0-24.6-0.7-24.6-0.4c0,0.4,19.4-14.8,19.4-14.8
			s-9.2-26-8.8-25.2c0.4,0.7,21.3,15.6,21.3,15.6s21.3-14.8,20.9-14.8c-0.4,0-8.1,24.5-8.1,24.5l19.1,14.5L404.3,361.7z"/>
		<path id="_x38_1" class="st5" d="M321.6,437.1c0-0.4,8.1-23,8.1-23l7.3,22.6c0,0,24.6,0.7,24.6,0.4c0-0.4-19.4,14.8-19.4,14.8
			s9.2,26,8.8,25.2c-0.4-0.7-21.3-15.6-21.3-15.6s-21.3,14.8-20.9,14.8c0.4,0,8.1-24.5,8.1-24.5l-19.1-14.5L321.6,437.1z"/>
		<path id="_x38_0" class="st5" d="M391.7,643.2c0-0.4,8.1-23,8.1-23l7.3,22.6c0,0,24.6,0.8,24.6,0.4c0-0.4-19.4,14.8-19.4,14.8
			s9.2,26,8.8,25.2c-0.4-0.7-21.3-15.6-21.3-15.6s-21.3,14.8-20.9,14.8c0.4,0,8.1-24.5,8.1-24.5l-19.1-14.5L391.7,643.2z"/>
		<path id="_x37_9" class="st5" d="M680.7,431.7c0-0.4,8.1-23,8.1-23l7.3,22.6c0,0,24.6,0.8,24.6,0.4c0-0.4-19.4,14.8-19.4,14.8
			s9.2,26,8.8,25.2c-0.4-0.7-21.3-15.6-21.3-15.6S667.5,471,667.9,471c0.4,0,8.1-24.5,8.1-24.5L656.9,432L680.7,431.7z"/>
		<path id="_x37_8" class="st5" d="M615.4,641.2c0-0.4,8.1-23,8.1-23l7.3,22.6c0,0,24.6,0.7,24.6,0.4c0-0.4-19.4,14.8-19.4,14.8
			s9.2,26,8.8,25.2c-0.4-0.8-21.3-15.6-21.3-15.6s-21.3,14.8-20.9,14.8c0.4,0,8.1-24.5,8.1-24.5l-19.1-14.5L615.4,641.2z"/>
		<polygon id="_x37_7" class="st6" points="341.3,446.3 342.5,446.3 342.5,446.3 		"/>
		<polygon id="_x37_6" class="st6" points="557.9,598.8 559.1,598.8 559.1,598.8 		"/>
		<polygon id="_x37_5" class="st6" points="494.8,840.8 496,840.8 496,840.8 		"/>
		<polygon id="_x37_4" class="st6" points="192,840.8 193.2,840.8 193.2,840.8 		"/>
		<polygon id="_x37_3" class="st6" points="136.7,592.5 137.9,592.5 137.9,592.5 		"/>
		<polygon id="_x37_2" class="st6" points="800.1,142.3 798.9,142.3 798.9,142.3 		"/>
		<polygon id="_x37_1" class="st6" points="887,378.8 885.8,378.8 885.8,378.8 		"/>
		<polygon id="_x37_0" class="st6" points="671.4,551.8 670.2,551.8 670.2,551.8 		"/>
		<polygon id="_x36_9" class="st6" points="468.8,378.8 467.6,378.8 467.6,378.8 		"/>
		<polygon id="_x36_8" class="st6" points="543.6,145.8 542.4,145.8 542.4,145.8 		"/>
		<path id="_x36_7" class="st5" d="M539.8,493.7c8.3-0.9,17.3,31.5,20.2,72.4c2.9,40.8-1.4,74.6-9.7,75.5
			c-8.3,0.9-17.3-31.5-20.2-72.4C527.2,528.4,531.5,494.6,539.8,493.7z"/>
		<path id="_x36_6" class="st5" d="M554.5,493.6c8.7-0.9,18.2,31.5,21.1,72.3c2.9,40.8-1.8,74.7-10.5,75.6
			c-8.7,0.9-18.2-31.5-21.1-72.3C541.1,528.3,545.8,494.5,554.5,493.6z"/>
		<path id="_x36_5" class="st5" d="M547.2,489.7c7-0.7,15.2,35.3,18.4,80.4c3.1,45.1,0,82.3-7,83.1c-7,0.7-15.2-35.3-18.4-80.4
			C537.1,527.7,540.2,490.5,547.2,489.7z"/>
		<path id="_x36_4" class="st7" d="M436.4,606.1c12.8-0.5,7.3-7.4,13.8-11.1c6.5-3.6,15.7-1.2,18.5,3.3c2.8,4.6,0.5,9.1,4.1,9.1
			c3.6,0.1,100.5-4,104-0.2c3.5,3.8,4.1,11.4,0.5,14.3c-3.6,3-126.2,4.3-130.4,1.2C442.6,619.7,436.4,606.8,436.4,606.1z"/>
		<path id="_x36_3" class="st8" d="M504.9,615.5c-0.2,9.7,14.1,6.9,14.3,15c-0.4,8.6-24,0.5-24.3-15.2c1-15.7,24.1-23.4,24.4-14.5
			C519.6,608.3,505.2,605.8,504.9,615.5z"/>
		<path id="_x36_2" class="st8" d="M513.4,615.6c-0.2,9.7,14.1,6.9,14.3,15c-0.4,8.6-24,0.5-24.3-15.2c1-15.7,24.1-23.4,24.4-14.5
			C528,608.4,513.6,605.9,513.4,615.6z"/>
		<path id="_x36_1" class="st8" d="M522.5,615.3c-0.2,9.7,14.1,6.9,14.3,15c-0.4,8.6-24,0.5-24.3-15.2c1-15.7,24.1-23.4,24.4-14.5
			C537.1,608.1,522.7,605.6,522.5,615.3z"/>
		<path id="_x36_0" class="st8" d="M530.9,615.4c-0.2,9.7,14.1,6.9,14.3,15c-0.4,8.6-24,0.5-24.3-15.2c1-15.7,24.1-23.4,24.4-14.5
			C545.5,608.2,531.2,605.7,530.9,615.4z"/>
		<path id="_x35_9" class="st7" d="M571.4,605.8c4.5,0.1,8.1,3.8,8,8.4c-0.1,4.6-3.8,8.2-8.4,8.2c-4.5-0.1-8.1-3.8-8-8.4
			C563.2,609.4,566.9,605.8,571.4,605.8z"/>
		<path id="_x35_8" class="st5" d="M520.4,570.3c4-0.6,8,6.1,9,14.9c0.9,8.8-1.5,16.5-5.5,17.1c-4,0.6-8-6.1-9-14.9
			C513.9,578.6,516.4,571,520.4,570.3z"/>
		<path id="_x35_7" class="st5" d="M508.1,569.4c4-0.6,8,6.1,9,14.9c0.9,8.8-1.5,16.5-5.5,17.1c-4,0.6-8-6.1-9-14.9
			C501.6,577.6,504.1,570,508.1,569.4z"/>
		<path id="_x35_6" class="st5" d="M499.2,553.6c4-0.6,8,6.1,9,14.9c0.9,8.8-1.5,16.5-5.5,17.1c-4,0.6-8-6.1-9-14.9
			C492.7,561.8,495.2,554.2,499.2,553.6z"/>
		<path id="_x35_5" class="st5" d="M511.6,551.2c3.8-0.6,7.8,6.8,8.8,16.6c1,9.7-1.2,18.1-5.1,18.8c-3.8,0.6-7.8-6.8-8.8-16.6
			C505.4,560.2,507.7,551.9,511.6,551.2z"/>
		<path id="_x35_4" class="st9" d="M528.9,552.5c3.8-0.6,7.8,6.3,8.7,15.5c1,9.1-1.4,17-5.2,17.6c-3.8,0.6-7.8-6.3-8.7-15.5
			C522.8,561,525.1,553.1,528.9,552.5z"/>
		<path id="_x35_3" class="st9" d="M519.5,546.8c3.8-0.6,7.8,6.3,8.7,15.5c1,9.1-1.4,17-5.2,17.6c-3.8,0.6-7.8-6.3-8.7-15.5
			C513.3,555.3,515.6,547.4,519.5,546.8z"/>
		<path id="_x35_2" class="st9" d="M507.5,538.5c3.8-0.6,7.8,6.3,8.7,15.5c1,9.1-1.4,17-5.2,17.6c-3.8,0.6-7.8-6.3-8.7-15.5
			C501.3,547,503.6,539.1,507.5,538.5z"/>
		<path id="_x35_1" class="st5" d="M496.4,533.5c3.8-0.6,7.8,6.3,8.7,15.5c1,9.1-1.4,17-5.2,17.6c-3.8,0.6-7.8-6.3-8.7-15.5
			C490.2,542,492.6,534.1,496.4,533.5z"/>
		<path id="_x35_0" class="st10" d="M485.9,412.7c0,0-24.6,21.3-21.8,79.1c3.1,58.1,54.3,85.4,54.3,85.4s13.1-16.5,11.5-63.1
			c-3.7-68.2-27.9-98.4-27.9-98.4L485.9,412.7z"/>
		<path id="_x34_9" class="st5" d="M542.4,572.2c4,0.1,6.8,7.4,6.2,16.3c-0.6,8.9-4.4,16-8.5,15.8c-4-0.1-6.8-7.4-6.2-16.3
			C534.6,579.1,538.4,572,542.4,572.2z"/>
		<path id="_x34_8" class="st5" d="M530.4,569c4,0.1,6.8,7.4,6.2,16.3c-0.6,8.9-4.4,16-8.5,15.8c-4-0.1-6.8-7.4-6.2-16.3
			C522.6,576,526.4,568.9,530.4,569z"/>
		<path id="_x34_7" class="st5" d="M524.6,551.9c4,0.1,6.8,7.4,6.2,16.3c-0.6,8.9-4.4,16-8.5,15.8c-4-0.1-6.8-7.4-6.2-16.3
			C516.7,558.9,520.5,551.8,524.6,551.9z"/>
		<path id="_x34_6" class="st5" d="M537.1,551.8c3.9,0.1,6.5,8.1,5.7,17.9c-0.7,9.8-4.5,17.6-8.3,17.5c-3.9-0.1-6.5-8.1-5.7-17.9
			C529.5,559.6,533.2,551.7,537.1,551.8z"/>
		<path id="_x34_5" class="st5" d="M554,556.1c3.9,0.1,6.5,7.6,5.8,16.8c-0.7,9.2-4.4,16.5-8.3,16.4c-3.9-0.1-6.5-7.6-5.8-16.8
			C546.4,563.4,550.1,556,554,556.1z"/>
		<path id="_x34_4" class="st5" d="M545.7,548.8c3.9,0.1,6.5,7.6,5.8,16.8c-0.7,9.2-4.4,16.5-8.3,16.4c-3.9-0.1-6.5-7.6-5.8-16.8
			C538.1,556.1,541.8,548.7,545.7,548.8z"/>
		<path id="_x34_3" class="st5" d="M535.4,538.6c3.9,0.1,6.5,7.6,5.8,16.8c-0.7,9.2-4.4,16.5-8.3,16.4c-3.9-0.1-6.5-7.6-5.8-16.8
			C527.8,545.8,531.5,538.5,535.4,538.6z"/>
		<path id="_x34_2" class="st5" d="M525.4,531.7c3.9,0.1,6.5,7.6,5.8,16.8c-0.7,9.2-4.4,16.5-8.3,16.4c-3.9-0.1-6.5-7.6-5.8-16.8
			C517.8,538.9,521.5,531.6,525.4,531.7z"/>
		<path id="_x34_1" class="st11" d="M512.9,453.4c10.7-4.1,30.6,18.7,44.4,51.1c13.9,32.3,16.4,61.9,5.8,66
			c-10.7,4.1-30.6-18.7-44.4-51.1C504.8,487.1,502.2,457.6,512.9,453.4z"/>
		<path id="_x34_0" class="st9" d="M522.2,444.1c5,0.1,9,3.7,8.9,8.1c-0.1,4.4-4.2,7.9-9.2,7.8c-5-0.1-9-3.7-8.9-8.1
			C513.1,447.5,517.2,444,522.2,444.1z"/>
		<path id="_x33_9" class="st9" d="M529,432.8c4.5,0.1,8,3.7,8,8.1c-0.1,4.4-3.8,7.9-8.2,7.8c-4.5-0.1-8-3.7-8-8.1
			C520.8,436.3,524.5,432.8,529,432.8z"/>
		<path id="_x33_8" class="st9" d="M518.1,432.6c4.5,0.1,8,3.7,8,8.1c-0.1,4.4-3.8,7.9-8.2,7.8c-4.5-0.1-8-3.7-8-8.1
			C509.9,436.1,513.6,432.6,518.1,432.6z"/>
		<path id="_x33_7" class="st5" d="M520.5,424.9c4.7,0.1,8.4,3.5,8.3,7.6c-0.1,4.1-3.9,7.4-8.6,7.3c-4.7-0.1-8.4-3.5-8.3-7.6
			C511.9,428.1,515.8,424.8,520.5,424.9z"/>
		<path id="_x33_6" class="st5" d="M519.5,415.4c4.7,0.1,8.4,3.5,8.3,7.6c-0.1,4.1-3.9,7.4-8.6,7.3c-4.7-0.1-8.4-3.5-8.3-7.6
			C511,418.6,514.8,415.3,519.5,415.4z"/>
		<path id="_x33_5" class="st5" d="M507.6,426.3c4.5,0.1,8,3.7,8,8.1c-0.1,4.4-3.8,7.9-8.2,7.8c-4.5-0.1-8-3.7-8-8.1
			C499.5,429.7,503.2,426.2,507.6,426.3z"/>
		<path id="_x33_4" class="st5" d="M510.1,416.2c4.5,0.1,8,3.6,8,8c-0.1,4.3-3.8,7.8-8.2,7.7c-4.5-0.1-8-3.6-8-8
			C501.9,419.6,505.6,416.1,510.1,416.2z"/>
		<path id="_x33_3" class="st5" d="M496.7,416.3c5,0.1,9,3.7,8.9,8.1c-0.1,4.4-4.2,7.9-9.2,7.8c-5-0.1-9-3.7-8.9-8.1
			C487.6,419.7,491.7,416.2,496.7,416.3z"/>
		<path id="_x33_2" class="st5" d="M513.3,403.5c4.7,0.1,8.4,3.5,8.3,7.6c-0.1,4.1-3.9,7.4-8.6,7.3c-4.7-0.1-8.4-3.5-8.3-7.6
			C504.8,406.7,508.6,403.5,513.3,403.5z"/>
		<path id="_x33_1" class="st5" d="M502,404.6c4.5,0.1,8,3.6,8,8c-0.1,4.3-3.8,7.8-8.2,7.7c-4.5-0.1-8-3.6-8-8
			C493.8,408,497.5,404.6,502,404.6z"/>
		<path id="_x33_0" class="st5" d="M484.8,416.7c4.5,0.1,8,3.7,8,8.1c-0.1,4.4-3.8,7.9-8.2,7.8c-4.5-0.1-8-3.7-8-8.1
			C476.6,420.2,480.3,416.7,484.8,416.7z"/>
		<path id="_x32_9" class="st5" d="M487.6,410.9c4.5,0.1,8,3.6,8,8c-0.1,4.3-3.8,7.8-8.2,7.7c-4.5-0.1-8-3.6-8-8
			C479.5,414.3,483.1,410.9,487.6,410.9z"/>
		<path id="_x32_8" class="st5" d="M491.1,404.4c4.5,0.1,8,3.6,8,8c-0.1,4.3-3.8,7.8-8.2,7.7c-4.5-0.1-8-3.6-8-8
			C482.9,407.7,486.6,404.3,491.1,404.4z"/>
		<path id="_x32_7" class="st5" d="M514.1,432.3c13.7-4.8,38.2,22.4,54.8,60.9c16.5,38.5,18.8,73.6,5.1,78.4
			c-13.7,4.8-38.2-22.4-54.8-60.9C502.7,472.3,500.4,437.2,514.1,432.3z"/>
		<path id="_x32_6" class="st5" d="M559.2,499.7c2.5-1.2,7.5,4.3,11.1,12.3c3.6,8,4.4,15.5,1.9,16.7c-2.5,1.2-7.5-4.3-11.1-12.3
			C557.5,508.4,556.7,500.9,559.2,499.7z"/>
		<path id="_x32_5" class="st5" d="M563.4,514.2c21.5,26.2,18.8,42.8,16.5,56.8c-6.7-16.2-10.4-26.4-31.9-52.6
			c-21.5-26.2-10.8-44.5-9.3-54.2C541.9,472.6,541.9,488,563.4,514.2z"/>
		<path id="_x32_4" class="st5" d="M565.3,535.3c21.5,26.2,18.8,42.8,16.5,56.8c-6.8-16.2-10.4-26.4-31.9-52.6
			c-21.5-26.2-10.8-44.5-9.3-54.2C543.9,493.8,543.8,509.2,565.3,535.3z"/>
		<path id="_x32_3" class="st5" d="M566,552.3c22,25.7,19.6,42.4,17.7,56.5c-7.1-16.1-11-26.2-33-51.9c-22-25.7-11.7-44.3-10.4-54
			C543.7,511.2,543.9,526.6,566,552.3z"/>
		<path id="_x32_2" class="st5" d="M539.3,463.7c5-1.3,14.2,9.3,20.5,23.5c6.3,14.3,7.3,26.9,2.3,28.2c-5,1.3-14.2-9.3-20.5-23.5
			C535.3,477.6,534.2,465,539.3,463.7z"/>
		<path id="_x32_1" class="st5" d="M533.3,482.7c4.5-0.8,12.2,8.2,17.1,20c4.9,11.8,5.2,22,0.7,22.8c-4.5,0.8-12.2-8.2-17.1-20
			C529.1,493.7,528.8,483.5,533.3,482.7z"/>
		<path id="_x32_0" class="st5" d="M523.5,492.4c4.5-0.7,12,8.4,16.7,20.3c4.7,11.9,4.8,22.1,0.2,22.8c-4.5,0.7-12-8.4-16.7-20.3
			C519.1,503.3,519,493,523.5,492.4z"/>
		<path id="_x31_9" class="st5" d="M532.8,462.2c3.7-0.7,10,5.9,14.3,14.7c4.2,8.8,4.7,16.5,1,17.2c-3.7,0.7-10-5.9-14.3-14.7
			C529.6,470.6,529.1,462.9,532.8,462.2z"/>
		<path id="_x31_8" class="st5" d="M525.1,468.5c3.7-0.5,9.7,6.5,13.3,15.5c3.7,9,3.6,16.7-0.1,17.2c-3.7,0.5-9.7-6.5-13.3-15.5
			C521.4,476.6,521.5,468.9,525.1,468.5z"/>
		<path id="_x31_7" class="st5" d="M525.1,474.7c6.4,15.5,8.9,29.5,5.7,31.2c-3.2,1.7-10.9-9.6-17.3-25.1"/>
		<path id="_x31_6" class="st5" d="M524.1,450.2c3.7-0.5,9.7,6.5,13.3,15.5c3.7,9,3.6,16.7-0.1,17.2c-3.7,0.5-9.7-6.5-13.3-15.5
			C520.4,458.4,520.4,450.7,524.1,450.2z"/>
		<path id="_x31_5" class="st5" d="M513.8,455.2c3.7-0.4,9.5,6.7,13,15.7c3.5,9.1,3.3,16.8-0.5,17.2s-9.5-6.7-13-15.7
			C509.9,463.3,510.1,455.6,513.8,455.2z"/>
		<path id="_x31_4" class="st5" d="M514,453.6c6.2,10.5,9.5,20.3,7.4,21.9c-2.1,1.6-8.8-5.6-14.9-16.1"/>
		<path id="_x31_3" class="st5" d="M518.3,446.6c6.2,10.5,9.5,20.3,7.4,21.9c-2.1,1.6-8.8-5.6-14.9-16.1"/>
		<path id="_x31_2" class="st5" d="M537.5,448.1c8.6,14.3,13.2,27.7,10.3,29.9c-2.9,2.2-12.2-7.7-20.8-22"/>
		<path id="_x31_1" class="st5" d="M524.8,440.6c6.2,11.6,9.5,22.4,7.5,24.1c-2.1,1.7-8.8-6.3-15-17.8"/>
		<path id="_x31_0" class="st10" d="M524.2,423.8c-4.1,4.2-0.1,11.9,3.7,14.8c4.2,3.8,28.1,29,44.9,7.8
			C559.4,446.2,534.2,414.5,524.2,423.8L524.2,423.8z"/>
		<path id="_x39_" class="st10" d="M521.3,411.4c-4.1,4.2-0.1,11.9,3.7,14.8c4.2,3.8,28.1,29,44.9,7.8
			C556.4,433.8,531.3,402.1,521.3,411.4L521.3,411.4z"/>
		<path id="_x38_" class="st10" d="M517.5,399.5c-4.1,4.2-0.1,11.9,3.7,14.8c4.2,3.8,28.1,29,44.9,7.8
			C552.6,421.9,527.5,390.2,517.5,399.5z"/>
		<path id="_x37_" class="st10" d="M509.3,385.9c-4.1,4.2-0.1,11.9,3.7,14.8c4.2,3.8,28.1,29,44.9,7.8
			C544.5,408.3,519.3,376.6,509.3,385.9z"/>
		<path id="_x36_" class="st10" d="M480,372.9c8.5-6.3,24.2-8.2,36.4-2c10.2,5,27.1,25.3,39.8,30.1c-9,1.6-14.4,0.2-20.1-2.5
			c-11.3,8.2-15.3,9.4-26.9,11c-16,2.3-29.3-1.9-34-10.2C470.4,391.4,472.4,378.8,480,372.9z"/>
		<path id="_x35_" class="st11" d="M498.1,381.3c4.1,0.1,7.3,2,7.3,4.4c0,2.4-3.4,4.2-7.4,4.1c-4.1-0.1-7.3-2-7.3-4.4
			C490.7,383,494,381.2,498.1,381.3z"/>
		<path id="_x34_" class="st8" d="M473.5,396.9c5.3-2,10.6-1,11.8,2.3c1.2,3.2-2.1,7.4-7.4,9.4c-5.3,2-10.6,0.9-11.8-2.3
			C464.9,403.1,468.2,398.9,473.5,396.9z"/>
		<path id="_x33_" d="M497.7,383c1.5,0,2.6,1.1,2.6,2.3c0,1.3-1.2,2.3-2.7,2.2c-1.5,0-2.6-1.1-2.6-2.3
			C495,383.9,496.2,382.9,497.7,383z"/>
		<path id="_x32_" class="st8" d="M481.9,391.2c0.7,3.3-1.7,7.7-7,9.2c-5.4,2.2-9.4,7.2-11.8,15.5c-8.1-18.8-3-26.7,5.7-28.6
			C476.2,385,480.7,385.3,481.9,391.2z"/>
		<path id="_x31_" d="M473.9,390.7c1-0.1,1.9,0.8,2,1.8c0.1,1.1-0.7,2-1.8,2c-1,0.1-1.9-0.8-2-1.8
			C472.1,391.7,472.9,390.8,473.9,390.7z"/>
	</g>
</g>
</svg>
