<?xml version="1.0" encoding="utf-8"?>
<!-- Generator: Adobe Illustrator 28.0.0, SVG Export Plug-In . SVG Version: 6.00 Build 0)  -->
<svg version="1.1" id="Layer_1" xmlns="http://www.w3.org/2000/svg" xmlns:xlink="http://www.w3.org/1999/xlink" x="0px" y="0px"
	 viewBox="0 0 837 332" style="enable-background:new 0 0 837 332;" xml:space="preserve">
<style type="text/css">
	.st0{fill:#191919;}
</style>
<g>
	<g>
		<path class="st0" d="M128.7,331.8c-2.1,0-4.1-0.4-5.9-1.1c-1.8-0.7-3.4-1.7-4.8-3.1c-1.4-1.3-2.4-2.9-3.2-4.8
			c-0.8-1.9-1.2-3.9-1.2-6.2c0-2.3,0.4-4.3,1.2-6.2s1.9-3.5,3.3-4.8c1.4-1.3,3-2.4,4.8-3.1c1.8-0.7,3.7-1.1,5.8-1.1
			c2.2,0,4.1,0.3,5.7,0.9c1.6,0.6,2.9,1.4,4,2.4c1.1,1,1.9,2,2.6,3.2c0.7,1.2,1,2.2,1.3,3.3l-6.1,1.9c-0.1-0.5-0.3-1.1-0.6-1.7
			c-0.3-0.6-0.8-1.2-1.3-1.8c-0.6-0.6-1.3-1-2.2-1.4c-0.9-0.4-2-0.6-3.3-0.6c-1,0-2,0.2-3,0.5c-1,0.4-1.9,0.9-2.7,1.6
			c-0.8,0.7-1.4,1.6-1.9,2.8c-0.5,1.1-0.7,2.4-0.7,4c0,1.4,0.2,2.6,0.7,3.6c0.5,1.1,1.1,2,1.9,2.7c0.8,0.7,1.7,1.3,2.7,1.7
			s2,0.6,3.1,0.6c1.3,0,2.3-0.2,3.2-0.6c0.9-0.4,1.7-0.8,2.3-1.4c0.6-0.6,1.1-1.2,1.4-1.8c0.3-0.6,0.6-1.2,0.7-1.7l6.2,1.8
			c-0.2,1-0.7,2.1-1.3,3.3s-1.5,2.3-2.6,3.3c-1.1,1-2.5,1.9-4.1,2.6C133,331.5,130.9,331.8,128.7,331.8z"/>
		<path class="st0" d="M148.8,331.2V302h18.5v6.1h-11.9v5.5h10.8v5.7h-10.8v5.6h12.1v6.2H148.8z"/>
		<path class="st0" d="M174.8,331.2V302h6.5v23h12.6v6.2L174.8,331.2L174.8,331.2z"/>
		<path class="st0" d="M199.9,331.2V302h18.5v6.1h-11.9v5.5h10.8v5.7h-10.8v5.6h12.1v6.2H199.9z"/>
		<path class="st0" d="M236.8,302c1.4,0,2.7,0.2,3.8,0.6c1.1,0.4,2.1,0.9,2.8,1.6c0.8,0.7,1.4,1.5,1.8,2.5c0.4,0.9,0.6,2,0.6,3.1
			c0,1.5-0.4,2.8-1.2,4c-0.8,1.1-1.8,1.9-3,2.3c0.7,0.2,1.3,0.4,1.9,0.8c0.6,0.4,1.2,0.8,1.7,1.4c0.5,0.6,0.9,1.2,1.2,2
			c0.3,0.8,0.4,1.6,0.4,2.6c0,1.2-0.2,2.3-0.7,3.3c-0.4,1-1.1,1.9-1.8,2.6c-0.8,0.7-1.8,1.3-2.9,1.7c-1.1,0.4-2.4,0.6-3.7,0.6h-11.7
			V302L236.8,302L236.8,302z M235.8,313.7c1.1,0,2.1-0.3,2.7-0.8c0.7-0.6,1-1.3,1-2.3c0-1-0.3-1.7-0.9-2.3c-0.6-0.6-1.6-0.8-2.9-0.8
			h-3.4v6.3h3.5V313.7z M236.3,325.9c1.3,0,2.2-0.3,3-0.9c0.7-0.6,1.1-1.4,1.1-2.5c0-1-0.3-1.8-1-2.5c-0.7-0.6-1.7-0.9-3-0.9h-4.1
			v6.8L236.3,325.9L236.3,325.9z"/>
		<path class="st0" d="M262.7,320.3h-2.3v10.8h-6.5V302h11.5c1.4,0,2.7,0.2,3.9,0.7c1.2,0.5,2.2,1.1,3,1.9c0.8,0.8,1.5,1.8,1.9,2.9
			c0.5,1.1,0.7,2.3,0.7,3.6c0,2-0.5,3.7-1.5,5.1c-1,1.4-2.4,2.5-4.2,3.1l5.9,11.8h-7.2L262.7,320.3z M264.2,314.7
			c1.3,0,2.4-0.3,3.1-1c0.7-0.7,1-1.5,1-2.5c0-1.1-0.3-2-1-2.6c-0.7-0.6-1.7-0.9-3.1-0.9h-3.8v7.1h3.8V314.7z"/>
		<path class="st0" d="M298.9,325.3h-11.2l-2.1,5.9h-6.8l10.9-29.2h7.5l10.8,29.2H301L298.9,325.3z M289.8,319.3h7.1l-3.5-10
			L289.8,319.3z"/>
		<path class="st0" d="M323.9,308.2v23h-6.5v-23h-8.9V302h24.5v6.2H323.9z"/>
		<path class="st0" d="M338.9,331.2V302h6.6v29.2H338.9z"/>
		<path class="st0" d="M372.7,331.2L360.6,312v19.2h-6.4V302h7.9l10.9,17.8V302h6.5v29.2H372.7z"/>
		<path class="st0" d="M409.9,331.2l-0.4-3c-0.6,0.9-1.6,1.8-3,2.5c-1.4,0.7-3.1,1.1-5.2,1.1c-2,0-3.9-0.4-5.7-1.1
			c-1.8-0.7-3.3-1.7-4.7-3.1c-1.3-1.3-2.4-2.9-3.2-4.8s-1.2-3.9-1.2-6.2c0-2.3,0.4-4.4,1.2-6.2c0.8-1.9,1.9-3.4,3.3-4.8
			c1.4-1.3,3-2.4,4.8-3.1c1.8-0.7,3.8-1.1,5.8-1.1c2.1,0,3.9,0.3,5.4,0.8c1.5,0.6,2.9,1.3,3.9,2.1c1.1,0.9,1.9,1.8,2.6,2.9
			c0.7,1.1,1.1,2.1,1.5,3.1l-6.2,2.2c-0.1-0.4-0.3-0.9-0.6-1.5c-0.3-0.6-0.8-1.1-1.3-1.7c-0.6-0.5-1.3-1-2.2-1.3
			c-0.9-0.4-1.9-0.5-3.1-0.5c-1,0-2,0.2-3,0.5c-1,0.3-1.9,0.9-2.8,1.6c-0.8,0.7-1.5,1.7-2,2.8s-0.8,2.5-0.8,4.1c0,1.5,0.2,2.9,0.7,4
			s1.1,2.1,1.9,2.9c0.8,0.8,1.7,1.3,2.8,1.7c1.1,0.4,2.2,0.6,3.3,0.6c1.2,0,2.2-0.2,3.1-0.5c0.9-0.3,1.6-0.8,2.2-1.2
			c0.6-0.5,1-1,1.3-1.6c0.3-0.5,0.5-1,0.6-1.4h-8.7v-5.5H415V331h-5.1V331.2z"/>
		<path class="st0" d="M454.5,310.8c-0.1-0.3-0.2-0.7-0.3-1.1c-0.1-0.4-0.5-0.8-0.8-1.2c-0.3-0.4-0.9-0.7-1.5-0.9
			c-0.6-0.3-1.3-0.4-2.2-0.4c-1.2,0-2.2,0.3-2.9,1c-0.7,0.6-1.1,1.4-1.1,2.2c0,0.7,0.2,1.3,0.7,1.8c0.5,0.5,1.2,0.8,2.2,1l3.9,0.7
			c1.4,0.2,2.6,0.6,3.6,1.2c1,0.6,1.9,1.2,2.6,2c0.7,0.8,1.2,1.6,1.6,2.6c0.4,1,0.5,1.9,0.5,3s-0.2,2.3-0.7,3.4
			c-0.5,1.1-1.2,2.1-2.1,2.9s-2,1.6-3.4,2.1c-1.4,0.5-2.9,0.8-4.6,0.8c-2,0-3.8-0.3-5.2-0.9c-1.4-0.6-2.7-1.3-3.6-2.2
			s-1.7-1.9-2.2-3c-0.5-1.1-0.8-2.2-0.9-3.2l5.9-1.4c0.1,0.7,0.2,1.3,0.5,1.9c0.3,0.6,0.6,1.1,1.1,1.6s1.1,0.8,1.8,1.1
			c0.7,0.3,1.6,0.4,2.6,0.4c1.3,0,2.3-0.3,3-0.8c0.7-0.5,1.1-1.3,1.1-2.2c0-0.7-0.3-1.4-0.8-1.9c-0.5-0.5-1.3-0.9-2.3-1l-4-0.7
			c-2.5-0.5-4.4-1.5-5.8-3c-1.4-1.5-2.1-3.4-2.1-5.5c0-1.4,0.3-2.6,0.8-3.8c0.6-1.1,1.3-2.1,2.3-3c1-0.8,2.1-1.5,3.3-1.9
			s2.6-0.7,4-0.7c1.8,0,3.3,0.2,4.6,0.7s2.3,1.1,3.2,1.9s1.5,1.6,1.9,2.5s0.7,1.8,0.9,2.6L454.5,310.8z"/>
		<path class="st0" d="M467.8,331.2V302h6.6v29.2H467.8z"/>
		<path class="st0" d="M497.6,316.6l9.4,14.6h-7.9l-5.7-9.4l-5.7,9.4H480l9.4-14.7L480,302h7.8l5.7,9.4l5.7-9.4h7.6L497.6,316.6z"/>
		<path class="st0" d="M525.5,308.2v23H519v-23H510V302h24.5v6.2H525.5z"/>
		<path class="st0" d="M537.6,302h7.6l5.9,10.8l6-10.8h7.2l-10.2,17v12.2h-6.5v-12.2L537.6,302z"/>
		<path class="st0" d="M581.9,302h7.6l5.9,10.8l6-10.8h7.2l-10.2,17v12.2H592v-12.2L581.9,302z"/>
		<path class="st0" d="M614.5,331.2V302h18.5v6.1H621v5.5h10.8v5.7H621v5.6H633v6.2H614.5z"/>
		<path class="st0" d="M657.6,325.3h-11.2l-2.1,5.9h-6.8l10.9-29.2h7.5l10.8,29.2h-7.1L657.6,325.3z M648.5,319.3h7.1l-3.5-10
			L648.5,319.3z"/>
		<path class="st0" d="M681.3,320.3H679v10.8h-6.5V302h11.5c1.4,0,2.7,0.2,3.9,0.7c1.2,0.5,2.2,1.1,3,1.9c0.8,0.8,1.5,1.8,1.9,2.9
			c0.5,1.1,0.7,2.3,0.7,3.6c0,2-0.5,3.7-1.5,5.1c-1,1.4-2.4,2.5-4.2,3.1l5.9,11.8h-7.1L681.3,320.3z M682.9,314.7
			c1.3,0,2.4-0.3,3.1-1c0.7-0.7,1-1.5,1-2.5c0-1.1-0.3-2-1-2.6c-0.7-0.6-1.7-0.9-3.1-0.9H679v7.1h3.8V314.7z"/>
		<path class="st0" d="M715.1,310.8c-0.1-0.3-0.2-0.7-0.3-1.1s-0.5-0.8-0.8-1.2c-0.4-0.4-0.9-0.7-1.5-0.9c-0.6-0.3-1.3-0.4-2.2-0.4
			c-1.2,0-2.2,0.3-2.9,1c-0.7,0.6-1.1,1.4-1.1,2.2c0,0.7,0.2,1.3,0.7,1.8c0.5,0.5,1.2,0.8,2.2,1l3.9,0.7c1.4,0.2,2.6,0.6,3.7,1.2
			c1,0.6,1.9,1.2,2.6,2s1.2,1.6,1.6,2.6c0.4,0.9,0.5,1.9,0.5,3s-0.2,2.3-0.7,3.4c-0.5,1.1-1.2,2.1-2.1,2.9c-0.9,0.9-2,1.6-3.4,2.1
			c-1.3,0.5-2.9,0.8-4.6,0.8c-2,0-3.8-0.3-5.2-0.9c-1.4-0.6-2.7-1.3-3.6-2.2s-1.7-1.9-2.2-3c-0.5-1.1-0.8-2.2-0.9-3.2l5.9-1.4
			c0.1,0.7,0.2,1.3,0.5,1.9c0.3,0.6,0.6,1.1,1.1,1.6c0.5,0.5,1.1,0.8,1.8,1.1c0.7,0.3,1.6,0.4,2.6,0.4c1.3,0,2.3-0.3,3-0.8
			c0.7-0.6,1.1-1.3,1.1-2.2c0-0.7-0.3-1.4-0.8-1.9c-0.6-0.5-1.3-0.9-2.3-1l-4-0.7c-2.5-0.5-4.4-1.5-5.8-3c-1.4-1.5-2.1-3.4-2.1-5.5
			c0-1.4,0.3-2.6,0.8-3.8c0.5-1.2,1.3-2.1,2.3-3c1-0.8,2.1-1.5,3.3-1.9c1.3-0.5,2.6-0.7,4-0.7c1.8,0,3.3,0.2,4.6,0.7
			s2.3,1.1,3.2,1.9c0.8,0.8,1.5,1.6,1.9,2.5c0.4,0.9,0.7,1.8,0.9,2.6L715.1,310.8z"/>
	</g>
	<g>
		<path class="st0" d="M12.9,226.5c-2.3-5.8-4.3-11.7-5.8-17.9l-7,34.2h20.7C17.7,237.7,15.2,232.2,12.9,226.5z"/>
		<path class="st0" d="M262.9,243l5-24.6c-10.9,9.8-23.2,18.2-36.3,24.6H262.9z"/>
		<g>
			<g>
				<g>
					<g>
						<path class="st0" d="M759.1,204.7c10-6,19.5-13.3,27.8-21.7c7.5-13.5,12.8-28.1,14.9-43.4c1.4-9.7,1.4-19.1,0.3-28.1
							c0,4.9-0.4,9.9-1.1,15C796.7,156.3,781.1,183.9,759.1,204.7z"/>
						<path class="st0" d="M758.6,11.2c-6.6-2.9-21.4-1.5-23.4-1.4c-20.9,1.2-41.3,8.5-59.1,20.1c10.3-3.6,21.2-5.9,32-6.5
							c28.6-1.7,54,7.9,71.6,27c10.2,11.1,17.1,24.7,20.4,39.8c5.6,15,7.3,31.9,4.8,49.8c-1.7,12.1-5.3,23.8-10.4,34.9
							c16-18.7,27.1-41.4,30.5-65.5c1.7-12.4,1.4-24.3-1-35.3C810.3,46.2,787.1,23.6,758.6,11.2z"/>
						<path class="st0" d="M679,254.2c40.6-2.3,79.1-27.1,102.1-61.8c-9.8,8.5-20.8,15.7-32.3,21.1c-20.7,16.2-45.5,26.6-71.1,28
							c-2.1,0.1-4.2,0.2-6.3,0.2c-26,0-49-9.5-65.3-27.2c-5.6-6-10.1-12.9-13.7-20.2l0,0c3.2,10.6,28.5,50.1,59.6,57.8
							C660.5,254.3,669.6,254.7,679,254.2z"/>
						<path class="st0" d="M716.5,37.9c-2.1,0-4.1,0.1-6.2,0.2c-27,1.6-53,13.1-74.3,30.8c-11,16.1-18.7,34.3-21.4,53.4
							c-4,28.6,3.2,54.7,20.6,73.6c17,18.4,41.5,27.6,69.2,26c14.8-0.9,29.2-4.7,42.8-11c26.6-20.9,46-51.5,50.7-84.8
							c1.7-12.3,1.4-24-1-35c-3.7-9.8-9.1-18.8-16.3-26.5C764.8,47.2,742.2,37.9,716.5,37.9z M705.4,198.4
							c-36.8,0-66.7-29.9-66.7-66.7s29.9-66.7,66.7-66.7c36.8,0,66.7,29.9,66.7,66.7S742.2,198.4,705.4,198.4z"/>
						<path class="st0" d="M583.7,159.3c-0.3-6.7,0-13.8,1-20.9c6.3-44.6,38.6-84.6,79.1-103.5c20.7-16.2,45.5-26.6,71.1-28
							c4.2-0.2,8.3-0.2,12.4,0C734.2,2.4,720.1,0,705.4,0c-72.7,0-131.7,58.9-131.7,131.7c0,18.7,3.9,36.4,10.8,52.4
							C583.3,176.2,583,167.9,583.7,159.3z"/>
						<path class="st0" d="M828.6,85.1c0.7,8,0.5,16.4-0.7,24.9c-4,28.2-18.4,54.5-38.6,74.9c-22.5,40.1-65.2,69.8-110.2,72.4
							c-2.1,0.1-4.3,0.2-6.4,0.2c-2.7,0-5.3-0.1-7.9-0.3c12.8,4.1,26.4,6.4,40.6,6.4c72.7,0,131.7-58.9,131.7-131.7
							C837.1,115.3,834.1,99.6,828.6,85.1z"/>
						<path class="st0" d="M677.5,238.5c20.9-1.2,41.3-8.5,59.1-20.1c-10.3,3.6-21.2,5.9-32,6.5c-2.1,0.1-4.2,0.2-6.3,0.2
							c-26,0-49-9.5-65.3-27.2c-18-19.6-25.6-46.6-21.4-76.1c2.3-16.1,7.9-31.5,16.2-45.6c-21.1,20.5-36.2,47.4-40.3,76.3
							c-0.3,2.3-0.5,4.5-0.7,6.7c1.1,20.5,8.4,38.9,21.6,53.1C625.2,230.9,649.8,240.1,677.5,238.5z"/>
						<path class="st0" d="M714.3,26.3c-2,0-4,0.1-6.1,0.2c-14.8,0.9-29.2,4.7-42.8,11c-8.3,6.5-16,14.2-22.7,22.4
							c20-14.4,43.4-23.5,67.4-24.9c29.1-1.7,55,8,72.9,27.5c2.9,3.1,5.4,6.4,7.8,9.9c-3.4-7.3-7.9-14.1-13.5-20
							C761.7,35.4,739.5,26.3,714.3,26.3z"/>
						<path class="st0" d="M588.5,134.3c7.8-26.1,24.2-49.7,45.3-67.4c5.7-8.3,12.5-16.1,19.8-23.1
							C620.8,63.2,595.4,96.8,588.5,134.3z"/>
					</g>
				</g>
				<g>
					<path class="st0" d="M552,19.8c-56.3,0-105,41.4-105,123.3c0,65.8,35,100.5,80.7,100.5c40.5,0,76.1-28,76.1-71.9
						c0-45.1-31-73.1-72.5-73.1c-30.4,0-55.1,15.3-66.4,41.4c1.2-53.9,28.9-102.9,86.2-102.9c15.1,0,27,3.2,35.6,7.5
						c3.1-4.8,6.6-9.4,10.3-13.8C586.7,24.6,571,19.8,552,19.8z M528.5,115.4c30.7,0,56,21.3,56,56c0,33.5-25.6,55.7-56.6,55.7
						c-29.8,0-56.6-22.2-56.6-55.7C471.3,139.5,497.5,115.4,528.5,115.4z"/>
				</g>
			</g>
			<path class="st0" d="M45.7,19.8l-8,39c9-13.7,19.7-26.7,31.8-39H45.7z"/>
			<path class="st0" d="M57,101.3c-9.3,20.9-14.2,42.1-14.2,63c0,16.1,2.8,31.3,8.5,45.5c4.8,12.3,11.7,23.4,20.5,33.2h39
				c-5.4-3.5-10.5-7.5-15.1-12.2c-22-22-32.4-52-29.4-84.5c1.5-16.1,6.2-32,14.1-47.7c8-16.2,19.2-31.3,33-45.2
				c13.3-13.3,28.2-24,44.5-31.9c1.2-0.6,2.4-1.2,3.6-1.7h-37.7c-8.5,6.2-16.7,13.3-24.4,21C81,59.1,66.8,79.5,57,101.3z"/>
			<path class="st0" d="M106.8,71.6h19.1c1-1,2-2.1,3.1-3.1c20.2-20.2,45.3-33.2,71.1-37l2.4-11.7h-20.8
				c-22.3,7-44.3,20.1-63.1,38.9C114.4,62.9,110.5,67.2,106.8,71.6z"/>
			<path class="st0" d="M225.5,164.7c13.3-13.3,20.5-28.4,20.5-42.9c0-11.1-4.2-21.2-12.2-29.1c-3.8-3.8-8.2-6.6-13.4-8.5L218,96.6
				c2.5,1.4,4.8,3.1,6.8,5.1c6.9,6.9,10.3,16.6,9.5,27c-0.8,10.3-5.8,20.6-14.1,28.8c-5,5-10.9,8.9-17.2,11.6l-2.4,11.6
				C209.6,177.4,218.1,172.1,225.5,164.7z"/>
			<path class="st0" d="M253.5,121.8c0,16.4-8,33.4-22.7,48.1c-9.2,9.2-20.2,15.9-31.6,19.3l-2.8,13.8c14.9-3.9,29.4-12.6,41.9-24.9
				c32.1-32.1,37.1-75.8,11.3-101.5c-6.7-6.7-15.1-11.3-24.4-13.8l-2.9,14.2c6.5,2.2,12.3,5.8,17.1,10.5
				C248.5,96.8,253.5,108.7,253.5,121.8z"/>
			<path class="st0" d="M227,128c0.7-8.2-1.9-15.8-7.3-21.2c-1-1-2-1.8-3.2-2.6l-11.4,55.6c3.6-2.1,7-4.6,10-7.7
				C222.1,145.2,226.3,136.7,227,128z"/>
			<path class="st0" d="M35.4,164.2c0-21.9,5-44.1,14.8-66c10.1-22.6,24.9-43.7,44-62.8c5.6-5.6,11.4-10.8,17.5-15.8H79.9
				c-1.3,1.2-2.5,2.5-3.8,3.7c-17.6,17.6-32,36.8-43,57L10.8,189.9c1.6,11.7,4.5,23.1,8.8,33.9c2.6,6.6,5.8,13.1,9.4,19.2h33
				c-7.3-9.2-13.4-19.5-17.7-30.5C38.6,197.4,35.4,181.2,35.4,164.2z"/>
			<path class="st0" d="M97.7,153c0,1.1,0,2.1,0.1,3.1h16.8c-0.3-2.5-0.4-5.1-0.4-7.7c0-15.3,4.6-30.7,13.1-44.9h-15.8
				C102.4,119.4,97.7,136.4,97.7,153z"/>
			<path class="st0" d="M172.5,103.5h-13.7c-11.1,12.2-17.4,26.9-17.4,40.9c0,4.1,0.5,8,1.5,11.7h13.2c-2.2-4.5-3.4-9.6-3.4-15.1
				c0-11.7,5.4-23.7,15.3-33.5C169.5,106.1,171,104.7,172.5,103.5z"/>
			<path class="st0" d="M121.5,148.4c0,2.6,0.2,5.2,0.5,7.7h13.6c-0.9-3.8-1.3-7.7-1.3-11.7c0-8.3,1.9-16.8,5.5-25
				c2.4-5.5,5.7-10.8,9.5-15.9H136C126.6,117.5,121.5,133.2,121.5,148.4z"/>
			<path class="st0" d="M243.3,183.2c-14.3,14.3-31.4,23.9-48.7,27.7l-3,14.8c22.4-4.4,44.6-16.4,62-33.7
				c19.7-19.7,32.4-43.6,35.8-67.3c0.6-4.3,0.9-8.5,0.9-12.7c0-1,0-1.9,0-2.9c-0.7-19.3-8.2-36.6-22.3-50.5
				c-10.4-10.4-23.7-16.9-38.3-19.4l-3.3,16.4c10.7,2.7,20.4,8,28.2,15.8C283.4,99.8,278.5,148,243.3,183.2z"/>
			<path class="st0" d="M273.3,53.2c9.9,9.9,17,21.5,20.9,34.2c0.1,0.4,0.2,0.7,0.3,1.1l3.5-17h9.8c-4.6-11.8-11.7-22.5-21.1-31.8
				c-9-9-19.7-15.7-31.4-20h-21.6l-2.5,12.1c3.5,0.6,6.9,1.4,10.2,2.5C253.9,38.1,264.5,44.5,273.3,53.2z"/>
			<path class="st0" d="M315.8,71.6h25.1c-4.8-19.5-14.3-37.2-27.9-51.9h-40.3c7.1,4,13.6,8.9,19.4,14.8
				C302.8,45.3,310.8,57.7,315.8,71.6z"/>
			<path class="st0" d="M195.3,54.7l3.2-15.5c-21.6,3.7-43.7,14.7-62.2,32.4h20.1C168.4,63,181.7,57.2,195.3,54.7z"/>
			<path class="st0" d="M193.7,62.6c-8,1.8-16,4.8-23.5,9h21.7L193.7,62.6z"/>
			<path class="st0" d="M73.7,147c-2.8,30.2,6.8,58.1,27.3,78.6c7.2,7.2,15.9,13.1,25.5,17.4h30.1l1.9-9.1
				c-17.4-2.7-32.6-10.3-44.8-22.4c-6.2-6.2-11.3-13.5-15.2-21.4H81l6.7-33.8h2.6c0-1-0.1-2.1-0.1-3.1c0-16.7,4.4-33.5,12.7-49.5
				h-4.3l5.9-29C86.9,96.9,76,122.1,73.7,147z"/>
			<path class="st0" d="M167.6,190.1L167.6,190.1l-0.2-0.1h-28.5c7.4,6.9,16.2,11.5,25.8,13.8L167.6,190.1z"/>
			<path class="st0" d="M163.3,211c-11.7-2.7-22.4-8.5-31.2-17.4c-1.2-1.2-2.2-2.3-3.3-3.6h-21.8c3.2,5.9,7.2,11.3,12.1,16.2
				c11,11,25.1,18,41.1,20.4L163.3,211z"/>
			<path class="st0" d="M314.4,112h-16.6c0,4.5-0.3,9-1,13.8c-1.9,13.2-6.5,26.3-13.4,39h16.6c7.2-14.3,11.8-29.1,13.7-43.8
				C314,117.8,314.2,114.9,314.4,112z"/>
			<path class="st0" d="M357.7,19.8h-34.8c12.6,15.1,21.3,32.7,25.7,51.9h26.9c-1.6-11.5-4.6-22.6-8.7-33.2
				C364.1,31.9,361.1,25.7,357.7,19.8z"/>
			<path class="st0" d="M366.1,19.8c2.8,5.1,5.2,10.4,7.4,16c2.6,6.6,4.8,13.5,6.4,20.5l7.4-36.4h-21.3V19.8z"/>
			<path class="st0" d="M344.2,112h-22.4c-0.1,3.2-0.4,6.4-0.8,9.7c-1.8,14.5-6.1,28.9-12.9,43H331c6.7-15.6,11.1-31.5,12.8-47.6
				C343.9,115.4,344.1,113.7,344.2,112z"/>
			<path class="st0" d="M351.2,117.8c-1.7,15.8-5.7,31.5-12.2,46.8h17.1l10.6-52.6h-15.1C351.5,113.9,351.4,115.9,351.2,117.8z"/>
			<path class="st0" d="M190,233.4l-1.9,9.5h24.8c20.4-7.3,39.7-19.4,55.3-35.1c0.8-0.8,1.6-1.6,2.3-2.4l6.1-30
				c-5.1,7.6-11.1,14.9-18,21.7C239.6,216.3,214.9,229.3,190,233.4z"/>
			<path class="st0" d="M173.2,112.8c-8.4,8.4-13.1,18.5-13.1,28.3c0,5.6,1.6,10.8,4.6,15.1h7.9l10.2-50.8
				C179.4,107.3,176.2,109.9,173.2,112.8z"/>
			<polygon class="st0" points="381.2,243.6 427,19.8 431.1,19.8 385.3,243.6 			"/>
		</g>
	</g>
</g>
</svg>
