<svg width="173" height="66" viewBox="0 0 173 66" fill="none" xmlns="http://www.w3.org/2000/svg">
<g clipPath="url(#clip0_124_2529)">
<path d="M14.7295 65.9999C14.3054 65.9999 13.9103 65.9272 13.542 65.7818C13.1736 65.6364 12.8537 65.4305 12.5823 65.1688C12.3109 64.9047 12.0952 64.5873 11.9352 64.2141C11.7753 63.841 11.6953 63.4267 11.6953 62.9712C11.6953 62.5156 11.7753 62.0989 11.9377 61.7233C12.1 61.3477 12.3181 61.0255 12.592 60.759C12.8658 60.4924 13.1857 60.284 13.5517 60.1362C13.9176 59.9884 14.3029 59.9133 14.7101 59.9133C15.1487 59.9133 15.5292 59.9763 15.8467 60.1023C16.1641 60.2283 16.4331 60.3882 16.6537 60.5845C16.8742 60.7783 17.0463 60.9916 17.1674 61.2217C17.2886 61.4519 17.3783 61.6724 17.4268 61.8808L16.1981 62.2685C16.1763 62.1691 16.1326 62.0577 16.0696 61.9317C16.0066 61.8057 15.917 61.687 15.8006 61.5731C15.6843 61.4592 15.5389 61.3671 15.3596 61.292C15.1802 61.2169 14.9621 61.1806 14.7052 61.1806C14.5065 61.1806 14.3102 61.2169 14.1115 61.2872C13.9128 61.3574 13.7359 61.4665 13.5759 61.6118C13.416 61.7572 13.2875 61.9438 13.1882 62.1667C13.0888 62.3921 13.0403 62.6586 13.0403 62.9663C13.0403 63.2401 13.0864 63.4848 13.1809 63.7005C13.273 63.9137 13.399 64.0954 13.5565 64.2432C13.714 64.391 13.891 64.5049 14.0921 64.58C14.2932 64.6576 14.5017 64.6963 14.7222 64.6963C14.9742 64.6963 15.1923 64.66 15.3741 64.5849C15.5559 64.5097 15.7061 64.4177 15.8273 64.3038C15.9485 64.1923 16.043 64.0712 16.1108 63.9452C16.1787 63.8192 16.2272 63.7029 16.2538 63.5987L17.497 63.9525C17.4486 64.156 17.3613 64.3765 17.2377 64.6115C17.1141 64.8466 16.9421 65.0695 16.7191 65.2754C16.4962 65.4814 16.2199 65.6534 15.8903 65.7891C15.5607 65.9248 15.1705 65.995 14.7198 65.995L14.7295 65.9999Z" fill="#231F20"/>
<path d="M19.9863 65.8764V60.0345H23.6869V61.263H21.2901V62.3752H23.4664V63.5212H21.2901V64.6407H23.6966V65.8764H19.9888H19.9863Z" fill="#231F20"/>
<path d="M26.4204 65.8764V60.0345H27.7218V64.631H30.2422V65.874H26.418L26.4204 65.8764Z" fill="#231F20"/>
<path d="M32.6816 65.8764V60.0345H36.3822V61.263H33.9855V62.3752H36.1617V63.5212H33.9855V64.6407H36.3919V65.8764H32.6841H32.6816Z" fill="#231F20"/>
<path d="M41.3022 60.0345C41.5882 60.0345 41.845 60.0757 42.0729 60.1533C42.3007 60.2332 42.4921 60.3422 42.6448 60.4828C42.7975 60.6233 42.9162 60.7881 42.9986 60.9771C43.081 61.1661 43.1222 61.3744 43.1222 61.5998C43.1222 61.9027 43.0398 62.1668 42.875 62.3945C42.7102 62.6223 42.5066 62.7749 42.2643 62.8525C42.3952 62.8864 42.5236 62.9397 42.6472 63.0124C42.7708 63.0875 42.8823 63.182 42.9816 63.2959C43.081 63.4122 43.1586 63.5479 43.2167 63.7029C43.2749 63.8604 43.304 64.03 43.304 64.2166C43.304 64.4589 43.2603 64.6794 43.1731 64.8805C43.0858 65.0816 42.9623 65.2561 42.8023 65.4039C42.6424 65.5517 42.4509 65.668 42.2255 65.7504C42.0001 65.8328 41.7505 65.8739 41.4767 65.8739H39.1211V60.0321H41.3046L41.3022 60.0345ZM41.0962 62.3751C41.3264 62.3751 41.5106 62.3194 41.6439 62.2055C41.7796 62.0941 41.845 61.939 41.845 61.7403C41.845 61.5416 41.782 61.3963 41.656 61.2824C41.53 61.1709 41.3361 61.1128 41.0792 61.1128H40.3861V62.3727H41.0938L41.0962 62.3751ZM41.2028 64.8127C41.4549 64.8127 41.6536 64.7521 41.7966 64.6261C41.9396 64.5025 42.0098 64.3353 42.0098 64.127C42.0098 63.9186 41.9396 63.7587 41.799 63.6327C41.6584 63.5067 41.4597 63.4437 41.2028 63.4437H40.3861V64.8103H41.2028V64.8127Z" fill="#231F20"/>
<path d="M47.713 63.7005H47.2526V65.8764H45.9512V60.0345H48.2656C48.5515 60.0345 48.8108 60.0806 49.0435 60.1751C49.2761 60.2696 49.4773 60.398 49.6397 60.5628C49.8044 60.7275 49.9329 60.9214 50.0226 61.1443C50.1122 61.3672 50.1583 61.6071 50.1583 61.8663C50.1583 62.2613 50.0565 62.6029 49.8529 62.8913C49.6493 63.1796 49.3658 63.388 49.0047 63.514L50.1922 65.8788H48.7575L47.7106 63.703L47.713 63.7005ZM48.0184 62.5811C48.2874 62.5811 48.4934 62.5157 48.6315 62.3824C48.7696 62.2492 48.8423 62.0796 48.8423 61.8712C48.8423 61.6507 48.7721 61.4787 48.6315 61.3527C48.4909 61.2267 48.2874 61.1637 48.0184 61.1637H47.2526V62.5811H48.0184Z" fill="#231F20"/>
<path d="M56.199 64.6891H53.9404L53.5211 65.8764H52.1543L54.3548 60.0345H55.8622L58.0384 65.8764H56.6207L56.2014 64.6891H56.199ZM54.3693 63.5018H55.787L55.0867 61.4835L54.3693 63.5018Z" fill="#231F20"/>
<path d="M62.4272 61.28V65.8764H61.1258V61.28H59.3301V60.037H64.2327V61.28H62.4272Z" fill="#231F20"/>
<path d="M66.6816 65.8764V60.0345H68V65.8764H66.6816Z" fill="#231F20"/>
<path d="M74.6635 65.8764L72.257 62.0384V65.8764H70.9629V60.0345H72.5454L74.7362 63.5842V60.0345H76.0376V65.8764H74.6611H74.6635Z" fill="#231F20"/>
<path d="M83.3496 65.8764L83.2672 65.2828C83.1412 65.4694 82.94 65.6366 82.6662 65.7819C82.3923 65.9273 82.0458 66 81.6289 66C81.2121 66 80.8389 65.9298 80.4802 65.7868C80.1191 65.6438 79.8065 65.4403 79.5399 65.1738C79.2734 64.9072 79.0625 64.5874 78.905 64.2143C78.7475 63.8411 78.6699 63.4244 78.6699 62.9616C78.6699 62.4988 78.7499 62.082 78.9123 61.7089C79.0746 61.3357 79.2952 61.0159 79.5714 60.7494C79.8477 60.4829 80.1725 60.2769 80.5408 60.1315C80.9092 59.9861 81.2994 59.9135 81.7113 59.9135C82.1233 59.9135 82.4917 59.9692 82.8019 60.0831C83.1121 60.1945 83.3763 60.3375 83.5919 60.5119C83.81 60.684 83.9845 60.8778 84.1154 61.0935C84.2463 61.3091 84.3456 61.5175 84.4111 61.7186L83.1581 62.1547C83.1363 62.0675 83.0927 61.9633 83.0297 61.847C82.9667 61.7283 82.877 61.6168 82.7607 61.5102C82.6444 61.4036 82.5014 61.3139 82.3293 61.2437C82.1573 61.1734 81.9488 61.1371 81.7065 61.1371C81.5078 61.1371 81.3091 61.171 81.1055 61.2388C80.9019 61.3067 80.7177 61.4157 80.5505 61.5635C80.3833 61.7113 80.2476 61.9003 80.1434 62.1329C80.0392 62.3655 79.9859 62.6417 79.9859 62.964C79.9859 63.2863 80.0319 63.5407 80.1264 63.7709C80.2209 64.001 80.3469 64.1949 80.5093 64.3475C80.6717 64.5002 80.8583 64.6189 81.0691 64.6989C81.28 64.7788 81.5054 64.8176 81.7404 64.8176C81.9755 64.8176 82.1888 64.7837 82.3632 64.7158C82.5377 64.648 82.6807 64.5632 82.797 64.4638C82.9134 64.3645 83.0006 64.2603 83.0636 64.1513C83.1266 64.0422 83.1654 63.9453 83.1824 63.8629H81.4278V62.7581H84.4014V65.8813H83.3472L83.3496 65.8764Z" fill="#231F20"/>
<path d="M93.59 61.7985C93.5779 61.7331 93.5561 61.658 93.5197 61.5731C93.4834 61.4883 93.4301 61.4084 93.3549 61.3333C93.2798 61.2582 93.1829 61.1952 93.0617 61.1443C92.9405 61.0934 92.7927 61.0667 92.6158 61.0667C92.3734 61.0667 92.1796 61.1322 92.0342 61.2606C91.8887 61.389 91.816 61.5344 91.816 61.6919C91.816 61.8348 91.8621 61.9536 91.9518 62.0505C92.0414 62.1474 92.1893 62.2128 92.3928 62.2516L93.1756 62.3994C93.4567 62.4478 93.7015 62.5302 93.9099 62.6417C94.1183 62.7531 94.2952 62.8864 94.4382 63.0415C94.5812 63.1941 94.6878 63.3662 94.7605 63.5552C94.8308 63.7441 94.8672 63.9428 94.8672 64.1512C94.8672 64.3814 94.8211 64.6067 94.7266 64.8272C94.6321 65.0477 94.494 65.244 94.3098 65.416C94.1256 65.5881 93.9002 65.7286 93.6312 65.8352C93.3622 65.9418 93.0544 65.9951 92.7079 65.9951C92.3007 65.9951 91.9518 65.937 91.6609 65.8182C91.3701 65.6995 91.1278 65.5493 90.9363 65.37C90.7449 65.1883 90.5995 64.9871 90.5001 64.7691C90.4008 64.551 90.3402 64.3354 90.3184 64.127L91.5131 63.8386C91.5252 63.9695 91.5567 64.0979 91.6076 64.2215C91.6585 64.3451 91.7361 64.4517 91.833 64.5437C91.9299 64.6358 92.056 64.7061 92.2038 64.7618C92.3516 64.8175 92.5261 64.8442 92.7224 64.8442C92.9817 64.8442 93.1829 64.7885 93.3283 64.6746C93.4737 64.5631 93.5464 64.4153 93.5464 64.2336C93.5464 64.0858 93.4906 63.9598 93.3767 63.858C93.2653 63.7563 93.1126 63.686 92.9187 63.6472L92.119 63.4994C91.6197 63.4074 91.2296 63.2062 90.9485 62.8985C90.6673 62.5908 90.5292 62.2201 90.5292 61.7864C90.5292 61.5126 90.5849 61.2582 90.6988 61.028C90.8127 60.7978 90.963 60.5991 91.1569 60.4343C91.3483 60.2696 91.5713 60.1412 91.8233 60.0467C92.0754 59.9546 92.3419 59.9061 92.6231 59.9061C92.9866 59.9061 93.2968 59.9546 93.5537 60.0539C93.8105 60.1533 94.0238 60.2768 94.191 60.4295C94.3582 60.5797 94.4867 60.7469 94.5739 60.9311C94.6612 61.1152 94.7218 61.2921 94.7557 61.4617L93.5852 61.7912L93.59 61.7985Z" fill="#231F20"/>
<path d="M97.4941 65.8764V60.0345H98.8125V65.8764H97.4941Z" fill="#231F20"/>
<path d="M104.687 62.9688L106.582 65.8764H104.999L103.846 63.9816L102.7 65.8764H101.168L103.056 62.9518L101.168 60.0345H102.734L103.887 61.9293L105.041 60.0345H106.565L104.687 62.9664V62.9688Z" fill="#231F20"/>
<path d="M111.511 61.28V65.8764H110.21V61.28H108.414V60.037H113.317V61.28H111.511Z" fill="#231F20"/>
<path d="M115.186 60.0345H116.71L117.905 62.2007L119.116 60.0345H120.566L118.513 63.4364V65.874H117.212V63.4364L115.186 60.0345Z" fill="#231F20"/>
<path d="M125.361 60.0345H126.886L128.08 62.2007L129.292 60.0345H130.741L128.689 63.4364V65.874H127.387V63.4364L125.361 60.0345Z" fill="#231F20"/>
<path d="M133.115 65.8764V60.0345H136.816V61.263H134.419V62.3752H136.595V63.5212H134.419V64.6407H136.826V65.8764H133.118H133.115Z" fill="#231F20"/>
<path d="M142.996 64.6891H140.737L140.318 65.8764H138.951L141.152 60.0345H142.659L144.835 65.8764H143.418L142.998 64.6891H142.996ZM141.166 63.5018H142.584L141.884 61.4835L141.166 63.5018Z" fill="#231F20"/>
<path d="M148.969 63.7005H148.508V65.8764H147.207V60.0345H149.521C149.807 60.0345 150.067 60.0806 150.299 60.1751C150.532 60.2696 150.733 60.398 150.896 60.5628C151.06 60.7275 151.189 60.9214 151.278 61.1443C151.368 61.3672 151.414 61.6071 151.414 61.8663C151.414 62.2613 151.312 62.6029 151.109 62.8913C150.905 63.1796 150.622 63.388 150.261 63.514L151.448 65.8788H150.013L148.966 63.703L148.969 63.7005ZM149.274 62.5811C149.543 62.5811 149.749 62.5157 149.887 62.3824C150.025 62.2492 150.098 62.0796 150.098 61.8712C150.098 61.6507 150.028 61.4787 149.887 61.3527C149.747 61.2267 149.543 61.1637 149.274 61.1637H148.508V62.5811H149.274Z" fill="#231F20"/>
<path d="M156.953 61.7985C156.941 61.7331 156.919 61.658 156.883 61.5731C156.847 61.4883 156.793 61.4084 156.718 61.3333C156.643 61.2582 156.546 61.1952 156.425 61.1443C156.304 61.0934 156.156 61.0667 155.979 61.0667C155.737 61.0667 155.543 61.1322 155.397 61.2606C155.252 61.389 155.179 61.5344 155.179 61.6919C155.179 61.8348 155.225 61.9536 155.315 62.0505C155.405 62.1474 155.553 62.2128 155.756 62.2516L156.539 62.3994C156.82 62.4478 157.065 62.5302 157.273 62.6417C157.482 62.7531 157.659 62.8864 157.801 63.0415C157.944 63.1941 158.051 63.3662 158.124 63.5552C158.194 63.7441 158.23 63.9428 158.23 64.1512C158.23 64.3814 158.184 64.6067 158.09 64.8272C157.995 65.0477 157.857 65.244 157.673 65.416C157.489 65.5881 157.263 65.7286 156.994 65.8352C156.725 65.9418 156.418 65.9951 156.071 65.9951C155.664 65.9951 155.315 65.937 155.024 65.8182C154.733 65.6995 154.491 65.5493 154.3 65.37C154.108 65.1883 153.963 64.9871 153.863 64.7691C153.764 64.551 153.703 64.3354 153.682 64.127L154.876 63.8386C154.889 63.9695 154.92 64.0979 154.971 64.2215C155.022 64.3451 155.099 64.4517 155.196 64.5437C155.293 64.6358 155.419 64.7061 155.567 64.7618C155.715 64.8175 155.889 64.8442 156.086 64.8442C156.345 64.8442 156.546 64.7885 156.692 64.6746C156.837 64.5631 156.91 64.4153 156.91 64.2336C156.91 64.0858 156.854 63.9598 156.74 63.858C156.629 63.7563 156.476 63.686 156.282 63.6472L155.482 63.4994C154.983 63.4074 154.593 63.2062 154.312 62.8985C154.031 62.5908 153.892 62.2201 153.892 61.7864C153.892 61.5126 153.948 61.2582 154.062 61.028C154.176 60.7978 154.326 60.5991 154.52 60.4343C154.712 60.2696 154.935 60.1412 155.187 60.0467C155.439 59.9546 155.705 59.9061 155.986 59.9061C156.35 59.9061 156.66 59.9546 156.917 60.0539C157.174 60.1533 157.387 60.2768 157.554 60.4295C157.722 60.5797 157.85 60.7469 157.937 60.9311C158.024 61.1152 158.085 61.2921 158.119 61.4617L156.948 61.7912L156.953 61.7985Z" fill="#231F20"/>
<path d="M9.07564 3.94702L7.48828 11.6861C9.28163 8.97716 11.3924 6.39182 13.7989 3.94702H9.07321H9.07564Z" fill="#231F20"/>
<path d="M11.3181 20.1327C9.45686 24.2808 8.51172 28.4847 8.51172 32.6232C8.51172 35.8046 9.0788 38.8406 10.196 41.6489C11.163 44.0767 12.5274 46.2938 14.265 48.2564H22.0006C20.9149 47.5634 19.914 46.759 19.0077 45.8504C14.6358 41.4817 12.5613 35.5235 13.172 29.0784C13.4725 25.897 14.4104 22.7132 15.9565 19.6117C17.5536 16.4061 19.7613 13.3895 22.5144 10.6345C25.139 8.01042 28.1125 5.87576 31.3478 4.29597C31.5902 4.17724 31.8301 4.06336 32.0724 3.9519H24.5961C22.8997 5.1949 21.2784 6.58328 19.7468 8.11461C16.0898 11.7709 13.252 15.8173 11.3181 20.1351V20.1327Z" fill="#231F20"/>
<path d="M21.2109 14.2448H24.9939C25.1927 14.0364 25.3938 13.828 25.6022 13.6196C29.6154 9.60956 34.6005 7.0218 39.7188 6.27552L40.1962 3.94702H36.0715C31.6414 5.34509 27.2817 7.9377 23.552 11.6667C22.7183 12.5002 21.938 13.3604 21.2109 14.2448Z" fill="#231F20"/>
<path d="M44.7771 32.7056C47.4041 30.0766 48.8509 27.0576 48.8509 24.1936C48.8509 21.9911 48.0172 19.9945 46.4396 18.4147C45.6859 17.6636 44.7965 17.0966 43.798 16.7211L43.2915 19.1974C43.7907 19.4712 44.2464 19.808 44.6462 20.2078C46.03 21.5913 46.6965 23.4909 46.5317 25.5602C46.3669 27.6149 45.3805 29.6453 43.7471 31.276C42.7559 32.267 41.5806 33.0521 40.3422 33.5875L39.8672 35.9039C41.6048 35.257 43.3012 34.1836 44.7771 32.708V32.7056Z" fill="#231F20"/>
<path d="M50.3197 24.1936C50.3197 27.4453 48.7202 30.8399 45.8169 33.7426C43.9921 35.5671 41.8134 36.8828 39.5281 37.5685L38.9707 40.2896C41.9128 39.5069 44.8161 37.7987 47.2734 35.337C53.6592 28.9548 54.6262 20.2926 49.52 15.1873C48.1895 13.8547 46.5343 12.9339 44.6706 12.4639L44.0914 15.2818C45.3783 15.7276 46.5318 16.4376 47.4746 17.3801C49.3358 19.2386 50.3173 21.5937 50.3173 24.1936H50.3197Z" fill="#231F20"/>
<path d="M45.0717 25.4414C45.2026 23.8083 44.684 22.3182 43.6104 21.2448C43.4165 21.051 43.2057 20.8765 42.9803 20.7214L40.7168 31.763C41.4341 31.3511 42.1103 30.8374 42.7113 30.2365C44.0975 28.8506 44.9336 27.1472 45.0693 25.4414H45.0717Z" fill="#231F20"/>
<path d="M2.55431 44.9975C2.09143 43.8417 1.70368 42.6593 1.39348 41.4502L0 48.2515H4.09804C3.51642 47.2024 3.00265 46.1169 2.55431 44.995V44.9975Z" fill="#231F20"/>
<path d="M7.04481 32.6232C7.04481 28.2763 8.03357 23.8689 9.97718 19.5293C11.9862 15.0492 14.9234 10.8598 18.7088 7.07267C19.8236 5.95567 20.9869 4.91378 22.1865 3.94458H15.888C15.6359 4.1893 15.3839 4.43403 15.1343 4.68359C11.6372 8.17998 8.77757 11.9768 6.60132 16.0087L2.1543 37.7163C2.46692 40.0521 3.05582 42.3055 3.91372 44.4498C4.4396 45.7679 5.06728 47.0351 5.78704 48.2491H12.3473C10.8835 46.4076 9.70575 44.3771 8.83089 42.1843C7.6434 39.2064 7.04238 35.9887 7.04238 32.6207L7.04481 32.6232Z" fill="#231F20"/>
<path d="M19.4004 30.394C19.4004 30.6048 19.4052 30.8132 19.4125 31.0215H22.7326C22.6793 30.5175 22.6502 30.0063 22.6502 29.4878C22.6502 26.4687 23.5663 23.3794 25.2482 20.5687H22.1098C20.3383 23.7307 19.4004 27.0817 19.4004 30.3916V30.394Z" fill="#231F20"/>
<path d="M34.2605 20.5687H31.5559C29.3506 22.9844 28.0977 25.9114 28.0977 28.6882C28.0977 29.5047 28.2019 30.2825 28.403 31.0191H31.0131C30.5671 30.1153 30.3321 29.1001 30.3321 28.0315C30.3321 25.6909 31.4081 23.3285 33.3614 21.3731C33.6498 21.0848 33.9503 20.8159 34.2629 20.5663L34.2605 20.5687Z" fill="#231F20"/>
<path d="M24.1172 29.4878C24.1172 30.0111 24.1487 30.52 24.2069 31.0215H26.8945C26.72 30.2728 26.6279 29.4926 26.6279 28.6906C26.6279 27.0333 26.9987 25.3614 27.7281 23.7186C28.2152 22.6137 28.855 21.5646 29.6305 20.5687H26.9817C25.135 23.3479 24.1172 26.4615 24.1172 29.4878Z" fill="#231F20"/>
<path d="M48.3121 36.3764C45.4791 39.2113 42.0814 41.1231 38.6474 41.8766L38.0488 44.806C42.4886 43.9313 46.8992 41.5641 50.3478 38.1161C54.2592 34.2078 56.7893 29.4612 57.4752 24.7557C57.5988 23.9028 57.6593 23.0645 57.6593 22.2431C57.6593 22.0492 57.6569 21.8554 57.6496 21.6616C57.5115 17.8381 56.0114 14.412 53.2293 11.6279C51.1524 9.55143 48.523 8.27936 45.6342 7.77295L44.9702 11.0198C47.1125 11.5504 49.0198 12.6044 50.5635 14.1454C56.2586 19.8419 55.2916 29.3982 48.3145 36.3716L48.3121 36.3764Z" fill="#231F20"/>
<path d="M54.2634 10.5933C56.241 12.5704 57.6369 14.8602 58.4124 17.3995C58.4342 17.4722 58.456 17.5473 58.4778 17.62L59.1685 14.2423H61.1266C60.2009 11.892 58.7953 9.76704 56.9462 7.91345C55.1528 6.12043 53.0323 4.80232 50.7058 3.94458H46.4212L45.9316 6.33365C46.6272 6.45723 47.3057 6.61957 47.9746 6.82552C50.4053 7.5815 52.5234 8.8463 54.2683 10.5909L54.2634 10.5933Z" fill="#231F20"/>
<path d="M62.693 14.2448H67.6853C66.7377 10.3825 64.8619 6.87642 62.1404 3.94702H54.1406C55.5486 4.75146 56.8331 5.73035 57.9842 6.87885C60.1193 9.01593 61.7018 11.4898 62.6954 14.2448H62.693Z" fill="#231F20"/>
<path d="M38.7755 10.8864L39.4031 7.81409C35.1161 8.55795 30.7345 10.7314 27.0605 14.2447H31.0617C33.4342 12.5317 36.0733 11.3759 38.7731 10.8889L38.7755 10.8864Z" fill="#231F20"/>
<path d="M38.4561 12.4469C36.8542 12.8007 35.2789 13.4088 33.7812 14.2448H38.0901L38.4561 12.4469Z" fill="#231F20"/>
<path d="M14.6306 29.214C14.0635 35.2134 15.9877 40.7548 20.0445 44.8133C21.4889 46.255 23.1902 47.4107 25.1071 48.2539H31.093L31.4711 46.4367C28.0225 45.906 24.9859 44.3941 22.577 41.9832C21.3362 40.7451 20.3281 39.3106 19.572 37.7405H16.087L17.4321 31.0192H17.9482C17.941 30.8108 17.9361 30.6024 17.9361 30.3916C17.9361 27.0794 18.8037 23.738 20.4492 20.5688H19.5889L20.7594 14.8069C17.2454 19.2652 15.1007 24.2663 14.633 29.2116L14.6306 29.214Z" fill="#231F20"/>
<path d="M33.2786 37.7502L33.2835 37.7405H27.5859C29.0642 39.107 30.8018 40.0302 32.7139 40.4712L33.281 37.7502H33.2786Z" fill="#231F20"/>
<path d="M32.4102 41.9105C30.0692 41.3798 27.9608 40.2071 26.2038 38.4553C25.9735 38.2251 25.7579 37.9876 25.5494 37.7429H21.2188C21.8585 38.9181 22.6607 39.9963 23.6131 40.9485C25.8136 43.1486 28.5981 44.5225 31.768 44.9974L32.4102 41.9129V41.9105Z" fill="#231F20"/>
<path d="M52.1953 48.254L53.201 43.3619C51.032 45.3246 48.5892 46.9722 45.9961 48.254H52.1953Z" fill="#231F20"/>
<path d="M62.4188 22.2455H59.1229C59.1229 23.1396 59.0599 24.0482 58.9241 24.9689C58.5437 27.5809 57.6324 30.2002 56.2656 32.6959H59.5542C60.9865 29.8658 61.9123 26.9243 62.2709 23.9973C62.3436 23.4085 62.3897 22.827 62.4163 22.2455H62.4188Z" fill="#231F20"/>
<path d="M71.0146 3.94702H64.0957C66.5967 6.94184 68.3173 10.4382 69.1946 14.2448H74.5432C74.216 11.9574 73.6295 9.7501 72.8007 7.65178C72.2918 6.36517 71.6956 5.13187 71.0122 3.94944L71.0146 3.94702Z" fill="#231F20"/>
<path d="M72.6953 3.94702C73.243 4.9671 73.735 6.02111 74.1639 7.10903C74.685 8.42472 75.1139 9.77917 75.4435 11.1676L76.9218 3.94702H72.6953Z" fill="#231F20"/>
<path d="M68.3391 22.2455H63.8848C63.8606 22.8852 63.8072 23.5272 63.7297 24.1742C63.3783 27.043 62.5131 29.9191 61.1875 32.6959H65.7145C67.0571 29.609 67.9198 26.43 68.2543 23.2535C68.293 22.9167 68.3197 22.5823 68.3415 22.2455H68.3391Z" fill="#231F20"/>
<path d="M69.7112 23.4085C69.3816 26.5318 68.5649 29.6574 67.3047 32.6983H70.6878L72.7938 22.2455H69.8081C69.7839 22.6332 69.7499 23.0208 69.7087 23.4085H69.7112Z" fill="#231F20"/>
<path d="M37.7276 46.3543L37.3398 48.2539H42.2691C46.3187 46.7928 50.1405 44.4013 53.2619 41.2781C53.4194 41.123 53.5721 40.9655 53.7223 40.808L54.9462 34.8523C53.9235 36.3618 52.7336 37.8084 51.3837 39.158C47.5789 42.9645 42.6569 45.5232 37.7276 46.3567V46.3543Z" fill="#231F20"/>
<path d="M34.3953 22.4127C32.7183 24.0894 31.7949 26.0835 31.7949 28.0316C31.7949 29.1583 32.11 30.176 32.7134 31.0167H34.2838L36.3171 20.9298C35.6337 21.3248 34.9818 21.8215 34.3953 22.4127Z" fill="#231F20"/>
<path d="M90.0255 3.74597L79.9004 49.2959" stroke="#231F20" stroke-miterlimit="10"/>
<path d="M157.602 40.355C159.591 39.175 161.445 37.7333 163.096 36.0832C164.579 33.4228 165.604 30.5273 166.03 27.5252C166.302 25.611 166.314 23.755 166.088 21.9886C166.084 22.9578 166.013 23.944 165.873 24.9471C165.042 30.8084 161.942 36.2601 157.602 40.3574V40.355Z" fill="#231F20"/>
<path d="M157.497 2.20009C156.397 2.00141 155.258 1.89722 154.085 1.89722C153.685 1.89722 153.283 1.90933 152.878 1.93356C148.756 2.17344 144.74 3.61512 141.207 5.90001C143.255 5.1828 145.38 4.73697 147.532 4.61097C153.176 4.28145 158.193 6.17623 161.656 9.93914C163.68 12.1368 165.032 14.8166 165.672 17.7921C166.782 20.7481 167.123 24.0894 166.622 27.6101C166.282 29.9943 165.572 32.3107 164.564 34.5011C167.717 30.8254 169.92 26.3452 170.594 21.5913C170.94 19.1538 170.865 16.8083 170.395 14.6276C167.71 9.11048 163.13 4.68609 157.497 2.20251V2.20009Z" fill="#231F20"/>
<path d="M141.806 50.1245C149.801 49.6617 157.413 44.7649 161.959 37.9466C160.018 39.6209 157.861 41.0286 155.571 42.0996C151.495 45.2882 146.597 47.3429 141.544 47.6361C141.127 47.6604 140.71 47.6725 140.301 47.6725C135.165 47.6725 130.629 45.7922 127.42 42.308C125.658 40.3938 124.403 38.1113 123.686 35.589C123.819 36.6503 124.039 37.6776 124.345 38.6638C127.081 43.5413 131.344 47.4447 136.486 49.7296C138.168 50.093 139.952 50.2336 141.808 50.127L141.806 50.1245Z" fill="#231F20"/>
<path d="M149.205 7.45555C148.798 7.45555 148.388 7.46766 147.974 7.49189C142.655 7.79961 137.507 10.0748 133.317 13.5663C131.143 16.7308 129.641 20.3338 129.105 24.1088C128.303 29.752 129.747 34.9081 133.172 38.6274C136.511 42.257 141.358 44.0816 146.823 43.7641C149.736 43.5945 152.595 42.824 155.271 41.5835C160.513 37.4619 164.352 31.4214 165.285 24.8575C165.626 22.4418 165.556 20.1157 165.096 17.952C164.364 16.016 163.293 14.2496 161.889 12.7256C158.739 9.30187 154.27 7.45312 149.21 7.45312L149.205 7.45555ZM147.019 39.1314C139.763 39.1314 133.86 33.229 133.86 25.9745C133.86 18.7201 139.763 12.8176 147.019 12.8176C154.275 12.8176 160.178 18.7201 160.178 25.9745C160.178 33.229 154.275 39.1314 147.019 39.1314Z" fill="#231F20"/>
<path d="M123.009 31.4117C122.941 30.0791 123.002 28.7028 123.203 27.2975C124.451 18.4971 130.81 10.6151 138.815 6.8716C142.891 3.68536 147.789 1.62824 152.842 1.33505C153.671 1.28659 154.483 1.29144 155.28 1.3399C152.684 0.470043 149.907 -0.00244141 147.021 -0.00244141C132.672 -0.00244141 121.039 11.6279 121.039 25.9745C121.039 29.6526 121.805 33.1538 123.186 36.3255C122.934 34.753 122.876 33.1054 123.012 31.4117H123.009Z" fill="#231F20"/>
<path d="M171.319 16.7671C171.462 18.3469 171.423 19.9872 171.185 21.6736C170.395 27.232 167.567 32.4269 163.573 36.4418C159.129 44.3529 150.719 50.2044 141.842 50.7181C141.416 50.7423 140.994 50.7544 140.575 50.7544C140.047 50.7544 139.528 50.7302 139.012 50.6914C141.535 51.508 144.225 51.9514 147.019 51.9514C161.368 51.9514 173.001 40.321 173.001 25.9745C173.001 22.7301 172.404 19.6286 171.319 16.7646V16.7671Z" fill="#231F20"/>
<path d="M141.51 47.04C145.633 46.8001 149.648 45.3584 153.182 43.076C151.134 43.7932 149.008 44.239 146.854 44.365C146.437 44.3892 146.02 44.4013 145.611 44.4013C140.476 44.4013 135.939 42.5211 132.73 39.0368C129.185 35.1843 127.687 29.8537 128.513 24.0288C128.964 20.8595 130.081 17.8114 131.693 15.0298C127.527 19.0762 124.558 24.3898 123.749 30.0936C123.686 30.5418 123.64 30.9852 123.604 31.4262C123.817 35.4653 125.271 39.095 127.857 41.9032C131.196 45.5329 136.045 47.3574 141.508 47.04H141.51Z" fill="#231F20"/>
<path d="M148.773 5.16821C148.373 5.16821 147.971 5.18033 147.564 5.20456C144.651 5.37417 141.791 6.14468 139.116 7.38525C137.468 8.68156 135.96 10.1693 134.635 11.8024C138.58 8.97716 143.192 7.17203 147.937 6.89823C153.683 6.56386 158.794 8.49256 162.323 12.3257C162.89 12.9436 163.401 13.6002 163.864 14.2884C163.185 12.8491 162.301 11.5237 161.215 10.3437C158.123 6.98546 153.739 5.17064 148.773 5.17064V5.16821Z" fill="#231F20"/>
<path d="M123.945 26.4688C125.494 21.3176 128.717 16.6557 132.873 13.169C134.012 11.5238 135.326 9.99247 136.785 8.61621C130.317 12.4494 125.305 19.0787 123.945 26.4688Z" fill="#231F20"/>
<path d="M98.4018 26.3331C100.127 22.7641 105.006 19.1344 111.137 19.1344C118.873 19.1344 124.049 24.0725 124.049 31.3899C124.049 41.2661 116.134 47.4544 107.924 47.4544C99.7129 47.4544 94.1172 41.8015 94.1172 32.3422C94.1172 19.0157 102.866 4.08276 118.039 4.08276C122.324 4.08276 126.012 5.2143 128.215 6.93948L126.669 9.85434C124.764 8.54592 121.849 7.35623 117.802 7.35623C107.327 7.35623 100.307 16.1614 98.4018 26.3356V26.3331ZM98.1038 34.4235C98.1038 40.1951 102.507 44.2391 108.219 44.2391C114.29 44.2391 120.239 39.4803 120.239 31.8648C120.239 26.212 116.192 22.3449 110.301 22.3449C103.816 22.3449 98.1013 27.6997 98.1013 34.4235H98.1038Z" fill="#231F20"/>
</g>
<defs>
<clipPath id="clip0_124_2529">
<rect width="173" height="66" fill="white"/>
</clipPath>
</defs>
</svg>
