<svg width="322" height="35" viewBox="0 0 322 35" fill="none" xmlns="http://www.w3.org/2000/svg">
<g clip-path="url(#clip0_1043_5178)">
<path d="M24.7255 2.23776e-05C24.5387 0.0874023 24.3519 0.174782 24.1651 0.268188C21.6702 1.50055 19.3773 3.16076 17.3555 5.20666C15.2312 7.35199 13.5318 9.7022 12.2995 12.1971C11.1063 14.6136 10.3862 17.0903 10.1511 19.5701C9.68109 24.5869 11.281 29.2271 14.6497 32.6289C15.3487 33.337 16.1231 33.9637 16.9577 34.503H10.9948C9.65699 32.9754 8.60542 31.2489 7.85817 29.3567C6.99642 27.1722 6.55952 24.8069 6.55952 22.3301C6.55952 19.1061 7.28869 15.8339 8.72293 12.6038C10.2144 9.2412 12.4019 6.09251 15.2192 3.24212C16.4003 2.04893 17.6477 0.967228 18.9554 2.23776e-05H24.7195H24.7255ZM1.07266 29.206C1.31371 30.1461 1.61201 31.0651 1.96755 31.966C2.31406 32.8398 2.70878 33.6865 3.15773 34.503H0L1.07266 29.206ZM17.1084 2.23776e-05C16.1804 0.753297 15.2855 1.56683 14.4267 2.43461C11.507 5.38142 9.24419 8.64461 7.69546 12.1338C6.19494 15.5115 5.43563 18.9464 5.43563 22.3301C5.43563 24.9545 5.89965 27.4614 6.81563 29.7785C7.48756 31.4869 8.39751 33.0688 9.52441 34.503H4.4624C3.90799 33.5569 3.4259 32.5716 3.01913 31.5442C2.35926 29.8749 1.90428 28.1213 1.66323 26.3014L5.08913 9.39487C6.76441 6.25522 8.97 3.29937 11.6667 0.575525C11.8596 0.382686 12.0524 0.189848 12.2483 2.23776e-05H17.1054H17.1084ZM16.0056 8.4578L15.1017 12.9443H15.7645C14.496 15.412 13.8271 18.0153 13.8271 20.5915C13.8271 20.7573 13.8301 20.92 13.8362 21.0797H13.4384L12.4019 26.3164H15.0896C15.6711 27.5398 16.4485 28.6546 17.4067 29.6188C19.2658 31.496 21.6039 32.6711 24.2645 33.0869L23.9722 34.5H19.3592C17.8797 33.8432 16.569 32.9422 15.4572 31.8214C12.3296 28.6606 10.8472 24.3459 11.2841 19.6726C11.6456 15.8218 13.2998 11.9289 16.0086 8.45478L16.0056 8.4578ZM41.0143 30.6915L40.24 34.5H35.4612C37.4589 33.5027 39.3421 32.2191 41.0143 30.6915ZM42.3612 24.0657L41.4181 28.7028C41.3006 28.8264 41.1831 28.9499 41.0625 29.0704C38.6551 31.502 35.7113 33.3671 32.5867 34.503H28.7872L29.0855 33.0236C32.885 32.3758 36.6785 30.3841 39.6132 27.4192C40.6528 26.3677 41.5718 25.2438 42.3582 24.0657H42.3612ZM19.6966 26.3164C19.8563 26.5063 20.0251 26.6901 20.2028 26.8709C21.5557 28.2358 23.1828 29.1488 24.9876 29.5646L24.4905 31.966C22.0469 31.5984 19.9015 30.5288 18.2021 28.8143C17.47 28.0731 16.8523 27.2324 16.3581 26.3195H19.6966V26.3164ZM35.178 2.98299C37.4016 3.37771 39.4294 4.366 41.0324 5.98404C43.1777 8.15046 44.3318 10.8171 44.4402 13.797C44.4463 13.9477 44.4463 14.0983 44.4463 14.249C44.4463 14.8878 44.4011 15.5416 44.3046 16.2045C43.7743 19.8714 41.8249 23.5655 38.8118 26.6087C36.1512 29.2934 32.7524 31.1374 29.3325 31.8184L29.7935 29.5344C32.4421 28.9469 35.0604 27.4584 37.2449 25.2498C42.6233 19.8202 43.3676 12.3778 38.9805 7.94255C37.7903 6.74334 36.3199 5.92076 34.6687 5.50797L35.181 2.97998L35.178 2.98299ZM25.6566 26.3134V26.3225L25.2166 28.4407C23.7432 28.0942 22.4024 27.3771 21.2635 26.3134H25.6566ZM34.4367 6.63186C35.874 6.99945 37.1485 7.71657 38.173 8.75308C42.1111 12.7304 41.3638 19.4737 36.4435 24.4453C34.5482 26.3616 32.3095 27.6934 30.0406 28.3021L30.4715 26.1839C32.2311 25.6505 33.9094 24.6261 35.3166 23.2039C37.5553 20.9411 38.7876 18.3016 38.7876 15.7676C38.7876 13.7428 38.0314 11.9108 36.5971 10.4615C35.871 9.72631 34.9821 9.1719 33.9878 8.82539L34.4337 6.63186H34.4367ZM33.7648 9.94928C34.5362 10.2416 35.2201 10.6815 35.8017 11.269C37.019 12.4984 37.6607 14.0531 37.6607 15.7676C37.6607 17.9973 36.5459 20.3475 34.5211 22.3934C33.3821 23.5444 32.0745 24.376 30.7366 24.8822L31.1042 23.0774C32.0594 22.6615 32.9663 22.0499 33.7287 21.2785C34.9851 20.007 35.7474 18.4251 35.874 16.8252C36.0005 15.2162 35.4853 13.7337 34.4187 12.6581C34.1113 12.3477 33.7588 12.0856 33.3761 11.8716L33.7648 9.94325V9.94928ZM48.1162 14.249C48.0951 14.7009 48.059 15.1559 48.0047 15.6139C47.7275 17.8948 47.0134 20.1848 45.9106 22.3874H43.3736C44.4282 20.4439 45.1302 18.404 45.4225 16.3702C45.5249 15.6531 45.5762 14.948 45.5762 14.249H48.1162ZM52.6811 14.249C52.663 14.5111 52.6419 14.7733 52.6148 15.0354C52.3556 17.5091 51.6928 19.9859 50.6562 22.3874H47.1671C48.1885 20.224 48.8574 17.9852 49.1256 15.7525C49.1859 15.2493 49.225 14.7491 49.2461 14.249H52.6811ZM56.116 14.249L54.4919 22.3874H51.8856C52.8588 20.0191 53.4886 17.5845 53.7387 15.1529C53.7688 14.8516 53.7959 14.5503 53.814 14.246H56.116V14.249ZM33.1351 13.0648C33.3068 13.1853 33.4695 13.3209 33.6202 13.4716C34.4458 14.3062 34.8465 15.4663 34.7471 16.7378C34.6416 18.0666 33.9968 19.3923 32.9302 20.471C32.4662 20.9411 31.9449 21.3388 31.3905 21.6612L33.1351 13.0648ZM19.4646 12.9443C18.169 15.1318 17.4609 17.5363 17.4609 19.8895C17.4609 20.2933 17.482 20.691 17.5242 21.0827H14.9661C14.96 20.92 14.957 20.7573 14.957 20.5946C14.957 18.0184 15.6802 15.409 17.0451 12.9473H19.4646V12.9443ZM26.4098 12.9443C26.1688 13.1371 25.9368 13.3481 25.7168 13.571C24.2103 15.0926 23.3817 16.9336 23.3817 18.7536C23.3817 19.5852 23.5655 20.3776 23.9059 21.0797H21.8932C21.7395 20.5072 21.6582 19.9015 21.6582 19.2658C21.6582 17.1024 22.6254 14.8245 24.3248 12.9413H26.4098V12.9443ZM22.8423 12.9443C22.2457 13.7187 21.7516 14.5382 21.3749 15.397C20.8115 16.6775 20.5252 17.9762 20.5252 19.2688C20.5252 19.8925 20.5945 20.5012 20.7301 21.0827H18.6601C18.6149 20.694 18.5878 20.2963 18.5878 19.8895C18.5878 17.5333 19.3742 15.1107 20.7964 12.9473H22.8393L22.8423 12.9443ZM27.9977 13.2275L26.4309 21.0827H25.2197C24.7556 20.4258 24.5116 19.6334 24.5116 18.7566C24.5116 17.241 25.2227 15.6862 26.5153 14.3815C26.9703 13.9205 27.4704 13.5349 27.9977 13.2275ZM39.0859 2.23776e-05C40.8787 0.665918 42.5149 1.69338 43.8979 3.09146C45.3261 4.53474 46.4078 6.18893 47.1219 8.0209H45.6123L45.079 10.6513L45.0278 10.4796C44.4312 8.50299 43.3555 6.71924 41.8309 5.17954C40.487 3.82063 38.8509 2.83535 36.9798 2.2478C36.4646 2.09111 35.9403 1.96155 35.4069 1.86513L35.7806 0.00303548H39.0859V2.23776e-05ZM30.9867 2.23776e-05L30.6161 1.81391C26.672 2.39544 22.8273 4.4112 19.7328 7.53277C19.5761 7.69548 19.4164 7.85819 19.2628 8.0209H16.3461C16.9065 7.3309 17.5061 6.665 18.1509 6.01417C21.0314 3.10653 24.3911 1.08775 27.8079 2.23776e-05H30.9867ZM47.9023 2.23776e-05C50.0024 2.28094 51.4457 5.01081 52.1779 8.01788H48.3301C47.5648 5.87256 46.3445 3.94718 44.6963 2.28094C43.8105 1.38605 42.8192 0.623734 41.7345 -0.00299072H47.9023V2.23776e-05ZM30.3751 3.01312L29.89 5.40552C27.8079 5.78518 25.7741 6.68609 23.9451 8.0209H20.8597C23.692 5.285 27.0697 3.59465 30.3751 3.01312ZM29.6459 6.6198L29.3627 8.0209H26.0422C27.1962 7.36705 28.4105 6.894 29.6459 6.6198ZM54.742 2.23776e-05C55.2693 0.919018 55.7273 1.88321 56.122 2.88356C56.7608 4.51666 57.2128 6.23714 57.4659 8.01788H53.3409C52.666 5.05299 51.3372 2.33216 49.4118 2.23776e-05H54.745H54.742ZM10.6393 2.23776e-05C8.7862 1.9043 7.15913 3.91705 5.77611 6.02622L6.99642 2.23776e-05H10.6362H10.6393ZM59.3008 2.23776e-05L58.1619 5.62247C57.9058 4.54076 57.5773 3.48618 57.1736 2.46173C56.8421 1.61504 56.4655 0.795481 56.0407 2.23776e-05H59.3008Z" fill="#2C2C2E"/>
<path d="M76.4033 28.299V6.23108H90.3781V10.8682H81.3207V15.0715H89.5374V19.3983H81.3207V23.6317H90.4082V28.302H76.4033V28.299Z" fill="#231F20"/>
<path d="M112.603 6.23108H117.83L109.77 28.299H104.696L96.603 6.23108H102.018L107.339 21.7636L112.6 6.23108H112.603Z" fill="#231F20"/>
<path d="M124.959 28.299V6.23108H138.934V10.8682H129.877V15.0715H138.094V19.3983H129.877V23.6317H138.964V28.302H124.959V28.299Z" fill="#231F20"/>
<path d="M154.06 20.0823H152.318V28.299H147.401V6.23108H156.148C157.227 6.23108 158.206 6.40885 159.089 6.76138C159.972 7.11392 160.722 7.60204 161.345 8.22274C161.969 8.84344 162.451 9.57562 162.792 10.4163C163.132 11.2569 163.304 12.1639 163.304 13.1401C163.304 14.6346 162.921 15.9272 162.153 17.015C161.385 18.1057 160.318 18.8891 158.947 19.3652L163.431 28.299H158.016L154.063 20.0823H154.06ZM155.211 15.8489C156.226 15.8489 157.001 15.5988 157.531 15.1016C158.061 14.6045 158.323 13.9597 158.323 13.1733C158.323 12.3447 158.058 11.6908 157.531 11.2117C157.001 10.7357 156.229 10.4946 155.211 10.4946H152.315V15.8489H155.211Z" fill="#231F20"/>
<path d="M168.378 6.23108H174.136L178.65 14.4177L183.227 6.23108H188.705L180.955 19.085V28.299H176.038V19.085L168.381 6.23108H168.378Z" fill="#231F20"/>
<path d="M220.481 6.23108H225.522L219.514 28.299H214.44L209.739 13.6704L205.009 28.299H199.841L193.833 6.23108H199.061L202.704 20.3625L207.28 6.23108H212.321L216.898 20.3926L220.478 6.23108H220.481Z" fill="#231F20"/>
<path d="M246.626 28.299V19.5219H237.818V28.299H232.901V6.23108H237.818V14.8847H246.626V6.23108H251.573V28.299H246.626Z" fill="#231F20"/>
<path d="M260.914 28.299V6.23108H274.888V10.8682H265.831V15.0715H274.048V19.3983H265.831V23.6317H274.918V28.302H260.914V28.299Z" fill="#231F20"/>
<path d="M290.014 20.0823H288.269V28.299H283.352V6.23108H292.099C293.178 6.23108 294.157 6.40885 295.04 6.76138C295.923 7.11392 296.673 7.60204 297.297 8.22274C297.92 8.84645 298.402 9.57562 298.743 10.4163C299.086 11.2569 299.258 12.1639 299.258 13.1401C299.258 14.6346 298.873 15.9272 298.107 17.015C297.339 18.1057 296.272 18.8891 294.901 19.3652L299.385 28.299H293.97L290.017 20.0823H290.014ZM291.165 15.8489C292.18 15.8489 292.955 15.5988 293.485 15.1016C294.015 14.6045 294.278 13.9597 294.278 13.1733C294.278 12.3447 294.012 11.6908 293.485 11.2117C292.955 10.7357 292.183 10.4946 291.165 10.4946H288.269V15.8489H291.165Z" fill="#231F20"/>
<path d="M307.445 28.299V6.23108H321.42V10.8682H312.362V15.0715H320.579V19.3983H312.362V23.6317H321.45V28.302H307.442L307.445 28.299Z" fill="#231F20"/>
</g>
<defs>
<clipPath id="clip0_1043_5178">
<rect width="321.45" height="34.5" fill="white"/>
</clipPath>
</defs>
</svg>
