<svg width="55" height="32" viewBox="0 0 55 32" fill="none" xmlns="http://www.w3.org/2000/svg">
<path fill-rule="evenodd" clip-rule="evenodd" d="M6.08645 20.7102C6.08645 17.7216 6.76208 14.6855 8.09241 11.6896C9.47528 8.56942 11.5038 5.64845 14.1193 3.00689C15.2136 1.90079 16.373 0.897839 17.5858 0H22.9317C22.758 0.0804022 22.5861 0.162587 22.4134 0.248508C20.0992 1.3901 17.9738 2.93201 16.0973 4.82736C14.1283 6.81755 12.5501 8.99698 11.4079 11.3115C10.3018 13.5511 9.63181 15.851 9.41644 18.1491C8.98048 22.8028 10.4637 27.1058 13.5893 30.2618C14.2387 30.9183 14.9541 31.4992 15.7301 32H10.1997C8.95887 30.5821 7.98212 28.9819 7.2911 27.2282C6.49165 25.2005 6.08645 23.0084 6.08645 20.7102ZM6.48989 3.39608e-05L5.35577 5.58998C6.6381 3.63359 8.14664 1.76659 9.86855 3.39608e-05H6.48989ZM24.5938 13.3374C23.3947 14.5485 22.7344 15.9889 22.7344 17.3964C22.7344 18.2095 22.9605 18.9446 23.3911 19.553H24.5143L25.9685 12.267C25.4802 12.5518 25.0144 12.9117 24.5938 13.3374ZM15.1655 7.43683H17.8697C18.0117 7.28698 18.1565 7.13534 18.3049 6.98558C21.1735 4.09016 24.7386 2.21969 28.398 1.68166L28.7393 8.4902e-06H25.7903C22.6224 1.00924 19.5059 2.8826 16.8397 5.57544C16.2428 6.17816 15.6856 6.7993 15.1655 7.43683ZM34.93 14.6233C34.93 16.6914 33.8955 18.8735 32.0168 20.7714C30.962 21.8374 29.7489 22.6119 28.507 23.0796L28.8463 21.4071C29.7325 21.0216 30.5731 20.4536 31.2813 19.7384C32.4478 18.5602 33.1541 17.0932 33.2715 15.61C33.3894 14.1155 32.9119 12.7437 31.9229 11.7444C31.6374 11.4558 31.3115 11.2127 30.9544 11.0155L31.3164 9.22704C32.031 9.49754 32.6673 9.90762 33.2055 10.4501C34.3335 11.591 34.93 13.0323 34.93 14.6233ZM35.9791 14.6233C35.9791 16.9727 34.8361 19.4233 32.7588 21.5203C31.4535 22.8385 29.8965 23.7883 28.2632 24.2835L27.8644 26.2491C29.9678 25.6845 32.0432 24.4496 33.8016 22.6721C38.3669 18.0623 39.0582 11.8065 35.4076 8.11822C34.4566 7.15552 33.2726 6.49048 31.9405 6.15087L31.5271 8.1858C32.4477 8.50724 33.2715 9.02073 33.9464 9.70207C35.2769 11.0448 35.9791 12.7455 35.9791 14.6233ZM31.1816 12.4943C31.9486 13.2697 32.3193 14.3458 32.2259 15.5249C32.1284 16.758 31.53 17.9883 30.5393 18.9886C30.1097 19.4233 29.6262 19.7933 29.1131 20.0909L30.7313 12.117C30.8918 12.2285 31.0425 12.3545 31.1816 12.4943ZM1.8269 29.6487C1.49585 28.8138 1.21911 27.9606 0.996591 27.0875L0 31.9999H2.93026C2.51506 31.2424 2.14694 30.458 1.8269 29.6487ZM7.13468 11.2549C5.74383 14.3887 5.03735 17.5719 5.03735 20.7112C5.03735 23.1435 5.46793 25.469 6.31614 27.619C6.94108 29.2031 7.78316 30.67 8.83044 32H4.14037C3.6248 31.1228 3.17707 30.2078 2.8008 29.2558C2.18678 27.7068 1.76722 26.0801 1.54285 24.3929L4.72177 8.71373C6.27646 5.80185 8.32219 3.05807 10.8219 0.533423C11.0009 0.353515 11.18 0.176325 11.361 6.79216e-05H15.8647C15.0057 0.699661 14.1753 1.45223 13.3777 2.2588C10.6718 4.99256 8.57085 8.01864 7.13468 11.2549ZM13.8714 19.1009C13.8714 19.2524 13.8751 19.4032 13.8804 19.5538H16.2545C16.2157 19.1904 16.1958 18.8214 16.1958 18.4469C16.1958 16.2657 16.8515 14.0351 18.0533 12.0056H15.8086C14.5425 14.289 13.8714 16.7096 13.8714 19.1009ZM22.5608 12.0056H24.4953C24.2718 12.1856 24.0576 12.3801 23.8513 12.5882C22.4551 13.9995 21.6862 15.7068 21.6862 17.3964C21.6862 18.1674 21.8554 18.9017 22.1737 19.5538H20.3072C20.1624 19.0224 20.0882 18.4606 20.0882 17.8705C20.0882 15.8637 20.9846 13.7502 22.5608 12.0056ZM17.2439 18.4469C17.2439 18.824 17.2666 19.1932 17.3082 19.5538H19.229C19.1041 19.0132 19.0391 18.4487 19.0391 17.8705C19.0391 16.674 19.3042 15.4657 19.8259 14.2799C20.175 13.4825 20.6317 12.7236 21.1862 12.0056H19.2915C17.9711 14.0132 17.2439 16.2612 17.2439 18.4469ZM27.6326 27.3953C30.0875 26.85 32.5167 25.4689 34.543 23.4222C39.5317 18.3848 40.2228 11.4832 36.1515 7.36928C35.048 6.25672 33.6842 5.49498 32.1519 5.11139L32.627 2.76665C34.6913 3.13292 36.5718 4.05096 38.0569 5.55067C40.0471 7.56115 41.119 10.0344 41.2176 12.7968C41.2222 12.9354 41.2246 13.0762 41.2246 13.2159C41.2241 13.8088 41.1814 14.4143 41.0927 15.0298C40.6022 18.4296 38.7937 21.8566 35.9973 24.6799C33.5313 27.1706 30.3781 28.8806 27.204 29.5116L27.6326 27.3953ZM38.7984 4.80081C40.2117 6.2292 41.2099 7.88267 41.764 9.71672C41.7798 9.76962 41.7955 9.82268 41.8108 9.87558L42.3052 7.43685H43.7046C43.0426 5.73983 42.0386 4.20531 40.715 2.86623C39.4323 1.57105 37.9162 0.619301 36.2524 2.54706e-05H33.1886L32.8384 1.72634C33.3352 1.81481 33.8215 1.93358 34.2989 2.08165C36.0363 2.62689 37.5513 3.54129 38.7984 4.80081ZM48.3944 7.43683H44.8249C44.1151 5.44749 42.983 3.6609 41.4565 2.1173C40.6349 1.28789 39.7161 0.580908 38.709 8.4902e-06H44.4297C46.3762 2.11543 47.7164 4.64738 48.3944 7.43683ZM27.7239 5.01256L28.1734 2.79314C25.1076 3.33015 21.9748 4.90032 19.3484 7.43686H22.21C23.9057 6.19924 25.794 5.36525 27.7239 5.01256ZM24.1535 7.43685C25.2234 6.83218 26.3511 6.39383 27.4959 6.1381L27.2338 7.43685H24.1535ZM10.4602 18.2486C10.055 22.5818 11.4297 26.5835 14.3308 29.5144C15.3637 30.5565 16.5793 31.3905 17.9503 32H22.2308L22.5013 30.688C20.0358 30.3043 17.8652 29.2122 16.1416 27.4721C15.2552 26.578 14.5335 25.5422 13.9927 24.4077H11.5011L12.4624 19.5529H12.8315C12.8261 19.4023 12.8223 19.2524 12.8223 19.0999C12.8223 16.7079 13.4428 14.2946 14.6186 12.0056H14.0035L14.841 7.84426C12.3287 11.0649 10.7948 14.6765 10.4602 18.2486ZM23.7962 24.4077L23.7934 24.415L23.3883 26.3805C22.0209 26.0611 20.7782 25.3942 19.722 24.4077H23.769H23.7962ZM23.1741 27.4182C21.5009 27.0346 19.9923 26.1888 18.7371 24.9219C18.5725 24.7556 18.4178 24.5849 18.2686 24.4077H15.172C15.6295 25.2571 16.203 26.0354 16.8832 26.7232C18.4568 28.3124 20.4481 29.3054 22.7146 29.6467L23.1741 27.4182ZM38.0389 28.4668L37.3207 32H32.888C34.741 31.0745 36.4877 29.8844 38.0389 28.4668ZM44.6282 13.2159H42.272C42.272 13.8616 42.2271 14.5185 42.1307 15.1833C41.8586 17.0704 41.2078 18.9621 40.2299 20.7642H42.5814C43.6054 18.7209 44.2679 16.5964 44.5237 14.4809C44.5756 14.0561 44.6089 13.6351 44.6282 13.2159ZM45.8279 3.39608e-05H50.7743C51.263 0.854148 51.6899 1.74562 52.0536 2.67453C52.6467 4.19063 53.0647 5.78543 53.2994 7.43686H49.4744C48.8468 4.68747 47.6162 2.16291 45.8279 3.39608e-05ZM51.9778 3.39608e-05C52.37 0.736135 52.7209 1.49796 53.0284 2.28449C53.4011 3.23514 53.7069 4.21253 53.9434 5.21548L55 3.39608e-05H51.9778ZM45.6772 13.2159H48.8624C48.8468 13.4597 48.8264 13.7009 48.7995 13.9447C48.5606 16.2383 47.9441 18.5354 46.9839 20.7642H43.7478C44.6958 18.7582 45.3141 16.6803 45.5658 14.6087C45.6219 14.1412 45.6592 13.678 45.6772 13.2159ZM49.8433 14.0553C49.6079 16.3114 49.0237 18.5694 48.1228 20.765H50.5415L52.0478 13.2159H49.9138C49.8959 13.4954 49.8719 13.7757 49.8433 14.0553ZM26.6985 32L26.976 30.6278C30.4996 30.0269 34.0186 28.1781 36.7398 25.4289C37.7049 24.4543 38.5568 23.4102 39.2876 22.3196L38.413 26.6217C38.3946 26.6408 38.3763 26.66 38.3578 26.6793C38.2674 26.7737 38.1763 26.8688 38.0831 26.9614C35.8507 29.2175 33.118 30.9447 30.2228 32H26.6985Z" fill="white"/>
</svg>
