<?xml version="1.0" encoding="utf-8"?>
<!-- Generator: Adobe Illustrator 28.0.0, SVG Export Plug-In . SVG Version: 6.00 Build 0)  -->
<svg version="1.1" id="Layer_1" xmlns="http://www.w3.org/2000/svg" xmlns:xlink="http://www.w3.org/1999/xlink" x="0px" y="0px"
	 viewBox="0 0 1920 1080" style="enable-background:new 0 0 1920 1080;" xml:space="preserve">
<style type="text/css">
	.st0{fill:#FFFFFF;}
	.st1{fill:#EE4498;}
</style>
<g>
	<path class="st0" d="M1016,529.8c0-23.9-7.5-46-20.3-64.1c0.1,3.1,0.2,6.2,0.2,9.3c0,81.8-48.7,152.3-118.7,184l27.8,27.8
		c0,0,60.2-59.9,80-80.1C1004.4,587,1016,559.7,1016,529.8z"/>
	<path class="st1" d="M995.9,475.1c0-3.1-0.1-6.2-0.2-9.3c-11.8-16.7-28.2-30-47.2-38.1c4.6,15,7.1,30.9,7.1,47.4
		c0,70.9-45.8,131.2-109.4,152.9l31.1,31.1C947.2,627.3,995.9,556.9,995.9,475.1z"/>
	<path class="st1" d="M834.4,475.1c0-8.9-2.9-17.1-7.8-23.8c-16.9,16.9-28.4,39.2-31.7,64.2C816.8,514.9,834.4,497.1,834.4,475.1z"
		/>
	<path class="st0" d="M901.3,418.9c8.8,16.8,13.8,35.9,13.8,56.2c0,59.8-43.4,109.5-100.4,119.3c3.1,4.4,6.5,8.5,10.3,12.3
		c5.2,5.4,21.1,21.2,21.1,21.2c63.6-21.7,109.4-81.9,109.4-152.9c0-16.5-2.5-32.4-7.1-47.4c-13.3-5.7-28-8.8-43.4-8.8
		C903.8,418.8,902.6,418.9,901.3,418.9z"/>
	<path class="st1" d="M915.1,475.1c0-20.3-5-39.4-13.8-56.2c-14.7,0.5-28.7,3.8-41.5,9.5c9.4,13.2,14.9,29.3,14.9,46.7
		c0,43.6-34.5,79.1-77.7,80.7c3.4,14.1,9.5,27.2,17.7,38.7C871.8,584.6,915.1,534.9,915.1,475.1z"/>
	<path class="st0" d="M834.4,475.1c0,22-17.6,39.9-39.4,40.4c-0.6,4.7-0.9,9.5-0.9,14.4c0,8.9,1.1,17.6,3.1,25.9
		c43.2-1.6,77.7-37.1,77.7-80.7c0-17.4-5.5-33.5-14.9-46.7c-12.5,5.6-23.7,13.3-33.3,22.9C831.5,457.9,834.4,466.2,834.4,475.1z"/>
</g>
</svg>
