<?xml version="1.0" encoding="utf-8"?>
<!-- Generator: Adobe Illustrator 28.0.0, SVG Export Plug-In . SVG Version: 6.00 Build 0)  -->
<svg version="1.1" id="Layer_1" xmlns="http://www.w3.org/2000/svg" xmlns:xlink="http://www.w3.org/1999/xlink" x="0px" y="0px"
	 viewBox="0 0 1000 1000" style="enable-background:new 0 0 1000 1000;" xml:space="preserve">
<style type="text/css">
	.st0{clip-path:url(#SVGID_00000035497648151868734020000006380046623339853734_);}
	.st1{fill:#068931;}
	.st2{fill:#FBDD0A;}
	.st3{fill:#DC111A;}
	.st4{fill:#0F47AF;}
	.st5{fill:#FCDD09;}
</style>
<g>
	<g>
		<defs>
			<ellipse id="SVGID_1_" cx="500" cy="500" rx="500" ry="499.5"/>
		</defs>
		<clipPath id="SVGID_00000005962268140663940220000000626266509418722451_">
			<use xlink:href="#SVGID_1_"  style="overflow:visible;"/>
		</clipPath>
		<g style="clip-path:url(#SVGID_00000005962268140663940220000000626266509418722451_);">
			<rect x="-366.7" y="0.5" class="st1" width="1733.3" height="333"/>
			<rect x="-366.7" y="333.5" class="st2" width="1733.3" height="333"/>
			<rect x="-366.7" y="666.5" class="st3" width="1733.3" height="333"/>
			<g>
				<ellipse class="st4" cx="500" cy="500" rx="293.7" ry="293.4"/>
				<g>
					<g>
						<path class="st2" d="M500,265.3l-10.3,31.7l42.5,130.5h-56.6l-6.4,19.6h181.5l27-19.6H552.8L500,265.3z"/>
					</g>
					<g>
						
							<rect x="537.1" y="357.9" transform="matrix(0.5874 -0.8093 0.8093 0.5874 -44.7439 635.2892)" class="st2" width="127.2" height="7.3"/>
					</g>
					<g>
						<path class="st5" d="M723.5,427.5h-33.3L579,508.1l-17.5-53.8l-20.6,0L597,626.8l27,19.6l-38.6-118.7L723.5,427.5z"/>
					</g>
					<g>
						
							<rect x="659.3" y="489.3" transform="matrix(0.3087 -0.9511 0.9511 0.3087 -67.6108 1012.7534)" class="st2" width="7.3" height="127.3"/>
					</g>
					<g>
						<path class="st2" d="M638.1,689.9l-10.3-31.7l-111.2-80.7l45.8-33.2l-6.4-19.6L409.2,631.4L398.9,663L500,589.7L638.1,689.9z"
							/>
					</g>
					<g>
						<rect x="496.3" y="607.6" class="st2" width="7.3" height="127.1"/>
					</g>
					<g>
						<path class="st2" d="M361.9,689.9l27-19.6l42.5-130.5l45.8,33.2l16.7-12.1L346.9,454.4h-33.3l101.1,73.3L361.9,689.9z"/>
					</g>
					<g>
						
							<rect x="273.4" y="549.2" transform="matrix(0.951 -0.3093 0.3093 0.951 -154.4779 131.3577)" class="st2" width="127.3" height="7.3"/>
					</g>
					<g>
						<path class="st2" d="M276.5,427.5l27,19.6h137.4l-17.5,53.8l16.7,12.1l56.1-172.5l-10.3-31.7l-38.6,118.7L276.5,427.5z"/>
					</g>
					<g>
						
							<rect x="395.6" y="297.9" transform="matrix(0.8087 -0.5882 0.5882 0.8087 -136.2702 304)" class="st2" width="7.3" height="127.2"/>
					</g>
				</g>
			</g>
		</g>
	</g>
</g>
</svg>
