<?xml version="1.0" encoding="utf-8"?>
<!-- Generator: Adobe Illustrator 28.0.0, SVG Export Plug-In . SVG Version: 6.00 Build 0)  -->
<svg version="1.1" id="Layer_1" xmlns="http://www.w3.org/2000/svg" xmlns:xlink="http://www.w3.org/1999/xlink" x="0px" y="0px"
	 viewBox="0 0 2200 2200" style="enable-background:new 0 0 2200 2200;" xml:space="preserve">
<style type="text/css">
	.st0{fill:#CE1126;}
	.st1{fill:#007A5E;}
	.st2{fill:#FCD116;}
	.st3{fill:none;stroke:#000000;stroke-width:1.1667;stroke-miterlimit:10;}
</style>
<g>
	<g>
		<path class="st0" d="M2150,1100c0,191.4-51.2,370.8-140.7,525.4c-49.9,86.1-111.6,164.5-183,232.9
			C1637.7,2039,1381.8,2150,1100,2150s-537.7-111-726.3-291.7c-71.2-68.2-132.8-146.3-182.6-232.2c-0.1-0.1-0.1-0.2-0.2-0.4
			C101.3,1471.2,50,1291.6,50,1100c0-191.6,51.3-371.2,140.9-525.8c0.1-0.1,0.1-0.2,0.2-0.4c49.8-85.8,111.4-164,182.6-232.2
			c20.4-19.6,41.7-38.4,63.7-56.2c7.9-6.4,15.9-12.7,23.9-18.9C638.3,130.7,859.7,50,1100,50c242.2,0,465.2,82,642.9,219.7
			c7.5,5.8,14.9,11.7,22.2,17.7c21.1,17.3,41.5,35.4,61.2,54.2c71.2,68.3,132.9,146.5,182.7,232.4
			C2098.7,728.7,2150,908.4,2150,1100z"/>
		<g>
			<path class="st1" d="M2150,1100c0,191.4-51.2,370.8-140.7,525.4l-693.6-400.9l-125.3-72.4l-89.8-51.9l-0.4-0.2l0.4-0.2
				l119.8-69.3l95.1-55L2009,574.1C2098.7,728.7,2150,908.4,2150,1100z"/>
			<path class="st2" d="M2009,574.1l-693.5,401.2l-95.1,55l-119.8,69.3l-0.4,0.2l-120.3-69.5l-95.3-55.1L190.9,574.2
				c0.1-0.1,0.1-0.2,0.2-0.4c49.8-85.8,111.4-164,182.6-232.2h1452.5C1897.5,409.9,1959.2,488.1,2009,574.1z"/>
			<path class="st2" d="M2009.3,1625.4c-49.9,86.1-111.6,164.5-183,232.9H373.7c-71.2-68.2-132.8-146.3-182.6-232.2
				c-0.1-0.1-0.1-0.2-0.2-0.4l693.5-401.2l126.7-73.3l89-51.5l0.4,0.2l89.8,51.9l125.3,72.4L2009.3,1625.4z"/>
			<path class="st1" d="M1101,1099.8l-0.4,0.2l-89.6,51.8L884.6,1225l-693.5,401.2c-0.1-0.1-0.1-0.2-0.2-0.4
				C101.3,1471.2,50,1291.6,50,1100c0-191.6,51.3-371.2,140.9-525.8c0.1-0.1,0.1-0.2,0.2-0.4l693.6,401l95.9,55.4l119.9,69.3
				L1101,1099.8z"/>
		</g>
		<g>
			<circle class="st0" cx="1100" cy="1100" r="249"/>
			<polygon class="st2" points="1100.7,875.8 1150.8,1030.3 1313.3,1030.3 1181.9,1125.7 1232.1,1280.2 1100.7,1184.7 969.2,1280.2 
				1019.4,1125.7 888,1030.3 1050.5,1030.3 			"/>
		</g>
		<g>
			<polygon class="st2" points="1100,69.9 1130.3,163.1 1228.4,163.1 1149,220.8 1179.3,314.1 1100,256.4 1020.7,314.1 1051,220.8 
				971.6,163.1 1069.7,163.1 			"/>
		</g>
		<g>
			<polygon class="st2" points="1100,1886.5 1130.3,1979.7 1228.4,1979.7 1149,2037.4 1179.3,2130.7 1100,2073 1020.7,2130.7 
				1051,2037.4 971.6,1979.7 1069.7,1979.7 			"/>
		</g>
	</g>
	<path class="st3" d="M2150,1100c0,191.4-51.2,370.8-140.7,525.4c-49.9,86.1-111.6,164.5-183,232.9
		C1637.7,2039,1381.8,2150,1100,2150s-537.7-111-726.3-291.7c-71.2-68.2-132.8-146.3-182.6-232.2c-0.1-0.1-0.1-0.2-0.2-0.4
		C101.3,1471.2,50,1291.6,50,1100c0-191.6,51.3-371.2,140.9-525.8c0.1-0.1,0.1-0.2,0.2-0.4c49.8-85.8,111.4-164,182.6-232.2
		c20.4-19.6,41.7-38.4,63.7-56.2c7.9-6.4,15.9-12.7,23.9-18.9C638.3,130.7,859.7,50,1100,50c242.2,0,465.2,82,642.9,219.7
		c7.5,5.8,14.9,11.7,22.2,17.7c21.1,17.3,41.5,35.4,61.2,54.2c71.2,68.3,132.9,146.5,182.7,232.4C2098.7,728.7,2150,908.4,2150,1100
		z"/>
</g>
</svg>
