<?xml version="1.0" encoding="utf-8"?>
<!-- Generator: Adobe Illustrator 28.0.0, SVG Export Plug-In . SVG Version: 6.00 Build 0)  -->
<svg version="1.1" id="Layer_1" xmlns="http://www.w3.org/2000/svg" xmlns:xlink="http://www.w3.org/1999/xlink" x="0px" y="0px"
	 viewBox="0 0 1000 1000" style="enable-background:new 0 0 1000 1000;" xml:space="preserve">
<style type="text/css">
	.st0{fill:#CB1D23;}
	.st1{fill:#F7DE29;}
	.st2{fill:#F5F5F5;}
	.st3{fill:none;stroke:#EFEFEF;stroke-miterlimit:10;}
</style>
<path class="st0" d="M13,500c0,268.7,217.8,486.5,486.5,486.5v-973C230.8,13.5,13,231.3,13,500z"/>
<g>
	<path class="st1" d="M130.8,540l18.5-60.3l-48.5-37.4l60.1-0.1l18.7-60.3l18.7,60.3l60.1,0.1l-48.5,37.4l18.4,60.4l-48.7-37.3
		L130.8,540z"/>
	<path class="st1" d="M298.4,572.7l20.3,8.6l14.1-17.7l-1.4,23.1l20.2,8.7l-21.3,5.6l-1.5,23.1l-11.6-19.6l-21.3,5.5l14.1-17.7
		L298.4,572.7z"/>
	<path class="st1" d="M408.2,456.8l-21.5-4l-10.3,20.3l-3.1-22.8l-21.5-4.1l19.6-10.1l-3.1-22.9l15.2,16.6l19.7-10L393,440.1
		L408.2,456.8z"/>
	<path class="st1" d="M362.5,560.1l6.7-21.9l-17.6-13.7h21.8l6.7-21.9l6.8,21.9l21.9,0.1l-17.6,13.6l6.6,21.9l-17.7-13.6
		L362.5,560.1z"/>
	<path class="st1" d="M299.5,359.6l19.8,9.7l15-16.8l-2.7,22.9l19.8,9.8l-21.5,4.4l-2.7,22.9l-10.6-20.2l-21.5,4.4l14.9-16.8
		L299.5,359.6z"/>
</g>
<g>
	<defs>
		<path id="SVGID_1_" d="M499.5,13.5v973C768.2,986.5,986,768.7,986,500S768.2,13.5,499.5,13.5z"/>
	</defs>
	<use xlink:href="#SVGID_1_"  style="overflow:visible;fill:#CB1D23;"/>
	<clipPath id="SVGID_00000152979404900921245790000001070779866406896272_">
		<use xlink:href="#SVGID_1_"  style="overflow:visible;"/>
	</clipPath>
</g>
<g>
	<path class="st2" d="M730,500c-15.3-6.6-27.9-18.7-35.4-34.2c-7.5-15.5-9.6-33.4-5.7-50.3c3.9-16.9,13.4-31.9,26.8-42
		c13.4-10.2,29.8-14.9,46.3-13.4c-3,1.3-5.8,3.3-7.9,5.9c-2.2,2.6-3.8,5.7-4.7,9c-0.9,3.3-1.1,6.8-0.5,10.2c0.6,3.4,1.9,6.6,3.8,9.5
		c2.5,4.5,4.1,9.5,4.7,14.7c0.6,5.2,0.2,10.4-1.3,15.5c-1.4,5-3.8,9.6-7,13.6c-3.2,4-7.2,7.2-11.6,9.5c-4.6,2.1-8.6,5.4-11.7,9.6
		c-3.1,4.2-5,9.2-5.8,14.4c-0.7,5.2-0.2,10.6,1.6,15.6c1.8,5,4.7,9.4,8.5,12.8"/>
	<path class="st2" d="M730,500c1.2-17.4,8.2-33.7,19.9-46.1c11.6-12.4,27.1-19.9,43.6-21.3s32.9,3.5,46.2,13.8
		c13.3,10.3,22.7,25.3,26.5,42.3c-2.1-2.6-4.8-4.7-7.8-6.1s-6.3-2-9.5-1.9c-3.3,0.1-6.5,1-9.4,2.7c-2.9,1.6-5.4,3.9-7.3,6.7
		c-3.3,3.8-7.3,6.9-11.8,9.1c-4.5,2.1-9.3,3.3-14.2,3.4c-4.9,0.1-9.8-0.9-14.3-2.8c-4.5-2-8.7-4.9-12.1-8.6c-3.3-4-7.6-7-12.3-8.8
		c-4.7-1.8-9.8-2.2-14.8-1.4c-5,0.9-9.6,3.1-13.6,6.4C735,490.8,731.9,495.1,730,500z"/>
	<path class="st2" d="M730,500c-10.6,13.3-25.5,22.2-41.7,24.9c-16.3,2.8-33-0.7-47.1-9.8c-14.1-9.1-24.6-23.2-29.7-39.8
		c-5.1-16.6-4.3-34.5,2.1-50.6c0.3,3.4,1.3,6.7,3,9.6c1.7,2.9,3.9,5.4,6.6,7.3c2.7,1.9,5.8,3.1,9,3.6c3.2,0.5,6.5,0.2,9.6-0.8
		c4.8-1.1,9.8-1.1,14.6-0.1c4.8,1,9.4,3.1,13.4,6.1c4,3,7.4,6.8,10,11.2c2.6,4.4,4.3,9.3,5,14.5c0.5,5.3,2.3,10.3,5.1,14.7
		c2.9,4.4,6.7,7.9,11.2,10.2c4.5,2.4,9.5,3.5,14.5,3.2c5-0.2,9.9-1.8,14.2-4.6"/>
	<path class="st2" d="M730,500c16.1-4.3,33-2.3,47.8,5.5c14.8,7.8,26.4,21,32.8,37.2c6.3,16.1,7,34.1,1.8,50.7s-15.9,30.6-30.1,39.6
		c1.7-3,2.8-6.3,3.1-9.7c0.3-3.4-0.1-6.9-1.2-10.2c-1.1-3.2-3-6.2-5.3-8.6c-2.4-2.4-5.2-4.2-8.3-5.3c-4.5-2.1-8.5-5.2-11.9-9
		c-3.3-3.8-5.9-8.3-7.5-13.3c-1.6-4.9-2.3-10.1-1.9-15.3c0.4-5.2,1.7-10.2,4-14.8c2.5-4.6,3.9-9.8,4.1-15c0.1-5.3-1-10.5-3.4-15.2
		c-2.3-4.7-5.7-8.7-9.9-11.6s-9-4.7-14-5.1"/>
	<path class="st2" d="M730,500c8.7,14.8,12.1,32.4,9.6,49.6c-2.5,17.2-10.8,32.9-23.3,44.2c-12.5,11.3-28.5,17.5-45,17.5
		c-16.5,0-32.5-6.3-45-17.7c3.2,0.8,6.5,0.8,9.7,0.1c3.2-0.7,6.2-2.2,8.8-4.4c2.6-2.1,4.7-4.9,6.1-8c1.4-3.1,2.2-6.5,2.2-10
		c0.5-5.2,2-10.1,4.5-14.7c2.4-4.5,5.7-8.5,9.6-11.6c3.9-3.1,8.4-5.4,13.2-6.6c4.8-1.2,9.7-1.4,14.6-0.6c4.9,1.1,10,0.9,14.8-0.6
		c4.8-1.5,9.2-4.3,12.7-8.1c3.5-3.8,6.1-8.5,7.4-13.6C731.1,510.5,731.2,505.2,730,500z"/>
	<path class="st0" d="M730,496.8c0.8,0,1.6,0.3,2.1,0.9c0.6,0.6,0.9,1.4,0.9,2.2s-0.3,1.6-0.9,2.2c-0.6,0.6-1.3,0.9-2.1,0.9
		c-0.8,0-1.6-0.3-2.1-0.9c-0.6-0.6-0.9-1.4-0.9-2.2s0.3-1.6,0.9-2.2C728.4,497.2,729.2,496.8,730,496.8z"/>
</g>
<line class="st3" x1="499" y1="13.5" x2="499" y2="986.5"/>
</svg>
