<?xml version="1.0" encoding="utf-8"?>
<!-- Generator: Adobe Illustrator 28.0.0, SVG Export Plug-In . SVG Version: 6.00 Build 0)  -->
<svg version="1.1" id="Layer_1" xmlns="http://www.w3.org/2000/svg" xmlns:xlink="http://www.w3.org/1999/xlink" x="0px" y="0px"
	 viewBox="0 0 1000 1000" style="enable-background:new 0 0 1000 1000;" xml:space="preserve">
<style type="text/css">
	.st0{fill:#003C93;}
	.st1{fill:#FFFFFF;}
	.st2{fill:#D80000;}
</style>
<g>
	<path class="st0" d="M995,500c0,21.1-1.3,41.9-3.9,62.3c-2.7,21.2-6.7,42-11.9,62.3C926.5,827.8,748.1,980.2,532,994
		c-10.6,0.7-21.2,1-32,1c-10.2,0-20.3-0.3-30.3-0.9c-43.3-2.6-85.1-10.8-124.6-23.8c-21.5-7.1-42.3-15.6-62.3-25.4
		C154.5,882.1,57.4,765.6,20.8,624.6c-5.3-20.3-9.3-41.1-11.9-62.3C6.3,541.9,5,521.1,5,500c0-21.1,1.3-41.9,3.9-62.3l11.9-62.3
		C57.4,234.4,154.5,117.9,282.7,55.1c20.1-9.8,40.9-18.3,62.3-25.4c39.6-13,81.4-21.2,124.6-23.8C479.3,5.3,489,5,498.7,5h2.5
		c10.3,0,20.6,0.4,30.8,1c216.1,13.8,394.5,166.2,447.2,369.3c5.3,20.3,9.3,41.1,11.9,62.3C993.7,458.1,995,478.9,995,500z"/>
	<g>
		<path class="st1" d="M995,500c0,21.1-1.3,41.9-3.9,62.3c-2.7,21.2-6.7,42-11.9,62.3H532V994c-10.6,0.7-21.2,1-32,1
			c-10.2,0-20.3-0.3-30.3-0.9c-43.3-2.6-85.1-10.8-124.6-23.8c-21.5-7.1-42.3-15.6-62.3-25.4V624.6H20.8
			c-5.3-20.3-9.3-41.1-11.9-62.3C6.3,541.9,5,521.1,5,500c0-21.1,1.3-41.9,3.9-62.3l11.9-62.3h261.8V55.1
			c20.1-9.8,40.9-18.3,62.3-25.4c39.6-13,81.4-21.2,124.6-23.8C479.3,5.3,489,5,498.7,5h2.5c10.3,0,20.6,0.4,30.8,1v369.3h447.2
			c5.3,20.3,9.3,41.1,11.9,62.3C993.7,458.1,995,478.9,995,500z"/>
	</g>
	<path class="st2" d="M995,500c0,21.1-1.3,41.9-3.9,62.3H469.7v431.8c-43.3-2.6-85.1-10.8-124.6-23.8V562.3H8.9
		C6.3,541.9,5,521.1,5,500c0-21.1,1.3-41.9,3.9-62.3H345V29.7c39.6-13,81.4-21.2,124.6-23.8v431.8h521.5
		C993.7,458.1,995,478.9,995,500z"/>
</g>
</svg>
