<svg width="34" height="34" viewBox="0 0 34 34" fill="none" xmlns="http://www.w3.org/2000/svg">
<circle cx="17" cy="17" r="17" transform="rotate(-180 17 17)" fill="#DA2381"/>
<path d="M10 16.7501C10.0035 16.833 10.0275 16.9138 10.07 16.9851C10.0883 17.0289 10.1136 17.0695 10.145 17.1051L15.145 22.1051C15.2387 22.1982 15.3654 22.2505 15.4975 22.2505C15.6296 22.2505 15.7563 22.1982 15.85 22.1051L16.205 21.7501C16.2974 21.657 16.3494 21.5313 16.35 21.4001C16.3504 21.3343 16.3378 21.2691 16.3129 21.2081C16.288 21.1472 16.2513 21.0918 16.205 21.0451L12.66 17.5001L23.5 17.5001C23.6326 17.5001 23.7598 17.4474 23.8536 17.3536C23.9473 17.2599 24 17.1327 24 17.0001L24 16.5001C24 16.3675 23.9473 16.2403 23.8536 16.1465C23.7598 16.0528 23.6326 16.0001 23.5 16.0001L12.66 16.0001L16.21 12.4551C16.2563 12.4084 16.293 12.353 16.3179 12.292C16.3428 12.2311 16.3554 12.1659 16.355 12.1001C16.3544 11.9689 16.3024 11.8432 16.21 11.7501L15.855 11.3951C15.7619 11.3027 15.6362 11.2506 15.505 11.2501C15.4392 11.2497 15.374 11.2623 15.313 11.2872C15.2521 11.3121 15.1967 11.3488 15.15 11.3951L10.15 16.3951C10.1186 16.4307 10.0933 16.4713 10.075 16.5151C10.0308 16.5859 10.005 16.6667 10 16.7501Z" fill="white"/>
</svg>
