<?xml version="1.0" encoding="utf-8"?>
<!-- Generator: Adobe Illustrator 28.0.0, SVG Export Plug-In . SVG Version: 6.00 Build 0)  -->
<svg version="1.1" id="Layer_1" xmlns="http://www.w3.org/2000/svg" xmlns:xlink="http://www.w3.org/1999/xlink" x="0px" y="0px"
	 viewBox="0 0 1000 1000" style="enable-background:new 0 0 1000 1000;" xml:space="preserve">
<style type="text/css">
	.st0{clip-path:url(#SVGID_00000052814930438405665650000006656809719019747986_);}
	.st1{fill:#093170;}
	.st2{fill:#CE1129;}
	.st3{clip-path:url(#SVGID_00000094604948137316608750000013704867810225293477_);fill:#FFD83D;}
	.st4{clip-path:url(#SVGID_00000094604948137316608750000013704867810225293477_);}
</style>
<g>
	<defs>
		<circle id="SVGID_1_" cx="500" cy="500" r="492.5"/>
	</defs>
	<clipPath id="SVGID_00000046339300071432617910000004660392691406866577_">
		<use xlink:href="#SVGID_1_"  style="overflow:visible;"/>
	</clipPath>
	<g style="clip-path:url(#SVGID_00000046339300071432617910000004660392691406866577_);">
		<rect x="-4.7" y="-6.5" class="st1" width="1507.2" height="1013"/>
		<rect x="-4.7" y="500" class="st2" width="1507.2" height="506.5"/>
		<g>
			<defs>
				<rect id="SVGID_00000041267357242378164280000006507480884084437636_" x="-4.7" y="-6.5" width="1507.2" height="1013"/>
			</defs>
			<clipPath id="SVGID_00000178182929553953589170000010505024094777853874_">
				<use xlink:href="#SVGID_00000041267357242378164280000006507480884084437636_"  style="overflow:visible;"/>
			</clipPath>
			<path style="clip-path:url(#SVGID_00000178182929553953589170000010505024094777853874_);fill:#FFD83D;" d="M321.4,200
				l-2.8,105.5h-95.6c-11.8-25.6-21.5-47.4-21.5-76.8c0-24.6,17.3-44.2,42.3-44.2C270.3,184.5,299.3,194.4,321.4,200"/>
			
				<line style="clip-path:url(#SVGID_00000178182929553953589170000010505024094777853874_);fill:#FFD83D;" x1="213" y1="204.8" x2="213" y2="265.7"/>
			<path style="clip-path:url(#SVGID_00000178182929553953589170000010505024094777853874_);" d="M213,266.9c-0.7,0-1.2-0.5-1.2-1.2
				v-60.9c0-0.7,0.5-1.2,1.2-1.2c0.7,0,1.2,0.5,1.2,1.2v60.9C214.2,266.4,213.7,266.9,213,266.9z"/>
			
				<line style="clip-path:url(#SVGID_00000178182929553953589170000010505024094777853874_);fill:#FFD83D;" x1="220.7" y1="198.6" x2="220.7" y2="279.7"/>
			<path style="clip-path:url(#SVGID_00000178182929553953589170000010505024094777853874_);" d="M220.7,280.9
				c-0.7,0-1.2-0.5-1.2-1.2v-81.1c0-0.7,0.5-1.2,1.2-1.2c0.7,0,1.2,0.5,1.2,1.2v81.1C221.9,280.4,221.4,280.9,220.7,280.9z"/>
			
				<line style="clip-path:url(#SVGID_00000178182929553953589170000010505024094777853874_);fill:#FFD83D;" x1="228.4" y1="194.3" x2="228.4" y2="290.9"/>
			<path style="clip-path:url(#SVGID_00000178182929553953589170000010505024094777853874_);" d="M228.4,292.1
				c-0.7,0-1.2-0.5-1.2-1.2v-96.6c0-0.7,0.5-1.2,1.2-1.2c0.7,0,1.2,0.5,1.2,1.2v96.6C229.6,291.6,229.1,292.1,228.4,292.1z"/>
			
				<line style="clip-path:url(#SVGID_00000178182929553953589170000010505024094777853874_);fill:#FFD83D;" x1="236.1" y1="192.3" x2="236.1" y2="268.1"/>
			<path style="clip-path:url(#SVGID_00000178182929553953589170000010505024094777853874_);" d="M236.1,269.3
				c-0.7,0-1.2-0.5-1.2-1.2v-75.8c0-0.7,0.5-1.2,1.2-1.2c0.7,0,1.2,0.5,1.2,1.2v75.8C237.3,268.8,236.7,269.3,236.1,269.3z"/>
			
				<line style="clip-path:url(#SVGID_00000178182929553953589170000010505024094777853874_);fill:#FFD83D;" x1="243.8" y1="192" x2="243.8" y2="268.5"/>
			<path style="clip-path:url(#SVGID_00000178182929553953589170000010505024094777853874_);" d="M243.8,269.7
				c-0.7,0-1.2-0.5-1.2-1.2V192c0-0.7,0.5-1.2,1.2-1.2c0.7,0,1.2,0.5,1.2,1.2v76.5C245,269.2,244.4,269.7,243.8,269.7z"/>
			
				<line style="clip-path:url(#SVGID_00000178182929553953589170000010505024094777853874_);fill:#FFD83D;" x1="251.4" y1="189.3" x2="251.4" y2="268.4"/>
			<path style="clip-path:url(#SVGID_00000178182929553953589170000010505024094777853874_);" d="M251.4,269.6
				c-0.7,0-1.2-0.5-1.2-1.2v-79.2c0-0.7,0.5-1.2,1.2-1.2c0.7,0,1.2,0.5,1.2,1.2v79.2C252.6,269.1,252.1,269.6,251.4,269.6z"/>
			
				<line style="clip-path:url(#SVGID_00000178182929553953589170000010505024094777853874_);fill:#FFD83D;" x1="259.1" y1="189.3" x2="259.1" y2="268.4"/>
			<path style="clip-path:url(#SVGID_00000178182929553953589170000010505024094777853874_);" d="M259.1,269.6
				c-0.7,0-1.2-0.5-1.2-1.2v-79.2c0-0.7,0.5-1.2,1.2-1.2c0.7,0,1.2,0.5,1.2,1.2v79.2C260.3,269.1,259.8,269.6,259.1,269.6z"/>
			
				<line style="clip-path:url(#SVGID_00000178182929553953589170000010505024094777853874_);fill:#FFD83D;" x1="266.8" y1="190.1" x2="266.8" y2="269.2"/>
			<path style="clip-path:url(#SVGID_00000178182929553953589170000010505024094777853874_);" d="M266.8,270.4
				c-0.7,0-1.2-0.5-1.2-1.2v-79.1c0-0.7,0.5-1.2,1.2-1.2c0.7,0,1.2,0.5,1.2,1.2v79.1C268,269.9,267.4,270.4,266.8,270.4z"/>
			
				<line style="clip-path:url(#SVGID_00000178182929553953589170000010505024094777853874_);fill:#FFD83D;" x1="274.5" y1="190.8" x2="274.5" y2="270"/>
			<path style="clip-path:url(#SVGID_00000178182929553953589170000010505024094777853874_);" d="M274.5,271.2
				c-0.7,0-1.2-0.5-1.2-1.2v-79.2c0-0.7,0.5-1.2,1.2-1.2c0.7,0,1.2,0.5,1.2,1.2V270C275.7,270.7,275.1,271.2,274.5,271.2z"/>
			
				<line style="clip-path:url(#SVGID_00000178182929553953589170000010505024094777853874_);fill:#FFD83D;" x1="282.1" y1="195.9" x2="282.1" y2="275"/>
			<path style="clip-path:url(#SVGID_00000178182929553953589170000010505024094777853874_);" d="M282.1,276.2
				c-0.7,0-1.2-0.5-1.2-1.2v-79.2c0-0.7,0.5-1.2,1.2-1.2c0.7,0,1.2,0.5,1.2,1.2V275C283.3,275.7,282.8,276.2,282.1,276.2z"/>
			
				<line style="clip-path:url(#SVGID_00000178182929553953589170000010505024094777853874_);fill:#FFD83D;" x1="289.8" y1="196.7" x2="289.8" y2="285.9"/>
			<path style="clip-path:url(#SVGID_00000178182929553953589170000010505024094777853874_);" d="M289.8,287.1
				c-0.7,0-1.2-0.5-1.2-1.2v-89.2c0-0.7,0.5-1.2,1.2-1.2c0.7,0,1.2,0.5,1.2,1.2v89.2C291,286.6,290.5,287.1,289.8,287.1z"/>
			
				<line style="clip-path:url(#SVGID_00000178182929553953589170000010505024094777853874_);fill:#FFD83D;" x1="297.5" y1="196.7" x2="297.5" y2="275.8"/>
			<path style="clip-path:url(#SVGID_00000178182929553953589170000010505024094777853874_);" d="M297.5,277c-0.7,0-1.2-0.5-1.2-1.2
				v-79.2c0-0.7,0.5-1.2,1.2-1.2c0.7,0,1.2,0.5,1.2,1.2v79.2C298.7,276.5,298.2,277,297.5,277z"/>
			
				<line style="clip-path:url(#SVGID_00000178182929553953589170000010505024094777853874_);fill:#FFD83D;" x1="305.2" y1="196.7" x2="305.2" y2="275.8"/>
			<path style="clip-path:url(#SVGID_00000178182929553953589170000010505024094777853874_);" d="M305.2,277c-0.7,0-1.2-0.5-1.2-1.2
				v-79.2c0-0.7,0.5-1.2,1.2-1.2c0.7,0,1.2,0.5,1.2,1.2v79.2C306.4,276.5,305.8,277,305.2,277z"/>
			<path style="clip-path:url(#SVGID_00000178182929553953589170000010505024094777853874_);" d="M261.2,192.6
				c16.2,3,51.9,21.7,47.8,46.9c-5.8,35.8-24.4,21.4-49.2,16.3l-18.7,7c-6.7,7.7-16.6,14.7-23.2,5.4h-11.1v48.5h122.6V199.6
				L261.2,192.6z"/>
			<path style="clip-path:url(#SVGID_00000178182929553953589170000010505024094777853874_);" d="M329.4,317.9H206.8
				c-0.7,0-1.2-0.5-1.2-1.2v-48.5c0-0.7,0.5-1.2,1.2-1.2h11.1c0.4,0,0.7,0.2,1,0.5c1.9,2.6,4.1,3.9,6.7,3.9c5.6,0,11.6-5.9,14.7-9.4
				c0.1-0.1,0.3-0.3,0.5-0.3l18.7-7c0.2-0.1,0.4-0.1,0.7-0.1c4.8,1,9.3,2.3,13.6,3.6c6.6,1.9,12.3,3.6,17.2,3.6
				c6.6,0,13.7-2.7,16.9-22.5c4-24.8-32.3-42.9-46.8-45.6c-0.6-0.1-1.1-0.7-1-1.3c0.1-0.6,0.7-1.1,1.3-1l68.2,7
				c0.6,0.1,1.1,0.6,1.1,1.2v117.2C330.6,317.4,330.1,317.9,329.4,317.9z M208,315.5h120.2V200.7l-55.3-5.7
				c17.4,7.1,40.7,23.3,37.2,44.7c-2.7,17-8.7,24.5-19.3,24.5c-5.3,0-11.4-1.8-17.9-3.7c-4.2-1.2-8.5-2.5-13.1-3.5l-18.1,6.8
				c-4.1,4.6-10.2,10-16.3,10c-3.2,0-6-1.5-8.2-4.4H208V315.5z"/>
			<path style="clip-path:url(#SVGID_00000178182929553953589170000010505024094777853874_);fill:#FFD83D;" d="M316.1,175.9
				c4.1,0,7.4,3.7,7.4,8.3c0,4.6-3.3,8.3-7.4,8.3c-4.1,0-7.4-3.7-7.4-8.3C308.6,179.7,312,175.9,316.1,175.9"/>
			<path style="clip-path:url(#SVGID_00000178182929553953589170000010505024094777853874_);" d="M316.1,194.2c-5,0-9-4.5-9-9.9
				c0-5.5,4.1-9.9,9-9.9c5,0,9,4.5,9,9.9C325.1,189.7,321.1,194.2,316.1,194.2z M316.1,177.5c-3.2,0-5.8,3-5.8,6.7
				c0,3.7,2.6,6.7,5.8,6.7c3.2,0,5.9-3,5.9-6.7C321.9,180.5,319.3,177.5,316.1,177.5z"/>
			<path style="clip-path:url(#SVGID_00000178182929553953589170000010505024094777853874_);fill:#FFD83D;" d="M299.3,171.4
				c4.1,0,7.4,3.7,7.4,8.3c0,4.6-3.3,8.3-7.4,8.3c-4.1,0-7.4-3.7-7.4-8.3C291.9,175.1,295.2,171.4,299.3,171.4"/>
			<path style="clip-path:url(#SVGID_00000178182929553953589170000010505024094777853874_);" d="M299.3,189.7c-5,0-9-4.5-9-9.9
				c0-5.5,4.1-9.9,9-9.9c5,0,9,4.5,9,9.9C308.4,185.2,304.3,189.7,299.3,189.7z M299.3,173c-3.2,0-5.8,3-5.8,6.7
				c0,3.7,2.6,6.7,5.8,6.7c3.2,0,5.9-3,5.9-6.7C305.2,176,302.6,173,299.3,173z"/>
			<path style="clip-path:url(#SVGID_00000178182929553953589170000010505024094777853874_);fill:#FFD83D;" d="M282.4,166.6
				c4.1,0,7.4,3.7,7.4,8.3c0,4.6-3.3,8.3-7.4,8.3c-4.1,0-7.4-3.7-7.4-8.3C274.9,170.4,278.3,166.6,282.4,166.6"/>
			<path style="clip-path:url(#SVGID_00000178182929553953589170000010505024094777853874_);" d="M282.4,184.9c-5,0-9-4.5-9-9.9
				c0-5.5,4.1-9.9,9-9.9c5,0,9,4.5,9,9.9C291.4,180.5,287.4,184.9,282.4,184.9z M282.4,168.2c-3.2,0-5.8,3-5.8,6.7
				c0,3.7,2.6,6.7,5.8,6.7c3.2,0,5.8-3,5.8-6.7C288.2,171.3,285.6,168.2,282.4,168.2z"/>
			<path style="clip-path:url(#SVGID_00000178182929553953589170000010505024094777853874_);fill:#FFD83D;" d="M265.3,163.4
				c4.1,0,7.4,3.7,7.4,8.3c0,4.6-3.3,8.3-7.4,8.3c-4.1,0-7.4-3.7-7.4-8.3C257.9,167.2,261.2,163.4,265.3,163.4"/>
			<path style="clip-path:url(#SVGID_00000178182929553953589170000010505024094777853874_);" d="M265.3,181.7c-5,0-9-4.5-9-9.9
				c0-5.5,4.1-9.9,9-9.9c5,0,9,4.5,9,9.9C274.4,177.3,270.3,181.7,265.3,181.7z M265.3,165c-3.2,0-5.8,3-5.8,6.7
				c0,3.7,2.6,6.7,5.8,6.7c3.2,0,5.9-3,5.9-6.7C271.2,168.1,268.6,165,265.3,165z"/>
			<path style="clip-path:url(#SVGID_00000178182929553953589170000010505024094777853874_);fill:#FFD83D;" d="M248.3,161.6
				c4.1,0,7.4,3.7,7.4,8.3c0,4.6-3.3,8.3-7.4,8.3c-4.1,0-7.4-3.7-7.4-8.3C240.8,165.3,244.2,161.6,248.3,161.6"/>
			<path style="clip-path:url(#SVGID_00000178182929553953589170000010505024094777853874_);" d="M248.3,179.8c-5,0-9-4.5-9-9.9
				c0-5.5,4.1-9.9,9-9.9c5,0,9,4.5,9,9.9C257.3,175.4,253.3,179.8,248.3,179.8z M248.3,163.2c-3.2,0-5.8,3-5.8,6.7
				c0,3.7,2.6,6.7,5.8,6.7c3.2,0,5.9-3,5.9-6.7C254.1,166.2,251.5,163.2,248.3,163.2z"/>
			<path style="clip-path:url(#SVGID_00000178182929553953589170000010505024094777853874_);fill:#FFD83D;" d="M231.6,162.6
				c4.1,0,7.4,3.7,7.4,8.3c0,4.6-3.3,8.3-7.4,8.3c-4.1,0-7.4-3.7-7.4-8.3C224.1,166.4,227.5,162.6,231.6,162.6"/>
			<path style="clip-path:url(#SVGID_00000178182929553953589170000010505024094777853874_);" d="M231.6,180.9c-5,0-9-4.5-9-9.9
				c0-5.5,4.1-9.9,9-9.9c5,0,9,4.5,9,9.9C240.6,176.5,236.6,180.9,231.6,180.9z M231.6,164.2c-3.2,0-5.9,3-5.9,6.7
				c0,3.7,2.6,6.7,5.9,6.7c3.2,0,5.8-3,5.8-6.7C237.4,167.3,234.8,164.2,231.6,164.2z"/>
			<path style="clip-path:url(#SVGID_00000178182929553953589170000010505024094777853874_);fill:#FFD83D;" d="M215.6,168.7
				c4.1,0,7.4,3.7,7.4,8.3c0,4.6-3.3,8.3-7.4,8.3c-4.1,0-7.4-3.7-7.4-8.3C208.2,172.5,211.5,168.7,215.6,168.7"/>
			<path style="clip-path:url(#SVGID_00000178182929553953589170000010505024094777853874_);" d="M215.6,187c-5,0-9-4.5-9-9.9
				c0-5.5,4.1-9.9,9-9.9c5,0,9,4.5,9,9.9C224.7,182.6,220.6,187,215.6,187z M215.6,170.3c-3.2,0-5.9,3-5.9,6.7
				c0,3.7,2.6,6.7,5.9,6.7c3.2,0,5.8-3,5.8-6.7C221.5,173.4,218.9,170.3,215.6,170.3z"/>
			<path style="clip-path:url(#SVGID_00000178182929553953589170000010505024094777853874_);fill:#FFD83D;" d="M202.2,179.8
				c4.1,0,7.4,3.7,7.4,8.3c0,4.6-3.3,8.3-7.4,8.3s-7.4-3.7-7.4-8.3C194.8,183.5,198.1,179.8,202.2,179.8"/>
			<path style="clip-path:url(#SVGID_00000178182929553953589170000010505024094777853874_);" d="M202.2,198.1c-5,0-9-4.5-9-9.9
				c0-5.5,4.1-9.9,9-9.9c5,0,9,4.5,9,9.9C211.3,193.6,207.2,198.1,202.2,198.1z M202.2,181.4c-3.2,0-5.8,3-5.8,6.7
				c0,3.7,2.6,6.7,5.8,6.7c3.2,0,5.8-3,5.8-6.7C208.1,184.4,205.5,181.4,202.2,181.4z"/>
			<path style="clip-path:url(#SVGID_00000178182929553953589170000010505024094777853874_);fill:#FFD83D;" d="M192.7,195.2
				c4.1,0,7.4,3.7,7.4,8.3c0,4.6-3.3,8.3-7.4,8.3c-4.1,0-7.4-3.7-7.4-8.3C185.3,199,188.6,195.2,192.7,195.2"/>
			<path style="clip-path:url(#SVGID_00000178182929553953589170000010505024094777853874_);" d="M192.7,213.5c-5,0-9-4.5-9-9.9
				c0-5.5,4.1-9.9,9-9.9c5,0,9,4.5,9,9.9C201.7,209,197.7,213.5,192.7,213.5z M192.7,196.8c-3.2,0-5.9,3-5.9,6.7
				c0,3.7,2.6,6.7,5.9,6.7c3.2,0,5.8-3,5.8-6.7C198.5,199.8,195.9,196.8,192.7,196.8z"/>
			<path style="clip-path:url(#SVGID_00000178182929553953589170000010505024094777853874_);fill:#FFD83D;" d="M188.1,213.4
				c4.1,0,7.4,3.7,7.4,8.3c0,4.6-3.3,8.3-7.4,8.3c-4.1,0-7.4-3.7-7.4-8.3C180.7,217.1,184,213.4,188.1,213.4"/>
			<path style="clip-path:url(#SVGID_00000178182929553953589170000010505024094777853874_);" d="M188.1,231.6c-5,0-9-4.5-9-9.9
				c0-5.5,4.1-9.9,9-9.9c5,0,9,4.5,9,9.9C197.2,227.2,193.1,231.6,188.1,231.6z M188.1,214.9c-3.2,0-5.8,3-5.8,6.7
				c0,3.7,2.6,6.7,5.8,6.7c3.2,0,5.9-3,5.9-6.7C194,218,191.3,214.9,188.1,214.9z"/>
			<path style="clip-path:url(#SVGID_00000178182929553953589170000010505024094777853874_);fill:#FFD83D;" d="M188.3,232.2
				c4.1,0,7.4,3.7,7.4,8.3c0,4.6-3.3,8.3-7.4,8.3c-4.1,0-7.4-3.7-7.4-8.3C180.8,235.9,184.2,232.2,188.3,232.2"/>
			<path style="clip-path:url(#SVGID_00000178182929553953589170000010505024094777853874_);" d="M188.3,250.4c-5,0-9-4.5-9-9.9
				c0-5.5,4.1-9.9,9-9.9c5,0,9,4.5,9,9.9C197.3,246,193.3,250.4,188.3,250.4z M188.3,233.8c-3.2,0-5.8,3-5.8,6.7s2.6,6.7,5.8,6.7
				c3.2,0,5.9-3,5.9-6.7S191.5,233.8,188.3,233.8z"/>
			<path style="clip-path:url(#SVGID_00000178182929553953589170000010505024094777853874_);fill:#FFD83D;" d="M191.5,250.6
				c4.1,0,7.4,3.7,7.4,8.3c0,4.6-3.3,8.3-7.4,8.3c-4.1,0-7.4-3.7-7.4-8.3C184,254.3,187.4,250.6,191.5,250.6"/>
			<path style="clip-path:url(#SVGID_00000178182929553953589170000010505024094777853874_);" d="M191.5,268.9c-5,0-9-4.5-9-9.9
				c0-5.5,4.1-9.9,9-9.9c5,0,9,4.5,9,9.9C200.5,264.4,196.5,268.9,191.5,268.9z M191.5,252.2c-3.2,0-5.9,3-5.9,6.7
				c0,3.7,2.6,6.7,5.9,6.7c3.2,0,5.8-3,5.8-6.7C197.3,255.2,194.7,252.2,191.5,252.2z"/>
			<path style="clip-path:url(#SVGID_00000178182929553953589170000010505024094777853874_);fill:#FFD83D;" d="M319.4,195.3
				l-0.7,10.9c-18.5-3.2-44.8-14.7-69.3-14.7c-22.6,0-40.2,10.1-40.2,35.7c0,25.2,9.5,48.1,22.2,71.4l-13.2,7
				c-11.8-25.6-21.5-47.4-21.5-76.8c0-24.7,17.3-48.9,47.1-48.9C270.3,179.8,297.2,189.8,319.4,195.3"/>
			<path style="clip-path:url(#SVGID_00000178182929553953589170000010505024094777853874_);" d="M218.2,307.1c-0.2,0-0.3,0-0.5-0.1
				c-0.4-0.1-0.8-0.4-0.9-0.8c-11.1-24.2-21.6-47.1-21.6-77.5c0-24.5,17.1-50.5,48.7-50.5c20.3,0,41.1,5.9,59.4,11.1
				c5.8,1.6,11.3,3.2,16.5,4.5c0.7,0.2,1.3,0.9,1.2,1.6l-0.7,10.9c0,0.5-0.2,0.9-0.6,1.1c-0.4,0.3-0.8,0.4-1.3,0.3
				c-6.7-1.2-14.4-3.4-22.6-5.7c-14.5-4.2-30.9-9-46.4-9c-14.4,0-38.6,4.4-38.6,34.1c0,26.6,11.1,50.6,22,70.6
				c0.2,0.4,0.2,0.8,0.1,1.2c-0.1,0.4-0.4,0.7-0.8,0.9l-13.2,7C218.8,307,218.5,307.1,218.2,307.1z M243.9,181.4
				c-29.6,0-45.5,24.4-45.5,47.3c0,29.1,9.9,51.3,20.6,74.6l10.2-5.4c-10.8-20.1-21.6-44.1-21.6-70.7c0-23.7,15.2-37.3,41.8-37.3
				c16,0,32.6,4.8,47.3,9.1c7.4,2.1,14.3,4.2,20.5,5.3l0.5-7.7c-4.9-1.3-10-2.7-15.3-4.2C284.3,187.2,263.8,181.4,243.9,181.4z"/>
			<path style="clip-path:url(#SVGID_00000178182929553953589170000010505024094777853874_);fill:#FFD83D;" d="M338.3,200l2.8,105.5
				h95.6c11.8-25.6,21.5-47.4,21.5-76.8c0-24.6-17.3-44.2-42.3-44.2C389.5,184.5,360.5,194.4,338.3,200"/>
			
				<line style="clip-path:url(#SVGID_00000178182929553953589170000010505024094777853874_);fill:#FFD83D;" x1="446.7" y1="204.8" x2="446.7" y2="265.7"/>
			<path style="clip-path:url(#SVGID_00000178182929553953589170000010505024094777853874_);" d="M446.7,266.9
				c-0.7,0-1.2-0.5-1.2-1.2v-60.9c0-0.7,0.5-1.2,1.2-1.2c0.7,0,1.2,0.5,1.2,1.2v60.9C447.9,266.4,447.4,266.9,446.7,266.9z"/>
			
				<line style="clip-path:url(#SVGID_00000178182929553953589170000010505024094777853874_);fill:#FFD83D;" x1="439" y1="198.6" x2="439" y2="279.7"/>
			<path style="clip-path:url(#SVGID_00000178182929553953589170000010505024094777853874_);" d="M439,280.9c-0.7,0-1.2-0.5-1.2-1.2
				v-81.1c0-0.7,0.5-1.2,1.2-1.2s1.2,0.5,1.2,1.2v81.1C440.2,280.4,439.7,280.9,439,280.9z"/>
			
				<line style="clip-path:url(#SVGID_00000178182929553953589170000010505024094777853874_);fill:#FFD83D;" x1="431.3" y1="194.3" x2="431.3" y2="290.9"/>
			<path style="clip-path:url(#SVGID_00000178182929553953589170000010505024094777853874_);" d="M431.3,292.1
				c-0.7,0-1.2-0.5-1.2-1.2v-96.6c0-0.7,0.5-1.2,1.2-1.2c0.7,0,1.2,0.5,1.2,1.2v96.6C432.5,291.6,432,292.1,431.3,292.1z"/>
			
				<line style="clip-path:url(#SVGID_00000178182929553953589170000010505024094777853874_);fill:#FFD83D;" x1="423.7" y1="192.3" x2="423.7" y2="268.1"/>
			<path style="clip-path:url(#SVGID_00000178182929553953589170000010505024094777853874_);" d="M423.7,269.3
				c-0.7,0-1.2-0.5-1.2-1.2v-75.8c0-0.7,0.5-1.2,1.2-1.2c0.7,0,1.2,0.5,1.2,1.2v75.8C424.9,268.8,424.3,269.3,423.7,269.3z"/>
			
				<line style="clip-path:url(#SVGID_00000178182929553953589170000010505024094777853874_);fill:#FFD83D;" x1="416" y1="192" x2="416" y2="268.5"/>
			<path style="clip-path:url(#SVGID_00000178182929553953589170000010505024094777853874_);" d="M416,269.7c-0.7,0-1.2-0.5-1.2-1.2
				V192c0-0.7,0.5-1.2,1.2-1.2c0.7,0,1.2,0.5,1.2,1.2v76.5C417.2,269.2,416.7,269.7,416,269.7z"/>
			
				<line style="clip-path:url(#SVGID_00000178182929553953589170000010505024094777853874_);fill:#FFD83D;" x1="408.3" y1="189.3" x2="408.3" y2="268.4"/>
			<path style="clip-path:url(#SVGID_00000178182929553953589170000010505024094777853874_);" d="M408.3,269.6
				c-0.7,0-1.2-0.5-1.2-1.2v-79.2c0-0.7,0.5-1.2,1.2-1.2c0.7,0,1.2,0.5,1.2,1.2v79.2C409.5,269.1,409,269.6,408.3,269.6z"/>
			
				<line style="clip-path:url(#SVGID_00000178182929553953589170000010505024094777853874_);fill:#FFD83D;" x1="400.6" y1="189.3" x2="400.6" y2="268.4"/>
			<path style="clip-path:url(#SVGID_00000178182929553953589170000010505024094777853874_);" d="M400.6,269.6
				c-0.7,0-1.2-0.5-1.2-1.2v-79.2c0-0.7,0.5-1.2,1.2-1.2c0.7,0,1.2,0.5,1.2,1.2v79.2C401.8,269.1,401.3,269.6,400.6,269.6z"/>
			
				<line style="clip-path:url(#SVGID_00000178182929553953589170000010505024094777853874_);fill:#FFD83D;" x1="393" y1="190.1" x2="393" y2="269.2"/>
			<path style="clip-path:url(#SVGID_00000178182929553953589170000010505024094777853874_);" d="M393,270.4c-0.7,0-1.2-0.5-1.2-1.2
				v-79.1c0-0.7,0.5-1.2,1.2-1.2c0.7,0,1.2,0.5,1.2,1.2v79.1C394.2,269.9,393.6,270.4,393,270.4z"/>
			
				<line style="clip-path:url(#SVGID_00000178182929553953589170000010505024094777853874_);fill:#FFD83D;" x1="385.3" y1="190.8" x2="385.3" y2="270"/>
			<path style="clip-path:url(#SVGID_00000178182929553953589170000010505024094777853874_);" d="M385.3,271.2
				c-0.7,0-1.2-0.5-1.2-1.2v-79.2c0-0.7,0.5-1.2,1.2-1.2c0.7,0,1.2,0.5,1.2,1.2V270C386.5,270.7,385.9,271.2,385.3,271.2z"/>
			
				<line style="clip-path:url(#SVGID_00000178182929553953589170000010505024094777853874_);fill:#FFD83D;" x1="377.6" y1="195.9" x2="377.6" y2="275"/>
			<path style="clip-path:url(#SVGID_00000178182929553953589170000010505024094777853874_);" d="M377.6,276.2
				c-0.7,0-1.2-0.5-1.2-1.2v-79.2c0-0.7,0.5-1.2,1.2-1.2c0.7,0,1.2,0.5,1.2,1.2V275C378.8,275.7,378.3,276.2,377.6,276.2z"/>
			
				<line style="clip-path:url(#SVGID_00000178182929553953589170000010505024094777853874_);fill:#FFD83D;" x1="369.9" y1="196.7" x2="369.9" y2="285.9"/>
			<path style="clip-path:url(#SVGID_00000178182929553953589170000010505024094777853874_);" d="M369.9,287.1
				c-0.7,0-1.2-0.5-1.2-1.2v-89.2c0-0.7,0.5-1.2,1.2-1.2c0.7,0,1.2,0.5,1.2,1.2v89.2C371.1,286.6,370.6,287.1,369.9,287.1z"/>
			
				<line style="clip-path:url(#SVGID_00000178182929553953589170000010505024094777853874_);fill:#FFD83D;" x1="362.3" y1="196.7" x2="362.3" y2="275.8"/>
			<path style="clip-path:url(#SVGID_00000178182929553953589170000010505024094777853874_);" d="M362.3,277c-0.7,0-1.2-0.5-1.2-1.2
				v-79.2c0-0.7,0.5-1.2,1.2-1.2c0.7,0,1.2,0.5,1.2,1.2v79.2C363.5,276.5,362.9,277,362.3,277z"/>
			
				<line style="clip-path:url(#SVGID_00000178182929553953589170000010505024094777853874_);fill:#FFD83D;" x1="354.6" y1="196.7" x2="354.6" y2="275.8"/>
			<path style="clip-path:url(#SVGID_00000178182929553953589170000010505024094777853874_);" d="M354.6,277c-0.7,0-1.2-0.5-1.2-1.2
				v-79.2c0-0.7,0.5-1.2,1.2-1.2c0.7,0,1.2,0.5,1.2,1.2v79.2C355.8,276.5,355.2,277,354.6,277z"/>
			<path style="clip-path:url(#SVGID_00000178182929553953589170000010505024094777853874_);" d="M398.6,192.6
				c-16.2,3-51.9,21.7-47.8,46.9c5.8,35.8,24.4,21.4,49.2,16.3l18.7,7c6.7,7.7,16.5,14.7,23.2,5.4h11.1v48.5H330.3V199.6
				L398.6,192.6z"/>
			<path style="clip-path:url(#SVGID_00000178182929553953589170000010505024094777853874_);" d="M452.9,317.9H330.3
				c-0.7,0-1.2-0.5-1.2-1.2V199.6c0-0.6,0.5-1.1,1.1-1.2l68.2-7c0.6-0.1,1.2,0.4,1.3,1c0.1,0.6-0.3,1.2-1,1.3
				c-14.5,2.7-50.8,20.8-46.8,45.6c3.2,19.8,10.3,22.5,16.9,22.5c4.9,0,10.6-1.7,17.2-3.6c4.3-1.3,8.8-2.6,13.6-3.6
				c0.2,0,0.5,0,0.7,0.1l18.7,7c0.2,0.1,0.4,0.2,0.5,0.3c3.1,3.5,9.1,9.4,14.7,9.4c2.6,0,4.8-1.3,6.7-3.9c0.2-0.3,0.6-0.5,1-0.5
				h11.1c0.7,0,1.2,0.5,1.2,1.2v48.5C454.1,317.4,453.6,317.9,452.9,317.9z M331.5,315.5h120.2v-46.1h-9.3c-2.3,2.9-5,4.4-8.2,4.4
				c-6.1,0-12.2-5.4-16.3-10l-18.1-6.8c-4.6,1-8.9,2.2-13.1,3.5c-6.5,1.9-12.6,3.7-17.9,3.7c-10.6,0-16.5-7.6-19.3-24.5
				c-3.4-21.4,19.8-37.6,37.2-44.7l-55.3,5.7V315.5z"/>
			<path style="clip-path:url(#SVGID_00000178182929553953589170000010505024094777853874_);fill:#FFD83D;" d="M343.7,175.9
				c-4.1,0-7.4,3.7-7.4,8.3c0,4.6,3.3,8.3,7.4,8.3c4.1,0,7.4-3.7,7.4-8.3C351.1,179.7,347.8,175.9,343.7,175.9"/>
			<path style="clip-path:url(#SVGID_00000178182929553953589170000010505024094777853874_);" d="M343.7,194.2c-5,0-9-4.5-9-9.9
				c0-5.5,4.1-9.9,9-9.9c5,0,9,4.5,9,9.9C352.7,189.7,348.7,194.2,343.7,194.2z M343.7,177.5c-3.2,0-5.9,3-5.9,6.7
				c0,3.7,2.6,6.7,5.9,6.7c3.2,0,5.8-3,5.8-6.7C349.5,180.5,346.9,177.5,343.7,177.5z"/>
			<path style="clip-path:url(#SVGID_00000178182929553953589170000010505024094777853874_);fill:#FFD83D;" d="M360.4,171.4
				c-4.1,0-7.4,3.7-7.4,8.3c0,4.6,3.3,8.3,7.4,8.3c4.1,0,7.4-3.7,7.4-8.3C367.8,175.1,364.5,171.4,360.4,171.4"/>
			<path style="clip-path:url(#SVGID_00000178182929553953589170000010505024094777853874_);" d="M360.4,189.7c-5,0-9-4.5-9-9.9
				c0-5.5,4.1-9.9,9-9.9c5,0,9,4.5,9,9.9C369.4,185.2,365.4,189.7,360.4,189.7z M360.4,173c-3.2,0-5.8,3-5.8,6.7
				c0,3.7,2.6,6.7,5.8,6.7c3.2,0,5.9-3,5.9-6.7C366.3,176,363.6,173,360.4,173z"/>
			<path style="clip-path:url(#SVGID_00000178182929553953589170000010505024094777853874_);fill:#FFD83D;" d="M377.4,166.6
				c-4.1,0-7.4,3.7-7.4,8.3c0,4.6,3.3,8.3,7.4,8.3c4.1,0,7.4-3.7,7.4-8.3C384.8,170.4,381.5,166.6,377.4,166.6"/>
			<path style="clip-path:url(#SVGID_00000178182929553953589170000010505024094777853874_);" d="M377.4,184.9c-5,0-9-4.5-9-9.9
				c0-5.5,4.1-9.9,9-9.9c5,0,9,4.5,9,9.9C386.4,180.5,382.4,184.9,377.4,184.9z M377.4,168.2c-3.2,0-5.9,3-5.9,6.7
				c0,3.7,2.6,6.7,5.9,6.7c3.2,0,5.9-3,5.9-6.7C383.2,171.3,380.6,168.2,377.4,168.2z"/>
			<path style="clip-path:url(#SVGID_00000178182929553953589170000010505024094777853874_);fill:#FFD83D;" d="M394.4,163.4
				c-4.1,0-7.4,3.7-7.4,8.3c0,4.6,3.3,8.3,7.4,8.3c4.1,0,7.4-3.7,7.4-8.3C401.9,167.2,398.5,163.4,394.4,163.4"/>
			<path style="clip-path:url(#SVGID_00000178182929553953589170000010505024094777853874_);" d="M394.4,181.7c-5,0-9-4.5-9-9.9
				c0-5.5,4.1-9.9,9-9.9c5,0,9,4.5,9,9.9C403.5,177.3,399.4,181.7,394.4,181.7z M394.4,165c-3.2,0-5.9,3-5.9,6.7
				c0,3.7,2.6,6.7,5.9,6.7c3.2,0,5.9-3,5.9-6.7C400.3,168.1,397.6,165,394.4,165z"/>
			<path style="clip-path:url(#SVGID_00000178182929553953589170000010505024094777853874_);fill:#FFD83D;" d="M411.5,161.6
				c-4.1,0-7.4,3.7-7.4,8.3c0,4.6,3.3,8.3,7.4,8.3c4.1,0,7.4-3.7,7.4-8.3C418.9,165.3,415.6,161.6,411.5,161.6"/>
			<path style="clip-path:url(#SVGID_00000178182929553953589170000010505024094777853874_);" d="M411.5,179.8c-5,0-9-4.5-9-9.9
				c0-5.5,4.1-9.9,9-9.9c5,0,9,4.5,9,9.9C420.5,175.4,416.4,179.8,411.5,179.8z M411.5,163.2c-3.2,0-5.8,3-5.8,6.7
				c0,3.7,2.6,6.7,5.8,6.7c3.2,0,5.9-3,5.9-6.7C417.3,166.2,414.7,163.2,411.5,163.2z"/>
			<path style="clip-path:url(#SVGID_00000178182929553953589170000010505024094777853874_);fill:#FFD83D;" d="M428.2,162.6
				c-4.1,0-7.4,3.7-7.4,8.3c0,4.6,3.3,8.3,7.4,8.3c4.1,0,7.4-3.7,7.4-8.3C435.6,166.4,432.3,162.6,428.2,162.6"/>
			<path style="clip-path:url(#SVGID_00000178182929553953589170000010505024094777853874_);" d="M428.2,180.9c-5,0-9-4.5-9-9.9
				c0-5.5,4.1-9.9,9-9.9c5,0,9,4.5,9,9.9C437.2,176.5,433.2,180.9,428.2,180.9z M428.2,164.2c-3.2,0-5.8,3-5.8,6.7
				c0,3.7,2.6,6.7,5.8,6.7c3.2,0,5.8-3,5.8-6.7C434,167.3,431.4,164.2,428.2,164.2z"/>
			<path style="clip-path:url(#SVGID_00000178182929553953589170000010505024094777853874_);fill:#FFD83D;" d="M444.1,168.7
				c-4.1,0-7.4,3.7-7.4,8.3c0,4.6,3.3,8.3,7.4,8.3c4.1,0,7.4-3.7,7.4-8.3C451.5,172.5,448.2,168.7,444.1,168.7"/>
			<path style="clip-path:url(#SVGID_00000178182929553953589170000010505024094777853874_);" d="M444.1,187c-5,0-9-4.5-9-9.9
				c0-5.5,4.1-9.9,9-9.9c5,0,9,4.5,9,9.9C453.1,182.6,449.1,187,444.1,187z M444.1,170.3c-3.2,0-5.8,3-5.8,6.7
				c0,3.7,2.6,6.7,5.8,6.7c3.2,0,5.8-3,5.8-6.7C449.9,173.4,447.3,170.3,444.1,170.3z"/>
			<path style="clip-path:url(#SVGID_00000178182929553953589170000010505024094777853874_);fill:#FFD83D;" d="M457.5,179.8
				c-4.1,0-7.4,3.7-7.4,8.3c0,4.6,3.3,8.3,7.4,8.3c4.1,0,7.4-3.7,7.4-8.3C465,183.5,461.6,179.8,457.5,179.8"/>
			<path style="clip-path:url(#SVGID_00000178182929553953589170000010505024094777853874_);" d="M457.5,198.1c-5,0-9-4.5-9-9.9
				c0-5.5,4.1-9.9,9-9.9c5,0,9,4.5,9,9.9C466.6,193.6,462.5,198.1,457.5,198.1z M457.5,181.4c-3.2,0-5.9,3-5.9,6.7
				c0,3.7,2.6,6.7,5.9,6.7c3.2,0,5.8-3,5.8-6.7C463.4,184.4,460.7,181.4,457.5,181.4z"/>
			<path style="clip-path:url(#SVGID_00000178182929553953589170000010505024094777853874_);fill:#FFD83D;" d="M467,195.2
				c-4.1,0-7.4,3.7-7.4,8.3c0,4.6,3.3,8.3,7.4,8.3c4.1,0,7.4-3.7,7.4-8.3C474.5,199,471.2,195.2,467,195.2"/>
			<path style="clip-path:url(#SVGID_00000178182929553953589170000010505024094777853874_);" d="M467,213.5c-5,0-9-4.5-9-9.9
				c0-5.5,4.1-9.9,9-9.9c5,0,9,4.5,9,9.9C476.1,209,472,213.5,467,213.5z M467,196.8c-3.2,0-5.8,3-5.8,6.7c0,3.7,2.6,6.7,5.8,6.7
				c3.2,0,5.8-3,5.8-6.7C472.9,199.8,470.3,196.8,467,196.8z"/>
			<path style="clip-path:url(#SVGID_00000178182929553953589170000010505024094777853874_);fill:#FFD83D;" d="M471.6,213.4
				c-4.1,0-7.4,3.7-7.4,8.3c0,4.6,3.3,8.3,7.4,8.3c4.1,0,7.4-3.7,7.4-8.3C479.1,217.1,475.7,213.4,471.6,213.4"/>
			<path style="clip-path:url(#SVGID_00000178182929553953589170000010505024094777853874_);" d="M471.6,231.6c-5,0-9-4.5-9-9.9
				c0-5.5,4.1-9.9,9-9.9c5,0,9,4.5,9,9.9C480.7,227.2,476.6,231.6,471.6,231.6z M471.6,214.9c-3.2,0-5.8,3-5.8,6.7
				c0,3.7,2.6,6.7,5.8,6.7c3.2,0,5.9-3,5.9-6.7C477.5,218,474.9,214.9,471.6,214.9z"/>
			<path style="clip-path:url(#SVGID_00000178182929553953589170000010505024094777853874_);fill:#FFD83D;" d="M471.5,232.2
				c-4.1,0-7.4,3.7-7.4,8.3c0,4.6,3.3,8.3,7.4,8.3c4.1,0,7.4-3.7,7.4-8.3C478.9,235.9,475.6,232.2,471.5,232.2"/>
			<path style="clip-path:url(#SVGID_00000178182929553953589170000010505024094777853874_);" d="M471.5,250.4c-5,0-9-4.5-9-9.9
				c0-5.5,4.1-9.9,9-9.9c5,0,9,4.5,9,9.9C480.5,246,476.4,250.4,471.5,250.4z M471.5,233.8c-3.2,0-5.9,3-5.9,6.7s2.6,6.7,5.9,6.7
				c3.2,0,5.8-3,5.8-6.7S474.7,233.8,471.5,233.8z"/>
			<path style="clip-path:url(#SVGID_00000178182929553953589170000010505024094777853874_);fill:#FFD83D;" d="M468.3,250.6
				c-4.1,0-7.4,3.7-7.4,8.3c0,4.6,3.3,8.3,7.4,8.3c4.1,0,7.4-3.7,7.4-8.3C475.7,254.3,472.4,250.6,468.3,250.6"/>
			<path style="clip-path:url(#SVGID_00000178182929553953589170000010505024094777853874_);" d="M468.3,268.9c-5,0-9-4.5-9-9.9
				c0-5.5,4.1-9.9,9-9.9c5,0,9,4.5,9,9.9C477.3,264.4,473.2,268.9,468.3,268.9z M468.3,252.2c-3.2,0-5.8,3-5.8,6.7
				c0,3.7,2.6,6.7,5.8,6.7c3.2,0,5.8-3,5.8-6.7C474.1,255.2,471.5,252.2,468.3,252.2z"/>
			<path style="clip-path:url(#SVGID_00000178182929553953589170000010505024094777853874_);fill:#FFD83D;" d="M340.4,195.3
				l0.7,10.9c18.5-3.2,44.8-14.7,69.3-14.7c22.6,0,40.2,10.1,40.2,35.7c0,25.2-9.5,48.1-22.2,71.4l13.2,7
				c11.8-25.6,21.5-47.4,21.5-76.8c0-24.7-17.3-48.9-47.1-48.9C389.5,179.8,362.5,189.8,340.4,195.3"/>
			<path style="clip-path:url(#SVGID_00000178182929553953589170000010505024094777853874_);" d="M441.5,307.1
				c-0.3,0-0.5-0.1-0.7-0.2l-13.2-7c-0.4-0.2-0.7-0.5-0.8-0.9c-0.1-0.4-0.1-0.8,0.1-1.2c10.9-20,22-44.1,22-70.6
				c0-29.7-24.2-34.1-38.6-34.1c-15.5,0-31.9,4.8-46.4,9c-8.2,2.4-15.8,4.6-22.6,5.7c-0.4,0.1-0.9,0-1.3-0.3
				c-0.4-0.3-0.6-0.7-0.6-1.2l-0.7-10.9c0-0.8,0.5-1.5,1.2-1.6c5.2-1.3,10.7-2.9,16.5-4.5c18.3-5.2,39-11.1,59.4-11.1
				c31.6,0,48.7,26,48.7,50.5c0,30.4-10.5,53.3-21.6,77.5c-0.2,0.4-0.5,0.7-0.9,0.8C441.8,307.1,441.7,307.1,441.5,307.1z
				 M430.5,297.9l10.2,5.4c10.7-23.3,20.6-45.5,20.6-74.6c0-22.9-15.9-47.3-45.5-47.3c-19.9,0-40.4,5.8-58.5,10.9
				c-5.3,1.5-10.4,3-15.3,4.2l0.5,7.7c6.1-1.2,13.1-3.2,20.5-5.3c14.7-4.3,31.4-9.1,47.3-9.1c26.5,0,41.8,13.6,41.8,37.3
				C452.1,253.8,441.3,277.8,430.5,297.9z"/>
			<path style="clip-path:url(#SVGID_00000178182929553953589170000010505024094777853874_);fill:#FFD83D;" d="M329.9,83.2
				l-7.8,16.3l7.8,16.3l7.8-16.3L329.9,83.2z M329.9,124.4l-7.8,16.2l7.8,16.3l7.8-16.3L329.9,124.4z"/>
			<path style="clip-path:url(#SVGID_00000178182929553953589170000010505024094777853874_);" d="M329.9,158.5
				c-0.6,0-1.2-0.4-1.4-0.9l-7.8-16.3c-0.2-0.4-0.2-0.9,0-1.4l7.8-16.2c0.3-0.6,0.8-0.9,1.4-0.9l0,0c0.6,0,1.2,0.4,1.4,0.9l7.8,16.2
				c0.2,0.4,0.2,0.9,0,1.4l-7.8,16.3C331.1,158.1,330.5,158.5,329.9,158.5z M323.9,140.6l6,12.6l6-12.6l-6-12.6L323.9,140.6z
				 M329.9,117.4c-0.6,0-1.2-0.4-1.4-0.9l-7.8-16.3c-0.2-0.4-0.2-0.9,0-1.4l7.8-16.3c0.3-0.6,0.8-0.9,1.4-0.9l0,0
				c0.6,0,1.2,0.4,1.4,0.9l7.8,16.3c0.2,0.4,0.2,0.9,0,1.4l-7.8,16.3C331,117,330.5,117.4,329.9,117.4z M323.9,99.5l6,12.6l6-12.6
				l-6-12.6L323.9,99.5z"/>
			<path style="clip-path:url(#SVGID_00000178182929553953589170000010505024094777853874_);fill:#FFD83D;" d="M302.2,120.1
				l12.3,8.7l12.2-8.7l-12.2-8.7L302.2,120.1z M333.1,120.1l12.2,8.7l12.3-8.7l-12.3-8.7L333.1,120.1z"/>
			<path style="clip-path:url(#SVGID_00000178182929553953589170000010505024094777853874_);" d="M345.3,130.4
				c-0.3,0-0.6-0.1-0.9-0.3l-12.2-8.7c-0.4-0.3-0.7-0.8-0.7-1.3c0-0.5,0.2-1,0.7-1.3l12.2-8.7c0.6-0.4,1.3-0.4,1.8,0l12.3,8.7
				c0.4,0.3,0.7,0.8,0.7,1.3c0,0.5-0.2,1-0.7,1.3l-12.3,8.7C346,130.3,345.6,130.4,345.3,130.4z M335.9,120.1l9.5,6.7l9.5-6.7
				l-9.5-6.7L335.9,120.1z M314.4,130.4c-0.3,0-0.6-0.1-0.9-0.3l-12.3-8.7c-0.4-0.3-0.7-0.8-0.7-1.3c0-0.5,0.3-1,0.7-1.3l12.3-8.7
				c0.6-0.4,1.3-0.4,1.8,0l12.2,8.7c0.4,0.3,0.7,0.8,0.7,1.3c0,0.5-0.2,1-0.7,1.3l-12.2,8.7C315.1,130.3,314.8,130.4,314.4,130.4z
				 M304.9,120.1l9.5,6.7l9.5-6.7l-9.5-6.7L304.9,120.1z"/>
			<path style="clip-path:url(#SVGID_00000178182929553953589170000010505024094777853874_);fill:#FFD83D;" d="M329.9,113.7
				c3.3,0,5.9,3,5.9,6.6c0,3.6-2.6,6.6-5.9,6.6c-3.3,0-5.9-3-5.9-6.6C324,116.6,326.6,113.7,329.9,113.7"/>
			<path style="clip-path:url(#SVGID_00000178182929553953589170000010505024094777853874_);" d="M329.9,128.4
				c-4.1,0-7.5-3.7-7.5-8.2c0-4.5,3.4-8.2,7.5-8.2c4.1,0,7.5,3.7,7.5,8.2C337.4,124.8,334,128.4,329.9,128.4z M329.9,115.3
				c-2.4,0-4.3,2.2-4.3,5c0,2.8,1.9,5,4.3,5c2.4,0,4.3-2.2,4.3-5C334.2,117.5,332.2,115.3,329.9,115.3z"/>
			<path style="clip-path:url(#SVGID_00000178182929553953589170000010505024094777853874_);fill:#FFD83D;" d="M329.9,144.7
				c8.7,0,15.8,7.9,15.8,17.7c0,9.7-7.1,17.6-15.8,17.6c-8.7,0-15.8-7.9-15.8-17.6C314.1,152.6,321.2,144.7,329.9,144.7"/>
			<path style="clip-path:url(#SVGID_00000178182929553953589170000010505024094777853874_);" d="M329.9,181.6
				c-9.6,0-17.4-8.6-17.4-19.2c0-10.6,7.8-19.3,17.4-19.3c9.6,0,17.4,8.6,17.4,19.3C347.2,173,339.4,181.6,329.9,181.6z
				 M329.9,146.3c-7.8,0-14.2,7.2-14.2,16.1c0,8.9,6.4,16.1,14.2,16.1c7.8,0,14.2-7.2,14.2-16.1C344,153.5,337.7,146.3,329.9,146.3z
				"/>
			<path style="clip-path:url(#SVGID_00000178182929553953589170000010505024094777853874_);" d="M345.1,167.9c-0.1,0-0.1,0-0.2,0
				c-10-1.9-20.1-1.9-30.1,0c-0.6,0.1-1.3-0.3-1.4-1c-0.1-0.6,0.3-1.3,1-1.4c10.3-1.9,20.7-1.9,31,0c0.6,0.1,1.1,0.7,1,1.4
				C346.2,167.5,345.7,167.9,345.1,167.9z M345.1,158.9c-0.1,0-0.1,0-0.2,0c-3.6-0.7-7.3-1.1-11.1-1.3c-0.6,0-1.1-0.6-1.1-1.2v-11.2
				c0-0.7,0.5-1.2,1.2-1.2c0.7,0,1.2,0.5,1.2,1.2v10.1c3.4,0.2,6.9,0.7,10.2,1.3c0.6,0.1,1.1,0.7,1,1.4
				C346.2,158.5,345.7,158.9,345.1,158.9z M314.7,158.9c-0.6,0-1.1-0.4-1.2-1c-0.1-0.6,0.3-1.3,1-1.4c3.4-0.6,6.8-1.1,10.2-1.3
				l0-1.8c0-2.2,0-4.7,0-8.3c0-0.7,0.5-1.2,1.2-1.2c0.7,0,1.2,0.5,1.2,1.2c0,3.6,0,6.1,0,8.3l0,2.9c0,0.6-0.5,1.2-1.1,1.2
				c-3.7,0.2-7.4,0.6-11.1,1.3C314.8,158.9,314.7,158.9,314.7,158.9z"/>
			<path style="clip-path:url(#SVGID_00000178182929553953589170000010505024094777853874_);fill:#FFD83D;" d="M314.5,192.2
				c-1.5,28.8-4.5,58.2-14.6,79.6l16.3-7.4c5.7-24.2,6.9-55.5,8.6-70.2L314.5,192.2z M345.3,192.2l-10.4,2c1.7,14.8,2.9,46,8.6,70.2
				l16.3,7.4C349.8,250.4,346.8,221,345.3,192.2"/>
			<path style="clip-path:url(#SVGID_00000178182929553953589170000010505024094777853874_);" d="M359.8,273.4c-0.2,0-0.4,0-0.7-0.1
				l-16.3-7.4c-0.5-0.2-0.8-0.6-0.9-1.1c-4.2-17.7-6-39.4-7.3-55.2c-0.5-6-0.9-11.2-1.4-15.2c-0.1-0.8,0.5-1.6,1.3-1.8l10.4-2
				c0.5-0.1,0.9,0,1.3,0.3c0.4,0.3,0.6,0.7,0.6,1.2c1.4,26.8,4.2,57.2,14.4,79c0.3,0.6,0.2,1.3-0.3,1.8
				C360.7,273.2,360.2,273.4,359.8,273.4z M344.9,263.3l11.8,5.3c-8.9-21.4-11.6-49.3-12.9-74.5l-7.1,1.3c0.4,3.8,0.8,8.5,1.2,13.8
				C339.2,224.8,340.9,245.9,344.9,263.3z M299.9,273.4c-0.4,0-0.8-0.2-1.1-0.5c-0.5-0.5-0.6-1.2-0.3-1.8c10.2-21.8,13-52.1,14.4-79
				c0-0.5,0.2-0.9,0.6-1.2c0.4-0.3,0.8-0.4,1.3-0.3l10.4,2c0.8,0.2,1.4,0.9,1.3,1.8c-0.5,4-0.9,9.2-1.4,15.2
				c-1.3,15.8-3.1,37.5-7.3,55.2c-0.1,0.5-0.4,0.9-0.9,1.1l-16.3,7.4C300.4,273.3,300.1,273.4,299.9,273.4z M316,194.1
				c-1.4,25.1-4.1,53.1-12.9,74.5l11.8-5.3c4-17.3,5.7-38.5,7-54c0.4-5.3,0.8-10,1.2-13.8L316,194.1z"/>
			<path style="clip-path:url(#SVGID_00000178182929553953589170000010505024094777853874_);fill:#FFD83D;" d="M329.8,254.7
				c-19.5,0-33.8,10.3-34.6,36.5c-4.8-9.4-24.9-38.9-43.7-34.9c-11.2,2.3-21,19.7-19.4,39.6c-9.2-29.8-36.3-34.6-56.1-17
				c17.5,16.2,25.3,63.9,40.1,84.6h113.6h113.6c14.8-20.7,22.6-68.4,40.2-84.6c-19.8-17.6-46.8-12.7-56.1,17
				c1.7-19.9-8.2-37.2-19.4-39.6c-18.8-3.9-38.9,25.5-43.6,34.9C363.7,264.9,349.3,254.7,329.8,254.7"/>
			<path style="clip-path:url(#SVGID_00000178182929553953589170000010505024094777853874_);" d="M443.5,364.9H216.2
				c-0.5,0-1-0.2-1.3-0.7c-6.7-9.3-11.8-23.5-17.1-38.6c-6.5-18.2-13.3-37-22.8-45.7c-0.3-0.3-0.5-0.7-0.5-1.2
				c0-0.5,0.2-0.9,0.5-1.2c7.7-6.8,16.8-10.6,25.6-10.6c12.8,0,23.5,7.5,29.9,20.4c1.2-16.3,9.7-30.4,20.7-32.7
				c1.2-0.3,2.5-0.4,3.8-0.4c16.4,0,32.2,20.7,38.9,31.5c2.4-21.2,15-32.7,35.8-32.7c20.9,0,33.5,11.6,35.9,32.7
				c6.7-10.9,22.5-31.5,38.9-31.5c1.3,0,2.6,0.1,3.8,0.4c11,2.3,19.5,16.4,20.7,32.7c6.4-12.9,17.2-20.4,29.9-20.4
				c8.8,0,17.9,3.8,25.6,10.6c0.3,0.3,0.5,0.7,0.5,1.2c0,0.5-0.2,0.9-0.5,1.2c-9.5,8.8-16.3,27.6-22.8,45.8
				c-5.4,15-10.5,29.3-17.2,38.6C444.5,364.6,444,364.9,443.5,364.9z M217.1,361.7h225.6c6.2-9,11.1-22.7,16.3-37.1
				c6.4-17.8,13-36.1,22.4-45.8c-6.8-5.6-14.6-8.7-22.2-8.7c-13.7,0-24.9,9.8-30,26.1c-0.2,0.8-1,1.2-1.8,1.1
				c-0.8-0.2-1.4-0.9-1.3-1.7c1.7-19.7-8.2-35.8-18.1-37.9c-1-0.2-2.1-0.3-3.2-0.3c-15.9,0-33.2,23.6-38.7,34.4
				c-0.3,0.7-1.1,1-1.8,0.8c-0.7-0.2-1.2-0.8-1.2-1.5c-0.7-22.8-12.2-34.9-33.1-34.9c-20.9,0-32.3,12.1-33,34.9
				c0,0.7-0.5,1.3-1.2,1.5c-0.7,0.2-1.4-0.2-1.8-0.8c-3.5-6.8-21.2-34.4-38.7-34.4c-1.1,0-2.1,0.1-3.2,0.3
				c-9.9,2.1-19.8,18.1-18.1,37.9c0.1,0.8-0.5,1.5-1.3,1.7c-0.8,0.2-1.6-0.3-1.8-1.1c-5.1-16.4-16.3-26.1-30-26.1
				c-7.6,0-15.4,3.1-22.2,8.7c9.4,9.7,16,28,22.3,45.8C206,339,210.9,352.7,217.1,361.7z"/>
			<path style="clip-path:url(#SVGID_00000178182929553953589170000010505024094777853874_);" d="M443.1,363.3
				c0,9.4-50.7,19.8-113.2,19.8c-62.5,0-113.2-10.4-113.2-19.8c0-9.4,50.7-14.4,113.2-14.4C392.4,348.9,443.1,353.9,443.1,363.3"/>
			<path style="clip-path:url(#SVGID_00000178182929553953589170000010505024094777853874_);" d="M329.9,384.3
				c-61,0-114.4-9.8-114.4-21c0-14.4,87.6-15.6,114.4-15.6c26.8,0,114.4,1.1,114.4,15.6C444.3,374.5,390.8,384.3,329.9,384.3z
				 M329.9,350.1c-73.6,0-112.1,6.6-112.1,13.2c0,7.5,47.1,18.6,112.1,18.6c65,0,112-11.1,112-18.6
				C441.9,356.8,403.4,350.1,329.9,350.1z"/>
			<path style="clip-path:url(#SVGID_00000178182929553953589170000010505024094777853874_);fill:#FFD83D;" d="M329.9,180.8
				c2.9,0,5.3,2.6,5.3,5.9c0,3.3-2.4,5.9-5.3,5.9c-2.9,0-5.3-2.7-5.3-5.9C324.6,183.5,327,180.8,329.9,180.8"/>
			<path style="clip-path:url(#SVGID_00000178182929553953589170000010505024094777853874_);" d="M329.9,193.8
				c-3.6,0-6.5-3.2-6.5-7.1c0-3.9,2.9-7.1,6.5-7.1c3.6,0,6.5,3.2,6.5,7.1C336.3,190.7,333.4,193.8,329.9,193.8z M329.9,182
				c-2.3,0-4.1,2.1-4.1,4.7c0,2.6,1.8,4.7,4.1,4.7c2.3,0,4.1-2.1,4.1-4.7C334,184.1,332.1,182,329.9,182z"/>
			<path style="clip-path:url(#SVGID_00000178182929553953589170000010505024094777853874_);fill:#FFD83D;" d="M329.9,193.2
				c3.1,0,5.6,2.8,5.6,6.3c0,3.5-2.5,6.3-5.6,6.3c-3.1,0-5.6-2.8-5.6-6.3C324.2,196.1,326.8,193.2,329.9,193.2"/>
			<path style="clip-path:url(#SVGID_00000178182929553953589170000010505024094777853874_);" d="M329.9,207c-3.8,0-6.8-3.4-6.8-7.5
				c0-4.1,3.1-7.5,6.8-7.5c3.8,0,6.8,3.4,6.8,7.5C336.7,203.7,333.6,207,329.9,207z M329.9,194.4c-2.4,0-4.4,2.3-4.4,5.1
				c0,2.8,2,5.1,4.4,5.1c2.4,0,4.4-2.3,4.4-5.1C334.3,196.7,332.3,194.4,329.9,194.4z"/>
			<path style="clip-path:url(#SVGID_00000178182929553953589170000010505024094777853874_);fill:#FFD83D;" d="M329.9,206.4
				c3.4,0,6.1,3.1,6.1,6.9c0,3.8-2.7,6.9-6.1,6.9c-3.4,0-6.2-3.1-6.2-6.9C323.7,209.5,326.5,206.4,329.9,206.4"/>
			<path style="clip-path:url(#SVGID_00000178182929553953589170000010505024094777853874_);" d="M329.9,221.4
				c-4.1,0-7.3-3.6-7.3-8.1c0-4.5,3.3-8.1,7.3-8.1c4,0,7.3,3.6,7.3,8.1C337.2,217.8,333.9,221.4,329.9,221.4z M329.9,207.6
				c-2.7,0-5,2.5-5,5.7c0,3.1,2.2,5.7,5,5.7c2.7,0,4.9-2.6,4.9-5.7C334.8,210.2,332.6,207.6,329.9,207.6z"/>
			<path style="clip-path:url(#SVGID_00000178182929553953589170000010505024094777853874_);fill:#FFD83D;" d="M329.9,220.8
				c3.9,0,7,3.5,7,7.9c0,4.3-3.1,7.9-7,7.9c-3.9,0-7-3.5-7-7.9C322.9,224.3,326,220.8,329.9,220.8"/>
			<path style="clip-path:url(#SVGID_00000178182929553953589170000010505024094777853874_);" d="M329.9,237.7
				c-4.5,0-8.2-4.1-8.2-9.1c0-5,3.7-9.1,8.2-9.1c4.5,0,8.2,4.1,8.2,9.1C338.1,233.6,334.4,237.7,329.9,237.7z M329.9,222
				c-3.2,0-5.8,3-5.8,6.7c0,3.7,2.6,6.7,5.8,6.7c3.2,0,5.8-3,5.8-6.7C335.7,225,333.1,222,329.9,222z"/>
			<path style="clip-path:url(#SVGID_00000178182929553953589170000010505024094777853874_);fill:#FFD83D;" d="M329.9,237.1
				c4.3,0,7.7,3.9,7.7,8.6c0,4.8-3.5,8.6-7.7,8.6c-4.3,0-7.7-3.9-7.7-8.6C322.2,240.9,325.6,237.1,329.9,237.1"/>
			<path style="clip-path:url(#SVGID_00000178182929553953589170000010505024094777853874_);" d="M329.9,255.5
				c-4.9,0-8.9-4.4-8.9-9.8c0-5.4,4-9.8,8.9-9.8c4.9,0,8.9,4.4,8.9,9.8C338.8,251.1,334.8,255.5,329.9,255.5z M329.9,238.3
				c-3.6,0-6.5,3.3-6.5,7.4c0,4.1,2.9,7.4,6.5,7.4c3.6,0,6.5-3.3,6.5-7.4C336.4,241.6,333.5,238.3,329.9,238.3z"/>
			<path style="clip-path:url(#SVGID_00000178182929553953589170000010505024094777853874_);" d="M326.8,262.3
				c-0.8,0-1.6,0.8-1.4,2.3c0.2,1.8,0.6,5.1,0.8,7.3c0.3,2.5,1.6,1.9,2-0.1c0.3-2,0.2-3.2,0.3-6.9
				C328.5,263.1,327.6,262.3,326.8,262.3 M332.9,262.3c-0.8,0-1.7,0.8-1.7,2.6c0.1,3.6,0,4.9,0.3,6.9c0.3,2,1.6,2.6,2,0.1
				c0.3-2.2,0.6-5.5,0.8-7.3C334.6,263.1,333.8,262.3,332.9,262.3 M321.3,263.2c-0.8,0.1-1.6,1-1.5,1.9c0.1,1.7,0.5,3.7,0.7,6.2
				c0.2,2.6,1.8,1.6,2,0.1c0.2-1.5,0.4-3.7,0.2-6.6c-0.1-1.1-0.5-1.6-1-1.6C321.6,263.2,321.5,263.2,321.3,263.2 M338.1,263.2
				c-0.5,0.1-0.9,0.6-1,1.6c-0.2,2.9,0,5.1,0.2,6.6c0.2,1.5,1.8,2.5,2-0.1c0.2-2.5,0.6-4.5,0.7-6.2c0-0.9-0.7-1.8-1.5-1.9
				C338.3,263.2,338.2,263.2,338.1,263.2 M314.8,266.2c-0.7,0.2-1.3,1.1-1.1,2.2c0.4,2.2,0.8,4.5,0.8,6.7c0,1.9,1.4,1.2,1.5-0.1
				c0.1-1.3,0.2-4.1,0.2-6.6C316.2,266.5,315.5,266,314.8,266.2 M344.5,266.2c-0.5,0.2-0.9,0.8-0.9,2.2c0,2.5,0.1,5.3,0.2,6.6
				c0.1,1.3,1.5,2,1.5,0.1c0-2.2,0.4-4.6,0.8-6.7c0.2-1.1-0.4-2-1.1-2.2C344.8,266.1,344.6,266.1,344.5,266.2 M255.4,266.5
				c-0.8,0-1.4,1.2-0.8,2.6c0.9,2.2,1.9,3.7,2.8,6.1c0.8,2.2,2.1,0.8,1.7-0.7c-0.4-1.5-0.9-3.2-2.1-6.3
				C256.5,267,255.9,266.5,255.4,266.5 M404.3,266.5c-0.5,0-1.1,0.5-1.6,1.7c-1.3,3.2-1.7,4.8-2.1,6.3c-0.4,1.5,0.9,2.8,1.7,0.7
				c0.9-2.4,1.9-3.8,2.8-6.1C405.8,267.7,405.2,266.5,404.3,266.5 M261.4,266.6c-0.6,0.2-1,1.1-0.6,2.1c0.8,2.1,1.8,4.2,2.6,6.4
				c0.7,2,2.2,1.4,1.6-0.4c-0.5-1.8-0.6-2.8-1.6-6.2C262.9,266.9,262.1,266.4,261.4,266.6 M397.8,266.6c-0.5,0.1-1.1,0.7-1.5,2
				c-1,3.4-1.1,4.4-1.6,6.2c-0.5,1.8,1,2.3,1.6,0.4c0.8-2.2,1.8-4.3,2.6-6.4c0.4-1,0-1.9-0.6-2.1C398.2,266.5,398,266.6,397.8,266.6
				 M269,268.2c-0.8,0.2-1.4,1.5-0.8,3.1c0.7,2.1,1.6,4,2.4,6.3c0.8,2.3,2.2,1.9,1.9,0.4c-0.3-1.5-0.7-4-1.7-7.7
				C270.3,268.7,269.6,268.1,269,268.2 M390.8,268.2c-0.6-0.1-1.3,0.5-1.7,2.1c-1,3.7-1.4,6.2-1.7,7.7c-0.3,1.5,1,2,1.9-0.4
				c0.8-2.3,1.8-4.3,2.5-6.3C392.1,269.7,391.5,268.4,390.8,268.2 M250.3,269.4c-0.8,0.1-1.6,1.6-1.1,2.8c0.8,1.9,1.4,2.5,2.2,4.5
				c0.8,2.1,1.7,0.5,1.4-0.8c-0.3-1.3-0.8-2.8-1.2-4.7C251.3,269.8,250.8,269.3,250.3,269.4 M409.4,269.4c-0.5-0.1-1,0.4-1.3,1.7
				c-0.4,1.9-0.8,3.4-1.2,4.7c-0.3,1.3,0.6,2.9,1.4,0.8c0.8-2,1.3-2.6,2.2-4.5C411,271,410.3,269.5,409.4,269.4 M308.4,274.1
				c-0.9,0-1.8,1.3-1.5,2.5c0.5,2,1.3,3.7,1.8,6.2c0.5,2.2,1.9,1.1,1.8-0.4c-0.1-1.5-0.3-3.5-0.9-6.7
				C309.4,274.6,308.9,274.1,308.4,274.1 M351.3,274.1c-0.5,0-1.1,0.5-1.3,1.7c-0.6,3.2-0.8,5.2-0.9,6.7c-0.1,1.5,1.3,2.6,1.8,0.4
				c0.6-2.5,1.3-4.3,1.8-6.2C353.2,275.4,352.2,274.1,351.3,274.1 M329.9,276.1c-1.1,0-1.2,1.6-1.3,3c-0.1,4.3-1.7,8.6-3.1,10.7
				c-1.4,2.1-3.4,1.5-5.3,0.4c-1.9-1.1-3-2-5-3.6c-2-1.7-3.5-0.7-1.1,3.1c7,11.1,14.5,20.6,14.5,38.7c0,2.3,0.4,3.1,1.3,3.1
				c0.9,0,1.3-0.7,1.3-3.1c0-18.1,7.5-27.6,14.5-38.7c2.4-3.8,0.9-4.8-1.1-3.1c-2,1.7-3.1,2.5-5,3.6c-1.9,1.1-3.9,1.7-5.3-0.4
				c-1.4-2.1-3-6.3-3.1-10.7C331.1,277.8,331,276.1,329.9,276.1 M276.7,273.4c-0.1,0-0.2,0-0.3,0c-0.4,0.1-0.7,0.7-0.5,1.6
				c0.3,1.7,1.3,5,1.7,6.6c0.4,1.6,2.2,1.2,1.7-0.9c-0.4-2.1-0.4-2.8-0.9-5.2C278.2,274.2,277.4,273.4,276.7,273.4 M383,273.4
				c-0.7,0-1.5,0.8-1.8,2.2c-0.5,2.4-0.5,3.1-0.9,5.2c-0.4,2.1,1.3,2.5,1.7,0.9c0.4-1.6,1.5-4.9,1.7-6.6c0.2-0.9-0.1-1.5-0.5-1.6
				C383.2,273.4,383.1,273.4,383,273.4 M245.1,274.1c-0.9,0.1-1.5,1.3-0.6,3.1c1,2,2.6,4.4,3.3,5.8c0.7,1.4,2,0.5,1.1-1.3
				c-0.9-1.8-1.2-3.8-2.3-6.3C246.2,274.4,245.6,274,245.1,274.1 M414.7,274.1c-0.5-0.1-1.1,0.3-1.6,1.3c-1.1,2.5-1.4,4.5-2.3,6.3
				c-0.9,1.8,0.4,2.7,1.1,1.3c0.8-1.4,2.4-3.8,3.3-5.8C416.1,275.4,415.5,274.2,414.7,274.1 M197.3,279.7c-1-0.1-1.3,2-0.4,3.3
				c1.4,2,2.3,3,3.9,4.6c1.2,1.3,1.6-0.4,1-1.6c-0.6-1.3-1.5-2.5-2.8-4.6C198.4,280.2,197.8,279.7,197.3,279.7 M462.4,279.7
				c-0.5,0-1.1,0.5-1.7,1.6c-1.3,2.1-2.2,3.4-2.8,4.6c-0.6,1.3-0.3,2.9,1,1.6c1.6-1.6,2.5-2.6,3.9-4.6
				C463.7,281.7,463.4,279.6,462.4,279.7 M204.9,281.4c-0.8,0-1.3,0.7-0.7,2.2c0.9,2.2,2.1,4.7,2.8,6.4c0.7,1.7,3,2.2,2.1-0.4
				c-0.9-2.6-1.1-4-1.9-6.4C206.8,282,205.7,281.4,204.9,281.4 M454.8,281.4c-0.8,0-1.9,0.6-2.3,1.8c-0.8,2.4-1,3.8-1.9,6.4
				c-0.9,2.6,1.4,2,2.1,0.4c0.7-1.7,1.9-4.2,2.8-6.4C456.2,282.1,455.6,281.4,454.8,281.4 M190.2,282c-1.2,0-1.3,1.3-0.2,2.2
				c1.4,1.1,3,2.4,4.6,3.8c1.9,1.7,2.6,0.1,1.6-1.3c-1-1.4-2-2.8-4.5-4.2C191.1,282.1,190.6,282,190.2,282 M469.5,282
				c-0.4,0-0.9,0.1-1.5,0.5c-2.5,1.4-3.5,2.8-4.5,4.2c-1,1.4-0.3,2.9,1.6,1.3c1.6-1.4,3.2-2.7,4.6-3.8
				C470.8,283.3,470.7,282,469.5,282 M304.2,283.2c-0.7,0.1-1.2,0.9-0.9,2c0.5,2,1.1,4,1.4,6.1c0.3,2,2.4,2,2,0.2
				c-0.3-1.8-0.5-4-1.1-6.7c-0.2-1-0.7-1.5-1.1-1.6C304.4,283.2,304.3,283.2,304.2,283.2 M355.2,283.2c-0.5,0.1-0.9,0.6-1.1,1.6
				c-0.6,2.7-0.7,4.9-1.1,6.7c-0.3,1.8,1.7,1.8,2-0.2c0.3-2,0.9-4.1,1.4-6.1c0.3-1.1-0.3-1.9-0.9-2
				C355.4,283.2,355.3,283.2,355.2,283.2 M258.9,279.8c-0.5,0.2-0.8,1.3-0.4,2.8c2.1,8.5,2.8,13,2.4,15.1c-0.4,2.1-1.4,2.4-2.8,1.7
				c-1.4-0.7-3-1.7-4.2-2.7c-1.3-1-2.6,0.2-0.8,1.8c9.1,8.4,15.5,18,17.9,29.7c0.5,2.4,1.8,2.7,1.5,0c-2.1-14.7-2.5-26.7,0.7-34.3
				c1.2-2.8,0-5.6-1.9-1c-1.2,3.1-3.3,4.3-4.9,1.6c-1.6-2.7-5-9.8-6-13c-0.4-1.2-0.8-1.8-1.2-1.9C259,279.8,259,279.8,258.9,279.8
				 M400.6,279.8c-0.4,0.1-0.8,0.6-1.2,1.9c-1,3.2-4.4,10.3-6,13c-1.6,2.7-3.6,1.4-4.9-1.6c-1.9-4.6-3.1-1.9-1.9,1
				c3.1,7.6,2.7,19.6,0.7,34.3c-0.4,2.7,1,2.4,1.5,0c2.4-11.7,8.8-21.3,17.9-29.7c1.8-1.7,0.5-2.8-0.8-1.8c-1.2,1-2.9,2-4.2,2.7
				c-1.4,0.7-2.4,0.4-2.8-1.7c-0.4-2.1,0.3-6.6,2.4-15.1c0.4-1.5,0.1-2.6-0.4-2.8C400.8,279.8,400.7,279.8,400.6,279.8 M213,283.9
				c-0.8,0-1.5,0.7-1.1,2.1c0.6,2.2,1.8,4.7,2.3,6.1c0.4,1.4,1.8,0.7,1.5-1.2c-0.3-2-0.4-3.1-0.7-5.3
				C214.8,284.5,213.8,283.9,213,283.9 M446.7,283.9c-0.8,0-1.8,0.6-1.9,1.6c-0.3,2.1-0.5,3.3-0.7,5.3c-0.2,2,1.1,2.6,1.5,1.2
				c0.4-1.4,1.7-3.8,2.3-6.1C448.2,284.6,447.5,283.9,446.7,283.9 M241.3,281c-1-0.2-1.1,2.6-0.3,3.7c1.1,1.5,2.6,3.3,4.1,5.3
				c1.2,1.7,2,0.2,1.3-1.2c-0.8-1.4-1.9-2.9-3.9-6.4C242,281.5,241.6,281.1,241.3,281 M418.4,281c-0.3,0.1-0.7,0.5-1.2,1.4
				c-2,3.6-3.1,5-3.9,6.4c-0.8,1.4,0,2.9,1.3,1.2c1.5-2,3-3.8,4.1-5.3C419.5,283.6,419.4,280.8,418.4,281 M219.5,287.7
				c-0.6,0-1.1,0.5-0.9,1.8c0.4,1.9,0.9,3.5,1.3,5.2c0.4,1.8,1.5,1.5,1.5-0.2c0-1.7-0.3-3.6-0.5-5.3
				C220.8,288.3,220.1,287.7,219.5,287.7 M440.3,287.7c-0.6,0-1.3,0.6-1.4,1.5c-0.2,1.8-0.5,3.6-0.5,5.3c0,1.7,1.1,2,1.5,0.2
				c0.4-1.8,0.9-3.3,1.3-5.2C441.4,288.2,440.9,287.6,440.3,287.7 M239.2,290.1c-0.9,0.2-1.8,1.2-0.7,2.7c1.7,2.5,3.7,4.3,4.3,5.2
				c0.7,0.9,2.3,0.6,1.3-1.4c-1.1-2-2.8-4.4-3.5-5.9C240.3,290.2,239.8,290,239.2,290.1 M420.2,290.1c-0.4,0.1-0.8,0.3-1,0.7
				c-0.8,1.5-2.4,3.9-3.5,5.9c-1.1,2,0.6,2.3,1.3,1.4c0.7-0.9,2.6-2.7,4.3-5.2c1.1-1.6,0.3-2.6-0.7-2.7
				C420.4,290.1,420.3,290.1,420.2,290.1 M208.1,297.1c-0.7-0.1-1,0.6,0,2.1c2.3,3.5,4.7,8.7,4.9,10.9c0.2,2.2-0.8,2.2-1.7,2.2
				c-2.8,0-4.1-2.2-6.6-2.9c-2.5-0.7-2.9,0.8-1.1,2.3c9.2,7.5,18.4,15.8,22,23.4c1.5,3.1,3.5,4.2,2.4,1.3c-3.4-9-4.3-16.6-3.5-21.3
				c0.7-4.6,1.8-7.7,1.6-10.4c-0.1-2.7-1.5-2.5-2,0c-0.4,1.7-1.1,3.9-1.6,4.7c-0.5,0.8-2.5,1.3-4.4-1.6c-1.9-2.9-6.8-8.5-8.3-9.9
				C209.1,297.5,208.5,297.2,208.1,297.1 M451.7,297.1c-0.4,0-1.1,0.4-1.6,0.9c-1.6,1.4-6.4,7-8.3,9.9c-1.9,2.9-3.9,2.4-4.4,1.6
				c-0.5-0.8-1.2-3.1-1.6-4.7c-0.6-2.5-1.9-2.7-2,0c-0.1,2.7,0.9,5.8,1.7,10.4c0.8,4.6-0.1,12.2-3.5,21.3c-1.1,2.9,0.9,1.8,2.4-1.3
				c3.7-7.6,12.9-15.9,22-23.4c1.8-1.5,1.4-2.9-1.1-2.3c-2.5,0.7-3.8,2.9-6.6,2.9c-0.9,0-1.9,0-1.7-2.2c0.2-2.2,2.6-7.5,4.9-10.9
				C452.7,297.7,452.4,297,451.7,297.1"/>
			<path style="clip-path:url(#SVGID_00000178182929553953589170000010505024094777853874_);fill:#FFD83D;" d="M221.6,352.5
				l2.9,10.4 M227.6,350.6l2.6,10.5 M234.2,349.3l1.8,10.8 M240.2,348l1.9,10.7 M248,347.1l1.6,10.8 M256.3,347.1l1.7,10.8
				 M264.3,344.1l1.2,10.9 M271.9,344.6l1.2,10.8 M279.3,343.5l1.2,10.8 M286.6,342.7l0.7,10.9 M294.5,342.7l0.6,10.9 M301.7,342.1
				l0.5,10.9 M309.5,341.6l0.4,10.9 M318.6,341.3l0.4,10.9 M438.2,352.5l-2.9,10.4 M432.1,350.6l-2.6,10.5 M425.6,349.3l-1.8,10.8
				 M419.5,348l-1.9,10.7 M411.7,347.1l-1.6,10.8 M403.5,347.1l-1.7,10.8 M395.4,344.1l-1.2,10.9 M387.8,344.6l-1.2,10.8
				 M380.5,343.5l-1.2,10.8 M373.1,342.7l-0.7,10.9 M365.2,342.7l-0.6,10.9 M358.1,342.1l-0.5,10.9 M350.2,341.6l-0.4,10.9
				 M341.1,341.3l-0.4,10.9 M329.9,340.6v12"/>
			<path style="clip-path:url(#SVGID_00000178182929553953589170000010505024094777853874_);" d="M435.2,364.1c-0.1,0-0.2,0-0.3,0
				c-0.6-0.2-1-0.8-0.8-1.5l2.9-10.4c0.2-0.6,0.8-1,1.5-0.8c0.6,0.2,1,0.8,0.8,1.5l-2.9,10.4C436.2,363.8,435.7,364.1,435.2,364.1z
				 M224.5,364.1c-0.5,0-1-0.3-1.2-0.9l-2.9-10.4c-0.2-0.6,0.2-1.3,0.8-1.5c0.6-0.2,1.3,0.2,1.5,0.8l2.9,10.4
				c0.2,0.6-0.2,1.3-0.8,1.5C224.7,364.1,224.6,364.1,224.5,364.1z M230.2,362.3c-0.5,0-1-0.4-1.2-0.9l-2.6-10.5
				c-0.2-0.6,0.2-1.3,0.9-1.4c0.6-0.2,1.3,0.2,1.4,0.9l2.6,10.5c0.2,0.6-0.2,1.3-0.9,1.4C230.4,362.3,230.3,362.3,230.2,362.3z
				 M429.5,362.3c-0.1,0-0.2,0-0.3,0c-0.6-0.2-1-0.8-0.9-1.4l2.6-10.5c0.2-0.6,0.8-1,1.4-0.9c0.6,0.2,1,0.8,0.9,1.4l-2.6,10.5
				C430.5,361.9,430,362.3,429.5,362.3z M423.8,361.3c-0.1,0-0.1,0-0.2,0c-0.7-0.1-1.1-0.7-1-1.4l1.8-10.8c0.1-0.7,0.7-1.1,1.4-1
				c0.7,0.1,1.1,0.7,1,1.4l-1.8,10.8C424.9,360.9,424.4,361.3,423.8,361.3z M236,361.3c-0.6,0-1.1-0.4-1.2-1l-1.8-10.8
				c-0.1-0.7,0.3-1.3,1-1.4c0.7-0.1,1.3,0.3,1.4,1l1.8,10.8c0.1,0.7-0.3,1.3-1,1.4C236.1,361.3,236,361.3,236,361.3z M417.6,359.9
				c-0.1,0-0.1,0-0.2,0c-0.7-0.1-1.1-0.7-1-1.4l1.9-10.7c0.1-0.7,0.7-1.1,1.4-1c0.7,0.1,1.1,0.7,1,1.4l-1.9,10.7
				C418.7,359.5,418.2,359.9,417.6,359.9z M242.1,359.9c-0.6,0-1.1-0.4-1.2-1l-1.9-10.7c-0.1-0.7,0.3-1.3,1-1.4
				c0.7-0.1,1.3,0.3,1.4,1l1.9,10.7c0.1,0.7-0.3,1.3-1,1.4C242.3,359.9,242.2,359.9,242.1,359.9z M410.2,359.1c-0.1,0-0.1,0-0.2,0
				c-0.7-0.1-1.1-0.7-1-1.4l1.6-10.8c0.1-0.7,0.7-1.1,1.4-1c0.7,0.1,1.1,0.7,1,1.4l-1.6,10.8C411.3,358.7,410.8,359.1,410.2,359.1z
				 M249.6,359.1c-0.6,0-1.1-0.4-1.2-1l-1.6-10.8c-0.1-0.7,0.4-1.3,1-1.4c0.7-0.1,1.3,0.4,1.4,1l1.6,10.8c0.1,0.7-0.4,1.3-1,1.4
				C249.7,359.1,249.6,359.1,249.6,359.1z M257.9,359.1c-0.6,0-1.1-0.4-1.2-1l-1.7-10.8c-0.1-0.7,0.3-1.3,1-1.4
				c0.6-0.1,1.3,0.3,1.4,1l1.7,10.8c0.1,0.7-0.3,1.3-1,1.4C258.1,359.1,258,359.1,257.9,359.1z M401.8,359.1c-0.1,0-0.1,0-0.2,0
				c-0.7-0.1-1.1-0.7-1-1.4l1.7-10.8c0.1-0.7,0.7-1.1,1.4-1c0.7,0.1,1.1,0.7,1,1.4l-1.7,10.8C402.9,358.7,402.4,359.1,401.8,359.1z
				 M386.6,356.7c0,0-0.1,0-0.1,0c-0.7-0.1-1.1-0.7-1.1-1.3l1.2-10.8c0.1-0.7,0.7-1.1,1.3-1.1c0.7,0.1,1.1,0.7,1.1,1.3l-1.2,10.8
				C387.7,356.2,387.2,356.7,386.6,356.7z M273.1,356.7c-0.6,0-1.1-0.5-1.2-1.1l-1.2-10.8c-0.1-0.7,0.4-1.2,1.1-1.3
				c0.7-0.1,1.2,0.4,1.3,1.1l1.2,10.8c0.1,0.7-0.4,1.2-1.1,1.3C273.2,356.7,273.2,356.7,273.1,356.7z M265.5,356.1
				c-0.6,0-1.1-0.5-1.2-1.1l-1.2-10.9c-0.1-0.7,0.4-1.2,1.1-1.3c0.7-0.1,1.2,0.4,1.3,1.1l1.2,10.9c0.1,0.7-0.4,1.2-1.1,1.3
				C265.6,356.1,265.6,356.1,265.5,356.1z M394.2,356.1c0,0-0.1,0-0.1,0c-0.7-0.1-1.1-0.7-1.1-1.3l1.2-10.9c0.1-0.7,0.7-1.1,1.3-1.1
				c0.7,0.1,1.1,0.7,1.1,1.3l-1.2,10.9C395.3,355.7,394.8,356.1,394.2,356.1z M379.3,355.6c0,0-0.1,0-0.1,0
				c-0.7-0.1-1.1-0.7-1.1-1.3l1.2-10.8c0.1-0.7,0.7-1.1,1.3-1.1c0.7,0.1,1.1,0.7,1.1,1.3l-1.2,10.8
				C380.4,355.1,379.9,355.6,379.3,355.6z M280.5,355.6c-0.6,0-1.1-0.5-1.2-1.1l-1.2-10.8c-0.1-0.7,0.4-1.2,1.1-1.3
				c0.7-0.1,1.2,0.4,1.3,1.1l1.2,10.8c0.1,0.7-0.4,1.2-1.1,1.3C280.6,355.6,280.5,355.6,280.5,355.6z M364.6,354.8
				C364.6,354.8,364.6,354.8,364.6,354.8c-0.7,0-1.2-0.6-1.2-1.3l0.6-10.9c0-0.7,0.6-1.1,1.3-1.1c0.7,0,1.2,0.6,1.1,1.3l-0.6,10.9
				C365.8,354.3,365.3,354.8,364.6,354.8z M295.1,354.8c-0.6,0-1.2-0.5-1.2-1.1l-0.6-10.9c0-0.7,0.5-1.2,1.1-1.3
				c0.6,0,1.2,0.5,1.3,1.1l0.6,10.9C296.3,354.2,295.8,354.8,295.1,354.8C295.1,354.8,295.1,354.8,295.1,354.8z M372.4,354.8
				C372.4,354.8,372.4,354.8,372.4,354.8c-0.7,0-1.2-0.6-1.2-1.3l0.7-10.9c0-0.7,0.6-1.1,1.3-1.1c0.7,0,1.2,0.6,1.1,1.3l-0.7,10.9
				C373.6,354.3,373.1,354.8,372.4,354.8z M287.3,354.8c-0.6,0-1.2-0.5-1.2-1.1l-0.7-10.9c0-0.7,0.5-1.2,1.1-1.3
				c0.6,0,1.2,0.5,1.3,1.1l0.7,10.9C288.5,354.2,288,354.7,287.3,354.8C287.4,354.8,287.3,354.8,287.3,354.8z M357.6,354.2
				C357.6,354.2,357.5,354.2,357.6,354.2c-0.7,0-1.2-0.6-1.2-1.3l0.5-10.9c0-0.7,0.5-1.2,1.2-1.1c0.7,0,1.2,0.6,1.1,1.2l-0.5,10.9
				C358.7,353.7,358.2,354.2,357.6,354.2z M302.2,354.2c-0.6,0-1.2-0.5-1.2-1.1l-0.5-10.9c0-0.7,0.5-1.2,1.1-1.2
				c0.7,0,1.2,0.5,1.2,1.1l0.5,10.9C303.4,353.7,302.9,354.2,302.2,354.2C302.2,354.2,302.2,354.2,302.2,354.2z M329.9,353.8
				c-0.7,0-1.2-0.5-1.2-1.2v-12c0-0.7,0.5-1.2,1.2-1.2c0.7,0,1.2,0.5,1.2,1.2v12C331.1,353.3,330.5,353.8,329.9,353.8z M310,353.7
				c-0.6,0-1.2-0.5-1.2-1.2l-0.4-10.9c0-0.7,0.5-1.2,1.2-1.2c0,0,0,0,0,0c0.6,0,1.2,0.5,1.2,1.2l0.4,10.9
				C311.2,353.1,310.7,353.7,310,353.7C310,353.7,310,353.7,310,353.7z M349.8,353.7C349.8,353.7,349.8,353.7,349.8,353.7
				c-0.7,0-1.2-0.6-1.2-1.2l0.4-10.9c0-0.6,0.6-1.2,1.2-1.2c0,0,0,0,0,0c0.7,0,1.2,0.6,1.2,1.2l-0.4,10.9
				C351,353.2,350.4,353.7,349.8,353.7z M340.7,353.4C340.7,353.4,340.7,353.4,340.7,353.4c-0.7,0-1.2-0.6-1.2-1.2l0.4-10.9
				c0-0.7,0.6-1.2,1.2-1.2c0.7,0,1.2,0.6,1.2,1.2l-0.4,10.9C341.9,352.9,341.4,353.4,340.7,353.4z M319,353.4
				c-0.6,0-1.2-0.5-1.2-1.2l-0.4-10.9c0-0.7,0.5-1.2,1.2-1.2c0.6,0,1.2,0.5,1.2,1.2l0.4,10.9C320.2,352.8,319.7,353.4,319,353.4
				C319,353.4,319,353.4,319,353.4z"/>
		</g>
	</g>
</g>
</svg>
