<?xml version="1.0" encoding="utf-8"?>
<!-- Generator: Adobe Illustrator 28.0.0, SVG Export Plug-In . SVG Version: 6.00 Build 0)  -->
<svg version="1.1" id="Layer_1" xmlns="http://www.w3.org/2000/svg" xmlns:xlink="http://www.w3.org/1999/xlink" x="0px" y="0px"
	 viewBox="0 0 1000 1000" style="enable-background:new 0 0 1000 1000;" xml:space="preserve">
<style type="text/css">
	.st0{fill:#CB1D23;}
	.st1{fill:#F7DE29;}
	.st2{clip-path:url(#SVGID_00000036949748667771369680000010350198900884797113_);}
	.st3{fill:#FAC60C;}
	.st4{fill:#FEFFFF;}
</style>
<path class="st0" d="M13,500c0,268.7,217.8,486.5,486.5,486.5v-973C230.8,13.5,13,231.3,13,500z"/>
<g>
	<path class="st1" d="M124,509.7l20.5-66.6l-53.6-41.3l66.4-0.1l20.6-66.6l20.6,66.6l66.4,0.1L211.3,443l20.4,66.8l-53.8-41.2
		L124,509.7z"/>
	<path class="st1" d="M309.2,545.8l22.4,9.5l15.5-19.5l-1.6,25.5l22.3,9.6l-23.5,6.2l-1.7,25.5L329.8,581l-23.5,6.1l15.5-19.6
		L309.2,545.8z"/>
	<path class="st1" d="M430.4,417.7l-23.8-4.4l-11.4,22.4l-3.4-25.2L368,406l21.7-11.2l-3.4-25.3l16.8,18.3l21.8-11l-11.4,22.4
		L430.4,417.7z"/>
	<path class="st1" d="M379.9,531.8l7.4-24.2l-19.4-15.1H392l7.4-24.2l7.6,24.2l24.1,0.1l-19.4,15l7.3,24.2l-19.6-15L379.9,531.8z"/>
	<path class="st1" d="M310.3,310.3l21.9,10.7l16.6-18.6l-3,25.3l21.9,10.9l-23.7,4.8l-3,25.3l-11.7-22.3l-23.8,4.8l16.4-18.6
		L310.3,310.3z"/>
</g>
<g>
	<g>
		<defs>
			<path id="SVGID_1_" d="M499.5,13.5v973C768.2,986.5,986,768.7,986,500S768.2,13.5,499.5,13.5z"/>
		</defs>
		<use xlink:href="#SVGID_1_"  style="overflow:visible;fill:#087F67;"/>
		<clipPath id="SVGID_00000097469502364710184960000002299387735729716615_">
			<use xlink:href="#SVGID_1_"  style="overflow:visible;"/>
		</clipPath>
		<g style="clip-path:url(#SVGID_00000097469502364710184960000002299387735729716615_);">
			<polygon class="st3" points="708.4,373.4 729.3,358.2 750.2,373.4 742.2,348.8 763.1,333.7 737.2,333.7 729.3,309.2 721.3,333.7 
				695.5,333.7 716.4,348.8 			"/>
			<polygon class="st3" points="580,447.1 594.8,438.6 607.5,450.1 603.9,433.4 618.8,424.8 601.7,423 598.2,406.3 591.2,421.9 
				574.2,420.1 587,431.6 			"/>
			<polygon class="st3" points="851,450.1 863.8,438.6 878.6,447.1 871.6,431.6 884.4,420.1 867.3,421.9 860.4,406.3 856.8,423 
				839.8,424.8 854.6,433.4 			"/>
			<polygon class="st3" points="638.9,378.1 643.9,395.3 650,378.5 667.9,379.1 653.8,368.1 660,351.3 645,361.3 631,350.2 
				635.9,367.4 621,377.5 			"/>
			<polygon class="st3" points="808.6,378.5 814.7,395.3 819.6,378.1 837.6,377.5 822.7,367.4 827.6,350.2 813.5,361.3 798.6,351.3 
				804.8,368.1 790.7,379.1 			"/>
			<path class="st4" d="M649,660.2h161c6.9-3.5,13.5-7.2,19.5-11.2h-200C635.5,653,642,656.7,649,660.2z"/>
			<path class="st4" d="M619,641.7h220.9c4.2-3.1,8.2-6.3,11.9-9.5H607.2C610.8,635.4,614.8,638.6,619,641.7z"/>
			<path class="st4" d="M730,679.2c26.5-0.1,49.8-5.8,69.7-14.3H659.3C679.4,673.5,703.1,679.3,730,679.2z"/>
			<path class="st4" d="M760.1,586.6c-14.6-6.6-24.7-15.3-30.7-21.3c-4.9,4.8-11.2,10.1-19.1,15c-15.4,9.4-30.1,13.2-40,14.9
				c-32.2,0.1-64.4,0.1-96.7,0.1c0.8,1.3,3.8,5.6,8.9,11.8h88.8c9-0.6,23.4-2.8,38.8-11.2c8.1-4.5,14.4-9.4,19-13.8
				c5.4,4.3,12.2,9,20.4,13.2c13.5,7,26.1,10.2,35.4,11.8c30.5,0,61.1,0,91.7,0c5.3-6.3,8.4-10.9,9.2-12.2
				c-31.4,0.1-62.7,0.1-94.1,0.2C783.8,594.2,772.5,592.2,760.1,586.6z"/>
			<path class="st4" d="M598,623.9h263c3-2.8,5.6-5.6,8.1-8.3H589.9C592.3,618.2,595,621,598,623.9z"/>
			<path class="st4" d="M844,562.4c29.2-17.8,40.3-44.4,43.4-52.5c-10.3-4.3-25.1-9-43.2-9.6c-42.6-1.4-73.2,20.7-83.2,28.6
				c7.2-7.5,21-19.7,41.8-28c19-7.6,35.9-8.7,46.1-8.6c3-4.2,6-8.4,9-12.5c-9.6-0.7-22.7-0.5-37.6,3.3
				c-30.1,7.7-49.1,25.9-57.4,34.9c6-8.2,15.3-23.2,18.9-44c6.1-34.3-7-61.2-11.8-70c-3.3,5.1-6.7,10.1-10.1,15.2
				c2.4,5.4,5.5,13.4,7.4,23.4c5,25.2,0,45.4-2.1,52.4c-2,6.9-5.6,16.8-12.4,27.6c5-9.7,14-30.2,12.5-56.8
				c-1.2-22.4-9.1-38.4-11.5-43c-8-15.2-18.1-25.2-24.6-30.8c-6.6,5.6-16.7,15.6-24.7,30.8c-2.4,4.6-10.3,20.6-11.5,43
				c-1.5,26.7,7.4,47.2,12.5,56.8c-6.8-10.8-10.4-20.7-12.4-27.6c-2-7-7.1-27.2-2.1-52.4c2-10,5-18,7.4-23.4
				c-3.4-5.1-6.8-10.1-10.1-15.2c-4.8,8.8-17.9,35.8-11.8,70c3.7,20.8,12.9,35.8,18.9,44c-8.3-9-27.3-27.2-57.4-34.9
				c-14.9-3.9-28-4-37.6-3.3c3,4.2,6.1,8.3,9,12.5c10.2-0.1,27.1,1,46.1,8.6c20.8,8.3,34.5,20.5,41.8,28
				c-10-7.9-40.6-30.1-83.2-28.6c-18.2,0.6-33,5.3-43.2,9.6c3,8.1,14.1,34.7,43.4,52.5c28.7,17.5,56.8,15.5,65.5,14.6
				c-4.8,1.4-11.7,2.9-20.2,3.1c-16.5,0.5-28.8-4.3-37.2-7.6c-15.9-6.3-27.9-15.1-36.2-22.7c-4.3,0.8-8.7,1.6-13,2.4
				c3.9,4.4,35.4,39.6,85.3,36.8c40.1-2.2,65.2-27.4,70.6-33.3c5.5,5.8,30.4,31.1,70.6,33.3c49.9,2.7,81.5-32.4,85.3-36.8
				c-4.3-0.8-8.7-1.6-13-2.4c-8.3,7.6-20.3,16.5-36.2,22.7c-8.4,3.3-20.7,8.1-37.2,7.6c-8.5-0.2-15.4-1.8-20.2-3.1
				C787.1,577.9,815.3,579.8,844,562.4z"/>
		</g>
	</g>
</g>
</svg>
