<?xml version="1.0" encoding="utf-8"?>
<!-- Generator: Adobe Illustrator 28.0.0, SVG Export Plug-In . SVG Version: 6.00 Build 0)  -->
<svg version="1.1" id="Layer_1" xmlns="http://www.w3.org/2000/svg" xmlns:xlink="http://www.w3.org/1999/xlink" x="0px" y="0px"
	 viewBox="0 0 1000 1000" style="enable-background:new 0 0 1000 1000;" xml:space="preserve">
<style type="text/css">
	.st0{clip-path:url(#SVGID_00000169517240843901016620000006429946649902907013_);}
	.st1{fill:#CBAE43;}
	.st2{fill:#B41630;}
	.st3{clip-path:url(#SVGID_00000028286283479154044590000001652448675482560176_);}
	.st4{fill:#AC6A32;}
	.st5{fill:#355D8E;}
	.st6{fill:#718C42;}
	.st7{clip-path:url(#SVGID_00000169517240843901016620000006429946649902907013_);fill:none;}
</style>
<defs>
	<circle id="SVGID_1_" cx="499.8" cy="499.2" r="495.1"/>
</defs>
<clipPath id="SVGID_00000073686948928537159480000013486979096240902821_">
	<use xlink:href="#SVGID_1_"  style="overflow:visible;"/>
</clipPath>
<g style="clip-path:url(#SVGID_00000073686948928537159480000013486979096240902821_);">
	<rect x="-365.2" y="-9.4" class="st1" width="1730" height="1017.3"/>
	<rect x="-308.4" y="53.7" class="st2" width="1616.5" height="887.1"/>
	<g>
		<defs>
			<rect id="SVGID_00000045598622031911475580000015732149815411521710_" x="-358.5" y="4.4" width="1716.6" height="985.7"/>
		</defs>
		<clipPath id="SVGID_00000160884629026772246630000014652977943726433714_">
			<use xlink:href="#SVGID_00000045598622031911475580000015732149815411521710_"  style="overflow:visible;"/>
		</clipPath>
		<g style="clip-path:url(#SVGID_00000160884629026772246630000014652977943726433714_);">
			<path class="st4" d="M717.4,489.3c5.7-1.6,26.3-7.5,40.6-19c14.3-11.5,17.2-20.7,18.4-25.6c1.3-4.9,1.6-9-2.1-6
				c-7.2,5.6-14.7,10.8-22.5,15.6c-5.9,3.1-12.3,5.6-18.8,7.3c-4.1,1.1-7.2,1.9-3.3,0.3c10-3.4,19.2-8.8,26.9-15.8
				c10-9.8,17.9-24.6,18-33.8c0.1-9.2-0.5-8.5-3.4-6.1c-2.9,2.4-13.6,15.1-19.4,19.7c-6.4,5.1-13.2,9.8-20.2,14.1
				c-4.8,2.8-11.5,5.9-2.1-0.4c9.4-6.3,27.1-21.2,34.4-40.4s5.9-30.6,5.7-32.6c-0.2-2-1.8-5.8-3.5-2.3s-13.4,26.9-22.9,36.9
				c-9.5,10-7.2,8.1-9.3,9.7c-2.1,1.6-5.7,4.5-1.2-1.1c7.8-9.6,14.2-20.3,19-31.7c3.9-10.6,6.1-21.8,6.4-33.2
				c-0.3-7.2-1.8-14.3-4.6-21c-1.4-3-2.9-5.2-3.5-1.8c-3.4,12.8-7.4,25.3-12.1,37.7c-3.6,9.2-8.3,18.1-14,26.3
				c-1.6,2.5-5.9,7.4-1.3-0.9c8.4-17.8,13.4-37.1,14.7-56.7c1.1-23.5-2.2-36.4-5.4-42.9c-1.5-3.3-3.5-6.3-6.1-8.8
				c0,13.1-1.5,26.2-4.4,39c-4.9,23.2-11.9,35.2-11.9,35.2s-2.9,3.3-1-2.3c3-8.3,4.9-16.9,5.5-25.7c1.5-14.6,1.6-31-2.6-45.1
				c-2.4-8.6-6.8-16.5-12.9-23.2c-2.3,22-1.9,50.3-10.1,73.3c-1.5-1.3-3.6-3.9-4.3,1.2c-2.6,14-7.5,27.4-14.7,39.7
				c-10,18.1-14.1,20.5-14.1,20.5c-0.9-2.3-2-4.6-3.2-6.8c-1.3-2.4-2-3.7-3.8-0.4c-5.1,10.8-11.7,20.9-19.5,30
				c-12.4,14.1-19.4,20.8-19,31.3c0.4,10.5,6,15.8,13.5,20.7c7.5,4.8,8.6,7.4,7.7,13.1c-0.9,5.7-7.9,7.6-13.6,7.8
				c-5.8,0.2-13.2-0.3-15.8,1.1c-2.5,1.4-2.9,5.2-5.5,7.7c-2.6,2.5-3.7,4.1-6.1,4.5c-0.7,0.1-1.4,0.2-2.1,0.2
				c-0.5-27.6,10.4-40,10.4-40l-30.4-35.2c-1.5,0.8-3.2,1.5-4.8,2.2c-0.3-0.4-0.5-0.9-0.9-1.4c-3.8-4.5-5.7-10.1-5.4-15.9
				c2.4,0.6,4.8,0.9,7.3,0.8c2.9-0.6,0.6-3.4,0-5.9c-1.1-4.9-1.5-9.9-1.2-15l0.9-4.8c0,0,4.4,4.8,7.1,4.8c2.7,0,2.5-2.8,2.9-5.6
				c0.6-5,2.8-9.7,6.3-13.3c3.1,2,6.7,3.1,10.4,3.3c7,0.1,13.8-2.5,18.9-7.2c6-5.6,5.7-6.9,5.7-6.9c6.3,2.2,12.9,3.6,19.5,4.3
				c8.4,0.4,17.4-1,21.6-9.7c4.2-8.6-1.2-16.9-2.1-18.2s-3.8-2.5-3.8,0s0,9-5,12.3c-4,2.9-9.2,3.5-13.8,1.6
				c-6.2-2.2-12.9-3-19.4-2.3c-2.7,0.3-5.4,0.8-8,1.6c0.5-0.3,6.7-6.7,12.8-8.5c4.3-1.8,9.3-0.6,12.3,3c2.1,2.3,3.8,6.4,5.4,0.7
				c1.7-5.6,0.9-11.5-2.1-16.5c-3.4-4.6-9.1-7-14.9-6.2c-2.8,0.2-5.7,0.7-8.4,1.5c0,0-3.2-8.8-11.2-10.4c-9.7-2-20.6,1.6-29,6.3
				c-4.4,0.9-9,0.7-13.4-0.4c-4.1-1.3-7.9-3.2-11.5-5.6c0.9-2.6,2.3-7.3,2.3-7.3s1.9-0.6,3.9-1.4c2-0.8,1.7-1.4,1.9-3
				c0.3-1.6-3.8-4.6-3.8-4.6s-0.6-5,6.1-8.5s6-2.8,6-2.8s3.9,0.7,5.4-0.5s1.5-1.8,1.5-1.8c1.6-0.5,3-1.4,4.2-2.6
				c1-2,1.2-4.3,0.5-6.4c-0.8-2-1.9-2.4-0.7-3.4c1.2-1.4,1.9-3.1,2.2-4.9v-2.1c0,0,2.3-0.7,2.1-4.1c-0.1-3.4-1.9-4.8-2.9-5.1
				c-0.6-0.2-1.2-0.3-1.8-0.3c-0.3-1.7-1-3.4-1.9-4.8c-1.9-2.6-2.9-3.8-2.9-3.8c0.8-0.9,1-2.1,0.5-3.2c-0.5-1.9-1.9-3.4-3.8-4.1
				c-1.1-0.3-2.2-0.3-3.3,0c0,0-5.2-3.2-7.6-4.4c-2.5-1.2-3.1-1.6-3.1-1.6c0-1.1-0.4-2.2-0.9-3.2c-1.6-1.8-4.2-2.2-6.3-1.1
				c0,0-8.9-2.3-12.5-2.8c-3.6-0.6-3.8-1-3.8-1c-3.5-1.7-7.2-3.1-10.9-4.3c-1.4-0.2-2.7-0.4-4-0.8c1.8-2.3,2.9-5,3.2-7.9
				c0-4.2-2.1-8.1-5.7-10.4c-1.9-1-2.9-1.2-3.3-1.5v-3l5.7,0.6l0.5-9.4l-5.7,0.7l0.8-5.6h-12l0.9,5.6l-5.7-0.3l0.5,9.2l6.1-0.8
				l-0.6,3.5c-1.5,0.3-2.9,0.9-4.1,1.7c-3.6,2-5.7,5.7-5.6,9.7c0.2,2.9,1.2,5.8,2.9,8.3c0,0-0.8,0.2-3.8,0.7
				c-3.7,1.2-7.3,2.6-10.8,4.3c0,0-0.3,0.3-4,1c-3.7,0.6-12.5,2.8-12.5,2.8c-0.7-0.4-1.5-0.6-2.3-0.6c-1.5,0-2.9,0.7-4,1.7
				c-0.6,1-1,2.1-1,3.2c0,0-0.5,0.3-3.1,1.6c-2.5,1.2-7.7,4.4-7.7,4.4c-1.1-0.3-2.2-0.3-3.2,0c-1.9,0.6-3.3,2.2-3.8,4.1
				c-0.5,1.1-0.3,2.4,0.5,3.2c-1.1,1.2-2.1,2.5-3.1,3.8c-1,1.5-1.6,3.1-1.9,4.8c-0.6,0-1.2,0.1-1.8,0.3c-1.1,0.3-2.9,1.6-2.9,5.1
				c0,3.4,2.1,4.1,2.1,4.1s0,0.3,0,2.1c0.2,1.8,0.9,3.5,2.2,4.9c1.1,1,0,1.4-0.7,3.4c-0.8,2.1-0.6,4.4,0.5,6.4
				c1.1,1.2,2.5,2.2,4,2.6c0,0,0,0.7,1.5,1.8c1.8,0.7,3.7,0.9,5.6,0.5c0,0-0.9-0.5,5.7,2.8c6.6,3.4,6.1,8.5,6.1,8.5s-4,2.8-3.8,4.6
				c0.2,1.7,0,2.3,1.9,3c1.9,0.7,3.9,1.4,3.9,1.4s1.6,4.7,2.3,7.2c-3.5,2.4-7.4,4.3-11.5,5.6c-4.3,1.1-8.9,1.3-13.3,0.4
				c-8.6-4.7-19.2-8.2-29-6.3c-8.1,1.6-11.2,10.4-11.2,10.4c-2.7-0.8-5.6-1.3-8.4-1.5c-5.8-0.8-11.5,1.5-14.9,6.2
				c-3,5-3.7,11-2.1,16.5c1.6,5.6,3.5,1.7,5.5-0.7c2.9-3.6,7.8-4.9,12.1-3.1c4.9,1.9,9.3,4.8,12.9,8.5c-2.6-0.8-5.3-1.3-8-1.6
				c-6.5-0.7-13.2,0.1-19.4,2.3c-4.6,1.8-9.9,1.2-14-1.6c-5.1-3.3-5-9.8-5-12.3c0-2.5-2.9-1.3-3.6,0c-0.7,1.3-6.5,9.5-2.3,18.2
				c4.2,8.7,13.3,10,21.7,9.6c6.7-0.6,13.2-2,19.5-4.2c0,0-0.2,1.3,5.7,6.9c5.2,4.7,11.9,7.2,18.9,7.2c3.7-0.2,7.2-1.3,10.3-3.3
				c3.6,3.6,5.9,8.3,6.4,13.3c0.5,3,0.2,5.6,2.9,5.6s7.2-4.8,7.2-4.8s0.3,1.3,0.8,4.8c0.4,5,0,10.1-1.1,15c-0.9,2.6-2.9,5.3,0,5.9
				c2.4,0.1,4.8-0.2,7.2-0.8c0.3,5.8-1.6,11.4-5.3,15.9c-0.4,0.4-0.7,0.8-0.9,1.3c-1.6-0.6-3.1-1.3-4.6-2.1l-30.5,35.2
				c0,0,11,12.4,10.3,40.3v-0.3c-0.7,0-1.5-0.1-2.2-0.2c-2.3-0.3-3.5-1.8-6.1-4.5c-2.5-2.6-2.9-6.2-5.5-7.7
				c-2.6-1.5-9.8-0.9-15.7-1.1s-12.5-2.1-13.6-7.8c-1.1-5.7,0.2-8.5,7.7-13.1c7.5-4.7,13-10.2,13.4-20.7
				c0.3-10.5-6.5-17.2-18.8-31.3c-7.9-9-14.5-19.1-19.5-30c-1.8-3.3-2.5-2-3.8,0.4s-3.2,6.8-3.2,6.8s-4.1-2.4-14.1-20.5
				c-7-12.4-12-25.8-14.6-39.7c-0.8-5.1-2.9-2.5-4.4-1.2c-8.2-23-7.7-51.3-10-73.3c-6.1,6.6-10.5,14.6-12.9,23.2
				c-4.3,14.1-4.1,30.6-2.9,45.1c0.6,8.8,2.5,17.4,5.6,25.7c2,5.6-1,2.3-1,2.3s-7-12.1-11.9-35.2c-2.9-12.8-4.3-25.9-4.2-39
				c-2.6,2.5-4.8,5.5-6.2,8.8c-3.3,6.5-6.5,19.4-5.4,42.9c1.3,19.6,6.3,38.8,14.7,56.6c4.6,8.5,0.3,3.4-1.4,0.9
				c-5.5-8.3-10.1-17.1-13.9-26.3c-4.2-11.1-11.6-34-12.2-37.7c-0.6-3.7-1.9-1.2-3.4,1.8c-2.8,6.7-4.4,13.8-4.6,21
				c0.3,11.4,2.5,22.6,6.4,33.3c4.8,11.4,11.2,22.1,19.1,31.7c4.6,5.6,0.9,2.8-1.2,1.1c-2.1-1.7,0.2,0.3-9.3-9.7
				c-9.5-10.1-21.4-33.4-22.9-36.9c-1.5-3.5-3.3,0.3-3.5,2.3c-0.2,1.9-1.5,13.3,5.7,32.6c7.2,19.3,25,34.1,34.4,40.4
				c9.4,6.3,2.7,3.2-2.2,0.4c-7-4.3-13.8-9-20.2-14.1c-5.7-4.8-16.4-17.6-19.4-19.7c-3-2.1-3.6-2.8-3.4,6.1c0.2,8.9,8,23.9,18,33.8
				c7.8,7.1,16.9,12.5,26.9,15.8c4,1.6,0.6,0.8-3.3-0.3c-6.5-1.7-12.9-4.1-18.8-7.3c-7.8-4.8-15.3-10-22.5-15.6c-3.6-2.8-3.2,1-2,6
				c1.2,5.1,3.9,14.1,18.3,25.6c14.4,11.5,34.7,17.4,40.7,19c5.9,1.6,1.7,1.6,1.7,1.6s-2.3-0.4-14.3-3c-12-2.6-30-11.8-34.8-14.9
				s-5.7-4.1-5,2.3c0.8,6.4,7.5,19.9,18.5,26.2c11,6.3,30.8,9.7,35.9,9.9c5.1,0.3,3.8,0.9,1.5,1c-5.8,0.3-11.6,0-17.3-0.8
				c-7.8-1.3-15.5-3.2-22.9-5.8c-0.3-1.6-0.8-3.2-1-4.2c-0.5-2.4-1.7-2-2.5-1.5c-0.7,0.5-1.3,1-4.1,2.4c-2.7,1.4-2.9-0.4-2.9-1.2
				c0-0.8-0.6-4.2-0.7-6.1c-0.1-2-1.1-1.8-2.3-1.3s-7.4,3.2-9.6,4.1c-2.3,0.9-0.2,2.8,0.9,4.9c1.1,2.1,3.1,5.3,3.1,5.3l-7.6,2
				c-1.8,0.5-1.3,1.7-0.8,3c0.5,1.3,3.3,7.6,4,9.4c0.3,0.8,1.2,1.2,2,0.9c0.2-0.1,0.3-0.1,0.4-0.2l5.7-3.4l1.9,7.6
				c-2,0.5-3.8,1.4-5.5,2.6c-2.9,2-2.1,4.6,1.3,5.6c3.4,1,7.5,2.8,12.1,10.7c4.6,7.9,5.7,22.4,8.3,45.1c1.6,13.9,8.7,26.6,19.8,35.4
				c2.1,1.4,0.9,2.5,0.9,2.5c-1.3,2.2-1.7,4.8-1.1,7.3c0.8,3.5,3.3,6.4,6.7,7.7c1.2,0.4,1.8,1.6,1.5,2.8c-0.6,4.5-0.6,9.1,0,13.6
				c1.5,7.7,5.1,14.8,10.4,20.6c2,1.7,2.2,2.5,1.9,3.3c-0.3,0.8-1.5,0-4,1.9c-2.9,2-5.3,4.6-7,7.6c-1.6,3.2-1.1,5-0.5,9.4
				c0.5,4.3,7,8.2,7,8.2s-1.1,0.3-1.5,3.4c0.2,3.6,2.1,6.9,5,8.9c2.5,1.7,5.4,2.8,8.4,3.4c0,0,0.4,2.8,0.7,4.6
				c0.3,1.8,3.9,3.7,6.2,4.9c2.8,1,5.9,0.9,8.6-0.3c1.9-0.8,3.3,0.1,4.4,2.1c1.1,1.9,0.7,8.9,0.7,11.8s-1.7,5.9-0.7,7.3
				c1,1.4,3.8,0.4,6.5-1.1s3.5-0.5,6,1.1c2.2,1.4,4.8,2.4,7.4,2.8c1,0,0.6-2.8,0.6-4.9c0-2.1,0.3-7,1.4-7.7c2.7-0.5,5.4-1.2,8-2
				c1.5-0.7,3.4-1.3,3.6-2.8c0.2-1.5-2.1-1.4-6.8-3.9c-3-1.7-5.9-3.6-8.6-5.8c-3-2-1.6-2.8-1.6-3.6c0-0.7,1.5-1.9,2.1-3.1
				c0.3-1.2,0.4-2.5,0.3-3.7c0,0,2.5-2.5,3.5-3.7c1.3-1.6,2.8-3.2,4.3-4.6c1.6-1.2,4.1-7.4,5.7-9.3c1.6-2,5.3-4.2,7.3-6.9
				c3.4-3.6,7.3-6.7,11.5-9.3c3.3-2.1,12.3-6.3,12.3-6.3c-0.1,2.8,0.6,5.5,2.1,7.9c2.3,2.5,5.4-2,15.7-9.2c5.5-4,11.6-7.3,18-9.7
				c0,0,2.2,3.3,5,6.7c2.7,3.4,5.2,0,17.8-17.2c8.4-11,17.8-21.2,28.1-30.5c1,0.4,1.9,0.8,2.9,1.3c-0.2,0.7-0.5,1.5-0.8,2.2
				c-1.6,3.7-3.4,7.4-5.5,10.8c-2.4,4.9-6.2,6-10.5,12.7c-3.5,5.4-5.3,11.6-5.3,18c-0.5,6.8,3.4,8.2,3.4,8.2
				c-3.3,3.1-6,6.7-8.2,10.7c-1.4,4.5-2.4,9.1-2.9,13.8c0,0-0.9,0.4-3.3,5.1c-2.4,4.8-6.5,5.4-12.5,11.3c-4.8,4.3-10.2,7.8-16,10.4
				c-3.2,1.7-2.3,3.6-1.5,6.1c0.8,2.5,5.4,4.8,10.2,6.7c3.3,1.2,6.8,1.6,10.3,1c3.5-0.2,0.7,2.6-0.7,4c-2.3,3.5-3.3,7.7-3,11.9
				c0.3,5.5,4.5,4.2,9.7,3.4c3.8-0.8,7.6-1.9,11.2-3.4l-0.6,1.6c-0.8,2.3-1,4.7-0.8,7c0,4.4,0.7,6.6,2,7.6c1.3,1,4-1.3,5.9-1.8
				c3.1-1.4,6.3-2.6,9.5-3.4c2.4-0.3,4.7-1.3,6.4-3c-0.9,1.4-1.4,2.9-1.3,4.6c-0.3,3.5-0.2,7,0.4,10.4c1.2,3.4,3.3,6.5,6,8.9
				c3.1,2.8,3.8,1.5,6.1-2.1c2.2-2.9,4.5-5.6,7.1-8.1c0,0,0.3,1.1,3.6,11.3c3.3,10.1,13.5,18.4,13.5,18.4s10.4-8.5,13.5-18.4
				c3.2-10,3.4-11.3,3.4-11.3c2.6,2.5,5,5.2,7.1,8.1c2.3,3.6,3.1,4.9,6.3,2.1c2.7-2.4,4.7-5.5,5.9-8.9c0.6-3.4,0.8-6.9,0.5-10.4
				c-0.1-1.6-0.6-3.2-1.5-4.6c1.8,1.6,4,2.7,6.4,3c3.3,0.9,6.5,2,9.6,3.4c1.9,0.5,4.4,3,5.7,1.8c1.3-1.2,2-3.2,2-7.6
				c0.2-2.4-0.1-4.8-0.9-7l-0.5-1.6c3.6,1.5,7.4,2.6,11.3,3.4c5.2,0.8,9.4,2.1,9.6-3.4c0.4-4.2-0.6-8.4-2.9-11.9
				c-1.5-1.4-4.2-4.2-0.7-4c3.4,0.6,7,0.3,10.2-1c5.1-1.9,9.4-4.3,10.2-6.7c0.8-2.4,1.9-4.3-1.5-6.1c-5.8-2.6-11.2-6.1-15.9-10.4
				c-6.1-6-10.3-6.6-12.5-11.3c-2.2-4.6-3.3-5.1-3.3-5.1c-0.5-4.7-1.5-9.3-2.9-13.8c-2.2-4-5-7.6-8.3-10.7c0,0,4-1.4,3.5-8.2
				c0-6.4-1.8-12.6-5.3-18c-4.3-6.7-8.1-7.7-10.6-12.7c-2-3.5-3.8-7.1-5.4-10.8c-0.3-0.7-0.5-1.4-0.7-2.2c1.1-0.6,2.5-1,3.7-1.6
				c10.2,9.3,19.5,19.6,27.7,30.6c12.6,17.2,15,20.7,17.8,17.4s5-6.8,5-6.8c6.4,2.4,12.5,5.7,18,9.6c10.2,7.2,13.3,11.7,15.7,9.1
				c1.1-1.6,1.6-3.4,1.5-5.3c0,0,6,1.7,12.7,4.1c4.1,1.4,8.6,3.1,11.9,4.5c8.8,3.7,9.9,5.6,16.9,11.3c7,5.6,17.2,4.9,26.8,2.1
				c9.6-2.9,35-11,45.1-15.4c10.1-4.4,17.5-8.1,18.6-10.1c1.2-3.1,1.9-6.3,2.2-9.6c-0.4-2.1-1.4-4-3-5.5c-0.7-0.6-0.4-2.1,0-3.4
				c0.1-2.4-0.7-4.8-2.1-6.7c-1.6-1.8-1.4-2.4-1.2-7.2c0.5-10.4-7-23.4-17.7-27.5c-0.1-0.8-0.5-1.4-1.1-1.9c-0.7-0.5-1.5-1-2.3-1.3
				c0,0,0.1-5.9,0-7.3c-0.1-1.3,0.5-1.1,1.2-0.8c1,1,2.2,1.8,3.5,2.3c1.8,0.3,2.9-0.8,3.3-2.8c0.6-2.6,1.4-5.2,2.3-7.7
				c0.7-1.9,0-2.2-0.9-2.4c-0.9-0.2-3.3-0.4-4.5-0.8c-1.2-0.4-1.3-0.3-1.1-0.9c0.2-0.6,0.9-1.7,2.4-4.1s0-2.5-1.3-3
				c-1.3-0.5-8.3-2.5-10.2-2.8c-1.9-0.4-2.3,1.3-2.3,2.1c0,0.8,0,4.2,0.2,5.4c0.2,1.2-1.1,0.9-1.9,0.5s-2.2-1.3-3.6-2.3
				c-1.4-0.9-2.2-0.2-2.9,1.3c-0.7,1.4-2,7.1-2.5,9c-0.5,1.9-0.3,3,0.3,3.3c2,0.1,4,0.1,6,0c2.1,0,1,1.1,1,1.1s-2.2,3.4-2.9,4.8
				c-0.7,1.3-1.9,1.6-3.5,1.6h-4.2c-6.8,0.4-13.4,2.5-19.1,6.2c-5.1,3.4-9.1,8.1-11.5,13.7c-1.3,3-2.9,2.4-4.1,3.2
				c-1.2,0.9-4.7,4.8-4.7,7s0.7,3.4-2.9,5.6c-3.6,2.2-6.4,12.1-1.7,17.1c3.3,3.9,6,8.2,8,12.8c1.6,2.4,0,3.4-1.1,3.4s-3.8-2.1-6-3.7
				c-2.2-1.6-13.2-10-17.9-13.5s-1.1-3.1-1.1-3.1c1.4-0.1,2.7-0.4,3.9-1c2.7-1.1,3.2-2.8,0.5-3.4c-3.5-1.3-6.7-3.1-9.6-5.3
				c-1.3-1.4-2.2-2.8,0.6-4.4c2.8-1.6,8.8-5.3,4-6.5c-4.8-1.2-10.3-2.3-15-3.5c-4.7-1.2-5.1-2.6-5.1-2.6l2.9-4.3
				c0,0,2.5-3.4-0.3-3.8c-5.6-0.7-11-2-16.2-4c-11.6-4.4-20.3-14-23.6-25.8v-0.3c2.4,4.7,8,13.3,16.3,13.6c11.5,0.3,12.7-3.1,10-6.8
				c-2.7-3.7-5.5-7-6.4-8.2s-0.9-2.5,2.1,0.3c3,2.8,8.6,12.1,25.8,11c17.2-1.1,17.2-4.4,17.2-5.4c0-3.2-3.5-3.8-5.6-5.8
				c-1.1-1-1.7-2.6,1.7-1.3c7.7,2.2,15.8,2.3,23.6,0.4c4.6-1,16.7-6.2,17.9-12.2c-4.5-0.3-8.9-1.2-13.1-2.8c-5.4-2.2-8.6-4.1-2.9-3
				c5.7,1.1,16.8,3.4,26.5,0.2c5.7-1.9,13.1-6.3,13.1-14.7c0,0-10.6-2.3-14.6-3.6c-1.8-0.5-3.5-1.4-5.1-2.4c0,0,15.1,4.7,28.8-2.1
				c13.7-6.8,14.3-16.2,14.3-18.3c0.1-1,0-1.9-0.3-2.8c-7.2,1.7-14.5,2.6-21.9,2.8c-4.1,0.2-8.2-0.1-12.2-0.9c0,0,26.2-0.7,39.3-8.5
				c13.1-7.7,14-23.4,14-23.4c-7.9,2.7-16,4.8-24.3,6.2c-5.8,0.8-11.6,1.1-17.4,0.8c-2.3-0.1-3.5-0.8,1.5-1c5.1-0.2,24.9-3.5,36-9.9
				c11.1-6.4,17.8-19.9,18.5-26.2c0.6-6.3,0-5.2-5-2.3c-5,3-22.9,12.3-34.8,14.9c-11.9,2.5-14.3,3-14.3,3s-4.1,0,1.8-1.6
				 M247.4,518.8l-5.3,3.1c0,0-2.1-4.3-2.7-5.6c-0.5-1.3-0.3-1.8,0.5-1.8c0.7,0,2.9-0.6,4.6-0.7h0.7c0.6,1.8,1.4,3.5,2.4,5.1
				L247.4,518.8 M407.7,611.1c-3.2,5.8-11.9,12-18.2,14.7c-5.2,2.1-10.7,3.4-16.2,4c-2.9,0.4-0.5,3.8-0.5,3.8l3.1,4.2
				c0,0-0.4,1.3-5.1,2.6c-4.7,1.3-10.2,2.3-15,3.6c-4.8,1.3,1.3,5.1,4,6.6c2.7,1.4,2.1,3,0.6,4.4c-2.9,2.2-6.1,4-9.5,5.2
				c-2.7,1-2.3,2.4,0.5,3.6c3.3,1.1,6.8,1.9,10.2,2.5c-1.5,1.4-3.2,2.6-4.9,3.7c-5.3,3.5-11.5,5.5-17.9,5.9
				c-8.2,0.4-16.5,0.4-24.7,0c-10.7-0.5-11.9-0.7-11.9-0.7s-0.4-3.6-1.1-8.8c-1.1-5.7-3.2-11.1-6.4-16c-2.5-3.3-7.7-10.2-7.7-10.2
				s0.2-1.4,0.5-3.1c0.4-2.3,0-4.7-1-6.7c-1.3-3.2-7.6-7.9-7.6-7.9s-0.3-3.4-0.3-6.7c-0.7-7.3-2.1-14.6-4.3-21.7
				c-1.9-6-11.8-21.5-16.3-28.8c-4.5-8.4-7.4-17.5-8.6-26.9c-1.1-4.5-1.2-9.1-0.4-13.6c0.3-0.9,0.7-1.8,1-2.6c2,2.6,4.5,4.8,7.3,6.5
				c13.1,7.9,39.2,8.5,39.2,8.5c-4,0.8-8.1,1.1-12.2,0.9c-7.4-0.2-14.7-1.2-21.8-2.8c-0.3,0.9-0.4,1.9-0.3,2.8
				c0,2.1,0.7,11.4,14.3,18.3c13.7,6.9,28.8,2.1,28.8,2.1c-1.6,1.1-3.3,1.9-5.1,2.4c-3.9,1.4-14.5,3.6-14.5,3.6
				c0,8.5,7.4,12.8,13,14.7c9.8,3.2,20.9,0.9,26.5-0.2c5.7-1.1,2.5,0.8-2.9,3c-4.2,1.6-8.6,2.5-13,2.8c1.2,6,13.3,11.3,17.9,12.2
				c7.8,1.9,15.9,1.8,23.6-0.4c3.4-1.4,2.9,0.2,1.7,1.3c-2,2-5.5,2.6-5.5,5.8c0,1-0.2,4.2,17.2,5.4c17.4,1.2,22.9-8.5,25.8-11
				c2.9-2.6,2.7-1.4,2-0.3c-0.7,1.1-3.8,4.4-6.4,8.2c-2.6,3.8-1.3,7.1,10.1,6.7c8.4-0.2,13.8-9,16.3-13.6v0.2
				c0.2,0.2,0.3,0.4,0.5,0.6c-1.1,2.8-2.9,7.2-5,10.9 M546.3,245.3c-1.6-2.8-2.4-4.3-2.4-4.3c3.8,1.9,7.3,4.4,10.3,7.3
				c2.4,2.3,3.9,5.4,4.4,8.7c0.3,3.2,0.1,6.4-0.5,9.5c-0.8,2.3-0.8,4.8,0,7.1c0.4,0.7,0.8,1.4,1.4,2c-1.9,0.5-3.7,1-5.5,1.7
				c-2.9,1.1-6.3,2.1-8.3,0.5c-2-1.6-2.4-2.8-1.2-3.8c3.9-1.9,6.4-5.8,6.4-10.1c0.1-6.5-1.5-12.9-4.7-18.6 M511,266.5
				c1.8-4.7,2.1-9.8,1-14.7c-0.9-6.3-2.3-11.8-2.7-18.7c4.5,1.5,8.5,4,11.8,7.3c4.8,3.9,7.8,9.5,8.4,15.6c0,3-1.7,6.8-1.8,9.8
				c-0.2,1.9,0,3.8,0.7,5.6c-1.6,0.8-3.2,1.6-4.8,2.6c-2,1.7-4.7,2.6-7.4,2.4c-2.7-0.4-5.3-1.3-7.5-2.8c-1-0.6-2.1-1-3.3-1.2
				C507.9,271,509.8,269,511,266.5 M477.4,240.2c3.3-3.3,7.3-5.8,11.7-7.3c-0.5,6.3-1.3,12.5-2.5,18.7c-1.3,7.6-0.6,11,0.9,14.7
				c1.2,2.5,3.1,4.6,5.5,6c-1.2,0.2-2.3,0.7-3.3,1.2c-2.3,1.5-4.9,2.4-7.6,2.8c-2.7,0.1-5.3-0.7-7.3-2.4c-1.5-1-3.1-1.8-4.7-2.6
				c0.7-1.8,0.9-3.7,0.8-5.6c-0.2-3-1.9-6.8-1.9-9.8C469.6,249.8,472.6,244.2,477.4,240.2 M452.7,277.7c-1.9,1.6-5.6,0.6-8.2-0.5
				c-2.7-1.1-5.6-1.7-5.6-1.7c0.6-0.6,1-1.3,1.4-2c0.8-2.3,0.9-4.8,0.1-7.1c-0.7-3.1-0.9-6.3-0.5-9.5c0.4-3.3,1.9-6.4,4.2-8.7
				c3.1-2.9,6.5-5.3,10.3-7.1c0,0-0.7,1.5-2.3,4.3c-3.1,5.7-4.7,12.1-4.5,18.6c-0.1,4.3,2.4,8.3,6.4,10.1c1.1,1.1,0.6,2.2-1.3,3.8
				 M544.4,342.7c-6.8,3.6-10.6,2.8-10.4,5.6c0.3,2.8,6.3,4.8,6.3,4.8c-3.3,3.5-7,6.7-10.9,9.6c-3.3,2-6.8,3.6-10.4,4.8
				c0,0-1.9,0.3-0.9,3.4c0.9,2.4,2.5,4.4,4.6,5.9c0.8,0.4,1.5,0.8,2.3,1.1c-3.8,4.1-7.9,8-12.1,11.7c-2.7,2.1-5.7,3.8-8.8,5
				c-2.9,1.3-1.5,6.2-0.8,8.5c0.9,2.4,2.6,4.4,4.8,5.6c1.5,0.5,2.1,1.5,0,4.5c-1.5,2.2-6.3,8.1-8.6,11.4l0,0
				c-2.3-3.2-7.1-9.3-8.6-11.5c-1.9-3-1.3-4.1,0.2-4.5c2.3-1.2,4-3.2,4.8-5.6c0.7-2.2,2.1-7.1-0.8-8.5c-3.2-1.2-6.2-2.9-8.8-5
				c-4.3-3.7-8.3-7.6-12.1-11.7c0.8-0.3,1.6-0.7,2.3-1.1c2.1-1.4,3.7-3.5,4.6-5.9c1.2-3-0.7-3.4-0.7-3.4c-3.7-1.2-7.2-2.9-10.6-4.8
				c-3.9-2.9-7.6-6.1-11-9.6c0,0,6.1-2.1,6.4-4.8c0.3-2.6-3.6-1.9-10.4-5.6c-3.8-1.9-6.9-4.8-8.9-8.5c5.1-1.9,9.2-5.7,11.7-10.4
				c1.2-2.3,1.8-4.8,1.6-7.4h0.3c26.4,7.6,54.3,7.6,80.7,0h0.3c-0.2,2.5,0.3,5.1,1.5,7.4c2.5,4.8,6.7,8.5,11.8,10.4
				C551.3,337.9,548.2,340.8,544.4,342.7"/>
			<path class="st2" d="M405.4,353.4c-5.4-2.9-11.2-4.6-17.3-5.2c-6.7-0.5-13.4,0.3-19.8,2.2c-3.8,1.2-7.9,1.3-11.8,0.4
				c-5.7-1.7-10-6.5-11.1-12.3c-2.9,4-2.9,9.3,0,13.3c2.1,3,5.3,5.2,9,6c10.6,2.1,21.1-4.3,29.9-4.8c5.5-0.1,10.8,1.5,15.2,4.7
				c1.5,1,3.4,1,4.8,0C407.1,356.2,407.9,354.9,405.4,353.4"/>
			<path class="st2" d="M653.3,338.6c-1.2,5.8-5.4,10.5-11.1,12.3c-3.9,0.9-8,0.8-11.9-0.4c-6.4-1.9-13.1-2.7-19.8-2.2
				c-6.1,0.6-12,2.4-17.3,5.2c-2.7,1.5-1.8,2.8,1.1,4.3c1.5,1,3.4,1,4.9,0c4.4-3.2,9.7-4.8,15.1-4.7c9,0.5,19.3,6.8,29.9,4.8
				c3.6-0.9,6.8-3,9-6C656.1,348,656.1,342.6,653.3,338.6"/>
			<path class="st1" d="M585.4,492.7c-0.2-12.1,3.2-23.9,9.6-34.1l-26.5-29.9c-25.2,9.6-48.5,10.2-69.3-0.2
				c-20.6,10.4-43.8,9.8-69.1,0.2l-26.6,29.9c6.5,10.2,9.9,22.1,9.7,34.1c-0.1,15.7-2.3,31.3-6.5,46.5c-2.3,10.2-4.4,29,1.1,42.5
				c5.5,13.5,11.3,25.4,35,35.1c23.7,9.7,36,14.9,44.2,21.6c4.5,3.6,8.6,7.7,12.3,12.1c3.7-4.4,7.9-8.5,12.5-12.1
				c8.2-6.7,20.5-11.8,44.1-21.6s29.5-21.6,35-35.1c5.5-13.5,3.4-32.3,1.1-42.5C587.7,524.1,585.6,508.5,585.4,492.7"/>
			<path class="st1" d="M381.3,659.5c-3.7,1.8-7.4,3.4-11.3,4.8c-1.1,0.3-2.2,0.6-3.3,0.7c-3.2,2.9-6.6,5.5-10.2,7.8
				c-4.6,2.6-9.6,4.3-14.8,5c-6.6,0.7-25.1,0.5-33.5,0.2c-8.4-0.3-13.3,1.6-16.9,5.6c-3.9,3.7-4.1,9.7-0.4,13.6
				c0.1,0.1,0.2,0.2,0.4,0.4c2.5,2.9,7,3.3,10,0.8c0.5-0.4,0.9-0.9,1.3-1.4c1.2-2.4,1.2-5.2,0-7.6c-0.7-1.6,1.5-2.1,3.8-2.2
				c3.3-0.1,6.6,0.2,9.9,0.7c4.3,0.8,8.5,2.2,12.4,4c2.9,1.4,1.2,1.6-0.7,1.4c-2.5-0.6-4.9-1.3-7.3-2.3c-2.6-1-5.4-1.7-8.3-1.9
				c-2.1-0.1-1.3,1-1,1.7c0.4,0.7,1.6,2.6,1.9,3.3c0.3,0.7-0.7,4-0.7,4l1.1,1.9c0,0,1.3-1.9,1.8-3c0.5-1.1-0.2-2.8,0.2-3.9
				c0.4-1.1,2.2-0.9,3.6,0.7c1.9,2,3.2,4.6,3.6,7.3c0.5,2.2,0.3,4.6-0.6,6.7c0.8,0.6,1.5,1.4,2,2.3c0,1.6-0.1,3.2-0.5,4.7
				c0,0,1.1,0.6,2.2-1.4c1-2.4,1.9-4.8,2.5-7.4c0.3-1.4,1.3-3.9,2.9-1.9c1.4,1.5,2.5,3.2,3.1,5.2c0.2,0.7,0.3,1.4,0.3,2.1
				c1.8-1.7,3.5-3.6,5-5.6c2.1-3,4.5-5.7,7.3-8.1c3.7-3,9.8-8.7,12.9-10.7c3.1-2,10.7-6.1,13.1-7.5c2.5-1.4,2.9-1.5,3.3-5.6
				c0.6-3.6,1.7-7.1,3.3-10.5c0.5-1.3,0.8-2.5,1.1-3.9"/>
			<path class="st1" d="M374.7,656.4c0,0-1.1,0-2.5-0.2c-1.9-0.5-3.7-1-5.6-1.7c-1.1-0.5-2.4-0.3-3.3,0.5c-1.1,1-8.6,5.4-8.6,5.4
				h12.7C370.4,660.2,373.1,658.7,374.7,656.4"/>
			<path class="st1" d="M410.4,654.4V653l-1.7-3.6c-1.4,0.9-2.8,2-4,3.1c-2.4,2.5-5.1,6.2-6.3,7.6c-2.1,2.8-5.1,5.3-2.5,1
				c2.5-4.3,3.4-6.1,5.4-8.9c2-2.8,3.5-4.1,3.3-4.3c-2.4-0.5-4.8-0.9-7.2-1c-3.9-0.6-7.7-2-11.1-4.1c-2.3-1.4-6.8-3.7-6.8-3.7
				c-4,1.7-8.2,3.2-12.4,4.5c-3.4,0.8-5.4,1.3-2.1,3c3.2,1.7,6.2,2.1,7.7,3c3,1.5,6.3,2.4,9.6,2.5c3,0,8.2,0,6.2,2.2
				c-3,3.6-5.2,7.7-6.6,12.1c-1.6,4.5-2.4,9.3-2.3,14.1c0,1.8,0.2,3.6,0.4,5.4c4.1-4,8.6-7.4,13.6-10.3c10-6.1,13.6-8.2,15.6-9.1
				c1.9-0.9,2.9-0.8,2.5-3.1C411.4,661.2,410.4,655.4,410.4,654.4"/>
			<path class="st1" d="M448.4,624.6c-0.6-0.3-1.3-0.5-1.9-0.8l-0.4,0.2c-3.8,2.1-7.1,5-9.7,8.5c-2.5,4-5,4.3-2.2,0
				c1.8-3.1,4.1-6,6.7-8.5c0.8-0.7,1.6-1.3,2.1-1.8c-5.3-2.6-10.4-5.4-15.3-8.7c-0.9,1.9-2,3.6-3.4,5.1c-2,1.7-4.3,3-6.7,4
				c2-2,3.6-4.2,5-6.7c0.7-1.6,1.3-3.3,1.6-5.1c-3.7-2.8-7.1-5.9-10.1-9.4c-1.5,5.7-4.5,10.9-8.6,15.1c-7.8,8.7-23.4,13-23.4,13
				s-5.5,0.5-1,1.7c4.5,1.2,7.5,3.1,16.1,1.6c3.5-0.5,7-1.2,10.4-2.1c1.2-0.4,4.4-0.2,0,1.4c-5.9,1.9-12,2.8-18.2,2.8
				c-3.8-0.4-9.1-1.2-3.5,1.7c5.6,2.8,7.8,4.1,11.2,4.1c3.3,0,4.8,1,8,1c2.2,0,4.4-0.4,6.6-1c2.3-0.4,3.8,0.3,3.8,1.2
				c-1.9,2.9-3,6.3-3,9.8c-0.1,4.1,0.2,8.2,1.1,12.2c0.8,2.3,1.8,4.5,3,6.6c0.9,1.8,1.2,3.4,2.2-0.3c1-3.7,3-8.9,3.8-12.5
				c0.8-3.6,1.3-3.5,1.6-5.6c0.3-2.1,2.3-3.2,1.4,0.1c-0.9,3.3-2.1,7.6-2.7,10.5c-0.6,2.9-2.3,8.5,0.5,4.1
				c2.8-4.3,13.3-15.9,15-17.9c1.7-2,3.2-4.1,4.5-5.6c1.3-1.5,5-4,6.7-6.5c2.5-3.1,5.2-5.9,8.2-8.5c-3-1.3-6.1-2.5-9.4-4"/>
			<path class="st1" d="M244.1,508.2c0-0.7-1.6-3.2-1.9-4.4c-0.3-1.2-1.6-0.5-1.6-0.5c-1.5,0.9-3,1.6-4.6,2.1
				c-2.1,0.5-2.4-0.2-2.7-1.3c-0.3-1.1-0.7-4.2-1-6.5c-0.3-2.3-0.7-2.1-1.6-1.7c-0.9,0.5-3.3,1.2-5.1,1.9c-1.7,0.7-1.2,1.7-0.7,2.6
				c0.5,0.9,2.5,5.1,3.4,6.5c0.9,1.4,0,2-1,2.5s-2.5,0.7-4.6,1.4c-2,0.7-2,1.1-1.8,1.9c0.7,1.6,1.4,3.2,2.3,4.8
				c0.8,1.3,1.5,0.5,1.5,0.5c1.3-1.1,2.6-2,4.1-2.8c1.9-0.9,2-0.6,2.5,0.8c0.6,1.4,2.6,8.7,3,10c0.4,1.3,1.1,1.3,2.1,0.8
				c1-0.4,2.3-0.6,3.4-0.9c1.1-0.3,1.5-2.5,1.5-2.5s-4.2-7.4-5.3-9.2c-1.1-1.9,0-2.2,0.9-2.4c1.8-0.2,3.5-0.5,5.2-0.9
				c2.2-0.5,1.6-1.7,1.6-2.3"/>
			<path class="st1" d="M290.6,706.4c-0.3-1.8,0-3.6-1.4-4.9c-1.7-1.7-3-3.8-3.7-6.1c-0.6-2.3,0.6-3.3,0.4-4.6
				c-0.2-1.3-1.9-1.2-3.5,0.2c-2.4,1.3-3.9,3.8-3.9,6.5c-0.4,4.6,2.5,8.8,7,10.2C291.2,709.4,290.9,708.1,290.6,706.4"/>
			<path class="st1" d="M296.3,704.6c0,0-1.2-0.7-1.7,0.3c-0.5,1-0.4,1.6,1.1,3.9c1,1.6,2.4,2.9,4,3.8c1.7,1,0.6-1.1,0.3-1.7
				c-0.3-0.6,0-1.4-0.3-1.9c-0.3-0.5-0.6-1.2-0.6-2.8c0-1.6-2.9-1.5-2.9-1.5"/>
			<path class="st1" d="M303.1,723.2c1.1-1.5,2.7-2.6,4.5-3.2c2.8-1,5.8-1.7,8.8-1.9c2.8-0.8,4.6-3.3,4.4-6.1
				c-0.4-2.4-2.3-4.4-4.7-4.8c-2.1-0.4-3.9-0.4-4.4,0.5c-1,1.3-2.4,2.3-4,2.8c-1.3,0.5-2.6,1.1-3.8,1.8c-1.3,0.4-0.3,1.3-1.5,2.2
				c-1.1,0.9-2.7,0-4.5-0.6c-1.2-0.5-2.6-0.7-3.9-0.8l-7.2-0.5c-0.4-0.1-0.8-0.1-1.3,0c-1.2,0-1.4,0.2-1.9,1.4
				c-0.4,2.1,0.1,4.2,1.4,5.9c1.2,1.6,5.4,2.3,8,3.2c2.1,0.6,4.3,1.1,6.4,1.5C301.7,725.1,302,724.7,303.1,723.2"/>
			<path class="st1" d="M328.6,725.8c2.3-1.5,1-4,0.5-5.6c-0.5-1.7-3.5-1.9-5.1-1.9c-1.5,0-2.3,0-3.3,0.8c-1.2,1.1-2.6,2-4.2,2.5
				c-2.4,0.7-4.2,1.5-7.3,2.8c-3.1,1.3-4.1,3.3-5.5,4.3c-1.3,0.4-2.6,0.4-3.9,0c0,0-1.9-0.6-2.5,0c-0.6,0.6,0,1.4,1.3,2.8
				c1.3,1.4,3.6,1.1,6.4,2s3.2,0.3,4.3-0.5c1.1-1.3,2.4-2.4,3.7-3.5c2.6-1,5.3-1.4,8-1.4C323.6,727.8,326.2,727,328.6,725.8"/>
			<path class="st1" d="M328.6,716.3c1,0.8,2.1,1.9,2.9,0.6c0.8-1.3,2.2-4.1,1.3-5.8c-0.6-1.1-1.3-2.1-2.1-3c0,0-1.6,4.7-2.3,6
				C327.6,715.3,327.7,715.3,328.6,716.3"/>
			<path class="st1" d="M320,702c-0.2-2.1-0.8-4.1-1.8-6c-0.4,1.6-1,3.2-1.7,4.7c-0.7,1.2-1.5,2.3-2.4,3.4c1.3,0.3,2.5,0.5,3.8,0.6
				C318.9,704.7,320,704.7,320,702"/>
			<path class="st1" d="M304.4,707.7c2.1-0.4,4.1-1.4,5.7-2.8c1.4-1.4,1.9-3.4,1.3-5.2c-0.9-1.3-2.2-2.3-3.8-2.8H306
				c-0.5,1.4-1.2,2.8-2.1,4c-1.1,1.3-2.4,2.2-2.3,4c0.1,1.8,0,3.6,2.9,3"/>
			<path class="st1" d="M310.3,694.5c0.1-1.4-0.4-2.7-1.4-3.7c-0.5-0.5-1-1-1.5-1.5c0,0-0.3,2-0.5,3.2s-0.3,1.4-0.3,1.4
				c0.5,0.4,1.1,0.9,1.7,1.2C308.9,695.3,310.2,695.9,310.3,694.5"/>
			<path class="st1" d="M274.2,621.3c0,0,3.5,0,1.9-12.3c-1.6-12.3-7.8-23.7-12.9-31.6c-5.1-8.6-9.4-17.7-12.8-27.2
				c-2.2-6.6-3.5-13.5-3.8-20.5c-0.1-2.6,0.6-5.2,2.1-7.3c0,0,0.9-1.3,0-2c-0.9-0.7-2.2,0-3.6,1.1c-1.4,1.6-2.5,3.4-3.2,5.4
				c-0.3,0.8-0.5,1.6-0.6,2.4c-2.2-0.5-4.5-0.6-6.8-0.3c-4.2,0.3-6.2,0.7-6.4,1.6c-0.1,0.8,0.5,1.5,3.5,2.8c2.4,0.7,4.6,2,6.5,3.6
				c2.9,4.7,5.1,9.7,6.6,15c2.2,8.2,3.8,16.6,4.8,25c1.3,10.2,4.2,20.2,8.6,29.6C259.6,609.8,267.4,624.2,274.2,621.3"/>
			<path class="st1" d="M281.7,642.7c-2.9,1.6-2.9,13.1-1.5,19.1c1.4,6,7.2,13.4,9,15.4s2.2,2,3.3,1.5c0.4-0.2,0.9-0.4,1.4-0.5
				c1.5-0.6,3-1.4,4.3-2.3c2-1.5,1.2-5.2,0.9-8.5c-1.3-6.2-3.9-12.2-7.6-17.4c-4.6-7.5-6.9-9-9.7-7.4"/>
			<path class="st1" d="M285,633.4c-0.1-3.8-3.3-6.7-7.1-6.7c-1.6-0.1-3.2,0.4-4.4,1.4c-4,3.5-1.5,12,4.1,12
				c2.1,0.1,4.1-0.5,5.7-1.8c1.2-1.4,1.7-3.2,1.6-5"/>
			<path class="st1" d="M340.3,741.6c-1.7-0.4-3.3-1.2-4.6-2.3c-2.6-1.6-4.8-3.7-6.6-6.2c-0.7-1.4-0.7-1.5-2.9-0.8
				c-2.5,0.5-5,0.6-7.5,0.6c-2.4,0.2,0.3,2.8,1.9,5.1c1.6,2.3,1.1,10.4,1.1,10.4c0,0.6-0.1,1.2-0.3,1.8c-0.4,1.2,0,1.9,0.5,2.3
				c0.5,0.3,1-0.3,2.6-2.2c1.7-2.1,3.2-4.4,4.6-6.7l3,0.8c2.9,0.5,5.8,0.3,8.6-0.5c2-0.6,1.1-2.1-0.5-2.4"/>
			<path class="st1" d="M330.7,747.8c-1.1,0-1.6-0.2-2.1,0.6c-0.5,0.9-0.9,1.8-1.3,2.8c-0.3,0.6-0.1,1.4,0.5,1.8l1.5,1.2
				c0.5,0.6,1.1,1,1.8,1.3c0.9,0.5,1.1-0.8,1.1-1.8s0.5-2.8,0.5-3.9s-1-1.6-2-1.9"/>
			<path class="st1" d="M303.2,359.4c0.3,6.4,7.4,18.5,11.5,24.9c4,6.4,5.2,9.2,4.6,9.5c-0.6,0.3-2.3-2.8-4.8-5.6
				c-2.4-2.8-6.4-9.6-10-14.7c-3.6-5.1-8.9-17.2-9.7-18.3c-0.8-1.1-0.9-1.9-2.9-0.4c-2,1.5-5.4,14.7-1.1,23.8
				c3.4,6.9,7.8,13.2,13.1,18.8c2.9,3.2,6.2,8.2,5.7,8.6c-0.5,0.4-1.5-0.9-4.7-4.2c-3.2-3.4-8.6-8.9-12-13c-3.1-4-5.7-8.2-8-12.7
				c-0.5-0.9-1.2-0.6-1.7,0c-1.2,1.2-2.9,3.7-2.2,11c1.1,10,6.4,15.8,11.2,21c4.8,5.1,9.4,9.4,8.8,10.1c-0.7,0.7-5.6-3.6-8.9-6.7
				c-3.3-3.2-11.6-11-13.4-13.2c-1.8-2.2-4.5-1.1-4.4,7.6c0.1,8.7,9.9,17.4,14,22.3c4,5,9,7.6,8.6,8.5c-0.5,0.8-4.5-1.5-7.1-3.2
				c-2.6-1.8-12.5-8.1-14.5-9.5c-1.9-1.4-2.9,1.3-0.5,9.5c2.8,7.3,7.8,13.5,14.3,17.9c4.2,3.1,11.3,6.8,10.8,7.7
				c-0.5,0.9-3.3-0.2-7.4-2.1c-4-1.9-8.1-3.5-12.4-4.7c-3.5-0.9-3.5,1.6-3.5,1.6c-0.3,4.6,1.3,9.2,4.4,12.6
				c4.3,4.7,10.2,7.9,16.6,8.8c5.7,0.9,6.4,1.2,6.3,2.1c-0.1,0.9-0.7,0.9-2,0.9c-1.3,0-6.3,0.5-11.1,0.5c-4.8,0-7.2,1.1-7.2,3.2
				c0,2.1-0.2,4.8,6.9,9.5c7.1,4.7,15.1,5.3,18.4,6.1c3.3,0.8,3.5,0.9,2.9,1.9c-0.6,1-2.2,0.8-7.5,1.4c-5.3,0.5-8.6,2.6-9.2,3.9
				c-0.7,1.4,0.5,5.6,4.8,8.5c4.4,2.8,9.9,3.8,18.3,3.2c8.4-0.5,10.5-0.7,10.7,0.7c0.2,1.4-2.5,1.8-6.6,2.5
				c-4.2,0.6-7.5,0.7-9.8,2.8c-2.3,2.1-0.6,5.6,3.5,8.7s14,2.8,18.3,2.6s10.6-1.8,11.1-0.7c0.5,1.1-3.1,2.8-7.4,4.3
				s-5.7,2.4-6.5,4.3c-0.8,1.9-0.2,3.4,5,5.4c5.3,1.9,11.2,2,16.6,0.1c3.9-1.9,6-2.5,6.8-1.9s0,1.4-0.8,2.4
				c-2.4,2.2-5.4,3.8-8.6,4.6c-4.4,1.1-4.8,1.1-6.4,4.6c-1.5,3.5,2.4,6.1,10.2,6.5c7.5,0,14.9-1.6,21.7-4.8c3.3-1.9,4.6-2.3,5.2-1.6
				c0.6,0.7,0.4,1.1-1.3,2.3c-2.9,2.3-6.2,4.2-9.6,5.6c-2,0.5-3.3,2.4-3,4.5c0,1.7-0.6,5.4,6.4,6.9c7.9,1.8,16.2,0,22.7-4.8
				c1.8-1.2,3.4-2.6,4.7-4.3c-0.6-5.4-0.4-10.9,0.6-16.3c-2.5-0.2-4.9-0.8-7.2-1.6c-3.2-1.6-5.7-4.3-6.8-7.6
				c-0.5-1.5-2.2-2.2-3.7-1.7c-0.2,0.1-0.3,0.1-0.4,0.2c-1.8,0.8-3.8,1.2-5.7,1.1c-4.3-0.4-8.3-2.4-11.1-5.6
				c-2.3-3-3.3-6.7-2.9-10.4c0-2.1-3.5-0.5-5.2-0.5c-3.9-0.3-7.7-1.6-11-3.8c-2.9-2.1-4.7-5.3-5-8.8c-0.3-1.7-2.2-2.8-3.5-3.4
				c-2.5-0.7-4.8-1.9-6.8-3.5c-2.5-2.4-4-5.6-4.3-9c-0.1-1.7-2-1.8-8.2-5c-6.2-3.2-5.7-9.7-5.5-12.3c0.2-2.6,3.2-4.8,3.2-5.8
				c0-1-2-1.2-4.2-2.5c-4.6-1.8-7.6-6.2-7.5-11c0-7.7,5.1-8.5,5.1-8.5c-1.1-0.5-2.1-1-3.1-1.7c-2.1-1.2-7.8-5.1-7.8-9.6
				c-0.3-3,1.1-5.9,3.6-7.7c1.8-0.9,3.7-1.6,5.7-2.1c-1.8-1.3-3.2-3.2-3.8-5.3c-1.5-3.7-1.1-7.8,1.2-11.1c2.5-2.4,6-3.6,9.5-3.2
				c2.3,0,4.4,1.3,5.2,0.5c0.9-0.8,0.9-1.2,0.2-3c-0.9-2.5-1-5.1-0.3-7.7c0.8-3.3,3.4-5.9,6.8-6.5c6-1.9,12.3,2.1,14.3,3.2
				c2,1.1,1.1-1.5,1.1-3.4s-4-6.7-8.6-13.7c-4.5-6.6-8.5-13.6-11.8-20.9c-4.1-8.7-7.2-17.9-9.2-27.4c-0.7-3.4-2.1-1.7-2.1-1.7
				s-1.3,0.5-4.6,8.5c-2.7,6.9-3.9,14.2-3.5,21.6"/>
			<path class="st1" d="M408.7,500.1c-4.9-0.5-9.3-3.1-11.9-7.3c-3.5-5.1-9-6.4-18.4-6.2c-7.3,0.9-14.1-3.7-16.1-10.6
				c-2.2-6.3,0.4-13.7,10-18.2c9.6-4.5,13.8-9.7,14.3-17.7c0.5-7.9-9.5-17.9-19.6-29.2c-6.9-8.3-12.8-17.3-17.5-26.9
				c-1.6,2.2-2.6,4.7-2.9,7.4c0,3.7,1.3,7.6,0,8.7c-1.3,1.1-2-1.6-7.8-4.1s-10.5-2.8-14,1.4s0,11.1,3.2,14.5
				c3.2,3.3,5.9,5.9,5.1,7.1c-0.8,1.3-5.7-1.9-7.4-3c-1.7-1-5.4-5.2-11-4.6s-7.5,2.1-8,6.7c-0.5,4.6,5,8.7,8.6,10.5
				c3.6,1.8,5,3.3,4,4c-1,0.7-1.7,0-3.3-0.5c-3-0.8-6.1-0.8-9.1,0c-2.9,1.1-7.4,4.9-3.1,9.8c4.4,4.9,13.3,6.5,15.1,6.9
				s2.9-0.2,2.9,1.3s-3.8,1.4-8.6,1.5c-4.8,0.1-6.3,4.9-5.6,8.5c0.7,3.6,8.8,7.4,13.3,8.1c4.4,0.7,6.1,0,6.5,1.3
				c0.4,1.3-0.5,1.8-3.1,2.6c-2.5,0.8-7.4,1.2-8.3,5.1c-0.9,3.9-1,5.6,2.7,9c3.3,2.5,7.6,3.4,11.7,2.5c1.8-0.4,4-2.3,5.7-0.5
				c1.7,1.8-1.5,3.2-4.6,5.3c-3.1,2.2-2.9,6.2,2.3,8.9c3.9,2.1,8.5,2.5,12.7,1.1c2.2-0.6,5-4,6.4-1.9c1.3,2.1-4.4,2.8-6.9,5.9
				c-2.5,3-1.6,8,3.4,11c4.7,2.1,10.2,2,14.8-0.3c1.4-1.3,3.2-1.8,4.2-0.8c1.1,1-0.5,4-1.6,6.4c-1.1,2.5-3,9.7,4.6,12.6
				c7.6,2.8,14.3-3.5,15.6-4.8c0.9-1,2.4-1.4,3.7-0.8c1.1,0.5,0.5,1.6-0.3,2.8c-2.2,3.5-1.1,8.1,2.4,10.3c2.9,1.9,6.5,2.6,9.9,2
				c1.1-4.1,2.5-8.5,4.2-14.8h-1.2c-0.7,0-0.8,1.1-0.8,1.5c0,0.4,0.2,0.8-0.5,0.8s-0.7,0.3-1.7,0.9s-1.8,1.5-2.2,1.2
				c-0.4-0.3,1.9-1.8,2.5-2.5s1.9-2,2-2.8c0.1-0.8,0.5-1.4,1.8-2.4c0.3-0.4,0.7-0.8,0.9-1.2c0.9-4.1,1.7-8.9,2.5-14.9
				c0.6-3.9,0.7-7.7,0.9-11.3L408.7,500.1z"/>
			<path class="st1" d="M254.8,389.7c4.8,9.5,11.3,18,19.4,25c0,0-1.4-4-2.1-6.7c-0.4-1.9-0.4-3.9,0-5.9c0,0-2.9-3.6-8.2-11.5
				c-3.6-6.2-6.3-12.8-8-19.7c2.5,6.2,5.4,12.2,8.6,18c2.5,3.9,5.2,7.7,8.2,11.3c0,0,1.5-5.6,2.7-5.9c1.1-0.2,1.9,0.6,2.9,1.9
				c1,1.3,1.8,1.1,1.8,1.1s-1.3-2.6-3.3-5.9c-0.9-1.5-2.1-2.8-3.1-4.4c-5.1-6.9-9.4-14.4-12.8-22.3c-4.5-12.3-8.5-24.9-11.7-37.6
				c-1.3-6.5-2.6-3-3.9,1.9c-2.1,7.1-2.7,14.5-1.8,21.8C244.6,364.3,248.5,377.5,254.8,389.7"/>
			<path class="st1" d="M265.2,432.9c2.9,2.2,7.4,5.1,7.4,5.1s-0.6-1.7-1.1-3.6c-0.3-1.9-0.5-3.9-0.6-5.8l-6-5.1
				c-4.2-3.7-8-7.8-11.5-12.2c-6.2-7.5-1.3-3,3.7,2.3c5,5.4,14.5,13,14.5,13v-1.7c0.1-1.4,0.7-2.8,1.6-3.9c0.8-1.1,0.3-1.2-5-5.4
				c-9.5-8.5-17.8-18.1-24.9-28.6c-5.7-9.1-11.8-21.6-11.8-21.6c-1.3,13.4,1.6,26.8,8.4,38.5c11.5,20.2,22.6,26.7,25.5,29"/>
			<path class="st1" d="M324.7,548.5c3.5-1.3,5.4-4.9,4.6-8.5c0-0.1-3.8,1.2-7.4,2.4c-5,1.8-10.2,3.1-15.5,3.9
				c-3.4,0-3.4-0.4-3.5-0.9c-0.1-0.5,2.7,0,7.6-0.9c5.3-1.4,10.3-3.6,15.1-6.3c1.4-1,1.3-1.2-0.9-1.4c-1.8-0.1-3.5-0.7-5-1.8
				c-0.8-0.7-3.1,0.2-8.7,1.5c-8.6,2-17.3,3.1-26.1,3.3c-6.3,0-12.5-0.6-18.7-1.7c-1.5-0.3-2.9,0.5,1.3,7.6
				c4.2,7.2,19.4,10.9,30,10.8C308,556.5,318.5,550.9,324.7,548.5"/>
			<path class="st1" d="M296.7,533.7c10.9,0,14.9-3,14.9-3s0-0.6-1.5-2.8c-0.9-1.8-1.3-3.8-1.2-5.9c0,0-2.7,0.5-7.1,1.1
				c-5.2,0.9-10.4,1-15.6,0.2c-5.7-1-3.3-1.5,1.4-1.1c5.5,0.2,11-0.6,16.3-2.1c2.9-0.9,1.7-1.9-0.3-2.5c-2.5-1.2-4.8-2.5-7.1-3.9
				c-8.5,1-17,1.1-25.5,0.3c-7.6-1-15.1-2.6-22.4-4.9c-2.4-0.3-2.3,0.7-2.3,0.7s-0.6,1.1,3.5,7.6c4.2,6.5,12.5,10.8,19.5,12.8
				C278.2,532.6,287.5,533.8,296.7,533.7"/>
			<path class="st1" d="M294,508.8c-0.5-0.9-0.9-1.8-1.1-2.8c-0.3-1.4,0.1-2.9,1.2-3.8c-3.5-0.8-7-1.3-10.6-1.7
				c-4.6-0.5-9.1-1.4-13.5-2.6c-5-1.2-8.4-2.5-8.2-3.1c0.1-0.6,1.7,0.2,4.6,1.3c2.9,1.1,15.3,2.4,20.6,3.1c5.2,0.7,8.2,1.2,9.2,0.7
				c1.4-0.6,2.8-1,4.2-1.3c0,0-2.3-0.6-5-1.1c-2.4-0.4-4.7-1.3-6.8-2.6c-1.5-0.9-1.9-1.3-8.6-2c-6.6-0.7-11.9-2.8-23.8-7.1
				c-8.2-2.8-16-6.6-23.2-11.3c-2.4-1.9-2.2-0.5-1.5,1.9c0.8,4.7,3.1,9,6.5,12.4c6,6.9,8.9,9.8,24.1,15.3
				C272.2,507.4,283.1,509,294,508.8"/>
			<path class="st1" d="M249.3,472.5c9.7,6.5,20.7,11,32.3,13.1c0.8-0.9-0.8-4,0-5.6c0.8-2.3,2.2-2.3,5.4-2.5
				c3.2-0.1,1.1-0.9,0.4-0.9c-2.2-0.3-4.3-0.8-6.4-1.5c-6.1-1.3-12.1-2.9-18-4.8c-7.4-2.8-9.6-4.7-9.4-5.3c0.2-0.5,3.4,1.8,10.2,4.3
				c6.2,1.9,12.6,3.4,19.1,4.5c4.3,0.9,0.5-1-1.5-2.2c-1.9-1.5-3.6-3.4-5-5.5c0,0-4.7-0.8-12.6-3.2c-7.3-2.2-14.3-5.1-21-8.7
				c-2.1-1.3-4.4-2.8-6.8-4.6c-4.4-3.2-8.9-6.5-10.6-7.6c-2.7-1.9-1.9-0.3-1.5,0.8c1.4,4.5,3.5,8.8,6.3,12.6
				c4.2,5.9,5.7,7.9,18.9,17"/>
			<path class="st1" d="M247.1,446.5c8,6.2,16.9,11,26.5,14.3c1.9,0.8,1.7-0.4,1.3-1.4c-0.3-1-0.7-4.6-0.7-4.6s-4.7-2.8-9.9-5.6
				c-5.2-2.8-11-7.1-14.8-9.8c-3.8-2.6-1.6-2.5-0.4-1.4c1.2,1.1,6.6,4,11.9,7.2c5.3,3.2,13.5,8.1,13.5,8.1c0.1-1,0.6-2,1.3-2.8
				c1.1-1,3.8-0.8,3.8-0.8c-0.8-0.8-1.6-1.7-2.2-2.6c-0.8-1.3-5.1-2.6-10-5c-7.2-3.9-13.9-8.5-20-13.9c-6.3-5.4-19-18.8-19.8-19.7
				c-0.8-0.9-1.4-1-1.5,0.5c-0.4,2.8-0.1,5.7,0.9,8.5c3.4,11.7,10.5,21.9,20.3,29.3"/>
			<path class="st1" d="M293.7,349.6c1.5,3,3.1,5.4,4.2,7.4c1.8,2.8,2.9,4.9,2.9,4.9c0.2-0.9,0.2-1.9,0-2.8c-0.4-2.4-0.4-4.9,0-7.3
				c0.3-1.5,0.5-3.1,0.5-4.6c-0.1-1.4-0.4-2.7-0.9-4c-0.3-1.7-2.3-9.2-3.3-14.5c-1.1-6.5-1.7-13.1-1.7-19.7c0-6.7,1.1-3.3,1.1,0
				c0.1,5.3,0.5,10.6,1.3,15.9c1.1,6.6,2.5,13.1,4.4,19.5c0.3-1.5,0.6-3,1.1-4.4c1-2.5,2.7-5.6,4-8.7s0.8-3.7,0.8-3.7
				s-4.6-21.7-5.7-32c-1.1-10.3-3.3-37.5-3.3-37.5c-6.8,6.8-11.8,24.4-12.7,41c-0.3,9.7,0.4,19.3,2.1,28.8
				C289.1,335.3,290.8,342.7,293.7,349.6"/>
			<path class="st1" d="M278.7,383.9c0.3-4.9,1.4-8.7,4.7-9.8c-2.2-3.8-4-7.8-5.4-11.9c-1.7-5.1-3-10.4-3.8-15.7
				c-1.7-11.8-3.2-23.7,0.4-4s7.8,26.6,7.8,26.6l5,8.2c-0.7-3.3-0.9-6.7-0.6-10.1c0.1-4.5,0.7-9,1.9-13.4
				c-4.2-8.6-7.6-17.6-10.1-26.8c-3.4-11.7-5.5-23.8-6.3-36c-0.2-7.6-0.4-10.6-0.4-10.6s-6.4,4.8-8.6,28.6
				c-1.3,18.8,1.2,37.6,7.4,55.5C273.9,373.1,278.6,383.9,278.7,383.9"/>
			<path class="st1" d="M348.1,565.8c0,0-0.9-0.7-3.9-2.6c-3-1.9-2.1-7.6-2.1-7.6c-1,0.8-2,1.5-3.1,2.1c-2.4,1.7-5,3.2-7.7,4.3
				c-3.1,1.2-4.6,2-6.4,2.6c-1.9,0.6-1.4-0.2,0.2-1.1c1.9-1.2,4-2.2,6.1-3c4.3-2.4,8.4-5.2,12.1-8.5c0,0-2-0.2-5.3-0.3
				c-2.5-0.3-5.1-0.9-7.4-1.8c0,0-3.3,2.8-16.7,8.5c-7.9,3.4-16.2,5.8-24.7,7.2c1,4,3.9,7.4,7.8,9c5.4,2.2,12.7,3.6,27.1,0.3
				C332.4,573.1,340.5,570,348.1,565.8"/>
			<path class="st1" d="M365.8,579.2c0.6-3.3-0.1-6.7-2.1-9.4c-0.9,0.7-1.8,1.4-2.7,2.2c-3.1,3.2-6.6,5.9-10.6,7.9
				c-5.6,2.8-7.6,2.6-2.2-0.3c4.9-3.1,9.4-6.8,13.4-11l-2.1-0.8c-2.1-0.8-5.7,0.6-20.8,9.4c-15.1,8.8-23.8,9.3-23.8,9.3
				s6.7,8,24.9,7.4C358,593.4,364.6,584.9,365.8,579.2"/>
			<path class="st1" d="M400.1,572.9c-1.3,1.7-2.9,3.2-4.8,4.5c-3.1,1.4-6.5,2.4-9.9,2.8c-0.4,0.9-1,1.8-1.7,2.6
				c-2.3,3.1-4.9,5.8-7.8,8.3c-3.1,2.2-8.2,3.7-8.6,3.1s2.9-1.7,6.1-3.6c3-2.2,5.7-4.8,8-7.8c2.1-2.4-1-1.9-1-1.9
				c-2.4,0.1-4.8,0-7.2-0.2c-3.5-0.3-2.9,0-3.8,1.7c-1.5,2.1-3.2,4.2-5,6c-3.1,3.7-6.2,6.9-9.2,10.6c-2.1,2.3-0.6,3.1-0.6,3.1
				s1,1.4,9,2.3c5.6,0.7,11.3-0.5,16.1-3.3c4.1-2.5,7.8-5.6,10.9-9.2C400.6,581.4,400,572.8,400.1,572.9"/>
			<path class="st1" d="M404.4,594.4c-0.9,1.3-1.9,2.5-3,3.7c0.7-2.1,1.5-4.2,2.5-6.2c0.7-1,1.4-2.1,1.9-2.8
				c-1.5-3.1-2.6-6.3-3.3-9.6c-1.8,5.8-4.2,11.4-7.2,16.7c-4.2,6.5-8,8.9-5.5,10.7s7.1,2.1,12.4-0.4c4.1-2,6.9-5.9,7.4-10.3
				c-0.9-1.3-1.7-2.8-2.5-4.3c-1.1,0.7-2.1,1.5-2.9,2.5"/>
			<path class="st1" d="M709.8,450.9c6.5-4.3,11.5-10.6,14.1-17.9c2.5-8.2,1.6-10.8-0.5-9.5c-2.1,1.3-11.8,7.7-14.5,9.5
				c-2.7,1.8-6.6,4.2-7.1,3.2c-0.5-0.9,4.6-3.8,8.6-8.5c4-4.7,13.9-13.8,13.9-22.3c0.1-8.6-2.5-9.8-4.4-7.6s-10,10-13.3,13.2
				c-3.3,3.2-8.3,7.4-8.9,6.7c-0.6-0.6,4-5,8.6-10.1c4.6-5.1,10.2-10.9,11.5-21c0.7-7.2-1.1-9.8-2.3-11c-0.2-0.4-0.8-0.6-1.2-0.4
				c-0.2,0.1-0.3,0.2-0.4,0.4c-2.3,4.4-5,8.7-8,12.7c-3.4,4.1-8.7,9.7-11.9,13c-3.2,3.3-4.2,4.6-4.8,4.2c-0.6-0.4,3-5.4,5.7-8.6
				c5.3-5.6,9.7-11.9,13-18.8c4.2-9.1,0.9-22.5-1-23.8c-1.9-1.3-2.2-0.6-2.9,0.4c-2.9,6.3-6.1,12.4-9.6,18.3
				c-3.6,5.1-7.9,11.8-10.2,14.7c-2.3,2.8-3.8,6.3-4.5,5.6s0.4-3,4.4-9.5s11.2-18.5,11.5-24.9c0.4-7.3-0.8-14.7-3.5-21.6
				c-3.2-8-4.6-8.5-4.6-8.5s-1.5-1.6-2.1,1.7c-3.8,17.3-11,33.7-21.1,48.3c-4.6,6.9-8.6,11.8-8.6,13.7s-0.9,4.5,1,3.4
				c1.9-1,8.4-5.1,14.3-3.2c3.4,0.7,6.2,3.3,6.9,6.7c0.7,2.5,0.6,5.2-0.3,7.7c-0.8,1.8-0.6,2.4,0,3c0.6,0.6,2.9-0.5,5.4-0.5
				c3.5-0.4,7,0.8,9.5,3.2c2.2,3.3,2.6,7.5,1,11.1c-0.6,2.1-1.9,4-3.7,5.3c2,0.5,3.9,1.2,5.7,2.1c2.5,1.8,3.9,4.7,3.7,7.7
				c0,4.6-5.7,8.5-7.8,9.6c-2.1,1.2-3.1,1.7-3.1,1.7s5.1,0.8,5,8.5c0.1,4.9-3,9.2-7.6,11c-2.1,1.3-4.2,1.5-4.2,2.5
				c0,0.9,2.9,3.1,3.1,5.8c0.3,2.7,0.9,9.3-5.4,12.3c-6.3,3.1-8.1,3.4-8.3,5c-0.4,3.4-1.9,6.5-4.3,9c-2,1.6-4.2,2.8-6.7,3.5
				c-1.7,0.5-3,1.7-3.6,3.4c-0.2,3.5-2,6.7-4.9,8.8c-3.3,2.2-7.1,3.5-11.1,3.8c-1.6,0-5-1.6-5.2,0.5c0.4,3.7-0.7,7.5-3.1,10.4
				c-2.8,3.2-6.8,5.3-11.1,5.6c-2,0.1-3.9-0.3-5.7-1.1c-1.4-0.7-3.1-0.2-3.9,1.2c-0.1,0.1-0.1,0.2-0.2,0.4c-1.2,3.3-3.6,6.1-6.8,7.6
				c-2.3,0.8-4.7,1.4-7.2,1.6c1,5.4,1.1,10.9,0.5,16.3c1.2,1.7,2.8,3.2,4.7,4.3c6.5,4.8,14.8,6.6,22.8,4.8c7-1.6,6.2-5.2,6.2-6.9
				s-0.3-3.7-2.9-4.4c-3.4-1.5-6.7-3.4-9.6-5.6c-1.5-1.2-1.7-1.7-1.2-2.3c0.5-0.6,1.9-0.3,5.2,1.6c6.8,3.1,14.1,4.7,21.6,4.7
				c7.8-0.3,11.7-3,10.1-6.5c-1.6-3.4-1.9-3.5-6.2-4.6c-3.2-0.8-6.2-2.4-8.6-4.6c-0.9-1-1.5-1.6-0.9-2.4c0.6-0.8,2.9,0,6.8,1.9
				c5.4,1.8,11.3,1.8,16.6-0.1c5.1-2,5.7-3.6,5-5.4c-0.7-1.7-2.1-2.7-6.3-4.3c-4.2-1.6-7.8-3.2-7.4-4.3c0.4-1.1,6.8,0.5,11,0.7
				s14.1,0.3,18.2-2.6c4-2.9,6-6.8,3.5-8.7s-5.7-2-9.7-2.8c-4-0.8-7-1.1-6.8-2.5c0.3-1.3,2.3-1.2,10.9-0.7
				c8.5,0.5,13.9-0.4,18.3-3.2c4.4-2.8,5.4-7.1,4.8-8.5c-0.6-1.4-4-3.5-9.3-3.9c-5.3-0.5-6.8-0.5-7.6-1.4c-0.7-0.9-0.6-1.2,2.9-1.9
				c3.5-0.6,11.5-1.5,18.5-6.1c7-4.6,7-7.4,7-9.5s-2.5-3.2-7.3-3.2c-4.8,0-9.9-0.5-11.1-0.5s-1.9-0.2-2-0.9
				c-0.1-0.7,0.6-1.2,6.3-2.1c6.4-1,12.3-4.1,16.7-8.8c3.1-3.5,4.7-8,4.5-12.6c0,0,0-2.5-3.6-1.6c-4.2,1.3-8.4,2.9-12.4,4.7
				c-4,1.9-7,3.1-7.4,2.1c-0.4-1,6.6-4.6,10.9-7.7"/>
			<path class="st1" d="M691.6,432c-2.9-0.8-6-0.8-9,0c-1.6,0.5-2.4,1.2-3.4,0.5c-1-0.7,0.7-2.3,4.1-4c3.4-1.7,9.3-5.8,8.8-10.5
				c-0.5-4.7-2.6-6.2-8.2-6.7c-5.6-0.5-9.3,3.5-10.9,4.6c-1.6,1.1-6.4,4.2-7.3,3c-0.9-1.2,1.7-3.7,5-7.1c3.3-3.4,6.8-10.5,3.2-14.5
				c-3.6-3.9-8.2-3.8-14.1-1.3s-6.3,5.1-7.6,4c-1.3-1,0-5,0-8.7c-0.2-2.7-1.2-5.2-2.9-7.4c-4.8,9.6-10.7,18.6-17.6,26.9
				c-9.8,11.3-19.8,21.1-19.5,29.2c0.3,8,4.7,13,14.3,17.7c9.6,4.7,12.3,11.9,9.9,18.2c-2.4,6.3-6.6,10.9-16.1,10.6
				c-9.4-0.3-14.7,1.1-18.3,6.2c-2.6,4.1-7,6.8-11.9,7.3h-2.3c0.1,3.5,0.4,7.3,0.9,11.3c0.7,5.9,1.6,10.7,2.5,14.9
				c0.3,0.4,0.6,0.8,0.9,1.2c1.4,0.9,1.7,1.5,1.8,2.4s1.3,2.1,2,2.8c0.7,0.8,3.1,2,2.6,2.5c-0.5,0.5-1.4-0.5-2.4-1.2
				c-0.9-0.7-1-0.9-1.7-0.9c-0.7,0-0.3-0.3-0.3-0.8c0-0.5,0-1.5-0.9-1.5h-1.1c1.4,6.3,2.9,10.7,4,14.8c3.4,0.7,7,0,9.9-2
				c3.6-2.2,4.7-6.7,2.5-10.3c-0.9-1.2-1.4-2.3-0.3-2.8c1.2-0.6,2.7-0.2,3.6,0.8c1.3,1.3,8,7.6,15.7,4.8c7.6-2.8,5.7-10.2,4.5-12.6
				c-1.2-2.4-2.9-5.4-1.6-6.4c1.3-1.1,2.9-0.5,4.3,0.8c4.6,2.3,10,2.4,14.7,0.3c5-3,6-7.9,3.4-11c-2.5-3-8.4-3.8-7-5.9
				c1.3-2.1,4.4,1.3,6.5,1.9c4.2,1.4,8.8,1,12.6-1.1c5.2-2.8,5.4-6.8,2.3-8.9c-3.1-2.1-6.4-3.6-4.6-5.3c1.8-1.7,4,0.1,5.7,0.5
				c4.1,0.9,8.3-0.1,11.6-2.5c3.9-3.4,3.7-5.1,2.9-9c-0.9-3.9-5.7-4.5-8.3-5.1c-2.5-0.6-3.4-1.3-3-2.6c0.4-1.3,2-0.5,6.4-1.3
				c4.4-0.7,12.7-4.5,13.4-8.1c0.7-3.6-0.7-8.2-5.7-8.5c-5-0.3-8.8,0-8.6-1.5c0.2-1.5,1-0.9,2.9-1.3c1.8-0.3,10.7-2.1,15-6.9
				c4.3-4.8-0.3-8.7-3.3-9.8"/>
			<path class="st1" d="M724.5,414.7c8-7,14.6-15.5,19.3-25c6.3-12.1,10.3-25.3,11.7-38.8c0.8-7.4,0.2-14.8-1.9-21.9
				c-1.3-4.8-2.4-8.5-3.8-1.9c-1.3,6.6-8.6,28.8-11.8,37.6c-3.4,7.9-7.7,15.4-12.8,22.4c-0.9,1.5-2.2,3-3.2,4.4
				c-2,3.2-3.3,5.9-3.3,5.9s0.9,0,1.8-1.1c0.9-1.1,1.8-2.1,2.9-1.9c1.1,0.2,2.7,5.9,2.7,5.9c2.9-3.6,5.6-7.4,8.1-11.3
				c3.3-5.8,6.2-11.9,8.8-18c-1.8,6.9-4.5,13.5-8.1,19.7c-5.2,7.9-8.1,11.5-8.1,11.5c0.3,2,0.2,3.9-0.2,5.9
				C726,410.3,725.3,412.5,724.5,414.7"/>
			<path class="st1" d="M767.3,365.4c0,0-6,12.5-11.8,21.6c-7,10.5-15.4,20.1-24.9,28.6c-5.4,4.1-5.7,4.3-4.9,5.4
				c0.8,1.1,1.3,2.5,1.4,3.9v1.7c0,0,9.5-7.7,14.5-13c5.1-5.3,9.8-9.8,3.8-2.3c-3.5,4.5-7.5,8.5-11.8,12.2c-2.3,2.1-6,5.1-6,5.1
				c-0.1,2-0.2,3.9-0.5,5.8c-0.3,1.2-0.7,2.4-1.1,3.6c0,0,4.4-2.8,7.3-5.1s14.3-8.8,25.6-29c6.7-11.7,9.6-25.2,8.3-38.5"/>
			<path class="st1" d="M712.2,298.9c-0.8-16.6-5.7-34.2-12.6-41c0,0-1.9,27.1-3.2,37.4c-1.3,10.3-5.7,32-5.7,32s-0.5,0.6,0.9,3.7
				c1.4,3.1,2.9,6.3,3.8,8.7c0.6,1.4,1,2.9,1.2,4.4c1.8-6.4,3.3-12.9,4.4-19.5c0.8-5.3,1.3-10.6,1.4-15.9c0-3.2,1-6.7,1.1,0
				c-0.1,6.6-0.7,13.2-1.8,19.7c-0.9,5.3-2.9,12.8-3.1,14.5c-0.5,1.3-0.8,2.6-0.9,4c-0.1,1.6,0.1,3.1,0.5,4.6c0.3,2.4,0.3,4.9,0,7.3
				c-0.2,0.9-0.2,1.9,0,2.8c0.9-1.7,1.8-3.3,2.9-4.9c1.1-2,2.9-4.4,4.2-7.4c3-6.9,4.8-14.3,5.4-21.8c1.6-9.5,2.2-19.2,1.9-28.8"/>
			<path class="st1" d="M727.9,364.4c6.2-17.8,8.7-36.7,7.5-55.5c-2.2-23.8-8.6-28.6-8.6-28.6s-0.2,3-0.4,10.6
				c-0.7,12.2-2.8,24.2-6.3,36c-2.5,9.2-5.8,18.2-9.9,26.8c1.1,4.4,1.7,8.9,1.8,13.4c0.2,3.4,0,6.8-0.6,10.1l5.1-8.2
				c0,0,4.3-7,7.8-26.6c3.5-19.6,2.1-7.7,0.3,4c-0.8,5.3-2,10.6-3.7,15.8c-1.4,4.1-3.2,8.1-5.4,11.9c3.3,1.1,4.5,4.9,4.6,9.8
				c0,0,4.8-10.8,8-19.5"/>
			<path class="st1" d="M732.6,538c-6.2,1.1-12.4,1.7-18.7,1.7c-8.8-0.2-17.6-1.3-26.2-3.3c-5.7-1.3-8-2.2-8.8-1.5
				c-1.4,1.1-3.1,1.7-4.8,1.8c-2.3,0.3-2.6,0.5-1.1,1.4c4.8,2.7,9.8,4.8,15.1,6.3c4.9,0.9,7.6,0.4,7.6,0.9c0,0.5-0.2,1-3.5,0.9
				c-5.3-0.8-10.5-2.1-15.6-3.9c-3.6-1.2-7.3-2.6-7.3-2.4c-1,3.5,1,7.2,4.5,8.5c6.2,2.4,16.8,7.9,27.3,7.9s25.8-3.7,30.1-10.9
				C735.6,538.3,733.9,537.6,732.6,538"/>
			<path class="st1" d="M750.1,509.2c-7.4,2.3-14.9,3.9-22.5,4.9c-8.5,0.8-17,0.7-25.5-0.3c-2.3,1.5-4.7,2.8-7.2,3.9
				c-1.9,0.6-3.1,1.6-0.3,2.5c5.3,1.6,10.8,2.3,16.3,2.1c4.6-0.5,7.1,0,1.3,1.1c-5.1,0.7-10.4,0.7-15.5-0.2
				c-4.5-0.6-7.1-1.1-7.1-1.1c0.1,2-0.3,4-1.2,5.9c-1.5,2.2-1.5,2.8-1.5,2.8s4,3.1,15,3c9.2,0.1,18.4-1.1,27.4-3.5
				c7-2,15.2-6.3,19.6-12.8c4.4-6.5,3.6-7.6,3.6-7.6S752.5,508.9,750.1,509.2"/>
			<path class="st1" d="M765.6,474.3c-7.2,4.7-15,8.5-23.2,11.3c-11.9,4.3-17.2,6.4-23.9,7.1c-6.7,0.7-7.1,1.1-8.6,2
				c-2,1.3-4.3,2.2-6.7,2.6c-2.9,0.5-5.1,1.1-5.1,1.1c1.4,0.3,2.9,0.8,4.2,1.3c0.9,0.5,3.9,0,9.1-0.7c5.2-0.7,17.7-1.9,20.6-3.1
				s4.6-1.9,4.7-1.3c0.1,0.6-3.2,1.9-8.2,3.1c-4.5,1.2-9,2.1-13.6,2.6c-3.6,0.4-7.2,0.9-10.7,1.7c1.1,1,1.6,2.4,1.3,3.8
				c-0.3,1-0.7,1.9-1.2,2.8c10.9,0.3,21.7-1.3,32.1-4.6c15.1-5.6,18-8.5,24.1-15.4c3.4-3.4,5.7-7.7,6.5-12.4
				c0.7-2.5,0.8-3.8-1.6-1.9"/>
			<path class="st1" d="M773.1,442c-1.8,1.2-6.2,4.5-10.8,7.6c-2.4,1.7-4.5,3.3-6.7,4.6c-6.7,3.6-13.7,6.5-21,8.7
				c-4.1,1.3-8.3,2.3-12.6,3.2c-1.3,2.1-2.9,3.9-4.8,5.5c-2.1,1.2-5.7,3-1.5,2.2c6.5-1,12.8-2.5,19.1-4.5c6.8-2.5,9.9-4.8,10.2-4.3
				c0.3,0.5-2,2.5-9.4,5.3c-5.9,2-12,3.6-18.1,4.8c-2,0.7-4.2,1.2-6.3,1.5c-0.7,0-2.9,0.6,0.3,0.9c3.2,0.3,4.6,0.2,5.7,2.5
				c0.7,1.8-0.9,4.9,0,5.6c11.5-2.1,22.5-6.5,32.1-13c13.4-9.2,14.8-11,19-16.9c2.8-3.8,5-8.1,6.3-12.7c0.3-1.1,1.2-2.8-1.5-0.8"/>
			<path class="st1" d="M723,450.4c0.7,0.8,1.1,1.8,1.3,2.8c0,0,8-4.7,13.4-8.1c5.4-3.4,10.8-6.3,12-7.2s3.4-1.2-0.5,1.4
				c-3.8,2.5-9.6,6.8-14.9,9.7c-5.3,2.9-9.8,5.6-9.8,5.6s-0.4,3.5-0.7,4.6c-0.3,1-0.5,2.3,1.4,1.5c9.5-3.3,18.5-8.2,26.4-14.3
				c9.8-7.4,16.9-17.7,20.3-29.3c0.9-2.7,1.2-5.6,0.9-8.5c0-1.4-0.6-1.6-1.5-0.5c-0.9,1.2-13.4,14.5-19.8,19.7
				c-6.1,5.4-12.8,10-20,13.9c-4.9,2.4-9.2,3.7-10.1,5c-0.6,1-1.3,1.8-2.1,2.6c0,0,2.9-0.3,3.9,0.8"/>
			<path class="st1" d="M668.2,550.1c-2.4,0.9-5,1.5-7.5,1.8c-3.4,0-5.2,0.3-5.2,0.3c3.7,3.2,7.7,6.1,12,8.5c2.1,0.8,4.1,1.8,6,3
				c1.7,0.8,2.2,1.6,0.3,1.1s-3.4-1.4-6.5-2.6c-2.7-1.2-5.3-2.6-7.6-4.3c-2.2-1.5-3.1-2.1-3.1-2.1s1,5.6-2,7.6s-4.2,2.6-4.2,2.6
				c7.6,4.2,15.8,7.3,24.3,9.3c14.3,3.3,21.6,1.9,26.9-0.3c4-1.5,6.9-4.9,7.9-9c-8.5-1.4-16.8-3.8-24.7-7.2
				C671.4,552.9,668.2,550.1,668.2,550.1"/>
			<path class="st1" d="M639.3,568l-2.2,0.8c4,4.1,8.4,7.8,13.3,11c5.7,2.8,3.5,3.1-2.1,0.3c-3.9-2-7.4-4.7-10.4-7.9
				c-0.9-0.8-1.9-1.5-2.9-2.2c-1.9,2.8-2.7,6.1-2.1,9.4c1.1,5.6,7.8,14.1,26,14.8c18.2,0.7,25-7.4,25-7.4s-8.8-0.3-23.9-9.2
				C644.9,568.6,641.3,567.1,639.3,568"/>
			<path class="st1" d="M634,588.5c-1.8-1.8-3.5-3.9-4.9-6c-1.1-1.7-0.4-2-3.8-1.7c-2.5,0.2-4.9,0.2-7.4,0.2c0,0-3.1-0.5-0.9,1.9
				c2.3,3,5,5.6,8.1,7.8c2.9,1.9,6.2,3,5.9,3.6c-0.4,0.6-5.3-0.9-8.6-3.1c-2.9-2.4-5.5-5.2-7.8-8.3c-0.7-0.8-1.2-1.6-1.6-2.6
				c-3.5-0.5-6.9-1.4-10-2.8c-1.8-1.3-3.3-2.8-4.6-4.5c0,0-0.5,8.5,9.2,19c3.1,3.6,6.8,6.7,10.8,9.2c5,2.9,10.8,4.1,16.5,3.4
				c8.1-0.9,9-2.3,9-2.3s1.4-0.8-0.5-3.1c-3.1-3.6-6.1-6.9-9.3-10.6"/>
			<path class="st1" d="M596,579.5c-0.7,3.3-1.8,6.5-3.2,9.6c0.4,0.7,1.2,1.8,1.8,2.8c1.1,2,2,4.1,2.7,6.2c-1.1-1.1-2.2-2.4-3.1-3.7
				c-0.8-1-1.8-1.8-2.9-2.5c-0.9,1.5-1.6,3-2.5,4.3c0.6,4.4,3.3,8.3,7.3,10.3c5.3,2.5,10,2.1,12.5,0.4c2.4-1.7-1.3-4.2-5.5-10.7
				c-3-5.3-5.4-10.9-7.2-16.7"/>
			<path class="st1" d="M595.1,326.8c2-0.1,3.7,1.4,3.7,3.4c0,0,0,0.1,0,0.1c-0.1,1.9-1.8,3.4-3.7,3.2c0,0,0,0,0,0
				c-1.9,0.1-3.5-1.3-3.6-3.1c0,0,0-0.1,0-0.1c0-1.9,1.5-3.5,3.5-3.5C595.1,326.8,595.1,326.8,595.1,326.8"/>
			<path class="st1" d="M549.8,328.4c1.9,1,3.9,1.9,6,2.6c6.8,1.8,14.1,1.2,20.5-1.7c5.5-3.2,11.5-5.5,17.8-6.7
				c3.8-0.4,5.6,1.2,9,1.3c1,0.1,1.9-0.3,2.5-1.1c0.7-1.4,0.3-4.9-4.8-7.8s-13-2.8-19.8-0.7c-4.9,1.4-9.6,3.6-13.7,6.6
				c-2.6,2.1-5.7,5.1-6.6,4.4c-0.9-0.7,1.5-2,2.9-3.4c0.6-0.6,1.2-1.2,1.9-1.7c-8,0.4-15.8-1.9-22.2-6.6
				C542,319.5,544.7,325.4,549.8,328.4"/>
			<path class="st1" d="M626.3,323.8c-5-2.3-10-2-16.1,0.3c-3.2,1.1-6.2,2.5-9.1,4.1c0.5,2.8-0.6,5.7-2.9,7.6
				c-3.8,2.4-7.5,1-8.4-1.4c-0.6-1.2-1-2.4-1.4-3.7c-4.4,2.3-9,3.8-13.9,4.7c-4.6,0.8-13,1.8-18.3-0.5c0,0-4.8,4.7-8.6,7.5
				c-2.4,1.9-4.8,3.6-7.4,5.3c0.5,0.8,1.3,1.4,2.2,1.7c1.6,0.6,2.2,0.8,1,2.7c-3.8,4.4-8.2,8.4-12.9,11.8c-2.8,1.8-5.8,3.3-8.9,4.5
				c1,1.7,2.4,3.2,4.2,4.2c2.5,0.9,2.9,2.5,1.9,4.2c-4.1,5-8.5,9.8-13.3,14.3c-2.1,2.1-4.8,3.5-7.8,4.1c-1.6,0.4-4.4,2-1.3,5.6
				c3.1,3.7,10.5,4.8,18.1,2.8c7.5-2,14.6-10.7,14.6-10.7s-1.6,12.4-1.6,18.2c0,5.3,0.5,10.6,1.7,15.7c0.4,1.8,1.1,3.5,2,5.1
				c4-2.9,6.9-6.9,8.4-11.5c2.4-5,3.8-10.4,4.3-15.9c0-2.6,0.1-4,2.4-2.8c1.5,1,3.2,1.8,4.9,2.4c0.5,0.1,0.9,0.2,1.4,0.2
				c-0.8-3.6-1.3-7.3-1.4-11c0-4.6,1.6-14.8,3.6-16.6c1.9-1.8,2.5,0.7,2.6,1.8c0.6,2.9,2.6,5.2,5.4,6.2c0.5-6.9,3.4-13.5,8.3-18.5
				c1-1.1,1.7-2.5,5.3-1.1c5.4,2.5,11.6,3,17.3,1.4c5.3-2,9.2-7.3,7.9-8c-0.2,0-8.1,3.8-14.3,1.9c-6.2-1.9-9-3.9-5.5-7.6
				c3.6-3.7,5.2-4.1,12.3-9.9c7.1-5.8,12.9-8.8,19.2-7.8c3.4,0.3,6.5,2.4,8,5.4c0.5,0.7,3.3,2.8,3.3-2.3c0-5.1-2.5-11.9-7.4-14.1"/>
			<path class="st1" d="M559,424c-1.1-1.7-3.4-6.7-3.4-6.7c-0.4,1.6-0.9,3.2-1.5,4.8c-1.4,3-3.1,5.8-5,8.5c0,0,3-0.6,6.2-1.6
				c2-0.6,3.9-1.5,5.6-2.8C560.1,425.5,559.5,424.8,559,424"/>
			<path class="st1" d="M533.5,405c-1.6,3.6-3.8,6.8-6.6,9.5c-4.5,4.5-8,3.9-8,3.9c1.4-0.7,2.7-1.5,3.9-2.5c2.8-2.7,5.2-5.8,6.9-9.3
				c-5.3,2.7-11.2,3.9-17.2,3.4l-1.7,4.3c-1.6,3.6-3.6,7.1-6.1,10.2c-1.6,2.2-0.3,2.6-0.3,2.6s0.8,0.9,11.7,3.8
				c6.7,1.7,13.7,2.2,20.5,1.3c0,0-0.4-1-2.2-8.2C533.2,417.8,532.9,411.4,533.5,405"/>
			<path class="st1" d="M403.4,326.8c2,0,3.6,1.5,3.7,3.5c-0.2,1.9-1.8,3.3-3.7,3.2c-1.9,0.1-3.6-1.3-3.7-3.2c0,0,0,0,0,0
				c0-1.9,1.6-3.5,3.6-3.5C403.3,326.8,403.3,326.8,403.4,326.8"/>
			<path class="st1" d="M395.4,323.8c3.4,0,5.3-1.7,9-1.2c6.3,1.2,12.3,3.5,17.8,6.7c6.4,2.9,13.7,3.5,20.6,1.7
				c2.1-0.7,4.1-1.6,5.9-2.8c5.2-3,7.9-8.9,6.8-14.7c-6.4,4.7-14.2,7-22.2,6.7c0.7,0.5,1.3,1,1.8,1.7c1.3,1.4,3.7,2.8,2.9,3.4
				c-0.8,0.5-3.9-2.3-6.6-4.4c-4.1-3-8.7-5.3-13.6-6.6c-6.9-2-14.7-2.1-19.8,0.7c-5.2,2.8-5.4,6.4-4.8,7.8c0.5,0.8,1.5,1.2,2.4,1"/>
			<path class="st1" d="M491.9,395c-3-0.6-5.7-2-7.8-4.1c-4.7-4.5-9.1-9.2-13.1-14.3c-1-1.7-0.6-3.3,1.7-4.3
				c1.8-0.9,3.2-2.3,4.2-4.1c-3.1-1.2-6.1-2.7-8.8-4.5c-4.7-3.5-9.1-7.4-13-11.8c-1.2-1.8-0.6-2.1,1.2-2.7c0.9-0.2,1.7-0.8,2.1-1.7
				c-2.6-1.6-5-3.4-7.4-5.3c-3.6-2.8-8.6-7.5-8.6-7.5c-5.4,2.3-13.8,1.3-18.3,0.4c-4.9-0.8-9.5-2.3-13.9-4.6
				c-0.3,1.3-0.8,2.5-1.3,3.7c-0.9,2.4-4.7,3.8-8.4,1.4c-2.3-1.8-3.3-4.7-2.9-7.6c-2.9-1.7-5.9-3.1-9.1-4.1
				c-5.1-2.3-11-2.5-16.1-0.3c-5,2.3-7.5,9.1-7.5,14.1c0,5,2.9,3,3.3,2.3c1.5-3.1,4.5-5.1,7.9-5.4c6.3-0.9,12.1,2,19.2,7.8
				c7.1,5.8,8.6,6.2,12.4,9.9c3.8,3.7,0.6,5.6-5.4,7.6c-6.1,2-14.1-1.9-14.3-1.9c-1.1,0.5,2.6,6,7.9,8c5.8,1.6,12,1.1,17.4-1.4
				c3.6-1.4,4.4,0,5.3,1.1c4.9,5,7.8,11.6,8.3,18.5c2.8-1,4.9-3.3,5.5-6.2c0.2-1.1,0.5-3.7,2.5-1.8c2,1.9,3.5,12.1,3.5,16.6
				c-0.1,3.6-0.6,7.3-1.4,10.8h1.4c1.7-0.6,3.3-1.4,4.8-2.4c2.3-1.3,2.5,0,2.5,2.8c0.5,5.5,1.9,10.9,4.3,15.9
				c1.6,4.6,4.6,8.6,8.6,11.5c0.9-1.6,1.6-3.3,2-5.1c1.2-5.2,1.8-10.4,1.7-15.7c0-5.9-1.5-18.3-1.5-18.3s7.1,8.7,14.6,10.8
				s14.9,0.7,18-2.8c3.1-3.6,0.2-5.1-1.3-5.6"/>
			<path class="st1" d="M442.9,417.3c0,0-2.3,5-3.4,6.7c-0.5,0.8-1.1,1.5-1.8,2c1.7,1.2,3.5,2.2,5.5,2.8c3.3,1,6.3,1.6,6.3,1.6
				c-1.9-2.6-3.6-5.5-5-8.5C443.2,418.5,442.9,417.2,442.9,417.3"/>
			<path class="st1" d="M487.7,414.4l-1.7-4.2c-5.9,0.5-11.9-0.6-17.2-3.4c1.7,3.5,4.1,6.6,7,9.3c1.2,0.9,2.5,1.8,3.9,2.5
				c0,0-3.4,0.5-8-3.9c-2.8-2.7-5.1-6-6.6-9.6c0.5,6.4,0.2,12.9-0.9,19.2c-1.9,7.3-2.3,8.2-2.3,8.2c6.9,0.9,13.8,0.5,20.5-1.3
				c10.9-3,11.7-3.9,11.7-3.9s1.3-0.4-0.3-2.5c-2.5-3.1-4.5-6.5-6-10.2"/>
			<path class="st1" d="M449.7,681.5c3.3,0.3,6.5-1,8.6-3.6c2.1-2.5,2.9-6.4,4.4-8.7s2.6-3.8,2.6-3.8c-0.4,2.9-1.2,5.8-2.4,8.5
				c-1.6,4.5-2.2,9.3-1.7,14.1c0.9,5.4,4.5,6.4,6.7,5.6c2.7-1.6,4.9-3.9,6.3-6.6c0.8-1.2,1.3-2.8,2-4.1c1.3-2.8,2.7-7.1,3.3-7
				c1.4,0.3,0.5,3.4,0,5.6c-1.5,4.6-2.7,9.3-3.3,14.1c-0.2,3.7,0.3,10.5,4,10.8c3.8,0.3,5.7-3,7.9-10.6c2.1-7.6,2.7-10.1,3.6-10.1
				s0.9,5.3,0.9,7.6c0,1.7,0.1,3.4,0.3,5.1c0.3,3.5,1.3,7,3,10.1c0.9,0.9,2.1,1.4,3.3,1.3c1.3,0.1,2.5-0.4,3.4-1.3
				c1.9-1.7,3.3-13,3.3-15.2s0-7.6,0.9-7.6s1.3,2.4,3.5,10.1c2.2,7.7,4.1,11,7.9,10.6c3.8-0.3,4.3-7,4.1-10.8
				c-0.7-4.8-1.8-9.5-3.3-14.1c-1.1-4.3,0.5-3.9,3.3,1.5c0.9,1.7,1.9,3.7,2.9,5.1c1.2,2.4,3.1,4.3,5.4,5.6c2.2,0.7,5.7-0.2,6.8-5.6
				c1.1-5.4-3.4-21.4-3.4-21.4s0.3,0.5,1.8,2.6c1.5,2.2,2.3,6.2,4.5,8.7c2.1,2.5,5.3,3.9,8.6,3.6c2.3-0.8,2.6-5,0.8-12.5
				c-1.6-7.5-8.4-11.6-13.4-17.7c-3.6-5.1-6.4-10.8-8.4-16.7c-6.1,2.8-11.7,6.6-16.4,11.3c-10,10.4-12.2,12.9-12.2,12.9
				s-2.2-2.6-12.3-12.9c-4.7-4.7-10.3-8.6-16.4-11.4c-2.6,5.7-5.7,11.1-9.3,16.1c-2.3,2.8-5.4,4.9-7.6,7.6c-2.5,3.1-4.2,6.8-5,10.8
				c-1.6,7.5-1.3,11.7,0.9,12.5"/>
			<path class="st1" d="M449.4,706.8c2.9-2.8,4.5-4,4.5-4s2.1-1.7,1.6,1.6c-0.9,4.3-1.2,8.8-1,13.2c0.7,3,1.1,5.6,4.9,3.4
				c2.4-1.4,4.6-3.2,6.4-5.4c1.7-1.9,3.5-2.8,3.2,0.2c-1.1,4.3-1.5,8.7-1.1,13.1c0.6,5.9,3.5,6.8,7.3,1.9c2.9-3.7,5.4-7.8,7.3-12.2
				c1.2-2.4,3.5-4.6,3.5,0c0,9.9,2.4,24.1,13.3,28.2c11.1-3.9,13.3-18.2,13.3-28.2c0-4.6,2.4-2.4,3.5,0c2.1,4.3,4.5,8.4,7.4,12.2
				c3.8,4.9,6.7,4.1,7.5-1.9c0.2-4.4-0.2-8.8-1.1-13.1c-0.5-2.8,1.3-2.2,3.1-0.2c1.8,2.1,4,3.9,6.4,5.4c3.8,2.2,4.1-0.3,4.8-3.4
				c0.3-4.4,0-8.8-0.8-13.2c-0.7-3.3,1.6-1.6,1.6-1.6s1.5,1.3,4.4,4c2,1.5,4.4,2.5,7,2.6c0,0,1.9-10.3-2.4-16.5
				c-4.4-6.1-6-8.2-6-8.2c-1.5-0.1-3-0.3-4.4-0.8c-1.3-0.6-2.6-1.3-3.8-2.1v5.6c0,0,5.4,5,6.7,6.5c1.3,1.4,3.7,4.1,0,1.6
				c-3.7-2.5-6.8-4.9-6.8-4.9s-0.7,5.2-2.2,6.5c-1.3,1.1-2.9,1.5-4.6,1.2l-0.9-0.3l-0.3,2c1.5,2.7,2.8,5.5,3.8,8.5
				c0.4,2.4-0.3,2.1-1.8-1c-1.7-3.3-3.6-6.4-5.7-9.4c-1.3-2.1-3.3-3.7-3.1-0.9c0,3.4-0.6,6.7-2,9.8c-0.4,0.9-0.9,1.7-1.5,2.5
				c0,0,2,7.1,2.2,8.5c0.2,1.4,0,2.8-1.1,1.1c-1.1-1.7-4.4-8.7-4.4-8.7s-4.4-0.2-5.7-1.4c-1.3-1.9-2.4-3.9-3.3-6
				c-0.7,2.8-1.8,5.5-3.2,8c-1.4,1.6-3.1,2.9-5,3.9c0,0-0.3,10.6-0.5,12.4c-0.2,1.8-0.3,2.8-1.2,2.8c-0.9,0-0.8-0.9-1-2.8
				c-0.3-1.9-0.5-12.4-0.5-12.4c-1.8-1-3.5-2.3-4.9-3.9c-1.4-2.5-2.5-5.1-3.3-7.8c-0.8,2.1-1.8,4.1-3.1,6c-1.8,0.9-3.7,1.4-5.7,1.4
				c0,0-3.3,7-4.4,8.7c-1.1,1.6-1.4,0.3-1.1-1.1c0.3-1.4,2.3-8.5,2.3-8.5c-0.6-0.8-1.1-1.6-1.5-2.5c-1.3-3.1-2-6.4-1.9-9.8
				c0-2.8-1.9-1.2-3.2,0.9c-2.1,3-4,6.2-5.7,9.4c-1.6,3.1-2.3,3.4-1.9,1c1-2.9,2.2-5.8,3.8-8.5l-0.3-2l-0.9,0.3
				c-1.6,0.3-3.3-0.1-4.5-1.2c-1.6-1.3-2.3-6.5-2.3-6.5s-3.1,2.4-6.6,4.9c-3.5,2.6-1.1,0,0-1.6c1.1-1.6,6.5-6.5,6.5-6.5v-5.6
				c-1.2,0.8-2.4,1.5-3.7,2.1c-1.4,0.5-2.8,0.7-4.3,0.8c0,0-1.7,2-6,8.2c-4.4,6.2-2.4,16.5-2.4,16.5c2.5-0.2,4.9-1.1,6.9-2.6"/>
			<path class="st1" d="M437.6,741.9c2.5-1.7,4.9-3.5,10.9-7.4c3.3-2.1,6.1-4.9,8.2-8.2h-2.2c-1.1,0-2-1.5-2.1-3.1
				c0-2.8,0.1-5.6,0.5-8.5c0.3-2.3,0-4.6-0.7-6.7c-1.9,1.6-4,3.1-6.2,4.2c-3.9,2-5.5,1.1-5.5,1.1l-1-3.8c0,0-1.7,3.4-4,7.6
				c-2.4,4.2-8.8,8.5-13.3,11.9c-4,3.3-8.5,6-13.4,8.1c-3.8,1.4-1.5,3.1-1.5,3.1s3.6,3.7,13.4,5.6c6,1.3,12.3-0.1,17.2-3.8"/>
			<path class="st1" d="M471.7,738.1c-3.2,0.2-5.9-2.1-6.3-5.3c-0.1-3.9-0.1-7.8,0.2-11.8c0,0-1.1,1-2.4,2.5c-1.2,1.1-2.7,1.8-4.4,2
				c-0.5,1.2-1.1,2.3-1.7,3.4c-1.5,2.7-3.7,5-6.3,6.7c-3.4,1.9-6.7,4.1-9.8,6.6c-2.7,2.4-5.7,4.5-8.8,6.3c-3.8,2-6.5,5.5-7.5,9.6
				c-1.1,4.9-0.2,6.4,3.6,6.1c3.6,0,7.1-0.5,10.6-1.5c6.2-1.6,15.1-8.5,21.6-12.5C465,747,468.8,742.9,471.7,738.1"/>
			<path class="st1" d="M488.9,743.8c-1.6-2.1-2.8-4.5-3.5-7c-1-3.7-2.9-11.1-2.9-11.1c-0.8,2.3-1.8,4.5-2.9,6.7
				c-1.1,2.5-3.2,4.6-5.7,5.6c-0.5,2.1-1.6,4.1-3.2,5.6c-3.3,4-7.3,7.3-11.9,9.8c-5.2,2.6-9.7,6.1-13.4,10.5
				c-3.2,4.5-3.3,9.1-1.9,11c1.5,1.9,3.5-0.2,6.5-1.8c3-1.6,11.5-2.8,23.4-8.9C485.4,758.2,488.9,743.8,488.9,743.8"/>
			<path class="st1" d="M494.1,769.8c3.2-4.8,3.8-16.4,3.8-16.4c-1-0.6-2-1.4-2.9-2.1c-1.7-1.8-3.3-3.8-4.7-5.9c0,0-1.9,4-4,7.7
				c-1.9,3.5-4.5,6.5-7.6,9c-4.4,4-10.4,7.9-12.9,12.1c-2.5,4.3-1.1,12.7,0.7,15.6c1.7,2.8,3.9,2,6.5-0.4c2.3-2.4,4.8-4.6,7.4-6.6
				c5-3.8,9.6-8.2,13.6-13"/>
			<path class="st1" d="M590.1,737c-4.8-2.1-9.4-4.8-13.4-8.2c-4.6-3.4-10.9-7.9-13.3-11.9c-2.4-4-4-7.6-4-7.6l-1,3.8
				c0,0-1.5,1-5.5-1.1c-2.3-1.2-4.4-2.6-6.3-4.3c-0.7,2.2-1,4.5-0.7,6.7c0.4,2.8,0.6,5.6,0.5,8.5c0,1.6-1.1,3.1-2.3,3.1h-2
				c2,3.3,4.8,6.1,8.1,8.2c6,3.9,8.3,5.6,10.9,7.4c4.8,3.7,11.1,5.1,17,3.8c5-0.7,9.7-2.6,13.6-5.6c0,0,2.1-1.8-1.6-3.1"/>
			<path class="st1" d="M566.6,748.5c-3.1-1.8-6.1-3.9-8.8-6.3c-3.1-2.4-6.4-4.6-9.9-6.6c-2.6-1.7-4.8-4-6.3-6.7
				c-0.7-1.1-1.2-2.2-1.7-3.4c-1.6-0.2-3.1-0.9-4.3-2c-1.3-1.4-2.5-2.5-2.5-2.5c0.3,3.9,0.3,7.8,0,11.8c-0.3,3.1-3,5.4-6.2,5.3
				c2.9,4.7,6.7,8.9,11.2,12.2c6.6,4.1,15.5,10.9,21.7,12.5c3.4,1,7,1.5,10.6,1.5c3.8,0.3,4.6-1.3,3.6-6.1
				C573,754,570.3,750.5,566.6,748.5"/>
			<path class="st1" d="M539.9,753.4c-4.6-2.5-8.6-5.8-11.9-9.8c-1.5-1.6-2.6-3.5-3.2-5.6c-2.6-1.1-4.6-3.1-5.7-5.6
				c-2.2-4.4-3.1-6.7-3.1-6.7s-1.7,7.4-2.9,11.1c-0.7,2.5-1.9,4.9-3.5,7c0,0,3.8,14.1,15.5,20.4c11.7,6.3,20.4,7.6,23.3,8.9
				c2.9,1.4,5.1,3.7,6.6,1.8c1.5-2,1.3-6.5-1.9-11c-3.7-4.3-8.3-7.9-13.4-10.5"/>
			<path class="st1" d="M519.9,762.1c-3.1-2.5-5.7-5.5-7.6-9c-2-3.7-4-7.7-4-7.7c-1.3,2.1-2.9,4.1-4.7,5.9c-0.9,0.8-1.8,1.5-2.7,2.1
				c0,0,0.6,11.6,3.8,16.4c4,4.9,8.6,9.2,13.6,13c2.6,2.1,5.1,4.3,7.5,6.6c2.5,2.4,4.8,3.2,6.5,0.4c1.7-2.8,3.1-11.3,0.5-15.6
				C530.1,769.9,524.3,766.1,519.9,762.1"/>
			<path class="st1" d="M503.2,775.6c-1.4-1.5-2.6-3.2-3.8-4.9c-1.1,1.8-2.3,3.4-3.8,4.9c-3,3-6.1,5.8-9.5,8.3
				c0.3,4.6,1.6,9.1,3.8,13.2c2.4,3.9,5.6,7.4,9.4,10.1c3.8-2.7,7-6.2,9.4-10.1c2.2-4.1,3.5-8.6,3.8-13.2
				C509.3,781.3,506.1,778.5,503.2,775.6"/>
			<path class="st5" d="M739.2,670.1c-1.4-0.2-2.6-0.7-3.7-1.6c0,0-1.2,0-2.1,1.4c-1.1,1.5-2.6,2.8-4.2,3.7c0,0-4.8,1.2-5.4,4.4
				c-0.7,3.2,1.7,4.3,4,4s7.8-1.5,10-4.3c1.4-1.7,2.5-3.6,3.3-5.6C741.6,671,741.9,670.8,739.2,670.1"/>
			<path class="st5" d="M746.5,644.7c-1.8-8.7-7.4-16.1-15.3-20.3c0,0-3.4,11.7-4.4,15.4c-1,3.7-1,3.5,1.8,4.3
				c2.8,0.8,12.1,2.8,14.1,3.1C744.7,647.5,747.7,649.4,746.5,644.7"/>
			<path class="st5" d="M703.7,638c2.1,0.5,1.9-0.5,2.6-3.3c0.7-2.8,4.5-16.9,4.5-16.9c-6.1-0.1-12.2,1.2-17.7,3.6
				c-5,2.4-9.1,6.3-11.7,11.1c2.5,0.9,5.1,1.7,7.7,2.2C694.8,635.9,701.6,637.7,703.7,638"/>
			<path class="st5" d="M681.8,657.3c-3.4-0.6-4.6-0.9-4.6-0.9c1.2,4.4,3.1,8.6,5.7,12.4c3.3,4.6,8.9,7.1,14.6,6.8
				c7.2,0.1,12.7-3.9,13.6-6.9c0.6-1.9,1.4-3.7,2.4-5.3c0,0-13.1-1.7-18.6-3C689.5,658.9,685.2,657.9,681.8,657.3"/>
			<path class="st4" d="M576.9,501.3c-3.3-20,8.6-37.5,8.6-37.5l-22.8-26.2c-17.6,9.8-42,8.5-63.2-1.1c-21.1,9.5-45.6,10.9-63,1.1
				l-22.9,26.2c0,0,11.8,17.5,8.4,37.5s-10.6,51.6-8.6,64.5c2.6,13.8,9.8,26.4,20.5,35.6c10.1,7.8,21.5,13.8,33.6,17.9
				c8.8,3.4,17.1,8.1,24.5,13.9c2.7,2.1,5.2,4.3,7.6,6.7c2.5-2.4,5.1-4.6,7.8-6.7c7.4-5.8,15.6-10.5,24.3-13.9
				c12.1-4.1,23.5-10.2,33.7-17.9c10.6-9.3,17.9-21.8,20.5-35.6c1.8-12.9-5.4-44.5-8.8-64.5"/>
			<path class="st4" d="M530.5,388.3c-3.3,3.1-7.2,5.7-11.5,7.4l-0.1,0.7c2.3-0.5,4.5-1.3,6.5-2.5c3.4-2,6.4-4.5,9-7.4
				c0.6-0.9,0.5-2-0.2-2.8C533.2,385.4,532,386.9,530.5,388.3"/>
			<path class="st4" d="M544.5,396.1c0,2.2-0.7,17.2-0.7,17.2c0,0.7-0.3,5.2-1.5,5.8c0.7,0,1.8,0.3,2.2-2c0.3-2.8,3.2-22,3.2-22
				l-1.6-0.7C546,394.4,544.5,393.8,544.5,396.1"/>
			<path class="st4" d="M569.9,358.2c-2.4,1.2-4.6,2.7-6.7,4.5c-1.5,1-3.2,1.8-4.9,2.3c-1.7,0.8-1.1-2.8,0-6
				c1.9-3.6,4.3-6.8,7.2-9.6c2.7-2.8,0-1.9-1.4-0.8c-2.8,3-5.3,6.2-7.4,9.6c-3.4,5.4-5.3,17.5-5.3,17.5c1.4-0.8,2.8-1.7,4.1-2.6
				c2.1-1.4,4.4-2.6,8.3-5.4c3-2.1,5.8-4.5,8.2-7.3c2.1-2.2-0.4-2.6-2-2.2"/>
			<path class="st4" d="M468,388.3c-1.4-1.4-2.7-2.9-3.6-4.6c-0.7,0.8-0.8,1.9-0.2,2.8c2.5,3,5.6,5.5,9,7.4c2,1.1,4.2,2,6.5,2.5
				l-0.2-0.7C475.2,393.9,471.3,391.4,468,388.3"/>
			<path class="st4" d="M454.8,413.2c0,0-0.8-15-0.8-17.2s-1.5-1.7-1.5-1.7l-1.6,0.7c0,0,2.9,19.1,3.2,22c0.3,2.3,1.5,2.1,2.1,2
				C455,418.4,454.9,413.9,454.8,413.2"/>
			<path class="st4" d="M434.5,348.6c-1.3-1.1-4-2.1-1.4,0.8c2.9,2.8,5.4,6,7.2,9.6c1.1,3,1.7,6.8,0,6c-1.7-0.5-3.4-1.3-4.9-2.3
				c-2.1-1.7-4.3-3.2-6.7-4.5c-1.5-0.5-4.2,0-2.1,2.2c2.5,2.7,5.3,5.2,8.3,7.3c3.8,2.8,6.1,4,8.2,5.4c2.1,1.4,4.2,2.6,4.2,2.6
				s-1.8-12.1-5.3-17.5C439.8,354.8,437.3,351.5,434.5,348.6"/>
			<path class="st4" d="M499.1,694.5c0.4,0,0.5-0.8,0.5-2.6s0.4-5.8,0.7-8.3c0.3-2.5-0.6-2.2-1.3-2.1c-0.7,0.1-0.9,2-0.9,3.1
				c0,1.1,0.3,7.2,0.3,8.5C498.3,694.4,498.8,694.6,499.1,694.5"/>
			<path class="st4" d="M543.3,672.5c1.6,3.6,2,3,1.2,0.2c-0.7-2.9-1.9-5.6-3.4-8.2c-1.7-2.3-3.6-4.4-5.7-6.3
				c0.8,1.6,1.8,3.1,2.9,4.5c1.5,2.2,3.5,6.4,5.3,9.8"/>
			<path class="st4" d="M526.6,675.5c1,3,2.5,5.9,4.5,8.5c-0.5-3.2-1.4-6.4-2.6-9.4c-0.6-2.4-1.8-4.7-3.5-6.5
				c-0.4,0.1,0.3,2.3,0.3,2.3C525.7,672.1,526.1,673.8,526.6,675.5"/>
			<path class="st4" d="M513.3,685.9c0.8,1.6,1.7,3.6,2.1,3.3c-0.2-1.5-0.6-3-1.1-4.5c-0.2-1.9-0.8-3.7-1.5-5.4
				c-1.1-2.2-1.6-1.1-1.6-0.2c0.4,1.7,0.8,3.4,1.4,5.1C512.6,684.2,512.6,684.2,513.3,685.9"/>
			<path class="st4" d="M455.4,672.5c1.5-3.4,3.2-6.7,5.3-9.8c1-1.4,1.9-2.9,2.7-4.5c-2.1,1.9-4.1,4-5.7,6.3
				c-1.5,2.6-2.7,5.3-3.5,8.2c-0.7,2.8-0.3,3.4,1.4-0.2"/>
			<path class="st4" d="M472.1,675.5c0.7-2.3,1.1-3.9,1.1-3.9s0.7-2.1,0.3-2.3c-0.4-0.2-2.1,1.4-3.3,5.2c-1.2,3.1-2,6.2-2.6,9.4
				C469.5,681.4,471,678.5,472.1,675.5"/>
			<path class="st4" d="M485.3,685.9c0.7-1.6,0.7-1.7,0.7-1.7c0.6-1.7,1.1-3.4,1.5-5.1c0-0.9-0.5-2-1.7,0.2
				c-0.7,1.7-1.2,3.6-1.4,5.4c-0.2,0.8-1.6,4.3-1.1,4.5C483.7,689.4,484.5,687.5,485.3,685.9"/>
			<path class="st4" d="M444.5,725.4l-1.8-1.1c-0.8,1-1.6,2.1-2.5,3c-1.5,1.6-3.2,2.1-4.4,3.6c-1.5,2-3.5,3.6-5.7,4.7
				c-2.7,1.4-3.8,1.7-3.2,2.1s2.3-0.6,2.3-0.6c1.5-0.4,2.8-1,4-1.9c2.3-1.3,4.4-2.9,6.2-4.7C441.5,728.7,444.4,725.4,444.5,725.4"/>
			<path class="st4" d="M458.6,741.9c1.3-1.3,2.7-2.3,1.9-2.8c-0.8-0.5-1.6-0.6-2.7,0.3c-1.1,0.9-4.5,3.9-5.9,5.3
				c-1.4,1.4-2.7,2.1-4.2,3.2c-2,1.4-4.1,2.6-6.3,3.6c-1.6,1,0,1,0,1s1.2-0.6,2.5-1.1c1.3-0.5,5.1-2.1,5.1-2.1
				c1.2-0.6,2.4-1.3,3.5-2.1C454.5,745.9,457.4,743.2,458.6,741.9"/>
			<path class="st4" d="M475,753.1c1.1-2.1,0-1.6-1.8-0.8c-2.8,2-5.4,4.2-7.9,6.5c-2,1.2-4.1,2.2-6.2,3.1c-1.9,0.9-1.9,1.4-1.9,1.9
				c0,0.5,0.9,0.5,1.7,0c0.7-0.5,3.6-1.9,3.6-1.9c0.7-0.2,1.4-0.4,2.2-0.5c1.9-0.7,3.5-1.8,4.9-3.2C471.9,756.4,474,755.2,475,753.1
				"/>
			<path class="st4" d="M482.7,768c-3.6,2.1-6.7,4.9-9.2,8.3c-1.3,2.6-2.2,4.4-1.7,4.9c0.5,0.5,1.9-0.5,2.5-1.6
				c0.6-0.9,1.2-1.8,1.9-2.6c2.1-2.1,4.4-4.1,6.8-5.9c2.3-1.6,4.3-3.7,5.6-6.2c0.4-0.9,0.5-2,0.2-3C487,764.2,485,766.3,482.7,768"
				/>
			<path class="st4" d="M568.5,735.6c-2.2-1.1-4.2-2.7-5.7-4.7c-1.1-1.6-2.9-2.1-4.3-3.6c-0.9-0.9-1.8-1.9-2.5-3l-1.8,1.1
				c1.5,1.8,3.2,3.5,5,5.1c1.9,1.8,3.9,3.4,6.1,4.7c1.2,0.9,2.6,1.5,4,1.9c0,0,1.8,1,2.4,0.6C572.3,737.3,571.1,737,568.5,735.6"/>
			<path class="st4" d="M557.3,751.5c-2.2-1-4.3-2.2-6.3-3.6c-1.5-1.1-2.6-2-4.2-3.2c-1.5-1.2-4.8-4.4-6-5.3c-1.2-0.9-2-1-2.7-0.3
				c-0.7,0.7,0.6,1.5,1.9,2.8c1.9,1.9,4,3.7,6.2,5.4c1.1,0.7,2.3,1.4,3.5,2.1c0,0,3.8,1.6,5.1,2.1c1.3,0.4,2.5,1.1,2.5,1.1
				S558.9,752.5,557.3,751.5"/>
			<path class="st4" d="M539.6,761.9c-1.9-1-3.8-1.6-6.2-3.1c-2.5-2.3-5.1-4.5-7.9-6.5c-1.8-0.8-2.9-1.3-1.9,0.8
				c1.5,2.1,3.5,3.9,5.7,5.3c2.3,1.9,3.7,3.1,4.9,3.2c0.7,0.1,1.4,0.2,2.1,0.5c0,0,2.7,1.5,3.4,1.9c0.7,0.3,1.7,0.4,1.7,0
				C541.5,763.5,541.6,762.9,539.6,761.9"/>
			<path class="st4" d="M516,768c-2.3-1.7-4.3-3.8-5.9-6.1c-0.3,1-0.3,2,0.2,3c1.2,2.5,3.1,4.6,5.5,6.2c2.4,1.9,4.7,3.8,6.9,5.9
				c0,0,1.3,1.6,1.9,2.6c0.7,1,2,2,2.4,1.6c0.5-0.4-0.5-2.3-1.7-4.9C522.7,772.9,519.6,770.1,516,768"/>
			<path class="st4" d="M497.9,786c0.3,2,0,7,1.3,7s1.1-5,1.3-7c0.2-2,0.3-6.8,0.3-6.8h-3.3C497.6,779.2,497.6,784,497.9,786"/>
			<path class="st5" d="M574.8,503.7c-1.8-13.3,0.5-26.9,6.5-39l-20.5-22.5c-17.3,8.8-38.4,6.6-61.5-1.3c-22.9,7.9-44,10.1-61.4,1.3
				l-20.6,22.5c6.2,12,8.4,25.6,6.6,39c-3.2,21.5-8.4,45.9-7.3,60.2c0.1,0.9,0.2,1.9,0.3,2.8h18.7c0.9-0.9,2-1.6,3.2-2.1
				c0.9-0.4,1.8-0.9,2.6-1.5c0,0,0.5-3.7,2.7-4.5c1.3-0.5,2.7-0.8,4.2-0.8c1.1,0.1,2.2-0.4,2.9-1.3c2.3-2.1,4.1-4.6,5.3-7.4
				c1.1-2.4,1.8-5.1,2.1-7.7c0.1-2.1,0.4-4.2,0.9-6.2c0,0-0.5-1.2-2.3-0.5c-1.9,0.7-2.3-1.2-2.5-3c-0.3-2.5,0-5.1,1-7.5
				c1.1-1.8,1.5-2.4,1.5-2.4l-0.8-2.8c0,0-12,2.3-14-6.8c-2-9.1-2.4-13.4-2.9-14.4c-0.4-1-0.5-1.4-2.2-1.4c-1.6,0-4.9-0.9-7.3-5.6
				c-2.4-4.7-2.6-6.6-1.9-8.5c0.7-1.8,2-1.2,2.4-0.6c0.4,0.6,3.5,5.1,4.8,3.8c1.3-1.3,0.5-1.3-1.2-4.8c-1.1-2-1.5-4.3-1.1-6.5
				c0-1.7-0.2-3.4-0.5-5.1c0-0.8,0.8-1.5,1.6-1.5c0.2,0,0.5,0.1,0.7,0.2c1,0.4,1.8,1.1,2.5,1.9c0.5,0.6,0.7,1.5,1.7,0.9
				c1-0.6,0.4-3.9,0.4-5s1.3-1.8,2.9-1c1.4,0.8,2.3,2.2,2.4,3.7c0,1.1,0,2.3,0.7,2.3c0.7,0,1.3-1.8,1.3-3c0.1-1.1,0.7-2.8,1.8-1.4
				c1.2,1.7,1.7,3.8,1.2,5.8c-0.5,2.3,0.3,1.1-0.5,5c-0.7,2.8-1.1,5.7-1.1,8.7c-0.1,2.8,0.5,5.6,1.7,8.2c1.4,3.6,2.6,7.8,5.4,7.9
				c2.8,0.1,3.5,0.2,3.5,0.2c1.3-2.7,3.1-5.2,5.4-7.3c2.6-1.1,5.3-1.8,8.2-2c2.3-0.3,3.3-0.9,3.3-1.5c0-0.5-0.7-0.7-3.7-1.2
				c-2.9-0.5-5.2-1-5.3-3.2c-0.1-2.2,0.5-3.9-1.4-4.1c-3.3-0.3-6.3-2-8.2-4.6c-1.2-1.5-1.6-3.5-1.1-5.3c0.2-1.7,2.5-5,3.8-1.9
				c1.3,3.1,2.2,3.5,3.5,4.2c1.3,0.7,2.7,0.8,1.9-1.3c-0.7-1.6-1.1-3.3-1.1-5.1c0.2-1.3,1.3-2.4,2.6-2.6c1.3-0.3,5.1-1.5,7.2-1.9
				c0.7-0.1,1.4-0.3,2.1-0.5c0,0,0.2-1.5,2.9-2.2c2-0.7,4.1-1,6.2-0.9c1.9,0.2,3.9,0,5.7-0.8c1.8-1,3.9-1.4,6-1.4
				c1.4,0.1,2.8,0.7,4,1.6c1.3,0.7,0.8,1.8,0.8,2.8c0,1,0.2,1.6,1.9,1.6c1.6-0.1,3.1,0.1,4.6,0.6c1.8,0.7,4,1.4,2.5,3.2
				c-1.5,1.7-1.5,3.6-2.5,3.4c-1-0.1-0.7,0.9-1.1,1.4s-0.7,1.2,0.3,1.7c0.9,0.6,1.1,1.2,2.6,2.4c1.5,1.3,3.4,2.8,1.3,4.7
				c-1.7,1.5-3.6,2.8-5.7,3.8c0,0-2,0.9,0.3,2.3c2.3,1.4,3.4,4.3,4.4,4.7c0.9,0.5,1.7,1.2,2.3,1.6c0.6,0.4,0.5,2.2,0.5,2.2
				c-1,0.6-2,1.1-3.1,1.5c-1.7,0.8-3.5,1.3-5.3,1.5c-1.7,0-2.5,0-1.9,1.6c0.6,1.6,1.9,3.3,2.1,4c0.3,0.8,0.6,1.7,0.7,2.6
				c1.7,0.3,3.4,0.4,5.2,0.5c3,0.1,6,0,9-0.4c4.1-0.6,8.2-0.7,12.3-0.1c2.5,0.1,5,0.4,7.4,0.8c1,0.3,1.9,0.7,2.9,1.2
				c3.8,0,7.7-0.3,11.5-1c4.2-0.9,5-3.5,4.5-4.7c-0.6-1.2-0.4-3.4-7.6-4.4c-7.2-1-9.9-0.6-15.7-1.7c-5.8-1.1-14.5-3.9-16.1-10.8
				c-1.5-7,4.2-9.8,7.1-11.3c2.9-1.4,9.2-3.5,12-4.6c4.4-1.7,9.1-2.2,13.7-1.6c5.6,0.8,8.8,2.3,10.9,1.1c2.1-1.2,4-0.3,3.6,1.6
				c-1.3,4-4.7,7-8.8,7.9c-5.8,1.7-11.9,2-17.9,0.9c-4-1.1-7.1-2.8-9.5-1.8c-2.6,0.6-4.1,3.2-3.5,5.7c0.2,0.6,0.5,1.3,0.9,1.8
				c2.6,3.6,16.3,4.7,20,5.1c3.7,0.3,17.2-0.5,21.1,6.1c4,6.6,0.7,14.1-3.8,15.8c-3.9,1.5-7.9,2.5-11.9,3.2l-3.5,0.5
				c0.8,1.6,1.3,3.3,1.7,5c0,1.5-0.3,4.3,1.5,5.3c2,1.4,4.5,1.9,6.9,1.6c2.9-0.3,6.4,1.6,6.6,4.1s0.8,6.1,1.2,11.3
				c0.4,5.2,0,9.3,0,9.3c-0.2,1.3-0.5,2.6-0.9,3.8c-0.7,1.9-4.3,9-4.3,9h20c0-1,0.2-2,0.3-2.8c0.9-14.3-4.2-38.7-7.4-60.2"/>
			<path class="st6" d="M419.2,576.4c4.4,12.3,12.9,22.7,24.3,29.4c17.2,10.1,24.4,8.7,40.5,19.1c16.1,10.4,15,12.1,15.2,12.1
				c0.2,0-0.7-1.8,15.3-12.1c16-10.3,23.5-9,40.6-19.1c11.3-6.7,19.9-17.2,24.2-29.4H419.2z"/>
			<path class="st1" d="M433.2,491.5c1.4,1.8,3.7,2.6,5.9,2.2c2.9-0.3,3.5,1.7,4,3.8c0.3,4.1,1.1,8.2,2.6,12.1
				c1.9,4.7,8.6,5.1,8.6,5.1c0.3-2.7,1-5.4,2-7.9c0.2-0.5,1.1-2.6-1.3-2.6s-2.4-0.9-3.8-3.3c-2.3-3.8-3.9-7.9-4.9-12.1
				c-0.3-4,0.1-8,1.2-11.8c0.7-2.1,0.8-3.4,0-3.9c-0.7-0.1-1.5-0.1-2.3,0c0,0,0.7,1.9,0,2.2c-0.7,0.3-1.3-1-1.7-2.3
				c-0.4-1.3-1-1.1-2-1c-1,0.1-1.1,0.9-0.3,1.9c0.4,0.8,0.5,1.8,0.3,2.6c-1-0.7-2-1.3-3.1-1.9c-1.3-0.2-2.5,0.4-3.1,1.5
				c0.1,2.2,1,4.2,2.7,5.6c1.5,1.6,2,3.9,1.3,6c-0.7,1.5-3.3,1.2-4,0.6c-0.6-0.7-1.6-0.7-2.3-0.2c-0.1,0.1-0.1,0.1-0.2,0.2
				C432,489.2,431.3,489.6,433.2,491.5"/>
			<path class="st1" d="M432,486.5l-1.5-1.3c-0.3-0.6-0.7-1.1-1.1-1.6c-0.2,0.5-0.2,1-0.2,1.6c0.1,0.9,0.6,1.8,1.3,2.5L432,486.5z"
				/>
			<path class="st1" d="M436.2,473.3c0.8-0.4,1.5-0.5,0.8-1.5c-0.7-1-1.2-2-1.9-2.1c-0.4-0.1-0.9-0.1-1.3,0c0.5,0.9,0.8,1.8,1,2.8
				c0.2,1,0.5,1.3,1.4,1"/>
			<path class="st1" d="M441.2,469.3c0,0.8,0,1.1,0.9,0.8c0.8-0.4,1.1-1.4,0.7-2.2c-0.4-0.5-0.8-0.9-1.3-1.3l-0.6-0.3
				C441.1,467.3,441.2,468.3,441.2,469.3"/>
			<path class="st1" d="M448.4,470.5c0-0.7-0.1-1.4-0.3-2c0,0.6-0.2,1.3-0.5,1.8c-0.5,0.6-0.3,0.5,0.2,1
				C448.3,472,448.3,471.4,448.4,470.5"/>
			<path class="st1" d="M459.7,518.7c1.5,3.3,5.1-1.9,8.3-6c3.2-4.1,3.1-0.9,2.9,2.5c-0.3,3.2,0.5,6.4,2.3,9.1
				c1.2,2.3,2.3,1,2.9-0.6c0.5-2.3,1.2-4.5,2.2-6.7c1-1.6,2.1-0.2,2.2,1.2c0.7,2.3,1.9,4.5,3.5,6.4c1.6,1.8,2.3-0.6,2.9-2.8
				c0.5-2.2,1.2-5.6,1.6-7.1c0.4-1.5,1.9-0.3,1.9-0.3s1.1,1.1,3.3,3.1c2.2,2,2.5-1.1,2.7-2.8c0.2-1.7-0.3-5.2,0.3-5.6
				c0.5-0.5,2.5,0.9,5.5,2.2c3,1.3,2.6-1.3,2.3-2.8c-0.8-2.6-2.3-5-4.3-6.9c-2.3-1.9-2.7-4.3-1.9-5.3c0.7-1,3.5,0,5.4-0.3
				c1.3-0.1,2.6-0.3,3.8-0.5c0.8-0.1,1.3-0.7,1.3-1.5c-0.8-1.2-1.7-2.3-2.9-3.3c-1.4-1.6-3.3-2.8-5.3-3.5c-1.8-0.3-3.7-0.3-5.5,0
				l-0.3-0.6c-0.3-0.6-0.9-0.6-1.4,0c-0.7,0.8-1.5,1.6-2.3,2.3c-0.9,0.7-1.5,1.1-1.9,0.8c-0.4-0.4,0.3-1,0.3-1
				c1-0.9,1.7-1.9,2.3-3.1c1.1-2.2,1.5-4.3,0.5-5.2c-0.9-1-3.2,0-4.6,0s-2.1,0.2-2.2-0.4c-0.1-0.6,1.3-0.3,2.9-0.5
				c1.6-0.2,2.6-2.1,3.2-3.8c0.5-1.7,1-1.3,1.9-0.5c0.9,0.9,1.9,0.8,2.2,0.2c0.5-1.4,1.2-2.7,2.1-3.9c1.3-1.5,1.5-3.6,0.5-5.4
				c-1.5-1.4-3.7-1.5-5.4-0.4c-1.4,1-2.2,2.6-2.3,4.3c-0.3,2.4-0.9,1.1-0.9,0.3c0-0.8-1.1-1.9-0.7-3c0.3-0.6,0.3-1.3,0-1.9
				c-0.1-1.3-1.2-2.3-2.5-2.5c-2.4-0.3-4.9-0.1-7.2,0.6c-1.2,0.2-2,1.3-1.8,2.4c0,0,0,0.1,0,0.1c-1.2,0-2.4,0.1-3.6,0.3
				c-1.9,0.4-3.8,0.8-5.7,1.4c-1.7,0.5-2.5,0.7-2.5,1.5c0,0.8,0.2,1.6,0.4,2.3c0.8,0,1.5,0.1,2.2,0.4c0.7,0.5,0.3,1.1-0.5,1.5
				c-0.9,0.3-1.2,0.5-1.2,1.5c0,1.1,0.5,1.3,1.3,1.3c1.7,0,3.4,0.3,4.9,1c1.7,0.5,2.7,2.2,2.5,4c-0.2,1-3.2,2.4-4.8,2.4
				c-1.5,0-2,0.4-2,1.3c0,1,1.9,0.8,1.9,0.8s1.8,0,5.4,0.5c2.2,0.1,4.2,1,5.7,2.6c1.7,1.4,0.5,1.8-0.3,2.2c-1,0.7-2,1.3-3.1,1.7
				c-1.3,0.5-2,1.4-3.1,1.6c-3,0.2-6,0.9-8.8,2c-5,1.9-6.7,8.5-6.7,8.5c1-0.4,1.9-0.9,2.9-1.5c2.3-1.1,5.2-2.5,7.8-4
				s2.5,0.8,1.2,3.1c-1.4,2.3,1.2,1.7,2,1.1c1.3-1,2.7-1.9,4.2-2.6c2.5-1.2,1.7,0.8,1.7,0.8c-0.6,1.6-1,3.3-1.1,5.1
				c0,3.5,3.6,0.2,5.4-2.1c1.8-2.3,2.4,0,1.2,2.5c-1.3,2.5-3.8,4.7-5.3,4.7c-1.5,0-2.5-1.5-2.7-2.4c-0.2-0.9,0.5-3.5-0.3-4
				c-0.9-0.5-3.3,0-5.3,1.1s-2.2,0.2-2.6-0.8c-0.4-1,0.6-1.2,0.2-1.9c-0.4-0.7-1.5,0-2.2,0.4c-0.7,0.4-2.5,1.2-5.9,2.8
				c-3.3,1.6-3.1,2.8-3.1,5.3c0,2.5,0.7,2.8,2,6.1"/>
			<path class="st1" d="M492.5,464.7c0.7-0.4,1.3-0.7,2-1c0,0,1.6-0.3,3.1-0.5c1.5-0.1,1.2-1.1,0.9-1.7c-0.3-0.6-0.9-0.9-2.9-0.9
				c-1.5,0.1-3,0.6-4.4,1.3c-0.7,0.3-1.5,0.6-2.2,0.8l0.9,1.4c0.6,0.8,1.7,1.1,2.5,0.6"/>
			<path class="st1" d="M500.3,472.4c0.6,0,1.1-0.1,1.7-0.3c0,0,1.4-0.7,2.5-1.2c1.2-0.3,2.2-1.1,2.7-2.2c0.7-1.5-0.9-1.5-3.2-2.1
				c-2.3-0.6-3.3,0.2-3.5,1c-0.2,1.2-0.6,2.3-1.1,3.4C498.5,472.6,499.4,472.4,500.3,472.4"/>
			<path class="st1" d="M499.6,474.4c-2.1,0-4.6,3.3-5.6,3.8c-0.9,0.5-0.3,1.2-0.3,1.2c0.4,0.8,0.7,1.7,0.9,2.5
				c0.2,1.2,0.3,2.3,0.3,3.5c0.5,0.1,1.1,0.1,1.6,0c1.3-0.1,2.4-0.7,3.3-1.5c1.1-0.8,2.5-1.4,3.9-1.5c1.6-0.3,3.1-0.8,4.5-1.7
				c2-1-0.9-2.8-3-4.4c-1.5-1.4-3.5-2.1-5.6-2"/>
			<path class="st1" d="M470.5,481.8c1.7,0,2.6-1,2.6-1.9c0-0.9-0.9-2.1-3.1-1.8c-5.5,0.4-10.6-1.5-11.7-6.7
				c-1.1,2.4-0.5,5.2,1.5,6.9C462.6,481,466.5,482.3,470.5,481.8"/>
			<path class="st1" d="M451.9,566.1c0.3,0.4,0.6,0.6,1.1,0.8h8.3c1.5-0.3,1.5-1.6,1.5-2.5c0-0.9,0.9-4,2.1-9.5
				c0.9-4,2.2-7.8,3.9-11.6c0.8-2.2-0.8-2.8-1.3-4.3c-0.7-1.6-1.3-3.3-1.8-5.1c-0.2-1.2-2.1-1-3.2-1c-1.1,0-1.3,1.8-1.4,3.4
				c-0.1,1.5-1,6.5-1.7,10.6c-1.4,4.1-3.8,7.9-7,11c-0.9,0.9-2,1.5-3.3,1.6c-1.3-0.1-2.6,0.1-3.8,0.6c-1.2,0.7-2,1.9-2.1,3.3
				c0,1.2,1.9,1.9,1.9,1.9c0.8-0.5,1.5-1,2.1-1.7c1-0.6,2.1-1,3.2-1.1c1.3-0.2,1.4,0.3,1,0.9C450.9,564.2,451.1,564.3,451.9,566.1"
				/>
			<path class="st1" d="M439.3,565.6c-0.6,0.3-1.1,0.7-1.4,1.3h5.4c-0.1-0.5-0.3-0.9-0.5-1.3C442.1,564.8,440.4,565.2,439.3,565.6"
				/>
			<path class="st1" d="M446.7,565.4c-0.7,0.4-1.4,0.9-1.9,1.5h5.7c0.4-0.5,0.3-1.3-0.3-1.7c0,0-0.1-0.1-0.1-0.1
				C448.8,564.1,447.5,564.9,446.7,565.4"/>
			<path class="st1" d="M497.5,563.1c-0.8,0-1.3,0.6-2.2,1.2c-0.7,0.6-1.2,1.4-1.3,2.3c-0.1,0.1-0.1,0.2,0,0.3h2.5c0,0,0-0.1,0-0.3
				c0-0.6,0.3-1.3,1.4-2.2c1.1-0.9,0-1.3-0.5-1.3"/>
			<path class="st1" d="M502.3,565.7c0-0.8-0.2-1.4-0.8-1.4c-0.6,0.1-1.5,1.1-2.3,1.6c-0.3,0.3-0.7,0.6-0.9,1h3.8
				C502.1,566.5,502.2,566.1,502.3,565.7"/>
			<path class="st1" d="M524.9,539.1c1.8-1.2,1.5-1.6,1.6-2.8s0-1.6-0.6-2.2c-1.8-0.9-3.7-1.5-5.7-1.6c-3.1,0-6.1,0.5-8.9,1.7
				c-1.8,1.2-2.6,5.5-2.6,7.7c0,2.2,0.3,2.6,1,2.6c0.7,0,1.7-1.6,1.7-1.6s2.4,3,3.8,5.1c1,1.3,1,3.1,0,4.4c-1,2.6-2.6,5-4.8,6.8
				c-1.9,0.9-3.2,0-5.5-0.3c-1.7-0.3-3.4,0.2-4.6,1.5c-1.3,1.3,0,2.3,0.7,2.3c1-0.1,2,0.2,2.6,1c0.6,0.7,0.2,2.4,0,3.2h10.9
				c1.7-1.1,3-2.7,3.7-4.6c0.9-1.8,2.3-3.4,3.9-4.6c1.2-1,1.3-1.8,1.3-4c0.1-1.8-0.5-3.7-1.5-5.2c-0.9-1.6-1.3-3.5-1.1-5.3
				c0.2-1.4,2.6-2.8,4.4-4.1"/>
			<path class="st1" d="M507.2,512.5c1.1,1.8,0.5,2.2-1.1,2.5c-1.9,0.4-3.8,0.6-5.7,0.5c-2.3-0.3-2.3,0-2.3,1.2c0,2-0.6,3.9-1.7,5.6
				c-1,1.2-2.8,1.5-4,0.5c-0.1-0.1-0.2-0.1-0.2-0.2c-1.1-0.7-1.7-0.4-2.2,0.9c-0.6,1.4-1.3,2.8-2.2,4.1c-1.1,2-1.9,2.2-2.7,1.9
				c-0.8-0.3-1.5-1.4-2.4-1.4c-0.8,0-2.1-1.7-3.3-3.6c-1.2-1.9-1.9,0.2-2.6,1.9c-0.7,1.6-1.6,2.8-3.2,2.8c-1.6,0-3.3-3.1-4.2-4.8
				c-0.9-1.7-1.4-3.4-2.7-3.4s-3.7,2.8-5.1,3.6c-1.4,0.8-1.9,0.5-2.6-0.5c-0.7-1-1.5,0.3-2.5,2.5c-0.8,1.7-0.2,3.6,1.3,4.7
				c1.3,0.6,3.7-1.1,5.3-2.2c1.2-0.8,2.7-1.2,4.2-0.9c1.6,0,1.5,2.8,2.2,6.8c0.7,4,3.1,4.5,3.1,4.5s0.9,0.7,2.6-2.3
				c1.7-3,2.1-6.1,3.9-6.1c1.8,0,1.7,0.4,3.5,2.8s3.3,4.2,4.3,2.4c0.8-2,1.8-3.8,3.1-5.5c1.1-0.8,2.2-1.1,1,0.7
				c-1.2,1.8-1.7,3.5,0.7,2.8c2.4-0.7,12-4.6,15.9-5.3c3.2-0.5,6.5-0.9,9.7-1c5.2-0.3,6.5-0.5,8.6-0.5s2.1-0.3,2.2-1.6
				c0.1-1.3-0.9-1.1-4.7-1.1c-3,0-6.1,0.4-9,0.9c-2.6,0.4-3.9,0.3-3.5-0.3c0.4-0.6,1.3-1.1,4.4-1.6c4.1-0.5,8.3-0.8,12.4-0.9
				c3.3-0.1,2.3,0.9,2,3c-0.1,2.4,0.1,4.8,0.5,7.2c0,2,0.7,3.8,2,5.4c1.7,2.8,7.7,4.6,9.6,5.6c1.9,1,1.5,0,1.3-1.7s1.4-1.5,2.9-0.7
				c1.9,0.9,3.9,1.6,6,2c1.9,0.5,2,0.8,2,1.8c0,1,0.3,3,0.4,4.9c0.4,1.3,0.2,2.6-0.5,3.7c-1,1.2-4.3,4.6-4.3,4.6
				c-1.6,0.1-3.3,0.4-4.8,0.8c-3.3,0.8-4.4,2.3-4.6,3.6c-0.3,1.4,0.7,1.7,0.7,2.3v1.6h0.7c0.3-0.6,0.7-1.2,1.2-1.8
				c1.7-1.4,4-1.7,6-0.9c0.9,0.5,1.4,1.6,1.1,2.6h7.5c1.1-1.9,3.5-6.5,4.1-7.9c1-1.6,1.4-3.5,1.4-5.3c0.3-4.2,0.2-8.3-0.2-12.5
				c-0.5-0.5,0.2-2.2,0-4.8c-0.2-2.6,0-4.7-5-5.2c-3.2-0.2-6.1-1.7-8.1-4.1c-1.7-1.7-1.4-5.6-2.7-10.2c-1.3-4.6-4.6-5.4-10.5-6.5
				c-4.8-1-9.8-1.3-14.7-0.8c-4.3,0.5-8.5,0.7-12.8,0.7c-3-0.3-2.5,0.5-1.4,2.2"/>
			<path class="st1" d="M535.5,565.9c-0.5,0.2-0.9,0.6-1.1,1h5.1c0-0.5-0.2-1-0.5-1.3C538.2,564.6,536.7,565.1,535.5,565.9"/>
			<path class="st1" d="M544.5,565.6c-0.6,0.3-1.2,0.8-1.6,1.3h5.2v-0.6C547.3,565.2,545.8,564.8,544.5,565.6
				C544.6,565.6,544.5,565.6,544.5,565.6"/>
			<path class="st1" d="M417.1,568.7c0.4,1.7,0.7,3.2,1.2,4.8h162.2c0.5-1.6,0.8-3.2,1.1-4.8H417.1z"/>
			<path class="st1" d="M526.4,492.6c5.1,3.3,21.3,3.5,29,5c7.6,1.5,7.1,7.2,4.8,10.3c-2.4,3-13.1,3.3-14.9,3.6c1,0.9,1.8,1.9,2.5,3
				l4.5-0.5c4.5-0.1,8.9-1.5,12.6-4.1c3.4-2.7,3.9-7.7,1.1-11c-0.2-0.3-0.5-0.6-0.8-0.8c-3.5-3.4-9-3.8-14.9-4.4
				c-5.8-0.6-10.2-1-16.8-2.1c-6.6-1.1-9.5-3.6-9.5-7.4c0-3.7,3.5-5.6,6-6.3c3.3-1.2,6.8-1.3,10.2-0.3c3.6,1.3,7.7,1.3,14.8,0.5
				c3.8-0.1,7.2-2.3,8.8-5.6c-1.5,0.4-3,0.5-4.6,0.4c-3.6,0.1-6.2-1.5-12.6-1.6c-6.4-0.1-9,2.3-12.1,3.3c-3.1,1-11.2,1.9-13.6,7.1
				c-2.4,5.2,0.4,7.7,5.5,11.3"/>
			<path class="st4" d="M483.8,465.5c1.7,0.2,2.9,1.6,2.8,3.3c-0.1,1.4-1.3,2.6-2.8,2.7c-1.7,0.2-3.2-1.1-3.3-2.7
				c-0.2-1.7,1.1-3.1,2.8-3.3C483.4,465.5,483.6,465.5,483.8,465.5"/>
			<path class="st4" d="M549.4,473.6c-3.1-0.2-6.2,0-9.3,0.7c0.7,0.5,1.5,0.7,2.4,0.7c2.6-0.2,5.1,0,7.6,0.5c2.3,0.4,4.8,0,6.8-1.1
				C557,474.3,553.5,473.9,549.4,473.6"/>
			<path class="st1" d="M679.5,652.2c3.3,0.8,30,5.9,32.2,6.3c2.2,0.5,4.2,1,4.8,0.4c0.9-0.9,2.1-1.5,3.4-1.8
				c1.4-0.5,2.3-1.8,2.3-3.2c0.4-1.4,0.7-2.9,0.9-4.4c0.2-2.2,1.5-2.8,4.1-0.2c2.3,3,3.6,6.7,3.6,10.4c0.5,3.7,6.6,4.8,8.9,5.2
				c2.3,0.3,3.6-0.3,4.9-2.6c1.4-3,2.3-6.2,2.5-9.5c0.4-2.8,0-2.6-2.9-3.3c-2.9-0.7-16.9-3.7-19.3-4.4c-2.4-0.6-2-2.1-1.7-3.9
				s5.9-19.1,5.9-19.1c-4.9-2.6-10.4-4.2-16-4.5c0,0-3.9,17.7-4.6,20.3c-0.7,2.6-2.5,2.8-5.4,2.3s-23.6-5.3-23.6-5.3l-1.6,3.8
				c-1.4,3.4-2.2,7-2.3,10.7C675.5,651.7,676.3,651.6,679.5,652.2"/>
			<path class="st1" d="M750.5,668.3c-2.9-1.8-4.8-2.2-6.3,1.1c-1.5,3.3-1.5,8.1-5.1,11.5c-3.5,3.4-8.6,7-13.6,6.6s-8-1.5-6.8-7.1
				c1.1-5.6,8.9-7.5,10.7-10.5c1.8-2.7,1.2-6.4-1.3-8.5c-2-1.9-4.9-2.7-7.6-2c-2.6,1.9-4.6,4.5-5.7,7.5c-1.6,4.2-2.6,7.6-5.9,10.3
				c-5.5,3.6-12.2,5-18.7,3.9c-6.6-1.5-9-3.5-11.5-10c-2.4-6.5-5.6-17.2-6.8-18.4c-1.6-1.5-4.1-1.5-5.7,0c-2.2,1.8-3.5,4.5-3.5,7.4
				c-0.4,3.1,0.6,6.2,2.9,8.5c3,3,5.4,6.5,6.9,10.3c1.1,3.6,4.3,9,0,9.2c-4.3,0.1-6.7,0.4-10.2-3c-3.5-3.4-17-12.3-20.7-15.3
				c-3.7-3-5.3-3.8-5.3-3.8c-6.8-0.4-13.3-2.8-18.7-6.8c0,0,3.4,9.1,4.3,12.5c0.4,1.7,0.6,3.5,0.5,5.3c0,0,13.7,6.8,19,9.3
				s16.2,8.8,21.4,11.9c5.2,3.2,9.8,8.1,19.1,6.2c9.3-1.9,28.3-7.5,34.4-9.3c6.1-1.8,22.9-5.8,29.1-10.1c6.2-4.3,6.8-4,7.9-8.3
				c1.1-4.2,0-6.6-2.9-8.5"/>
			<path class="st1" d="M714.5,605c1.5-0.3,3.1-0.6,4.6-0.7c3.2-0.5,2,2.6,1.4,3.7c-0.8,1.9-1.8,3.8-2.9,5.6
				c-1.3,2.3,0.4,2.6,1.3,2.8c0.9,0.3,2.2,0.5,4.7,1.2c2.5,0.7,2.1-1.2,2.2-2.1c0.1-0.9,0.2-5.9,0.5-7.7c0.3-1.7,2-1.3,2.5-1
				c0.5,0.3,2.3,1.2,3.6,1.9s1.9,0,2.2-0.9c0.5-1.3,1-2.7,1.4-4c0.5-2-0.6-1.5-2-1.5c-1.3,0-2.9,0-5.1,0c-2.2,0-0.7-2-0.7-2
				s1.4-2.5,2.6-4.3c1.2-1.9,0.7-2.1-0.4-2.4s-4.8-1.2-5.9-1.4c-1.1-0.3-1.6-0.2-1.6,0.5s0,4.1,0,5.6c0,1.5,0,2.2-1.9,2.3
				c-1.9,0.1-2.9-1-4.3-2.5c-1.4-1.5-2.1-1-2.1-0.4c-0.1,0.6-1.3,5.1-1.6,6.4c-0.3,1.3,0.3,1.1,1.4,1.1"/>
			<path class="st1" d="M610.7,654.8c-2.1-2.2,3.1-2.2,6.1-2.2c3.4-0.2,6.7-1.1,9.6-2.6c1.5-1,4.4-1.5,7.7-3.1
				c3.3-1.6,1.3-2.1-2.1-2.8c-3.4-0.8-12.4-4.5-12.4-4.5s-4.4,2.3-6.8,3.7c-3.3,2.2-7.1,3.6-11.1,4.1c-2.4,0.2-4.9,0.6-7.2,1.1
				c-0.3,0.2,1.3,1.4,3.4,4.3c2.1,2.9,2.9,4.6,5.3,8.9c2.4,4.3-0.4,1.7-2.5-0.9c-2-2.6-4.1-5.2-6.4-7.5c-1.1-1.2-2.4-2.3-3.8-3.2
				l-1.7,3.5v1.3c0,1.1-1,6.9-1.3,9.2c-0.3,2.4,0.5,2.3,2.5,3.2c5.4,2.7,10.5,5.6,15.5,9c5,2.8,9.6,6.3,13.7,10.3
				c0.2-1.7,0.4-3.5,0.4-5.2c0.1-4.8-0.7-9.6-2.3-14.1c-1.3-4.4-3.5-8.5-6.4-12.1"/>
			<path class="st1" d="M587.5,641.2c2.1,0.6,4.4,1,6.6,1c3.3,0,4.6-1,8-1s5.7-1.2,11.3-4c5.5-2.7,0.3-2.1-3.7-1.8
				c-6.2,0-12.3-1-18.1-2.8c-4.4-1.6-1.2-1.7,0-1.5c3.4,1,6.9,1.8,10.4,2.2c5.4,1.1,11.1,0.5,16.2-1.5c4.4-1.2-1.1-1.8-1.1-1.8
				s-15.6-4.4-23.4-13c-4.1-4.2-7.1-9.4-8.6-15.1c-3.1,3.5-6.4,6.6-10.1,9.5c0.3,1.7,0.9,3.4,1.6,5c1.3,2.5,3,4.7,5,6.7
				c-2.5-1-4.7-2.4-6.7-4.1c-1.3-1.5-2.5-3.2-3.4-5c-4.9,3.3-10,6.2-15.3,8.7l2.1,1.7c2.6,2.5,4.9,5.3,6.8,8.5
				c2.9,4.3,0.3,3.9-2.2,0c-2.7-3.4-6-6.3-9.8-8.5c-0.2,0-0.3,0-0.5,0c-0.5,0.3-1.1,0.6-1.7,0.8l-9.5,4.1c3.1,2.5,5.9,5.3,8.3,8.5
				c1.7,2.5,5.4,4.8,6.6,6.5c1.2,1.8,2.9,3.6,4.5,5.6c1.6,2,12.2,13.7,15,18c2.8,4.4,1.2-1.1,0.5-4.1c-0.7-3-1.7-7.2-2.7-10.6
				c-1-3.5,1.1-1.9,1.5,0c0.4,1.9,0.7,2,1.6,5.6c0.9,3.7,2.9,8.8,3.8,12.6c1,3.7,1.3,1.9,2.2,0c1.2-2.1,2.1-4.3,2.9-6.5
				c0.9-4,1.3-8.1,1.2-12.2c-0.1-3.5-1.1-6.9-3-9.8c0-0.8,1.5-1.6,3.8-1.2"/>
			<path class="st1" d="M632.6,654.8c-1.8,0.8-3.6,1.3-5.6,1.7c-0.8,0.1-1.7,0.2-2.5,0.3c1.7,2.4,4.4,3.8,7.3,4.1h12.7
				c-3-1.6-5.8-3.4-8.6-5.4C635,654.5,633.7,654.3,632.6,654.8"/>
			<path class="st1" d="M724.5,649.5c0,1.6-0.2,3.3-0.5,4.9c-0.4,1.2-1.2,3,0.2,3.5c1.4,0.5,2.9,1.1,3.8,0.9c0.9-0.3,0.5-2,0-3.4
				c-0.5-1.7-1.3-3.2-2.3-4.6L724.5,649.5z"/>
			<path class="st1" d="M746.5,663.8c0.4,0.9,1.3,1.5,2.3,1.6c0.6,0.2,1.7,0.2,1.7-1.1c0.2-1.6-0.1-3.1-0.8-4.5
				c-1.2-1.4-1.7-2.5-2.5-0.3S746.1,662.7,746.5,663.8"/>
			<path class="st1" d="M669.9,649.4c0.5,0,2.9,0.8,2.9,0.8c0-1.9,0.2-3.9,0.5-5.8c0.5-2.3,1.4-3.9,0.7-3.9c-0.8,0-1.4,0.8-2,1.8
				c-0.6,1-2.4,1.2-3,4C668.4,649,669.1,649.3,669.9,649.4"/>
			<path class="st4" d="M367.5,552.4c-1.7,1.2-3.7,2.1-5.7,2.6c0,0-1.5,0-1.5,0.5c0,0.5,1.7,0,3.6-0.3c2-0.6,3.9-1.6,5.5-3
				c0.9-0.6,2.3-1.5,1.9-2.8s-1.2,0.9-3.7,2.8"/>
			<path class="st4" d="M389,563.7c-1.5,1.3-3.1,2.6-4.7,3.7c-0.8,0.5-1.7,1-2.7,1.3c-0.7,0.2-1.3,0.6-1.7,1.3c0,0,0.3,0.4,1.7,0
				c2.5-1.3,4.9-2.9,7.2-4.7c1.4-1.1,2-1.5,1.5-2C390,562.8,389.6,563.1,389,563.7"/>
			<path class="st4" d="M301.6,410.8c0.8,1,1.8,2.2,2.1,1.8c0.4-0.3,0-0.8-1.1-2.1c-0.5-0.6-1.1-1.3-1.7-1.8
				c-0.7-1.1-1.4-2.2-2.3-3.2c-0.9-0.8-2.2-1.2-0.7,0.8C299.6,408.4,300.9,409.9,301.6,410.8"/>
			<path class="st4" d="M295,425.2c1,0.9,2,1.8,2.9,2.8c1,1,1.8,2.2,2.4,1.7c0.6-0.5-1.5-1.9-2.5-3.2c-0.9-1-1.8-2-2.9-2.8
				c-0.8-0.6-1.7-1.2-2.6-1.6c0.9,1.1,1.8,2.2,2.9,3.2"/>
			<path class="st4" d="M297.4,448.3c1.7,1.7,4.2,2.1,4.5,1.5c0.3-0.6-0.2-1.3-1.5-2c-1.3-0.7-3.7-2.1-4.9-2.8c-1-0.8-2-1.6-2.9-2.5
				c-0.7-0.7-1.7-1.4-1.9-1.1c-0.3,0.3,2.3,3,3,3.4c1.4,0.9,2.7,2.1,3.8,3.4"/>
			<path class="st4" d="M302.2,466.7c0-0.6,0-1-1.2-1.1c-1.2-0.1-3.3-0.3-3.3-0.3s-2.6-1.1-2.9-0.6c-0.2,0.5,2.3,1.6,3.3,1.8
				c1,0.1,2.1,0.3,3,0.7C301.8,467.7,302.3,467.3,302.2,466.7"/>
			<path class="st4" d="M304.4,487c-3.1,0-5.5-0.7-5.7-0.3c-0.2,0.4,1.4,1.1,2.9,1.6c2,0.5,4,0.8,6.1,0.8c1.9,0,2.3-0.3,2.2-1.3
				C309.7,486.8,307.2,487,304.4,487"/>
			<path class="st4" d="M327.3,508.8c-0.4-0.4-1.5,0-3.1,0.3c-1.9,0.5-3.8,0.7-5.7,0.7c-1.5,0-5,0-5,0s-1.9,0-1.9,0.3
				c0,0.3,2.5,0.3,6.2,0.8c2.6,0.2,5.3,0,7.8-0.6c1.7-0.2,2.3-1.1,1.8-1.5"/>
			<path class="st4" d="M336.8,524.7c-1.4,0.6-2.9,0.8-4.4,0.8c-1.6,0.1-3.1,0.3-4.6,0.6c0,0-1.7,0.2-1.4,0.8c0.3,0.6,0.9,0,2.2-0.3
				c1.3-0.3,2.3,0,4.8,0c1.8-0.2,3.6-0.5,5.3-1c1.5-0.3,3.2-1,2.3-1.9C340.1,522.8,338.7,524,336.8,524.7"/>
			<path class="st4" d="M355.4,536.5c-1.6,1.3-3.3,2.5-5,3.6c-0.7,0.5-1.5,1-2.3,1.4c-1.5,0.7-1.5,1.1-1.3,1.6
				c0.3,0.5,1.3-0.7,2.1-1c1.8-1,3.6-2.2,5.2-3.4c1.5-1.2,3.4-2.2,3-2.8C356.7,535.2,356.5,535.5,355.4,536.5"/>
			<path class="st4" d="M324.5,383c1.1,1.6,2.3,3.2,3.5,4.7c3.2,3.9,1.5,0.2,0.7-0.7c-0.9-1-5.4-7.6-7.1-9.4c-1.6-1.9-1.9-0.8-1,0.3
				C321.6,378.9,324.5,383,324.5,383"/>
			<path class="st4" d="M317.8,403.2c0.4-0.5-0.6-1-2.4-3.2c-1.8-2.2-5.4-6.9-5.4-6.9s-1.1-2.1-1.4-2c0.4,1.9,1.3,3.7,2.7,5.1
				c1.5,1.5,3.5,4.3,4.6,5.5C316.9,403,317.3,403.6,317.8,403.2"/>
			<path class="st4" d="M326.7,441.2c0-1.1-3.7-1-5.3-1.3s-4.6-0.9-4.6-0.9s-3.5-0.6-3.5,0c0,0.6,0.6,0.7,2.5,1.1
				c1.9,0.4,4.8,1.2,6.8,1.5S326.7,442.3,326.7,441.2"/>
			<path class="st4" d="M317.8,420.6c1.6,1.3,3.4,2.5,5.2,3.5c1.3,0.6,2.3,1.6,3,0.9c0.7-0.7-0.6-1.4-2.6-2.3
				c-1.1-0.5-2.1-1-3.1-1.7l-2.2-1.1C317.1,419.4,315.3,418.7,317.8,420.6"/>
			<path class="st4" d="M338.5,407.1c-0.8-0.7-1.7-1.4-2.7-1.9c0,0-1.9-1.7-2.2-1.2c-0.3,0.5,2.1,2.3,3.1,3.4c1.1,1,3.3,3.9,4.2,3.4
				C341.9,410.2,340,408.3,338.5,407.1"/>
			<path class="st4" d="M325,459.9c0,0-2,0.5-3.3,0.9c-1.3,0.4-1.3,0.9,0.9,0.9c1.9-0.1,3.8-0.5,5.6-1c2.5-0.5,3.1-0.7,2.9-1.5
				c-0.3-0.8-1.5-0.4-2.5-0.2L325,459.9"/>
			<path class="st4" d="M328.6,478.9c-0.2,0.5,1.7,0,2.9-0.5c1.2-0.5,3.8-1.6,5.2-2.1c1.4-0.5,1.5-0.7,1.5-1.5c0-0.8-1.6,0-3.4,0.5
				c-1.6,0.6-3.1,1.4-4.4,2.5C330.4,477.8,328.8,478.5,328.6,478.9"/>
			<path class="st4" d="M353.6,490.6c1.7-1,2.1-1.7,1.5-2.3c-0.7-0.6-1.1-0.4-2.5,0.7c-1.3,1.1-4,3-4,3s-1.3,0.5-2.5,1
				c-1.1,0.5-2.3,1.4-1.9,1.8c0.4,0.5,2.4,0,3.5-0.8C348.8,493,352,491.6,353.6,490.6"/>
			<path class="st4" d="M365.4,506c0.8-0.5,2.9-1.2,3.9-2c1-0.8,1.4-2.8,0.7-3c-0.7-0.2-1.2,1-2.9,2.1l-7.4,4.8c0,0,0.2,0-1.3,0.6
				c-1.5,0.6-0.9,1,0.4,0.8c1.4,0,2.7-0.5,3.7-1.3c1-0.6,2-1.3,2.9-2.1"/>
			<path class="st4" d="M382.9,520.5c1.7-0.9,3.2-2.1,4.6-3.4c1.1-0.9,2.4-2.1,1.7-2.8c-0.7-0.7-1.8,0-2.9,1.3
				c-1.1,1.3-4.4,4.4-4.4,4.4c-0.8,0.4-1.5,0.9-2.2,1.5c-1.7,1.4,0,1.1,0.8,0.5c0.7-0.7,1.6-1.2,2.5-1.5"/>
			<path class="st4" d="M636.9,555c-2.1-0.5-4-1.4-5.7-2.6c-2.5-1.9-3.3-4-3.8-2.8c-0.5,1.2,1,2.1,1.9,2.8c1.6,1.3,3.5,2.3,5.5,3
				c1.9,0.3,3.8,0.9,3.8,0.3c0-0.6-1.6-0.5-1.6-0.5"/>
			<path class="st4" d="M616.8,568.7c-0.9-0.4-1.8-0.8-2.6-1.3c-1.6-1.2-3.2-2.4-4.6-3.7c-0.5-0.5-0.9-0.8-1.3-0.4
				c-0.4,0.5,0,0.9,1.4,2c2.2,1.8,4.6,3.4,7.1,4.7c1.6,0.4,1.9,0,1.9,0C618.2,569.4,617.6,568.9,616.8,568.7"/>
			<path class="st4" d="M697,410.8c0.7-0.9,1.8-2.5,3.4-4.5s0.3-1.6-0.5-0.8c-0.8,1-1.6,2.1-2.3,3.2c0,0-0.5,0.5-1.6,1.8
				c-1.1,1.3-1.5,1.5-1.1,2.1C695.3,413.2,696.2,411.8,697,410.8"/>
			<path class="st4" d="M698.3,429.6c0.7,0.5,1.5-0.7,2.4-1.7c0.9-1,1.9-1.9,2.9-2.8c1-1,2-2.1,2.9-3.2c-0.9,0.5-1.8,1-2.7,1.6
				c-1.1,0.8-2,1.8-2.9,2.8C700,427.7,697.9,428.9,698.3,429.6"/>
			<path class="st4" d="M708,441.5c-0.2-0.3-1.2,0.5-2,1.1c-0.9,0.9-1.8,1.8-2.9,2.5c-1.5,1-3.1,2-4.7,2.8c-1.5,0.7-1.9,1.3-1.5,2
				c0.4,0.7,2.9,0,4.4-1.5c1.1-1.3,2.4-2.4,3.8-3.4c0.9-0.4,3.4-3.2,3.1-3.4"/>
			<path class="st4" d="M700.7,465.3c0,0-1.8,0.3-3.3,0.3c-1.5,0.1-1.2,0.4-1.2,1.1s0.5,1,1.1,0.6c0.9-0.4,1.9-0.6,2.9-0.7
				c1-0.2,3.5-1.3,3.3-1.8C703.3,464.3,700.7,465.3,700.7,465.3"/>
			<path class="st4" d="M694.3,487c-2.9,0-5.4,0-5.6,0.8c-0.2,0.8,0.3,1.4,2.2,1.3c2.1,0,4.2-0.3,6.2-0.8c1.3-0.5,2.9-1.2,2.9-1.6
				S697.3,487,694.3,487"/>
			<path class="st4" d="M685.2,509.9c0,0-3.4,0-4.9,0c-2,0-4.1-0.3-6-0.7c-1.6-0.3-2.5-0.7-2.9-0.3c-0.3,0.4,0,1.3,1.8,1.5
				c2.6,0.6,5.3,0.8,7.9,0.6c3.6-0.5,6-0.4,6-0.8c0-0.4-1.8-0.3-1.8-0.3"/>
			<path class="st4" d="M670.9,526.1c-1.6-0.3-3.1-0.5-4.7-0.6c-1.5,0-3.1-0.3-4.5-0.8c-1.8-0.7-3.3-1.9-4.1-0.9s1,1.7,2.3,1.9
				c1.7,0.5,3.5,0.9,5.2,1c2.5,0,3.5,0,5,0s1.8,0.8,2.1,0.3C672.6,526.3,670.9,526.1,670.9,526.1"/>
			<path class="st4" d="M650.6,541.5c-0.8-0.4-1.6-0.9-2.3-1.4c0,0-3.9-2.6-5-3.6c-1.1-1-1.3-1.6-1.7-0.7s1.5,1.7,3,2.8
				c1.6,1.3,3.4,2.4,5.2,3.4c0.9,0.3,1.9,1.3,2.1,1S652.2,542.2,650.6,541.5"/>
			<path class="st4" d="M670.5,387.6c3.2-3.9,3.7-4.7,3.7-4.7s2.9-4.1,3.8-5.2c1-1.1,0.5-2.1-1-0.3c-1.5,1.8-6.3,8.5-7.2,9.4
				C668.8,387.9,667.3,391.5,670.5,387.6"/>
			<path class="st4" d="M690,391.2c-0.3-0.2-1.3,2-1.3,2s-3.6,4.7-5.5,6.9c-1.9,2.2-2.9,2.8-2.3,3.2c0.5,0.4,1,0,2.1-1.4
				c1.1-1.4,2.9-4,4.4-5.5c1.5-1.5,3.2-4.9,2.9-5.1"/>
			<path class="st4" d="M671.9,441.2c0,1.1,1.8,0.7,4,0.3c2.1-0.4,5-1.2,6.9-1.5s2.7-0.8,2.5-1.1s-3.5,0-3.5,0s-2.9,0.5-4.5,0.9
				C675.5,440.2,671.9,440,671.9,441.2"/>
			<path class="st4" d="M680.5,419.9l-2.2,1.1c-0.9,0.7-1.9,1.2-2.9,1.7c-2.3,0.9-3.4,1.4-2.7,2.3c0.7,0.8,1.6-0.3,3-0.9
				c1.7-1,3.4-2.2,5-3.5c2.3-1.9,0.7-1.2-0.3-0.6"/>
			<path class="st4" d="M657.6,410.7c1.1,0.5,3.1-2.4,4.2-3.4c1.1-1,3.5-2.8,3.2-3.4c-0.3-0.5-2.2,1.2-2.2,1.2
				c-1,0.5-1.9,1.2-2.7,1.9C658.7,408.3,656.5,409.9,657.6,410.7"/>
			<path class="st4" d="M670.3,460.7c1.9,0.5,3.8,0.9,5.7,1c2.3,0,2.2-0.6,0.9-0.9c-1.3-0.3-3.2-0.9-3.2-0.9l-3.5-0.9
				c-1-0.2-2.3-0.5-2.6,0.2C667.4,459.9,668,460.2,670.3,460.7"/>
			<path class="st4" d="M668.3,477.8c-1.3-1-2.8-1.9-4.4-2.5c-1.9-0.6-3.4-1.3-3.4-0.5s0,1.1,1.5,1.5c1.5,0.4,4,1.8,5.1,2.1
				s3.1,0.9,2.9,0.5C669.7,478.5,668.3,477.8,668.3,477.8"/>
			<path class="st4" d="M652.4,493c-1-0.5-2.3-1-2.3-1s-2.6-1.9-4-3c-1.4-1.2-1.9-1.2-2.5-0.7c-0.6,0.5-0.3,1.3,1.4,2.3
				c1.7,1,4.8,2.4,6,3.4c1.2,1,3.3,1.4,3.5,0.8C654.7,494.2,653.5,493.5,652.4,493"/>
			<path class="st4" d="M640.3,508.5c-0.5-0.1-1-0.3-1.5-0.6c0,0-5.7-3.7-7.3-4.8c-1.5-1.1-2.1-2.4-2.9-2.1c-0.7,0.2,0,2.3,0.8,3.1
				c0.8,0.8,2.9,1.4,3.8,1.9c0.9,0.5,1.3,0.8,2.9,2.1c1.1,0.8,2.4,1.3,3.8,1.3C641.2,509.5,641.9,509.1,640.3,508.5"/>
			<path class="st4" d="M618.8,521.5c-0.6-0.6-1.3-1.1-2.1-1.5c0,0-3.1-3.3-4.4-4.4c-1.3-1.1-2.1-1.9-2.9-1.3
				c-0.8,0.6,0.5,1.8,1.6,2.8c1.4,1.3,2.9,2.5,4.6,3.4c1,0.3,1.8,0.8,2.5,1.5c0.5,0.6,2.4,0.8,0.6-0.5"/>
			<path class="st1" d="M499.3,315.2c-11.8,0.2-25.8-1.4-33.3-4.2c-2.6,0.5-5.4,1.1-8.1,1.7c12.6,4.7,22.9,6.5,41.4,6.7
				c18.5,0.1,28.6-2,41.4-6.7l-8.1-1.7C521.7,314.1,510.5,315.5,499.3,315.2"/>
			<path class="st1" d="M542.1,305.5c-2.4-1.9-5-3.6-7.6-5.2c-1.5-0.7-0.4-2.5,0-3.3c0.4-0.8,6.2-2.5,9.6-3.3
				c3.4-0.8,2.9-1.5,2.9-1.5s-2-2.3-14.1-3.5c-12.1-1.3-33.5-1-33.5-1s-21.2-0.3-33.5,1c-12.3,1.3-14,3.5-14,3.5s-0.5,0.7,2.7,1.5
				c3.2,0.8,9.6,2.5,9.7,3.3c0.1,0.8,1.3,2.6,0,3.3c-2.7,1.6-5.3,3.3-7.8,5.2c-0.9,0.8-1,2,0.5,2c1.9,0.2,3.9-0.1,5.7-0.7
				c24.3-4.4,49.2-4.4,73.5,0c1.8,0.6,3.8,0.9,5.7,0.7c1.5,0,1.4-1.2,0.4-2"/>
			<polygon class="st1" points="453,295 447.6,299.2 454.1,302 461.3,297.1 			"/>
			<polygon class="st1" points="545.5,295 537.3,297.1 544.3,302 550.9,299.2 			"/>
			<path class="st1" d="M528.4,310.6c-9.6-1.4-19.4-2.1-29.1-1.9c-9.7,0-19.4,0.6-29,1.9c5.2,2.1,13.7,3.1,29,3.1
				S523.1,312.6,528.4,310.6"/>
			<path class="st5" d="M511.1,547.8c-1-1.5-1.2-1.4-2.5-0.4c-1.3,1-2.3-2.4-2.5-4.5c0.2-2.8,0.5-5.7,1-8.5
				c-2.9,0.5-5.8,1.2-8.6,2.1c-3,0.9-5.7,1.2-8.2,1.9c-1.6,0.6-3.3,0.8-5,0.7c-2-0.3-4-0.4-6-0.4c-2.2,0-2,0.4-4.2,2.5
				c-2.1,2-3.6,4.4-4.4,7.1c-1.6,3.9-2.5,8.1-2.9,12.3c-0.2,2.1-0.7,4.2-1.3,6.3h25.3c0.3-0.7,0.7-1.8,1-2.5
				c0.7-1.3,1.8-2.3,3.1-2.8c0.9-0.5,1.8-0.5,2.3-1.6c0.6-1.2,1.6-2.1,2.9-2.5c1.9-0.5,3.9-0.4,5.7,0.3c2.1,0.6,2.9-0.9,3.3-1.7
				c0.6-1.1,1.3-2.2,2.1-3.3c0.7-0.8,0.8-1.9,0.3-2.8c-0.8-0.6-1.4-1.4-1.9-2.2"/>
			<path class="st5" d="M551.9,548.5c-0.5-1.5-0.3-1.7-1.2-1.8c-0.9-0.2-2.2-0.5-3.5-1c-1.3-0.4-1.1,2.8-1.1,2.8
				c-2.1,0.2-4.3,0.2-6.4,0c-3.1-0.8-6.1-2.3-8.6-4.3c-1.1-1-2.1-2-3-3.2c-0.6,0.6-1.3,1.1-2.1,1.5c-1,0.6-1.6,2.6-1.9,4.9
				c-0.3,2.2,2.5,4.5,2.9,6.7c-0.5,2.9-1.8,5.6-3.7,7.9c-0.8,1.3-1.9,3.8-2.5,5.1h12.2c0.4-0.7,0.9-1.4,1.4-2c1-0.8,2.1-1.3,3.4-1.5
				c0.1-0.6,0.2-1.2,0.5-1.7c0.4-1.1,1.7-2.4,4.7-3.6c2.2-0.7,4.5-1.2,6.8-1.4c1-0.8,1.9-1.8,2.5-2.8c1.1-1.7,0.3-4.2,0-5.6"/>
			<polygon class="st1" points="496.7,198.2 503.1,197.7 502.5,192.1 509.3,193.2 509.6,187.8 502.5,188.3 503.7,182.6 495.8,182.5 
				497.2,188.3 490.3,187.8 490.3,193.2 497.1,192.3 			"/>
			<path class="st1" d="M510.6,207H502v-7.2c-0.8-0.1-1.7-0.1-2.5,0c-0.7,0-1.5,0-2.1,0v7.2h-8.9c-0.3,0.9-0.4,1.9-0.4,2.8
				c0,0.4,0,0.8,0,1.2h22.9v-1.2c0-1-0.2-1.9-0.5-2.8"/>
			<path class="st5" d="M499.5,220.2c4.8,0.1,9.1-2.7,10.9-7h-21.8C490.4,217.5,494.8,220.3,499.5,220.2"/>
			<path class="st5" d="M504.2,200.5v5h5.7C508.7,203.2,506.6,201.4,504.2,200.5"/>
			<path class="st5" d="M494.8,200.5c-2.4,1-4.5,2.7-5.7,5h5.7V200.5z"/>
			<path class="st4" d="M506,291.8l-6.8-2.8c0,0-4.5,2.1-7,3.4s-2,0.9-2.9,2.6c-0.5,0.9-0.2,2.1,0.8,2.6c0.1,0.1,0.3,0.1,0.4,0.2
				c1,0.4,8.7,4.3,8.7,4.3s7.6-3.6,9.4-4.3c1.8-0.8,1.5-1.7,1.1-3C509.3,293.5,508.1,292.9,506,291.8"/>
			<path class="st4" d="M521.7,289.8c3.6-0.2,6.6,2.4,6.9,5.9c0.2,3.5-2.5,6.5-6,6.8c-0.3,0-0.6,0-0.9,0c-3.6,0.2-6.6-2.4-6.9-5.9
				c-0.2-3.5,2.5-6.5,6-6.8C521.1,289.8,521.4,289.8,521.7,289.8"/>
			<path class="st4" d="M476.8,289.8c3.6,0.2,6.3,3.1,6.2,6.6c-0.2,3.5-3.2,6.2-6.8,6.1c-3.5-0.2-6.2-3-6.2-6.4
				C470.1,292.6,473.1,289.8,476.8,289.8"/>
			<polygon class="st1" points="491.9,294.1 499.4,297.9 506.9,294.1 499.3,290.5 			"/>
			<path class="st1" d="M521.7,291c2.2,0,4,1.7,4,3.9c0,0,0,0,0,0c-0.2,2.2-2.1,3.8-4.4,3.6c-2-0.2-3.5-1.7-3.7-3.6
				C517.7,292.7,519.5,291,521.7,291"/>
			<path class="st1" d="M476.8,291c2.2,0,3.9,1.7,3.9,3.9c0,2.1-1.7,3.8-3.9,3.8c0,0,0,0,0,0c-2.2,0.1-4-1.6-4.1-3.8c0,0,0,0,0-0.1
				C472.7,292.6,474.5,290.9,476.8,291"/>
			<path class="st1" d="M462.7,274.3c1.3,0.4,2.6,0.5,4,0.4c0,0,0.7-3-1.1-4.4c-1.8-1.4-3-2.5-4-3.4c-0.4-0.4-0.8-0.8-1.2-1.3
				c0,0,0,2.6-0.1,4.1C460.1,271.6,461,273.4,462.7,274.3"/>
			<path class="st1" d="M466.2,276.4c0.6-0.1,1.2,0.4,1.3,1c0,0,0,0.1,0,0.1c0,0.7-0.6,1.2-1.3,1.2c0,0,0,0,0,0
				c-0.6,0-1.2-0.5-1.1-1.2c0,0,0,0,0,0C465,277,465.5,276.4,466.2,276.4C466.1,276.4,466.1,276.4,466.2,276.4"/>
			<path class="st1" d="M457.1,276.3c-0.5,0.7-1.6,1.9-1.6,1.9c0.9,0.1,1.7,0.3,2.4,0.8c1.1,0.9,2.5,1.3,4,1.3c1,0,1.7-0.8,1.7-1.8
				c0-0.1,0-0.3-0.1-0.4c-0.3-1-0.9-1.7-3.2-2.6C458,274.5,457.4,275.4,457.1,276.3"/>
			<path class="st1" d="M461.8,284c-4.3,0.3-9.9-4.2-9.9-4.2c-0.3,3.3-2.9,5.9-6.2,6.3l0.3,0.3c2.3,1,4.6,1.8,7.1,2.1
				c1.8,0.2,3.5,0.1,5.2-0.4c2.2-0.3,4.3-0.9,6.2-1.9c2.5-1.5,1.8-5.6,1.8-5.6C465.9,282.6,464,284,461.8,284"/>
			<path class="st1" d="M445.3,279.8c-1.7-0.7-3.5-1.4-5.4-1.9c-1.1,0-2.9-0.3-2.4,1.6c0.5,2,2.3,2.8,4.3,3c1.5,0,3-0.4,4.2-1.3
				C447.3,280.8,447,280.5,445.3,279.8"/>
			<path class="st1" d="M432,272.9c-1-0.8-2.2-1.4-3.5-1.7c-0.7,1.6-0.9,3.5-0.5,5.2c0.5,1.6,2.2,2.7,3.9,2.4c1.8,0,4.5-1,3.7-2.3
				C434.8,275,433.5,273.7,432,272.9"/>
			<path class="st1" d="M433.8,280.8c0.9,0,1.5,0.5,1.5,1c0,0.5-0.7,1-1.5,1s-1.5-0.5-1.5-1S433,280.8,433.8,280.8"/>
			<path class="st1" d="M437.9,265.9c-1.5-6.6,0.1-13.6,4.2-19c3.7-4.8,8.7-8.5,14.5-10.6c1-1.3,2-2.5,3.1-3.7
				c2.7-2.5,5.7-4.8,8.8-6.8c0,0-6.8,1.6-10.7,2.8v0.3c0,2.6-2.1,4.7-4.7,4.7c-1,0-1.9-0.3-2.6-0.9c-4,1.6-7.7,3.6-11.2,6.1
				c0.5,0.7,0.8,1.6,0.8,2.5c0,2.6-2.2,4.7-4.8,4.7c-0.7,0-1.4-0.1-2.1-0.5l-0.7,1c-1.4,2.5-2.5,5-3.3,7.7c1.3,0.9,2.1,2.5,2,4.1
				c0.1,2.4-1.6,4.5-4,4.8c-0.1,1-0.1,2,0,3c0.1,1.5,0.9,2.5,3.4,3.3c2.6,0.8,6.4,5.6,6.4,5.6c1.5-2.7,1.8-6,0.8-8.9"/>
			<path class="st1" d="M454.5,230.9c1-0.8,1.2-2,0.4-2.6c-0.9-0.8-2.3-0.8-3.2,0c-1,0.8-1.2,2-0.3,2.8
				C452.3,231.8,453.7,231.7,454.5,230.9"/>
			<path class="st1" d="M437,242.6c1.1-0.8,1.3-2.4,0.4-3.4c-1.1-0.9-2.7-0.8-3.6,0.3c-1.1,0.7-1.3,2.1-0.6,3.2
				c0.1,0.1,0.1,0.1,0.2,0.2C434.4,243.7,436,243.6,437,242.6"/>
			<path class="st1" d="M426.4,254.8c1.5-0.1,2.7,1,2.9,2.4c0,0.1,0,0.1,0,0.2c0.5,1.5-0.3,3.1-1.8,3.6c-1.5,0.5-3.1-0.3-3.6-1.8
				c-0.2-0.6-0.2-1.2,0-1.8C423.8,255.9,425,254.8,426.4,254.8"/>
			<path class="st1" d="M485.4,220.1c-2.8,0.7-5.4,1.8-7.9,3.2l0,0c2.4-0.3,4.6,1.4,4.9,3.8c0,0,0,0.1,0,0.1
				c-0.3,2.6-2.5,4.6-5.2,4.6c-2.5,0-4.5-2-4.6-4.5c0-0.5,0.1-1,0.3-1.5c-1.1,0.8-2.4,1.5-3.7,2.5c-6.6,3.8-11.9,9.5-15,16.4
				c-4.2,7.8-5.7,16.5-4,21.5c1.7,5,8.6,6.2,8.8,6.2c-0.5-0.5-0.8-1.1-0.9-1.7c-0.2-1,0.2-1.5,0.5-3.4c0.1-1.4,0.1-2.8,0-4.2
				c0.9-0.1,1.8,0.2,2.5,0.8c0.8,1.1,2.1,2.3,2.9,3.4c0.8,1.1,3.3,3.1,3.3,3.1c0.7-1.3,1.2-2.8,1.2-4.3c0-2.3-1.5-4.8-1.8-8.8
				c0.1-6,2.1-11.7,5.7-16.5c3.9-4.5,8.7-8.2,14.1-10.9c1.6-0.6,2.7-2,2.9-3.7c0-1,0.3-1.6,0.5-4c0.2-2.4-2-2.3-4.3-1.8"/>
			<path class="st1" d="M476.8,229.3c1.5-0.1,2.7-1.2,2.9-2.6c-0.1-1.3-1.3-2.3-2.7-2.2c-1.4-0.1-2.7,0.9-2.9,2.3
				C474.2,228.1,475.3,229.2,476.8,229.3"/>
			<path class="st1" d="M489.6,279.4c1.8,0.7,3.8,0.5,5.5-0.4c1.1-0.7,1.3-2.2,0.6-3.3c-0.1-0.2-0.2-0.3-0.4-0.4
				c-1.3-0.9-3.1-1.1-4.5-0.3c-1.1,0.7-3.9,2.6-3.9,2.6C487.7,278.4,488.6,279.1,489.6,279.4"/>
			<path class="st1" d="M496.3,281.7c-0.7,1.3-2.1,2.1-3.6,1.9c-2.3,0.4-4.6-0.2-6.4-1.6c-1.1-1-1.9-2.2-2.5-3.6h-2.7
				c-0.4,1.6-1.1,3.2-2.1,4.6c-2.2,1.1-4.8,1-6.8-0.2c-1.8-1.3-3.5-2.8-3.8-2.6c-0.3,0.3,0,1.4,1.8,2.8c1.5,1.7,3.8,2.7,6.1,2.6
				h16.6c0,0,3.4,0.3,4.4-1.7c1-2,1-3.3,0.5-3.7C497.4,279.8,497.1,280.5,496.3,281.7"/>
			<path class="st1" d="M471,279c2.5,1.3,4,0.4,4.8-0.7c0.8-1.1,1.1-1.5,1.1-1.5c-1.2-0.4-2.3-0.9-3.4-1.6c-1.2-0.7-1.9-1.3-3.1-1.1
				c-1.2,0.1-1.3,0.3-1.3,0.3C468.7,276.2,469.5,278,471,279"/>
			<path class="st1" d="M503.2,275.3c-1,0.8-1.1,2.3-0.2,3.3c0.1,0.1,0.3,0.3,0.4,0.4c1.7,0.9,3.7,1.1,5.5,0.4
				c1.1-0.3,2.1-1,2.9-1.9l-4.2-2.6C506.2,274.2,504.4,274.3,503.2,275.3"/>
			<path class="st1" d="M526.4,282.8c-2.1,1.2-4.8,1.3-7,0.2c-1-1.4-1.7-2.9-2.1-4.6h-2.5c-0.7,1.3-1.5,2.5-2.5,3.6
				c-1.8,1.3-4.1,1.9-6.4,1.6c-1.5,0.2-3-0.6-3.7-1.9c-0.7-1.1-1.1-2-1.5-1.4c-0.5,0.6-0.4,1.7,0.5,3.7c0.9,2,4.4,1.7,4.4,1.7h16.6
				c2.3,0.1,4.5-0.8,6-2.5c1.8-1.5,2.2-2.8,1.8-2.8c-0.3,0-1.9,1.3-3.6,2.6"/>
			<path class="st1" d="M525.1,275.2c-1.1,0.6-2.3,1.2-3.5,1.6c0.3,0.6,0.7,1.1,1.1,1.5c0.8,1.1,2.3,2,4.8,0.7
				c1.5-1,2.3-2.8,2.1-4.6c-0.4-0.2-0.9-0.3-1.4-0.3C527,274.1,526.3,274.5,525.1,275.2"/>
			<path class="st1" d="M538.2,269.8c0-1.6,0-4.1,0-4.1c-0.4,0.5-0.8,0.9-1.2,1.3c-0.9,0.9-2.4,2-4,3.4c-1.7,1.4-1,4.4-1,4.4
				c1.3,0.1,2.6,0,3.9-0.4c1.7-0.9,2.7-2.7,2.5-4.6"/>
			<path class="st1" d="M533.5,277.6c0-0.7-0.5-1.2-1.1-1.3c-0.7,0-1.3,0.5-1.3,1.1c0,0.7,0.5,1.2,1.1,1.3c0,0,0.1,0,0.1,0
				C533,278.7,533.5,278.2,533.5,277.6"/>
			<path class="st1" d="M536.7,280.3c1.4,0,2.8-0.4,4-1.3c0.7-0.5,1.6-0.7,2.5-0.8l-1.7-1.9c-0.5-0.8-1-1.6-3.2-0.9
				c-2.1,0.7-2.9,1.7-3.1,2.6c-0.2,1,0.4,1.9,1.3,2.1C536.5,280.2,536.6,280.3,536.7,280.3"/>
			<path class="st1" d="M546.6,279.8c0,0-5.7,4.5-9.9,4.2c-4.2-0.3-4.5-3.5-4.5-3.5s-0.8,4.1,1.8,5.6c1.9,1,4,1.6,6.2,1.9
				c1.7,0.5,3.5,0.6,5.3,0.4c2.4-0.4,4.8-1.1,7.1-2.1l0.4-0.3C549.5,285.8,546.9,283.2,546.6,279.8"/>
			<path class="st1" d="M558.6,278c-1.8,0.5-3.7,1.1-5.4,1.9c-1.7,0.7-1.9,1-0.7,1.5c1.2,0.8,2.7,1.3,4.2,1.3c2,0,4.1-1,4.3-3
				C561.1,277.6,559.7,277.8,558.6,278"/>
			<path class="st1" d="M566.4,272.9c-1.5,0.9-2.7,2.1-3.5,3.6c-0.8,1.3,1.9,2.3,3.7,2.3c1.7,0.3,3.4-0.8,4-2.4
				c0.3-1.8,0.1-3.6-0.6-5.2C568.7,271.5,567.5,272.1,566.4,272.9"/>
			<path class="st1" d="M564.6,280.8c0.9,0,1.6,0.5,1.6,1c0,0.5-0.7,1-1.6,1c-0.6,0.1-1.1-0.2-1.3-0.8c-0.1-0.6,0.2-1.1,0.8-1.3
				C564.2,280.8,564.4,280.8,564.6,280.8"/>
			<path class="st1" d="M567.2,258.2c0-1.6,0.7-3.1,2.1-4.1c-0.8-2.7-2-5.3-3.4-7.7c0-0.3-0.3-0.6-0.5-1c-0.7,0.3-1.4,0.5-2.1,0.5
				c-2.6,0-4.8-2.1-4.8-4.7c0-0.9,0.2-1.7,0.6-2.5c-3.4-2.5-7-4.6-10.9-6.1c-0.8,0.6-1.8,0.9-2.9,0.9c-2.6-0.1-4.7-2.2-4.7-4.7v-0.3
				c-4-1.3-10.8-2.8-10.8-2.8c3.2,2,6.2,4.3,9,6.9c2.9,3.1,3.3,3.7,3.3,3.7c5.7,2.1,10.7,5.8,14.3,10.6c4.2,5.4,5.7,12.4,4.2,19
				c-1,2.9-0.7,6.2,0.7,8.9c0,0,3.8-4.7,6.4-5.4c2.6-0.7,3.4-1.8,3.6-3.3c0.2-1,0.2-2,0-3C568.8,262.8,567.1,260.7,567.2,258.2"/>
			<path class="st1" d="M543.9,230.9c0.9,0.8,2.2,0.9,3.2,0.2c0.7-0.7,0.7-1.8,0.1-2.5c-0.1-0.1-0.3-0.2-0.4-0.3
				c-1-0.8-2.3-0.8-3.3,0c-0.6,0.7-0.6,1.8,0.2,2.4C543.7,230.8,543.8,230.8,543.9,230.9"/>
			<path class="st1" d="M561.5,242.6c1,0.9,2.6,1,3.7,0.2c0.8-1,0.7-2.4-0.3-3.3c-0.1,0-0.1-0.1-0.2-0.1c-0.7-1.1-2.1-1.3-3.2-0.6
				c-1.1,0.7-1.4,2.1-0.7,3.2C561,242.2,561.2,242.5,561.5,242.6"/>
			<path class="st1" d="M572.1,254.8c1.5,0,2.7,1.1,2.7,2.6c0,0,0,0,0,0c0.2,1.5-0.9,2.8-2.4,2.9s-2.8-0.9-3-2.4c0-0.2,0-0.4,0-0.5
				C569.3,255.9,570.5,254.8,572.1,254.8C572,254.8,572,254.8,572.1,254.8"/>
			<path class="st1" d="M509.3,226c0.2,1.6,1.3,3,2.9,3.7c5.3,2.8,10,6.5,13.8,11c3.6,4.8,5.6,10.6,5.7,16.5c-0.3,4-1.9,6.5-1.9,8.8
				c0.1,1.5,0.5,3,1.3,4.3c0,0,2.3-2.1,3.2-3.1s2.2-2.3,3-3.4c0.7-0.6,1.6-0.9,2.5-0.8c-0.1,1.4-0.1,2.8,0,4.2
				c0.3,1.1,0.5,2.2,0.6,3.4c-0.2,0.6-0.6,1.2-1,1.7c0,0,7-1.1,8.8-6.2c1.8-5.1,0.2-13.7-4.1-21.5c-3.1-6.9-8.3-12.7-15-16.4
				c-1.3-0.9-2.5-1.7-3.6-2.5c0.2,0.5,0.3,1,0.2,1.5c0,2.5-2,4.5-4.5,4.5c-2.6-0.1-4.8-2-5.2-4.6c0.3-2.4,2.4-4.2,4.9-3.9
				c0,0,0,0,0.1,0l0,0c-2.5-1.4-5.2-2.5-8-3.2c-2.3-0.4-4.5-0.6-4.3,1.8C509,224.4,509.1,225,509.3,226"/>
			<path class="st1" d="M499.3,265.2c-0.3,1.3-0.8,2.5-1.5,3.7c-0.9,1-1.3,2.2-1.2,3.5c0.4,1.2,1.5,2.1,2.9,2.2
				c1.3-0.1,2.5-0.9,2.9-2.2c0.1-1.3-0.4-2.6-1.3-3.5c-0.7-1.1-1.2-2.4-1.5-3.7"/>
			<path class="st1" d="M499.3,275.8c0.8,0.2,1.3,0.9,1.1,1.7c-0.1,0.6-0.6,1-1.1,1.1c-0.8,0-1.4-0.6-1.4-1.4
				C497.8,276.5,498.5,275.8,499.3,275.8"/>
			<path class="st1" d="M494.3,270.1c1.3-1.3,2.4-2.8,3.3-4.4c0.9-1.7,1.6-3.2,1.6-3.2c0.5,1.1,1,2.2,1.7,3.2c0.9,1.6,2,3,3.3,4.4
				c2.8-2,4.7-4.9,5.4-8.3c2-6.5-0.4-13.3-1.4-20.7c-1-7.4-1.5-20-1.5-20c-4.5,2.8-10.3,2.8-14.9,0c0,0-0.7,12.7-1.6,20
				c-0.9,7.3-3.4,14.3-1.3,20.7C489.6,265.1,491.5,268.1,494.3,270.1"/>
			<path class="st1" d="M518.8,226.6c0.2,1.4,1.4,2.5,2.9,2.6c1.4-0.1,2.5-1.2,2.6-2.6c-0.2-1.4-1.4-2.4-2.9-2.3
				c-1.4-0.2-2.6,0.7-2.8,2c0,0.1,0,0.1,0,0.2"/>
			<path class="st4" d="M459,249.2c3.1,0.2,5.4,2.8,5.1,5.8c-0.2,2.7-2.4,4.9-5.1,5.1c-3.1,0.2-5.7-2-5.9-5.1
				c-0.2-3,2.1-5.6,5.1-5.8C458.4,249.2,458.7,249.2,459,249.2"/>
			<path class="st4" d="M468.5,235.9c-2.4-1.4-5.5-0.8-7.3,1.3c-1.7,1.8-1.5,4.7,0.4,6.3c0.1,0.1,0.3,0.2,0.5,0.4
				c2.4,1.5,5.5,0.9,7.2-1.3c1.7-1.9,1.5-4.8-0.4-6.4C468.8,236.1,468.7,236,468.5,235.9"/>
			<path class="st1" d="M458.7,251.1c1.7-0.1,3.1,1.2,3.2,2.9c0,0,0,0.1,0,0.1c0,1.7-1.5,3-3.2,3c0,0,0,0,0,0c-1.7,0-3.2-1.3-3.3-3
				C455.5,252.3,457,251,458.7,251.1"/>
			<path class="st1" d="M466.3,236.5c-1.5-0.4-3.1,0.3-3.9,1.6c-0.8,1.2,0,2.6,1.9,2.8C467.7,241.6,469.5,237.3,466.3,236.5"/>
			<path class="st4" d="M499.3,249.8c3.2,0,5.7,2.5,5.7,5.6s-2.6,5.6-5.7,5.6s-5.7-2.5-5.7-5.6S496.1,249.8,499.3,249.8"/>
			<path class="st4" d="M499.3,237c3-0.1,5.6,2.2,5.7,5.2c0,0,0,0,0,0.1c0.2,3.1-2.2,5.8-5.4,6c-3.2,0.2-5.9-2.2-6.1-5.3
				s2.2-5.8,5.4-6C499,237,499.2,237,499.3,237"/>
			<path class="st4" d="M499.3,224.5c2.9,0,5.3,2.3,5.3,5.2c0,2.9-2.4,5.2-5.3,5.2s-5.3-2.3-5.3-5.2
				C494,226.8,496.4,224.5,499.3,224.5"/>
			<path class="st4" d="M539.6,249.2c-3.1,0.2-5.4,2.8-5.1,5.8c0.2,2.7,2.4,4.9,5.1,5.1c3.1,0.2,5.7-2,5.9-5.1
				c0.2-3-2.1-5.6-5.1-5.8C540.1,249.2,539.8,249.2,539.6,249.2"/>
			<path class="st4" d="M537.2,237.2c-1.8-2.1-4.8-2.7-7.3-1.3c-2,1.4-2.6,4.1-1.2,6.1c0.1,0.2,0.3,0.4,0.4,0.5
				c1.7,2.2,4.8,2.8,7.2,1.3c2.1-1.4,2.6-4.1,1.2-6.2C537.5,237.5,537.4,237.4,537.2,237.2"/>
			<path class="st1" d="M539.8,251.1c1.7-0.1,3.2,1.2,3.3,2.9c0,0,0,0,0,0.1c-0.1,1.7-1.6,3.1-3.3,3c-1.7,0-3.1-1.3-3.2-3
				c0,0,0,0,0,0C536.6,252.4,538,251.1,539.8,251.1C539.7,251.1,539.7,251.1,539.8,251.1"/>
			<path class="st1" d="M532.2,236.5c-3.2,0.9-1.5,5.2,2,4.5c1.9-0.3,2.7-1.7,1.9-2.8C535.3,236.9,533.8,236.2,532.2,236.5"/>
			<path class="st1" d="M499.3,251.6c1.6,0.1,2.7,1.5,2.6,3.1s-1.5,2.7-3.1,2.6c-1.5-0.1-2.6-1.3-2.6-2.8
				C496.2,252.8,497.6,251.6,499.3,251.6"/>
			<path class="st1" d="M499.3,238.5c1.6-0.1,2.9,1.1,3,2.7c0,0,0,0.1,0,0.1c-0.2,1.6-1.6,2.8-3.3,2.7c-1.4-0.1-2.6-1.3-2.7-2.7
				c0-1.6,1.3-2.8,2.9-2.8C499.1,238.5,499.2,238.5,499.3,238.5"/>
			<path class="st1" d="M499.3,226.2c1.5,0,2.7,1.1,2.7,2.5c-0.2,1.4-1.3,2.4-2.7,2.5c-1.4,0-2.6-1.1-2.6-2.5c0,0,0,0,0,0
				c0-1.4,1.1-2.5,2.5-2.5C499.1,226.2,499.2,226.2,499.3,226.2"/>
			<path class="st4" d="M684.9,638.7c2.7,0,4.9,2.2,4.9,4.8c0,2.6-2.2,4.8-4.9,4.8c-2.7,0-4.9-2.1-4.9-4.8
				C680,640.8,682.2,638.7,684.9,638.7C684.9,638.7,684.9,638.7,684.9,638.7"/>
			<path class="st4" d="M698.6,641.8c2.8,0.1,5,2.3,5,5c0,2.7-2.3,4.9-5.1,4.9c-2.8,0-5-2.3-5-5C693.5,644,695.8,641.8,698.6,641.8"
				/>
			<path class="st4" d="M738.6,650.2c2.8-0.2,5.2,1.8,5.4,4.6c0.2,2.7-1.9,5.1-4.6,5.3c-0.3,0-0.5,0-0.8,0c-2.8-0.2-4.9-2.6-4.6-5.3
				C734.1,652.3,736.1,650.4,738.6,650.2"/>
			<path class="st4" d="M712.3,645.1c2.8,0,5,2.1,5,4.8c0,0,0,0.1,0,0.1c0,2.7-2.2,4.9-5,4.9c-2.8,0-5-2.2-5-4.9
				C707.3,647.3,709.6,645.1,712.3,645.1"/>
			<path class="st4" d="M715.9,633.2c2.8,0,5.1,2.1,5.1,4.9c0,2.7-2.2,5-5,5c-2.8,0-5.1-2.1-5.1-4.9c0,0,0-0.1,0-0.1
				C711,635.4,713.2,633.2,715.9,633.2"/>
			<path class="st4" d="M719.5,621.5c2.8,0.2,4.9,2.6,4.6,5.3c-0.2,2.4-2.2,4.4-4.6,4.6c-2.8-0.2-4.9-2.6-4.6-5.3
				C715,623.6,717,621.7,719.5,621.5"/>
			<path class="st1" d="M685.2,640.6c1.3-0.1,2.5,0.8,2.7,2.1c0.1,1.3-0.8,2.5-2.2,2.6c-0.2,0-0.4,0-0.5,0c-1.3,0.1-2.5-0.8-2.7-2.1
				s0.8-2.5,2.2-2.6C684.9,640.6,685.1,640.6,685.2,640.6"/>
			<path class="st1" d="M699,643.9c1.4,0.1,2.4,1.4,2.2,2.7c-0.1,1.1-1,2.1-2.2,2.2c-1.4,0.1-2.6-0.8-2.7-2.2
				c-0.1-1.3,0.8-2.6,2.2-2.7C698.7,643.8,698.9,643.8,699,643.9"/>
			<path class="st1" d="M739,652.2c1.4,0,2.4,1.2,2.4,2.5c0,1.4-1.1,2.5-2.5,2.5c-1.4,0-2.5-1.1-2.5-2.4c0,0,0,0,0,0
				C736.4,653.3,737.5,652.2,739,652.2C739,652.2,739,652.2,739,652.2"/>
			<path class="st1" d="M712.7,647c1.4-0.1,2.6,0.8,2.7,2.2c0.1,1.3-0.8,2.6-2.2,2.7c-0.2,0-0.4,0-0.5,0c-1.4,0.1-2.6-0.8-2.7-2.2
				c-0.1-1.3,0.8-2.6,2.2-2.7C712.4,647,712.5,647,712.7,647"/>
			<path class="st1" d="M716.4,635.3c1.3,0,2.4,1,2.5,2.4c0,0,0,0.1,0,0.1c0,1.3-1.1,2.4-2.4,2.5c0,0,0,0,0,0
				c-1.4,0-2.5-1.1-2.5-2.5C713.8,636.4,714.9,635.3,716.4,635.3C716.3,635.3,716.3,635.3,716.4,635.3"/>
			<path class="st1" d="M719.8,623.4c1.4,0,2.5,1.1,2.5,2.5s-1.1,2.5-2.5,2.5c-1.4,0-2.5-1.1-2.5-2.5S718.5,623.4,719.8,623.4"/>
		</g>
	</g>
</g>
<rect x="-358.5" y="6.3" style="clip-path:url(#SVGID_00000073686948928537159480000013486979096240902821_);fill:none;" width="1716.6" height="985.7"/>
</svg>
