<?xml version="1.0" encoding="utf-8"?>
<!-- Generator: Adobe Illustrator 28.0.0, SVG Export Plug-In . SVG Version: 6.00 Build 0)  -->
<svg version="1.1" id="Layer_1" xmlns="http://www.w3.org/2000/svg" xmlns:xlink="http://www.w3.org/1999/xlink" x="0px" y="0px"
	 viewBox="0 0 1000 1000" style="enable-background:new 0 0 1000 1000;" xml:space="preserve">
<style type="text/css">
	.st0{clip-path:url(#SVGID_00000163776196966168844470000007601407856799224705_);fill:#013580;}
	.st1{clip-path:url(#SVGID_00000163776196966168844470000007601407856799224705_);fill:#D30F33;}
	.st2{clip-path:url(#SVGID_00000163776196966168844470000007601407856799224705_);fill:#009543;}
	.st3{clip-path:url(#SVGID_00000163776196966168844470000007601407856799224705_);fill:#FEFEFE;}
	.st4{fill:#FECE00;}
</style>
<g>
	<g>
		<defs>
			<path id="SVGID_1_" d="M999.5,500C999.5,224.1,775.9,0.5,500,0.5S0.5,224.1,0.5,500S224.1,999.5,500,999.5S999.5,775.9,999.5,500
				L999.5,500z"/>
		</defs>
		<clipPath id="SVGID_00000118366314632761815260000015854821304561426603_">
			<use xlink:href="#SVGID_1_"  style="overflow:visible;"/>
		</clipPath>
		<path style="clip-path:url(#SVGID_00000118366314632761815260000015854821304561426603_);fill:#013580;" d="M500,0.4
			C224.1,0.4,0.4,224.1,0.4,500c0,82.8,20.2,161,55.9,229.8l0.1,0l0,0v0l828.7-548v0l0,0l0,0l0-0.1C793.5,71,655,0.4,500,0.4
			L500,0.4z"/>
		<path style="clip-path:url(#SVGID_00000118366314632761815260000015854821304561426603_);fill:#013580;" d="M500,0.4"/>
		<path style="clip-path:url(#SVGID_00000118366314632761815260000015854821304561426603_);fill:#D30F33;" d="M83.6,775.9
			L83.6,775.9L83.6,775.9z"/>
		<path style="clip-path:url(#SVGID_00000118366314632761815260000015854821304561426603_);fill:#D30F33;" d="M83.6,775.9
			L83.6,775.9L83.6,775.9z"/>
		<polygon style="clip-path:url(#SVGID_00000118366314632761815260000015854821304561426603_);fill:#D30F33;" points="83.6,775.9 
			83.5,776 83.5,776 83.6,776 		"/>
		<polygon style="clip-path:url(#SVGID_00000118366314632761815260000015854821304561426603_);fill:#D30F33;" points="83.6,776 
			83.6,776 83.6,776 		"/>
		
			<rect x="83.5" y="776" transform="matrix(0.9862 -0.1656 0.1656 0.9862 -127.3631 24.5541)" style="clip-path:url(#SVGID_00000118366314632761815260000015854821304561426603_);fill:#D30F33;" width="0" height="0"/>
		<polygon style="clip-path:url(#SVGID_00000118366314632761815260000015854821304561426603_);fill:#D30F33;" points="83.6,776 
			83.6,776 83.6,776 		"/>
		<polygon style="clip-path:url(#SVGID_00000118366314632761815260000015854821304561426603_);fill:#D30F33;" points="83.6,776 
			83.6,776 83.6,776 		"/>
		<path style="clip-path:url(#SVGID_00000118366314632761815260000015854821304561426603_);fill:#D30F33;" d="M917.1,225.1
			L917.1,225.1L83.6,775.9l0,0l0,0l0,0l0,0l0,0l0,0l0,0l0,0l0,0l0,0l0,0l0,0l0,0v0l0,0v0c42.1,63.5,98.4,116.7,164.3,155.3l0.1,0
			l0,0l747.8-493.5h0l0,0l0,0l0,0C986,359.9,958.4,287.6,917.1,225.1L917.1,225.1L917.1,225.1z"/>
		<path style="clip-path:url(#SVGID_00000118366314632761815260000015854821304561426603_);fill:#D30F33;" d="M917.1,225.1"/>
		<path style="clip-path:url(#SVGID_00000118366314632761815260000015854821304561426603_);fill:#009543;" d="M999.5,499.4
			L999.5,499.4L302.8,959.1l0,0l0,0l0,0h0l0,0l0,0l0,0l0,0l0,0v0h0l0,0c60.5,26,127.1,40.4,197.2,40.4
			c275.9,0,499.5-223.6,499.5-499.5C999.5,499.7,999.5,499.8,999.5,499.4L999.5,499.4L999.5,499.4L999.5,499.4z"/>
		<path style="clip-path:url(#SVGID_00000118366314632761815260000015854821304561426603_);fill:#009543;" d="M999.5,499.4"/>
		<path style="clip-path:url(#SVGID_00000118366314632761815260000015854821304561426603_);fill:#FEFEFE;" d="M53.5,731.6L887.7,180
			c0.8-0.5,1.8-0.3,2.3,0.5c0.5,0.8,0.3,1.8-0.5,2.3L55.3,734.4c-0.8,0.5-1.8,0.3-2.3-0.5C52.5,733.2,52.7,732.2,53.5,731.6
			L53.5,731.6z"/>
		<path style="clip-path:url(#SVGID_00000118366314632761815260000015854821304561426603_);fill:#FEFEFE;" d="M53.5,731.6"/>
		<path style="clip-path:url(#SVGID_00000118366314632761815260000015854821304561426603_);fill:#FEFEFE;" d="M79.6,774.6L918,220.5
			c0.8-0.5,1.8-0.3,2.3,0.5c0.5,0.8,0.3,1.8-0.5,2.3L81.5,777.4c-0.8,0.5-1.8,0.3-2.3-0.5C78.6,776.1,78.8,775.1,79.6,774.6
			L79.6,774.6z"/>
		<path style="clip-path:url(#SVGID_00000118366314632761815260000015854821304561426603_);fill:#FEFEFE;" d="M79.6,774.6"/>
		<path style="clip-path:url(#SVGID_00000118366314632761815260000015854821304561426603_);fill:#FEFEFE;" d="M244.8,933.3
			l754.1-497.6c0.8-0.5,1.8-0.3,2.3,0.5c0.5,0.8,0.3,1.8-0.5,2.3L246.7,936.1c-0.8,0.5-1.8,0.3-2.3-0.5
			C243.9,934.8,244.1,933.8,244.8,933.3L244.8,933.3z"/>
		<path style="clip-path:url(#SVGID_00000118366314632761815260000015854821304561426603_);fill:#FEFEFE;" d="M244.8,933.3"/>
		<path style="clip-path:url(#SVGID_00000118366314632761815260000015854821304561426603_);fill:#FEFEFE;" d="M297,958.9
			l705.6-465.5c0.8-0.5,1.8-0.3,2.3,0.5c0.5,0.8,0.3,1.8-0.5,2.3L298.9,961.7c-0.8,0.5-1.8,0.3-2.3-0.5
			C296,960.4,296.2,959.4,297,958.9L297,958.9z"/>
		<path style="clip-path:url(#SVGID_00000118366314632761815260000015854821304561426603_);fill:#FEFEFE;" d="M297,958.9"/>
		<polygon style="clip-path:url(#SVGID_00000118366314632761815260000015854821304561426603_);fill:#FEFEFE;" points="57.9,732.7 
			57.9,732.7 57.9,732.7 		"/>
		<polygon style="clip-path:url(#SVGID_00000118366314632761815260000015854821304561426603_);fill:#FEFEFE;" points="57.9,732.7 
			57.9,732.7 57.9,732.7 57.9,732.8 		"/>
		<polygon style="clip-path:url(#SVGID_00000118366314632761815260000015854821304561426603_);fill:#FEFEFE;" points="57.9,732.8 
			57.9,732.8 57.9,732.8 		"/>
		<polygon style="clip-path:url(#SVGID_00000118366314632761815260000015854821304561426603_);fill:#FEFEFE;" points="57.9,732.8 
			57.9,732.8 57.9,732.8 57.9,732.8 57.9,732.8 57.9,732.8 		"/>
		<path style="clip-path:url(#SVGID_00000118366314632761815260000015854821304561426603_);fill:#FEFEFE;" d="M887.2,184.3
			L887.2,184.3L57.9,732.7v0l0,0h0l0,0l0,0l0,0l0,0l0,0l0,0l0,0l0,0l0,0v0l-0.1,0l0,0h0l0,0l0,0l0,0c7.3,13.9,15.3,27.3,23.8,40.4
			l0.1,0l0,0l833.5-550.8h0v0l0,0l0,0l0-0.1C906.5,209.2,897.2,196.5,887.2,184.3L887.2,184.3L887.2,184.3L887.2,184.3L887.2,184.3z
			"/>
		<path style="clip-path:url(#SVGID_00000118366314632761815260000015854821304561426603_);fill:#FEFEFE;" d="M887.2,184.3"/>
		<path style="clip-path:url(#SVGID_00000118366314632761815260000015854821304561426603_);fill:#FEFEFE;" d="M251.1,933.2
			L251.1,933.2L251.1,933.2z"/>
		<polygon style="clip-path:url(#SVGID_00000118366314632761815260000015854821304561426603_);fill:#FEFEFE;" points="251.1,933.2 
			251.1,933.2 251.1,933.2 251.1,933.2 251.1,933.2 		"/>
		<polygon style="clip-path:url(#SVGID_00000118366314632761815260000015854821304561426603_);fill:#FEFEFE;" points="251.1,933.2 
			251.1,933.2 251.1,933.2 251.1,933.2 		"/>
		<polygon style="clip-path:url(#SVGID_00000118366314632761815260000015854821304561426603_);fill:#FEFEFE;" points="251.1,933.2 
			251.1,933.2 251.1,933.2 		"/>
		<path style="clip-path:url(#SVGID_00000118366314632761815260000015854821304561426603_);fill:#FEFEFE;" d="M996.1,441.5
			L996.1,441.5l-745,491.6l0,0l0,0l0,0h0l0,0l0,0v0l0,0l0,0v0v0v0l0,0v0l0,0l0,0l0,0l0,0c15.5,8.9,31.5,17,48,24.3l0,0l0,0
			l700.3-462.1l0,0l0,0C999.3,477.2,998.2,459.2,996.1,441.5L996.1,441.5L996.1,441.5L996.1,441.5L996.1,441.5z"/>
		<path style="clip-path:url(#SVGID_00000118366314632761815260000015854821304561426603_);fill:#FEFEFE;" d="M996.1,441.5"/>
	</g>
	<path class="st4" d="M256.1,231.1c-1.6,0-3.3,0.1-5,0.2c-39.8,2.5-70.7,34.3-73.1,73.1l0,0c-0.2,3.2-0.2,6.5,0,9.8
		c2.5,39.6,34,70.4,72.6,73l-0.3,0c1.9,0.1,3.7,0.2,5.6,0.2c1.6,0,3.3-0.1,5-0.2c0.2,0,0.4,0,0.7,0l-0.3,0
		c42.9-2.9,75.4-39.9,72.7-82.8v0l0,0C331.4,262.9,297,231.1,256.1,231.1L256.1,231.1z M256.1,231.1"/>
	<path class="st4" d="M175.7,232.4l-7.2-69.2c0-0.2,0.1-0.4,0.3-0.6c0.2-0.1,0.4-0.1,0.6,0l57,43l-0.9,0.2l26.2-66.5
		c0.1-0.2,0.3-0.4,0.5-0.4c0.2,0,0.4,0.1,0.5,0.4l27,67.1l-0.9-0.2l57.6-43.3c0.2-0.1,0.4-0.2,0.6,0c0.2,0.1,0.3,0.3,0.3,0.6
		l-8.4,70.2l-0.6-0.6l71.5-8.7c0.2,0,0.5,0.1,0.6,0.3c0.1,0.2,0.1,0.5-0.1,0.6l-44.1,55.1l-0.2-0.9l67.1,28.2
		c0.2,0.1,0.4,0.3,0.4,0.5c0,0.2-0.1,0.4-0.4,0.5l-66.5,26.6l0.2-0.9l44.1,57.7c0.1,0.2,0.2,0.4,0,0.6c-0.1,0.2-0.3,0.3-0.6,0.3
		l-72.6-9.8l0.6-0.6l8.9,71.2c0,0.2-0.1,0.5-0.3,0.6c-0.2,0.1-0.5,0.1-0.6,0L279,409.6l0.9-0.2l-26.6,65.2c-0.1,0.2-0.3,0.4-0.5,0.4
		c-0.2,0-0.4-0.1-0.5-0.4L225.3,410l0.9,0.2l-56.9,41.9c-0.2,0.1-0.4,0.1-0.6,0c-0.2-0.1-0.3-0.3-0.3-0.6l8.4-69.1l0.6,0.6l-71.7,9
		c-0.2,0-0.5-0.1-0.6-0.3c-0.1-0.2-0.1-0.5,0-0.6l44.8-57.4l0.2,0.9l-67.6-26.4c-0.2-0.1-0.4-0.3-0.4-0.5c0-0.2,0.1-0.5,0.4-0.5
		l67.8-25.9l-0.3,0.9l-44.4-57.6c-0.1-0.2-0.2-0.4,0-0.6c0.1-0.2,0.3-0.3,0.6-0.3l70.1,8.1L175.7,232.4 M176.9,232.3
		c0,0.2,0,0.3-0.2,0.5c-0.1,0.1-0.3,0.2-0.5,0.2l-70.1-8.1l0.5-0.9l44.4,57.6c0.1,0.1,0.1,0.3,0.1,0.5c0,0.2-0.2,0.3-0.4,0.4
		L83,308.2l0-1.1l67.6,26.4c0.2,0.1,0.3,0.2,0.3,0.4c0,0.2,0,0.4-0.1,0.5l-44.8,57.4l-0.5-0.9l71.7-9c0.2,0,0.4,0,0.5,0.2
		c0.1,0.1,0.2,0.3,0.2,0.5l-8.4,69.1l-0.9-0.5l56.9-41.9c0.1-0.1,0.3-0.1,0.5-0.1c0.2,0,0.3,0.2,0.4,0.3l26.9,64.6l-1.1,0l26.6-65.2
		c0.1-0.2,0.2-0.3,0.4-0.3c0.2,0,0.4,0,0.5,0.1l57.4,44.9l-0.9,0.5l-8.9-71.2c0-0.2,0-0.4,0.2-0.5c0.1-0.1,0.3-0.2,0.5-0.2l72.6,9.8
		l-0.5,0.9L356,335.3c-0.1-0.1-0.1-0.3-0.1-0.5c0-0.2,0.2-0.3,0.3-0.4l66.5-26.6l0,1.1l-67.1-28.2c-0.2-0.1-0.3-0.2-0.3-0.4
		c0-0.2,0-0.4,0.1-0.5l44.1-55.1l0.5,0.9l-71.5,8.7c-0.2,0-0.4,0-0.5-0.2c-0.1-0.1-0.2-0.3-0.2-0.5l8.4-70.2l0.9,0.5l-57.6,43.3
		c-0.1,0.1-0.3,0.1-0.5,0.1c-0.2,0-0.3-0.2-0.4-0.3l-27-67.1l1.1,0l-26.2,66.5c-0.1,0.2-0.2,0.3-0.4,0.3c-0.2,0-0.4,0-0.5-0.1
		l-57-43l0.9-0.5L176.9,232.3z M176.9,232.3"/>
	<path class="st4" d="M169.8,164.4L169.8,164.4L169.8,164.4z M169.8,164.4L169.8,164.4L169.8,164.4L169.8,164.4L169.8,164.4z
		 M169.8,164.4L169.8,164.4L169.8,164.4L169.8,164.4z M169.8,164.4L169.8,164.4L169.8,164.4L169.8,164.4z M107.5,225L107.5,225
		L107.5,225L107.5,225z M107.5,225L107.5,225L107.5,225L107.5,225z M84.4,307.7L84.4,307.7L84.4,307.7z M84.4,307.7L84.4,307.7
		L84.4,307.7L84.4,307.7L84.4,307.7z M84.4,307.7L84.4,307.7L84.4,307.7L84.4,307.7L84.4,307.7z M107,390.7L107,390.7L107,390.7
		L107,390.7L107,390.7z M107,390.7L107,390.7L107,390.7L107,390.7z M255.8,208.8c52.7,0,97,41,100.4,94.4
		c3.5,55.5-38.7,103.3-94.2,106.8v0l0,0v0c-2.1,0.1-4.3,0.2-6.4,0.2c-52.7,0-97-41-100.4-94.4c-3.5-55.5,38.7-103.3,94.1-106.8
		C251.5,208.8,253.7,208.8,255.8,208.8L255.8,208.8z M169.7,450.4L169.7,450.4L169.7,450.4L169.7,450.4z M252.3,141.2l-25.7,65.1v0
		c-0.1,0.2-0.2,0.3-0.4,0.3v0c-0.1,0-0.1,0-0.2,0c-0.1,0-0.2,0-0.3-0.1v0l-55.9-42.2v0l0,0v0l0,0l0,0h0v0l0,0l0,0l0,0v0l0,0v0v0l0,0
		h0l7.1,67.9c0,0.2,0,0.3-0.2,0.5c-0.1,0.1-0.2,0.2-0.4,0.2c0,0,0,0-0.1,0v0l-68.7-8v0l0,0l0,0l0,0l0,0v0l0,0l0,0l0,0l0,0l0,0
		l43.6,56.5c0.1,0.1,0.1,0.3,0.1,0.5c0,0.2-0.2,0.3-0.3,0.4v0l-66.4,25.4v0v0l0,0l0,0l0,0v0l0,0l0,0h0l66.2,25.9v0
		c0.2,0.1,0.3,0.2,0.3,0.4c0,0.2,0,0.4-0.1,0.5l-43.9,56.3v0l0,0l0,0h0l0,0v0l0,0l0,0h0v0l70.3-8.8v0c0,0,0.1,0,0.1,0
		c0.1,0,0.3,0.1,0.4,0.2v0l0,0c0.1,0.1,0.2,0.3,0.2,0.5l-8.2,67.8v0v0v0l0,0l0,0l55.8-41.1v0c0.1-0.1,0.2-0.1,0.3-0.1
		c0.1,0,0.1,0,0.1,0v0c0.2,0,0.3,0.2,0.4,0.3v0l26.4,63.3l0,0l0,0l0,0v0l26.1-63.9v0c0.1-0.2,0.2-0.3,0.4-0.3v0c0,0,0.1,0,0.1,0
		c0.1,0,0.2,0,0.3,0.1v0l56.3,44l0,0v0l-8.7-69.8v0c0-0.2,0-0.3,0.2-0.5v0c0.1-0.1,0.2-0.2,0.4-0.2c0,0,0.1,0,0.1,0v0l71.3,9.6l0,0
		v0l0,0L356,335.2v0l0,0c-0.1-0.1-0.1-0.3-0.1-0.5c0-0.2,0.2-0.3,0.3-0.4l65.2-26.1l0,0v0l0,0l-65.8-27.6c-0.2-0.1-0.3-0.2-0.3-0.4
		c0-0.2,0-0.3,0.1-0.5l43.2-54l0,0v0l0,0l-70.1,8.5v0l0,0v0c0,0,0,0-0.1,0c-0.1,0-0.3-0.1-0.4-0.2c-0.1-0.1-0.2-0.3-0.2-0.5
		l8.2-68.9l0,0v0l0,0l-56.5,42.5c-0.1,0.1-0.2,0.1-0.3,0.1c-0.1,0-0.1,0-0.1,0v0c-0.2-0.1-0.3-0.2-0.4-0.3L252.3,141.2L252.3,141.2z
		 M252.3,141.2"/>
</g>
</svg>
