<?xml version="1.0" encoding="UTF-8"?>
<svg id="Layer_1" xmlns="http://www.w3.org/2000/svg" version="1.1" viewBox="0 0 1000 1000">
  <!-- Generator: Adobe Illustrator 29.2.1, SVG Export Plug-In . SVG Version: 2.1.0 Build 116)  -->
  <defs>
    <style>
      .st0 {
        fill: #fec527;
      }

      .st1 {
        fill: #042b7d;
      }

      .st2 {
        fill: #fff;
      }
    </style>
  </defs>
  <g>
    <path class="st1" d="M999.5,499.7c0,16-.8,32-2.2,47.7-24.1,253.2-237.9,451.8-497.3,451.8S26.9,800.5,2.8,547.4c-1.4-15.7-2.2-31.6-2.2-47.7s.8-32,2.2-47.8C26.9,198.9,240.7.2,500,.2s473.2,198.7,497.3,451.7c1.5,15.8,2.2,31.6,2.2,47.8Z"/>
    <polygon class="st2" points="360.9 548 381.4 630 440 569.3 416.9 650.4 498 627.3 437.3 685.9 519.3 706.5 437.3 727 498 785.6 416.9 762.4 440 843.6 381.4 782.9 360.9 864.8 340.4 782.9 281.7 843.6 304.9 762.4 223.8 785.6 284.4 727 202.6 706.5 284.4 685.9 223.8 627.3 304.9 650.4 281.7 569.3 340.4 630 360.9 548"/>
  </g>
  <path class="st0" d="M999.5,499.7c0,16-.8,32-2.2,47.7H2.8c-1.4-15.7-2.2-31.6-2.2-47.7s.8-32,2.2-47.8h994.5c1.5,15.8,2.2,31.6,2.2,47.8Z"/>
</svg>