<?xml version="1.0" encoding="utf-8"?>
<!-- Generator: Adobe Illustrator 28.0.0, SVG Export Plug-In . SVG Version: 6.00 Build 0)  -->
<svg version="1.1" id="Layer_1" xmlns="http://www.w3.org/2000/svg" xmlns:xlink="http://www.w3.org/1999/xlink" x="0px" y="0px"
	 viewBox="0 0 1000 1000" style="enable-background:new 0 0 1000 1000;" xml:space="preserve">
<style type="text/css">
	.st0{clip-path:url(#SVGID_00000159428858034713802510000009970958416658484404_);}
	.st1{fill:#C90909;}
	.st2{fill:#FFE000;}
	.st3{clip-path:url(#SVGID_00000021825782273737643750000012741798236563123880_);fill:#FFDA00;}
	.st4{clip-path:url(#SVGID_00000021825782273737643750000012741798236563123880_);fill:none;stroke:#C90909;stroke-width:64.632;}
</style>
<g>
	<defs>
		<circle id="SVGID_1_" cx="500" cy="500" r="499.5"/>
	</defs>
	<clipPath id="SVGID_00000045596062769033983070000013959699985827130260_">
		<use xlink:href="#SVGID_1_"  style="overflow:visible;"/>
	</clipPath>
	<g style="clip-path:url(#SVGID_00000045596062769033983070000013959699985827130260_);">
		<rect x="-502.1" y="-1.1" class="st1" width="2004.3" height="1002.1"/>
		<path class="st2" d="M399.8,1001.1h200.4L500,571.6L399.8,1001.1z M-502.1,600.2L500,500l-1002.1,501.1h300.6L500,517.9
			l701.5,483.2h300.6L500,500L-502.1,399.8V600.2z M500,500l1002.1,100.2V399.8L500,500z M399.8-1.1L500,428.4L600.2-1.1H399.8z
			 M1201.5-1.1L500,482.1L-201.5-1.1h-300.6L500,500L1502.1-1.1H1201.5z"/>
		<g>
			<defs>
				<rect id="SVGID_00000119824989745080913610000008050434070292484526_" x="-502.1" y="-1.1" width="2004.3" height="1002.1"/>
			</defs>
			<clipPath id="SVGID_00000119091837692066010970000004657971755441505971_">
				<use xlink:href="#SVGID_00000119824989745080913610000008050434070292484526_"  style="overflow:visible;"/>
			</clipPath>
			<path style="clip-path:url(#SVGID_00000119091837692066010970000004657971755441505971_);fill:#FFDA00;" d="M500,338.9
				c89,0,161.1,72.1,161.1,161.1c0,88.9-72.1,161.1-161.1,161.1c-88.9,0-161.1-72.1-161.1-161.1C338.9,411.1,411.1,338.9,500,338.9"
				/>
			
				<path style="clip-path:url(#SVGID_00000119091837692066010970000004657971755441505971_);fill:none;stroke:#C90909;stroke-width:64.632;" d="
				M500,338.9c89,0,161.1,72.1,161.1,161.1c0,88.9-72.1,161.1-161.1,161.1c-88.9,0-161.1-72.1-161.1-161.1
				C338.9,411.1,411.1,338.9,500,338.9z"/>
		</g>
	</g>
</g>
</svg>
