<svg width="34" height="34" viewBox="0 0 34 34" fill="none" xmlns="http://www.w3.org/2000/svg">
<circle cx="17" cy="17" r="17" fill="#DA2381"/>
<path d="M24 17.2499C23.9965 17.167 23.9725 17.0862 23.93 17.0149C23.9117 16.9711 23.8864 16.9305 23.855 16.8949L18.855 11.8949C18.7613 11.8018 18.6346 11.7495 18.5025 11.7495C18.3704 11.7495 18.2437 11.8018 18.15 11.8949L17.795 12.2499C17.7026 12.343 17.6506 12.4687 17.65 12.5999C17.6496 12.6657 17.6622 12.7309 17.6871 12.7919C17.712 12.8528 17.7487 12.9082 17.795 12.9549L21.34 16.4999H10.5C10.3674 16.4999 10.2402 16.5526 10.1464 16.6464C10.0527 16.7401 10 16.8673 10 16.9999V17.4999C10 17.6325 10.0527 17.7597 10.1464 17.8535C10.2402 17.9472 10.3674 17.9999 10.5 17.9999H21.34L17.79 21.5449C17.7437 21.5916 17.707 21.647 17.6821 21.708C17.6572 21.7689 17.6446 21.8341 17.645 21.8999C17.6456 22.0311 17.6976 22.1568 17.79 22.2499L18.145 22.6049C18.2381 22.6973 18.3638 22.7494 18.495 22.7499C18.5608 22.7503 18.626 22.7377 18.687 22.7128C18.7479 22.6879 18.8033 22.6512 18.85 22.6049L23.85 17.6049C23.8814 17.5693 23.9067 17.5287 23.925 17.4849C23.9692 17.4141 23.995 17.3333 24 17.2499Z" fill="white"/>
</svg>
