<?xml version="1.0" encoding="utf-8"?>
<!-- Generator: Adobe Illustrator 28.0.0, SVG Export Plug-In . SVG Version: 6.00 Build 0)  -->
<svg version="1.1" id="Flag" xmlns="http://www.w3.org/2000/svg" xmlns:xlink="http://www.w3.org/1999/xlink" x="0px" y="0px"
	 viewBox="0 0 1000 1000" style="enable-background:new 0 0 1000 1000;" xml:space="preserve">
<style type="text/css">
	.st0{fill:#FFFFFF;}
	.st1{fill:#00267F;}
	.st2{fill:#FFC726;}
</style>
<g>
	<path class="st0" d="M750.5,67.8v864.5c0.1,0,0.1-0.1,0.2-0.1V67.9C750.6,67.8,750.5,67.8,750.5,67.8z"/>
	<path class="st1" d="M0.5,500c0,184.5,100,345.6,248.8,432.1V67.9C100.5,154.4,0.5,315.5,0.5,500z"/>
	<path class="st1" d="M999.5,500c0-184.5-100-345.6-248.8-432.1v864.3C899.5,845.6,999.5,684.5,999.5,500z"/>
	<path class="st2" d="M500,0.5c-91.4,0-177,24.5-250.7,67.4v864.3C323,975,408.6,999.5,500,999.5c91.3,0,176.8-24.5,250.5-67.3V67.8
		C676.8,25,591.3,0.5,500,0.5z"/>
</g>
<path d="M499.9,258.4c7.9,10.5,18.1,72.5,67,123.3c-27.9-5.6-40.8-4.4-40.8-4.4v186.1c0,0,53,9.6,53.5,8.5c0.5-1,1.5-1.9,1.6-3.5
	c2-58.5,34.8-164.1,34.8-164.1s12.7-22.1,10.2-25.5c-2.5-3.3-24.1,8-25.1,4.3c34.7-37.2,106.1-60.5,113.5-55.2
	c-32.4,43.1-97.5,161.2-98.3,294.9c-10.8,0.6-84.7-12.7-90.3-11.4v130.4h-52.2V611.5c-3.1-1.8-90.5,14.5-90.4,11.4
	c4.7-147.2-92.4-280.4-98.3-295.6c68.1,6.3,113,55,112.8,56.4c-0.2,1.4-21.5-8-24.3-4.7c-0.8,1,0,7.2,9.4,24.5
	c10.4,35.2,32.4,99.5,36.4,165.4c0,2.5,3.1,2.7,3.1,2.7l51.3-8.2V376.2c0,0-36.6,4.1-42.3,7C470.2,343.2,483.8,296.8,499.9,258.4z"
	/>
</svg>
