<svg width="21" height="22" viewBox="0 0 21 22" fill="none" xmlns="http://www.w3.org/2000/svg">
<g clip-path="url(#clip0_1043_6029)">
<g clip-path="url(#clip1_1043_6029)">
<rect width="21" height="21" transform="translate(0 0.5)" fill="white"/>
<path fill-rule="evenodd" clip-rule="evenodd" d="M0 21.5H21V0.501038H0V21.5Z" fill="#F5F5F5"/>
<path fill-rule="evenodd" clip-rule="evenodd" d="M0 21.5H21V14.4996H0V21.5Z" fill="#EA0020"/>
<path fill-rule="evenodd" clip-rule="evenodd" d="M0 14.4996H21V7.49925H0V14.4996Z" fill="#3555E2"/>
<path fill-rule="evenodd" clip-rule="evenodd" d="M5.44469 4.49771C5.37906 4.52514 5.31387 4.55471 5.25 4.58556L5.45256 7.73042C5.50812 8.58756 5.87956 9.39971 6.50344 10.0104C6.93044 10.4283 7.45281 10.7313 8.02025 10.898C8.58769 10.7313 9.10962 10.4283 9.53706 10.0104C10.1605 9.39971 10.5324 8.58756 10.5879 7.73042L10.7905 4.58556C10.7262 4.55471 10.6614 4.52514 10.5954 4.49771L10.388 7.71714C10.3368 8.52714 9.98462 9.29385 9.39487 9.87156C9.00637 10.2526 8.53387 10.532 8.02025 10.6927C7.50662 10.532 7.03412 10.2526 6.64519 9.87156C6.05544 9.29385 5.70369 8.52714 5.6525 7.71714L5.44469 4.49771Z" fill="#EA0020"/>
<path fill-rule="evenodd" clip-rule="evenodd" d="M10.5954 4.49771C9.79212 4.15014 8.91563 3.9663 8.02007 3.9663C7.12451 3.9663 6.24838 4.15014 5.44469 4.49771L5.6525 7.71714C5.70369 8.52714 6.05544 9.29385 6.64519 9.87156C7.03412 10.2526 7.50662 10.532 8.02025 10.6927C8.53387 10.532 9.00637 10.2526 9.39487 9.87156C9.98462 9.29385 10.3368 8.52714 10.388 7.71714" fill="#3555E2"/>
<path fill-rule="evenodd" clip-rule="evenodd" d="M8.17568 5.47202L8.2903 5.31902L8.0978 5.33959L8.02037 5.16644L7.94249 5.33959L7.74999 5.31902L7.86462 5.47202L7.74999 5.62416L7.94249 5.60445L8.02037 5.77759L8.0978 5.60445L8.2903 5.62416" fill="#F8E72A"/>
<path fill-rule="evenodd" clip-rule="evenodd" d="M7.44844 4.52198L7.56307 4.36983L7.37057 4.38955L7.29313 4.21641L7.21525 4.38955L7.02275 4.36983L7.13738 4.52198L7.02275 4.67412L7.21525 4.65441L7.29313 4.82755L7.37057 4.65441L7.56307 4.67412" fill="#F8E72A"/>
<path fill-rule="evenodd" clip-rule="evenodd" d="M8.90284 4.52198L9.01747 4.36983L8.82497 4.38955L8.74753 4.21641L8.66965 4.38955L8.47715 4.36983L8.59178 4.52198L8.47715 4.67412L8.66965 4.65441L8.74753 4.82755L8.82497 4.65441L9.01747 4.67412" fill="#F8E72A"/>
<path fill-rule="evenodd" clip-rule="evenodd" d="M10.0983 8.18577L9.05927 6.82891L8.64321 7.37148L8.02021 6.15005L7.39633 7.37148L6.98114 6.82891L5.94208 8.18577C5.94208 8.36577 6.01558 8.53805 6.14552 8.66534C6.27545 8.79263 6.45133 8.86463 6.63508 8.86463C6.75714 8.86463 6.87702 8.83291 6.98114 8.77334C7.03321 8.7442 7.08964 8.72148 7.14871 8.70563C7.32545 8.65891 7.51446 8.68377 7.67414 8.77334C7.78002 8.83377 7.89989 8.86463 8.02021 8.86463C8.14052 8.86463 8.26039 8.83377 8.36627 8.77334C8.52508 8.68377 8.71496 8.65891 8.89171 8.70563C8.95077 8.72148 9.0072 8.7442 9.05927 8.77334C9.16427 8.83291 9.28327 8.86463 9.40533 8.86463C9.58908 8.86463 9.76496 8.79263 9.89489 8.66534C10.0248 8.53805 10.0983 8.36577 10.0983 8.18577Z" fill="#F5F5F5"/>
<path fill-rule="evenodd" clip-rule="evenodd" d="M6.18809 8.9224C6.23578 9.0154 6.28828 9.10583 6.34515 9.19368C6.49128 9.25968 6.65709 9.27383 6.81459 9.23311C6.87322 9.21768 6.92878 9.19454 6.98084 9.16497C7.0854 9.10582 7.20484 9.07411 7.32734 9.07411C7.44765 9.07411 7.56709 9.10497 7.67384 9.16497C7.83309 9.2554 8.02165 9.27983 8.19972 9.23311C8.25834 9.21768 8.31478 9.19454 8.36641 9.16497C8.47053 9.10582 8.58997 9.07411 8.71291 9.07411C8.83409 9.07411 8.95309 9.10497 9.05897 9.16497C9.21822 9.2554 9.40678 9.27983 9.58484 9.23311C9.62334 9.22283 9.66009 9.20954 9.69509 9.19368C9.75197 9.10583 9.80447 9.0154 9.85216 8.9224C9.81716 8.93568 9.78391 8.95068 9.75153 8.96911C9.69947 8.99868 9.64347 9.02183 9.58484 9.03725C9.40678 9.08397 9.21822 9.05954 9.05897 8.96911C8.95309 8.90911 8.83365 8.87783 8.71247 8.87783C8.58953 8.87783 8.47053 8.91083 8.36641 8.96911C8.31434 8.99868 8.25834 9.02183 8.19972 9.03725C8.02165 9.08397 7.83309 9.05954 7.67384 8.96911C7.56709 8.90911 7.44765 8.87783 7.32734 8.87783C7.20484 8.87783 7.0854 8.91083 6.98084 8.96911C6.9279 8.99868 6.87322 9.02183 6.81459 9.03725C6.63653 9.08397 6.44797 9.05954 6.28872 8.96911C6.25634 8.95068 6.22309 8.93568 6.18809 8.9224Z" fill="#F5F5F5"/>
<path fill-rule="evenodd" clip-rule="evenodd" d="M9.51548 9.44298C9.43498 9.54413 9.34705 9.64141 9.25298 9.73356C8.90386 10.0768 8.4808 10.3327 8.02011 10.487C7.55942 10.3327 7.1368 10.0768 6.78636 9.73356C6.69317 9.64141 6.60523 9.54413 6.52473 9.44298C6.62055 9.45798 6.71855 9.4537 6.81436 9.42884C6.87342 9.41299 6.92898 9.39027 6.98105 9.36113C7.08517 9.30241 7.20505 9.26984 7.32711 9.26984C7.44742 9.26984 7.5673 9.3007 7.67405 9.36113C7.83286 9.45156 8.02186 9.47556 8.19948 9.42884C8.25855 9.41299 8.31498 9.39027 8.36617 9.36113C8.4703 9.30241 8.59017 9.26984 8.71311 9.26984C8.8343 9.26984 8.95329 9.3007 9.05917 9.36113C9.19742 9.43956 9.35929 9.46827 9.51548 9.44298Z" fill="#F5F5F5"/>
</g>
</g>
<defs>
<clipPath id="clip0_1043_6029">
<rect y="0.5" width="21" height="21" rx="10.5" fill="white"/>
</clipPath>
<clipPath id="clip1_1043_6029">
<rect width="21" height="21" fill="white" transform="translate(0 0.5)"/>
</clipPath>
</defs>
</svg>
