<?xml version="1.0" encoding="utf-8"?>
<!-- Generator: Adobe Illustrator 28.0.0, SVG Export Plug-In . SVG Version: 6.00 Build 0)  -->
<svg version="1.1" id="Layer_1" xmlns="http://www.w3.org/2000/svg" xmlns:xlink="http://www.w3.org/1999/xlink" x="0px" y="0px"
	 viewBox="0 0 26 52.2" style="enable-background:new 0 0 26 52.2;" xml:space="preserve">
<style type="text/css">
	.st0{fill:url(#SVGID_1_);fill-opacity:0.2;}
	.st1{fill:#FFFFFF;}
	.st2{fill:#3AC5EF;}
	.st3{fill:none;stroke:#FFFFFF;stroke-width:2;stroke-linecap:round;stroke-miterlimit:10;}
</style>
<radialGradient id="SVGID_1_" cx="-430.4147" cy="558.895" r="0.9045" gradientTransform="matrix(5.204749e-16 8.5 15.2375 -9.330279e-16 -8503.1631 3705.5)" gradientUnits="userSpaceOnUse">
	<stop  offset="0.26" style="stop-color:#000000"/>
	<stop  offset="1" style="stop-color:#000000;stop-opacity:0"/>
</radialGradient>
<ellipse class="st0" cx="13" cy="47" rx="11.8" ry="5"/>
<path class="st1" d="M13,21l-7,3.6c-0.7,0.4-1.6-0.2-1.4-1.1l1.3-7.7l-5.6-5.5C-0.3,9.8,0,8.8,0.9,8.7l7.8-1.1l3.5-7
	c0.4-0.7,1.4-0.7,1.8,0l3.5,7l7.8,1.1c0.8,0.1,1.1,1.1,0.6,1.7L20,15.9l1.3,7.7c0.1,0.8-0.7,1.4-1.4,1L13,21L13,21z"/>
<path class="st2" d="M13.4,16.9c-0.1-0.1-0.3-0.1-0.5,0l-2.7,1.4c-0.4,0.2-0.8-0.1-0.7-0.5l0.5-3c0-0.2,0-0.3-0.1-0.4l-2.2-2.1
	c-0.3-0.3-0.1-0.8,0.3-0.9l3-0.4c0.2,0,0.3-0.1,0.4-0.3l1.4-2.7c0.2-0.4,0.7-0.4,0.9,0l1.4,2.8c0.1,0.1,0.2,0.2,0.4,0.3l3,0.4
	c0.4,0.1,0.6,0.6,0.3,0.9l-2.2,2.1c-0.1,0.1-0.2,0.3-0.1,0.4l0.5,3c0.1,0.4-0.4,0.7-0.7,0.5L13.4,16.9z"/>
<path class="st3" d="M7.1,31.1v16.1"/>
<path class="st3" d="M18.9,31.1v16.1"/>
<path class="st3" d="M13,27v12.4"/>
</svg>
