<svg width="41" height="83" viewBox="0 0 41 83" fill="none" xmlns="http://www.w3.org/2000/svg">
<ellipse cx="19.5749" cy="74.3867" rx="18.0095" ry="8.61324" fill="url(#paint0_radial_1246_5586)" fill-opacity="0.2"/>
<path d="M20.3173 32.8984L9.42085 38.5696C8.26277 39.1735 6.94676 38.202 7.15732 36.9155L9.26293 24.8116L0.472032 16.2523C-0.449169 15.3596 0.0509114 13.7842 1.34059 13.6005L13.5268 11.8676L19.0013 0.866438C19.5804 -0.288813 21.2386 -0.288813 21.7913 0.866438L27.2132 11.8938L39.3731 13.6792C40.6627 13.863 41.1628 15.4384 40.2416 16.331L31.3981 24.8641L33.4511 36.968C33.6616 38.2283 32.3193 39.1998 31.1875 38.5959L20.3173 32.8459V32.8984Z" fill="white"/>
<path d="M20.2458 27.1919C20.1003 27.1146 19.926 27.1139 19.7799 27.1901L13.3507 30.5433C12.9837 30.7348 12.5562 30.4227 12.6269 30.0147L13.8621 22.8805C13.8901 22.7186 13.8368 22.5532 13.7195 22.4382L8.5521 17.3716C8.25644 17.0817 8.42111 16.5787 8.83096 16.5197L16.0178 15.4858C16.1809 15.4623 16.3219 15.3601 16.3949 15.2124L19.5938 8.73894C19.7775 8.3673 20.3076 8.36771 20.4907 8.73963L23.6917 15.2425C23.7643 15.39 23.9047 15.4923 24.0672 15.5163L31.2247 16.5748C31.6345 16.6355 31.7971 17.1396 31.4998 17.4282L26.3083 22.4685C26.1903 22.5831 26.1362 22.7484 26.1636 22.9106L27.3734 30.0686C27.4425 30.4777 27.0121 30.7882 26.6457 30.5934L20.2458 27.1919Z" fill="#686BCA"/>
<path d="M11.1348 48.6777V73.8569" stroke="white" stroke-width="2" stroke-miterlimit="10" stroke-linecap="round"/>
<path d="M29.6094 48.6777V73.8569" stroke="white" stroke-width="2" stroke-miterlimit="10" stroke-linecap="round"/>
<path d="M20.3711 42.2456V61.6486" stroke="white" stroke-width="2" stroke-miterlimit="10" stroke-linecap="round"/>
<defs>
<radialGradient id="paint0_radial_1246_5586" cx="0" cy="0" r="1" gradientUnits="userSpaceOnUse" gradientTransform="translate(19.5749 74.3867) rotate(90) scale(13.3114 21.1093)">
<stop offset="0.26"/>
<stop offset="1" stop-opacity="0"/>
</radialGradient>
</defs>
</svg>
