<?xml version="1.0" encoding="UTF-8"?>
<svg id="Layer_1" xmlns="http://www.w3.org/2000/svg" version="1.1" viewBox="0 0 1000 1000">
  <!-- Generator: Adobe Illustrator 29.2.1, SVG Export Plug-In . SVG Version: 2.1.0 Build 116)  -->
  <defs>
    <style>
      .st0 {
        fill: none;
      }

      .st1, .st2 {
        fill: #fff;
      }

      .st1, .st3 {
        fill-rule: evenodd;
      }

      .st4, .st3 {
        fill: #003283;
      }

      .st5 {
        fill: #009c45;
      }

      .st6 {
        fill: #e41f20;
      }

      .st7 {
        fill: #e61446;
      }

      .st8 {
        fill: #0083ce;
      }

      .st9 {
        fill: #000006;
      }

      .st10 {
        fill: #f7b000;
      }
    </style>
  </defs>
  <circle class="st4" cx="500" cy="500" r="495.8"/>
  <circle class="st6" cx="500" cy="500" r="460"/>
  <circle class="st2" cx="500" cy="500" r="425.5"/>
  <rect class="st0" x="-418.3" y="-115.2" width="1836.5" height="1224.4"/>
  <g>
    <g>
      <path class="st3" d="M503,235.6c-76.6,0-138.7,62.2-138.7,138.7s62.1,138.8,138.7,138.8,138.8-62.1,138.8-138.8-62.1-138.7-138.8-138.7ZM503,441.3c-36.9,0-66.9-29.9-66.9-66.9s29.9-66.9,66.9-66.9,67,30,67,66.9c0,37-30,66.9-67,66.9Z"/>
      <g>
        <path class="st1" d="M486.5,298h34.9l-16.6-53.1-18.3,53.1Z"/>
        <path class="st1" d="M450.5,316.6l30.2-17.4-41-37.8,10.8,55.3Z"/>
        <path class="st1" d="M428.6,350.6l17.5-30.3-54.3-12.2,36.9,42.5Z"/>
        <path class="st1" d="M426.7,391v-34.9l-53.1,16.6,53.1,18.3Z"/>
        <path class="st1" d="M445.2,427l-17.5-30.2-37.7,41,55.2-10.8Z"/>
        <path class="st1" d="M479.2,448.9l-30.2-17.4-12.3,54.3,42.4-36.9Z"/>
        <path class="st1" d="M519.6,450.8h-34.9l16.6,53.1,18.2-53.1Z"/>
        <path class="st1" d="M555.7,432.2l-30.3,17.4,41,37.7-10.8-55.2Z"/>
        <path class="st1" d="M577.5,398.2l-17.4,30.2,54.4,12.2-37-42.4Z"/>
        <path class="st1" d="M579.4,357.8v34.9l53.2-16.6-53.2-18.3Z"/>
        <path class="st1" d="M561,321.8l17.4,30.2,37.7-41-55.2,10.8Z"/>
        <path class="st1" d="M526.9,299.9l30.2,17.4,12.2-54.3-42.4,36.9Z"/>
      </g>
    </g>
    <path class="st8" d="M403.7,649.7c0-48.9-39.5-88.4-88.4-88.4s-88.4,39.5-88.4,88.4,39.5,88.4,88.4,88.4,5.2,0,7.7-.3c-.2-2.3-.3-4.7-.3-7s0-5.3.3-7.8c-2.5.3-5.1.4-7.7.4-40.7,0-73.7-33-73.7-73.7s33-73.7,73.7-73.7,73.7,33.1,73.7,73.7-21.3,60.4-50.8,70c-.5,3.6-.8,7.3-.8,11.1s0,3,.1,4.4c38.1-9.8,66.2-44.4,66.2-85.6h0Z"/>
    <path class="st7" d="M786.9,649.7c0,48.9-39.5,88.4-88.4,88.4s-84.1-35.4-88.1-80.6c5.3.5,10.3,1.6,15.2,3.2,5.4,35.5,36,62.7,72.9,62.7s73.7-33,73.7-73.7-32.9-73.7-73.7-73.7-71.1,30.6-73.5,69.1c-4.8-1.2-9.6-2-14.6-2.4,3.5-45.5,41.7-81.4,88.1-81.4,48.9,0,88.4,39.6,88.4,88.4h0Z"/>
    <path class="st5" d="M676.3,735.3c-2.3,38.7-34.4,69.3-73.6,69.3s-73.6-33-73.6-73.7,21.3-60.4,50.7-70.1c.5-3.6.8-7.3.8-11s0-3,0-4.6c-38.1,10-66.2,44.5-66.2,85.7s39.6,88.4,88.4,88.4,84.5-35.9,88.2-81.4c-5.1-.4-9.9-1.2-14.6-2.6h0ZM602.7,657.1c37,0,67.6,27.2,72.9,62.6,4.9,1.6,9.9,2.8,15.2,3.2-4-45.2-41.9-80.6-88.1-80.6s-5.1,0-7.6.3c.2,2.3.2,4.7.2,7s0,5.3-.3,7.8c2.5-.3,5.2-.4,7.7-.4h0Z"/>
    <path class="st10" d="M499.3,737.8c-3.6,45.6-41.7,81.4-88.1,81.4s-88.4-39.6-88.4-88.4,28.1-75.7,66.2-85.7c0,1.5.1,3.1.1,4.6,0,3.8-.3,7.4-.8,11-29.5,9.6-50.8,37.3-50.8,70.1s33,73.7,73.7,73.7,71.2-30.6,73.5-69.2c4.7,1.2,9.6,2,14.6,2.5h0ZM403.4,657.5c.2-2.5.3-5.2.3-7.8s0-4.7-.2-7c2.5-.2,5.1-.3,7.7-.3,46.2,0,84.1,35.4,88.1,80.6-5.3-.5-10.3-1.6-15.2-3.2-5.3-35.5-35.9-62.6-72.9-62.6-2.6,0-5.2,0-7.7.4Z"/>
    <path class="st9" d="M507,723.4c-37,0-67.6-27.2-72.9-62.7-4.9-1.6-9.9-2.7-15.2-3.2,4,45.2,41.9,80.6,88.1,80.6s5.1,0,7.7-.3c-.2-2.3-.3-4.7-.3-7s.2-5.3.4-7.8c-2.5.3-5.1.4-7.7.4h0ZM507,561.3c-46.5,0-84.6,35.9-88.1,81.4,5,.4,9.8,1.2,14.6,2.4,2.4-38.5,34.4-69.1,73.5-69.1s73.6,33.1,73.6,73.7-21.2,60.4-50.7,70c-.6,3.6-.8,7.3-.8,11.1s0,3,0,4.4c38.1-9.8,66.2-44.4,66.2-85.6s-39.6-88.4-88.4-88.4h0Z"/>
  </g>
</svg>