<?xml version="1.0" encoding="UTF-8"?>
<svg id="Layer_1" data-name="Layer 1" xmlns="http://www.w3.org/2000/svg" xmlns:xlink="http://www.w3.org/1999/xlink" version="1.1" viewBox="0 0 1000 1000">
  <defs>
    <style>
      .cls-1 {
        clip-path: url(#clippath);
      }

      .cls-2 {
        fill: none;
      }

      .cls-2, .cls-3, .cls-4, .cls-5, .cls-6, .cls-7 {
        stroke-width: 0px;
      }

      .cls-3 {
        fill: #f7f7f7;
      }

      .cls-8 {
        clip-path: url(#clippath-1);
      }

      .cls-4 {
        fill: #000;
      }

      .cls-5 {
        fill: #d8281b;
      }

      .cls-6 {
        fill: #f9f9f9;
      }

      .cls-7 {
        fill: #fcc32a;
      }
    </style>
    <clipPath id="clippath">
      <circle class="cls-2" cx="500" cy="500" r="500"/>
    </clipPath>
    <clipPath id="clippath-1">
      <rect class="cls-2" x="0" width="1500" height="1000"/>
    </clipPath>
  </defs>
  <g class="cls-1">
    <g>
      <g class="cls-8">
        <path class="cls-3" d="M183.1,608.7c-2.6-29.6-6.7-57.1-9.2-61.1-2.5-4-28.4-12.2-57.5-18.2-29.2-6-53.7-11.5-54.6-12.2-.9-.8,22.4-11.5,51.7-23.9,59.2-25,56-18.6,47.4-96.3l-5.1-46.3,40.5,44.1,40.5,44.1,49.9-22.3c27.5-12.3,50.7-21.5,51.7-20.5,1,1-10.5,23.2-25.7,49.3l-27.5,47.5,38.2,43.5c21,23.9,36.7,43.5,34.8,43.5s-26.6-4.8-54.8-10.6c-36.4-7.5-53.5-8.6-58.5-3.5-3.9,3.9-18.3,27.2-32.1,51.9l-25,44.7-4.7-53.8ZM183.1,608.7"/>
        <path class="cls-7" d="M0,1000c1.9-2.9,175-129.9,349.3-260,174.3-130.2,310.7-238.2,310.7-240s-138.1-109.1-312.4-239.3C173.4,130.6,1.9,2.9,0,0c-1.9-2.9,243.3,121.7,509.4,254.7,266.1,133.1,483.9,243.4,483.9,245.3s-217.7,112.2-483.9,245.3C243.3,878.4-1.9,1003,0,1000H0ZM0,1000"/>
        <path class="cls-5" d="M0,1000c330.2-166,661.3-330.8,993.3-500C999.9,496.6,9.3,10.1,0,0,19.1,0,147.5,0,1003.1,0h996.9v1000h-996.9c-855.6,0-993.3,0-1003,0H0ZM0,1000"/>
        <path class="cls-4" d="M0,0v1000.1l332.1-247.2c182-135.5,327.9-250.1,327.9-252.8s-148.5-116.4-330-252.5L0,0ZM0,0"/>
      </g>
      <path class="cls-6" d="M358.4,581.1l-110.8-18.5-60.4,94.8-16.6-111.1-108.8-28.1,100.6-50.1-6.9-112.1,78.8,80.1,104.5-41.2-51.9,99.7,71.5,86.7ZM358.4,581.1"/>
    </g>
  </g>
</svg>