<?xml version="1.0" encoding="utf-8"?>
<!-- Generator: Adobe Illustrator 28.0.0, SVG Export Plug-In . SVG Version: 6.00 Build 0)  -->
<svg version="1.1" id="Layer_1" xmlns="http://www.w3.org/2000/svg" xmlns:xlink="http://www.w3.org/1999/xlink" x="0px" y="0px"
	 viewBox="0 0 1000 1000" style="enable-background:new 0 0 1000 1000;" xml:space="preserve">
<style type="text/css">
	.st0{fill-rule:evenodd;clip-rule:evenodd;fill:#000001;}
	.st1{fill-rule:evenodd;clip-rule:evenodd;fill:#D71E25;}
	.st2{fill-rule:evenodd;clip-rule:evenodd;fill:#FFCC02;}
	.st3{fill-rule:evenodd;clip-rule:evenodd;fill:#FFFFFF;}
	.st4{fill-rule:evenodd;clip-rule:evenodd;fill:#CAC9CA;}
	.st5{fill-rule:evenodd;clip-rule:evenodd;fill:#EC1C24;}
</style>
<g>
	<path class="st0" d="M327,500L0.5,500c0,58.6,10.1,114.8,28.6,167h941.8c18.5-52.2,28.6-108.4,28.6-167l-352.9,0
		c-1.1,87.3-72.2,157.8-159.8,157.8C399.2,657.8,328.1,587.3,327,500z"/>
	<path class="st0" d="M130,164.4H870C778.6,63.7,646.7,0.5,500,0.5C353.3,0.5,221.4,63.7,130,164.4z"/>
	<path class="st1" d="M871.4,834.1H128.6C220.1,935.6,352.6,999.5,500,999.5C647.4,999.5,779.9,935.6,871.4,834.1z"/>
	<path class="st1" d="M646.6,500l352.9,0c0-59.1-10.3-115.9-29.2-168.6H29.7C10.8,384.1,0.5,440.9,0.5,500l326.5,0c0-0.7,0-1.4,0-2
		c0-88.3,71.6-159.8,159.8-159.8c88.3,0,159.8,71.6,159.8,159.8C646.7,498.6,646.6,499.3,646.6,500z"/>
	<path class="st2" d="M970.9,667H29.1c22.1,62.3,56.2,118.9,99.5,167h742.7C914.7,785.9,948.8,729.3,970.9,667z"/>
	<path class="st2" d="M29.7,331.4h940.7c-22.3-62.4-56.7-119-100.4-167H130C86.4,212.5,52,269.1,29.7,331.4z"/>
	<g>
		<path class="st3" d="M428.9,478.5c-0.1-2.6,0.2-5.5,0.7-8.8c0.5-3.2,1.3-6.8,2.5-10.4c1.2-3.6,2.8-7.2,3.9-9.6
			c1.1-2.4,1.7-3.7,3.2-6.2c1.5-2.5,3.7-6.1,6.2-9.6c2.4-3.5,5-6.9,7-9.1c1.6-1.7,2.8-2.6,4-3.4c-1.7-0.2-3.4-0.4-4.5-0.8
			c-1.1-0.4-1.7-1-2.1-2.2s-0.7-2.8-0.6-4.3c0.1-1.5,0.6-2.7,1.7-4.3c1.1-1.6,2.7-3.5,4.3-5.4c-1.4,0-3.4,0.5-6,0.9
			c-2.6,0.4-5.7,0.7-8,0.7c-2.2,0-3.6-0.2-4.1-0.4c-0.5-0.2-0.2-0.4,1.4-0.7c1.6-0.3,4.4-0.8,7-1.3c2.6-0.5,5-1.1,6.9-1.6
			c1.9-0.5,3.4-1,4.1-1.4c0.7-0.4,0.7-0.8,0.3-1.5c-0.4-0.7-1.3-1.7-2.1-2.9c-0.7-1.1-1.3-2.4-1.6-3.4c-0.3-0.9-0.4-1.5-0.5-2.9
			c0-1.4,0-3.6,0.3-5.6c0.3-2,0.9-3.6,1.6-5.3c0.4-0.9,0.8-1.7,1.3-2.6l-9.5-16.3c-1.4-2.4-1.8-3-1.9-3.2c0.1,0,0.4-0.2,1.1-0.6
			c1.3-0.8,3.8-2.5,7.4-3.8c3.3-1.2,7.4-2.2,11.6-2.7l1.1-0.1c4.5-0.4,9-0.3,13.1,0.5c4.1,0.8,7.9,2.3,12,4.6
			c3.3,1.9,6.7,4.2,9.6,6.7c0.7,0.6,1.4,1.3,2.1,1.9c3.2,3.2,5.4,6.5,6.7,9.7c1.4,3.2,2,6.3,2.3,7.8c0.3,1.5,0.3,1.5-2.5,2.1
			l-13.9,3c0.6,2.7,0.8,6.1,0.6,9.1c-0.3,2.9-1,5.4-2.1,7.8c-1.1,2.4-2.7,4.8-4.5,6.7c-1.8,2-3.9,3.5-5.5,5.1
			c-1.6,1.5-2.7,3-4.1,5.9c-1.4,2.9-3.2,7.1-4.1,11.5c-1,4.4-1.1,8.9-1.2,11.9c-0.1,3,0,4.5,0.3,6.7c0.3,2.2,0.8,5,1.6,7
			c0.8,2,2,3,3.1,4.1c1.9-1.1,4.4-1,7.1-0.2c2.7,0.8,5.7,2.4,9.5,4.5c3.8,2.1,8.4,4.7,14.7,7.4c6.2,2.7,14,5.5,20.3,7.7
			c6.3,2.2,11,3.9,15.2,5.7c4.2,1.8,7.7,3.7,11.3,5.6c3.1,0.9,6.6,2.2,9.9,3.9c3.3,1.7,6.5,3.7,9.3,5.7c2.8,2,5.1,3.9,7.6,7.2
			c2.5,3.2,5,7.7,6.7,11.9c1.7,4.3,2.4,8.3,2.8,12.4c0.4,4.2,0.4,8.5,0,13c-0.4,4.5-1.3,9.3-2.5,13.5c-1.2,4.2-2.8,7.8-4.9,11.1
			c-2.1,3.2-4.8,6.1-8,9.1c-3.2,3-6.9,6.3-9.8,8.7c-2.9,2.4-5.1,3.9-6.6,4.6c-1.5,0.8-2.3,0.8-2.7,0.2c-0.3-0.6-0.1-1.7,0-2.4
			c0.1-0.8,0.1-1.1,0.4-1.7c0.3-0.6,0.9-1.3,2.4-2.6c1.5-1.3,3.7-3.2,5.4-4.9c1.6-1.7,2.6-3.2,2.5-3.7c-0.1-0.4-1.1,0.2-2,0.7
			c-0.8,0.5-1.5,1-2.4,1.9c-1,0.9-2.3,2.3-3.6,3.2s-2.3,1.1-3.1,1c-0.8-0.1-1.2-0.6-1.5-1.2c-0.3-0.6-0.3-1.3-0.1-1.9
			c0.2-0.7,0.6-1.3,1.5-2.2c0.9-0.8,2.2-1.8,2.8-2.3c0.5-0.4,0.3-0.3-0.5,0.1l-3.2,1.5c-1.2,0.6-2.5,1.2-3.6,1.8
			c-1.1,0.6-2.1,1.3-3.1,1.8c-1,0.5-2,0.8-2.7,0.8c-0.6-0.1-0.9-0.6-0.9-1.2c0-0.6,0.4-1.4,1.1-2.1c0.8-0.7,2-1.3,2.2-1.5
			c0.1-0.2-0.8,0.1-1.7,0.3c-0.9,0.1-1.8,0.1-2.5-0.2c-0.7-0.3-1.3-1-0.9-1.9c0.4-0.9,1.8-1.9,3.9-3.7c2.1-1.8,4.8-4.3,6.9-6.9
			c2.1-2.6,3.6-5.2,4.8-8.2c1.2-3,2.2-6.3,2.5-8.6c0.3-2.4,0-3.7-0.7-5.8c-0.6-2.1-1.6-4.9-2.1-6.2c-0.5-1.3-0.5-1.2-0.3,0.2
			c0.2,1.4,0.5,4.2,0.3,7c-0.3,2.8-1.1,5.7-2.6,8.4c-1.5,2.8-3.7,5.5-4.8,6.8c-1.1,1.4-1.1,1.4-1.1,0.7c0-0.7,0.1-2.2,0.1-4.3
			c0-2,0-4.5-0.3-7.1l-0.1-0.8c-1-2.4-2.1-4.7-3.3-7c-1.9,0-3.9,0-6.1,0l-7.1-0.1c-2.2,0-3.8,0-6.3-0.3c-2.4-0.2-5.6-0.7-7.7-0.9
			c-2.1-0.2-3.1-0.2-3.6,1.2c-0.4,1.5-0.3,4.4,0.3,6.9c0.6,2.5,1.7,4.7,2.8,6.7c1.1,2,2.1,3.7,3,4.9c1,1.2,1.9,1.9,2.9,3
			c0.9,1.2,1.8,2.9,2.2,4.6c0.4,1.7,0.3,3.4-0.3,4.8c-0.6,1.4-1.7,2.4-2.8,2.8c-1.1,0.4-2.3,0.3-3.8,0.3c-1.5-0.1-3.3-0.1-8.6-0.2
			l-13.7,0c-0.1,3.9-0.1,7.7-0.1,11.1c0,3.3,0.1,6.1,0.3,9.3c0.2,3.2,0.6,6.8,1.2,11.3c0.6,4.5,1.4,10,1.7,12.8
			c0.3,2.7,0.2,2.7,2.3,2.7c2.1,0,6.3,0,10.1,0.6c3.8,0.6,7.2,1.7,9.7,3c2.5,1.4,4.2,3,5,3.8c0.8,0.8,0.8,0.8-1,0.5
			c-1.8-0.3-5.4-0.9-9.4-1.1c-4-0.1-8.5,0.2-12.4,0.8c-3.9,0.6-7.1,1.3-10.6,2.5c-3.5,1.1-7.2,2.6-10.8,4.5
			c-3.5,1.9-6.8,4.3-9.4,6.3c-2.5,2.1-4.3,3.9-5.3,4.6c-1,0.7-1.2,0.3-1.1-1.1c0.2-1.4,0.7-3.8,1.5-5.9c0.8-2.1,1.8-4,3-5.3
			c1.2-1.3,2.7-2.2,3.7-2.7c1-0.5,1.7-0.8,1.5-1.2c-0.1-0.4-1-1-3.1-1.4c-2-0.4-5.2-0.6-8.7-0.3c-3.4,0.3-7.1,0.9-9,1.3
			c-1.9,0.3-2,0.3-1.3-0.2c0.7-0.5,2.1-1.6,3.3-2.5c1.2-0.9,2.2-1.5,4-2.2c1.8-0.7,4.6-1.3,8.3-1.9c3.7-0.6,8.4-1.1,12-1.2
			c3.6-0.1,6,0.2,7.5,0.3c1.5,0.1,2.2,0.1,2.6,0.1c0.4-0.1,0.6-0.3,0.5-1.8c-0.1-1.6-0.4-4.6-0.8-8.7c-0.4-4.1-0.8-9.1-1-13.4
			c-0.3-4.2-0.4-7.6-0.7-9.9c-0.3-2.3-0.8-3.6-1.2-5.2c-0.4-1.6-0.6-3.6-0.8-5.2c-0.2-1.6-0.4-2.9-0.7-4.1c-8.4-0.1-16.3-0.2-21.4,0
			c-5.1,0.1-7.6,0.5-10,1.5c-2.4,0.9-4.9,2.4-6.7,3.9c-1.8,1.5-3.1,3-3.8,4.8c-0.7,1.8-0.9,4-1,5.5c-0.1,1.5-0.3,2.3-0.6,2.6
			c-0.4,0.3-1,0.2-1.4-0.1c-0.4-0.4-0.6-1-0.8-1.9c-0.3-0.9-0.7-2.2-0.9-3.5c-0.3-1.3-0.4-2.8-0.4-3.9c0-1.1,0-1.9-0.2-2.6
			c-0.3-0.7-0.8-1.3-1.3-1.3c-0.5,0-0.9,0.7-1.2,1.4c-0.3,0.7-0.5,1.3-0.9,2.2c-0.4,0.8-1,1.8-1.2,3.5c-0.3,1.7-0.2,4.2-0.3,6.2
			c-0.1,2.1-0.4,3.7-0.8,4.5c-0.4,0.8-0.8,0.7-1.4-0.5c-0.6-1.1-1.3-3.3-1.7-5.5c-0.4-2.2-0.4-4.3-0.5-5.7c-0.1-1.4-0.1-2.2-0.4-2.2
			c-0.3,0-0.8,0.6-1.2,1.3c-0.4,0.7-0.7,1.3-0.8,2.2c-0.1,0.8-0.1,1.8-0.3,3.6c-0.2,1.8-0.5,4.4-0.8,6c-0.3,1.6-0.6,2.1-1,2.2
			c-0.4,0.1-1-0.3-1.4-2.3c-0.4-2-0.8-5.8-0.9-8.5c-0.1-2.7,0-4.3,0.5-5.9c0.5-1.6,1.3-3.2,2.7-4.8c1.3-1.5,3.2-2.9,4.8-3.9
			c1.7-1,3.1-1.7,4.9-2.3c1.8-0.6,4-1.1,7.6-1.7c3.6-0.6,8.5-1.4,11.8-1.7c3.3-0.2,5,0.1,8.8,0.5c3.8,0.4,9.8,0.8,16.9,1
			c1.6,0,3.2,0.1,4.8,0.1c0-0.7,0-1.5,0-2.1c0.1-0.6,0.2-1.1,0.3-2.5c0.1-1.4,0.3-3.6,0.3-6.4c0-2.8-0.2-6.1-0.3-8.1
			c-0.1-2-0.3-2.8-0.4-4.2c-0.1-1.4-0.3-3.3-0.4-5.2l-0.6-0.4c-3-1.7-5.8-3.4-7.6-5c-1.7-1.6-2.3-3.1-4.1-4.4
			c-1.7-1.3-4.5-2.3-7.1-3.5c-2.6-1.1-5-2.3-7.7-3.8c-2.7-1.5-5.7-3.4-8.8-5.8c-3.1-2.4-6.2-5.1-8.9-7.6c-2.7-2.5-5-4.6-7-7.1
			c-2-2.5-3.7-5.4-5-8.6c-1.3-3.2-2.3-6.6-3-9.4C429.3,483.4,429,481.1,428.9,478.5L428.9,478.5z M646.7,498
			c0-88.3-71.6-159.8-159.8-159.8C398.5,338.1,327,409.7,327,498l0,2c1.1,87.3,72.2,157.8,159.8,157.8
			c87.6,0,158.7-70.5,159.8-157.8L646.7,498L646.7,498z M452.5,400.4c0.5-0.1,1-0.3,1-0.6c0-0.4-0.4-1-0.7-1.4
			c-0.3-0.4-0.5-0.7-1-0.9c-0.4-0.1-1.1-0.1-2-0.1c-0.9,0-1.9,0-3.7,0.3c-1.8,0.3-4.2,0.8-6.6,1.5c-2.4,0.7-4.7,1.5-6.1,2.2
			c-1.4,0.6-2,1.1-2.5,1.7c-0.5,0.6-0.9,1.4-1,2c-0.2,0.6-0.1,1.1,0.2,1.3c0.3,0.3,0.8,0.3,1.3,0.3c0.6-0.1,1.2-0.2,1.7-0.5
			c0.5-0.3,0.9-0.8,1.3-1.2c0.4-0.4,1-0.9,1.4-1.3c0.5-0.4,0.9-0.6,1.7-0.9c0.8-0.3,2-0.5,4.2-0.8c2.2-0.3,5.5-0.7,7.5-1
			C451.4,400.7,452,400.6,452.5,400.4z"/>
		<g>
			<path class="st4" d="M451.8,441.1c-1.7,3.6-2.9,7-3.6,9.6c-0.7,2.6-1,4.3-1.3,6.2c-0.3,2-0.7,4.3-1.2,6.7c-0.4,2.5-1,5.1-1.2,7.5
				c-0.3,2.4-0.3,4.5-0.1,6.7c0.2,2.2,0.6,4.6,1.2,6.3c0.6,1.7,1.4,2.9,2,3.7c0.6,0.9,1.1,1.5,1.6,2c0.5,0.6,0.9,1.1,1.1,0.6
				c0.1-0.4,0-1.8-0.2-2.9c-0.2-1-0.4-1.6-0.5-2.3c-0.1-0.6-0.1-1.3,0.3-1.4c0.4-0.1,1.2,0.5,2,0.9c0.8,0.4,1.6,0.5,2.1,0.5
				c0.5,0,0.8-0.2,0.7-0.7c-0.1-0.6-0.6-1.5-1-2.2c-0.4-0.7-0.6-1.1-0.6-1.6c0-0.4,0.2-0.8,0.6-1.1c0.3-0.3,0.8-0.4,1.5-0.4
				c0.7,0,1.7,0,2.2-0.1c0.6-0.1,0.8-0.5,0.6-1c-0.2-0.5-0.9-1.1-1.4-1.5c-0.5-0.4-0.9-0.7-1.1-1.3c-0.2-0.5-0.1-1.3,0.3-1.5
				c0.4-0.2,1.2,0.1,2.1,0.5c0.9,0.4,2,0.8,2.8,1.1c0.8,0.3,1.3,0.3,1.6,0.1c0.3-0.2,0.4-0.6,0.4-1.1c-0.1-0.4-0.3-0.8-0.7-1.3
				c-0.4-0.5-1-1-1.5-1.5c-0.4-0.4-0.6-0.8-0.7-1.1c-0.1-0.4,0.1-0.8,0.6-0.9c0.5-0.2,1.4-0.1,2.5,0c1.1,0.1,2.3,0.3,3.1,0.2
				c0.8-0.1,1.1-0.4,0.6-1.3c-0.6-0.8-2-2.2-3-3.9s-1.4-3.8-1.7-6.3c-0.3-2.5-0.3-5.5-0.1-9.1c0.3-3.6,0.8-7.9,1.6-11.6
				c0.8-3.8,1.9-7.1,3-9.8c1.1-2.7,2.2-4.8,2.9-6.4c0.6-1.6,0.8-2.6,0.8-3.4c0-0.9-0.3-1.6-0.5-2.1c-0.3-0.5-0.5-0.9-0.8-0.7
				c-0.3,0.1-0.6,0.8-1.1,1.4c-0.5,0.7-1.1,1.4-2.7,3.6c-1.6,2.2-4.1,6-6.5,9.7C455.9,433.9,453.6,437.6,451.8,441.1z"/>
			<path class="st4" d="M475.9,406.5c0.9-0.1,2.2-0.3,3.6-0.7c1.4-0.4,2.9-1.2,4.3-2.4c1.4-1.2,2.8-2.9,3.7-5
				c0.9-2.1,1.2-4.6,0.9-7.1c-0.3-2.5-1.3-4.9-2.3-6.9c-1-2-2.1-3.6-3.1-4.2c-1-0.6-2-0.4-2.5,0.1c-0.5,0.4-0.6,1.1-0.4,2.1
				c0.2,1,0.7,2.5,0.9,4.1c0.2,1.6,0.2,3.2-0.1,5.1c-0.3,1.8-0.8,3.9-1.9,5.2c-1.1,1.4-2.9,2.1-4.3,2.7c-1.5,0.6-2.6,1.1-3.3,1.7
				c-0.7,0.6-0.8,1.3-0.6,2.1c0.2,0.7,0.8,1.5,1.4,2c0.6,0.5,1.3,0.9,1.8,1C474.6,406.6,475,406.6,475.9,406.5z"/>
			<path class="st4" d="M486.3,462.1c-2.7-0.8-5.2-0.9-7.1,0.2c-1.9,1.1-3.2,3.3-4,5.9c-0.8,2.6-1,5.6-0.5,9
				c0.5,3.4,1.7,7.2,3.2,10.5c1.5,3.3,3.2,6.2,4.8,8.5c1.6,2.3,3,4.1,5.6,6.2c2.6,2,6.3,4.3,9.5,6c3.2,1.7,6,2.8,8.8,3.9
				c2.7,1.1,5.3,2.2,8.1,3.4c2.7,1.1,5.6,2.2,8.8,3.9c3.2,1.7,6.6,4,9.8,6.3c3.2,2.3,6.1,4.7,8.5,7.1c2.4,2.4,4.4,5,6,7.6
				c0.3,0.4,0.5,0.9,0.8,1.3c1.2,2.3,2.3,4.6,3.3,7c-0.4-2.4-1-4.7-1.7-7c-0.8-2.5-1.8-4.9-3.3-7.4c-1.5-2.6-3.4-5.4-5.4-7.6
				c-2-2.2-3.9-3.8-5.6-5c-1.7-1.2-3.2-2-4.1-2.5c-1-0.5-1.4-0.6-2-1c-0.6-0.3-1.4-0.8-2.3-1.2c-0.9-0.4-2-0.9-3-1.4
				c-1-0.5-2-1.1-2.9-1.7c-1-0.5-1.9-0.9-2.5-1.5c-0.6-0.6-0.8-1.5-0.4-1.9c-1.4-1.4-2.9-2.8-4.2-4.3c-1.3-1.5-2.6-3.1-5.2-4.8
				c-2.6-1.7-6.6-3.6-10-5.6c-3.5-1.9-6.4-3.9-8.3-5.7c-1.8-1.8-2.5-3.3-2.5-5.1c-0.1-1.7,0.5-3.6,1.5-4.9c1-1.3,2.5-2,5.2-2
				c2.7,0,6.7,0.6,10.5,1.8c3.8,1.2,7.4,3.1,11.3,4.7c4,1.7,8.3,3.1,12,4.4c3.7,1.3,6.6,2.4,8.8,2.9c2.2,0.5,3.6,0.5,5.1,0.4
				c-1.4-0.9-2.5-1.7-3.3-2.2c-1.4-1-1-1.1,0.8-0.9c1.8,0.2,5,0.7,8,1.3c3,0.5,5.8,1.1,8.9,2c-3.6-1.9-7.2-3.8-11.3-5.6
				c-4.2-1.8-8.9-3.5-15.2-5.7c-6.3-2.2-14-5-20.3-7.7c-6.2-2.7-10.9-5.3-14.7-7.4C492,464.5,489,462.9,486.3,462.1z"/>
			<path class="st4" d="M493.7,518.9c-2.3-2-4.9-4-6.5-5.5c-1.7-1.5-2.4-2.6-2.8-3.4c-0.4-0.8-0.5-1.5-0.8-1.8
				c-0.3-0.3-0.8-0.3-1.2-0.2c-0.4,0.1-0.8,0.3-1,0.5c-0.2,0.3-0.3,0.6-0.4,1c-0.1,0.4-0.1,0.9,0,1.7c0,0.8,0.1,1.8,0.1,3.5
				c0.1,1.7,0.1,4.2,0.3,6c0.1,1.8,0.4,3,0.9,4.1c0.5,1.1,1.3,2.1,1.8,2.2c0.5,0.1,0.8-0.8,1.8-1.5c1-0.7,2.7-1.2,4.6-1.3
				c1.9-0.1,4,0.1,5.6,0.5c1.6,0.4,2.6,1,3.3,1.3c0.7,0.3,1.2,0.2,1.3,0c0.1-0.2-0.1-0.6-1.3-1.8C498.1,522.8,496,520.9,493.7,518.9
				z"/>
			<path class="st4" d="M463.2,396c0.6,0,1.6,0,2.2-0.1c0.6-0.1,1-0.2,1.2-0.3c0.2-0.1,0.3-0.2,0.5-0.3c0.1-0.1,0.3-0.2,0.4-1
				c0.1-0.8,0-2.2-0.1-3c-0.1-0.8-0.2-1-0.5-1.2s-0.7-0.3-1.1-0.3c-0.4,0-0.7,0-1.3,0.1c-0.5,0-1.3,0-1.8,0.1c-0.5,0-0.8,0.1-1,0.2
				c-0.2,0.1-0.3,0.3-0.4,0.6c-0.1,0.3-0.3,0.8-0.4,1.5c-0.1,0.7-0.1,1.7,0,2.3c0.1,0.7,0.2,1.1,0.3,1.3c0.2,0.2,0.4,0.2,0.7,0.2
				H463.2z"/>
			<path class="st5" d="M463.1,409.9c-1.1-1.3-3.2-2.9-4.6-3.9c-1.4-1-2-1.5-3.4-1.4c-1.6,1.9-3.2,3.8-4.3,5.4
				c-1.1,1.6-1.6,2.8-1.7,4.3c-0.1,1.5,0.2,3.1,0.6,4.3c0.4,1.1,1,1.8,2.1,2.2c1.1,0.4,2.8,0.6,4.5,0.8c0.3-0.2,0.6-0.4,1-0.6
				c1.6-1,3.4-2.2,4.6-3.5c1.3-1.3,2-2.8,2.2-4C464.5,412.2,464.3,411.1,463.1,409.9z"/>
			<path class="st5" d="M492.5,380c1.2,1.7,2.1,3.7,2.7,6.5l13.9-3c2.8-0.6,2.8-0.6,2.5-2.1c-0.3-1.5-0.9-4.6-2.3-7.8
				c-1.4-3.2-3.5-6.5-6.7-9.7c-0.7-0.7-1.4-1.3-2.1-1.9l-10,15.6C491.2,378.3,491.9,379.1,492.5,380z"/>
			<path class="st5" d="M465.7,370.6l-1.1-20.4c-4.2,0.5-8.3,1.4-11.6,2.7c-3.6,1.3-6.2,3-7.4,3.8c-0.7,0.4-1,0.6-1.1,0.6
				c0.1,0.1,0.5,0.8,1.9,3.2l9.5,16.3c0.5-0.8,1.1-1.6,1.8-2.3c1.4-1.4,3.3-2.5,6-3.4C464.2,371,464.9,370.8,465.7,370.6z"/>
			<path class="st5" d="M557.2,493.1c-3.1-0.9-5.9-1.5-8.9-2c-3-0.5-6.2-1-8-1.3c-1.8-0.2-2.3-0.2-0.8,0.9c0.7,0.5,1.9,1.3,3.3,2.2
				c1.4,1,3,2.1,4.4,3.4c3,2.5,5.6,5.5,7,7.3c1.4,1.8,1.6,2.3,0.1,1.8c-1.5-0.5-4.7-2-7.9-3.4c-3.2-1.4-6.5-2.6-8.5-3.4
				c-2.1-0.8-3-1.2-3.6-1.4c-0.7-0.2-1.1-0.3-1.3-0.3c-0.2,0-0.2,0,0.7,0.9c1,0.9,2.9,2.7,4.1,4.1c1.3,1.4,1.9,2.3,2.4,3.2
				c0.5,0.9,0.9,1.8,1.1,2.3c0.2,0.4,0.2,0.4-1.2,0c-1.4-0.4-4.3-1.3-6.9-2.1c-2.7-0.7-5.1-1.3-6.8-1.6c-1.7-0.3-2.5-0.3-3.4-0.1
				c-0.9,0.1-1.8,0.4-1.8,0.6c-0.1,0.2,0.7,0.4,1.5,0.8c0.8,0.4,1.7,1,2.4,1.7c0.8,0.7,1.4,1.5,2.2,2.1c0.7,0.6,1.5,1.1,1.5,1.4
				c-0.1,0.3-1,0.3-2.4,0.3c-1.4,0-3.4-0.1-4.8-0.1c-1.5,0-2.4,0.1-2.8,0.5c-0.4,0.4-0.1,1.3,0.4,1.9c0.6,0.6,1.5,1,2.5,1.5
				c1,0.5,1.9,1.1,2.9,1.7c1,0.5,2.1,1,3,1.4c0.9,0.4,1.7,0.9,2.3,1.2c0.6,0.3,1.1,0.5,2,1c1,0.5,2.4,1.3,4.1,2.5
				c1.7,1.2,3.7,2.8,5.6,5c2,2.2,3.9,5,5.4,7.6c1.5,2.6,2.5,4.9,3.3,7.4c0.8,2.3,1.4,4.7,1.7,7c0,0.3,0.1,0.5,0.1,0.8
				c0.3,2.6,0.3,5.1,0.3,7.1c0,2-0.1,3.5-0.1,4.3c0,0.7,0,0.7,1.1-0.7c1.1-1.4,3.3-4.1,4.8-6.8c1.5-2.8,2.3-5.6,2.6-8.4
				c0.3-2.8-0.1-5.5-0.3-7c-0.2-1.4-0.2-1.5,0.3-0.2c0.5,1.3,1.4,4.1,2.1,6.2c0.6,2.1,1,3.5,0.7,5.8c-0.3,2.3-1.3,5.7-2.5,8.6
				c-1.2,3-2.7,5.6-4.8,8.2c-2.1,2.6-4.8,5.1-6.9,6.9c-2.1,1.8-3.5,2.9-3.9,3.7c-0.4,0.9,0.1,1.5,0.9,1.9c0.7,0.3,1.6,0.3,2.5,0.2
				c0.9-0.1,1.9-0.4,1.7-0.3c-0.1,0.2-1.4,0.8-2.2,1.5c-0.8,0.7-1.1,1.5-1.1,2.1c0,0.6,0.3,1.1,0.9,1.2c0.6,0.1,1.7-0.3,2.7-0.8
				c1-0.5,2-1.2,3.1-1.8c1.1-0.6,2.4-1.3,3.6-1.8c1.2-0.6,2.5-1.1,3.2-1.5c0.8-0.4,1-0.5,0.5-0.1c-0.5,0.4-1.9,1.4-2.8,2.3
				c-0.9,0.8-1.3,1.5-1.5,2.2c-0.2,0.7-0.1,1.3,0.1,1.9c0.3,0.6,0.7,1.1,1.5,1.2c0.8,0.1,1.9-0.2,3.1-1c1.2-0.8,2.6-2.2,3.6-3.2
				c1-0.9,1.6-1.4,2.4-1.9c0.8-0.5,1.9-1.1,2-0.7c0.1,0.4-0.9,2-2.5,3.7c-1.6,1.7-3.9,3.6-5.4,4.9c-1.5,1.3-2.1,2-2.4,2.6
				c-0.3,0.6-0.3,1-0.4,1.7c-0.1,0.8-0.3,1.9,0,2.4c0.3,0.6,1.1,0.6,2.7-0.2c1.5-0.8,3.7-2.3,6.6-4.6c2.9-2.4,6.6-5.6,9.8-8.7
				c3.2-3,5.9-5.9,8-9.1c2.1-3.2,3.7-6.9,4.9-11.1c1.2-4.2,2.1-9,2.5-13.5c0.4-4.5,0.4-8.8,0-13c-0.4-4.2-1.1-8.2-2.8-12.4
				c-1.7-4.3-4.2-8.7-6.7-11.9c-2.5-3.2-4.8-5.2-7.6-7.2c-2.8-2-6-4-9.3-5.7C563.8,495.3,560.3,494,557.2,493.1z"/>
			<path class="st0" d="M441.9,402c2.2-0.3,5.5-0.7,7.5-1c2-0.3,2.6-0.4,3.1-0.6s1-0.3,1-0.6c0-0.4-0.4-1-0.7-1.4
				c-0.3-0.4-0.5-0.7-1-0.9c-0.4-0.1-1.1-0.1-2-0.1c-0.9,0-1.9,0-3.7,0.3c-1.8,0.3-4.2,0.8-6.6,1.5c-2.4,0.7-4.7,1.5-6.1,2.2
				s-2,1.1-2.5,1.7c-0.5,0.6-0.9,1.4-1,2c-0.2,0.6-0.1,1.1,0.2,1.3c0.3,0.3,0.8,0.3,1.3,0.3c0.6-0.1,1.2-0.2,1.7-0.5
				c0.5-0.3,0.9-0.8,1.3-1.2c0.4-0.4,1-0.9,1.4-1.3c0.5-0.4,0.9-0.6,1.7-0.9C438.5,402.5,439.7,402.3,441.9,402z"/>
			<path class="st2" d="M472.6,369.9c3,0.1,5.7,0.7,8.3,1.7c2.6,1,5.1,2.4,7.1,3.8c0.9,0.7,1.8,1.4,2.5,2.1l10-15.6
				c-2.9-2.5-6.3-4.9-9.6-6.7c-4.1-2.3-7.9-3.8-12-4.6c-4.1-0.8-8.6-0.9-13.1-0.5c-0.4,0-0.7,0.1-1.1,0.1l1.1,20.4
				C467.9,370.1,470.3,369.9,472.6,369.9z"/>
			<path class="st3" d="M528.8,489.5c-3.7-1.3-8-2.7-12-4.4c-4-1.7-7.6-3.5-11.3-4.7c-3.8-1.2-7.7-1.8-10.5-1.8
				c-2.7,0-4.2,0.7-5.2,2c-1,1.3-1.6,3.2-1.5,4.9c0.1,1.7,0.7,3.3,2.5,5.1c1.8,1.8,4.8,3.7,8.3,5.7c3.5,1.9,7.4,3.8,10,5.6
				c2.6,1.7,3.8,3.3,5.2,4.8c1.3,1.5,2.8,2.9,4.2,4.3c0.4-0.4,1.3-0.5,2.8-0.5c1.5,0,3.4,0.1,4.8,0.1c1.4,0,2.3-0.1,2.4-0.3
				c0.1-0.3-0.7-0.8-1.5-1.4c-0.7-0.6-1.4-1.4-2.2-2.1c-0.8-0.7-1.6-1.3-2.4-1.7c-0.8-0.4-1.6-0.6-1.5-0.8c0.1-0.2,1-0.5,1.8-0.6
				c0.9-0.1,1.7-0.1,3.4,0.1c1.7,0.3,4.1,0.8,6.8,1.6c2.7,0.7,5.5,1.6,6.9,2.1c1.4,0.4,1.4,0.4,1.2,0c-0.2-0.4-0.6-1.3-1.1-2.3
				c-0.5-0.9-1.1-1.9-2.4-3.2c-1.3-1.4-3.2-3.2-4.1-4.1c-1-0.9-1-0.9-0.7-0.9c0.2,0,0.7,0.1,1.3,0.3c0.7,0.2,1.6,0.6,3.6,1.4
				c2.1,0.8,5.3,2,8.5,3.4c3.2,1.4,6.4,2.9,7.9,3.4c1.5,0.5,1.3,0-0.1-1.8c-1.4-1.8-4-4.8-7-7.3c-1.5-1.3-3.1-2.4-4.4-3.4
				c-1.4,0.1-2.9,0.1-5.1-0.4C535.4,491.9,532.5,490.8,528.8,489.5z"/>
			<path class="st0" d="M481.6,536.4c1.7,1.6,4.6,3.3,7.6,5l0.6,0.4c0.1,1.9,0.3,3.9,0.4,5.2c0.1,1.4,0.2,2.1,0.4,4.2
				c0.1,2,0.3,5.3,0.3,8.1c0,2.8-0.2,5-0.3,6.4c-0.1,1.4-0.3,1.9-0.3,2.5c-0.1,0.6,0,1.4,0,2.1c-1.6,0-3.2-0.1-4.8-0.1
				c-7.1-0.2-13.1-0.6-16.9-1c-3.8-0.4-5.5-0.7-8.8-0.5c-3.3,0.2-8.2,1-11.8,1.7c-3.6,0.6-5.7,1.1-7.6,1.7c-1.8,0.6-3.3,1.3-4.9,2.3
				c-1.7,1-3.5,2.4-4.8,3.9c-1.3,1.5-2.2,3.1-2.7,4.8c-0.5,1.6-0.6,3.2-0.5,5.9c0.1,2.7,0.4,6.4,0.9,8.5c0.4,2,1,2.4,1.4,2.3
				c0.4-0.1,0.7-0.6,1-2.2c0.3-1.6,0.6-4.2,0.8-6c0.2-1.8,0.2-2.7,0.3-3.6c0.1-0.8,0.4-1.5,0.8-2.2c0.4-0.7,0.9-1.3,1.2-1.3
				c0.3,0,0.3,0.8,0.4,2.2c0.1,1.4,0.1,3.6,0.5,5.7c0.4,2.2,1.1,4.3,1.7,5.5c0.6,1.1,1,1.3,1.4,0.5c0.4-0.8,0.6-2.5,0.8-4.5
				c0.1-2.1,0.1-4.5,0.3-6.2c0.3-1.7,0.8-2.7,1.2-3.5c0.4-0.8,0.6-1.5,0.9-2.2c0.3-0.7,0.7-1.3,1.2-1.4c0.5,0,1,0.6,1.3,1.3
				c0.3,0.7,0.2,1.5,0.2,2.6c0,1.1,0.1,2.6,0.4,3.9c0.3,1.3,0.6,2.6,0.9,3.5c0.3,0.9,0.4,1.5,0.8,1.9c0.4,0.4,1,0.5,1.4,0.1
				c0.4-0.3,0.5-1.1,0.6-2.6c0.1-1.5,0.3-3.7,1-5.5c0.7-1.8,1.9-3.4,3.8-4.8c1.8-1.5,4.3-2.9,6.7-3.9c2.4-0.9,4.8-1.3,10-1.5
				c5.1-0.1,13,0,21.4,0c0.2,1.2,0.4,2.5,0.7,4.1c0.2,1.6,0.4,3.6,0.8,5.2c0.4,1.6,0.9,2.9,1.2,5.2c0.3,2.3,0.4,5.7,0.7,9.9
				c0.3,4.2,0.6,9.3,1,13.4c0.4,4.1,0.7,7.1,0.8,8.7c0.1,1.6-0.1,1.8-0.5,1.8c-0.4,0.1-1.1,0.1-2.6-0.1c-1.5-0.1-3.9-0.4-7.5-0.3
				c-3.6,0.1-8.3,0.6-12,1.2c-3.7,0.6-6.5,1.3-8.3,1.9c-1.8,0.7-2.8,1.3-4,2.2c-1.2,0.9-2.7,1.9-3.3,2.5c-0.7,0.5-0.6,0.5,1.3,0.2
				c1.9-0.3,5.6-1,9-1.3c3.4-0.3,6.6-0.1,8.7,0.3c2,0.4,2.9,1,3.1,1.4c0.1,0.4-0.5,0.6-1.5,1.2c-1,0.5-2.5,1.4-3.7,2.7
				c-1.2,1.3-2.2,3.2-3,5.3c-0.8,2.1-1.3,4.5-1.5,5.9c-0.2,1.4,0.1,1.8,1.1,1.1c1-0.7,2.8-2.5,5.3-4.6c2.5-2.1,5.8-4.4,9.4-6.3
				c3.5-1.9,7.3-3.4,10.8-4.5c3.5-1.1,6.7-1.9,10.6-2.5c3.9-0.6,8.3-0.9,12.4-0.8c4,0.1,7.6,0.8,9.4,1.1c1.8,0.3,1.8,0.3,1-0.5
				c-0.8-0.8-2.5-2.4-5-3.8c-2.5-1.4-5.9-2.5-9.7-3c-3.8-0.6-8.1-0.6-10.1-0.6c-2.1,0-2,0-2.3-2.7c-0.3-2.7-1.1-8.2-1.7-12.8
				c-0.6-4.5-1-8.1-1.2-11.3c-0.2-3.2-0.3-6-0.3-9.3c0-3.3,0.1-7.2,0.1-11.1l13.7,0c5.3,0,7.1,0.1,8.6,0.2c1.5,0.1,2.7,0.2,3.8-0.3
				c1.1-0.4,2.2-1.5,2.8-2.8c0.6-1.4,0.7-3.1,0.3-4.8c-0.4-1.7-1.3-3.4-2.2-4.6c-0.9-1.2-1.9-1.8-2.9-3c-1-1.2-2-2.9-3-4.9
				c-1.1-2-2.2-4.1-2.8-6.7c-0.6-2.5-0.7-5.5-0.3-6.9c0.4-1.5,1.5-1.5,3.6-1.2c2.1,0.2,5.3,0.7,7.7,0.9c2.4,0.2,4.1,0.2,6.3,0.3
				l7.1,0.1c2.3,0,4.2,0,6.1,0c-0.2-0.5-0.5-0.9-0.8-1.3c-1.6-2.7-3.6-5.2-6-7.6c-2.4-2.4-5.3-4.8-8.5-7.1c-3.2-2.3-6.7-4.6-9.8-6.3
				c-3.2-1.7-6-2.8-8.8-3.9c-2.7-1.1-5.4-2.2-8.1-3.4c-2.7-1.1-5.5-2.2-8.8-3.9c-3.2-1.7-6.9-4-9.5-6c-2.6-2-4-3.8-5.6-6.2
				c-1.6-2.3-3.3-5.2-4.8-8.5c-1.5-3.3-2.7-7.1-3.2-10.5c-0.5-3.4-0.3-6.3,0.5-9c0.8-2.6,2.1-4.8,4-5.9c-1.1-1.1-2.3-2.1-3.1-4.1
				c-0.8-2-1.3-4.8-1.6-7c-0.3-2.2-0.3-3.7-0.3-6.7c0.1-3,0.2-7.6,1.2-11.9c1-4.4,2.7-8.6,4.1-11.5c1.4-2.9,2.5-4.4,4.1-5.9
				c1.6-1.5,3.7-3.1,5.5-5.1c1.8-2,3.4-4.3,4.5-6.7c1.1-2.4,1.9-4.9,2.1-7.8c0.3-2.9,0-6.3-0.6-9.1c-0.6-2.7-1.5-4.7-2.7-6.5
				c-0.6-0.9-1.3-1.7-2.1-2.5c-0.7-0.7-1.5-1.4-2.5-2.1c-2-1.4-4.5-2.8-7.1-3.8c-2.6-1-5.3-1.6-8.3-1.7c-2.3,0-4.7,0.2-6.9,0.7
				c-0.7,0.2-1.4,0.3-2.1,0.5c-2.6,0.8-4.5,1.9-6,3.4c-0.7,0.7-1.3,1.5-1.8,2.3c-0.5,0.8-1,1.7-1.3,2.6c-0.8,1.7-1.3,3.4-1.6,5.3
				c-0.3,2-0.4,4.2-0.3,5.6c0,1.4,0.1,2,0.5,2.9c0.3,0.9,0.9,2.2,1.6,3.4c0.7,1.1,1.6,2.2,2.1,2.9c0.4,0.7,0.4,1.1-0.3,1.5
				c-0.7,0.4-2.2,0.9-4.1,1.4c-1.9,0.5-4.3,1.1-6.9,1.6c-2.6,0.5-5.5,1-7,1.3c-1.6,0.3-1.9,0.5-1.4,0.7c0.5,0.2,1.8,0.4,4.1,0.4
				c2.2,0,5.4-0.3,8-0.7c2.6-0.4,4.7-0.9,6-0.9c1.4,0,2,0.4,3.4,1.4c1.4,1,3.4,2.6,4.6,3.9c1.1,1.3,1.4,2.3,1.1,3.5
				c-0.3,1.2-1,2.7-2.2,4c-1.3,1.3-3,2.5-4.6,3.5l-1,0.6c-1.2,0.8-2.4,1.7-4,3.4c-2,2.1-4.6,5.5-7,9.1c-2.4,3.5-4.7,7.2-6.2,9.6
				c-1.5,2.5-2.1,3.7-3.2,6.2c-1.1,2.4-2.7,6-3.9,9.6c-1.2,3.6-2,7.2-2.5,10.4c-0.5,3.2-0.7,6.2-0.7,8.8c0.1,2.6,0.4,4.9,1.1,7.7
				c0.7,2.9,1.7,6.3,3,9.4c1.3,3.2,3,6.1,5,8.6c2,2.5,4.3,4.6,7,7.1c2.7,2.5,5.8,5.3,8.9,7.6c3.1,2.3,6.1,4.3,8.8,5.8
				c2.7,1.5,5.1,2.7,7.7,3.8c2.6,1.1,5.4,2.2,7.1,3.5C479.3,533.3,479.9,534.8,481.6,536.4L481.6,536.4z M499.7,563.5
				c-0.2-2.7-0.6-6.1-0.7-8.5c-0.2-2.4-0.2-3.7-0.1-4.8c0.1-1,0.3-1.8,0.5-2.5c1.4,1.1,2.5,2.1,3.7,3.4c1.7,1.8,3.6,4,5.2,6.1
				c1.6,2.1,2.8,4.2,3.6,6c0.8,1.8,1.1,3.2,1,4.3c-0.1,1.1-0.8,1.9-1.5,2.3c-0.8,0.4-1.7,0.4-6.2,0.4l-5.1,0
				C500,568.3,499.9,566.3,499.7,563.5L499.7,563.5z M481,514.6c-0.1-1.7-0.1-2.7-0.1-3.5c0-0.8,0-1.3,0-1.7c0.1-0.4,0.2-0.8,0.4-1
				c0.2-0.3,0.6-0.4,1-0.5c0.4-0.1,0.9-0.1,1.2,0.2c0.3,0.3,0.4,0.9,0.8,1.8c0.4,0.8,1.1,1.9,2.8,3.4c1.7,1.5,4.2,3.6,6.5,5.5
				c2.3,2,4.4,3.9,5.5,5.1c1.1,1.2,1.4,1.6,1.3,1.8c-0.1,0.2-0.6,0.3-1.3,0c-0.7-0.3-1.7-0.9-3.3-1.3c-1.6-0.4-3.7-0.6-5.6-0.5
				c-1.9,0.1-3.6,0.6-4.6,1.3c-1,0.7-1.3,1.6-1.8,1.5c-0.5-0.1-1.3-1.1-1.8-2.2c-0.5-1.1-0.7-2.3-0.9-4.1
				C481.1,518.8,481,516.3,481,514.6L481,514.6z M460.6,475.7c-0.8-0.3-1.8-0.7-2.8-1.1c-0.9-0.4-1.7-0.7-2.1-0.5
				c-0.4,0.2-0.5,1-0.3,1.5c0.2,0.5,0.6,0.8,1.1,1.3c0.5,0.4,1.2,1.1,1.4,1.5c0.2,0.5,0,0.8-0.6,1c-0.6,0.1-1.5,0.1-2.2,0.1
				c-0.7,0-1.1,0.1-1.5,0.4c-0.3,0.3-0.6,0.6-0.6,1.1c0,0.4,0.2,0.9,0.6,1.6c0.4,0.7,0.9,1.7,1,2.2c0.1,0.6-0.2,0.7-0.7,0.7
				c-0.5,0-1.3-0.2-2.1-0.5c-0.8-0.4-1.6-0.9-2-0.9c-0.4,0.1-0.4,0.7-0.3,1.4c0.1,0.6,0.3,1.3,0.5,2.3c0.2,1,0.4,2.4,0.2,2.9
				c-0.1,0.4-0.6-0.1-1.1-0.6c-0.5-0.6-1-1.2-1.6-2c-0.6-0.9-1.4-2-2-3.7c-0.6-1.7-1-4.1-1.2-6.3c-0.2-2.2-0.2-4.4,0.1-6.7
				c0.3-2.4,0.8-5,1.2-7.5c0.4-2.5,0.8-4.8,1.2-6.7c0.3-2,0.6-3.7,1.3-6.2c0.7-2.6,1.9-6,3.6-9.6c1.7-3.6,4-7.2,6.4-10.9
				c2.4-3.7,4.9-7.4,6.5-9.7c1.6-2.2,2.2-3,2.7-3.6c0.5-0.7,0.8-1.3,1.1-1.4c0.3-0.1,0.6,0.2,0.8,0.7c0.3,0.5,0.5,1.3,0.5,2.1
				c0,0.9-0.1,1.9-0.8,3.4c-0.6,1.6-1.8,3.7-2.9,6.4c-1.1,2.7-2.2,6-3,9.8c-0.8,3.8-1.4,8-1.6,11.6c-0.3,3.6-0.2,6.6,0.1,9.1
				c0.3,2.5,0.7,4.6,1.7,6.3c1,1.7,2.4,3,3,3.9c0.6,0.8,0.2,1.2-0.6,1.3c-0.8,0.1-2-0.1-3.1-0.2c-1.1-0.1-2-0.2-2.5,0
				c-0.5,0.2-0.6,0.6-0.6,0.9c0.1,0.4,0.3,0.7,0.7,1.1c0.4,0.4,1,1,1.5,1.5c0.4,0.5,0.6,0.9,0.7,1.3c0.1,0.4-0.1,0.9-0.4,1.1
				C461.9,476,461.4,476,460.6,475.7L460.6,475.7z M479.5,405.8c-1.4,0.4-2.7,0.6-3.6,0.7c-0.9,0.1-1.3,0.1-1.9-0.1
				c-0.6-0.2-1.2-0.5-1.8-1c-0.6-0.5-1.2-1.3-1.4-2c-0.2-0.7,0-1.5,0.6-2.1c0.7-0.6,1.8-1.1,3.3-1.7c1.5-0.6,3.2-1.3,4.3-2.7
				c1.1-1.4,1.6-3.4,1.9-5.2c0.3-1.8,0.3-3.5,0.1-5.1c-0.2-1.6-0.7-3-0.9-4.1c-0.2-1-0.1-1.7,0.4-2.1c0.5-0.4,1.5-0.7,2.5-0.1
				c1,0.6,2.1,2.2,3.1,4.2c1,2,2,4.4,2.3,6.9c0.3,2.5,0,5-0.9,7.1c-0.9,2.1-2.3,3.8-3.7,5C482.4,404.7,480.9,405.4,479.5,405.8
				L479.5,405.8z M465.4,396c-0.6,0.1-1.6,0.1-2.2,0.1h-1.3c-0.3,0-0.5,0-0.7-0.2c-0.2-0.2-0.3-0.6-0.3-1.3c-0.1-0.7-0.1-1.6,0-2.3
				c0.1-0.7,0.3-1.1,0.4-1.5c0.1-0.3,0.3-0.5,0.4-0.6c0.2-0.1,0.5-0.2,1-0.2c0.5,0,1.2,0,1.8-0.1c0.5,0,0.9-0.1,1.3-0.1
				c0.4,0,0.8,0.1,1.1,0.3c0.3,0.2,0.4,0.4,0.5,1.2c0.1,0.8,0.1,2.2,0.1,3c-0.1,0.8-0.2,0.9-0.4,1c-0.1,0.1-0.3,0.2-0.5,0.3
				C466.4,395.8,466.1,395.9,465.4,396z"/>
		</g>
	</g>
</g>
</svg>
