<?xml version="1.0" encoding="utf-8"?>
<!-- Generator: Adobe Illustrator 28.0.0, SVG Export Plug-In . SVG Version: 6.00 Build 0)  -->
<svg version="1.1" id="Layer_1" xmlns="http://www.w3.org/2000/svg" xmlns:xlink="http://www.w3.org/1999/xlink" x="0px" y="0px"
	 viewBox="0 0 1000 1000" style="enable-background:new 0 0 1000 1000;" xml:space="preserve">
<style type="text/css">
	.st0{clip-path:url(#SVGID_00000085242731411741977900000004627260719166427815_);}
	.st1{clip-path:url(#SVGID_00000085242731411741977900000004627260719166427815_);fill:#4BB033;}
	.st2{clip-path:url(#SVGID_00000085242731411741977900000004627260719166427815_);fill:#D9251B;}
	.st3{clip-path:url(#SVGID_00000085242731411741977900000004627260719166427815_);fill:#FDC91D;}
	.st4{clip-path:url(#SVGID_00000085242731411741977900000004627260719166427815_);fill:#FEC91E;}
	.st5{clip-path:url(#SVGID_00000085242731411741977900000004627260719166427815_);fill:#EAEAEA;}
</style>
<g>
	<defs>
		<path id="SVGID_1_" d="M999.5,500C999.5,224.1,775.9,0.5,500,0.5S0.5,224.1,0.5,500c0,275.9,223.6,499.5,499.5,499.5
			S999.5,775.9,999.5,500L999.5,500z"/>
	</defs>
	<clipPath id="SVGID_00000010280315868898935320000007239033858348060288_">
		<use xlink:href="#SVGID_1_"  style="overflow:visible;"/>
	</clipPath>
	<g style="clip-path:url(#SVGID_00000010280315868898935320000007239033858348060288_);">
		<path d="M1003.7,479.6l-4.6,0c0,0,0,0,0,0c-0.5-12.9-1.6-25.7-3-38.3l6.3,0c1.4,0,2.6-1.1,2.6-2.6c0-1.4-1.1-2.6-2.6-2.6
			l-289.6,0.3L178.2,109.9c-1.2-0.7-2.8-0.4-3.5,0.9c-0.7,1.2-0.4,2.8,0.9,3.5l4.4,2.7c-11.4,9.6-22.4,19.6-33,30.2c0,0,0,0,0,0
			l-6.7-4c-1.2-0.7-2.8-0.3-3.5,0.9c-0.7,1.2-0.3,2.8,0.9,3.5L702.7,484c0.4,0.2,0.8,0.4,1.3,0.4l299.7,0.3c1.4,0,2.6-1.1,2.6-2.6
			C1006.3,480.7,1005.2,479.6,1003.7,479.6z"/>
		<path d="M649.6,507.6c0-0.9-0.5-1.7-1.2-2.2l-538-320.7c-1.2-0.7-2.8-0.3-3.5,0.9c-0.7,1.2-0.3,2.8,0.9,3.5l1.1,0.6
			C40.9,275,0.4,383,0.4,500.4c0,122.4,44,234.5,117,321.3l-3.6,2.1c-1.2,0.7-1.6,2.3-0.9,3.5c0.7,1.2,2.3,1.6,3.5,0.9l531.8-318.5
			C649.1,509.4,649.6,508.5,649.6,507.6z"/>
		<path d="M1002,533.1l-299.1,0.3c-0.5,0-0.9,0.1-1.3,0.4L148.6,863c-1.2,0.7-1.6,2.3-0.9,3.5c0.7,1.2,2.3,1.6,3.5,0.9l6-3.6
			c0,0,0,0,0,0h0c9,8.5,18.4,16.7,28.1,24.6l-2.6,1.6c-1.2,0.7-1.6,2.3-0.9,3.5c0.7,1.2,2.3,1.6,3.5,0.9l528.2-314.9l285.1,0.5
			c1.4,0,2.6-1.1,2.6-2.6c0-1.4-1.1-2.6-2.6-2.6l-4.5,0c1.8-12.1,3.2-24.3,4.1-36.7c0,0,0,0,0,0l3.8,0c1.4,0,2.6-1.2,2.6-2.6
			C1004.5,534.2,1003.4,533.1,1002,533.1z"/>
	</g>
	<path style="clip-path:url(#SVGID_00000010280315868898935320000007239033858348060288_);fill:#4BB033;" d="M713.5,579.4
		C713.4,579.4,713.4,579.5,713.5,579.4L189.6,891.7c0,0-0.1,0.1,0,0.1c0,0,0,0,0.1,0.1h0C274.9,959.6,382.7,1000,500,1000
		c248.8,0,455.1-181.8,493.2-419.8h0c0,0,0,0,0-0.1c0-0.1,0-0.1-0.1-0.1L713.5,579.4z M713.5,579.4"/>
	<path style="clip-path:url(#SVGID_00000010280315868898935320000007239033858348060288_);fill:#D9251B;" d="M500,0.9
		c-119.9,0-229.9,42.2-315.9,112.6c0,0-0.1,0.1,0,0.1c0,0,0,0.1,0.1,0.1h0l528.6,322.8c0,0,0,0,0.1,0c0,0,0,0,0,0h0l282.6-0.3h0
		c0,0,0.1,0,0.1,0c0,0,0-0.1,0-0.1C963.9,190.6,754.1,0.9,500,0.9L500,0.9z M500,0.9"/>
	<path style="clip-path:url(#SVGID_00000010280315868898935320000007239033858348060288_);fill:#FDC91D;" d="M143.2,150.8
		C143.2,150.8,143.2,150.8,143.2,150.8c-11,11.2-21.4,22.8-31.2,34.9c0,0,0,0.1,0,0.1c0,0,0,0.1,0.1,0.1h0l536.2,319.6
		c0.7,0.4,1.2,1.2,1.2,2.1c0,0.9-0.4,1.6-1.2,2.1L120.9,825.5c-0.1,0-0.1,0.1-0.1,0.2c0,0,0,0.1,0.1,0.1h0
		c10.3,12,21.1,23.5,32.5,34.4c0,0,0.1,0,0.1,0c0,0,0,0,0,0c0,0,0,0,0,0h0l548.1-326.4c0.4-0.2,0.8-0.3,1.2-0.3l295.5-0.3h0l0,0
		c0.1,0,0.1-0.1,0.1-0.1c0.7-10.8,1.1-21.7,1.1-32.7c0-5.3-0.1-10.5-0.2-15.8h0c0-0.1-0.1-0.1-0.1-0.1L704,484.3
		c-0.4,0-0.9-0.1-1.2-0.3L143.2,150.8C143.3,150.8,143.3,150.8,143.2,150.8L143.2,150.8z M143.2,150.8"/>
	<path style="clip-path:url(#SVGID_00000010280315868898935320000007239033858348060288_);" d="M178.2,109.9"/>
	<path style="clip-path:url(#SVGID_00000010280315868898935320000007239033858348060288_);" d="M140.2,143.2"/>
	<path style="clip-path:url(#SVGID_00000010280315868898935320000007239033858348060288_);" d="M113.9,823.9"/>
	<path style="clip-path:url(#SVGID_00000010280315868898935320000007239033858348060288_);" d="M148.6,863"/>
	<path style="clip-path:url(#SVGID_00000010280315868898935320000007239033858348060288_);fill:#FEC91E;" d="M173.4,685.8l0.1-61.8
		c0-1.3,0.9-2.3,2.2-2.5c12.3-1.8,24.2-3.6,39.7-10.6c15.6-7.1,34.6-19.6,47.2-38.6c12.7-19.1,19.1-45,19.7-66.9
		c0.6-21.8-4.5-39.5-15.8-56.5c-11.4-17.2-29-33.6-49.4-41.5c-9.9-3.8-20.4-5.7-31.1-5.7c-11.2,0-22.5,2.1-33.1,6
		c-20.6,7.7-38.5,22.5-48.2,42.3c-9.8,19.9-11.5,45.1-7.9,65.1c3.5,19.8,12.1,34,28,44.2c14.8,9.4,36.1,15.3,56.1,15.3
		c1.8,0,3.6,0,5.5-0.1c21.5-1.2,40.5-9.6,52.8-23.4c12.5-13.9,18.5-33.3,24.7-53.5c0.4-1.2,1.6-2,2.9-1.8c1.3,0.2,2.2,1.3,2.1,2.6
		c-0.6,18.3-1.1,37.1-9.7,56.1c-8.5,18.9-25,37.9-49.1,46.4c-10.2,3.6-21.6,5.3-33.4,5.3c-16,0-32.8-3.1-48.1-8.7
		c-26.7-9.7-49.3-27.2-62.8-51.9c-13.5-24.7-17.7-56.5-12.1-86.1c5.7-29.6,21.4-57.1,44.4-76.9c23-19.9,53.4-32.1,83.6-33.6
		c2.1-0.1,4.3-0.2,6.4-0.2c28.1,0,55.7,9,78.6,23.5c24.7,15.5,43.9,37.4,57.6,66c13.6,28.6,21.7,64.1,13.9,104.3
		c-7.7,40-31.2,84.7-61,109.9c-29.9,25.3-65.8,30.7-101,36.1c-0.7,0.1-1.5-0.1-2.1-0.6C173.8,687.3,173.4,686.6,173.4,685.8
		 M178.6,685.8l-3-2.5c35.4-5.4,69.9-10.7,98.4-35c28.7-24.3,51.7-67.9,59.2-107c7.5-38.9-0.2-73.3-13.5-101.1
		c-13.2-27.8-31.8-48.8-55.7-63.8c-22.2-14-48.9-22.7-75.9-22.7c-2,0-4.1,0.1-6.1,0.2v0c-29.1,1.4-58.4,13.3-80.5,32.4
		c-22.2,19.1-37.3,45.5-42.8,74c-5.5,28.5-1.3,59.1,11.5,82.7c12.8,23.5,34.3,40.2,60.1,49.6c14.8,5.4,31,8.4,46.4,8.4
		c11.3,0,22.2-1.6,31.7-5c22.4-7.9,38-25.8,46.1-43.7c8.1-17.9,8.7-35.7,9.2-54.1l5,0.8c-6.1,19.9-12.4,40.6-25.8,55.5
		c-13.4,14.9-33.8,23.8-56.4,25.1c-1.9,0.1-3.8,0.2-5.7,0.2c-20.9,0-43.1-6.1-58.8-16.1c-17.4-11-26.6-26.6-30.3-47.6
		c-3.7-20.8-2-47.2,8.4-68.2c10.4-21.2,29.3-36.8,51-44.9c11.2-4.2,23.1-6.3,34.9-6.3c11.2,0,22.4,1.9,32.9,6h0
		c21.6,8.4,40,25.6,51.8,43.5c11.9,18,17.3,36.7,16.7,59.5c-0.7,22.7-7.3,49.6-20.6,69.6c-13.3,20.1-33.2,33.1-49.3,40.4
		c-16.2,7.4-28.8,9.3-41.1,11.1l2.2-2.5L178.6,685.8z M178.6,685.8"/>
	<path style="clip-path:url(#SVGID_00000010280315868898935320000007239033858348060288_);fill:#FEC91E;" d="M188.2,353.7
		c-2,0-4.1,0.1-6.1,0.2c-29.1,1.4-58.4,13.3-80.6,32.4c-22.2,19.1-37.3,45.6-42.8,74.1c-5.5,28.6-1.3,59.1,11.5,82.7l0,0
		c7,12.8,16.6,23.6,28,32.3c9.5,7.2,20.4,13,32.1,17.3c14.9,5.4,31,8.4,46.4,8.4c11.3,0,22.2-1.6,31.8-5v0
		c22.4-7.9,38-25.8,46.1-43.7c5.2-11.5,7.3-22.9,8.3-34.5l-0.1-0.1l0,0l-0.1,0c-4.7,13.6-10.6,26.5-19.7,36.7
		c-13.4,14.9-33.8,23.8-56.3,25l0,0c-1.9,0.1-3.8,0.2-5.7,0.2c-20.9,0-43.1-6.1-58.8-16.1c-1.8-1.1-3.4-2.3-5-3.5
		c-14.2-10.8-22-25.3-25.3-44.1c-3.7-20.8-2-47.1,8.4-68.2c10.4-21.1,29.3-36.8,51-44.8c11.1-4.2,23-6.3,34.9-6.3
		c11.2,0,22.4,1.9,32.9,6c8.5,3.3,16.5,8,23.8,13.5c11.2,8.5,20.8,19.1,28,29.9c11.9,18,17.3,36.7,16.6,59.5
		c-0.7,22.6-7.3,49.5-20.6,69.6c-13.3,20.1-33.2,33-49.3,40.4c-15.3,7-27.3,9-39,10.7l0,0.1l0,0l-0.1,56.6l0.1,0.1
		c34.3-5.3,67.7-11,95.5-34.5c28.7-24.3,51.7-67.9,59.3-107c7.5-38.9-0.2-73.3-13.5-101.1c-11.2-23.5-26.3-42.3-45.1-56.5
		c-3.4-2.6-6.9-5-10.6-7.3C242,362.4,215.3,353.7,188.2,353.7L188.2,353.7z M188.2,353.7"/>
	<path style="clip-path:url(#SVGID_00000010280315868898935320000007239033858348060288_);fill:#FEC91E;" d="M132,541.2L132,541.2
		L132,541.2L132,541.2z M132,541.2L132,541.2L132,541.2L132,541.2L132,541.2z M132,541.2L132,541.2L132,541.2z M132,541.2L132,541.2
		L132,541.2L132,541.2z M237.1,435.8L237.1,435.8l-7,4c-0.1,0-0.1,0.1-0.2,0.1c-0.1,0-0.1,0-0.2-0.1v0c-0.1-0.1-0.2-0.2-0.2-0.4l0,0
		c0,0,0,0,0,0l0,0c0,0,0,0,0,0l-0.2-3.4l0,0l0,0h0l0,0v0c-2.4,0.5-4.5,1.2-5.9,3.4c-1.5,2.5-2.1,7.1-2.7,11.8c0,0.2-0.1,0.3-0.2,0.4
		l-3.2,1.6c-0.1,0-0.1,0-0.2,0c-0.1,0-0.2,0-0.3-0.1l-0.1,0c-0.1-0.1-0.2-0.3-0.1-0.5l0,0c1.3-2.7,2.6-5.4,3.2-7.9
		c0.6-2.2,0.6-4.3,0.7-6.4l0,0l0,0l0,0c-3.2,2.7-6.2,5.3-7.5,8.1c-1.4,3-0.8,6.4-0.3,9.9l0,0c0,0.2,0,0.3-0.2,0.4l-0.1,0l-4.3,3.2
		c-0.1,0.1-0.2,0.1-0.3,0.1c-0.1,0-0.2,0-0.3-0.1l-0.1,0c-0.1-0.1-0.2-0.3-0.2-0.5l0,0l0-0.1c0.6-2.6,1.3-5.2,1.2-7.5
		c0-2-0.6-3.8-1.2-5.7l0,0l0,0l0,0c-2,3.1-4,6.1-4.9,8.9c-1,3.1-0.9,6-0.8,9l0,0c0,0.2-0.1,0.3-0.2,0.4l-0.1,0l-4.5,2.4
		c-0.1,0-0.1,0.1-0.2,0.1c-0.1,0-0.2,0-0.3-0.1l0,0c-0.1-0.2-0.1-0.4,0-0.6l0,0c1.6-2.6,3.2-5,3.6-7.9l0,0c0.4-2.6-0.1-5.6-0.7-8.7
		l0,0l0,0l0,0c-2.8,3.6-5.4,7-6.4,10.1c-1,3.3-0.3,6.2,0.6,9.2l0,0c0,0.2,0,0.3-0.1,0.4l-0.1,0l-4.2,4.1c-0.1,0.1-0.2,0.1-0.3,0.1
		c-0.1,0-0.2,0-0.3-0.1l-0.1,0c-0.2-0.1-0.2-0.4-0.1-0.6l0,0c1-2.4,1.9-4.7,1.9-6.9c0-2-0.8-3.9-1.7-5.9l0,0l0,0l0,0
		c-2.6,3.3-5.1,6.4-5.9,9.4c-0.8,3.1,0.1,6,1.2,9.1l0,0c0,0.2,0,0.3-0.1,0.5l0,0l-4.2,4.6c-0.1,0.1-0.2,0.1-0.3,0.1
		c-0.1,0-0.1,0-0.2-0.1l-0.1,0c-0.2-0.1-0.2-0.3-0.2-0.5l0,0l0-0.1c0.4-1.8,0.7-3.6,0.5-5.6v0v0c-0.2-1.8-0.8-3.8-1.5-5.8l0,0l0,0
		l0,0l0,0l0,0c-1.5,2.5-2.8,4.9-3.4,7.6l0,0c-0.6,3-0.3,6.4,0.1,9.8l0,0c0,0.2-0.1,0.3-0.2,0.4l-0.1,0l-3.1,2v0
		c-0.1,0-0.2,0.1-0.2,0.1c-0.1,0-0.2,0-0.3-0.1l-0.1,0c-0.1-0.1-0.2-0.3-0.2-0.5l0,0c0.6-2.6,1.1-5.1,1.1-7.3
		c-0.1-1.9-0.6-3.5-1.3-5.2l0,0l0,0l0,0c-1.9,2.5-3.7,4.9-4.5,7.8c-0.8,3.2-0.4,6.9,0.1,10.7l0,0c0,0,0,0,0,0.1l0,0
		c0,0.1-0.1,0.3-0.2,0.4l0,0l-2.3,1.7l0,0v0c-0.1,0.1-0.2,0.1-0.3,0.1c-0.1,0-0.2,0-0.2-0.1l-0.1,0c-0.1-0.1-0.2-0.3-0.2-0.5l0,0
		c0.5-2.9,1-5.7,0.8-8.6c-0.2-2.7-0.9-5.5-1.8-8.4l0,0l0,0l0,0c-1.9,3.2-3.7,6.4-4.2,9.9c-0.5,3.9,0.5,8.2,1.5,12.6l0,0l0,0
		c0,0.1,0,0.3-0.1,0.4l0,0l-3.8,5.3c-0.1,0.1-0.2,0.2-0.4,0.2c-0.1,0-0.1,0-0.2,0c0,0,0,0,0,0l-0.1,0c-0.1-0.1-0.2-0.3-0.2-0.5l0,0
		c0.4-2.9,0.8-5.8,0.7-9c-0.1-2.7-0.7-5.7-1.4-8.7l0,0l0,0l0,0c-1.9,3.3-3.6,6.6-4,10.2c-0.5,4,0.6,8.4,1.7,12.9l0,0
		c0,0.1,0,0.2-0.1,0.4l0,0l-2.7,4v0c-0.1,0.1-0.2,0.2-0.4,0.2c0,0-0.1,0-0.1,0c0,0-0.1,0-0.1,0l-0.1,0c-0.1-0.1-0.2-0.3-0.2-0.4l0,0
		c0.2-3.7,0.3-7.4-0.1-10.7c-0.4-2.9-1.3-5.5-2.3-8.2l0,0l0,0l0,0c-1.7,3.2-3.2,6.4-3.3,10c-0.1,4,1.5,8.7,3.1,13.5l0,0
		c0,0,0,0.1,0,0.1l0,0c0,0.1,0,0.2-0.1,0.3l0,0l-2.9,3.2c-0.1,0.1-0.2,0.1-0.3,0.1c0,0-0.1,0-0.1,0c-0.2-0.1-0.3-0.2-0.3-0.4
		c-0.3-2.9-0.6-5.7-1.4-8.9c-0.6-2.7-1.5-5.6-2.4-8.5l0,0l0,0l0,0c-1.5,4.9-2.9,9.6-2.9,13.2c0,4,1.7,6.7,3.4,9.6l0,0
		c0.1,0.2,0.1,0.3,0,0.5l0,0l-5.5,8.1h0l0,0v0l0,0v0l0,0v0l0,0l0,0v0l2.8,2.1l0,0l0,0l4.8-8.5l0,0l0,0c0,0,0,0,0,0l0,0
		c0.1-0.1,0.2-0.2,0.4-0.2c0,0,0.1,0,0.1,0v0c3.1,0.8,6,1.5,8.7,1.5c1.1,0,2.2-0.1,3.2-0.5c3.2-1,5.7-4,8.3-7.2l0,0l0,0l0,0v0l0,0
		c-3-0.9-5.9-1.7-8.5-1.7l0,0c0,0-0.1,0-0.1,0l0,0c-2.8,0-5.4,0.9-8.1,1.8c0,0-0.1,0-0.1,0c-0.1,0-0.2,0-0.2-0.1l0,0
		c-0.1,0-0.1-0.1-0.1-0.1l0,0c-0.1-0.2-0.1-0.4,0-0.6l0,0l2.4-2.6c0.1-0.1,0.2-0.1,0.3-0.1c5.5-0.1,10.8-0.3,14.2-1.6
		c3.1-1.1,4.5-3.2,5.9-5.5l0,0l0,0l0,0v0l0,0c-2-0.5-3.9-1-5.9-1c-0.5,0-1.1,0-1.6,0.1c-2.8,0.4-5.8,1.8-8.8,3.4l0,0
		c-0.1,0-0.1,0-0.2,0c-0.1,0-0.3-0.1-0.4-0.2l0,0c-0.1-0.2-0.1-0.4,0-0.6l0,0l2.6-3.3c0.1-0.1,0.2-0.1,0.3-0.2l0.3,0
		c4.7-0.8,9.2-1.6,12.2-2.7c2.6-1,3.9-2.3,5.2-3.7l0,0l0,0l0,0c0,0,0,0,0,0l0,0c-2-1-4-1.9-5.9-1.9c-0.2,0-0.4,0-0.6,0
		c-2.3,0.2-4.5,1.9-7,3.7c-0.1,0.1-0.2,0.1-0.3,0.1c-0.1,0-0.2,0-0.3-0.1l-0.1,0c-0.1-0.2-0.2-0.4-0.1-0.6l0,0l3.8-5.9
		c0.1-0.1,0.2-0.2,0.4-0.2c0,0,0.1,0,0.1,0c3.2,0.8,6.4,1.6,9,1.6c0.3,0,0.5,0,0.8,0c2.5-0.2,4.4-1.2,6.4-2.3l0,0l0,0l0,0l0,0l0,0
		c-0.8-0.8-1.7-1.5-2.5-2.1c-0.8-0.6-1.7-1-2.5-1.2c-0.5-0.1-1.1-0.2-1.7-0.2c-1.5,0-3.2,0.4-5,0.8l0,0l0,0c0,0-0.1,0-0.1,0
		c-0.1,0-0.2,0-0.2-0.1l0,0c-0.1-0.1-0.1-0.1-0.2-0.2l0,0c-0.1-0.2,0-0.4,0.1-0.6l0.1,0l3.5-2.2c0.1,0,0.2-0.1,0.2-0.1
		c0,0,0.1,0,0.1,0c3,0.9,6,1.7,8.3,1.7c0.5,0,1,0,1.4-0.1v0c2.2-0.4,3.7-2.1,5.2-3.9l0,0l0,0l0,0v0l0,0c-1.9-0.9-3.8-1.7-5.6-2.1
		c-1-0.2-1.9-0.3-2.8-0.3c-0.9,0-1.8,0.1-2.7,0.1c0,0,0,0,0,0l0,0c-0.1,0-0.2,0-0.2-0.1l0,0c-0.1-0.1-0.2-0.1-0.2-0.2l0,0
		c-0.1-0.2,0-0.4,0.1-0.5l0.1,0l3.7-2.7c0.1-0.1,0.2-0.1,0.3-0.1c0.1,0,0.1,0,0.2,0c3.4,1.5,6.7,3,9.4,3c0.3,0,0.5,0,0.8,0
		c2.6-0.3,4.7-2.3,6.8-4.6l0,0l0,0l0,0v0c-0.3-0.2-0.3-0.2-0.6-0.4c-1.5-1-2.9-1.9-4.5-2.4c-1.1-0.3-2.3-0.4-3.6-0.4
		c-0.9,0-1.9,0.1-2.9,0.1c0,0,0,0,0,0l0,0c-0.1,0-0.2,0-0.2-0.1l0,0c-0.1-0.1-0.1-0.1-0.2-0.2l0,0c-0.1-0.2,0-0.4,0.1-0.5l0,0
		l4.6-4.9c0.1-0.1,0.2-0.1,0.3-0.1c0.1,0,0.2,0,0.3,0.1l0,0c1.3,0.9,2.5,1.7,3.7,2.4l0,0c1.8,1.1,3.5,1.8,5.2,1.8
		c2.6,0,5-1.8,7.5-3.8l0,0l0,0l0,0l0,0l0,0c-1-0.9-1.9-1.8-3-2.5c-0.6-0.4-1.2-0.8-1.8-1.1c-1.9-0.9-4-1.2-6.3-1.5
		c-0.1,0-0.1,0-0.2-0.1l0,0c-0.1-0.1-0.2-0.2-0.2-0.3l0,0c0-0.2,0-0.4,0.1-0.5l0.1,0l4.1-3.4c0.1-0.1,0.2-0.1,0.3-0.1
		c0.1,0,0.2,0,0.3,0.1l0,0c1.2,1.1,2.3,2.1,3.4,3l0,0c0,0,0,0,0,0c1.1,0.8,2.3,1.3,3.5,1.5c0.2,0,0.3,0,0.5,0c2.2,0,4.6-1.3,7.1-2.7
		l0,0l0,0l0,0l0,0v0l0,0c-0.5-0.4-1.2-0.9-1.7-1.2c-1.6-1.1-3-2-4.4-2.5c-0.9-0.3-1.8-0.5-2.6-0.5c-0.9,0-1.7,0.1-2.5,0.2
		c0,0,0,0-0.1,0c-0.2,0-0.4-0.1-0.4-0.3c-0.1-0.2,0-0.4,0.3-0.5l4.4-2c0.1,0,0.1,0,0.2,0c0.1,0,0.1,0,0.2,0c3,1.5,5.9,3,8,3
		c0,0,0.1,0,0.1,0c1.9-0.1,3.1-1.3,4.4-2.9l0,0l0,0l-5.4-4.3l-0.1,0c-0.2-0.2-0.2-0.4-0.1-0.6l0,0c0.1-0.1,0.2-0.2,0.4-0.2
		c0.1,0,0.1,0,0.2,0.1c0,0,0.1,0,0.1,0.1l0,0l0,0l0,0l0,0c1.3,0.7,2.6,1.3,4.2,1.3c0.4,0,0.7,0,1.1-0.1v0c2.2-0.4,5.1-1.9,8.1-3.5
		l0,0l0,0l0,0l-3.9-4l0,0c-0.1-0.2-0.2-0.4-0.1-0.6l0,0c0.1-0.1,0.2-0.2,0.4-0.2c0.1,0,0.1,0,0.2,0c2.2,0.8,4.2,1.6,6,1.7
		c0.1,0,0.2,0,0.2,0c1.5,0,2.9-0.5,4.3-1.1l0,0l0,0l0,0l-1.8-3.5c0,0,0-0.1,0-0.2l0,0c0-0.1,0-0.3,0.1-0.4l0,0
		c0.1-0.1,0.2-0.2,0.3-0.2c0.1,0,0.1,0,0.2,0v0l0,0v0c1.1,0.5,2.2,0.9,3.3,0.9c0.6,0,1.1-0.1,1.7-0.4c1.7-0.7,3.7-2.7,5.8-4.8l0,0
		l0,0l-7.9-1.9c0,0-0.1,0-0.1,0l0,0c-0.1-0.1-0.2-0.1-0.2-0.3l0,0c0-0.2,0-0.3,0.1-0.4l0,0c1.1-1.3,2.1-2.5,2.7-3.8
		C236.7,438.4,237,437.1,237.1,435.8L237.1,435.8L237.1,435.8z M237.1,435.8"/>
	<path style="clip-path:url(#SVGID_00000010280315868898935320000007239033858348060288_);fill:#FEC91E;" d="M131,541.1l5.7-8.4
		l0,0.5l0-0.1c-1.7-2.8-3.5-5.8-3.5-10c0-4.2,1.7-9.6,3.4-15c0.1-0.2,0.2-0.3,0.4-0.3c0.2,0,0.4,0.1,0.5,0.3c1.1,3.4,2.2,6.9,2.9,10
		c0.7,3.2,1,6.1,1.4,9l0,0l0,0l-0.8-0.3l2.9-3.2l-0.1,0.5c-1.6-4.7-3.3-9.5-3.2-13.8c0.1-4.3,2.1-7.9,3.9-11.4
		c0.1-0.2,0.3-0.3,0.4-0.2c0.2,0,0.3,0.1,0.4,0.3v0l0,0.1v0c1.1,2.9,2.2,5.9,2.7,9.3c0.5,3.4,0.3,7.2,0.1,10.9l-0.9-0.3l2.7-4
		l-0.1,0.4c-1.1-4.5-2.2-9.1-1.7-13.3c0.5-4.2,2.7-8,4.8-11.7c0.1-0.2,0.3-0.3,0.5-0.2c0.2,0,0.3,0.2,0.4,0.4
		c0.7,3.4,1.5,6.9,1.7,10.1c0.2,3.2-0.3,6.2-0.7,9.1l-0.9-0.3l3.8-5.4l-0.1,0.4c-1-4.4-2.1-8.9-1.5-12.9c0.6-4.1,2.8-7.7,4.9-11.2
		l0,0v0c0.1-0.2,0.3-0.3,0.5-0.3c0.2,0,0.4,0.2,0.4,0.3v0l0,0l0,0c0.9,3.3,1.9,6.6,2.1,9.7c0.2,3.1-0.3,6-0.8,8.9l0,0v0l-0.7-0.5
		l2.3-1.7l-0.2,0.4c-0.4-3.8-0.9-7.7,0-11.1c0.9-3.4,3.1-6.2,5.2-8.8c0.1-0.1,0.3-0.2,0.4-0.2c0.2,0,0.3,0.1,0.4,0.3l0,0v0l0,0l0,0
		c0.8,1.9,1.5,4,1.6,6.3c0.1,2.3-0.5,5-1.1,7.5l-0.7-0.5l3.1-2l-0.2,0.4c-0.4-3.4-0.7-6.9-0.1-10.1l0,0.1l0-0.1c0.7-3.2,2.4-6,4-8.8
		c0.1-0.2,0.3-0.2,0.5-0.2c0.2,0,0.3,0.1,0.4,0.3l0,0l0,0l0,0l0,0c0.8,2.4,1.7,4.8,1.9,7c0.2,2.2-0.2,4.1-0.6,6l-0.8-0.4l4.2-4.6
		l-0.1,0.5c-1-3-2.1-6.2-1.2-9.7c0.9-3.4,3.8-6.9,6.6-10.4c0.1-0.1,0.3-0.2,0.4-0.2c0.2,0,0.3,0.1,0.4,0.3l0.1,0.1
		c1,2.2,2,4.5,2,6.9c0,2.4-1,4.9-2,7.3l0-0.2v0l-0.8-0.3l4.2-4.1l-0.1,0.5c-0.8-3-1.7-6.1-0.5-9.7c1.1-3.5,4.2-7.4,7.2-11.2
		c0.1-0.1,0.3-0.2,0.5-0.2c0.2,0,0.3,0.2,0.4,0.4c0.7,3.4,1.4,7,0.9,10.1c-0.5,3.1-2.1,5.7-3.7,8.3l-0.6-0.7l4.5-2.4l-0.2,0.4v0v0
		c-0.1-3-0.2-6.1,0.9-9.3l0.1-0.2l0,0l-0.1,0.2c1.1-3.2,3.4-6.6,5.6-10c0.1-0.1,0.3-0.2,0.5-0.2c0.2,0,0.3,0.1,0.4,0.3l0,0l0,0
		c0.7,2.2,1.5,4.4,1.6,6.9c0,2.5-0.6,5.2-1.3,7.9l0,0.1v0l-0.7-0.6l4.3-3.2l-0.2,0.5l0-0.1v0c-0.6-3.4-1.2-7,0.4-10.3
		c1.5-3.3,5.1-6.3,8.6-9.1l0,0l0,0c0.1-0.1,0.3-0.1,0.5,0c0.2,0.1,0.2,0.2,0.2,0.4c0,2.5,0,5-0.7,7.7l0,0.1l0,0l0-0.1
		c-0.7,2.6-2,5.4-3.3,8.1l-0.6-0.6l3.2-1.6l-0.3,0.4c0.6-4.6,1.1-9.4,2.8-12.1c1.7-2.8,4.5-3.4,7.1-4c0.1,0,0.3,0,0.4,0.1
		c0.1,0.1,0.2,0.2,0.2,0.3l0.3,4l-0.7-0.4l7.8-4.5c0.2-0.1,0.4-0.1,0.5,0c0.1,0.1,0.2,0.3,0.2,0.5c-0.2,1.6-0.5,3.4-1.2,4.9
		c-0.7,1.5-1.8,2.8-2.9,4.1l-0.2-0.8l8.7,2.1c0.2,0,0.3,0.2,0.3,0.3c0,0.2,0,0.3-0.1,0.5l0,0l0,0l0,0l0,0c-2.3,2.3-4.6,4.7-6.7,5.6
		c-0.7,0.3-1.4,0.4-2.1,0.4c-1.3,0-2.6-0.5-3.7-0.9l0.6-0.7l2.1,3.9c0.1,0.1,0.1,0.3,0,0.4c0,0.1-0.1,0.2-0.3,0.3l0,0l0,0l0,0
		c-1.6,0.7-3.3,1.3-5.2,1.3c-0.1,0-0.2,0-0.3,0c-2-0.1-4.2-0.9-6.3-1.7l0,0l0,0l0.5-0.8l4.4,4.4c0.1,0.1,0.2,0.3,0.1,0.4
		c0,0.1-0.1,0.3-0.2,0.3c-3.2,1.7-6.4,3.5-9,4c-0.5,0.1-0.9,0.1-1.3,0.1c-1.9,0-3.4-0.8-4.8-1.5l0.5-0.8l5.7,4.6
		c0.1,0.1,0.2,0.2,0.2,0.3c0,0.1,0,0.3-0.1,0.4l-0.1,0.1c-1.4,1.6-2.9,3.5-5.4,3.5h0c-0.1,0-0.1,0-0.2,0c-2.4,0-5.5-1.6-8.4-3.1
		l0.4,0l-4.4,2l-0.3-0.9c0.8-0.1,1.7-0.3,2.7-0.3c0.9,0,1.9,0.1,3,0.5l-0.2,0h0l0.2,0c2.1,0.8,4.5,2.6,6.8,4.3
		c0.1,0.1,0.2,0.3,0.2,0.4c0,0.2-0.1,0.3-0.2,0.4c-2.7,1.5-5.6,3.2-8.2,3.2c-0.2,0-0.4,0-0.6,0c-2.8-0.3-5.2-2.6-7.5-4.7l0.6,0
		l-4.1,3.4l-0.2-0.8c2.2,0.3,4.5,0.6,6.6,1.6l-0.2,0l0.2,0c2,1,3.7,2.5,5.4,4l0,0h0c0.1,0.1,0.1,0.2,0.1,0.4c0,0.1-0.1,0.3-0.2,0.3
		l0,0l0,0l0,0c-2.6,2.1-5.5,4.4-8.6,4.4c-3.1,0-6.3-2.3-9.4-4.4l0.6-0.1l-4.6,4.9l-0.4-0.8c1-0.1,2-0.1,2.9-0.1
		c1.3,0,2.6,0.1,3.9,0.5c2.1,0.6,4,2,5.8,3.3c0.1,0.1,0.2,0.2,0.2,0.3c0,0.1,0,0.3-0.1,0.4c-2.2,2.4-4.6,4.9-7.8,5.3h0
		c-0.3,0-0.6,0.1-0.9,0.1c-2.9,0-6.4-1.6-9.8-3.1l0.5,0l-3.7,2.7l-0.3-0.9l0.2,0c0.9-0.1,1.7-0.1,2.6-0.1c1,0,2,0.1,3,0.3
		c2,0.4,4.2,1.4,6.3,2.4c0.1,0.1,0.2,0.2,0.3,0.3c0,0.1,0,0.3-0.1,0.4l0,0l0,0l0,0c-1.6,2-3.3,4.2-6.1,4.7c-0.5,0.1-1,0.1-1.6,0.1
		c-2.5,0-5.6-0.9-8.5-1.7l0,0l0,0l0.4-0.1l-3.5,2.2l-0.4-0.9c1.7-0.4,3.5-0.9,5.2-0.9c0.7,0,1.3,0.1,1.9,0.2c2.2,0.6,4.1,2.3,5.9,4
		l0,0c0.1,0.1,0.2,0.2,0.1,0.4c0,0.1-0.1,0.3-0.2,0.3c-2.1,1.3-4.4,2.6-7.3,2.8c-0.3,0-0.6,0-0.9,0c-2.8,0-6-0.8-9.2-1.6l0.5-0.2
		l-3.8,5.9l-0.6-0.7l0,0h0l-0.1,0c2.3-1.7,4.8-3.6,7.4-3.9c0.2,0,0.5,0,0.7,0c2.3,0,4.6,1.2,6.8,2.3c0.1,0.1,0.2,0.2,0.2,0.3
		c0,0.1,0,0.3-0.1,0.4c-1.4,1.6-2.8,3.2-5.9,4.4l0,0l0,0l0,0c-3.1,1.2-7.9,2-12.6,2.8h0l0,0l0.3-0.2l-2.6,3.3l-0.6-0.7
		c0,0,0.2-0.1,0.2-0.1l0,0c3-1.5,6-3,9-3.4c0.6-0.1,1.2-0.1,1.8-0.1c2.3,0,4.6,0.6,6.7,1.2c0.1,0,0.3,0.1,0.3,0.3
		c0.1,0.1,0,0.3,0,0.4l0,0l0,0l0,0c-1.5,2.5-3.1,5.1-6.8,6.4c-3.6,1.3-9.1,1.5-14.5,1.6l0.3-0.2l-2.4,2.6l-0.5-0.8l0,0l0,0
		c2.7-0.9,5.4-1.9,8.5-1.9c0,0,0.1,0,0.1,0h0c3,0,6.3,1,9.5,2c0.1,0,0.3,0.2,0.3,0.3c0,0.1,0,0.3-0.1,0.4l0,0l0,0l0,0
		c-2.7,3.3-5.5,6.8-9.2,8c-1.1,0.4-2.3,0.5-3.5,0.5c-2.8,0-5.9-0.8-8.9-1.5l0.5-0.2l-5,9c-0.1,0.1-0.2,0.2-0.3,0.2
		c-0.1,0-0.3,0-0.4-0.1l-3.6-2.7C130.9,541.5,130.9,541.3,131,541.1 M131.8,541.6l-0.1-0.6l3.6,2.7l-0.7,0.1l5-9
		c0.1-0.2,0.3-0.3,0.5-0.2c3,0.8,6,1.5,8.7,1.5c1.1,0,2.2-0.1,3.2-0.5c3.4-1.1,6-4.3,8.7-7.7l0,0l0,0l0.2,0.8
		c-3.2-1-6.3-1.9-9.2-1.9h0c0,0,0,0-0.1,0c-2.8,0-5.4,0.9-8.1,1.8h0l0,0c-0.2,0.1-0.4,0-0.5-0.2c-0.1-0.2-0.1-0.4,0-0.6l2.4-2.6
		c0.1-0.1,0.2-0.2,0.3-0.2c5.5-0.1,10.8-0.3,14.2-1.6c3.3-1.2,4.8-3.6,6.3-6l0,0l0,0l0.3,0.7c-2.2-0.6-4.3-1.1-6.5-1.1
		c-0.5,0-1.1,0-1.6,0.1c-2.7,0.4-5.7,1.8-8.7,3.3h0c0,0-0.2,0.1-0.2,0.1c-0.2,0.1-0.4,0-0.6-0.1c-0.1-0.2-0.1-0.4,0-0.6l2.6-3.3
		c0.1-0.1,0.2-0.1,0.3-0.2l0,0h0c4.8-0.8,9.4-1.6,12.4-2.8l0,0l0,0l0,0c2.9-1.1,4.2-2.6,5.6-4.2l0.1,0.7c-2.2-1.1-4.3-2.2-6.4-2.2
		c-0.2,0-0.4,0-0.6,0c-2.2,0.2-4.5,1.9-6.9,3.7l-0.1,0h0l0,0c-0.1,0.1-0.4,0.1-0.5-0.1c-0.2-0.2-0.2-0.4-0.1-0.6l3.8-5.9
		c0.1-0.2,0.3-0.2,0.5-0.2c3.2,0.8,6.4,1.6,9,1.6c0.3,0,0.5,0,0.8,0c2.7-0.2,4.8-1.4,6.9-2.7l-0.1,0.7v0l0,0
		c-1.8-1.7-3.5-3.3-5.5-3.8c-0.5-0.1-1.1-0.2-1.7-0.2c-1.6,0-3.2,0.4-5,0.8c-0.2,0.1-0.5-0.1-0.5-0.3c-0.1-0.2,0-0.5,0.2-0.6
		l3.5-2.2c0.1-0.1,0.2-0.1,0.4-0.1l0,0l0,0c3,0.9,5.9,1.7,8.3,1.7c0.5,0,1,0,1.4-0.1c2.4-0.5,3.9-2.3,5.5-4.4l0,0l0,0l0.1,0.8
		c-2.1-1-4.2-1.9-6.1-2.3c-1-0.2-1.9-0.3-2.8-0.3c-0.8,0-1.7,0.1-2.6,0.1l-0.2,0c-0.2,0-0.4-0.1-0.5-0.3c-0.1-0.2,0-0.4,0.2-0.5
		l3.7-2.7c0.1-0.1,0.3-0.1,0.5,0c3.4,1.5,6.7,3,9.4,3c0.3,0,0.5,0,0.8,0h0c2.8-0.3,4.9-2.6,7.2-5l0.1,0.7c-1.8-1.3-3.6-2.6-5.5-3.1
		c-1.1-0.3-2.3-0.4-3.6-0.4c-1,0-1.9,0.1-2.9,0.1c-0.2,0-0.4-0.1-0.5-0.3c-0.1-0.2,0-0.4,0.1-0.5l4.6-4.9c0.2-0.2,0.4-0.2,0.6-0.1
		c3.2,2.2,6.1,4.2,8.8,4.2c2.7,0,5.2-2,8-4.2l0,0l0,0v0v0.7l0,0c-1.7-1.5-3.3-3-5.1-3.9l0.2,0l-0.2,0c-1.9-0.9-4-1.2-6.3-1.5
		c-0.2,0-0.3-0.2-0.4-0.3c-0.1-0.2,0-0.4,0.2-0.5l4.1-3.4c0.2-0.2,0.5-0.1,0.6,0c2.3,2.2,4.5,4.2,6.9,4.4c0.2,0,0.3,0,0.5,0
		c2.3,0,5-1.5,7.8-3.1l0,0.8c-2.4-1.7-4.7-3.4-6.6-4.1l0.2,0h0l-0.2,0c-0.9-0.3-1.8-0.5-2.6-0.5c-0.8,0-1.7,0.1-2.5,0.3
		c-0.2,0-0.5-0.1-0.5-0.3c-0.1-0.2,0-0.5,0.3-0.6l4.4-2c0.1-0.1,0.3-0.1,0.4,0c3,1.5,5.9,3,8,3c0,0,0.1,0,0.1,0h0
		c2-0.1,3.3-1.5,4.7-3.2h0l0.1-0.1l0.1,0.7l-5.7-4.6c-0.2-0.2-0.2-0.4-0.1-0.6c0.1-0.2,0.4-0.3,0.6-0.2c1.4,0.7,2.7,1.4,4.3,1.4
		c0.4,0,0.7,0,1.1-0.1c2.3-0.4,5.4-2.1,8.7-3.9l-0.1,0.7l-4.4-4.4c-0.2-0.2-0.2-0.4-0.1-0.6c0.1-0.2,0.3-0.3,0.5-0.2l0,0l0,0
		c2.1,0.8,4.2,1.6,6,1.7c0.1,0,0.1,0,0.2,0c1.7,0,3.2-0.6,4.8-1.3l0,0l0,0l0,0l-0.2,0.7l-2.1-3.9c-0.1-0.2-0.1-0.4,0.1-0.5
		c0.1-0.1,0.3-0.2,0.5-0.1c1.2,0.5,2.2,0.9,3.3,0.9c0.5,0,1.1-0.1,1.7-0.4c1.9-0.8,4.1-3,6.4-5.4l0,0l0,0l0,0l0.3,0.8l-8.7-2.1
		c-0.2,0-0.3-0.2-0.3-0.3c-0.1-0.2,0-0.3,0.1-0.5c1.1-1.3,2.1-2.5,2.7-3.8c0.6-1.4,0.8-3,1.1-4.7l0.7,0.5l-7.8,4.5
		c-0.1,0.1-0.3,0.1-0.5,0c-0.1-0.1-0.2-0.2-0.2-0.4l-0.3-4l0.6,0.4c-2.6,0.6-5,1.1-6.5,3.6c-1.5,2.5-2.1,7.1-2.7,11.8
		c0,0.2-0.1,0.3-0.3,0.4l-3.2,1.6c-0.2,0.1-0.4,0.1-0.5-0.1c-0.1-0.1-0.2-0.4-0.1-0.5c1.3-2.7,2.6-5.4,3.2-7.9l0-0.1l0,0l0,0.1
		c0.6-2.5,0.7-5,0.7-7.4l0.7,0.4l0,0l0,0c-3.5,2.9-6.9,5.7-8.3,8.8c-1.4,3-0.9,6.3-0.3,9.8l0,0.1c0,0.2,0,0.4-0.2,0.5l-4.3,3.2
		c-0.2,0.1-0.4,0.1-0.6,0c-0.2-0.1-0.2-0.4-0.1-0.6v0l0,0.1c0.7-2.7,1.3-5.3,1.3-7.6c0-2.3-0.8-4.4-1.5-6.6l0,0l0.8,0.1
		c-2.2,3.4-4.4,6.6-5.5,9.7l-0.1,0.2l0.1-0.2c-1,3.1-0.9,6-0.8,9v0c0,0.2-0.1,0.3-0.2,0.4l-4.5,2.4c-0.2,0.1-0.4,0.1-0.6-0.1
		c-0.1-0.2-0.2-0.4-0.1-0.6c1.6-2.6,3.2-5,3.6-7.9c0.4-2.9-0.2-6.3-0.9-9.8l0.8,0.2c-3,3.9-6,7.6-7,10.9c-1,3.3-0.3,6.2,0.6,9.2
		c0,0.2,0,0.3-0.1,0.5l-4.2,4.1c-0.1,0.1-0.3,0.2-0.5,0.1c-0.2-0.1-0.3-0.2-0.3-0.4v0l0-0.2c1-2.4,1.9-4.7,1.9-6.9
		c0-2.2-0.9-4.3-1.9-6.5l-0.1-0.1l0.8,0.1c-2.8,3.5-5.6,6.9-6.4,10c-0.8,3.1,0.1,6,1.2,9.1c0.1,0.2,0,0.3-0.1,0.5l-4.2,4.6
		c-0.1,0.2-0.4,0.2-0.6,0.1c-0.2-0.1-0.3-0.3-0.2-0.5c0.4-1.9,0.8-3.7,0.6-5.7c-0.2-2.1-1-4.4-1.9-6.8l0,0l0,0l0,0l0.8,0.1
		c-1.7,2.8-3.3,5.5-3.9,8.5l0-0.1l0,0.1c-0.6,3-0.3,6.4,0.1,9.9c0,0.2-0.1,0.4-0.2,0.4l-3.1,2c-0.2,0.1-0.4,0.1-0.5,0
		c-0.2-0.1-0.2-0.3-0.2-0.5c0.6-2.6,1.1-5.1,1.1-7.3c-0.1-2.2-0.8-4-1.6-6l0,0l0,0v0l0.8,0.1c-2.1,2.7-4.2,5.3-5,8.5
		c-0.8,3.2-0.4,6.9,0.1,10.7c0,0.2-0.1,0.3-0.2,0.4l-2.3,1.7c-0.2,0.1-0.4,0.1-0.5,0c-0.2-0.1-0.2-0.3-0.2-0.5v0l0,0
		c0.5-2.9,1-5.6,0.8-8.6c-0.2-3-1.1-6.2-2.1-9.5l0,0l0,0l0.9,0.1v0l0,0c-2.2,3.6-4.2,7-4.8,10.9c-0.5,3.9,0.5,8.2,1.5,12.6
		c0,0.1,0,0.3-0.1,0.4l-3.8,5.4c-0.1,0.2-0.4,0.2-0.6,0.2c-0.2-0.1-0.3-0.3-0.3-0.5c0.4-2.9,0.8-5.8,0.7-9c-0.2-3.1-0.9-6.5-1.7-9.9
		l0.9,0.1c-2.1,3.7-4.2,7.4-4.7,11.4c-0.5,4,0.6,8.4,1.7,12.9c0,0.1,0,0.3-0.1,0.4l-2.7,4c-0.1,0.2-0.3,0.3-0.5,0.2
		c-0.2-0.1-0.3-0.3-0.3-0.5c0.2-3.7,0.3-7.4-0.1-10.7c-0.5-3.2-1.5-6.1-2.6-9.1v0l0-0.1l0.9,0.1c-1.9,3.6-3.7,7-3.8,11
		c-0.1,4,1.5,8.7,3.1,13.5c0.1,0.2,0,0.3-0.1,0.5l-2.9,3.2c-0.1,0.1-0.3,0.2-0.5,0.1c-0.2-0.1-0.3-0.2-0.3-0.4l0,0v0
		c-0.3-2.9-0.6-5.7-1.4-8.9c-0.7-3.1-1.8-6.5-2.9-9.9l0.9,0c-1.7,5.4-3.4,10.7-3.4,14.7c0,3.9,1.6,6.7,3.4,9.5v0l0,0.1
		c0.1,0.2,0.1,0.4,0,0.5L131.8,541.6z M131.8,541.6"/>
	<path style="clip-path:url(#SVGID_00000010280315868898935320000007239033858348060288_);fill:#FEC91E;" d="M235.9,540.7
		L235.9,540.7L235.9,540.7L235.9,540.7z M235.9,540.7L235.9,540.7L235.9,540.7L235.9,540.7L235.9,540.7z M235.9,540.7L235.9,540.7
		L235.9,540.7z M235.9,540.7L235.9,540.7L235.9,540.7z M130.8,435.3L130.8,435.3l7,4c0.1,0,0.1,0.1,0.2,0.1c0.1,0,0.1,0,0.2-0.1v0
		c0.1-0.1,0.2-0.2,0.2-0.4l0,0c0,0,0,0,0,0l0,0c0,0,0,0,0,0l0.2-3.4l0,0l0,0h0l0,0v0c2.4,0.5,4.5,1.2,5.9,3.4
		c1.5,2.5,2.1,7.1,2.7,11.8c0,0.2,0.1,0.3,0.2,0.4l3.2,1.6c0.1,0,0.1,0,0.2,0c0.1,0,0.2,0,0.3-0.1v0l0.1,0c0.1-0.1,0.2-0.3,0.1-0.5
		l0,0c-1.3-2.7-2.6-5.4-3.2-7.9c-0.6-2.2-0.6-4.3-0.7-6.4l0,0l0,0l0,0c3.2,2.7,6.2,5.3,7.5,8.1c1.4,3,0.8,6.4,0.3,9.9l0,0
		c0,0.2,0,0.3,0.2,0.4l0.1,0l4.3,3.2c0.1,0.1,0.2,0.1,0.3,0.1c0.1,0,0.2,0,0.3-0.1l0.1,0c0.1-0.1,0.2-0.3,0.2-0.5l0,0l0-0.1
		c-0.6-2.6-1.3-5.2-1.2-7.5c0-2,0.6-3.8,1.2-5.7l0,0l0,0l0,0c2,3.1,4,6.1,4.9,8.9c1,3.1,0.9,6,0.8,9l0,0c0,0.2,0.1,0.3,0.2,0.4
		l0.1,0l4.5,2.4c0.1,0,0.1,0.1,0.2,0.1c0.1,0,0.2,0,0.3-0.1l0,0c0.1-0.2,0.1-0.4,0-0.6l0,0c-1.6-2.6-3.2-5-3.6-7.9v0
		c-0.4-2.6,0.1-5.6,0.7-8.7l0,0l0,0l0,0c2.8,3.6,5.4,7,6.4,10.1c1,3.3,0.3,6.2-0.6,9.2l0,0c0,0.2,0,0.3,0.1,0.4l0.1,0l4.2,4.1
		c0.1,0.1,0.2,0.1,0.3,0.1c0.1,0,0.2,0,0.3-0.1l0.1,0c0.2-0.1,0.2-0.4,0.1-0.6l0,0c-1-2.4-1.9-4.7-1.9-6.9c0-2,0.8-3.9,1.7-5.9l0,0
		l0,0l0,0c2.6,3.3,5.1,6.4,5.9,9.4c0.8,3.1-0.1,6-1.2,9.1l0,0c0,0.2,0,0.3,0.1,0.5l0,0l4.2,4.6c0.1,0.1,0.2,0.1,0.3,0.1
		c0.1,0,0.1,0,0.2-0.1l0.1,0c0.2-0.1,0.2-0.3,0.2-0.5l0,0l0-0.1c-0.4-1.8-0.7-3.6-0.5-5.6v0v0c0.2-1.8,0.8-3.8,1.5-5.8l0,0l0,0l0,0
		l0,0l0,0c1.5,2.5,2.8,4.9,3.4,7.6l0,0c0.6,3,0.3,6.4-0.1,9.9l0,0c0,0.2,0.1,0.3,0.2,0.4l0.1,0l3.1,2v0c0.1,0,0.2,0.1,0.2,0.1
		c0.1,0,0.2,0,0.3-0.1l0.1,0c0.1-0.1,0.2-0.3,0.2-0.5l0,0c-0.6-2.6-1.1-5.1-1.1-7.3c0.1-1.9,0.6-3.5,1.3-5.2l0,0l0,0l0,0
		c1.9,2.5,3.7,4.9,4.5,7.8c0.8,3.2,0.4,6.9-0.1,10.7l0,0c0,0,0,0,0,0.1l0,0c0,0.1,0.1,0.3,0.2,0.4l0,0l2.3,1.7l0,0
		c0.1,0.1,0.2,0.1,0.3,0.1c0.1,0,0.2,0,0.2-0.1l0.1,0c0.1-0.1,0.2-0.3,0.2-0.5l0,0c-0.5-2.9-1-5.7-0.8-8.6c0.2-2.7,0.9-5.5,1.8-8.4
		l0,0l0,0l0,0c1.9,3.2,3.7,6.4,4.2,9.9c0.5,3.9-0.5,8.2-1.5,12.6l0,0l0,0c0,0.1,0,0.3,0.1,0.4l0,0l3.8,5.3c0.1,0.1,0.2,0.2,0.4,0.2
		c0.1,0,0.1,0,0.2,0c0,0,0,0,0,0l0.1,0c0.1-0.1,0.2-0.3,0.2-0.5l0,0c-0.4-2.9-0.8-5.8-0.7-9c0.1-2.7,0.7-5.7,1.4-8.7l0,0l0,0l0,0
		c1.9,3.3,3.6,6.6,4,10.2c0.5,4-0.6,8.4-1.7,12.9l0,0c0,0.1,0,0.2,0.1,0.4l0,0l2.7,4l0,0c0.1,0.1,0.2,0.2,0.4,0.2c0,0,0.1,0,0.1,0v0
		c0,0,0.1,0,0.1,0l0.1,0c0.1-0.1,0.2-0.3,0.2-0.4l0,0c-0.2-3.7-0.3-7.4,0.1-10.7c0.4-2.9,1.3-5.5,2.3-8.2l0,0l0,0l0,0
		c1.7,3.2,3.2,6.4,3.3,10c0.1,4-1.5,8.7-3.1,13.5l0,0c0,0,0,0.1,0,0.1l0,0c0,0.1,0,0.2,0.1,0.3l0,0l2.9,3.2c0.1,0.1,0.2,0.1,0.3,0.1
		c0,0,0.1,0,0.1,0c0.2-0.1,0.3-0.2,0.3-0.4c0.3-2.9,0.6-5.7,1.4-8.9c0.6-2.7,1.5-5.6,2.4-8.5l0,0l0,0l0,0c1.5,4.9,2.9,9.6,2.9,13.2
		c0,4-1.7,6.7-3.4,9.6l0,0c-0.1,0.1-0.1,0.3,0,0.5l0,0l5.5,8.1v0l0,0v0l0,0v0v0l0,0l0,0v0l-2.8,2.1l0,0l0,0l-4.8-8.5l0,0l0,0
		c0,0,0,0,0,0l0,0c-0.1-0.1-0.2-0.2-0.4-0.2c0,0-0.1,0-0.1,0l0,0c-3.1,0.8-6,1.5-8.7,1.5c-1.1,0-2.2-0.1-3.2-0.5
		c-3.2-1-5.7-4-8.3-7.2l0,0l0,0l0,0v0l0,0c3-0.9,5.9-1.7,8.5-1.7l0,0c0,0,0.1,0,0.1,0l0,0c2.8,0,5.4,0.9,8.1,1.8c0,0,0.1,0,0.1,0
		c0.1,0,0.2,0,0.2-0.1l0,0c0.1,0,0.1-0.1,0.1-0.1l0,0c0.1-0.2,0.1-0.4,0-0.6l0,0l-2.4-2.6c-0.1-0.1-0.2-0.1-0.3-0.1
		c-5.5-0.1-10.8-0.3-14.2-1.6c-3.1-1.2-4.5-3.2-5.9-5.5l0,0l0,0l0,0v0l0,0c2-0.5,3.9-1,5.9-1c0.5,0,1.1,0,1.6,0.1
		c2.8,0.4,5.8,1.8,8.8,3.4l0,0c0.1,0,0.1,0,0.2,0c0.1,0,0.3-0.1,0.4-0.2l0,0c0.1-0.2,0.1-0.4,0-0.6l0,0l-2.6-3.3
		c-0.1-0.1-0.2-0.1-0.3-0.2l-0.3,0c-4.7-0.8-9.2-1.6-12.2-2.7c-2.6-1-3.9-2.3-5.2-3.7l0,0l0,0l0,0c0,0,0,0,0,0l0,0
		c2-1,4-1.9,5.9-1.9c0.2,0,0.4,0,0.6,0c2.3,0.2,4.5,1.9,7,3.7c0.1,0.1,0.2,0.1,0.3,0.1c0.1,0,0.2,0,0.3-0.1l0.1,0
		c0.1-0.2,0.2-0.4,0.1-0.6l0,0l-3.8-5.9c-0.1-0.1-0.2-0.2-0.4-0.2c0,0-0.1,0-0.1,0c-3.2,0.8-6.4,1.6-9,1.6c-0.3,0-0.5,0-0.8,0
		c-2.5-0.2-4.4-1.2-6.4-2.3l0,0l0,0l0,0l0,0l0,0c0.8-0.8,1.7-1.5,2.5-2.1c0.8-0.6,1.7-1,2.5-1.2c0.5-0.1,1.1-0.2,1.7-0.2
		c1.5,0,3.2,0.4,5,0.8l0,0l0,0c0,0,0.1,0,0.1,0c0.1,0,0.2,0,0.2-0.1l0,0c0.1-0.1,0.1-0.1,0.2-0.2l0,0c0.1-0.2,0-0.4-0.1-0.6l-0.1,0
		l-3.5-2.2c-0.1,0-0.2-0.1-0.2-0.1c0,0-0.1,0-0.1,0c-3,0.9-6,1.7-8.3,1.7c-0.5,0-1,0-1.4-0.1l0,0c-2.2-0.4-3.7-2.1-5.2-3.9l0,0l0,0
		l0,0v0l0,0c1.9-0.9,3.8-1.7,5.6-2.1c1-0.2,1.9-0.3,2.8-0.3c0.9,0,1.8,0.1,2.7,0.1c0,0,0,0,0,0l0,0c0.1,0,0.2,0,0.2-0.1l0,0
		c0.1-0.1,0.1-0.1,0.2-0.2l0,0c0.1-0.2,0-0.4-0.1-0.5l-0.1,0l-3.7-2.7c-0.1-0.1-0.2-0.1-0.3-0.1c-0.1,0-0.1,0-0.2,0
		c-3.4,1.5-6.7,3-9.4,3c-0.3,0-0.5,0-0.8,0c-2.6-0.3-4.7-2.3-6.8-4.6l0,0l0,0l0,0v0c0.3-0.2,0.3-0.2,0.6-0.4c1.5-1,2.9-1.9,4.5-2.4
		c1.1-0.3,2.3-0.4,3.6-0.4c0.9,0,1.9,0.1,2.9,0.1c0,0,0,0,0,0l0,0c0.1,0,0.2,0,0.2-0.1l0,0c0.1,0,0.1-0.1,0.2-0.2l0,0
		c0.1-0.2,0-0.4-0.1-0.5l0,0l-4.6-4.9c-0.1-0.1-0.2-0.1-0.3-0.1c-0.1,0-0.2,0-0.3,0.1v0l0,0c-1.3,0.9-2.5,1.7-3.7,2.4l0,0
		c-1.8,1-3.5,1.8-5.2,1.8c-2.6,0-5-1.8-7.5-3.8l0,0l0,0l0,0l0,0l0,0c1-0.9,1.9-1.8,3-2.5c0.6-0.4,1.2-0.8,1.8-1.1
		c1.9-0.9,4-1.2,6.3-1.5c0.1,0,0.1,0,0.2-0.1l0,0c0.1-0.1,0.2-0.2,0.2-0.3l0,0c0-0.2,0-0.4-0.1-0.5l-0.1,0l-4.1-3.4h0
		c-0.1-0.1-0.2-0.1-0.3-0.1c-0.1,0-0.2,0-0.3,0.1v0l0,0c-1.2,1.1-2.3,2.1-3.4,3l0,0c0,0,0,0,0,0c-1.1,0.8-2.3,1.4-3.5,1.5
		c-0.2,0-0.3,0-0.5,0c-2.1,0-4.6-1.3-7.1-2.7l0,0l0,0l0,0l0,0l0,0l0,0c0.5-0.4,1.2-0.9,1.7-1.2c1.6-1.1,3-2,4.4-2.5
		c0.9-0.3,1.8-0.5,2.6-0.5c0.8,0,1.7,0.1,2.5,0.2c0,0,0,0,0.1,0c0.2,0,0.4-0.1,0.4-0.3c0.1-0.2,0-0.5-0.3-0.5l-4.4-2
		c-0.1,0-0.1,0-0.2,0c-0.1,0-0.1,0-0.2,0c-3,1.5-5.9,3-8,3c0,0-0.1,0-0.1,0c-1.9-0.1-3.1-1.3-4.4-2.9l0,0l0,0l5.4-4.3l0.1,0
		c0.2-0.2,0.2-0.4,0.1-0.6l0,0c-0.1-0.1-0.2-0.2-0.4-0.2c-0.1,0-0.1,0-0.2,0.1c0,0-0.1,0-0.1,0l0,0l0,0l0,0l0,0
		c-1.3,0.7-2.6,1.3-4.2,1.3c-0.4,0-0.7,0-1.1-0.1v0c-2.2-0.4-5.1-1.9-8.1-3.5l0,0l0,0l0,0l3.9-4l0,0c0.1-0.2,0.2-0.4,0.1-0.6l0,0
		c-0.1-0.1-0.2-0.2-0.4-0.2c-0.1,0-0.1,0-0.2,0c-2.2,0.8-4.2,1.6-6,1.7c-0.1,0-0.2,0-0.2,0c-1.5,0-2.9-0.5-4.3-1.1l0,0l0,0l0,0
		l1.8-3.5c0,0,0-0.1,0-0.2l0,0c0-0.1,0-0.3-0.1-0.4l0,0c-0.1-0.1-0.2-0.2-0.3-0.2c-0.1,0-0.1,0-0.2,0v0l0,0l0,0
		c-1.1,0.5-2.2,0.9-3.3,0.9c-0.6,0-1.1-0.1-1.7-0.4c-1.7-0.7-3.7-2.7-5.8-4.8l0,0l0,0l7.9-1.9c0,0,0.1,0,0.1,0l0,0
		c0.1-0.1,0.2-0.1,0.2-0.3l0,0c0-0.2,0-0.3-0.1-0.4l0,0c-1.1-1.3-2.1-2.5-2.7-3.8C131.2,437.9,131,436.7,130.8,435.3L130.8,435.3
		L130.8,435.3z M130.8,435.3"/>
	<path style="clip-path:url(#SVGID_00000010280315868898935320000007239033858348060288_);fill:#FEC91E;" d="M236.1,541.1l-5.7-8.4
		c-0.1-0.2-0.1-0.4,0-0.5l0,0l0,0l0,0c1.7-2.9,3.4-5.6,3.4-9.6c0-4-1.7-9.3-3.4-14.7l0,0l0,0l0.9,0c-1.1,3.4-2.2,6.8-2.9,9.9
		c-0.7,3.1-1,6-1.4,8.9c0,0.2-0.1,0.3-0.3,0.4c-0.2,0.1-0.4,0-0.5-0.1l-2.9-3.2c-0.1-0.1-0.2-0.3-0.1-0.5v0v0l0,0l0,0
		c1.6-4.8,3.2-9.4,3.1-13.4c-0.1-4-1.9-7.4-3.8-11l0.8,0l0,0l0,0c-1.1,3-2.2,5.9-2.7,9.2c-0.5,3.3-0.3,7-0.1,10.7
		c0,0.2-0.1,0.4-0.3,0.5c-0.2,0.1-0.4,0-0.5-0.2l-2.7-4c-0.1-0.1-0.1-0.2-0.1-0.4c1.1-4.5,2.2-8.9,1.7-12.9c-0.5-4-2.5-7.6-4.7-11.4
		l0.9-0.1c-0.8,3.4-1.5,6.8-1.7,9.9c-0.2,3.1,0.2,6,0.7,8.9l0,0l0,0c0,0.2-0.1,0.4-0.3,0.5c-0.2,0.1-0.4,0-0.6-0.2l-3.8-5.4
		c-0.1-0.1-0.1-0.3-0.1-0.4l0,0l0,0l0,0c1-4.4,2.1-8.7,1.5-12.6c-0.5-3.9-2.6-7.3-4.8-10.9l0,0l0,0l0.9-0.1
		c-0.9,3.3-1.9,6.5-2.1,9.5c-0.2,3,0.3,5.8,0.8,8.6c0,0.2,0,0.4-0.2,0.5c-0.2,0.1-0.4,0.1-0.5,0l-2.3-1.7c-0.1-0.1-0.2-0.3-0.2-0.4
		l0,0.1v0l0-0.1c0.4-3.8,0.9-7.6,0.1-10.7c-0.8-3.2-2.9-5.8-5-8.5l0.8-0.1l0,0.1c-0.7,1.9-1.5,3.8-1.5,5.9c-0.1,2.2,0.5,4.7,1.1,7.3
		c0,0.2,0,0.4-0.2,0.5c-0.2,0.1-0.4,0.1-0.5,0l-3.1-2c-0.2-0.1-0.2-0.3-0.2-0.4l0,0l0-0.2c0.4-3.4,0.7-6.7,0.1-9.7
		c-0.6-3-2.2-5.7-3.9-8.5l0,0v0l0.9-0.1c-0.8,2.4-1.7,4.8-1.9,6.8c-0.2,2,0.2,3.8,0.6,5.7l0,0.1v0c0,0.2-0.1,0.4-0.3,0.4
		c-0.2,0.1-0.4,0-0.5-0.1l-4.2-4.6c-0.1-0.1-0.2-0.3-0.1-0.5c1-3.1,2-6,1.2-9.1c-0.9-3.1-3.6-6.5-6.4-10l0,0l0,0l0.8-0.1l-0.1,0.1v0
		c-1,2.2-1.9,4.3-1.9,6.5c0,2.2,0.9,4.5,1.9,6.9c0.1,0.2,0,0.4-0.2,0.6c-0.2,0.1-0.4,0.1-0.6-0.1l-4.2-4.1c-0.1-0.1-0.2-0.3-0.1-0.5
		l0-0.1v0c0.8-3,1.6-5.8,0.5-9.1c-1.1-3.3-4-7.1-7-10.9l0.8-0.2v0l0,0l0,0c-0.7,3.5-1.4,6.9-0.9,9.8c0.4,2.9,2,5.3,3.6,7.9
		c0.1,0.2,0.1,0.4-0.1,0.6c-0.1,0.2-0.4,0.2-0.6,0.1l-4.5-2.4c-0.2-0.1-0.3-0.3-0.2-0.4c0.1-3,0.2-5.9-0.8-9l0.1,0.2h0l-0.1-0.2
		c-1-3.1-3.2-6.4-5.5-9.7l0.8-0.1c-0.8,2.2-1.5,4.3-1.5,6.6v0v0c0,2.3,0.6,4.9,1.3,7.6l0,0.1v0c0,0.2-0.1,0.3-0.3,0.4
		c-0.2,0.1-0.4,0.1-0.5,0l-4.3-3.2c-0.1-0.1-0.2-0.3-0.2-0.5c0.6-3.5,1.1-6.9-0.3-9.9c-1.4-3.1-4.8-5.9-8.3-8.8l0.8-0.4
		c0,2.5,0,4.9,0.7,7.4c0.6,2.5,1.9,5.2,3.2,7.9c0.1,0.2,0,0.4-0.1,0.5c-0.1,0.1-0.4,0.2-0.5,0.1l-3.2-1.6c-0.1-0.1-0.2-0.2-0.3-0.4
		l0-0.2c-0.6-4.6-1.1-9.1-2.6-11.6c-1.5-2.4-3.8-3-6.5-3.6l0.6-0.4l-0.3,4c0,0.2-0.1,0.3-0.2,0.4c-0.1,0.1-0.3,0.1-0.5,0l-7.8-4.5
		l0.7-0.5c0.2,1.7,0.5,3.3,1.1,4.7c0.6,1.4,1.6,2.6,2.7,3.8c0.1,0.1,0.1,0.3,0.1,0.5c-0.1,0.2-0.2,0.3-0.3,0.3l-8.7,2.1l0.2-0.8
		c2.3,2.4,4.5,4.6,6.4,5.4c0.6,0.3,1.2,0.3,1.7,0.3c1.1,0,2.2-0.4,3.3-0.9c0.2-0.1,0.4,0,0.5,0.1c0.1,0.1,0.2,0.4,0.1,0.5l-2.1,3.9
		l-0.3-0.7l0,0l0,0c1.6,0.7,3.1,1.3,4.8,1.3c0.1,0,0.1,0,0.2,0c1.8-0.1,3.8-0.8,6-1.7c0.2-0.1,0.4,0,0.6,0.2
		c0.1,0.2,0.1,0.4-0.1,0.6l-4.4,4.4l-0.1-0.7c3.2,1.8,6.3,3.4,8.7,3.9c0.4,0.1,0.8,0.1,1.1,0.1c1.7,0,2.9-0.7,4.3-1.4
		c0.2-0.1,0.5,0,0.6,0.2c0.1,0.2,0.1,0.5-0.1,0.6l-5.7,4.6l0.1-0.7c1.5,1.7,2.7,3.2,4.7,3.3h0c0,0,0.1,0,0.1,0c2.1,0,5-1.4,8-3
		c0.1-0.1,0.3-0.1,0.4,0l4.4,2c0.2,0.1,0.3,0.3,0.3,0.6c-0.1,0.2-0.3,0.4-0.5,0.3l-0.1,0c-0.8-0.1-1.6-0.2-2.4-0.2
		c-0.8,0-1.7,0.1-2.6,0.5c-1.9,0.7-4.2,2.4-6.6,4.1l-0.1,0h0l0-0.8c2.8,1.6,5.4,3.1,7.8,3.1c0.2,0,0.3,0,0.5,0
		c2.4-0.2,4.6-2.2,6.9-4.4c0.2-0.2,0.4-0.2,0.6,0l4.1,3.4c0.1,0.1,0.2,0.3,0.1,0.5c-0.1,0.2-0.2,0.3-0.4,0.3
		c-2.3,0.3-4.4,0.6-6.3,1.5c-1.9,0.9-3.5,2.4-5.1,3.9l0,0v0l0-0.7c2.7,2.2,5.3,4.2,8,4.2c2.7,0,5.7-2,8.8-4.2
		c0.2-0.1,0.5-0.1,0.6,0.1l4.6,4.9c0.1,0.1,0.2,0.3,0.1,0.5c-0.1,0.2-0.3,0.3-0.5,0.3l-0.2,0c-0.9-0.1-1.8-0.1-2.7-0.1
		c-1.3,0-2.5,0.1-3.6,0.4c-2,0.6-3.7,1.8-5.5,3.1l0.1-0.7h0v0l0,0c2.3,2.4,4.4,4.7,7.2,5c0.3,0,0.5,0,0.8,0c2.7,0,6-1.5,9.4-3
		c0.2-0.1,0.3-0.1,0.5,0l3.7,2.7c0.2,0.1,0.2,0.3,0.2,0.5c-0.1,0.2-0.3,0.3-0.5,0.3l0,0c-0.9-0.1-1.8-0.1-2.7-0.1
		c-0.9,0-1.9,0.1-2.8,0.3c-1.9,0.4-4,1.3-6.1,2.3l0.2-0.7l0,0.1l0,0c1.6,2,3.1,3.9,5.5,4.3l-0.1,0h0l0.1,0c0.4,0.1,0.9,0.1,1.4,0.1
		c2.3,0,5.3-0.8,8.3-1.7l0.1,0l0.3,0.1l3.5,2.2c0.2,0.1,0.3,0.4,0.2,0.6c-0.1,0.2-0.3,0.3-0.5,0.3l0,0l0,0l0,0l0,0
		c-1.7-0.4-3.4-0.8-5-0.8c-0.6,0-1.2,0.1-1.7,0.2l-0.1,0l0.1,0c-2,0.5-3.7,2.1-5.5,3.8l-0.1,0.1l0,0l0-0.8c2.1,1.3,4.2,2.5,6.9,2.7
		c0.3,0,0.5,0,0.8,0c2.6,0,5.8-0.8,9-1.6l0,0c0.2,0,0.4,0,0.5,0.2l3.8,5.9c0.1,0.2,0.1,0.4-0.1,0.6c-0.2,0.2-0.4,0.2-0.6,0l0,0l0,0
		l0,0l0,0c-2.4-1.8-4.7-3.5-6.9-3.7l0.1,0h0l-0.1,0c-0.2,0-0.4,0-0.6,0c-2,0-4.1,1.1-6.4,2.2l0.1-0.1h0v-0.7h0l0,0
		c1.3,1.5,2.6,3,5.6,4.2c3,1.2,7.7,2,12.4,2.8c0.1,0,0.2,0.1,0.3,0.2l2.6,3.3c0.1,0.2,0.1,0.4,0,0.6c-0.1,0.2-0.4,0.2-0.6,0.1
		l-0.1,0l0,0l0,0l0.1,0c-3.1-1.5-6-3-8.8-3.4l0.1,0h0l-0.1,0c-0.5-0.1-1.1-0.1-1.6-0.1c-2.2,0-4.3,0.6-6.5,1.1l0.3-0.7l0,0l0,0
		c1.5,2.5,3,4.8,6.3,6c3.4,1.3,8.7,1.4,14.2,1.6h0h0c0.1,0,0.3,0.1,0.3,0.2l2.4,2.6c0.1,0.2,0.2,0.4,0,0.6c-0.1,0.2-0.3,0.3-0.5,0.2
		c-2.7-0.9-5.3-1.8-8.2-1.8c0,0,0,0-0.1,0h0c-2.9,0-6,1-9.2,1.9l0.2-0.7l0.1,0.1c2.7,3.4,5.4,6.6,8.7,7.7c1,0.3,2.1,0.5,3.2,0.5
		c2.7,0,5.6-0.7,8.7-1.5c0.2-0.1,0.4,0,0.5,0.2l5,9l-0.7-0.1l3.6-2.7L236.1,541.1 M236.9,540.6c0.1,0.2,0.1,0.5-0.1,0.6l-3.6,2.7
		c-0.1,0.1-0.2,0.1-0.4,0.1c-0.1,0-0.2-0.1-0.3-0.2l-5-9l0.5,0.2c-3,0.8-6.1,1.5-8.9,1.5c-1.2,0-2.4-0.1-3.5-0.5
		c-3.7-1.2-6.4-4.6-9.1-8l-0.1-0.1c-0.1-0.1-0.1-0.3-0.1-0.4c0-0.2,0.2-0.3,0.3-0.3c3.2-1,6.4-1.9,9.5-2h0c0,0,0.1,0,0.1,0
		c3,0,5.8,0.9,8.5,1.9l-0.5,0.8l-2.4-2.6l0.3,0.2h0c-5.4-0.1-10.9-0.3-14.5-1.6c-3.6-1.4-5.2-4-6.8-6.4l0,0l0,0
		c-0.1-0.1-0.1-0.2,0-0.4c0.1-0.1,0.2-0.2,0.3-0.3c2.2-0.6,4.4-1.2,6.7-1.2c0.6,0,1.2,0,1.7,0.1l-0.1,0h0l0.1,0c3,0.4,6.1,2,9.1,3.5
		l0.1,0l0,0l0,0l-0.6,0.7l-2.6-3.3l0.3,0.2c-4.7-0.8-9.5-1.6-12.6-2.8c-3.2-1.2-4.6-2.9-5.9-4.4l0,0l0,0c-0.2-0.2-0.2-0.5,0-0.7l0,0
		l0.1-0.1c2.2-1.1,4.5-2.3,6.8-2.3c0.2,0,0.5,0,0.7,0l-0.1,0h0l0.1,0c2.6,0.3,5,2.1,7.4,3.9l0,0l0,0l0,0l-0.7,0.6l-3.8-5.9l0.5,0.2
		l0,0c-3.2,0.8-6.5,1.6-9.2,1.6c-0.3,0-0.6,0-0.9,0c-3-0.2-5.2-1.5-7.3-2.8c-0.1-0.1-0.2-0.3-0.2-0.4c0-0.2,0.1-0.3,0.3-0.4l0,0
		l-0.1,0.1c1.8-1.6,3.6-3.4,5.9-4l0.1,0l-0.1,0c0.6-0.2,1.3-0.2,1.9-0.2c1.7,0,3.5,0.4,5.2,0.9l0,0l0,0l0,0l-0.4,0.9l-3.5-2.2
		l0.3,0.1l0.1,0c-3,0.8-6,1.7-8.5,1.7c-0.6,0-1.1,0-1.6-0.1l0.1,0h0l-0.1,0c-2.8-0.5-4.5-2.7-6.1-4.7l0,0l0-0.1
		c-0.1-0.1-0.1-0.3-0.1-0.4c0-0.1,0.1-0.3,0.3-0.3c2.1-1,4.2-1.9,6.3-2.4c1-0.2,2-0.3,3-0.3c0.9,0,1.9,0.1,2.8,0.1l0,0l-0.3,0.9
		l-3.7-2.7l0.5,0c-3.3,1.5-6.8,3.1-9.8,3.1c-0.3,0-0.6,0-0.9-0.1c-3.2-0.4-5.6-2.9-7.8-5.3l0,0h0v0c-0.1-0.1-0.1-0.2-0.1-0.4
		c0-0.1,0.1-0.3,0.2-0.3c1.8-1.3,3.7-2.7,5.8-3.3c1.2-0.4,2.5-0.5,3.9-0.5c0.9,0,1.8,0,2.7,0.1l0.2,0l-0.4,0.8l-4.6-4.9l0.6,0.1
		c-3.1,2.1-6.3,4.4-9.4,4.4c-3.1,0-5.9-2.3-8.6-4.4c-0.1-0.1-0.2-0.2-0.2-0.3c0-0.1,0-0.3,0.1-0.4h0l0,0c1.6-1.5,3.4-3.1,5.4-4.1
		c2-1,4.3-1.3,6.6-1.6l-0.2,0.8l-4.1-3.4l0.6,0c-2.3,2.1-4.7,4.4-7.5,4.7c-0.2,0-0.4,0-0.6,0c-2.6,0-5.5-1.6-8.2-3.2
		c-0.2-0.1-0.2-0.2-0.2-0.4c0-0.2,0.1-0.3,0.3-0.4h0l-0.1,0c2.3-1.7,4.7-3.5,6.8-4.3c1.1-0.4,2-0.5,3-0.5c0.9,0,1.8,0.1,2.6,0.2
		l0.1,0l-0.3,0.9l-4.4-2l0.4,0c-2.9,1.5-6.1,3.1-8.4,3.1c-0.1,0-0.1,0-0.2,0h0c-2.5-0.1-4-2-5.4-3.6c-0.1-0.1-0.1-0.2-0.1-0.4
		c0-0.1,0.1-0.2,0.2-0.3l5.7-4.6l0.5,0.8c-1.4,0.7-2.8,1.5-4.8,1.5c-0.4,0-0.8,0-1.3-0.1c-2.5-0.4-5.8-2.2-9-4
		c-0.1-0.1-0.2-0.2-0.2-0.3c0-0.1,0-0.3,0.1-0.4l4.4-4.4l0.5,0.8c-2.1,0.8-4.3,1.7-6.3,1.7c-0.1,0-0.2,0-0.3,0
		c-1.9,0-3.6-0.7-5.2-1.4l0,0h0c-0.2-0.1-0.3-0.2-0.3-0.3c0-0.1,0-0.3,0-0.4l2.1-3.9l0.6,0.7c-1.1,0.4-2.4,0.9-3.7,0.9
		c-0.7,0-1.4-0.1-2.1-0.4c-2.1-0.9-4.5-3.3-6.7-5.6c-0.1-0.1-0.2-0.3-0.1-0.5c0-0.2,0.2-0.3,0.3-0.3l8.7-2.1l-0.2,0.8
		c-1.1-1.2-2.2-2.5-2.9-4.1c-0.7-1.5-0.9-3.3-1.2-4.9c0-0.2,0.1-0.4,0.2-0.5c0.1-0.1,0.3-0.1,0.5,0l7.8,4.5l-0.7,0.4l0.3-4
		c0-0.1,0.1-0.3,0.2-0.3c0.1-0.1,0.3-0.1,0.4-0.1c2.6,0.6,5.4,1.2,7.1,4c1.6,2.7,2.2,7.4,2.8,11.9l0,0.2l-0.3-0.4l3.2,1.6l-0.6,0.6
		c-1.3-2.7-2.6-5.4-3.3-8.1c-0.7-2.7-0.7-5.2-0.7-7.7c0-0.2,0.1-0.4,0.3-0.4c0.2-0.1,0.4-0.1,0.5,0.1c3.5,2.9,7.1,5.8,8.6,9.1
		c1.5,3.3,0.9,7,0.3,10.4l-0.2-0.5l4.3,3.2l-0.8,0.4v0l0,0.1c-0.7-2.6-1.3-5.4-1.3-7.9v0v0c0-2.5,0.8-4.7,1.6-6.9
		c0.1-0.2,0.2-0.3,0.4-0.3c0.2,0,0.4,0.1,0.5,0.2c2.2,3.3,4.5,6.7,5.6,10l-0.1-0.2l0,0l0.1,0.2c1.1,3.3,1,6.3,0.9,9.3l-0.2-0.4
		l4.5,2.4l-0.6,0.7c-1.6-2.5-3.3-5.1-3.7-8.3c-0.5-3.1,0.2-6.7,0.9-10.1l0,0v0l0,0c0-0.2,0.2-0.3,0.4-0.4c0.2,0,0.4,0,0.5,0.2
		c3,3.8,6.1,7.7,7.2,11.2c1.1,3.5,0.3,6.6-0.5,9.6l0,0.1l-0.1-0.5l4.2,4.1l-0.8,0.5c-1-2.4-2-4.9-2-7.3c0-2.4,1-4.7,2-6.9l0.1-0.1
		c0.1-0.2,0.2-0.3,0.4-0.3c0.2,0,0.3,0.1,0.4,0.2l0,0l0,0c2.8,3.4,5.7,7,6.6,10.4c0.9,3.4-0.2,6.6-1.2,9.7L185,478l4.2,4.6l-0.8,0.3
		v0l0,0.1c-0.4-1.9-0.8-3.8-0.6-6c0.2-2.2,1.1-4.7,1.9-7c0.1-0.2,0.2-0.3,0.4-0.3c0.2,0,0.4,0.1,0.5,0.3v0l0,0
		c1.6,2.8,3.3,5.6,4,8.8v0c0.7,3.1,0.3,6.6,0,10l0,0.2l-0.2-0.4l3.1,2l-0.7,0.5c-0.6-2.5-1.2-5.2-1.1-7.5c0.1-2.3,0.9-4.3,1.6-6.2
		l0-0.1c0.1-0.2,0.2-0.3,0.4-0.3c0.2,0,0.3,0,0.4,0.2c2.1,2.7,4.3,5.5,5.2,8.8c0.9,3.4,0.4,7.3,0,11.1l0-0.1v0l-0.2-0.4l2.3,1.7
		l-0.7,0.5c-0.5-2.8-1-5.8-0.8-8.9c0.2-3.1,1.2-6.4,2.1-9.7c0.1-0.2,0.2-0.3,0.4-0.3c0.2,0,0.4,0.1,0.5,0.3l0,0l0,0
		c2.1,3.5,4.3,7.1,4.9,11.2c0.6,4.1-0.5,8.6-1.5,12.9l0,0l-0.1-0.4l3.8,5.4l-0.9,0.3l0,0l0,0c-0.4-2.9-0.8-5.9-0.7-9.1
		c0.2-3.2,0.9-6.7,1.7-10.1c0-0.2,0.2-0.3,0.4-0.4c0.2,0,0.4,0.1,0.5,0.2c2.1,3.7,4.3,7.5,4.8,11.7c0.5,4.2-0.6,8.8-1.7,13.3
		l-0.1-0.4l2.7,4l-0.9,0.3c-0.2-3.7-0.3-7.5,0.1-10.9c0.5-3.4,1.6-6.4,2.7-9.4l0,0l0,0l0,0c0-0.1,0.2-0.2,0.4-0.3
		c0.2,0,0.4,0.1,0.4,0.2c1.9,3.5,3.8,7.2,3.9,11.4c0.1,4.2-1.5,9.1-3.2,13.8l0,0l0,0v0l-0.1-0.5l2.9,3.2l-0.8,0.3
		c0.3-2.9,0.7-5.8,1.4-9c0.7-3.2,1.8-6.6,2.9-10c0.1-0.2,0.2-0.3,0.4-0.3c0.2,0,0.4,0.1,0.5,0.3l0,0l0,0c1.7,5.3,3.4,10.8,3.4,15
		c0,4.3-1.8,7.2-3.5,10.1l0,0l0,0l0-0.5L236.9,540.6z M236.9,540.6"/>
	<path style="clip-path:url(#SVGID_00000010280315868898935320000007239033858348060288_);fill:#EAEAEA;" d="M999.4,500.4"/>
</g>
</svg>
