<?xml version="1.0" encoding="utf-8"?>
<!-- Generator: Adobe Illustrator 28.0.0, SVG Export Plug-In . SVG Version: 6.00 Build 0)  -->
<svg version="1.1" id="Layer_1" xmlns="http://www.w3.org/2000/svg" xmlns:xlink="http://www.w3.org/1999/xlink" x="0px" y="0px"
	 viewBox="0 0 1000 1000" style="enable-background:new 0 0 1000 1000;" xml:space="preserve">
<style type="text/css">
	
		.st0{clip-path:url(#SVGID_00000026844655533626601150000015734068548630175378_);fill-rule:evenodd;clip-rule:evenodd;fill:#006400;}
	
		.st1{clip-path:url(#SVGID_00000026844655533626601150000015734068548630175378_);fill-rule:evenodd;clip-rule:evenodd;fill:#FFD200;}
	
		.st2{clip-path:url(#SVGID_00000026844655533626601150000015734068548630175378_);fill-rule:evenodd;clip-rule:evenodd;fill:#D40000;}
	.st3{clip-path:url(#SVGID_00000026844655533626601150000015734068548630175378_);fill-rule:evenodd;clip-rule:evenodd;}
	
		.st4{clip-path:url(#SVGID_00000026844655533626601150000015734068548630175378_);fill-rule:evenodd;clip-rule:evenodd;fill:#EFEFEF;}
</style>
<g>
	<g>
		<defs>
			<path id="SVGID_1_" d="M500,0.1c275.7,0,499.5,223.8,499.5,499.5c0,275.7-223.8,499.5-499.5,499.5
				C224.3,999.1,0.5,775.3,0.5,499.6C0.5,224,224.3,0.1,500,0.1L500,0.1z"/>
		</defs>
		<use xlink:href="#SVGID_1_"  style="overflow:visible;fill-rule:evenodd;clip-rule:evenodd;"/>
		<clipPath id="SVGID_00000140736267192686445770000006068746924453173686_">
			<use xlink:href="#SVGID_1_"  style="overflow:visible;"/>
		</clipPath>
		
			<polygon style="clip-path:url(#SVGID_00000140736267192686445770000006068746924453173686_);fill-rule:evenodd;clip-rule:evenodd;fill:#006400;" points="
			999.5,0.1 0.4,0.1 0.4,999.1 999.5,999.1 999.5,0.1 		"/>
		
			<polygon style="clip-path:url(#SVGID_00000140736267192686445770000006068746924453173686_);fill-rule:evenodd;clip-rule:evenodd;fill:#FFD200;" points="
			999.5,143.3 0.4,143.3 0.4,856.4 999.5,856.4 999.5,143.3 		"/>
		
			<polygon style="clip-path:url(#SVGID_00000140736267192686445770000006068746924453173686_);fill-rule:evenodd;clip-rule:evenodd;fill:#D40000;" points="
			999.5,285.7 0.4,285.7 0.4,713.8 999.5,713.8 999.5,285.7 		"/>
		
			<polygon style="clip-path:url(#SVGID_00000140736267192686445770000006068746924453173686_);fill-rule:evenodd;clip-rule:evenodd;" points="
			999.5,428.6 0.4,428.6 0.4,570.7 999.5,570.7 999.5,428.6 		"/>
		
			<polygon style="clip-path:url(#SVGID_00000140736267192686445770000006068746924453173686_);fill-rule:evenodd;clip-rule:evenodd;" points="
			43.1,999.1 715.8,500.3 41.3,0.1 0.4,0.1 0.4,999.1 43.1,999.1 		"/>
		
			<polygon style="clip-path:url(#SVGID_00000140736267192686445770000006068746924453173686_);fill-rule:evenodd;clip-rule:evenodd;fill:#EFEFEF;" points="
			668,499.6 0.4,999.1 0.4,0.1 668,499.6 		"/>
		
			<polygon style="clip-path:url(#SVGID_00000140736267192686445770000006068746924453173686_);fill-rule:evenodd;clip-rule:evenodd;fill:#D40000;" points="
			254.5,252.4 304,404.7 464.2,404.7 334.6,498.9 384.1,651.3 254.5,557.1 124.9,651.3 174.4,498.9 44.8,404.7 205,404.7 
			254.5,252.4 		"/>
		
			<path style="clip-path:url(#SVGID_00000140736267192686445770000006068746924453173686_);fill-rule:evenodd;clip-rule:evenodd;fill:#FFD200;" d="
			M194.9,606l-12.3-49.8l-7-20.3l-0.1-13.4l22.9-30l6.7-15c-4-13-4.9-23.9,1.3-43.8l-1.8-61.7l-6.1-8.2l-18.3-1.1l4.4-14.9
			c6.5-2.8,13-3.9,19.5-2c2.9-4.4,6.7-8.1,11.6-10.9c10.1-1.8,18.7,0.4,25.4,7.5l4.8,7.7c3.8,6.5,5.3,14.3,5.9,22.7l1.6,29.7
			l114.4,89c1,7.5-2.2,11.5-11.9,9.7l-9.2,4.3L331,523.9c-12,28.8-14.7,55.5-17,81.8L194.9,606L194.9,606z"/>
		
			<path style="clip-path:url(#SVGID_00000140736267192686445770000006068746924453173686_);fill-rule:evenodd;clip-rule:evenodd;" d="
			M195.3,364.2c0.1,0.1,0.2,0.1,0.3,0.1c5.4,2.1,7.3,6.2,7.9,10.5c1.7,11.4,1.9,56,1.9,59.4c-1.4,2.3-5.3,9.9-4.4,21.4
			c0.3,4.1,1.5,9.1,2.2,14.1c0.7,4.8,0.9,9.6-0.8,13.8c-2.2,5.5-7.9,12.2-13.7,19c-5.9,7-11.8,14-14,19.6
			c-4.1,10.8,2.7,23.2,2.7,23.2c0.1,0.2,0.3,0.4,0.5,0.5c0.7,2.2,1.4,4.4,2.1,6.6c0,0.2,0.1,0.4,0.2,0.6l-2.7-8.5
			c6.5,20.2,11.4,41,16.2,61.8c0.1,0.6,0.7,1,1.3,1l119.2-0.5c0.7,0,1.3-0.6,1.3-1.3c0,0,0-26.2,6.6-52.6
			c5.4-21.9,15.2-44,33.4-50.9c0,0,0,0,0,0c0.9,0.2,1.8,0.4,2.6,0.6c3.8,0.8,6.7-0.3,8.5-2.1c2.8-2.8,3-7.6-0.7-10.7
			c-17.5-15.4-104.6-82.3-112.1-88c0-5-0.2-37.6-5.6-48.9c-5.3-11.2-15.1-23.2-31.8-18.6c-6.6,1.8-11.6,7.8-13.2,9.8
			c-9.1-1.2-16,0.5-19.8,5.1c-2.7,3.2-4,7.8-3.6,14.2c0,0.7,0.6,1.2,1.3,1.2L195.3,364.2L195.3,364.2z M212,582.2l-10.1-28.6
			l-18.8,0c5,16.8,9,33.9,12.9,51l16.3-0.1l0-21.2c-0.2-0.2-0.3-0.5-0.3-0.8C212,582.5,212,582.3,212,582.2L212,582.2z M314.2,583.7
			l-99.4,0.2l0,20.6l98-0.4C313,601.2,313.2,593.6,314.2,583.7L314.2,583.7z M212.9,576.8l1.6,4.6l13.6,0c0,0,0,0-0.1-0.1l-9.3-9.9
			L212.9,576.8L212.9,576.8z M248.2,581.3l-9.3-9.9l-8.9,9.8c0,0-0.1,0.1-0.1,0.1L248.2,581.3L248.2,581.3z M250.3,581.3l18.6,0
			c-0.2-0.1-0.4-0.2-0.6-0.3l-9.2-9.7L250.3,581.3L250.3,581.3z M289.1,581.2c-0.1-0.1-0.2-0.1-0.3-0.2l-9.1-9.6l-9.5,9.6
			c-0.1,0.2-0.3,0.3-0.5,0.3L289.1,581.2L289.1,581.2z M309,581.2c-0.1,0-0.1-0.1-0.1-0.1l-9-9.9l-9.1,9.9c-0.1,0.1-0.2,0.2-0.3,0.2
			L309,581.2L309,581.2z M315,576.6l-4.3,4.4c0,0-0.1,0.1-0.1,0.1l3.9,0C314.7,579.7,314.8,578.2,315,576.6L315,576.6z M318.1,558.7
			l-7.4,7.5c-0.3,0.3-0.6,0.4-1,0.4c-0.4,0-0.7-0.2-0.9-0.4l-9-9.9l-9.1,9.9c-0.2,0.3-0.6,0.4-0.9,0.4c-0.4,0-0.7-0.1-1-0.4
			l-9.1-9.6l-9.5,9.6c-0.2,0.3-0.6,0.4-0.9,0.4c-0.4,0-0.7-0.2-0.9-0.4l-9.2-9.7l-9,10.2c-0.2,0.3-0.6,0.4-1,0.4
			c-0.4,0-0.7-0.1-1-0.4l-9.5-10l-8.9,9.8c-0.2,0.3-0.6,0.4-0.9,0.4c-0.4,0-0.7-0.1-1-0.4l-9.3-9.9l-9.7,9.1l3,8.5l5.9-5.5
			c0.5-0.5,1.3-0.5,1.8,0.1l9.3,9.8l8.9-9.8c0.2-0.3,0.6-0.4,0.9-0.4c0.4,0,0.7,0.1,1,0.4l9.4,10l9-10.2c0.2-0.3,0.6-0.4,1-0.4
			s0.7,0.1,1,0.4l9.2,9.7l9.5-9.6c0.2-0.3,0.6-0.4,0.9-0.4c0.4,0,0.7,0.2,0.9,0.4l9.1,9.6l9.2-9.9c0.2-0.3,0.6-0.4,1-0.4
			c0.4,0,0.7,0.2,1,0.4l9.1,10l5.3-5.4c0.1-0.1,0.3-0.2,0.5-0.3C316.3,568.1,317.1,563.4,318.1,558.7L318.1,558.7z M258.2,553.5
			l-18.6,0c0.1,0,0.1,0.1,0.2,0.2l9.4,10L258.2,553.5C258.2,553.5,258.2,553.5,258.2,553.5L258.2,553.5z M238,553.5l-18.6,0
			c0.1,0,0.1,0.1,0.2,0.2l9.3,9.8l8.9-9.8C237.9,553.7,238,553.6,238,553.5L238,553.5z M319.2,553.4l-18.5,0l9,9.9l9.3-9.4
			c0,0,0,0,0.1-0.1C319.2,553.7,319.2,553.6,319.2,553.4L319.2,553.4z M298.8,553.4l-18.4,0c0.1,0.1,0.2,0.1,0.2,0.2l9.1,9.6
			L298.8,553.4L298.8,553.4z M279,553.5l-18.8,0l9.2,9.7l9.5-9.6C278.8,553.6,278.9,553.5,279,553.5L279,553.5z M217.9,553.6
			l-13.3,0l3.3,9.3l9.8-9.2C217.8,553.6,217.9,553.6,217.9,553.6L217.9,553.6z M180.2,544.3c0.7,2.3,1.4,4.5,2.1,6.8l7.9,0
			c0-0.2-0.1-0.5-0.1-0.9c-0.4,0-0.8-0.2-1-0.6l-6.2-10.4L180.2,544.3L180.2,544.3z M193.1,551l9.3,0l-3.6-12.2L193.1,551L193.1,551
			z M239.5,516.8c-0.1,0-0.1,0-0.2,0l0,0c-9.1,3.7-18.5,7.3-24,11.2c-3.4,2.4-5.7,6.6-7.2,10.7c-2.1,5.6-2.8,11.2-3,12.3l114.8-0.2
			c3.1-12.3,7.7-24.5,14.3-34.2L239.5,516.8L239.5,516.8z M249.2,520.9c-7.1,0-12.9,5.8-12.9,12.9c0,7.1,5.8,12.9,12.9,12.9
			c7.1,0,12.9-5.8,12.9-12.9C262.1,526.7,256.3,520.9,249.2,520.9L249.2,520.9z M295.2,520.9c-7.1,0-12.9,5.8-12.9,12.9
			c0,7.1,5.8,12.9,12.9,12.9s12.9-5.8,12.9-12.9C308.1,526.7,302.3,520.9,295.2,520.9L295.2,520.9z M252.8,404l-45,31.3
			c-0.9,1.4-5.1,8.6-4.3,20.2c0.3,4.1,1.5,8.9,2.2,13.9c0.7,5.2,0.9,10.5-0.9,15.2c-2.2,5.7-8.2,12.7-14.1,19.7
			c-5.7,6.7-11.5,13.4-13.6,18.8c-2.7,7.1-0.1,14.9,1.5,18.7l3-5.9c0.2-0.4,0.6-0.7,1.1-0.7c0.5,0,0.9,0.2,1.2,0.6l5.9,10
			c-0.1-3.2-0.1-7.4,0.4-11.8c0.7-6.3,2.4-13,6.1-18c9.3-12.9,19.7-16.3,27.9-23.8c4.1-3.7,4.8-7.3,5-11.7c0.2-3.1,0.1-6.6,0.7-10.7
			c0.3-1.8,1.3-3.4,2.5-4.6c1.6-1.7,3.5-2.8,3.5-2.8c0.6-0.3,1.4-0.1,1.8,0.5c0.3,0.6,0.1,1.4-0.5,1.8c0,0-1.5,0.8-2.9,2.3
			c-0.8,0.9-1.6,2-1.8,3.3c-0.8,5-0.5,9.1-0.9,12.8c-0.5,4-1.7,7.5-5.6,11.1c-8.1,7.4-18.4,10.7-27.5,23.4
			c-3.4,4.6-4.9,10.9-5.6,16.8c-0.5,4.6-0.5,8.9-0.4,12l5.4-11.6c0.2-0.5,0.7-0.8,1.3-0.8c0.5,0,1,0.4,1.2,0.9
			c0,0,3.2,10.6,3.2,10.6c0.5-2.2,1.2-4.9,2.2-7.6c1.7-4.6,4.3-9.2,8.2-11.9c9.2-6.6,29.9-12.4,41.1-19.2
			c10.8-6.5,15.6-11.2,18-15.5c2.1-3.9,2.2-7.4,3-11.5c-11.7-3.1-22.5-5.7-27.8-9c-16.4-10-11-29.7-11-29.7c0.2-0.7,0.9-1.1,1.6-0.9
			c0.7,0.2,1.1,0.9,0.9,1.6c0,0-4.8,17.8,9.9,26.8c5.3,3.2,16.1,5.8,27.8,8.9c0.1,0,0.3,0,0.5,0c0.2,0,0.3,0.1,0.5,0.2
			c2.1,0.6,4.2,1.1,6.3,1.7c28.5,8,61.2,17.8,74.2,20.5c2.7,0.6,4.8-0.1,6.1-1.4c1.8-1.8,1.8-4.9-0.5-7
			C347.1,476.5,262.7,411.6,252.8,404L252.8,404z M249.2,523.5c5.7,0,10.3,4.6,10.3,10.3c0,5.7-4.6,10.3-10.3,10.3
			c-5.7,0-10.3-4.6-10.3-10.3C238.9,528.1,243.5,523.5,249.2,523.5L249.2,523.5z M295.2,523.5c5.7,0,10.3,4.6,10.3,10.3
			c0,5.7-4.6,10.3-10.3,10.3c-5.7,0-10.3-4.6-10.3-10.3C284.9,528.1,289.5,523.5,295.2,523.5L295.2,523.5z M306.9,488.5
			c-4.2,7.7-12.5,10.8-21.1,10.8c-3.1,0-6.7-0.5-9.7-1.3c-1.4-0.3-2.7-0.7-4.1-1.2c0,0,0,0,0,0c-3,3.4-7.9,7.3-15.8,12
			c-3,1.8-6.7,3.6-10.7,5.3l90.6-0.2c4.3-5.6,9.3-10.2,15.3-13.1C340.6,498.2,324.1,493.4,306.9,488.5L306.9,488.5z M278.4,480.4
			c-0.8,4.3-1,8-3.2,12c-0.4,0.7-0.9,1.5-1.4,2.2c1,0.3,2,0.6,3,0.8c2.8,0.7,6.3,1.2,9.1,1.2c7.4,0,14.7-2.5,18.5-9
			c-6.9-2-13.8-4-20.6-5.9C282,481.4,280.1,480.9,278.4,480.4L278.4,480.4z M251.3,401.8c0-3.9,0-36.8-5.4-48
			c-4.9-10.2-13.5-21.4-28.8-17.2c-7.2,2-12.2,9.4-12.2,9.4c-0.3,0.4-0.8,0.6-1.3,0.6c-8.4-1.2-14.7-0.1-18.3,4.1
			c-2.1,2.6-3.2,6.2-3,11.1l26.9-0.5c0.7,0,1.3,0.6,1.3,1.3c0,0.7-0.6,1.3-1.3,1.3l-8.9,0.2c3.5,2.7,5,6.4,5.6,10.4
			c1.5,10.3,1.8,47.5,1.9,57.5L251.3,401.8L251.3,401.8z M222.5,346.3c-4.1,0-7.5,3.4-7.5,7.5c0,4.1,3.4,7.5,7.5,7.5
			c4.1,0,7.5-3.4,7.5-7.5C230,349.7,226.6,346.3,222.5,346.3L222.5,346.3z M222.5,348.9c2.7,0,4.9,2.2,4.9,4.9
			c0,2.7-2.2,4.9-4.9,4.9c-2.7,0-4.9-2.2-4.9-4.9C217.5,351.1,219.7,348.9,222.5,348.9L222.5,348.9z"/>
	</g>
</g>
</svg>
