<svg width="32" height="32" viewBox="0 0 32 32" fill="none" xmlns="http://www.w3.org/2000/svg">
<g clip-path="url(#clip0_180_3426)">
<path d="M16.21 21C17.1195 20.5813 17.9127 19.9461 18.52 19.15C20.3611 18.0939 21.9006 16.5833 22.9914 14.7625C24.0821 12.9417 24.6876 10.8716 24.75 8.75C24.75 6.42936 23.8281 4.20376 22.1872 2.56282C20.5462 0.921872 18.3206 0 16 0C13.6794 0 11.4538 0.921872 9.81282 2.56282C8.17187 4.20376 7.25 6.42936 7.25 8.75C7.31226 10.8715 7.91888 12.9413 9.01161 14.7608C10.1044 16.5803 11.6465 18.0883 13.49 19.14C13.0401 19.4318 12.6689 19.8298 12.4091 20.2989C12.1492 20.768 12.0088 21.2938 12 21.83C12 23.83 13.68 24.72 14.79 25.32C15.18 25.53 16 25.98 16 26.17C16 26.36 15.18 26.8 14.79 27.01C13.68 27.62 12 28.52 12 30.5V31C12 31.2652 12.1054 31.5196 12.2929 31.7071C12.4804 31.8946 12.7348 32 13 32H14C14.2652 32 14.5196 31.8946 14.7071 31.7071C14.8946 31.5196 15 31.2652 15 31V30.5C15 30.31 15.82 29.87 16.21 29.65C17.32 29.05 19 28.14 19 26.17C19 24.2 17.32 23.28 16.21 22.68C15.82 22.47 15 22 15 21.83C15 21.66 15.82 21.2 16.21 21Z" fill="#191919"/>
</g>
<defs>
<clipPath id="clip0_180_3426">
<rect width="32" height="32" fill="white"/>
</clipPath>
</defs>
</svg>
