<svg width="32" height="32" viewBox="0 0 32 32" fill="none" xmlns="http://www.w3.org/2000/svg">
<path d="M29 25H28.5C27.8936 24.9858 27.2981 24.8367 26.7566 24.5634C26.2152 24.29 25.7415 23.8995 25.37 23.42C24.7307 22.6623 23.9338 22.0533 23.0347 21.6356C22.1357 21.2178 21.1563 21.0014 20.165 21.0014C19.1737 21.0014 18.1943 21.2178 17.2953 21.6356C16.3962 22.0533 15.5993 22.6623 14.96 23.42C14.5885 23.8995 14.1148 24.29 13.5734 24.5634C13.0319 24.8367 12.4364 24.9858 11.83 25C11.2236 24.9858 10.6281 24.8367 10.0866 24.5634C9.54518 24.29 9.07148 23.8995 8.7 23.42C8.09421 22.7156 7.35426 22.1389 6.5233 21.7234C5.69233 21.3079 4.78698 21.062 3.86 21H3C2.73478 21 2.48043 21.1054 2.29289 21.2929C2.10536 21.4804 2 21.7348 2 22V23C2 23.2652 2.10536 23.5196 2.29289 23.7071C2.48043 23.8946 2.73478 24 3 24H3.5C4.10636 24.0142 4.70193 24.1633 5.24338 24.4366C5.78482 24.71 6.25852 25.1005 6.63 25.58C7.26926 26.3377 8.06623 26.9467 8.96525 27.3644C9.86427 27.7822 10.8437 27.9986 11.835 27.9986C12.8263 27.9986 13.8057 27.7822 14.7047 27.3644C15.6038 26.9467 16.4007 26.3377 17.04 25.58C17.4005 25.0901 17.8712 24.6918 18.4141 24.4173C18.9569 24.1428 19.5567 23.9997 20.165 23.9997C20.7733 23.9997 21.3731 24.1428 21.9159 24.4173C22.4588 24.6918 22.9295 25.0901 23.29 25.58C23.8969 26.2855 24.6385 26.863 25.4713 27.2785C26.304 27.694 27.2113 27.9393 28.14 28H29C29.2652 28 29.5196 27.8946 29.7071 27.7071C29.8946 27.5196 30 27.2652 30 27V26C30 25.7348 29.8946 25.4804 29.7071 25.2929C29.5196 25.1054 29.2652 25 29 25ZM29 16.5H28.5C27.8936 16.4858 27.2981 16.3367 26.7566 16.0634C26.2152 15.79 25.7415 15.3995 25.37 14.92C24.7307 14.1623 23.9338 13.5533 23.0347 13.1356C22.1357 12.7178 21.1563 12.5014 20.165 12.5014C19.1737 12.5014 18.1943 12.7178 17.2953 13.1356C16.3962 13.5533 15.5993 14.1623 14.96 14.92C14.5885 15.3995 14.1148 15.79 13.5734 16.0634C13.0319 16.3367 12.4364 16.4858 11.83 16.5C11.2236 16.4858 10.6281 16.3367 10.0866 16.0634C9.54518 15.79 9.07148 15.3995 8.7 14.92C8.09246 14.2193 7.35174 13.6463 6.52086 13.2343C5.68998 12.8223 4.78551 12.5795 3.86 12.52H3C2.73478 12.52 2.48043 12.6254 2.29289 12.8129C2.10536 13.0004 2 13.2548 2 13.52V14.52C2 14.7852 2.10536 15.0396 2.29289 15.2271C2.48043 15.4146 2.73478 15.52 3 15.52H3.5C4.10636 15.5342 4.70193 15.6833 5.24338 15.9566C5.78482 16.23 6.25852 16.6206 6.63 17.1C7.26926 17.8577 8.06623 18.4667 8.96525 18.8844C9.86427 19.3022 10.8437 19.5186 11.835 19.5186C12.8263 19.5186 13.8057 19.3022 14.7047 18.8844C15.6038 18.4667 16.4007 17.8577 17.04 17.1C17.4005 16.6101 17.8712 16.2118 18.4141 15.9373C18.9569 15.6628 19.5567 15.5197 20.165 15.5197C20.7733 15.5197 21.3731 15.6628 21.9159 15.9373C22.4588 16.2118 22.9295 16.6101 23.29 17.1C23.8987 17.8019 24.641 18.3756 25.4737 18.7876C26.3064 19.1997 27.2128 19.4418 28.14 19.5H29C29.2652 19.5 29.5196 19.3946 29.7071 19.2071C29.8946 19.0196 30 18.7652 30 18.5V17.5C30 17.2348 29.8946 16.9804 29.7071 16.7929C29.5196 16.6054 29.2652 16.5 29 16.5ZM29 8H28.5C27.8936 7.98585 27.2981 7.83668 26.7566 7.56337C26.2152 7.29005 25.7415 6.89945 25.37 6.42C24.7307 5.66918 23.9359 5.06617 23.0407 4.65265C22.1455 4.23912 21.1711 4.02496 20.185 4.02496C19.1989 4.02496 18.2245 4.23912 17.3293 4.65265C16.4341 5.06617 15.6393 5.66918 15 6.42C14.6243 6.90465 14.1442 7.29839 13.5954 7.57193C13.0466 7.84547 12.4432 7.99179 11.83 8C11.2236 7.98585 10.6281 7.83668 10.0866 7.56337C9.54518 7.29005 9.07148 6.89945 8.7 6.42C8.09421 5.71562 7.35426 5.13888 6.5233 4.7234C5.69233 4.30792 4.78698 4.06201 3.86 4H3C2.73478 4 2.48043 4.10536 2.29289 4.29289C2.10536 4.48043 2 4.73478 2 5V6C2 6.26522 2.10536 6.51957 2.29289 6.70711C2.48043 6.89464 2.73478 7 3 7H3.5C4.10636 7.01415 4.70193 7.16332 5.24338 7.43663C5.78482 7.70995 6.25852 8.10055 6.63 8.58C7.27208 9.33319 8.0689 9.93921 8.96622 10.3568C9.86354 10.7744 10.8403 10.9938 11.83 11C12.8142 10.9869 13.7843 10.7643 14.6757 10.347C15.5672 9.92977 16.3595 9.32739 17 8.58C17.3605 8.09007 17.8312 7.69177 18.3741 7.41727C18.9169 7.14276 19.5167 6.99973 20.125 6.99973C20.7333 6.99973 21.3331 7.14276 21.8759 7.41727C22.4188 7.69177 22.8895 8.09007 23.25 8.58C23.8616 9.29019 24.6095 9.87034 25.4495 10.286C26.2895 10.7017 27.2044 10.9445 28.14 11H29C29.2652 11 29.5196 10.8946 29.7071 10.7071C29.8946 10.5196 30 10.2652 30 10V9C30 8.73478 29.8946 8.48043 29.7071 8.29289C29.5196 8.10536 29.2652 8 29 8Z" fill="#191919"/>
</svg>
