<svg width="32" height="32" viewBox="0 0 32 32" fill="none" xmlns="http://www.w3.org/2000/svg">
<g clip-path="url(#clip0_358_5721)">
<path d="M31.7604 15.36L28.7004 11.87L29.1304 7.26C29.1371 7.03157 29.0653 6.80774 28.927 6.6258C28.7887 6.44385 28.5923 6.31475 28.3704 6.26L23.8504 5.26L21.4804 1.26C21.3563 1.06075 21.1661 0.911486 20.9431 0.838357C20.72 0.765228 20.4784 0.77289 20.2604 0.860001L16.0004 2.65L11.7404 0.810001C11.5224 0.72289 11.2808 0.715228 11.0577 0.788357C10.8347 0.861486 10.6445 1.01075 10.5204 1.21L8.15041 5.21L3.63041 6.21C3.40854 6.26475 3.21211 6.39385 3.07383 6.5758C2.93555 6.75774 2.86376 6.98157 2.87041 7.21L3.30041 11.82L0.240414 15.36C0.0907476 15.5397 0.00878906 15.7661 0.00878906 16C0.00878906 16.2339 0.0907476 16.4603 0.240414 16.64L3.30041 20.13L2.87041 24.74C2.86376 24.9684 2.93555 25.1923 3.07383 25.3742C3.21211 25.5562 3.40854 25.6853 3.63041 25.74L8.15041 26.74L10.5204 30.74C10.6445 30.9393 10.8347 31.0885 11.0577 31.1616C11.2808 31.2348 11.5224 31.2271 11.7404 31.14L16.0004 29.35L20.2604 31.19C20.3806 31.2412 20.5097 31.2684 20.6404 31.27C20.8096 31.2676 20.9754 31.2223 21.1223 31.1383C21.2692 31.0544 21.3924 30.9345 21.4804 30.79L23.8504 26.79L28.3704 25.79C28.5923 25.7353 28.7887 25.6062 28.927 25.4242C29.0653 25.2423 29.1371 25.0184 29.1304 24.79L28.7004 20.18L31.7604 16.69C31.9235 16.5069 32.0136 16.2702 32.0136 16.025C32.0136 15.7798 31.9235 15.5431 31.7604 15.36ZM23.6504 13.65L16.2904 21L15.5904 21.71C15.497 21.8027 15.3862 21.876 15.2643 21.9258C15.1425 21.9755 15.012 22.0008 14.8804 22C14.7488 22.0008 14.6183 21.9755 14.4965 21.9258C14.3747 21.876 14.2639 21.8027 14.1704 21.71L9.73041 17.27C9.63669 17.177 9.56229 17.0664 9.51152 16.9446C9.46075 16.8227 9.43462 16.692 9.43462 16.56C9.43462 16.428 9.46075 16.2973 9.51152 16.1754C9.56229 16.0536 9.63669 15.943 9.73041 15.85L10.4404 15.15C10.6278 14.9638 10.8812 14.8592 11.1454 14.8592C11.4096 14.8592 11.6631 14.9638 11.8504 15.15L14.8504 18.15L21.5004 11.51C21.6878 11.3238 21.9412 11.2192 22.2054 11.2192C22.4696 11.2192 22.7231 11.3238 22.9104 11.51L23.6204 12.21C23.7192 12.3013 23.7985 12.4115 23.8537 12.5341C23.9089 12.6567 23.9387 12.7892 23.9415 12.9236C23.9443 13.0581 23.92 13.1917 23.87 13.3165C23.82 13.4413 23.7453 13.5547 23.6504 13.65Z" fill="#191919"/>
</g>
<defs>
<clipPath id="clip0_358_5721">
<rect width="32" height="32" fill="white"/>
</clipPath>
</defs>
</svg>
