<svg width="32" height="32" viewBox="0 0 32 32" fill="none" xmlns="http://www.w3.org/2000/svg">
<path d="M28.8 27.3988C28.9118 27.5473 28.9799 27.7241 28.9968 27.9093C29.0137 28.0944 28.9786 28.2806 28.8955 28.4469C28.8124 28.6133 28.6846 28.7531 28.5264 28.8508C28.3682 28.9485 28.1859 29.0002 28 29H4C3.81429 29 3.63225 28.9483 3.47427 28.8507C3.31629 28.753 3.18863 28.6133 3.10557 28.4472C3.02252 28.2811 2.98736 28.0952 3.00404 27.9102C3.02072 27.7252 3.08857 27.5486 3.2 27.4C4.08548 26.2128 5.26628 25.2781 6.625 24.6888C5.88022 24.009 5.35837 23.12 5.12794 22.1383C4.8975 21.1566 4.96926 20.1282 5.33379 19.1881C5.69832 18.248 6.33858 17.44 7.17054 16.8703C8.0025 16.3005 8.98728 15.9957 9.99563 15.9957C11.004 15.9957 11.9887 16.3005 12.8207 16.8703C13.6527 17.44 14.2929 18.248 14.6575 19.1881C15.022 20.1282 15.0937 21.1566 14.8633 22.1383C14.6329 23.12 14.111 24.009 13.3663 24.6888C14.3465 25.1125 15.2373 25.7186 15.9913 26.475C16.7452 25.7186 17.636 25.1125 18.6162 24.6888C17.8715 24.009 17.3496 23.12 17.1192 22.1383C16.8888 21.1566 16.9605 20.1282 17.325 19.1881C17.6896 18.248 18.3298 17.44 19.1618 16.8703C19.9938 16.3005 20.9785 15.9957 21.9869 15.9957C22.9952 15.9957 23.98 16.3005 24.812 16.8703C25.6439 17.44 26.2842 18.248 26.6487 19.1881C27.0132 20.1282 27.085 21.1566 26.8546 22.1383C26.6241 23.12 26.1023 24.009 25.3575 24.6888C26.7225 25.275 27.9097 26.2095 28.8 27.3988ZM3.4 15.8C3.50506 15.8788 3.62461 15.9361 3.75182 15.9687C3.87903 16.0013 4.01142 16.0085 4.14142 15.99C4.27142 15.9714 4.39649 15.9274 4.50949 15.8605C4.62249 15.7936 4.72121 15.7051 4.8 15.6C5.40546 14.7927 6.19055 14.1375 7.09311 13.6862C7.99567 13.2349 8.99091 13 10 13C11.0091 13 12.0043 13.2349 12.9069 13.6862C13.8094 14.1375 14.5945 14.7927 15.2 15.6C15.2931 15.7242 15.4139 15.825 15.5528 15.8944C15.6916 15.9639 15.8448 16 16 16C16.1552 16 16.3084 15.9639 16.4472 15.8944C16.5861 15.825 16.7069 15.7242 16.8 15.6C17.4055 14.7927 18.1906 14.1375 19.0931 13.6862C19.9957 13.2349 20.9909 13 22 13C23.0091 13 24.0043 13.2349 24.9069 13.6862C25.8095 14.1375 26.5945 14.7927 27.2 15.6C27.2789 15.7051 27.3777 15.7936 27.4907 15.8604C27.6038 15.9273 27.729 15.9713 27.859 15.9898C27.9891 16.0083 28.1215 16.001 28.2488 15.9683C28.376 15.9357 28.4956 15.8783 28.6006 15.7994C28.7057 15.7205 28.7942 15.6217 28.8611 15.5086C28.9279 15.3956 28.9719 15.2704 28.9904 15.1404C29.0089 15.0103 29.0016 14.8779 28.969 14.7506C28.9363 14.6234 28.8789 14.5038 28.8 14.3988C27.9145 13.2119 26.7337 12.2776 25.375 11.6888C26.1198 11.009 26.6416 10.12 26.8721 9.1383C27.1025 8.15664 27.0307 7.12825 26.6662 6.1881C26.3017 5.24796 25.6614 4.44 24.8295 3.87027C23.9975 3.30054 23.0127 2.99567 22.0044 2.99567C20.996 2.99567 20.0113 3.30054 19.1793 3.87027C18.3473 4.44 17.7071 5.24796 17.3425 6.1881C16.978 7.12825 16.9063 8.15664 17.1367 9.1383C17.3671 10.12 17.889 11.009 18.6338 11.6888C17.6535 12.1125 16.7627 12.7186 16.0088 13.475C15.2548 12.7186 14.364 12.1125 13.3837 11.6888C14.1285 11.009 14.6504 10.12 14.8808 9.1383C15.1112 8.15664 15.0395 7.12825 14.675 6.1881C14.3104 5.24796 13.6702 4.44 12.8382 3.87027C12.0062 3.30054 11.0215 2.99567 10.0131 2.99567C9.00479 2.99567 8.02 3.30054 7.18804 3.87027C6.35608 4.44 5.71582 5.24796 5.35129 6.1881C4.98676 7.12825 4.915 8.15664 5.14544 9.1383C5.37587 10.12 5.89772 11.009 6.6425 11.6888C5.2774 12.2755 4.09032 13.2104 3.2 14.4C3.12121 14.5051 3.06388 14.6246 3.03129 14.7518C2.9987 14.879 2.99148 15.0114 3.01005 15.1414C3.02862 15.2714 3.07262 15.3965 3.13953 15.5095C3.20643 15.6225 3.29494 15.7212 3.4 15.8Z" fill="#191919"/>
</svg>
