<svg width="32" height="32" viewBox="0 0 32 32" fill="none" xmlns="http://www.w3.org/2000/svg">
<g clip-path="url(#clip0_1385_5816)">
<path d="M2.66602 29.3333L21.3327 22.6666L9.33268 10.6666L2.66602 29.3333Z" fill="#191919"/>
<path d="M19.3723 16.7069L26.8257 9.2536C27.479 8.60026 28.5323 8.60026 29.1857 9.2536L29.9723 10.0403L31.3857 8.62693L30.599 7.84026C29.1723 6.4136 26.839 6.4136 25.4123 7.84026L17.959 15.2936L19.3723 16.7069Z" fill="#191919"/>
<path d="M13.4117 9.17328L12.625 9.95995L14.0383 11.3733L14.825 10.5866C16.2517 9.15995 16.2517 6.82661 14.825 5.39995L14.0383 4.61328L12.625 6.03995L13.4117 6.82661C14.0517 7.46661 14.0517 8.53328 13.4117 9.17328Z" fill="#191919"/>
<path d="M22.745 15.8403L20.625 17.9603L22.0383 19.3736L24.1583 17.2536C24.8117 16.6003 25.865 16.6003 26.5183 17.2536L28.665 19.4003L30.0783 17.9869L27.9317 15.8403C26.4917 14.4136 24.1717 14.4136 22.745 15.8403Z" fill="#191919"/>
<path d="M20.0796 7.83999L15.293 12.6267L16.7063 14.04L21.493 9.25332C22.9196 7.82666 22.9196 5.49332 21.493 4.06666L19.373 1.94666L17.9596 3.35999L20.0796 5.47999C20.7196 6.13332 20.7196 7.19999 20.0796 7.83999Z" fill="#191919"/>
</g>
<defs>
<clipPath id="clip0_1385_5816">
<rect width="32" height="32" fill="white"/>
</clipPath>
</defs>
</svg>
