<svg width="32" height="32" viewBox="0 0 32 32" fill="none" xmlns="http://www.w3.org/2000/svg">
<path d="M22 14C24.7614 14 27 11.7614 27 9C27 6.23858 24.7614 4 22 4C19.2386 4 17 6.23858 17 9C17 11.7614 19.2386 14 22 14Z" fill="#191919"/>
<path d="M22 16C20.0195 16.0043 18.065 16.452 16.28 17.31C20.13 19 23 21.89 23 24.88V25H31C31.2652 25 31.5196 24.8946 31.7071 24.7071C31.8946 24.5196 32 24.2652 32 24V21.88C32 19.55 27.52 16 22 16ZM10 19C4.48 19 0 22.55 0 24.88V27C0 27.2652 0.105357 27.5196 0.292893 27.7071C0.48043 27.8946 0.734784 28 1 28H19C19.2652 28 19.5196 27.8946 19.7071 27.7071C19.8946 27.5196 20 27.2652 20 27V24.88C20 22.55 15.52 19 10 19Z" fill="#191919"/>
<path d="M10 17C12.7614 17 15 14.7614 15 12C15 9.23858 12.7614 7 10 7C7.23858 7 5 9.23858 5 12C5 14.7614 7.23858 17 10 17Z" fill="#191919"/>
</svg>
