<svg width="32" height="32" viewBox="0 0 32 32" fill="none" xmlns="http://www.w3.org/2000/svg">
<path d="M16 22.25C18.3472 22.25 20.25 20.3472 20.25 18C20.25 15.6528 18.3472 13.75 16 13.75C13.6528 13.75 11.75 15.6528 11.75 18C11.75 20.3472 13.6528 22.25 16 22.25Z" fill="#191919"/>
<path d="M29 8H23V5C23 4.73478 22.8946 4.48043 22.7071 4.29289C22.5196 4.10536 22.2652 4 22 4H10C9.73478 4 9.48043 4.10536 9.29289 4.29289C9.10536 4.48043 9 4.73478 9 5V8H3C2.73478 8 2.48043 8.10536 2.29289 8.29289C2.10536 8.48043 2 8.73478 2 9V27C2 27.2652 2.10536 27.5196 2.29289 27.7071C2.48043 27.8946 2.73478 28 3 28H29C29.2652 28 29.5196 27.8946 29.7071 27.7071C29.8946 27.5196 30 27.2652 30 27V9C30 8.73478 29.8946 8.48043 29.7071 8.29289C29.5196 8.10536 29.2652 8 29 8ZM16 25.25C14.5661 25.25 13.1644 24.8248 11.9721 24.0282C10.7799 23.2315 9.85061 22.0992 9.30187 20.7745C8.75314 19.4497 8.60956 17.992 8.88931 16.5856C9.16905 15.1792 9.85955 13.8874 10.8735 12.8735C11.8874 11.8595 13.1792 11.169 14.5856 10.8893C15.992 10.6096 17.4497 10.7531 18.7745 11.3019C20.0992 11.8506 21.2315 12.7799 22.0282 13.9721C22.8248 15.1644 23.25 16.5661 23.25 18C23.2474 19.922 22.4827 21.7645 21.1236 23.1236C19.7645 24.4827 17.922 25.2474 16 25.25Z" fill="#191919"/>
</svg>
