<svg width="32" height="32" viewBox="0 0 32 32" fill="none" xmlns="http://www.w3.org/2000/svg">
<path d="M24.18 11L28.85 3.53C28.9447 3.37849 28.9971 3.20437 29.0017 3.02575C29.0063 2.84713 28.9629 2.67055 28.8762 2.51436C28.7894 2.35817 28.6624 2.22808 28.5083 2.13762C28.3542 2.04716 28.1787 1.99964 28 2H6C5.73478 2 5.48043 2.10536 5.29289 2.2929C5.10536 2.48043 5 2.73479 5 3V29C5 29.2652 5.10536 29.5196 5.29289 29.7071C5.48043 29.8946 5.73478 30 6 30H7C7.26522 30 7.51957 29.8946 7.70711 29.7071C7.89464 29.5196 8 29.2652 8 29V20H28C28.1787 20.0004 28.3542 19.9528 28.5083 19.8624C28.6624 19.7719 28.7894 19.6418 28.8762 19.4856C28.9629 19.3295 29.0063 19.1529 29.0017 18.9743C28.9971 18.7956 28.9447 18.6215 28.85 18.47L24.18 11Z" fill="#191919"/>
</svg>
