<svg width="32" height="32" viewBox="0 0 32 32" fill="none" xmlns="http://www.w3.org/2000/svg">
<g clip-path="url(#clip0_180_3435)">
<path d="M31.7594 15.3599L28.6994 11.8699L29.1294 7.25994C29.1361 7.03151 29.0643 6.80768 28.926 6.62573C28.7877 6.44379 28.5913 6.31469 28.3694 6.25994L23.8494 5.25994L21.4794 1.25994C21.3554 1.06069 21.1652 0.911425 20.9421 0.838296C20.7191 0.765167 20.4774 0.772829 20.2594 0.85994L15.9994 2.64994L11.7394 0.80994C11.5215 0.722829 11.2798 0.715167 11.0568 0.788296C10.8337 0.861425 10.6435 1.01069 10.5194 1.20994L8.14944 5.20994L3.62944 6.20994C3.40756 6.26469 3.21113 6.39379 3.07285 6.57573C2.93457 6.75768 2.86278 6.98151 2.86944 7.20994L3.29944 11.8199L0.239438 15.3599C0.089771 15.5396 0.0078125 15.7661 0.0078125 15.9999C0.0078125 16.2338 0.089771 16.4603 0.239438 16.6399L3.29944 20.1299L2.86944 24.7399C2.86278 24.9684 2.93457 25.1922 3.07285 25.3741C3.21113 25.5561 3.40756 25.6852 3.62944 25.7399L8.14944 26.7399L10.5194 30.7399C10.6435 30.9392 10.8337 31.0885 11.0568 31.1616C11.2798 31.2347 11.5215 31.2271 11.7394 31.1399L15.9994 29.3499L20.2594 31.1899C20.3797 31.2412 20.5088 31.2684 20.6394 31.2699C20.8086 31.2675 20.9744 31.2222 21.1213 31.1383C21.2683 31.0543 21.3915 30.9345 21.4794 30.7899L23.8494 26.7899L28.3694 25.7899C28.5913 25.7352 28.7877 25.6061 28.926 25.4241C29.0643 25.2422 29.1361 25.0184 29.1294 24.7899L28.6994 20.1799L31.7594 16.6899C31.9225 16.5068 32.0126 16.2701 32.0126 16.0249C32.0126 15.7797 31.9225 15.5431 31.7594 15.3599ZM23.6494 13.6499L16.2894 20.9999L15.5894 21.7099C15.496 21.8026 15.3852 21.8759 15.2633 21.9257C15.1415 21.9755 15.011 22.0007 14.8794 21.9999C14.7478 22.0007 14.6174 21.9755 14.4955 21.9257C14.3737 21.8759 14.2629 21.8026 14.1694 21.7099L9.72944 17.2699C9.63571 17.177 9.56131 17.0664 9.51055 16.9445C9.45978 16.8227 9.43364 16.692 9.43364 16.5599C9.43364 16.4279 9.45978 16.2972 9.51055 16.1754C9.56131 16.0535 9.63571 15.9429 9.72944 15.8499L10.4394 15.1499C10.6268 14.9637 10.8803 14.8591 11.1444 14.8591C11.4086 14.8591 11.6621 14.9637 11.8494 15.1499L14.8494 18.1499L21.4994 11.5099C21.6868 11.3237 21.9403 11.2191 22.2044 11.2191C22.4686 11.2191 22.7221 11.3237 22.9094 11.5099L23.6194 12.2099C23.7182 12.3012 23.7975 12.4114 23.8527 12.534C23.9079 12.6567 23.9378 12.7891 23.9406 12.9236C23.9434 13.058 23.919 13.1916 23.869 13.3164C23.819 13.4412 23.7443 13.5547 23.6494 13.6499Z" fill="#191919"/>
</g>
<defs>
<clipPath id="clip0_180_3435">
<rect width="32" height="32" fill="white"/>
</clipPath>
</defs>
</svg>
