<svg width="32" height="32" viewBox="0 0 32 32" fill="none" xmlns="http://www.w3.org/2000/svg">
<path d="M30.9844 3.82381C30.9375 3.56297 30.789 3.33142 30.5715 3.18001C30.354 3.0286 30.0853 2.96972 29.8244 3.01631L1.82439 8.01631C1.57911 8.06107 1.3594 8.19584 1.20834 8.3942C1.05728 8.59257 0.985766 8.84021 1.00783 9.08856C1.0299 9.33692 1.14395 9.56807 1.32761 9.73669C1.51128 9.90531 1.75131 9.99924 2.00064 10.0001C2.06012 9.99998 2.11949 9.99496 2.17814 9.98506L15.0006 7.69506V12.0001H8.00064C6.93978 12.0001 5.92236 12.4215 5.17222 13.1716C4.42207 13.9218 4.00064 14.9392 4.00064 16.0001V24.0001C4.00064 25.0609 4.42207 26.0783 5.17222 26.8285C5.92236 27.5786 6.93978 28.0001 8.00064 28.0001H24.0006C25.0615 28.0001 26.0789 27.5786 26.8291 26.8285C27.5792 26.0783 28.0006 25.0609 28.0006 24.0001V16.0001C28.0006 14.9392 27.5792 13.9218 26.8291 13.1716C26.0789 12.4215 25.0615 12.0001 24.0006 12.0001H17.0006V7.33756L30.1756 4.98506C30.305 4.96199 30.4286 4.91364 30.5393 4.84278C30.65 4.77192 30.7456 4.67993 30.8207 4.57208C30.8959 4.46423 30.949 4.34263 30.9771 4.21423C31.0051 4.08584 31.0076 3.95317 30.9844 3.82381ZM13.0006 20.0001V14.0001H19.0006V20.0001H13.0006ZM8.00064 14.0001H11.0006V20.0001H6.00064V16.0001C6.00064 15.4696 6.21136 14.9609 6.58643 14.5858C6.9615 14.2108 7.47021 14.0001 8.00064 14.0001ZM26.0006 16.0001V20.0001H21.0006V14.0001H24.0006C24.5311 14.0001 25.0398 14.2108 25.4149 14.5858C25.7899 14.9609 26.0006 15.4696 26.0006 16.0001Z" fill="#191919"/>
</svg>
