<svg width="32" height="32" viewBox="0 0 32 32" fill="none" xmlns="http://www.w3.org/2000/svg">
<path d="M26.64 4.23002C26.5287 4.13369 26.3975 4.06312 26.2557 4.02336C26.114 3.98361 25.9652 3.97563 25.82 4.00002L9.82 7.00002C9.58704 7.04262 9.37676 7.16651 9.2266 7.34963C9.07644 7.53276 8.99614 7.76323 9 8.00002V19.78C8.52018 19.5998 8.01251 19.5051 7.5 19.5C6.60999 19.5 5.73996 19.7639 4.99994 20.2584C4.25991 20.7529 3.68314 21.4557 3.34254 22.2779C3.00195 23.1002 2.91283 24.005 3.08647 24.8779C3.2601 25.7508 3.68868 26.5527 4.31802 27.182C4.94736 27.8113 5.74918 28.2399 6.6221 28.4136C7.49501 28.5872 8.39981 28.4981 9.22208 28.1575C10.0443 27.8169 10.7471 27.2401 11.2416 26.5001C11.7361 25.7601 12 24.89 12 24V9.81002L24 7.24002V15.78C23.5202 15.5998 23.0125 15.5051 22.5 15.5C21.61 15.5 20.74 15.7639 19.9999 16.2584C19.2599 16.7529 18.6831 17.4557 18.3425 18.2779C18.002 19.1002 17.9128 20.005 18.0865 20.8779C18.2601 21.7508 18.6887 22.5527 19.318 23.182C19.9474 23.8113 20.7492 24.2399 21.6221 24.4136C22.495 24.5872 23.3998 24.4981 24.2221 24.1575C25.0443 23.8169 25.7471 23.2401 26.2416 22.5001C26.7361 21.7601 27 20.89 27 20V5.00002C27.0002 4.85311 26.9681 4.70795 26.9059 4.57487C26.8437 4.44178 26.7529 4.32404 26.64 4.23002Z" fill="#191919"/>
</svg>
