<svg width="32" height="32" viewBox="0 0 32 32" fill="none" xmlns="http://www.w3.org/2000/svg">
<path d="M12.068 4.51756C11.9321 4.01181 12 3.47293 12.2571 3.0167C12.5142 2.56047 12.94 2.22327 13.443 2.07756C14.5193 1.77006 15.6493 2.45256 15.943 3.53381L17.943 11.0063C17.9615 11.0736 17.9656 11.144 17.9553 11.213C17.9449 11.2819 17.9202 11.348 17.8827 11.4069C17.8453 11.4657 17.796 11.5161 17.7379 11.5548C17.6798 11.5934 17.6143 11.6195 17.5455 11.6313C16.9922 11.726 16.4652 11.9369 15.9993 12.2501C15.9293 12.2963 15.8618 12.3451 15.7943 12.3963C15.753 12.3238 15.7105 12.2513 15.6693 12.1813C15.242 11.5321 14.6335 11.0227 13.9193 10.7163C13.8506 10.6867 13.7896 10.6418 13.7409 10.585C13.6921 10.5283 13.657 10.4612 13.638 10.3888L12.068 4.51756ZM10.0493 22.0813C10.1821 22.1086 10.3174 22.1224 10.453 22.1226C10.9487 22.1221 11.4265 21.9377 11.7939 21.6049C12.1613 21.2722 12.392 20.8149 12.4414 20.3217C12.4907 19.8285 12.3552 19.3345 12.061 18.9356C11.7668 18.5367 11.335 18.2612 10.8493 18.1626L8.40053 17.6626C7.88306 17.5618 7.34672 17.6694 6.90818 17.962C6.46964 18.2546 6.16436 18.7085 6.05875 19.225C5.95314 19.7415 6.05574 20.2789 6.34424 20.7201C6.63273 21.1614 7.08378 21.4709 7.59928 21.5813L10.0493 22.0813ZM7.59928 15.4563L11.9293 16.3401C12.1882 16.3969 12.4559 16.4016 12.7167 16.3541C12.9775 16.3065 13.2262 16.2076 13.4484 16.063C13.6706 15.9185 13.8619 15.7312 14.0111 15.512C14.1603 15.2929 14.2644 15.0463 14.3174 14.7866C14.3704 14.5268 14.3713 14.2591 14.3199 13.9991C14.2686 13.739 14.166 13.4917 14.0183 13.2716C13.8705 13.0515 13.6804 12.863 13.4591 12.717C13.2379 12.5711 12.9898 12.4705 12.7293 12.4213L8.40053 11.5413C7.88087 11.4351 7.3403 11.5396 6.89772 11.8319C6.45514 12.1243 6.1468 12.5804 6.04053 13.1001C5.9343 13.6197 6.03884 14.1603 6.33116 14.6029C6.62348 15.0454 7.07963 15.3538 7.59928 15.4601V15.4563ZM20.3493 11.9363L23.293 12.5376C23.4172 12.5627 23.5462 12.5397 23.6541 12.4734C23.762 12.407 23.8407 12.3022 23.8743 12.1801L25.9268 4.51756C26.0618 4.00591 25.9886 3.46159 25.7232 3.00381C25.4577 2.54603 25.0217 2.21211 24.5105 2.07519C23.9994 1.93826 23.4548 2.00949 22.996 2.27328C22.5373 2.53707 22.2018 2.97191 22.063 3.48256L19.963 11.3201C19.9453 11.3863 19.9414 11.4555 19.9516 11.5233C19.9617 11.5911 19.9857 11.6561 20.022 11.7143C20.0584 11.7724 20.1063 11.8225 20.1628 11.8613C20.2193 11.9002 20.2832 11.927 20.3505 11.9401L20.3493 11.9363ZM25.0168 15.9038C24.8028 15.5519 24.5183 15.2481 24.1812 15.0115C23.8441 14.7749 23.4617 14.6105 23.058 14.5288L18.608 13.6251C18.2659 13.5551 17.9113 13.5761 17.5797 13.6857C17.2482 13.7954 16.9511 13.9899 16.718 14.2501C16.5943 14.3822 16.4918 14.5327 16.4143 14.6963C16.2456 15.0346 16.1763 15.4138 16.2144 15.7899C16.2524 16.166 16.3963 16.5236 16.6293 16.8213C16.936 17.2067 17.3705 17.4697 17.8543 17.5626L19.7593 17.9513C20.018 18.0039 20.2457 18.156 20.3935 18.3748C20.5412 18.5936 20.5972 18.8617 20.5493 19.1213C20.3812 19.929 20.5038 20.7702 20.8955 21.4963C21.0158 21.7067 21.0576 21.9529 21.0134 22.1912C20.9693 22.4294 20.842 22.6443 20.6543 22.7976C20.5403 22.8869 20.4082 22.9505 20.2673 22.9838C20.1263 23.0171 19.9798 23.0194 19.8379 22.9905C19.6959 22.9616 19.5619 22.9022 19.4452 22.8165C19.3285 22.7307 19.2318 22.6206 19.1618 22.4938C18.6952 21.6494 18.459 20.6971 18.4768 19.7326L17.408 19.5001C16.8937 19.3965 16.405 19.192 15.9701 18.8985C15.5352 18.605 15.1628 18.2283 14.8743 17.7901C14.8268 17.7188 14.783 17.6463 14.7418 17.5726C14.4773 17.7741 14.1889 17.9421 13.883 18.0726C14.2458 18.6794 14.4413 19.3716 14.4495 20.0786C14.4577 20.7856 14.2784 21.4821 13.9298 22.0972C13.5812 22.7123 13.0758 23.2241 12.4651 23.5803C11.8543 23.9365 11.1601 24.1245 10.453 24.1251C10.1831 24.1249 9.91381 24.0977 9.64928 24.0438L7.20053 23.5438H7.19303C7.13421 23.5299 7.07267 23.5325 7.01528 23.5515C6.95789 23.5705 6.9069 23.6051 6.86801 23.6514C6.82912 23.6977 6.80385 23.7538 6.79503 23.8136C6.7862 23.8734 6.79416 23.9345 6.81803 23.9901C7.59844 25.7759 8.88255 27.2956 10.5132 28.363C12.1439 29.4304 14.0503 29.9993 15.9993 30.0001H16.0755C21.5468 29.9588 25.9993 25.4226 25.9993 19.8876V19.4701C25.9989 18.2159 25.6599 16.9851 25.018 15.9076L25.0168 15.9038Z" fill="#191919"/>
</svg>
