<svg width="32" height="32" viewBox="0 0 32 32" fill="none" xmlns="http://www.w3.org/2000/svg">
<path d="M16 0C12.8174 0 9.76515 1.26428 7.51472 3.51472C5.26428 5.76515 4 8.8174 4 12C4 21.33 14.87 31.32 15.33 31.74C15.5138 31.9058 15.7525 31.9976 16 31.9976C16.2475 31.9976 16.4862 31.9058 16.67 31.74C17.13 31.32 28 21.33 28 12C28 8.8174 26.7357 5.76515 24.4853 3.51472C22.2348 1.26428 19.1826 0 16 0ZM16 17C15.0111 17 14.0444 16.7068 13.2221 16.1573C12.3999 15.6079 11.759 14.827 11.3806 13.9134C11.0022 12.9998 10.9031 11.9945 11.0961 11.0245C11.289 10.0546 11.7652 9.16373 12.4645 8.46447C13.1637 7.7652 14.0546 7.289 15.0245 7.09607C15.9945 6.90315 16.9998 7.00216 17.9134 7.3806C18.827 7.75904 19.6079 8.3999 20.1573 9.22215C20.7068 10.0444 21 11.0111 21 12C21 13.3261 20.4732 14.5979 19.5355 15.5355C18.5979 16.4732 17.3261 17 16 17Z" fill="#191919"/>
</svg>
