<svg width="32" height="32" viewBox="0 0 32 32" fill="none" xmlns="http://www.w3.org/2000/svg">
<path d="M28.0009 5.44997C27.241 4.67974 26.3368 4.06689 25.3398 3.64649C24.3429 3.22609 23.2728 3.0064 22.1909 2.99997C21.1053 3.00211 20.031 3.21978 19.0302 3.64035C18.0294 4.06092 17.1221 4.67602 16.3609 5.44997L16.0009 5.79997L15.6509 5.44997C14.8977 4.68203 14.0004 4.07019 13.0105 3.64946C12.0205 3.22874 10.9573 3.0074 9.88164 2.99811C8.80601 2.98882 7.73912 3.19177 6.74204 3.59533C5.74495 3.9989 4.83725 4.59516 4.0709 5.34997L3.9709 5.44997C2.43626 7.03039 1.58036 9.14818 1.58596 11.3511C1.59157 13.554 2.45824 15.6674 4.0009 17.24L15.2909 28.7C15.3839 28.7937 15.4945 28.8681 15.6163 28.9189C15.7382 28.9696 15.8689 28.9958 16.0009 28.9958C16.1329 28.9958 16.2636 28.9696 16.3855 28.9189C16.5073 28.8681 16.6179 28.7937 16.7109 28.7L28.0009 17.24C29.5348 15.661 30.3929 13.5463 30.3929 11.345C30.3929 9.1436 29.5348 7.02892 28.0009 5.44997Z" fill="#191919"/>
</svg>
